<?xml version="1.0" encoding="utf-8"?>
<!-- Generator: Adobe Illustrator 22.0.1, SVG Export Plug-In . SVG Version: 6.00 Build 0)  -->
<svg version="1.1" id="_x2014_ÎÓÈ_x5F_1" xmlns="http://www.w3.org/2000/svg" xmlns:xlink="http://www.w3.org/1999/xlink"
	 x="0px" y="0px" viewBox="0 0 241.2 44.6" style="enable-background:new 0 0 241.2 44.6;" xml:space="preserve">
<style type="text/css">
	.st0{fill:#EBEBEB;}
</style>
<g>
	<path class="st0" d="M119.5,34.1V34c-0.2-0.2-0.6-0.4-0.6-0.5c0.3-0.3-0.6-0.3-0.8-0.4c-1.1-0.2-3.5-0.6-4.2-0.9
		c-0.9-0.5-0.2-1-1.1-1.9c-0.8-0.8-2-1.7-2.7-2.6c-0.6-1-0.8-1.1-1.8-1.8c-0.9-0.6-1.3-0.8-2.2-1.3c-1.4-0.8-0.9-1.5-3.1-2.3
		c-2.9-1-2.3-2.1-3.6-2.8c-1.2-0.6-1.2-0.7-2.1-1.7c-1-1.1-2.4-1.5-3.5-2.2c-2.4-1.4-2.6-1.9-5.6-1.5c-4,0.6-1.8,1.5-3.7,1.8
		c-1.3,0.4-0.2,2.3-3,0.8c-1.4-0.7-3.3-1.9-4.2-3.1c-0.7-0.9,0.8-0.4-1.5-1.4c-1.6-0.7-2.6-1.8-4-2.8l-0.2-0.1
		c-0.9-0.4-0.8-0.1-1.3-0.8c-0.6-0.9-0.7,0-1.4-1c-2-2.8-2.9-1.7-5.5-3.7c-0.6-0.4-1.8,0-3.2-1.4c-0.4-0.4-0.7-0.6-1.1-1
		c-1.2-0.9-2-1.3-2.6-1.3H56c-1.3,0.1-2.1,1.4-4.3,1.8c-2.7,0.6-3.1,1.4-4.9,3.4c-1.2,1.3-1.6,1.5-3,2.5C42.4,9,42.4,9.5,41.5,11
		c-0.4,0.5-2,2.8-2.6,2.5c-0.7-0.2-2.8-1.9-3.2-2.5c-0.4-0.7-0.1-0.7-1-0.9c-0.4-0.1-0.6-0.4-0.9-0.6c-0.8-0.6-1.8-1.1-2.6-1.8
		c-1.5-1.2-1.3-0.5-3.1-0.6c-1.8-0.1-1,0.1-2.5,1.1c-1.6,1-3.2,1.1-4.7,2.6c-1,1-1.5,1.6-2.7,2.4c-0.9,0.7-2.5,1.9-3,2.8
		c-0.5,0.9-0.5,1.3-1.2,2.3c-1.3,1.6-3.5,3.5-5.3,4.6c-1.1,0.7-1.1,0.3-1.9,1.6c-0.5,0.8-0.8,1.1-1.7,1.5c-1.9,0.7-1.4,0.5-2.6,2.2
		c-0.2,0.2-1.3,0.9-1.5,1.1c0.3,0.2-1.3,2.5-1,2.7c0.8-0.6,4.5-3.7,5-4.2c0.9-1,1.2-1.3,2.3-2.1c0.8-0.6,1.2-1.2,2-1.8
		c0.1-0.1,0.8-0.6,0.8-0.7c0.1-0.2-0.1-0.1,0.2-0.3c0.5-0.3,0.7-0.4,1.2-0.8c1.5-1.2,4.3-3.9,4.9-5.7c0.2-0.5,0.2-1.2,0.7-1.1
		c0.4,0.1,0.8-0.4,1-0.7c0.3-0.3,3.3-2.9,3.5-2.6c0,0.2-0.4,1,0.2,1.1c0.5,0,0.5-0.7,0.8-0.7c0.4,0,3.4-3.8,5.7-4
		c1.3-0.1,0.7,0.8,0.7,0.8c-0.6,0-1.5,1.1-0.5,0.8c1-0.3,0.7,0.3,0.2,0.9c-0.4,0.4-3.1,2.6-2.8,3c0.4,0.4,0.2,0.1-0.3,0.7
		c-0.6,0.8-1.7-0.5-0.8,1.3c0.8,1.6-5.4,9.6-5.2,9.2c-0.5,0.1-0.8-0.2-1,0.6c0,0.1,0,0.1-0.1,0.2c-0.2,0.1-2,1.4-2.8,2.3
		c-0.6,0.6,1.2,0.5,0.3,1c-0.2,0.1-1.4,2.6-1.4,2.6c0,0.4-0.3,0.5-0.7,0.7c-0.5,0.2-0.1,1-1,0.7c-0.5-0.2-2.9,3.4-4.6,5.4
		c1.1,0.5,0.1,2.1,0.8,2.7c1.6-0.6,2.6-2,4-3.3c1.2,0.4-1.2,5.7-1,5.8c1,0.9,2-0.5,2.6,0.8c0.1-0.1,0.1-0.2,0.2-0.3
		c0.4-0.8,2.2-3.8,2.7-4.7c1.6-3.1,1.4,0.7,4.2,0.4c2-0.2,5.2-3.5,6.8-2c0.4,0.4,0.6,2.1,0.9,2.6c0.4,0.5,0.7,1.1,0.9,1.7
		c0.4,0,0.8,0,1.2,0c1.4,0.1,2.7,0.6,3.7,1.5l0.2-0.3c0.3-0.5,0.5-0.8,0.6-1.1c0.1-0.2,0.2-0.4,0.3-0.6c0.3-1.7,1.3-3,2.7-3.9
		c1.3-0.8,1.5,1.3,2.9,1.2c1.3-0.1,4.2-3.7,5.2-2.9c1,0.5,1.1,3.5,1.8,4.4c0.2,0.2,0.5,0.6,0.8,1c0.1,0.2,0.2,0.4,0.4,0.6
		c0.8-0.1,2.6-2.7,3.4-2.6c0.8,0.2,1.6,3.2,2.2,3.6c-0.3-2.5,4.3-8.1,4.4-8.1c0.6-0.2,0.8,2.3,1.2,2.9c1.7,0.3,4.4-6.9,7.9-9.1
		c0.6-0.3-0.7,5-0.5,5.3c0,0,9.4-5.4,7.1-6.6c-0.6-0.3-4.3,0.2-1.7-1.6c0.9-0.6,4.2-2.4,4.2-2.4c0.8-0.8,1.3-1.4,2.1-2.2
		c0.7-0.8,1.6-1.1,2.5-1.8c0.9-0.6,0.4-0.1,0.8-0.3c0.2-0.1,0.8-1.5,1.1-1.8c1-1.3,3.7-2.5,5.1-1.4c0.3,0.2,0,0.5,0,0.9
		c-0.2,1.6-0.3,0.8-0.7,2c-0.5,1.7,0.2,1.9-0.6,4c-0.7,1.7,0.1,0.7,0.2,2.1c0,1.9-2.1,2.1-0.8,3.4c0.6,0.6-2,3.8-2.8,4.1
		c-0.9,0.4-0.9-0.1-1.4,0.1c-0.1,0.1,0,0.2,0.1,0.3h-1.6c0-0.3-0.1-0.7-0.1-0.9c0-1.3-0.3-0.9-0.3-1.3c0-0.7,0.9-0.7,0.3-2.7
		c-0.2-1,0.4-0.8,0.4-1.1c-0.1-0.7,0-0.5,0.9-1.7c0.3-0.3,0.5-0.8,0.8-1.1c0.3-0.4,1.4-2.2,0.7-2.5c-1-0.4-2.6,2.5-3.4,3.1
		c-1.1,0.9-1.4,0.9-0.5,2.5c1.7,3.2-3.2,3.7-2.5,7.6c0.3,0,0.3,2.3,0.6,2.4c1.8,0.2,3.8-0.7,4.5,1.1c0.2,0.4,1.2-3.6,1.3-3.1
		c0.4,0,0,4.5,0.5,4.7c0.4,0.1,0.7,1.8,1,1.8c0,0,0.1,0,0.2,0.1c0.7,0.2,2.3-4.7,2.8-4.4c0.9,0.3,0.8,4.3,1.4,4.9
		c1.5,1.4,0.6,0.8,1.6-1c0.2-0.5,0.4-0.9,0.6-1.2c0.2-0.6-0.6-4.3,0.1-4.7c4.4,0.9,3.6,5.3,6.2,4.1c0,0,0,0,0.1,0
		c0.9-0.1,1.9-1.6,2.8-1.2c0.2,0.1,0.4-2.4,0.7-2.2c1.4,0.6,2.7,1.4,3.5,2.8c1,0.3,2.5,0.5,3,0.2c2.4-1.5,4.1-3,6.1-1.2
		c1,0.5,1.5,1.7,2.2,2.6c0.2,0.2,0.4,0.6,0.7,0.9c0.1,0.2,0.3,0.5,0.4,0.7c0.1,0,0.1,0,0.2,0l0.5-2c0.7,0,1.4,2.1,2.1,2.2
		c1.1,0.2,2.8,0.7,3.6,1.3c0,0,0,0,0-0.1c0-0.1,0.1-0.2,0.1-0.2c0.2-0.8-0.4-3.1-0.3-3.3l1.3,1.3c1.4-2.8,2.8-0.1,3.2-0.8
		L119.5,34.1L119.5,34.1z M74.6,16.3c-6.6-0.5-5.6-2.5-0.4-1c0.8,0.4,0.1,0.4,0.6,0.8C75,16.3,74.9,16.3,74.6,16.3L74.6,16.3z
		 M73.4,19.8c-0.4,0.3-1.4,1.7-3.5,0.8c-0.2-0.1-0.2-1.9,0.2-2C71.2,18.2,73.8,19.4,73.4,19.8L73.4,19.8z M58.5,20.5
		c-0.2,1.1-0.1,1.6-0.2,2.7c-0.1,1.6-0.2,1.8-0.6,3.7c-0.2,1.1,4.3,1.7,1,1.3c-1.6-0.2-4.1,1.5-4.7,0.2c-0.3-0.7-0.6-1.1-0.9-1.7
		c-1.2-2.3,3.6,0.2-0.5-3.2c4-1,0.6-0.6-0.2-1.3c-0.3-0.3,0.7-1,1.2-1c0.4,0,1.2-4.1,1.4-5.5c0.2-1.4,0.2-2.7,0.4-4.1l0-0.2
		c0.3-1.7,0.6-2.7,0.6-4.4c0-0.8,0.5-2.2,1.3-1.5c0.2,0.2,0,0.7,1.2,2.1c2.2,2.7,0.7,0,2.4,0.3c0.9,0.1,1,1.1,2.3,1.7
		c0.6,0.3,3.2,4-3,1.1C53.5,7.5,60.2,13.4,58.5,20.5L58.5,20.5z M56.9,30.3c-2.4-0.4-1.1-1-0.6-0.9c0.3,0.1,0.6,0.3,0.8,0.5
		C58,30.4,58,30.5,56.9,30.3L56.9,30.3z M48.8,17.8c-0.1,0.7,0,0.9-0.1,1.6c-0.1,1-1.3,1.4-0.1,2.5c1.2,1,1.1,1.7,0.8,2.1
		c-1.1-0.8-2.2-1.7-3.1-2.6c-1-1-0.3-0.4-0.1-2.1l0.1-0.4c0.1-0.8-0.3-1.5-0.4-2.3c-0.3-2.8,0.6-2.3,0.7-3c0.1-0.9-0.2-0.9,0.2-1.9
		c0.9-2.9,4.4-2,2.2-3.5c-0.7-0.5-1.1-0.4-1.5,0.5c-0.6,1.6-1.1,1-1.9,1.8c-0.5,0.5-1.2,0.4-1.1,0.8c0.2,0.7,0.3,0.9,0,1.6
		c-0.3,0.7-0.7,0.2-0.5,1.1c0.2,1.2-0.1,0.6-0.1,1.3c0,0.6-0.1,1.2,0.6,1.2c-0.1,0.2-0.8,0.3-0.5,0.9c0.5,0.9-0.7,0.4-1,0.1
		c-2.1-1.5-3.7-2.6-2.1-4.5c0.6-0.7,1.2-1.6,1.9-2.2c0,0.1-0.2,1.3,0.4,0.9c0.9-0.5-0.5-1.8,0.4-2.4l0.3-0.1l0.3-0.1
		c0.4-0.1,0.6-0.1,0.8-0.5c-0.9,0-0.9,0.1,0.1-0.6c1.2-0.9,1.6-1.4,2.6-2.4c0.9-1,0.9-0.6,1.3-0.8c0.8-0.5,0.4-1.4,1.7-1.4
		c0.7,0,0.9,0.1,1.5-0.3c1-0.7,2.4-1.7,3.7-1.4c-0.4,0.9-0.3,0.1-0.5,1.4C55.2,3.6,55.1,4,55,4.6c-0.2,0.9-0.2,0.6-0.5,1.2
		c-0.6,1.1,0.7,0.6-0.2,1C53.9,7,52.1,9,52.2,9.4c0.5,0.7,0.9,0.1-0.2,1.6c-0.7,1.1-2.1,4-2.8,4.8C48.5,16.6,48.9,16.7,48.8,17.8
		L48.8,17.8z M34.1,29.2c-0.2,0.2,0.3,1.3-0.6,1.1c0.3,0.3,0.9,0.6,0.3,1c-0.4,0.3,0,0.5-0.3,1c-0.3,0.6-0.7-0.2-1.2,0.1
		c-0.4,0.3-1.1,0.5-1.1-0.3c0-0.8,1.3-5.3,0.8-5.5c-0.6-0.2-2.2,2.7-3.8,5.9c-0.5,1-2.7,3.7-4.8,3.6c-0.1,0.7,1.2-2.3,0.9-2.9
		c-0.6-1.3-4.6,4.5-6.1,4c-1-0.4,1.5-4.8,1.7-5.3c0.4-0.7,4.9-9,8.4-11.5c0.3-0.3,0.3-0.4,0.6-0.4c0-0.1-0.2-0.6-0.1-1
		c0.1-0.2-0.1-0.6,0.2-0.8c1.1-0.7-0.4-1.1,1.1-1.8c0.5-0.2,0.5,0.4,0.1-0.7c-0.6-1.5,0.3-0.6-0.4-2c-0.6-1.1,0.1-1.7,1.2-1.7
		c0.5,0,3.1,0.9,3.3,1.3c0.1,0.2-0.1,0.6-0.4,0.7c-1.6,0.4,0.1,0.8,0.2,2c0.1,0.8,0.5,1.8,0.9,1.8c3.2,0.1-3,3.2-1.9,5.8
		c0.1,0.2,1.5,1.2,1.1,1.6C32.9,26.7,35.4,28.1,34.1,29.2L34.1,29.2z M5,33.9c1.2-1.3,3.4-5.6,4.3-5.7c0.1,0,1-1.4,1-1.4
		c0.1-0.2,0.3-1.9,0.3-2.3c0-1-4.5,5-5.1,5.2c-0.2,0.1-0.2,1.7-0.3,1.8C5.7,31.8,4.5,33.2,5,33.9L5,33.9z"/>
	<path class="st0" d="M231.5,34.1V34c-0.2-0.2-0.6-0.4-0.6-0.5c0.3-0.3-0.6-0.3-0.8-0.4c-1.1-0.2-3.5-0.6-4.2-0.9
		c-0.9-0.5-0.2-1-1.1-1.9c-0.8-0.8-2-1.7-2.7-2.6c-0.6-1-0.8-1.1-1.8-1.8c-0.9-0.6-1.3-0.8-2.2-1.3c-1.4-0.8-0.9-1.5-3.1-2.3
		c-2.9-1-2.3-2.1-3.6-2.8c-1.2-0.6-1.2-0.7-2.1-1.7c-1-1.1-2.4-1.5-3.5-2.2c-2.4-1.4-2.6-1.9-5.6-1.5c-4,0.6-1.8,1.5-3.7,1.8
		c-1.3,0.4-0.2,2.3-3,0.8c-1.4-0.7-3.3-1.9-4.2-3.1c-0.7-0.9,0.8-0.4-1.5-1.4c-1.6-0.7-2.6-1.8-4-2.8l-0.2-0.1
		c-0.9-0.4-0.8-0.1-1.3-0.8c-0.6-0.9-0.7,0-1.4-1c-2-2.8-2.9-1.7-5.5-3.7c-0.6-0.4-1.8,0-3.2-1.4c-0.4-0.4-0.7-0.6-1.1-1
		c-1.2-0.9-2-1.3-2.6-1.3H168c-1.3,0.1-2.1,1.4-4.3,1.8c-2.7,0.6-3.1,1.4-4.9,3.4c-1.2,1.3-1.6,1.5-3,2.5c-1.5,1.2-1.5,1.8-2.4,3.3
		c-0.4,0.5-2,2.8-2.6,2.5c-0.7-0.2-2.8-1.9-3.2-2.5c-0.4-0.7-0.1-0.7-1-0.9c-0.4-0.1-0.6-0.4-0.9-0.6c-0.8-0.6-1.8-1.1-2.6-1.8
		c-1.5-1.2-1.3-0.5-3.1-0.6c-1.8-0.1-1,0.1-2.5,1.1c-1.6,1-3.2,1.1-4.7,2.6c-1,1-1.5,1.6-2.7,2.4c-0.9,0.7-2.5,1.9-3,2.8
		c-0.5,0.9-0.5,1.3-1.2,2.3c-1.3,1.6-3.5,3.5-5.3,4.6c-1.1,0.7-1.1,0.3-1.9,1.6c-0.5,0.8-0.8,1.1-1.7,1.5c-1.9,0.7-1.4,0.5-2.6,2.2
		c-0.2,0.2-1.3,0.9-1.5,1.1c0.3,0.2-1.3,2.5-1,2.7c0.8-0.6,4.5-3.7,5-4.2c0.9-1,1.2-1.3,2.3-2.1c0.8-0.6,1.2-1.2,2-1.8
		c0.1-0.1,0.8-0.6,0.8-0.7c0.1-0.2-0.1-0.1,0.2-0.3c0.5-0.3,0.7-0.4,1.2-0.8c1.5-1.2,4.3-3.9,4.9-5.7c0.2-0.5,0.2-1.2,0.7-1.1
		c0.4,0.1,0.8-0.4,1-0.7c0.3-0.3,3.3-2.9,3.5-2.6c0,0.2-0.4,1,0.2,1.1c0.5,0,0.5-0.7,0.8-0.7c0.4,0,3.4-3.8,5.7-4
		c1.3-0.1,0.7,0.8,0.7,0.8c-0.6,0-1.5,1.1-0.5,0.8c1-0.3,0.7,0.3,0.2,0.9c-0.4,0.4-3.1,2.6-2.8,3c0.4,0.4,0.2,0.1-0.3,0.7
		c-0.6,0.8-1.7-0.5-0.8,1.3c0.8,1.6-5.4,9.6-5.2,9.2c-0.5,0.1-0.8-0.2-1,0.6c0,0.1,0,0.1-0.1,0.2c-0.2,0.1-2,1.4-2.8,2.3
		c-0.6,0.6,1.2,0.5,0.3,1c-0.2,0.1-1.4,2.6-1.4,2.6c0,0.4-0.3,0.5-0.7,0.7c-0.5,0.2-0.1,1-1,0.7c-0.5-0.2-2.9,3.4-4.6,5.4
		c1.1,0.5,0.1,2.1,0.8,2.7c1.6-0.6,2.6-2,4-3.3c1.2,0.4-1.2,5.7-1,5.8c1,0.9,2-0.5,2.6,0.8c0.1-0.1,0.1-0.2,0.2-0.3
		c0.4-0.8,2.2-3.8,2.7-4.7c1.6-3.1,1.4,0.7,4.2,0.4c2-0.2,5.2-3.5,6.8-2c0.4,0.4,0.6,2.1,0.9,2.6c0.4,0.5,0.7,1.1,0.9,1.7
		c0.4,0,0.8,0,1.2,0c1.4,0.1,2.7,0.6,3.7,1.5l0.2-0.3c0.3-0.5,0.5-0.8,0.6-1.1c0.1-0.2,0.2-0.4,0.3-0.6c0.3-1.7,1.3-3,2.7-3.9
		c1.3-0.8,1.5,1.3,2.9,1.2c1.3-0.1,4.2-3.7,5.2-2.9c1,0.5,1.1,3.5,1.8,4.4c0.2,0.2,0.5,0.6,0.8,1c0.1,0.2,0.2,0.4,0.4,0.6
		c0.8-0.1,2.6-2.7,3.4-2.6c0.8,0.2,1.6,3.2,2.2,3.6c-0.3-2.5,4.3-8.1,4.4-8.1c0.6-0.2,0.8,2.3,1.2,2.9c1.7,0.3,4.4-6.9,7.9-9.1
		c0.6-0.3-0.7,5-0.5,5.3c0,0,9.4-5.4,7.1-6.6c-0.6-0.3-4.3,0.2-1.7-1.6c0.9-0.6,4.2-2.4,4.2-2.4c0.8-0.8,1.3-1.4,2.1-2.2
		c0.7-0.8,1.6-1.1,2.5-1.8c0.9-0.6,0.4-0.1,0.8-0.3c0.2-0.1,0.8-1.5,1.1-1.8c1-1.3,3.7-2.5,5.1-1.4c0.3,0.2,0,0.5,0,0.9
		c-0.2,1.6-0.3,0.8-0.7,2c-0.5,1.7,0.2,1.9-0.6,4c-0.7,1.7,0.1,0.7,0.2,2.1c0,1.9-2.1,2.1-0.8,3.4c0.6,0.6-2,3.8-2.8,4.1
		c-0.9,0.4-0.9-0.1-1.4,0.1c-0.1,0.1,0,0.2,0.1,0.3h-1.6c0-0.3-0.1-0.7-0.1-0.9c0-1.3-0.3-0.9-0.3-1.3c0-0.7,0.9-0.7,0.3-2.7
		c-0.2-1,0.4-0.8,0.4-1.1c-0.1-0.7,0-0.5,0.9-1.7c0.3-0.3,0.5-0.8,0.8-1.1c0.3-0.4,1.4-2.2,0.7-2.5c-1-0.4-2.6,2.5-3.4,3.1
		c-1.1,0.9-1.4,0.9-0.5,2.5c1.7,3.2-3.2,3.7-2.5,7.6c0.3,0,0.3,2.3,0.6,2.4c1.8,0.2,3.8-0.7,4.5,1.1c0.2,0.4,1.2-3.6,1.3-3.1
		c0.4,0,0,4.5,0.5,4.7c0.4,0.1,0.7,1.8,1,1.8c0,0,0.1,0,0.2,0.1c0.7,0.2,2.3-4.7,2.8-4.4c0.9,0.3,0.8,4.3,1.4,4.9
		c1.5,1.4,0.6,0.8,1.6-1c0.2-0.5,0.4-0.9,0.6-1.2c0.2-0.6-0.6-4.3,0.1-4.7c4.4,0.9,3.6,5.3,6.2,4.1c0,0,0,0,0.1,0
		c0.9-0.1,1.9-1.6,2.8-1.2c0.2,0.1,0.4-2.4,0.7-2.2c1.4,0.6,2.7,1.4,3.5,2.8c1,0.3,2.5,0.5,3,0.2c2.4-1.5,4.1-3,6.1-1.2
		c1,0.5,1.5,1.7,2.2,2.6c0.2,0.2,0.4,0.6,0.7,0.9c0.1,0.2,0.3,0.5,0.4,0.7c0.1,0,0.1,0,0.2,0l0.5-2c0.7,0,1.4,2.1,2.1,2.2
		c1.1,0.2,2.8,0.7,3.6,1.3c0,0,0,0,0-0.1c0-0.1,0.1-0.2,0.1-0.2c0.2-0.8-0.4-3.1-0.3-3.3l1.3,1.3c1.4-2.8,2.8-0.1,3.2-0.8
		L231.5,34.1L231.5,34.1z M186.6,16.3c-6.6-0.5-5.6-2.5-0.4-1c0.8,0.4,0.1,0.4,0.6,0.8C187,16.3,186.9,16.3,186.6,16.3L186.6,16.3z
		 M185.4,19.8c-0.4,0.3-1.4,1.7-3.5,0.8c-0.2-0.1-0.2-1.9,0.2-2C183.2,18.2,185.8,19.4,185.4,19.8L185.4,19.8z M170.5,20.5
		c-0.2,1.1-0.1,1.6-0.2,2.7c-0.1,1.6-0.2,1.8-0.6,3.7c-0.2,1.1,4.3,1.7,1,1.3c-1.6-0.2-4.1,1.5-4.7,0.2c-0.3-0.7-0.6-1.1-0.9-1.7
		c-1.2-2.3,3.6,0.2-0.5-3.2c4-1,0.6-0.6-0.2-1.3c-0.3-0.3,0.7-1,1.2-1c0.4,0,1.2-4.1,1.4-5.5c0.2-1.4,0.2-2.7,0.4-4.1l0-0.2
		c0.3-1.7,0.6-2.7,0.6-4.4c0-0.8,0.5-2.2,1.3-1.5c0.2,0.2,0,0.7,1.2,2.1c2.2,2.7,0.7,0,2.4,0.3c0.9,0.1,1,1.1,2.3,1.7
		c0.6,0.3,3.2,4-3,1.1C165.5,7.5,172.2,13.4,170.5,20.5L170.5,20.5z M168.9,30.3c-2.4-0.4-1.1-1-0.6-0.9c0.3,0.1,0.6,0.3,0.8,0.5
		C170,30.4,170,30.5,168.9,30.3L168.9,30.3z M160.8,17.8c-0.1,0.7,0,0.9-0.1,1.6c-0.1,1-1.3,1.4-0.1,2.5c1.2,1,1.1,1.7,0.8,2.1
		c-1.1-0.8-2.2-1.7-3.1-2.6c-1-1-0.3-0.4-0.1-2.1l0.1-0.4c0.1-0.8-0.3-1.5-0.4-2.3c-0.3-2.8,0.6-2.3,0.7-3c0.1-0.9-0.2-0.9,0.2-1.9
		c0.9-2.9,4.4-2,2.2-3.5c-0.7-0.5-1.1-0.4-1.5,0.5c-0.6,1.6-1.1,1-1.9,1.8c-0.5,0.5-1.2,0.4-1.1,0.8c0.2,0.7,0.3,0.9,0,1.6
		c-0.3,0.7-0.7,0.2-0.5,1.1c0.2,1.2-0.1,0.6-0.1,1.3c0,0.6-0.1,1.2,0.6,1.2c-0.1,0.2-0.8,0.3-0.5,0.9c0.5,0.9-0.7,0.4-1,0.1
		c-2.1-1.5-3.7-2.6-2.1-4.5c0.6-0.7,1.2-1.6,1.9-2.2c0,0.1-0.2,1.3,0.4,0.9c0.9-0.5-0.5-1.8,0.4-2.4l0.3-0.1l0.3-0.1
		c0.4-0.1,0.6-0.1,0.8-0.5c-0.9,0-0.9,0.1,0.1-0.6c1.2-0.9,1.6-1.4,2.6-2.4c0.9-1,0.9-0.6,1.3-0.8c0.8-0.5,0.4-1.4,1.7-1.4
		c0.7,0,0.9,0.1,1.5-0.3c1-0.7,2.4-1.7,3.7-1.4c-0.4,0.9-0.3,0.1-0.5,1.4c-0.1,0.5-0.3,0.9-0.4,1.5c-0.2,0.9-0.2,0.6-0.5,1.2
		c-0.6,1.1,0.7,0.6-0.2,1c-0.4,0.2-2.3,2.2-2.2,2.6c0.5,0.7,0.9,0.1-0.2,1.6c-0.7,1.1-2.1,4-2.8,4.8
		C160.5,16.6,160.9,16.7,160.8,17.8L160.8,17.8z M146.1,29.2c-0.2,0.2,0.3,1.3-0.6,1.1c0.3,0.3,0.9,0.6,0.3,1c-0.4,0.3,0,0.5-0.3,1
		c-0.3,0.6-0.7-0.2-1.2,0.1c-0.4,0.3-1.1,0.5-1.1-0.3c0-0.8,1.3-5.3,0.8-5.5c-0.6-0.2-2.2,2.7-3.8,5.9c-0.5,1-2.7,3.7-4.8,3.6
		c-0.1,0.7,1.2-2.3,0.9-2.9c-0.6-1.3-4.6,4.5-6.1,4c-1-0.4,1.5-4.8,1.7-5.3c0.4-0.7,4.9-9,8.4-11.5c0.3-0.3,0.3-0.4,0.6-0.4
		c0-0.1-0.2-0.6-0.1-1c0.1-0.2-0.1-0.6,0.2-0.8c1.1-0.7-0.4-1.1,1.1-1.8c0.5-0.2,0.5,0.4,0.1-0.7c-0.6-1.5,0.3-0.6-0.4-2
		c-0.6-1.1,0.1-1.7,1.2-1.7c0.5,0,3.1,0.9,3.3,1.3c0.1,0.2-0.1,0.6-0.4,0.7c-1.6,0.4,0.1,0.8,0.2,2c0.1,0.8,0.5,1.8,0.9,1.8
		c3.2,0.1-3,3.2-1.9,5.8c0.1,0.2,1.5,1.2,1.1,1.6C144.9,26.7,147.4,28.1,146.1,29.2L146.1,29.2z M117,33.9c1.2-1.3,3.4-5.6,4.3-5.7
		c0.1,0,1-1.4,1-1.4c0.1-0.2,0.3-1.9,0.3-2.3c0-1-4.5,5-5.1,5.2c-0.2,0.1-0.2,1.7-0.3,1.8C117.7,31.8,116.5,33.2,117,33.9L117,33.9z
		"/>
</g>
</svg>
