<?xml version="1.0" encoding="utf-8"?>
<!-- Generator: Adobe Illustrator 22.0.1, SVG Export Plug-In . SVG Version: 6.00 Build 0)  -->
<svg version="1.1" id="Layer_1" xmlns="http://www.w3.org/2000/svg" xmlns:xlink="http://www.w3.org/1999/xlink" x="0px" y="0px"
	 viewBox="0 0 259 192" style="enable-background:new 0 0 259 192;" xml:space="preserve">
<style type="text/css">
	.st0{fill:#A57D4C;}
</style>
<g>
	<path class="st0" d="M26.1,188.1c-12.4,0-22.4-10-22.4-22.4l0,0V26.3c0-12.4,10-22.4,22.4-22.4l0,0h205.7c12.4,0,22.4,10,22.4,22.4
		l0,0v139.4c0,12.4-10,22.4-22.4,22.4l0,0H26.1L26.1,188.1z M26.1,12.2c-7.8,0-14.1,6.3-14.1,14.1l0,0v139.4
		c0,7.8,6.3,14.1,14.1,14.1l0,0h205.7c7.8,0,14.1-6.3,14.1-14.1l0,0V26.3c0-7.8-6.3-14.1-14.1-14.1l0,0L26.1,12.2L26.1,12.2z"/>
	<g>
		<path class="st0" d="M126.7,99.4l-101.8-68c-1.9-1.3-2.4-3.8-1.1-5.7l0,0c1.3-1.9,3.8-2.4,5.7-1.1l0,0l101.8,68
			c1.9,1.3,2.4,3.8,1.1,5.7l0,0c-0.8,1.2-2.1,1.8-3.4,1.8l0,0C128.2,100.1,127.4,99.9,126.7,99.4L126.7,99.4z"/>
		<path class="st0" d="M125.6,98.3c-1.3-1.9-0.8-4.5,1.1-5.7l0,0l101.8-68c1.9-1.3,4.5-0.8,5.7,1.1l0,0c1.3,1.9,0.8,4.5-1.1,5.7l0,0
			l-101.8,68c-0.7,0.5-1.5,0.7-2.3,0.7l0,0C127.7,100.1,126.4,99.5,125.6,98.3L125.6,98.3z"/>
	</g>
	<g>
		<path class="st0" d="M126.7,122.7l-101.8-68c-1.9-1.3-2.4-3.8-1.1-5.7l0,0c1.3-1.9,3.8-2.4,5.7-1.1l0,0l101.8,68
			c1.9,1.3,2.4,3.8,1.1,5.7l0,0c-0.8,1.2-2.1,1.8-3.5,1.8l0,0C128.2,123.4,127.4,123.2,126.7,122.7L126.7,122.7z"/>
		<path class="st0" d="M125.6,121.5c-1.3-1.9-0.8-4.5,1.1-5.7l0,0l101.8-68c1.9-1.3,4.5-0.8,5.7,1.1l0,0c1.3,1.9,0.8,4.5-1.1,5.7
			l0,0l-101.8,68c-0.7,0.5-1.5,0.7-2.3,0.7l0,0C127.7,123.4,126.4,122.7,125.6,121.5L125.6,121.5z"/>
	</g>
</g>
</svg>
