<?xml version="1.0" encoding="utf-8"?>
<!-- Generator: Adobe Illustrator 22.0.1, SVG Export Plug-In . SVG Version: 6.00 Build 0)  -->
<svg version="1.1" id="Layer_1" xmlns="http://www.w3.org/2000/svg" xmlns:xlink="http://www.w3.org/1999/xlink" x="0px" y="0px"
	 viewBox="0 0 512 512" style="enable-background:new 0 0 512 512;" xml:space="preserve">
<style type="text/css">
	.st0{fill:#A57D4C;}
</style>
<g>
	<path class="st0" d="M256,140c-70.7,0-128,21.5-128,48v8v16c0,4.4,3.6,8,8,8h21.5l-29.2,94.9c-0.2,0.8-0.4,1.6-0.4,2.4V364
		c0,4.4,3.6,8,8,8h240c4.4,0,8-3.6,8-8v-46.8c0-0.8-0.1-1.6-0.4-2.4L354.5,220H376c4.4,0,8-3.6,8-8v-16v-8
		C384,161.5,326.7,140,256,140z M136,212v-16h48v16h-16h-8H136z M375.6,316H324c-2.2,0-4,1.8-4,4c0,2.2,1.8,4,4,4h52v40H136v-40h52
		c2.2,0,4-1.8,4-4c0-2.2-1.8-4-4-4h-51.6l29.5-96h2.1h16c4.4,0,8-3.6,8-8v-16v-10.5c0-3,2.5-5.5,5.5-5.5h117c3,0,5.5,2.5,5.5,5.5
		V196v16c0,4.4,3.6,8,8,8h16h2.1L375.6,316z M376,212h-24h-8h-16v-16h48V212z M328,188v-2.5c0-7.5-6.1-13.5-13.5-13.5h-117
		c-7.5,0-13.5,6.1-13.5,13.5v2.5h-48c0-9,12.1-18.9,32.3-26.5c23.3-8.7,54.4-13.5,87.7-13.5s64.4,4.8,87.7,13.5
		C363.9,169.1,376,179,376,188H328z"/>
	<path class="st0" d="M256,236c-22.1,0-40,17.9-40,40s17.9,40,40,40s40-17.9,40-40S278.1,236,256,236z M256,308
		c-17.6,0-32-14.4-32-32c0-17.6,14.4-32,32-32s32,14.4,32,32C288,293.6,273.6,308,256,308z"/>
	<path class="st0" d="M256,212c-35.3,0-64,28.7-64,64s28.7,64,64,64c16.2,0,31-6.1,42.3-16l2.9,2.9c1.6,1.6,4.1,1.6,5.7,0
		c1.6-1.6,1.6-4.1,0-5.7l-2.9-2.9c10-11.3,16-26.1,16-42.3C320,240.7,291.3,212,256,212z M298.3,312.6l-2.7-2.7
		c-1.6-1.6-4.1-1.6-5.7,0c-1.6,1.6-1.6,4.1,0,5.7l2.7,2.7C282.8,326.8,270,332,256,332c-30.9,0-56-25.1-56-56s25.1-56,56-56
		s56,25.1,56,56C312,290,306.8,302.8,298.3,312.6z"/>
</g>
</svg>
