<?xml version="1.0" encoding="utf-8"?>
<!-- Generator: Adobe Illustrator 22.0.1, SVG Export Plug-In . SVG Version: 6.00 Build 0)  -->
<svg version="1.1" id="Icons" xmlns="http://www.w3.org/2000/svg" xmlns:xlink="http://www.w3.org/1999/xlink" x="0px" y="0px"
	 viewBox="0 0 739.5 52.8" style="enable-background:new 0 0 739.5 52.8;" xml:space="preserve">
<style type="text/css">
	.st0{fill:#18272D;}
</style>
<g>
	<path class="st0" d="M157,0h2.7v2.9c0,2.1-1.1,3.2-3.4,3.2h-2.7V3.2C153.6,1.1,154.8,0,157,0z M153.6,14.1c0-2.1,1.1-3.2,3.4-3.2
		h2.7v30.5H157c-2.2,0-3.4-1.1-3.4-3.2V14.1z"/>
	<path class="st0" d="M175.1,35.2c0.8,0.7,1.8,1,2.9,1V39c0.1,1.2-0.6,2.3-1.8,2.5c-1,0.3-2.1,0.2-3.1-0.4c-1.6-0.7-2.9-1.9-3.8-3.4
		c-1.1-1.9-1.7-4-1.6-6.2V3.2c0-2.1,1.1-3.2,3.4-3.2h2.7v31.6C173.6,33,174.1,34.3,175.1,35.2z"/>
	<path class="st0" d="M206.2,13.5c2.8,2.2,4.5,5.5,4.5,9.1v18.8h-1.8c-1.5,0-2.9-1-3.4-2.5c-2.6,2.3-5.9,3.5-9.4,3.4
		c-3.7,0.1-7.3-1.2-10.1-3.5c-2.8-2.1-4.5-5.5-4.5-9.1v-7.1c0-3.6,1.6-7,4.5-9.1c2.8-2.4,6.4-3.6,10.1-3.5
		C199.8,9.9,203.4,11.2,206.2,13.5z M196.2,16c-2.3-0.1-4.5,0.7-6.2,2.2c-1.4,1-2.3,2.7-2.3,4.4v7.1c0,1.8,0.9,3.4,2.3,4.4
		c3.7,2.8,8.8,2.8,12.5,0c1.4-1,2.3-2.7,2.3-4.4v-7.1c0-1.8-0.9-3.4-2.3-4.4C200.7,16.7,198.4,16,196.2,16z"/>
	<path class="st0" d="M254.4,14.1c0-2.1,1.1-3.2,3.4-3.2h2.7v18.8c0,3.9-1.1,7-3.2,9.2c-2.4,2.3-5.7,3.6-9,3.4
		c-3.5,0.1-6.9-1.3-9.2-3.9c-2.3,2.6-5.7,4-9.2,3.9c-3.8,0-6.8-1.1-9-3.4c-2.2-2.3-3.2-5.3-3.2-9.2V14.1c0-2.1,1.1-3.2,3.4-3.2h2.7
		v18.8c0,2.3,0.5,4,1.6,5c1.3,1.1,2.9,1.7,4.6,1.6c1.6,0.1,3.2-0.5,4.4-1.6c1.2-1.4,1.8-3.1,1.7-4.9V14.1c0-2.1,1.1-3.2,3.4-3.2h2.7
		v18.8c-0.1,1.8,0.5,3.6,1.7,4.9c1.2,1.1,2.8,1.7,4.4,1.6c1.7,0.1,3.4-0.4,4.6-1.6c1-1,1.6-2.7,1.6-5V14.1L254.4,14.1z"/>
	<path class="st0" d="M294.3,10.9l-11.9,33.5c-0.3,0.8-0.6,1.5-0.9,2.3c-0.3,0.7-0.6,1.4-1,2c-0.9,1.3-2,2.3-3.4,3
		c-1,0.5-2.1,0.6-3.1,0.4c-1.2-0.2-1.9-1.3-1.8-2.5v-2.8c0.7,0,1.4-0.2,2-0.5c0.7-0.2,1.3-0.8,1.5-1.5l1.2-3.1
		c-1.7-0.3-3-1.4-3.7-2.9l-8.9-25.1c-0.3-0.6-0.3-1.3,0-1.9c0.4-0.6,1-0.9,1.7-0.8h3.8l8.9,25.2h0.1l8.2-22.9
		c0.4-1.4,1.7-2.4,3.2-2.3H294.3L294.3,10.9z"/>
	<path class="st0" d="M318.9,11.5c1.5,0.8,2.7,1.9,3.8,3.2c1.1,1.5,1.7,3.4,1.7,5.3c0.1,1.6-0.3,3.1-1,4.5c-0.6,1.1-1.5,2.1-2.6,2.9
		c-1.1,0.8-2.3,1.4-3.7,1.7c-1.3,0.4-2.6,0.6-4,0.5h-7.3c-0.4,0-0.8,0-1.1-0.1c-0.4-0.1-0.7-0.2-1-0.5v2.5c0,1.5,0.8,2.8,2.2,3.4
		c1.3,0.7,2.7,1.2,4.1,1.2c1.5,0.2,3,0.1,4.4-0.3c1.4-0.2,2.7-0.9,3.7-2c0.9-1.1,2.1-1.3,3.6-0.5l2.9,1.4c-0.5,1.3-1.3,2.4-2.3,3.4
		c-1.4,1.4-3.2,2.5-5.2,3.1c-1.9,0.7-3.9,1-5.9,1c-1.6,0-3.1-0.1-4.7-0.5c-1.6-0.4-3-1-4.4-1.9c-1.5-1-2.7-2.4-3.4-4
		c-0.7-1.6-1.1-3.4-1.1-5.2v-9.9c0-1.5,0.4-3,1-4.4c1.1-2.2,2.9-3.9,5.1-4.9c2.2-1,4.6-1.6,7.1-1.5C313.6,9.9,316.4,10.4,318.9,11.5
		z M316.7,22.8c1.6-0.9,2.2-2.8,1.3-4.4c-0.2-0.4-0.5-0.7-0.8-0.9c-1.3-0.9-2.9-1.4-4.4-1.5c-1.5-0.1-3.1,0-4.6,0.4
		c-1.1,0.2-2.2,0.7-3.1,1.4c-0.9,0.7-1.4,1.8-1.4,2.9v2.9h10C314.8,23.6,315.8,23.4,316.7,22.8L316.7,22.8z"/>
	<path class="st0" d="M330,21.6c0-3.6,1.1-6.4,3.5-8.3c1.9-1.6,4.4-2.5,6.9-2.4h4v2.7c0,2.2-1,3.4-3.1,3.4h-0.8
		c-2.3-0.1-4.3,1.8-4.3,4.1c0,0.2,0,0.4,0,0.5v19.8h-2.7c-2.2,0-3.4-1.1-3.4-3.2L330,21.6L330,21.6L330,21.6z"/>
	<path class="st0" d="M383.9,17.6c-1.3-1.1-2.9-1.7-4.6-1.6c-1.7-0.1-3.3,0.5-4.4,1.7c-1.2,1.4-1.8,3.1-1.7,4.9v18.8h-2.7
		c-2.2,0-3.4-1.1-3.4-3.2V22.6c0.1-1.8-0.5-3.6-1.7-4.9c-1.2-1.2-2.8-1.8-4.4-1.7c-1.7-0.1-3.4,0.4-4.6,1.6c-1.1,1.4-1.7,3.2-1.6,5
		v18.8H352c-2.2,0-3.4-1.1-3.4-3.2V22.6c0-3.8,1.1-6.9,3.2-9.2c2.2-2.3,5.2-3.5,9-3.5c2.9-0.1,5.8,0.9,8,2.8
		c0.4,0.3,0.8,0.7,1.2,1.1c0.4-0.4,0.8-0.8,1.1-1.1c5.1-4,12.3-3.7,17,0.7c2.2,2.3,3.2,5.3,3.2,9.2v18.8h-2.7
		c-2.2,0-3.4-1.1-3.4-3.2V22.6C385.5,20.8,385,19,383.9,17.6z"/>
	<path class="st0" d="M422,13.5c2.9,2.2,4.5,5.5,4.5,9.1v18.8h-1.8c-1.5,0-2.9-1-3.4-2.5c-2.6,2.3-5.9,3.5-9.4,3.4
		c-3.7,0.1-7.3-1.2-10.1-3.5c-2.8-2.1-4.5-5.5-4.5-9.1v-7.1c0-3.6,1.7-7,4.5-9.1c2.8-2.4,6.4-3.6,10.1-3.5
		C415.6,9.9,419.2,11.2,422,13.5z M411.9,16c-2.3-0.1-4.5,0.7-6.2,2.2c-1.4,1-2.3,2.7-2.3,4.4v7.1c0,1.8,0.9,3.4,2.3,4.4
		c3.7,2.8,8.8,2.8,12.5,0c1.4-1,2.3-2.7,2.3-4.4v-7.1c0-1.8-0.9-3.4-2.3-4.4C416.4,16.7,414.2,16,411.9,16L411.9,16z"/>
	<path class="st0" d="M433.4,21.6c0-3.6,1.1-6.4,3.5-8.3c1.9-1.6,4.4-2.5,6.9-2.4h4v2.7c0,2.2-1,3.4-3.1,3.4h-0.8
		c-2.3-0.1-4.3,1.8-4.3,4.1c0,0.2,0,0.4,0,0.5v19.8h-2.7c-2.2,0-3.4-1.1-3.4-3.2L433.4,21.6L433.4,21.6z"/>
	<path class="st0" d="M452.6,3.2c0-2.1,1.1-3.2,3.4-3.2h2.7v23.6h2.2c1.2,0,2.3,0.1,3.1-1.1l5.7-9.4c0.7-1.3,2.1-2.2,3.7-2.2h4.7
		l-7.3,11.9c-0.3,0.6-0.7,1.2-1.2,1.7c2.1,1,3.7,2.8,4.5,5l5.2,11.9h-3.9c-1.8,0-3-0.7-3.5-1.9l-3.3-7.6c-0.5-1.4-1.9-2.3-3.4-2.3
		h-6.5v11.8h-2.7c-2.2,0-3.4-1.1-3.4-3.2L452.6,3.2L452.6,3.2L452.6,3.2z"/>
	<path class="st0" d="M504.2,11.5c1.5,0.8,2.7,1.9,3.8,3.2c1.1,1.5,1.7,3.4,1.7,5.3c0.1,1.6-0.3,3.1-1,4.5c-0.6,1.1-1.5,2.1-2.6,2.9
		c-1.1,0.8-2.3,1.4-3.7,1.7c-1.3,0.4-2.6,0.6-4,0.5h-7.3c-0.4,0-0.8,0-1.1-0.1c-0.4-0.1-0.7-0.2-1-0.5v2.5c0,1.5,0.8,2.8,2.2,3.4
		c1.3,0.7,2.7,1.2,4.1,1.2c1.5,0.2,3,0.1,4.4-0.3c1.4-0.2,2.7-0.9,3.7-2c0.9-1.1,2.1-1.3,3.6-0.5l2.9,1.4c-0.5,1.3-1.3,2.4-2.3,3.4
		c-1.4,1.4-3.2,2.5-5.2,3.1c-1.9,0.7-3.9,1-5.9,1c-1.6,0-3.1-0.1-4.7-0.5c-1.6-0.4-3-1-4.4-1.9c-1.5-1-2.7-2.4-3.4-4
		c-0.7-1.6-1.1-3.4-1.1-5.2v-9.9c0-1.5,0.4-3,1-4.4c1.1-2.2,2.9-3.9,5.2-4.9c2.2-1,4.6-1.6,7.1-1.5C498.9,9.9,501.6,10.4,504.2,11.5
		z M501.9,22.8c1.6-0.9,2.2-2.8,1.3-4.4c-0.2-0.4-0.5-0.7-0.8-0.9c-1.3-0.9-2.9-1.4-4.4-1.5c-1.5-0.1-3.1,0-4.6,0.4
		c-1.1,0.2-2.2,0.7-3.1,1.4c-0.9,0.7-1.4,1.8-1.4,2.9v2.9h10C500,23.6,501,23.4,501.9,22.8L501.9,22.8z"/>
	<path class="st0" d="M528.7,10.9v2.7c0,2.2-1.1,3.4-3.2,3.4h-4v14.6c-0.1,1.4,0.4,2.7,1.4,3.6c0.8,0.7,1.8,1,2.8,1V39
		c0.1,1.2-0.6,2.3-1.8,2.5c-1,0.3-2.2,0.2-3.1-0.4c-1.6-0.7-2.9-1.9-3.8-3.3c-1.1-1.9-1.6-4-1.6-6.2V3.2c0-2.1,1.1-3.2,3.3-3.2h2.8
		v10.9H528.7L528.7,10.9z"/>
	<path class="st0" d="M537.1,0h2.7v2.9c0,2.1-1.1,3.2-3.4,3.2h-2.7V3.2C533.7,1.1,534.9,0,537.1,0z M533.7,14.1
		c0-2.1,1.1-3.2,3.4-3.2h2.7v30.5h-2.7c-2.2,0-3.4-1.1-3.4-3.2V14.1z"/>
	<path class="st0" d="M551.5,13.4c2.7-2.3,6.1-3.5,9.6-3.4c3.5-0.1,7,1.1,9.7,3.4c2.7,2.1,4.2,5.3,4.3,8.7v19.3h-2.7
		c-2.2,0-3.4-1.1-3.4-3.2V22.1c0-1.6-0.8-3.1-2.1-4.1c-3.4-2.6-8.1-2.6-11.5,0c-1.3,1-2.1,2.5-2.1,4.1v19.3h-2.7
		c-2.2,0-3.4-1.1-3.4-3.2V22.1C547.2,18.7,548.8,15.4,551.5,13.4z"/>
	<path class="st0" d="M605.6,13.5c2.8,2.2,4.5,5.5,4.5,9.1v18.5c0,1.7-0.4,3.4-1.1,5c-1.6,2.9-4.4,5.1-7.6,5.9
		c-1.7,0.5-3.5,0.7-5.3,0.7c-1.6,0-3.1-0.2-4.7-0.5c-1.1-0.1-2.1-0.7-2.8-1.6c-0.4-0.8-0.4-1.7-0.1-2.5l0.5-2.4c1.7,0.7,3.5,1,5.3,1
		c1.8,0.1,3.6-0.1,5.3-0.6c2.9-0.8,4.4-2.5,4.4-5.2v-1.2c-5.8,3.6-13.3,3.1-18.6-1.1c-2.8-2.1-4.5-5.5-4.5-9.1v-7
		c0-3.6,1.7-7,4.5-9.1c2.8-2.4,6.4-3.6,10.1-3.5C599.2,9.9,602.8,11.2,605.6,13.5z M595.5,16c-2.3-0.1-4.5,0.7-6.2,2.2
		c-1.4,1-2.3,2.7-2.3,4.4v7.1c0,1.8,0.9,3.4,2.3,4.4c3.7,2.8,8.8,2.8,12.5,0c1.4-1,2.3-2.7,2.3-4.4v-7.1c0-1.8-0.9-3.4-2.3-4.4
		C600,16.7,597.8,16,595.5,16L595.5,16z"/>
	<path class="st0" d="M620.9,34.6h2.7v3.7c0,2.1-1.1,3.2-3.4,3.2h-2.7v-3.7C617.5,35.6,618.6,34.6,620.9,34.6z"/>
	<path class="st0" d="M630.1,22.1c0-3.4,1.6-6.6,4.3-8.7c2.7-2.3,6.1-3.5,9.6-3.4c3.5-0.1,7,1.1,9.7,3.4c1.6,1.3,2.8,2.9,3.5,4.8
		l-2.6,1.4c-1.3,0.8-3.1,0.5-4-0.7c-0.4-0.4-0.6-0.7-0.8-0.8c-1.6-1.3-3.7-2-5.8-2c-2.1-0.1-4.1,0.7-5.8,2c-1.3,1-2,2.5-2.1,4.1v8.2
		c0,1.6,0.8,3.1,2.1,4.1c1.6,1.3,3.7,2,5.8,1.9c2.1,0,4.2-0.6,5.8-1.9c0.2-0.2,0.4-0.4,0.8-0.8c0.9-1.2,2.7-1.6,4-0.7l2.6,1.4
		c-0.8,1.9-2,3.5-3.5,4.8c-2.7,2.2-6.1,3.4-9.7,3.4c-3.5,0.1-6.9-1.1-9.6-3.4c-2.7-2.1-4.3-5.3-4.3-8.7V22.1z"/>
	<path class="st0" d="M686.3,13.5c2.8,2.2,4.5,5.5,4.5,9.1v7.1c0,3.6-1.7,6.9-4.5,9.1c-5.9,4.7-14.3,4.7-20.2,0
		c-2.8-2.1-4.5-5.5-4.5-9.1v-7.1c0-3.6,1.7-7,4.5-9.1c2.8-2.4,6.4-3.6,10.1-3.5C679.9,9.9,683.5,11.2,686.3,13.5z M676.2,16
		c-2.3-0.1-4.5,0.7-6.2,2.2c-1.4,1-2.3,2.7-2.3,4.4v7.1c0,1.8,0.9,3.4,2.3,4.4c3.7,2.8,8.8,2.8,12.5,0c1.4-1,2.3-2.7,2.3-4.4v-7.1
		c0-1.8-0.9-3.4-2.3-4.4C680.7,16.7,678.5,16,676.2,16L676.2,16z"/>
	<path class="st0" d="M732,17.6c-1.3-1.1-2.9-1.7-4.6-1.6c-1.7-0.1-3.3,0.5-4.4,1.7c-1.2,1.4-1.8,3.1-1.7,4.9v18.8h-2.7
		c-2.2,0-3.4-1.1-3.4-3.2V22.6c0.1-1.8-0.5-3.6-1.7-4.9c-1.2-1.2-2.8-1.8-4.4-1.7c-1.7-0.1-3.4,0.4-4.6,1.6c-1.1,1.4-1.7,3.2-1.6,5
		v18.8h-2.7c-2.2,0-3.4-1.1-3.4-3.2V22.6c0-3.8,1.1-6.9,3.2-9.2c2.2-2.3,5.2-3.5,9-3.5c2.9-0.1,5.8,0.9,8,2.8
		c0.4,0.3,0.8,0.7,1.2,1.1c0.4-0.4,0.8-0.8,1.1-1.1c5.1-4,12.3-3.7,17,0.7c2.2,2.3,3.2,5.3,3.2,9.2v18.8h-2.7
		c-2.2,0-3.4-1.1-3.4-3.2V22.6C733.6,20.8,733.1,19,732,17.6z"/>
	<path class="st0" d="M11.9,22.4c0-2.6-0.2-5.2-3.2-5.2c-1.8,0-3,0.7-3,2.7c0,2.2,1.4,3.1,3.1,4.2c2.3,1.4,4.6,3,6.6,4.8
		c1.7,1.6,2.6,3.8,2.5,6.1c0,5.5-3.7,8.4-9,8.4c-6.5,0-8.9-3.7-8.9-8.9v-2.1h5.5v1.7C5.3,37,6.2,39,8.9,39c2.3,0,3.4-1.2,3.4-3.4
		c0-1.6-0.8-3.1-2.2-3.9c-2.9-2.2-6.4-3.8-8.6-6.8c-0.9-1.3-1.4-2.9-1.4-4.5c0-5,2.8-7.7,8.6-7.7c8.7,0,8.5,6.7,8.5,9.6L11.9,22.4
		L11.9,22.4z"/>
	<path class="st0" d="M24,42.7V13.5h5.5v29.3H24z"/>
	<path class="st0" d="M34.4,13.5h18.2v4.3h-6.3v25h-5.5v-25h-6.4L34.4,13.5L34.4,13.5z"/>
	<path class="st0" d="M57.3,42.7V13.5h15.4v4.3h-9.9v7.4h9.1v4.3h-9.1v9h9.9v4.3L57.3,42.7L57.3,42.7z"/>
	<path class="st0" d="M89.7,42.7V13.5h8.8c2.3,0,4.6,0.2,6.2,2.2c1.1,1.5,1.6,3.4,1.4,5.3c0,2.5-0.6,5-3.5,6.1v0.1
		c3.1,0.4,4.2,3,4.2,6.8c0,1.2-0.1,2.4-0.4,3.6c-1.2,3.7-3.3,5.3-7.2,5.3L89.7,42.7L89.7,42.7z M96.2,25.3c1.3,0,3,0.1,3.9-1
		c0.5-1,0.7-2.1,0.6-3.2c0-2.2-0.5-3.3-3-3.3h-2.5v7.5L96.2,25.3L96.2,25.3z M96.3,38.5c1.1,0.1,2.2,0,3.3-0.3
		c1.5-0.7,1.7-2.6,1.7-4.1c0-3.2-0.6-4.5-4-4.5h-2.1v8.9H96.3L96.3,38.5z"/>
	<path class="st0" d="M119.9,21.2c0.6,1.4,1,2.9,1.3,4.5h0.1c0.4-1.9,1-3.8,1.8-5.5l2.6-6.6h6L124,30.3v12.4h-5.5V30.3l-7.6-16.8h6
		L119.9,21.2z"/>
</g>
</svg>
