<?xml version="1.0" encoding="utf-8"?>
<!-- Generator: Adobe Illustrator 22.0.1, SVG Export Plug-In . SVG Version: 6.00 Build 0)  -->
<svg version="1.1" id="Layer_1" xmlns="http://www.w3.org/2000/svg" xmlns:xlink="http://www.w3.org/1999/xlink" x="0px" y="0px"
	 viewBox="0 0 512 512" style="enable-background:new 0 0 512 512;" xml:space="preserve">
<style type="text/css">
	.st0{fill:#A57D4C;}
</style>
<g>
	<path class="st0" d="M153.1,348.1c-12.4,0-22.4-10-22.4-22.4l0,0V186.3c0-12.4,10-22.4,22.4-22.4l0,0l205.7,0
		c12.4,0,22.4,10,22.4,22.4l0,0v139.4c0,12.4-10,22.4-22.4,22.4l0,0H153.1L153.1,348.1z M153.1,172.2c-7.8,0-14.1,6.3-14.1,14.1l0,0
		v139.4c0,7.8,6.3,14.1,14.1,14.1l0,0l205.7,0c7.8,0,14.1-6.3,14.1-14.1l0,0l0-139.4c0-7.8-6.3-14.1-14.1-14.1l0,0L153.1,172.2
		L153.1,172.2z"/>
	<g>
		<path class="st0" d="M253.7,259.4l-101.8-68c-1.9-1.3-2.4-3.8-1.1-5.7l0,0c1.3-1.9,3.8-2.4,5.7-1.1l0,0l101.8,68
			c1.9,1.3,2.4,3.8,1.1,5.7l0,0c-0.8,1.2-2.1,1.8-3.4,1.8l0,0C255.2,260.1,254.4,259.9,253.7,259.4L253.7,259.4z"/>
		<path class="st0" d="M252.6,258.3c-1.3-1.9-0.8-4.5,1.1-5.7l0,0l101.8-68c1.9-1.3,4.5-0.8,5.7,1.1l0,0c1.3,1.9,0.8,4.5-1.1,5.7
			l0,0l-101.8,68c-0.7,0.5-1.5,0.7-2.3,0.7l0,0C254.7,260.1,253.4,259.5,252.6,258.3L252.6,258.3z"/>
	</g>
	<g>
		<path class="st0" d="M253.7,282.7l-101.8-68c-1.9-1.3-2.4-3.8-1.1-5.7l0,0c1.3-1.9,3.8-2.4,5.7-1.1l0,0l101.8,68
			c1.9,1.3,2.4,3.8,1.1,5.7l0,0c-0.8,1.2-2.1,1.8-3.5,1.8l0,0C255.2,283.4,254.4,283.2,253.7,282.7L253.7,282.7z"/>
		<path class="st0" d="M252.6,281.5c-1.3-1.9-0.8-4.5,1.1-5.7l0,0l101.8-68c1.9-1.3,4.5-0.8,5.7,1.1l0,0c1.3,1.9,0.8,4.5-1.1,5.7
			l0,0l-101.8,68c-0.7,0.5-1.5,0.7-2.3,0.7l0,0C254.7,283.4,253.4,282.7,252.6,281.5L252.6,281.5z"/>
	</g>
</g>
</svg>
