<?xml version="1.0" encoding="utf-8"?>
<!-- Generator: Adobe Illustrator 22.0.1, SVG Export Plug-In . SVG Version: 6.00 Build 0)  -->
<svg version="1.1" id="Layer_1" xmlns="http://www.w3.org/2000/svg" xmlns:xlink="http://www.w3.org/1999/xlink" x="0px" y="0px"
	 viewBox="0 0 267 235" style="enable-background:new 0 0 267 235;" xml:space="preserve">
<style type="text/css">
	.st0{fill:#A57D4C;}
</style>
<g>
	<path class="st0" d="M134,4C63.3,4,6,25.5,6,52v8v16c0,4.4,3.6,8,8,8h21.5L6.3,178.9c-0.2,0.8-0.4,1.6-0.4,2.4V228c0,4.4,3.6,8,8,8
		h240c4.4,0,8-3.6,8-8v-46.8c0-0.8-0.1-1.6-0.4-2.4l-29-94.8H254c4.4,0,8-3.6,8-8V60v-8C262,25.5,204.7,4,134,4z M14,76V60h48v16H46
		h-8H14z M253.6,180H202c-2.2,0-4,1.8-4,4s1.8,4,4,4h52v40H14v-40h52c2.2,0,4-1.8,4-4s-1.8-4-4-4H14.4l29.5-96H46h16
		c4.4,0,8-3.6,8-8V60V49.5c0-3,2.5-5.5,5.5-5.5h117c3,0,5.5,2.5,5.5,5.5V60v16c0,4.4,3.6,8,8,8h16h2.1L253.6,180z M254,76h-24h-8
		h-16V60h48V76z M206,52v-2.5c0-7.5-6.1-13.5-13.5-13.5h-117C68,36,62,42.1,62,49.5V52H14c0-9,12.1-18.9,32.3-26.5
		C69.6,16.8,100.7,12,134,12s64.4,4.8,87.7,13.5C241.9,33.1,254,43,254,52H206z"/>
	<path class="st0" d="M134,100c-22.1,0-40,17.9-40,40s17.9,40,40,40s40-17.9,40-40S156.1,100,134,100z M134,172
		c-17.6,0-32-14.4-32-32s14.4-32,32-32s32,14.4,32,32S151.6,172,134,172z"/>
	<path class="st0" d="M134,76c-35.3,0-64,28.7-64,64s28.7,64,64,64c16.2,0,31-6.1,42.3-16l2.9,2.9c1.6,1.6,4.1,1.6,5.7,0
		s1.6-4.1,0-5.7l-2.9-2.9c10-11.3,16-26.1,16-42.3C198,104.7,169.3,76,134,76z M176.3,176.6l-2.7-2.7c-1.6-1.6-4.1-1.6-5.7,0
		s-1.6,4.1,0,5.7l2.7,2.7C160.8,190.8,148,196,134,196c-30.9,0-56-25.1-56-56s25.1-56,56-56s56,25.1,56,56
		C190,154,184.8,166.8,176.3,176.6z"/>
</g>
</svg>
