<svg id="result_two" data-name="Isolation Mode" xmlns="http://www.w3.org/2000/svg" viewBox="0 0 53.2 61.4"><defs><style>.result_two-cls-1{fill:#39454b;}.result_two-cls-2{fill:#a57d4c;}</style></defs><title>result-02</title><path class="result_two-cls-1" d="M32.4,64.7a16,16,0,0,1-16-16c0-7.1,4.4-13.2,8.3-18.5,3.3-4.5,6.5-8.8,6.5-13h2.5c0,4.2,3.1,8.5,6.5,13,3.9,5.3,8.3,11.4,8.3,18.5A16.07,16.07,0,0,1,32.4,64.7Zm0-42.1a49.84,49.84,0,0,1-5.7,9c-3.9,5.3-7.9,10.7-7.9,17.1a13.6,13.6,0,0,0,27.2,0c0-6.3-4-11.8-7.9-17.1C35.9,28.5,33.7,25.6,32.4,22.6Z" transform="translate(-9.4 -3.3)"/><path class="result_two-cls-2" d="M15.6,30.2A6.23,6.23,0,0,1,9.4,24c0-2.7,1.6-4.6,3-6.4,1.1-1.3,2-2.4,2-3.5h2.5c0,1.1.9,2.2,2,3.5,1.4,1.7,3,3.7,3,6.4A6.39,6.39,0,0,1,15.6,30.2Zm0-12.7a19.23,19.23,0,0,1-1.3,1.7c-1.2,1.5-2.4,3-2.4,4.8a3.7,3.7,0,0,0,7.4,0c0-1.8-1.2-3.3-2.4-4.8C16.5,18.7,16,18.1,15.6,17.5Z" transform="translate(-9.4 -3.3)"/><path class="result_two-cls-2" d="M53.4,28.2a9.13,9.13,0,0,1-9.1-9.1c0-4,2.4-7,4.6-9.7,1.7-2.1,3.3-4.1,3.3-6.1h2.5c0,2,1.6,4,3.3,6.1,2.2,2.7,4.6,5.7,4.6,9.7A9.29,9.29,0,0,1,53.4,28.2Zm0-20.8A40.56,40.56,0,0,1,50.8,11c-2,2.4-4,5-4,8.1a6.7,6.7,0,0,0,13.4,0c0-3.2-2.1-5.7-4-8.1A22,22,0,0,1,53.4,7.4Z" transform="translate(-9.4 -3.3)"/></svg>