<svg id="mountain" xmlns="http://www.w3.org/2000/svg" viewBox="0 0 241.64 44.6"><defs><style>.mountain-cls-1{fill:#ebebeb;}</style></defs><title>ico-mountain</title><path class="mountain-cls-1" d="M119.5,34.1V34c-.2-.2-.6-.4-.6-.5.3-.3-.6-.3-.8-.4a33.76,33.76,0,0,1-4.2-.9c-.9-.5-.2-1-1.1-1.9a33.15,33.15,0,0,1-2.7-2.6,4.45,4.45,0,0,0-1.8-1.8,25.29,25.29,0,0,0-2.2-1.3c-1.4-.8-.9-1.5-3.1-2.3-2.9-1-2.3-2.1-3.6-2.8a5,5,0,0,1-2.1-1.7c-1-1.1-2.4-1.5-3.5-2.2-2.4-1.4-2.6-1.9-5.6-1.5-4,.6-1.8,1.5-3.7,1.8-1.3.4-.2,2.3-3,.8a13.12,13.12,0,0,1-4.2-3.1c-.7-.9.8-.4-1.5-1.4a22.11,22.11,0,0,1-4-2.8l-.2-.1c-.9-.4-.8-.1-1.3-.8-.6-.9-.7,0-1.4-1-2-2.8-2.9-1.7-5.5-3.7-.6-.4-1.8,0-3.2-1.4-.4-.4-.7-.6-1.1-1A5.05,5.05,0,0,0,56.5.1H56c-1.3.1-2.1,1.4-4.3,1.8-2.7.6-3.1,1.4-4.9,3.4a14.25,14.25,0,0,1-3,2.5C42.4,9,42.4,9.5,41.5,11c-.4.5-2,2.8-2.6,2.5A11.09,11.09,0,0,1,35.7,11c-.4-.7-.1-.7-1-.9-.4-.1-.6-.4-.9-.6C33,8.9,32,8.4,31.2,7.7c-1.5-1.2-1.3-.5-3.1-.6s-1,.1-2.5,1.1-3.2,1.1-4.7,2.6a15.46,15.46,0,0,1-2.7,2.4,13.46,13.46,0,0,0-3,2.8A17.09,17.09,0,0,1,14,18.3a23.41,23.41,0,0,1-5.3,4.6c-1.1.7-1.1.3-1.9,1.6A3.14,3.14,0,0,1,5.1,26c-1.9.7-1.4.5-2.6,2.2-.2.2-1.3.9-1.5,1.1.3.2-1.3,2.5-1,2.7.8-.6,4.5-3.7,5-4.2a11.5,11.5,0,0,1,2.3-2.1c.8-.6,1.2-1.2,2-1.8.1-.1.8-.6.8-.7s-.1-.1.2-.3a8.34,8.34,0,0,0,1.2-.8c1.5-1.2,4.3-3.9,4.9-5.7.2-.5.2-1.2.7-1.1s.8-.4,1-.7,3.3-2.9,3.5-2.6c0,.2-.4,1,.2,1.1s.5-.7.8-.7,3.4-3.8,5.7-4c1.3-.1.7.8.7.8-.6,0-1.5,1.1-.5.8s.7.3.2.9c-.4.4-3.1,2.6-2.8,3s.2.1-.3.7c-.6.8-1.7-.5-.8,1.3.8,1.6-5.4,9.6-5.2,9.2-.5.1-.8-.2-1,.6,0,.1,0,.1-.1.2a17.74,17.74,0,0,0-2.8,2.3c-.6.6,1.2.5.3,1a22.56,22.56,0,0,0-1.4,2.6c0,.4-.3.5-.7.7s-.1,1-1,.7c-.5-.2-2.9,3.4-4.6,5.4,1.1.5.1,2.1.8,2.7,1.6-.6,2.6-2,4-3.3,1.2.4-1.2,5.7-1,5.8,1,.9,2-.5,2.6.8.1-.1.1-.2.2-.3.4-.8,2.2-3.8,2.7-4.7,1.6-3.1,1.4.7,4.2.4,2-.2,5.2-3.5,6.8-2,.4.4.6,2.1.9,2.6a5.56,5.56,0,0,1,.9,1.7h1.2a6.13,6.13,0,0,1,3.7,1.5l.2-.3a6.4,6.4,0,0,0,.6-1.1l.3-.6a5.77,5.77,0,0,1,2.7-3.9c1.3-.8,1.5,1.3,2.9,1.2s4.2-3.7,5.2-2.9c1,.5,1.1,3.5,1.8,4.4a11.49,11.49,0,0,1,.8,1,2.09,2.09,0,0,0,.4.6c.8-.1,2.6-2.7,3.4-2.6s1.6,3.2,2.2,3.6c-.3-2.5,4.3-8.1,4.4-8.1.6-.2.8,2.3,1.2,2.9,1.7.3,4.4-6.9,7.9-9.1.6-.3-.7,5-.5,5.3,0,0,9.4-5.4,7.1-6.6-.6-.3-4.3.2-1.7-1.6.9-.6,4.2-2.4,4.2-2.4.8-.8,1.3-1.4,2.1-2.2A16,16,0,0,1,83,19.6c.9-.6.4-.1.8-.3.2-.1.8-1.5,1.1-1.8,1-1.3,3.7-2.5,5.1-1.4.3.2,0,.5,0,.9-.2,1.6-.3.8-.7,2-.5,1.7.2,1.9-.6,4-.7,1.7.1.7.2,2.1,0,1.9-2.1,2.1-.8,3.4.6.6-2,3.8-2.8,4.1s-.9-.1-1.4.1c-.1.1,0,.2.1.3H82.4c0-.3-.1-.7-.1-.9,0-1.3-.3-.9-.3-1.3,0-.7.9-.7.3-2.7-.2-1,.4-.8.4-1.1-.1-.7,0-.5.9-1.7.3-.3.5-.8.8-1.1s1.4-2.2.7-2.5c-1-.4-2.6,2.5-3.4,3.1-1.1.9-1.4.9-.5,2.5,1.7,3.2-3.2,3.7-2.5,7.6.3,0,.3,2.3.6,2.4,1.8.2,3.8-.7,4.5,1.1.2.4,1.2-3.6,1.3-3.1.4,0,0,4.5.5,4.7s.7,1.8,1,1.8a.31.31,0,0,1,.2.1c.7.2,2.3-4.7,2.8-4.4.9.3.8,4.3,1.4,4.9,1.5,1.4.6.8,1.6-1a6.66,6.66,0,0,1,.6-1.2c.2-.6-.6-4.3.1-4.7,4.4.9,3.6,5.3,6.2,4.1h.1c.9-.1,1.9-1.6,2.8-1.2.2.1.4-2.4.7-2.2a6.89,6.89,0,0,1,3.5,2.8,5.34,5.34,0,0,0,3,.2c2.4-1.5,4.1-3,6.1-1.2,1,.5,1.5,1.7,2.2,2.6.2.2.4.6.7.9.1.2.3.5.4.7h.2l.5-2c.7,0,1.4,2.1,2.1,2.2a10.3,10.3,0,0,1,3.6,1.3v-.1a.35.35,0,0,1,.1-.2c.2-.8-.4-3.1-.3-3.3l1.3,1.3c1.4-2.8,2.8-.1,3.2-.8l-10.2-6.5ZM74.6,16.3c-6.6-.5-5.6-2.5-.4-1,.8.4.1.4.6.8.2.2.1.2-.2.2Zm-1.2,3.5a2.88,2.88,0,0,1-3.5.8c-.2-.1-.2-1.9.2-2,1.1-.4,3.7.8,3.3,1.2Zm-14.9.7a24.52,24.52,0,0,0-.2,2.7,18.83,18.83,0,0,1-.6,3.7c-.2,1.1,4.3,1.7,1,1.3-1.6-.2-4.1,1.5-4.7.2-.3-.7-.6-1.1-.9-1.7-1.2-2.3,3.6.2-.5-3.2,4-1,.6-.6-.2-1.3-.3-.3.7-1,1.2-1s1.2-4.1,1.4-5.5.2-2.7.4-4.1v-.2A22.17,22.17,0,0,0,56,7c0-.8.5-2.2,1.3-1.5a5.6,5.6,0,0,0,1.2,2.1c2.2,2.7.7,0,2.4.3.9.1,1,1.1,2.3,1.7.6.3,3.2,4-3,1.1-6.7-3.2,0,2.7-1.7,9.8Zm-1.6,9.8c-2.4-.4-1.1-1-.6-.9a2.18,2.18,0,0,1,.8.5c.9.5.9.6-.2.4ZM48.8,17.8c-.1.7,0,.9-.1,1.6-.1,1-1.3,1.4-.1,2.5s1.1,1.7.8,2.1a26.63,26.63,0,0,1-3.1-2.6c-1-1-.3-.4-.1-2.1l.1-.4a9.26,9.26,0,0,0-.4-2.3c-.3-2.8.6-2.3.7-3,.1-.9-.2-.9.2-1.9.9-2.9,4.4-2,2.2-3.5-.7-.5-1.1-.4-1.5.5-.6,1.6-1.1,1-1.9,1.8-.5.5-1.2.4-1.1.8a1.8,1.8,0,0,1,0,1.6c-.3.7-.7.2-.5,1.1.2,1.2-.1.6-.1,1.3s-.1,1.2.6,1.2c-.1.2-.8.3-.5.9.5.9-.7.4-1,.1-2.1-1.5-3.7-2.6-2.1-4.5a20,20,0,0,1,1.9-2.2c0,.1-.2,1.3.4.9.9-.5-.5-1.8.4-2.4l.3-.1.3-.1c.4-.1.6-.1.8-.5-.9,0-.9.1.1-.6a20,20,0,0,0,2.6-2.4c.9-1,.9-.6,1.3-.8.8-.5.4-1.4,1.7-1.4.7,0,.9.1,1.5-.3,1-.7,2.4-1.7,3.7-1.4-.4.9-.3.1-.5,1.4A6.58,6.58,0,0,0,55,4.6a2.7,2.7,0,0,1-.5,1.2c-.6,1.1.7.6-.2,1-.4.2-2.2,2.2-2.1,2.6.5.7.9.1-.2,1.6-.7,1.1-2.1,4-2.8,4.8s-.3.9-.4,2ZM34.1,29.2c-.2.2.3,1.3-.6,1.1.3.3.9.6.3,1-.4.3,0,.5-.3,1s-.7-.2-1.2.1-1.1.5-1.1-.3,1.3-5.3.8-5.5-2.2,2.7-3.8,5.9c-.5,1-2.7,3.7-4.8,3.6-.1.7,1.2-2.3.9-2.9-.6-1.3-4.6,4.5-6.1,4-1-.4,1.5-4.8,1.7-5.3.4-.7,4.9-9,8.4-11.5.3-.3.3-.4.6-.4a2.51,2.51,0,0,1-.1-1c.1-.2-.1-.6.2-.8,1.1-.7-.4-1.1,1.1-1.8.5-.2.5.4.1-.7-.6-1.5.3-.6-.4-2-.6-1.1.1-1.7,1.2-1.7.5,0,3.1.9,3.3,1.3.1.2-.1.6-.4.7-1.6.4.1.8.2,2,.1.8.5,1.8.9,1.8,3.2.1-3,3.2-1.9,5.8.1.2,1.5,1.2,1.1,1.6-1.3,1.5,1.2,2.9-.1,4ZM5,33.9c1.2-1.3,3.4-5.6,4.3-5.7a12.13,12.13,0,0,0,1-1.4,14.32,14.32,0,0,0,.3-2.3c0-1-4.5,5-5.1,5.2-.2.1-.2,1.7-.3,1.8.5.3-.7,1.7-.2,2.4Z" transform="translate(0.04 -0.1)"/><path class="mountain-cls-1" d="M231.5,34.1V34c-.2-.2-.6-.4-.6-.5.3-.3-.6-.3-.8-.4a33.76,33.76,0,0,1-4.2-.9c-.9-.5-.2-1-1.1-1.9a33.15,33.15,0,0,1-2.7-2.6,4.45,4.45,0,0,0-1.8-1.8,25.29,25.29,0,0,0-2.2-1.3c-1.4-.8-.9-1.5-3.1-2.3-2.9-1-2.3-2.1-3.6-2.8a5,5,0,0,1-2.1-1.7c-1-1.1-2.4-1.5-3.5-2.2-2.4-1.4-2.6-1.9-5.6-1.5-4,.6-1.8,1.5-3.7,1.8-1.3.4-.2,2.3-3,.8a13.12,13.12,0,0,1-4.2-3.1c-.7-.9.8-.4-1.5-1.4a22.11,22.11,0,0,1-4-2.8l-.2-.1c-.9-.4-.8-.1-1.3-.8-.6-.9-.7,0-1.4-1-2-2.8-2.9-1.7-5.5-3.7-.6-.4-1.8,0-3.2-1.4-.4-.4-.7-.6-1.1-1A5.05,5.05,0,0,0,168.5.1H168c-1.3.1-2.1,1.4-4.3,1.8-2.7.6-3.1,1.4-4.9,3.4a14.25,14.25,0,0,1-3,2.5c-1.5,1.2-1.5,1.8-2.4,3.3-.4.5-2,2.8-2.6,2.5a11.09,11.09,0,0,1-3.2-2.5c-.4-.7-.1-.7-1-.9-.4-.1-.6-.4-.9-.6-.8-.6-1.8-1.1-2.6-1.8-1.5-1.2-1.3-.5-3.1-.6s-1,.1-2.5,1.1-3.2,1.1-4.7,2.6a15.46,15.46,0,0,1-2.7,2.4,13.46,13.46,0,0,0-3,2.8,17.09,17.09,0,0,1-1.2,2.3,23.41,23.41,0,0,1-5.3,4.6c-1.1.7-1.1.3-1.9,1.6a3.14,3.14,0,0,1-1.7,1.5c-1.9.7-1.4.5-2.6,2.2-.2.2-1.3.9-1.5,1.1.3.2-1.3,2.5-1,2.7.8-.6,4.5-3.7,5-4.2a11.5,11.5,0,0,1,2.3-2.1c.8-.6,1.2-1.2,2-1.8.1-.1.8-.6.8-.7s-.1-.1.2-.3a8.34,8.34,0,0,0,1.2-.8c1.5-1.2,4.3-3.9,4.9-5.7.2-.5.2-1.2.7-1.1s.8-.4,1-.7,3.3-2.9,3.5-2.6c0,.2-.4,1,.2,1.1s.5-.7.8-.7,3.4-3.8,5.7-4c1.3-.1.7.8.7.8-.6,0-1.5,1.1-.5.8s.7.3.2.9c-.4.4-3.1,2.6-2.8,3s.2.1-.3.7c-.6.8-1.7-.5-.8,1.3.8,1.6-5.4,9.6-5.2,9.2-.5.1-.8-.2-1,.6,0,.1,0,.1-.1.2a17.74,17.74,0,0,0-2.8,2.3c-.6.6,1.2.5.3,1a22.56,22.56,0,0,0-1.4,2.6c0,.4-.3.5-.7.7s-.1,1-1,.7c-.5-.2-2.9,3.4-4.6,5.4,1.1.5.1,2.1.8,2.7,1.6-.6,2.6-2,4-3.3,1.2.4-1.2,5.7-1,5.8,1,.9,2-.5,2.6.8.1-.1.1-.2.2-.3.4-.8,2.2-3.8,2.7-4.7,1.6-3.1,1.4.7,4.2.4,2-.2,5.2-3.5,6.8-2,.4.4.6,2.1.9,2.6a5.56,5.56,0,0,1,.9,1.7h1.2a6.13,6.13,0,0,1,3.7,1.5l.2-.3a6.4,6.4,0,0,0,.6-1.1l.3-.6A5.77,5.77,0,0,1,151,38c1.3-.8,1.5,1.3,2.9,1.2s4.2-3.7,5.2-2.9c1,.5,1.1,3.5,1.8,4.4a11.49,11.49,0,0,1,.8,1,2.09,2.09,0,0,0,.4.6c.8-.1,2.6-2.7,3.4-2.6s1.6,3.2,2.2,3.6c-.3-2.5,4.3-8.1,4.4-8.1.6-.2.8,2.3,1.2,2.9,1.7.3,4.4-6.9,7.9-9.1.6-.3-.7,5-.5,5.3,0,0,9.4-5.4,7.1-6.6-.6-.3-4.3.2-1.7-1.6.9-.6,4.2-2.4,4.2-2.4.8-.8,1.3-1.4,2.1-2.2a16,16,0,0,1,2.5-1.8c.9-.6.4-.1.8-.3.2-.1.8-1.5,1.1-1.8,1-1.3,3.7-2.5,5.1-1.4.3.2,0,.5,0,.9-.2,1.6-.3.8-.7,2-.5,1.7.2,1.9-.6,4-.7,1.7.1.7.2,2.1,0,1.9-2.1,2.1-.8,3.4.6.6-2,3.8-2.8,4.1s-.9-.1-1.4.1c-.1.1,0,.2.1.3h-1.6c0-.3-.1-.7-.1-.9,0-1.3-.3-.9-.3-1.3,0-.7.9-.7.3-2.7-.2-1,.4-.8.4-1.1-.1-.7,0-.5.9-1.7.3-.3.5-.8.8-1.1s1.4-2.2.7-2.5c-1-.4-2.6,2.5-3.4,3.1-1.1.9-1.4.9-.5,2.5,1.7,3.2-3.2,3.7-2.5,7.6.3,0,.3,2.3.6,2.4,1.8.2,3.8-.7,4.5,1.1.2.4,1.2-3.6,1.3-3.1.4,0,0,4.5.5,4.7s.7,1.8,1,1.8a.31.31,0,0,1,.2.1c.7.2,2.3-4.7,2.8-4.4.9.3.8,4.3,1.4,4.9,1.5,1.4.6.8,1.6-1a6.66,6.66,0,0,1,.6-1.2c.2-.6-.6-4.3.1-4.7,4.4.9,3.6,5.3,6.2,4.1h.1c.9-.1,1.9-1.6,2.8-1.2.2.1.4-2.4.7-2.2a6.89,6.89,0,0,1,3.5,2.8,5.34,5.34,0,0,0,3,.2c2.4-1.5,4.1-3,6.1-1.2,1,.5,1.5,1.7,2.2,2.6.2.2.4.6.7.9.1.2.3.5.4.7h.2l.5-2c.7,0,1.4,2.1,2.1,2.2a10.3,10.3,0,0,1,3.6,1.3v-.1a.35.35,0,0,1,.1-.2c.2-.8-.4-3.1-.3-3.3l1.3,1.3c1.4-2.8,2.8-.1,3.2-.8l-10.1-6.6ZM186.6,16.3c-6.6-.5-5.6-2.5-.4-1,.8.4.1.4.6.8.2.2.1.2-.2.2Zm-1.2,3.5a2.88,2.88,0,0,1-3.5.8c-.2-.1-.2-1.9.2-2,1.1-.4,3.7.8,3.3,1.2Zm-14.9.7a24.52,24.52,0,0,0-.2,2.7,18.83,18.83,0,0,1-.6,3.7c-.2,1.1,4.3,1.7,1,1.3-1.6-.2-4.1,1.5-4.7.2-.3-.7-.6-1.1-.9-1.7-1.2-2.3,3.6.2-.5-3.2,4-1,.6-.6-.2-1.3-.3-.3.7-1,1.2-1s1.2-4.1,1.4-5.5.2-2.7.4-4.1v-.2A22.17,22.17,0,0,0,168,7c0-.8.5-2.2,1.3-1.5a5.6,5.6,0,0,0,1.2,2.1c2.2,2.7.7,0,2.4.3.9.1,1,1.1,2.3,1.7.6.3,3.2,4-3,1.1-6.7-3.2,0,2.7-1.7,9.8Zm-1.6,9.8c-2.4-.4-1.1-1-.6-.9a2.18,2.18,0,0,1,.8.5c.9.5.9.6-.2.4Zm-8.1-12.5c-.1.7,0,.9-.1,1.6-.1,1-1.3,1.4-.1,2.5s1.1,1.7.8,2.1a26.63,26.63,0,0,1-3.1-2.6c-1-1-.3-.4-.1-2.1l.1-.4a9.26,9.26,0,0,0-.4-2.3c-.3-2.8.6-2.3.7-3,.1-.9-.2-.9.2-1.9.9-2.9,4.4-2,2.2-3.5-.7-.5-1.1-.4-1.5.5-.6,1.6-1.1,1-1.9,1.8-.5.5-1.2.4-1.1.8a1.8,1.8,0,0,1,0,1.6c-.3.7-.7.2-.5,1.1.2,1.2-.1.6-.1,1.3s-.1,1.2.6,1.2c-.1.2-.8.3-.5.9.5.9-.7.4-1,.1-2.1-1.5-3.7-2.6-2.1-4.5a20,20,0,0,1,1.9-2.2c0,.1-.2,1.3.4.9.9-.5-.5-1.8.4-2.4l.3-.1.3-.1c.4-.1.6-.1.8-.5-.9,0-.9.1.1-.6a20,20,0,0,0,2.6-2.4c.9-1,.9-.6,1.3-.8.8-.5.4-1.4,1.7-1.4.7,0,.9.1,1.5-.3,1-.7,2.4-1.7,3.7-1.4-.4.9-.3.1-.5,1.4-.1.5-.3.9-.4,1.5a2.7,2.7,0,0,1-.5,1.2c-.6,1.1.7.6-.2,1-.4.2-2.3,2.2-2.2,2.6.5.7.9.1-.2,1.6-.7,1.1-2.1,4-2.8,4.8s-.2.9-.3,2ZM146.1,29.2c-.2.2.3,1.3-.6,1.1.3.3.9.6.3,1-.4.3,0,.5-.3,1s-.7-.2-1.2.1-1.1.5-1.1-.3,1.3-5.3.8-5.5-2.2,2.7-3.8,5.9c-.5,1-2.7,3.7-4.8,3.6-.1.7,1.2-2.3.9-2.9-.6-1.3-4.6,4.5-6.1,4-1-.4,1.5-4.8,1.7-5.3.4-.7,4.9-9,8.4-11.5.3-.3.3-.4.6-.4a2.51,2.51,0,0,1-.1-1c.1-.2-.1-.6.2-.8,1.1-.7-.4-1.1,1.1-1.8.5-.2.5.4.1-.7-.6-1.5.3-.6-.4-2-.6-1.1.1-1.7,1.2-1.7.5,0,3.1.9,3.3,1.3.1.2-.1.6-.4.7-1.6.4.1.8.2,2,.1.8.5,1.8.9,1.8,3.2.1-3,3.2-1.9,5.8.1.2,1.5,1.2,1.1,1.6-1.3,1.5,1.2,2.9-.1,4ZM117,33.9c1.2-1.3,3.4-5.6,4.3-5.7a12.13,12.13,0,0,0,1-1.4,14.32,14.32,0,0,0,.3-2.3c0-1-4.5,5-5.1,5.2-.2.1-.2,1.7-.3,1.8.5.3-.7,1.7-.2,2.4Z" transform="translate(0.04 -0.1)"/></svg>