<svg id="result_three" data-name="Isolation Mode" xmlns="http://www.w3.org/2000/svg" viewBox="0 0 55.3 64.3"><defs><style>.result_three-cls-1{fill:#39454b;}.result_three-cls-2{fill:#a67d4c;}.cls-3{fill:#38454b;}</style></defs><title>result-03</title><path class="result_three-cls-1" d="M48.15,65h-2.8V54.15c0-5.3,1.9-9.6,3.9-14.2,2.2-4.9,4.4-9.9,4.4-16.7,0-11.1-9.3-20.1-20.8-20.1s-20.8,9-20.8,20.1v.5L4,38.15h8.1v9.4a2.73,2.73,0,0,0,.8,1.9,2.79,2.79,0,0,0,2,.8h6.9V65H19V52.85h-4.2a5.52,5.52,0,0,1-3.9-1.6,5.46,5.46,0,0,1-1.6-3.8v-6.7H1v-3l8.3-14.7C9.45,10.65,20,.65,32.75.65c13,0,23.5,10.2,23.5,22.8,0,7.4-2.4,12.9-4.6,17.7-1.9,4.3-3.7,8.3-3.7,13.1V65Z" transform="translate(-0.95 -0.65)"/><path class="result_three-cls-2" d="M34.25,56.85h-2.8v-8A13.06,13.06,0,0,1,39.15,37a15.07,15.07,0,0,0,8.9-13.5,15,15,0,0,0-15.2-14.7,15,15,0,0,0-15.2,14.7h-2.8c0-9.6,8.1-17.4,18-17.4s18,7.8,18,17.4a17.92,17.92,0,0,1-10.5,16,10.4,10.4,0,0,0-6.1,9.5Z" transform="translate(-0.95 -0.65)"/><rect class="cls-3" x="30.6" y="14.7" width="2.8" height="10.7"/><rect class="cls-3" x="30.6" y="28.1" width="2.8" height="2.7"/></svg>