<svg id="peace" data-name="Layer 1" xmlns="http://www.w3.org/2000/svg" viewBox="0 0 1000.01 1000.17"><defs><style></style></defs><title>result-icon-01</title><path class="peace-cls-1" d="M223.4,589.5c9.9-2.8,19.8-5.9,29.4-8.9,13.3-4.2,22.8-6.6,33.4-10.2,5.3-1.8,10.7-3.5,15.9-5.2l2.4-.8a2.62,2.62,0,0,0-1.6-5l-2.4.8c-5.2,1.7-10.7,3.4-16,5.3-10.3,3.5-21,6.3-31.4,9.6-10,3.2-20.6,6.5-31,9.5C218.6,585.3,220.1,590.4,223.4,589.5Z" transform="translate(0 0.1)"/><path class="peace-cls-1" d="M289.6,637l53.1-33.4c-1-1.5-1.9-3-2.8-4.5l-53.1,33.4a2.61,2.61,0,0,0-.8,3.6A2.51,2.51,0,0,0,289.6,637Z" transform="translate(0 0.1)"/><path class="peace-cls-1" d="M239.7,549.8a3.08,3.08,0,0,0,3.6,2.5c24.5-4.4,48.7-8.8,72.8-13.3-.4-2-.8-4.1-1.1-6.2-24.1,4.5-48.3,9-72.8,13.3A3.18,3.18,0,0,0,239.7,549.8Z" transform="translate(0 0.1)"/><path class="peace-cls-1" d="M676.6,659.6c-11.3-10.2-23.1-20.9-35.5-32.3l-3.6,3.9c12.5,11.4,24.2,22.1,35.6,32.3C675.6,665.8,679.2,661.9,676.6,659.6Z" transform="translate(0 0.1)"/><path class="peace-cls-1" d="M258.2,507.5c-16.5.5-33.4,1.2-51,2a2.65,2.65,0,0,0,.2,5.3c17.7-.8,34.5-1.6,50.9-2a2.67,2.67,0,0,0,2.6-2.7A2.55,2.55,0,0,0,258.2,507.5Z" transform="translate(0 0.1)"/><path class="peace-cls-1" d="M380.1,677.8a3,3,0,0,0,1.5.5,2.93,2.93,0,0,0,2.8-1.4c4.2-6.2,8.4-12.5,12.6-18.6-1.7-1.2-3.5-2.3-5.2-3.5-4.2,6.1-8.4,12.4-12.6,18.6A3.28,3.28,0,0,0,380.1,677.8Z" transform="translate(0 0.1)"/><path class="peace-cls-1" d="M641.8,668.4a3.12,3.12,0,0,0,2.6-5.2L626.2,642c-1.6,1.4-3.2,2.8-4.8,4.1C642.9,671.3,640.7,668.4,641.8,668.4Z" transform="translate(0 0.1)"/><path class="peace-cls-1" d="M381.3,727.2c.2.1.5.2.7.3a2.55,2.55,0,0,0,2.9-1.3c10.7-18.8,21-37.7,31.3-56.7-1.6-.8-3.1-1.6-4.7-2.4-10.2,19-20.5,37.8-31.2,56.6A2.55,2.55,0,0,0,381.3,727.2Z" transform="translate(0 0.1)"/><path class="peace-cls-1" d="M322.1,438.3a3.16,3.16,0,0,0-1.9-4c-17.8-6.4-35.5-12.6-56.4-20-3.9-1.4-6,4.5-2.1,5.9,21,7.4,38.6,13.6,56.4,20A3.25,3.25,0,0,0,322.1,438.3Z" transform="translate(0 0.1)"/><path class="peace-cls-1" d="M617.2,331.4a3.2,3.2,0,0,0-4.4.8c-2.6,3.7-5.1,7.5-7.7,11.2,1.7,1.2,3.5,2.3,5.2,3.5,2.6-3.7,5.1-7.5,7.7-11.2A3.08,3.08,0,0,0,617.2,331.4Z" transform="translate(0 0.1)"/><path class="peace-cls-1" d="M569,306.5a3.13,3.13,0,0,0-4,2l-4.5,13.2c2,.7,4,1.4,5.9,2.1,1.5-4.4,3-8.9,4.5-13.3A3,3,0,0,0,569,306.5Z" transform="translate(0 0.1)"/><path class="peace-cls-1" d="M306.8,593.3a3.08,3.08,0,0,0,2.6,1.8,2.7,2.7,0,0,0,1.5-.3c7.1-3.2,14.1-6.5,21.1-9.7l-2.7-5.7c-7,3.2-14,6.4-21,9.7A3.24,3.24,0,0,0,306.8,593.3Z" transform="translate(0 0.1)"/><path class="peace-cls-1" d="M655,364.6l-12.8,11c1.4,1.6,2.8,3.1,4.1,4.8l12.8-11a3.06,3.06,0,0,0,.3-4.4A3.15,3.15,0,0,0,655,364.6Z" transform="translate(0 0.1)"/><path class="peace-cls-1" d="M218,439.2l98.4,22.4,1.2-5.1L219.2,434C215.8,433.3,214.6,438.4,218,439.2Z" transform="translate(0 0.1)"/><path class="peace-cls-1" d="M373.2,292.9c-1.9-3-6.3-.1-4.5,2.8,6.5,10.4,6.3,10.5,7.7,10.8a2.63,2.63,0,0,0,2.8-4Z" transform="translate(0 0.1)"/><path class="peace-cls-1" d="M670.1,416.1c-.1.1-.2.1-.3.2l2.7,5.7c.1-.1.2-.1.4-.2a3.18,3.18,0,0,0-2.8-5.7Z" transform="translate(0 0.1)"/><path class="peace-cls-1" d="M311.9,404.3c7.4,3.9,14.3,7.5,20.8,11,.8-1.6,1.6-3.1,2.5-4.7-6.6-3.5-13.5-7.1-20.8-11A2.66,2.66,0,0,0,311.9,404.3Z" transform="translate(0 0.1)"/><path class="peace-cls-1" d="M656.7,329c-9.4,10.2-18.9,20.4-28.4,30.6a2.39,2.39,0,0,0-.7,1.3l3.3,3a3.29,3.29,0,0,0,1.3-.7c9.5-10.2,18.9-20.4,28.4-30.7a2.66,2.66,0,0,0-.1-3.7A2.89,2.89,0,0,0,656.7,329Z" transform="translate(0 0.1)"/><path class="peace-cls-1" d="M715.3,193.1c2.4-4.6,6.7-8.3,8.9-13.4,1.7-2.9,4.3-5.8,6.2-8.6,2.3-3.5-2.9-6.9-5.2-3.5-1.8,2.6-4.5,5.7-6.5,9-3.2,6.4-6.2,8.2-9,13.6C707.9,193.9,713.4,196.8,715.3,193.1Z" transform="translate(0 0.1)"/><path class="peace-cls-1" d="M728.5,251.3c-1.8,1.9-5.3,5.1-6.7,7-2,3.3-6,5.9-9,9.9-2.1,2.8,2.3,5.9,4.3,3.1a28.18,28.18,0,0,1,4.1-4.4c6.3-6,2.3-3.3,8.5-9.3a34.37,34.37,0,0,0,2.7-2.7A2.65,2.65,0,0,0,728.5,251.3Z" transform="translate(0 0.1)"/><path class="peace-cls-1" d="M822.9,398.5c-5.3,1.6-10.9,3.3-17.1,5.2a2.62,2.62,0,1,0,1.6,5c6.2-1.9,11.7-3.6,17-5.2C827.7,402.6,826.2,397.5,822.9,398.5Z" transform="translate(0 0.1)"/><path class="peace-cls-1" d="M767.6,376.5c1,.1-2,1.8,55.2-26.4,3.7-1.8,1-7.5-2.8-5.6-19.3,9.5-36.5,18-53.6,26.1A3.12,3.12,0,0,0,767.6,376.5Z" transform="translate(0 0.1)"/><path class="peace-cls-1" d="M767.3,276.6l40.6-34.9c3.1-2.7-.9-7.5-4.1-4.8l-40.6,34.9a3.16,3.16,0,0,0,4.1,4.8Z" transform="translate(0 0.1)"/><path class="peace-cls-1" d="M670.3,256.5c2.4.2.5,2.2,31.4-43.3,2.3-3.4-2.9-7-5.2-3.5-9.5,14-19,27.9-28.5,41.9A3.08,3.08,0,0,0,670.3,256.5Z" transform="translate(0 0.1)"/><path class="peace-cls-1" d="M663.9,400.4a3.4,3.4,0,0,0,2-.3L682,390a2.61,2.61,0,1,0-2.8-4.4l-16.1,10.1a2.61,2.61,0,0,0-.8,3.6A2.49,2.49,0,0,0,663.9,400.4Z" transform="translate(0 0.1)"/><path class="peace-cls-1" d="M710.9,323.8c1.8.1-.5,1.7,37.4-30.8,3.1-2.7-.9-7.5-4.1-4.8L709,318.3A3.16,3.16,0,0,0,710.9,323.8Z" transform="translate(0 0.1)"/><path class="peace-cls-1" d="M699.4,282.8q-14.4,15.75-28.9,31.3a2.66,2.66,0,0,0,.1,3.7,3.38,3.38,0,0,0,1.2.6,2.6,2.6,0,0,0,2.5-.8l28.9-31.3C705.6,283.8,701.8,280.2,699.4,282.8Z" transform="translate(0 0.1)"/><path class="peace-cls-1" d="M816.7,608.3c-5.5-2-11.3-4-17.6-6.3-3.9-1.4-6,4.5-2.1,5.9,6.3,2.2,12.1,4.3,17.6,6.3C818.5,615.6,820.6,609.7,816.7,608.3Z" transform="translate(0 0.1)"/><path class="peace-cls-1" d="M776,593.9c-11.6-4-21.5-7.5-31.5-11-3.9-1.4-6,4.5-2.1,5.9.7.2,31.6,11.1,32.4,11.2C778.4,600.3,779.5,595.1,776,593.9Z" transform="translate(0 0.1)"/><path class="peace-cls-1" d="M772.2,647c.7.4,26.1,13.8,26.9,13.9a2.63,2.63,0,0,0,1.8-4.9c-9-4.7-17.7-9.2-26.2-13.7C771.6,640.7,769.1,645.4,772.2,647Z" transform="translate(0 0.1)"/><path class="peace-cls-1" d="M785.9,562.9,685.6,540.1l-1.2,5.1L784.7,568A2.62,2.62,0,0,0,785.9,562.9Z" transform="translate(0 0.1)"/><path class="peace-cls-1" d="M735.2,657c-23.2-15.4-47.8-31.9-75.1-50.5-.6-.4-1.3-.9-1.9-1.3-1.2,1.7-2.3,3.5-3.6,5.2,25.3,17.2,50.9,34.5,77.1,51.9C735.2,664.5,738.7,659.3,735.2,657Z" transform="translate(0 0.1)"/><path class="peace-cls-1" d="M847,524.2,689.4,512.1c-.1,2.1-.3,4.2-.5,6.3l157.6,12.1C850.6,530.8,851.1,524.5,847,524.2Z" transform="translate(0 0.1)"/><path class="peace-cls-1" d="M838.6,490.6c3.5-.2,3.2-5.4-.3-5.3l-13.6.6a2.61,2.61,0,0,0-2.5,2.8,2.67,2.67,0,0,0,2.8,2.5Z" transform="translate(0 0.1)"/><path class="peace-cls-1" d="M853.1,431.9c-26.2,4-52,10.1-77.4,14.4a3.15,3.15,0,0,0-2.6,3.6,3,3,0,0,0,2.9,2.6h.8c25.5-4.3,51.3-10.5,77.3-14.4C858.1,437.5,857.2,431.3,853.1,431.9Z" transform="translate(0 0.1)"/><path class="peace-cls-1" d="M832.9,576.3a2.78,2.78,0,0,0-2-3.2l-22.7-5.2c-3.4-.8-4.6,4.4-1.2,5.1l22.7,5.2A2.63,2.63,0,0,0,832.9,576.3Z" transform="translate(0 0.1)"/><path class="peace-cls-1" d="M750.3,629.1c-4.3-2.3-8.9-4.7-13.9-7.4-3.1-1.6-5.5,3-2.5,4.7,5,2.6,9.5,5,13.8,7.4C750.9,635.4,753.4,630.7,750.3,629.1Z" transform="translate(0 0.1)"/><path class="peace-cls-1" d="M241.7,367c19.3,10.4,38.9,20.7,58.5,31.1,3.1,1.6,5.5-3,2.5-4.7-19.4-10.2-39.1-20.6-58.5-31.1C241.1,360.7,238.6,365.4,241.7,367Z" transform="translate(0 0.1)"/><path class="peace-cls-1" d="M172.3,423.4c-3.4-.8-4.6,4.4-1.2,5.1l24.9,5.7c3.4.8,4.6-4.4,1.2-5.1Z" transform="translate(0 0.1)"/><path class="peace-cls-1" d="M249,409c-24.5-8.6-49.6-17.4-74.2-26.3-3.9-1.4-6,4.5-2.1,5.9,19.3,7,74.1,26.5,75.1,26.5C251.3,415.4,252.4,410.2,249,409Z" transform="translate(0 0.1)"/><path class="peace-cls-1" d="M342.5,320.8l25.8,30.1c2.7,3.1,7.5-.9,4.8-4.1l-25.8-30.1C344.5,313.6,339.8,317.6,342.5,320.8Z" transform="translate(0 0.1)"/><path class="peace-cls-1" d="M345.8,353.3c-2.6-2.4-6.1,1.5-3.6,3.9,6.9,6.3,13,11.9,18.6,17.2l3.6-3.9C358.8,365.3,352.7,359.6,345.8,353.3Z" transform="translate(0 0.1)"/><path class="peace-cls-1" d="M271.7,347.3a3.12,3.12,0,0,0,2-5.7c-6.9-4.6-13-8.7-18.9-12.7-3.4-2.3-6.9,2.9-3.5,5.2C271.9,347.9,270.6,347.2,271.7,347.3Z" transform="translate(0 0.1)"/><path class="peace-cls-1" d="M185.5,515.7c3.5-.1,3.3-5.4-.2-5.3-8,.3-15.2.5-21.9.7a2.63,2.63,0,0,0-.5,5.2C163.8,516.5,184.7,515.7,185.5,515.7Z" transform="translate(0 0.1)"/><path class="peace-cls-1" d="M331.6,340.4c-5.1-4.7-9.7-8.8-14.2-12.9a2.65,2.65,0,0,0-3.6,3.9c15.2,13.9,14.4,13.3,15.4,13.5A2.63,2.63,0,0,0,331.6,340.4Z" transform="translate(0 0.1)"/><path class="peace-cls-1" d="M289.2,359.5c17.3,11.7,31.1,21.2,43.5,30,3.4,2.4,7-2.7,3.6-5.1-12.5-8.9-26.4-18.4-43.7-30.1C289.3,352,285.8,357.2,289.2,359.5Z" transform="translate(0 0.1)"/><path class="peace-cls-1" d="M277.6,509.3a2.65,2.65,0,0,0,2.1,2.5c.2,0,.4.1.7.1,10.8-.3,21.5-.7,32.2-1-.1-1.8-.2-3.5-.2-5.3-10.7.4-21.4.7-32.1,1A2.75,2.75,0,0,0,277.6,509.3Z" transform="translate(0 0.1)"/><path class="peace-cls-1" d="M845.4,339.1c6.9-3.3,13.2-6.3,19.1-9,3.8-1.7,1.1-7.4-2.6-5.7-6,2.8-12.2,5.7-19.2,9.1a3.18,3.18,0,0,0-1.5,4.2A3.23,3.23,0,0,0,845.4,339.1Z" transform="translate(0 0.1)"/><path class="peace-cls-1" d="M562.8,690.5a2.66,2.66,0,1,0-5,1.8c1.5,4.1,2.6,8.1,3.6,11.9.7,2.8,1.5,5.6,2.4,8.5a2.65,2.65,0,0,0,1.9,1.8,2.29,2.29,0,0,0,1.4-.1,2.54,2.54,0,0,0,1.7-3.3c-.9-2.8-1.6-5.6-2.4-8.3C565.4,698.9,564.3,694.8,562.8,690.5Z" transform="translate(0 0.1)"/><path class="peace-cls-1" d="M595,703.3a3.28,3.28,0,0,0,2.6,1.8,4.53,4.53,0,0,0,1.6-.3,3.18,3.18,0,0,0,1.5-4.2c-5-10.3-10-20.6-15-31l-5.7,2.7C584.9,682.6,590,693,595,703.3Z" transform="translate(0 0.1)"/><path class="peace-cls-1" d="M880.5,433c5.3-1,10.6-2.1,15.9-3.1,4.1-.8,2.9-7-1.2-6.2-5.3,1-10.6,2.1-15.9,3.1a3.16,3.16,0,0,0,1.2,6.2Z" transform="translate(0 0.1)"/><path class="peace-cls-1" d="M276,697.9,359.8,626c-1.4-1.6-2.8-3.1-4.1-4.8l-83.8,71.9A3.16,3.16,0,1,0,276,697.9Z" transform="translate(0 0.1)"/><path class="peace-cls-1" d="M272.7,644.5a2.61,2.61,0,0,0-3.6-.8l-55.3,34.8a2.62,2.62,0,0,0,.8,4.8c1.5.4-2.3,2.4,57.3-35.2A2.59,2.59,0,0,0,272.7,644.5Z" transform="translate(0 0.1)"/><path class="peace-cls-1" d="M154.4,565.9a3.18,3.18,0,0,0,3.7,2.5c20.7-4,40.3-7.8,59.6-11.3,4.1-.7,3-6.9-1.1-6.2-19.4,3.4-39.1,7.3-59.7,11.3A3,3,0,0,0,154.4,565.9Z" transform="translate(0 0.1)"/><path class="peace-cls-1" d="M556.1,682.6a2.29,2.29,0,0,0,1.4-.1,2.58,2.58,0,0,0,1.8-2.2c-1.5.5-3,1-4.6,1.4A2.43,2.43,0,0,0,556.1,682.6Z" transform="translate(0 0.1)"/><path class="peace-cls-1" d="M670.2,593a2.63,2.63,0,0,0,1.8-4.9c-.9-.5-1.9-.9-2.8-1.4-.8,1.6-1.6,3.1-2.5,4.7C668.8,592.4,670,592.9,670.2,593Z" transform="translate(0 0.1)"/><path class="peace-cls-1" d="M691.6,444.3a2.85,2.85,0,0,0,1.3,0l26.7-8.1a2.66,2.66,0,1,0-1.5-5.1l-26.7,8.1a2.67,2.67,0,0,0-1.8,3.3A3,3,0,0,0,691.6,444.3Z" transform="translate(0 0.1)"/><path class="peace-cls-1" d="M733.6,492a2.57,2.57,0,0,0,2.1,2.5c.2,0,.4.1.6.1,21.8-.4,44-2.4,66.1-2.5a2.6,2.6,0,1,0,0-5.2c-12.5,0-25.2.7-37.4,1.3-9.5.5-19.3,1-28.8,1.2A2.52,2.52,0,0,0,733.6,492Z" transform="translate(0 0.1)"/><path class="peace-cls-1" d="M687,469c11.7-2,23.3-4.2,34.7-6.3,10-1.9,20.4-3.8,30.7-5.6a3.1,3.1,0,0,0-1.1-6.1c-10.3,1.8-20.7,3.7-30.7,5.6-11.4,2.1-23,4.3-34.7,6.3C686.3,464.9,686.7,466.9,687,469Z" transform="translate(0 0.1)"/><path class="peace-cls-1" d="M690.6,334.1l-17.1,14.7a3.06,3.06,0,0,0-.3,4.4,3.11,3.11,0,0,0,2.1,1.1,3.31,3.31,0,0,0,2.3-.7l17.1-14.7a3.16,3.16,0,0,0-4.1-4.8Z" transform="translate(0 0.1)"/><path class="peace-cls-1" d="M718.1,492.7a2.61,2.61,0,0,0-2.7-2.6c-8.6.2-17.4.6-25.9.9.1,1.8.2,3.5.2,5.3l25.8-.9A2.67,2.67,0,0,0,718.1,492.7Z" transform="translate(0 0.1)"/><path class="peace-cls-1" d="M719.3,577.6a3.21,3.21,0,0,0-2-4l-4.3-1.4c-10.9-3.6-22-7.3-33.1-11.1-.7,2-1.4,4-2.1,5.9,12.5,4.3,25.1,8.4,37.6,12.5A2.87,2.87,0,0,0,719.3,577.6Z" transform="translate(0 0.1)"/><path class="peace-cls-1" d="M690.9,603.8c.5.3,24.9,13.2,25.5,13.3a2.63,2.63,0,0,0,1.8-4.9c-9.1-4.8-16.9-8.9-24.9-13C690.3,597.5,687.8,602.1,690.9,603.8Z" transform="translate(0 0.1)"/><path class="peace-cls-1" d="M729.4,353.9l-32.9,20.7a2.61,2.61,0,0,0-.8,3.6,3.11,3.11,0,0,0,1.6,1.2,3.4,3.4,0,0,0,2-.3l32.9-20.7a2.61,2.61,0,0,0,.8-3.6A2.51,2.51,0,0,0,729.4,353.9Z" transform="translate(0 0.1)"/><path class="peace-cls-1" d="M744.3,380.9l-30,14.1a3.15,3.15,0,0,0-1.5,4.2,3.08,3.08,0,0,0,2.6,1.8,4.53,4.53,0,0,0,1.6-.3l30-14.1a3.15,3.15,0,0,0,1.5-4.2A3.27,3.27,0,0,0,744.3,380.9Z" transform="translate(0 0.1)"/><path class="peace-cls-1" d="M412.1,308.7c-1.8-3.7-7.5-1-5.7,2.7,3.3,6.9,6.6,13.8,10,20.7l5.7-2.7C418.7,322.5,415.4,315.5,412.1,308.7Z" transform="translate(0 0.1)"/><path class="peace-cls-1" d="M395.8,328.8c-1.9-3-6.3-.1-4.5,2.8l6.9,11c1.5-1,3-1.9,4.5-2.8Z" transform="translate(0 0.1)"/><path class="peace-cls-1" d="M592.2,333.8c7.1-12.3,13.4-25.3,19.5-37.8l2.4-5a107.13,107.13,0,0,1,6.5-11.6,2.68,2.68,0,0,0-4.5-2.9,102.48,102.48,0,0,0-6.8,12.2l-2.5,5c-6.1,12.4-12.4,25.3-19.4,37.5a2.89,2.89,0,0,0-.3,1.8c1.2.6,2.5,1.3,3.7,1.9A2,2,0,0,0,592.2,333.8Z" transform="translate(0 0.1)"/><path class="peace-cls-1" d="M392,322.7l-2.3-3.6c-1.9-3-6.3-.1-4.5,2.8l2.3,3.6C389.4,328.5,393.8,325.7,392,322.7Z" transform="translate(0 0.1)"/><path class="peace-cls-1" d="M736.1,428.4a2.65,2.65,0,0,0,1.9,1.8,2.85,2.85,0,0,0,1.3,0c13.3-4,26.8-8.3,39.8-12.5l8.1-2.6a2.62,2.62,0,0,0-1.6-5l-8.1,2.6c-13,4.2-26.4,8.5-39.7,12.5A2.64,2.64,0,0,0,736.1,428.4Z" transform="translate(0 0.1)"/><path class="peace-cls-1" d="M628.6,317.5a2.93,2.93,0,0,0,2.8-1.4c9.3-13.7,18.7-27.3,28-41,2.3-3.4-2.8-7-5.2-3.5-9.3,13.7-18.7,27.3-28,41a3.2,3.2,0,0,0,.8,4.4A14.24,14.24,0,0,0,628.6,317.5Z" transform="translate(0 0.1)"/><path class="peace-cls-1" d="M788.2,323.1c3-1.9.1-6.3-2.8-4.5l-38.1,24a2.62,2.62,0,0,0,.8,4.8C749.6,347.8,747,349.1,788.2,323.1Z" transform="translate(0 0.1)"/><path class="peace-cls-1" d="M360,280.3a2.63,2.63,0,0,0,2.8-4l-16.2-25.8c-1.9-3-6.3-.1-4.5,2.8C359.7,281.4,358.5,280,360,280.3Z" transform="translate(0 0.1)"/><path class="peace-cls-1" d="M424.8,824l-1.3,5.6c-.8,3.4,4.4,4.6,5.1,1.2l1.3-5.6A2.62,2.62,0,1,0,424.8,824Z" transform="translate(0 0.1)"/><path class="peace-cls-1" d="M374.5,740.1a2.59,2.59,0,0,0-3.5,1.3c-9.2,19.6-21,37.3-29.9,57.1-1.4,3.2,3.4,5.3,4.8,2.2,8.8-19.5,20.6-37.2,29.9-57A2.76,2.76,0,0,0,374.5,740.1Z" transform="translate(0 0.1)"/><path class="peace-cls-1" d="M389.9,806.4c-7.4,24.7-18.2,47.6-25.3,72.4-1.1,4,4.9,5.7,6,1.7,7-24.5,17.7-47.4,25.2-72.3C397.1,804.3,391.1,802.5,389.9,806.4Z" transform="translate(0 0.1)"/><path class="peace-cls-1" d="M436.6,678.3c-12.5,35.8-25.2,70.7-38.8,105.6-1.5,3.9,4.3,6.2,5.9,2.3,13.6-35.1,26.3-70,38.9-105.9C440.6,679.7,438.6,679,436.6,678.3Z" transform="translate(0 0.1)"/><path class="peace-cls-1" d="M371.1,696.5a3.16,3.16,0,0,0-5.2-3.6c-27.9,41-45.9,66.5-68.5,99.4-2.3,3.4,2.8,7,5.2,3.5,9.6-14,19.4-28.2,28.9-41.8,8.1-11.7,16.5-23.8,24.7-35.7C361.1,711,366.1,703.8,371.1,696.5Z" transform="translate(0 0.1)"/><path class="peace-cls-1" d="M448.6,731.2a2.78,2.78,0,0,0-3.2,2L429.1,805c-.8,3.4,4.4,4.6,5.1,1.2l16.3-71.8A2.54,2.54,0,0,0,448.6,731.2Z" transform="translate(0 0.1)"/><path class="peace-cls-1" d="M479.5,780.9a3.28,3.28,0,0,0-3.4,2.9l-6.7,87.3c-.3,4.1,5.9,4.6,6.3.5l6.7-87.3A3.28,3.28,0,0,0,479.5,780.9Z" transform="translate(0 0.1)"/><path class="peace-cls-1" d="M467.7,894.3l-.5,6.8c-.3,4.1,5.9,4.6,6.3.5l.5-6.8C474.2,890.6,468,890.1,467.7,894.3Z" transform="translate(0 0.1)"/><path class="peace-cls-1" d="M456.6,684.3l-6.8,29.9a2.67,2.67,0,1,0,5.2,1.2l6.8-29.9C460,685.1,458.3,684.7,456.6,684.3Z" transform="translate(0 0.1)"/><path class="peace-cls-1" d="M328.8,690.5c8.2-8.7,16.6-17.7,24.9-26.7l15.1-16.3a2.62,2.62,0,0,0-3.9-3.5l-15.1,16.3c-17.9,19.3-36.2,38.6-54.1,57.9a2.68,2.68,0,0,0,1.3,4.4C299.2,723,297.2,724.2,328.8,690.5Z" transform="translate(0 0.1)"/><path class="peace-cls-1" d="M202.3,593.2a2.54,2.54,0,0,0-3.3-1.7l-21.5,6.6a2.64,2.64,0,0,0,.2,5.1c1,.2-.5.5,22.8-6.7A2.53,2.53,0,0,0,202.3,593.2Z" transform="translate(0 0.1)"/><path class="peace-cls-1" d="M483.4,688.7l-5.5,72a3.16,3.16,0,1,0,6.3.5l5.5-72C487.6,689.1,485.5,688.9,483.4,688.7Z" transform="translate(0 0.1)"/><path class="peace-cls-1" d="M283.5,812.8c-4.1,6.1-8.1,12.1-11.9,17.8a3.18,3.18,0,0,0,2.4,4.9c2.5.2,2-.2,14.8-19.1C291,812.9,285.8,809.4,283.5,812.8Z" transform="translate(0 0.1)"/><path class="peace-cls-1" d="M161.5,660.1l-24.1,11.6a3.16,3.16,0,0,0,1.1,6c1.2.1-.6.7,25.7-11.9a3.15,3.15,0,0,0,1.5-4.2A3.07,3.07,0,0,0,161.5,660.1Z" transform="translate(0 0.1)"/><path class="peace-cls-1" d="M131.3,567.1c-9.4,1.8-17.8,3.3-25.6,4.6a3.13,3.13,0,0,0,.3,6.2c1,.1,25.5-4.5,26.5-4.7a3.18,3.18,0,0,0,2.5-3.7A3.25,3.25,0,0,0,131.3,567.1Z" transform="translate(0 0.1)"/><path class="peace-cls-1" d="M152.3,381.3a3.07,3.07,0,0,0,3.3-2.5,3.11,3.11,0,0,0-2.4-3.7,36.84,36.84,0,0,1-6.8-2.4c-11-4.7-5.8-.7-15-5.2a33.06,33.06,0,0,0-8.8-3.2c-4.1-.6-4.9,5.7-.9,6.2,4.2.6,8.8,4.1,14,5.4,2.3.4,2.7.1,8.3,2.5C144.9,378.9,150,381.2,152.3,381.3Z" transform="translate(0 0.1)"/><path class="peace-cls-1" d="M273.4,750.3c3.9-4.3,7.9-8.7,12.1-13.3,2.4-2.6-1.5-6.1-3.9-3.6-4.2,4.6-8.2,9-12.1,13.3C267.2,749.4,271.1,752.9,273.4,750.3Z" transform="translate(0 0.1)"/><path class="peace-cls-1" d="M278.1,611.1l2.7-1.3a3.13,3.13,0,0,0-2.8-5.6l-2.7,1.3c-19.7,9.7-74,36-88,42.3a3.14,3.14,0,0,0,1,6c1.9.1,30.6-14,34.5-15.9C243.7,627.6,223.9,637.9,278.1,611.1Z" transform="translate(0 0.1)"/><path class="peace-cls-1" d="M253.1,709.3l-59,50.6a3.13,3.13,0,0,0,1.8,5.5c1.9.1-2.3,3.2,61.3-51.4a3.06,3.06,0,0,0,.3-4.4A3.14,3.14,0,0,0,253.1,709.3Z" transform="translate(0 0.1)"/><path class="peace-cls-1" d="M561,803.2c-.8-4.1-6.9-2.9-6.2,1.2l17.1,91.8c.8,4.1,6.9,2.9,6.2-1.1Z" transform="translate(0 0.1)"/><path class="peace-cls-1" d="M750.4,728.3c-4.6-3.9-9.1-8.2-13.3-12.4-14-13.7-13.3-11.9-20.7-19.4-11.3-11.3-11.2-10.8-24.6-22.9-2.6-2.3-6.1,1.6-3.5,3.9,37.5,34,2.5,2.5,36.9,34.3,7.3,6.7,14.1,14.1,21.9,20.6C749.7,734.6,753.1,730.5,750.4,728.3Z" transform="translate(0 0.1)"/><path class="peace-cls-1" d="M660.6,682.1a3.12,3.12,0,0,0-4.7,4.1c68.6,80,63.8,75,65.6,75.1a3.14,3.14,0,0,0,2.6-5.2Z" transform="translate(0 0.1)"/><path class="peace-cls-1" d="M659.7,825.3A3.15,3.15,0,1,0,654,828c6.5,13.4,12.3,25.3,17.8,36.3,1.8,3.7,7.5.9,5.6-2.8C671.9,850.6,666.1,838.7,659.7,825.3Z" transform="translate(0 0.1)"/><path class="peace-cls-1" d="M740.2,775c-2.7-3.1-7.5.9-4.8,4.1L760,807.8c2.7,3.1,7.5-.9,4.8-4.1Z" transform="translate(0 0.1)"/><path class="peace-cls-1" d="M666.2,758.3c-1.9-3-6.3-.1-4.5,2.8,18.3,29.1,17.1,27.7,18.6,28.1a2.63,2.63,0,0,0,2.8-4Z" transform="translate(0 0.1)"/><path class="peace-cls-1" d="M901.7,528.4l-27.6-2.1c-4.1-.3-4.6,5.9-.5,6.3l27.6,2.1a3.28,3.28,0,0,0,3.4-2.9A3.22,3.22,0,0,0,901.7,528.4Z" transform="translate(0 0.1)"/><path class="peace-cls-1" d="M880.9,631.2c-11.4-3.9-22.5-7.7-33.2-11.5-3.9-1.4-6,4.5-2.1,5.9.9.3,33.1,11.6,34.1,11.7C883.3,637.6,884.4,632.4,880.9,631.2Z" transform="translate(0 0.1)"/><path class="peace-cls-1" d="M834.1,725c-11.6-7.1-20.1-14.5-34.9-24.1-15.6-10.1-8.9-7.1-35.7-24.8-2.7-1.8-5.3-3.5-8-5.3-3.4-2.3-6.9,2.9-3.5,5.2,44.3,29.7,9.6,6.8,49.4,33.9,9.7,6.6,19.1,14.1,29.3,20.4a3.18,3.18,0,0,0,4.3-1A3,3,0,0,0,834.1,725Z" transform="translate(0 0.1)"/><path class="peace-cls-1" d="M509.6,742.5c.2,0,.4.1.7.1a2.52,2.52,0,0,0,2.5-2.7c-.5-16.2-1.1-32.9-1.8-50.6-1.8.1-3.5.2-5.3.2.6,17.6,1.2,34.3,1.8,50.5A2.89,2.89,0,0,0,509.6,742.5Z" transform="translate(0 0.1)"/><path class="peace-cls-1" d="M556.6,780c-5.4-29.4-11.1-60.3-17.5-94.3-2,.4-4.1.8-6.2,1.1,6.4,34,12.1,64.8,17.5,94.2a3.28,3.28,0,0,0,2.8,2.6h.8A3.08,3.08,0,0,0,556.6,780Z" transform="translate(0 0.1)"/><path class="peace-cls-1" d="M580.1,748.6c-1.7-5.6-3.5-11.3-5.2-16.9a2.62,2.62,0,0,0-5,1.6c1.7,5.6,3.5,11.3,5.2,16.9,2,6.4,3.9,12.8,5.9,19.2,1,3.3,6.1,1.8,5-1.6C584,761.4,582,755,580.1,748.6Z" transform="translate(0 0.1)"/><path class="peace-cls-1" d="M655.1,740.7l-43.7-69.4a2.61,2.61,0,1,0-4.4,2.8c47.2,75,43.8,70.2,45.3,70.6A2.67,2.67,0,0,0,655.1,740.7Z" transform="translate(0 0.1)"/><path class="peace-cls-1" d="M510.9,757.2a2.58,2.58,0,0,0-2.5,2.7l2.9,78.5c.1,3.5,5.4,3.3,5.3-.2l-2.9-78.5A2.74,2.74,0,0,0,510.9,757.2Z" transform="translate(0 0.1)"/><path class="peace-cls-1" d="M131,469.3,100.7,467c-4.1-.3-4.6,5.9-.5,6.3l30.3,2.3C134.7,475.9,135.2,469.6,131,469.3Z" transform="translate(0 0.1)"/><path class="peace-cls-1" d="M593,790.3c-1-3.3-6.1-1.8-5,1.6,11,35,10.4,33.7,12.3,34.2a2.66,2.66,0,0,0,3.1-3.4C600.1,812.8,596.7,802.2,593,790.3Z" transform="translate(0 0.1)"/><path class="peace-cls-1" d="M628.1,759.5a3.15,3.15,0,1,0-5.7,2.7c3,6.3,6,12.6,9.1,19,11.1,23.2,10.5,23.1,12.9,23.3a4.53,4.53,0,0,0,1.6-.3,3.15,3.15,0,0,0,1.5-4.2C640.8,786.1,634.7,773.3,628.1,759.5Z" transform="translate(0 0.1)"/><path class="peace-cls-1" d="M613.3,727.2c-1.9-4.5-4-9.1-6.5-13.9a3.18,3.18,0,0,0-5.6,3c2.5,4.5,4.4,9.1,6.3,13.4,1.4,3.1,2.8,6.3,4.3,9.6,1.8,3.7,7.5,1,5.6-2.8C616,733.4,614.6,730.2,613.3,727.2Z" transform="translate(0 0.1)"/><path class="peace-cls-1" d="M518.5,312.9l1.3-16.8a3.16,3.16,0,1,0-6.3-.5l-1.3,16.8C514.4,312.6,516.5,312.7,518.5,312.9Z" transform="translate(0 0.1)"/><path class="peace-cls-1" d="M487,204.2c.6,12.2,1.1,24.8,1.5,37.1.1,3.5,5.4,3.3,5.3-.2-.4-12.4-1-24.9-1.5-37.2C492.1,200.4,486.8,200.7,487,204.2Z" transform="translate(0 0.1)"/><path class="peace-cls-1" d="M526.8,205.8l1.6-20.3c.3-4.1-5.9-4.6-6.3-.5l-1.6,20.3C520.2,209.4,526.4,209.9,526.8,205.8Z" transform="translate(0 0.1)"/><path class="peace-cls-1" d="M432.8,154.2c2.8,14.3,5.7,28.9,8.3,43.4.7,4.1,6.9,3,6.2-1.1-2.6-14.5-5.5-29.1-8.3-43.5C438.2,149,432,150.2,432.8,154.2Z" transform="translate(0 0.1)"/><path class="peace-cls-1" d="M518.2,276.4a3.28,3.28,0,0,0,3.4-2.9l3.4-44.6c.3-4.1-5.9-4.6-6.3-.5L515.3,273A3.15,3.15,0,0,0,518.2,276.4Z" transform="translate(0 0.1)"/><path class="peace-cls-1" d="M489.2,261.4c.5,15,1,30.8,1.6,46.8a2.65,2.65,0,0,0,2.1,2.5c.2,0,.4.1.7.1a2.58,2.58,0,0,0,2.5-2.7c-.6-16-1.1-31.8-1.6-46.8C494.3,257.7,489.1,257.9,489.2,261.4Z" transform="translate(0 0.1)"/><path class="peace-cls-1" d="M445.4,221.1c3.2,17.6,6.5,36,10,54.8a3.28,3.28,0,0,0,2.8,2.6,3.08,3.08,0,0,0,3.3-3.7c-3.5-18.8-6.8-37.2-10-54.8C450.8,216,444.6,217.1,445.4,221.1Z" transform="translate(0 0.1)"/><path class="peace-cls-1" d="M491.2,179.2c-.2-5.8-.4-10.9-.5-15.9-.1-3.5-5.4-3.4-5.3.1.1,5,.3,10.2.5,16A2.65,2.65,0,0,0,491.2,179.2Z" transform="translate(0 0.1)"/><path class="peace-cls-1" d="M459.5,298.7c1.1,5.8,2.1,11.5,3.2,17.3,2-.4,4.1-.8,6.2-1.2-1.1-5.8-2.1-11.5-3.2-17.3C465,293.4,458.8,294.6,459.5,298.7Z" transform="translate(0 0.1)"/><path class="peace-cls-1" d="M630.8,260.4c4.9-9,9.2-18.4,14.6-26.9,3.5-5.7,4.6-10.9,8.4-16,.6-1,4.5-8.2,7.2-14.4a2.62,2.62,0,0,0-4.8-2.1c-1.8,4.1-4.2,8.8-6.7,13.5-4.1,5.6-5.4,11-8.6,16.2-5.5,8.7-9.8,18.3-14.7,27.1C624.5,261,629.1,263.5,630.8,260.4Z" transform="translate(0 0.1)"/><path class="peace-cls-1" d="M575.2,290.2a2.92,2.92,0,0,0,.9.2,3.34,3.34,0,0,0,3.2-2c12-30.5,17.6-55,24.1-69,1.7-3.8-4-6.4-5.7-2.6-3.5,7.6-5.5,14.2-7.9,21.9-5,15.7-10.2,31.9-16.3,47.5A3,3,0,0,0,575.2,290.2Z" transform="translate(0 0.1)"/><path class="peace-cls-1" d="M576,182.8l2.4-10.7c.8-3.4-4.4-4.6-5.1-1.2l-2.4,10.7A2.62,2.62,0,1,0,576,182.8Z" transform="translate(0 0.1)"/><path class="peace-cls-1" d="M564.4,233.8l7.3-32c.8-3.4-4.4-4.6-5.1-1.2l-7.3,32A2.62,2.62,0,1,0,564.4,233.8Z" transform="translate(0 0.1)"/><path class="peace-cls-1" d="M529.1,175.7l3-38.9c.3-4.1-5.9-4.6-6.3-.5l-3,38.9C522.5,179.3,528.8,179.8,529.1,175.7Z" transform="translate(0 0.1)"/><path class="peace-cls-1" d="M611.8,195.4c1.6-4.2,3-8.5,4.4-12.7,8.7-25.7,7.4-17.7,11-30.6,3.4-11.9,4.9-10.5,10.1-29.3,1.1-4-5-5.7-6.1-1.7-1.4,5.1-3.4,11.1-5.5,17-3.9,7.3-4.5,13.9-7.3,20.6-5,11.1-8.4,23.2-12.6,34.5C604.5,197.1,610.4,199.3,611.8,195.4Z" transform="translate(0 0.1)"/><path class="peace-cls-1" d="M533.8,113.6l1-13c.3-4.1-5.9-4.6-6.3-.5l-1,13C527.3,117.2,533.5,117.7,533.8,113.6Z" transform="translate(0 0.1)"/><path class="peace-cls-1" d="M542.9,316.3a2.78,2.78,0,0,0,3.2-2l8.3-36.7a2.67,2.67,0,0,0-5.2-1.2l-8.3,36.7A2.67,2.67,0,0,0,542.9,316.3Z" transform="translate(0 0.1)"/><path class="peace-cls-1" d="M157.3,477.6l155.3,11.9c.1-2.1.3-4.2.5-6.3L157.8,471.3C153.7,471,153.2,477.3,157.3,477.6Z" transform="translate(0 0.1)"/><path class="peace-cls-1" d="M555.6,260.6a2.78,2.78,0,0,0,3.2-2l3.8-16.7c.8-3.4-4.4-4.6-5.1-1.2l-3.8,16.7A2.54,2.54,0,0,0,555.6,260.6Z" transform="translate(0 0.1)"/><path class="peace-cls-1" d="M251,270a2.62,2.62,0,0,0,1,3.6c2,1.1,3.6,3,5.3,4.9,6,6.9,8.1,6.4,17.2,15.6,2.4,2.5,6.2-1.2,3.8-3.7a119.84,119.84,0,0,0-13-11.3C261.5,276.3,254,264.8,251,270Z" transform="translate(0 0.1)"/><path class="peace-cls-1" d="M320.6,293.9a3.14,3.14,0,0,0,2.6-5.2l-8.9-10.3c-2.7-3.1-7.5.9-4.8,4.1C319.2,293.7,318.9,293.8,320.6,293.9Z" transform="translate(0 0.1)"/><path class="peace-cls-1" d="M296.7,266a3.14,3.14,0,0,0,2.6-5.2l-23.6-27.5c-2.7-3.1-7.5.9-4.8,4.1C296.5,267.2,294.9,265.8,296.7,266Z" transform="translate(0 0.1)"/><path class="peace-cls-1" d="M288.9,304.4a2.57,2.57,0,0,0,.1,3.7l1.3,1.3c13.2,12.7,13.1,12.6,14.1,12.8a2.64,2.64,0,0,0,2.4-4.5c-4.7-4.3-9.4-8.8-14.1-13.4A2.78,2.78,0,0,0,288.9,304.4Z" transform="translate(0 0.1)"/><path class="peace-cls-1" d="M254.3,216.6a3.14,3.14,0,0,0,2.6-5.2l-15.1-17.6c-2.7-3.1-7.5.9-4.8,4.1C253.5,217.1,252.6,216.5,254.3,216.6Z" transform="translate(0 0.1)"/><path class="peace-cls-1" d="M168.4,276.9c2.5,1,4.7,2.9,7.1,4.9,8.3,7,10.7,6.1,22.9,15.4a3.14,3.14,0,1,0,3.8-5,147.54,147.54,0,0,0-17.2-11c-4.6-2.6-8.3-7.6-14.3-10a3.26,3.26,0,0,0-4.1,1.8A2.92,2.92,0,0,0,168.4,276.9Z" transform="translate(0 0.1)"/><path class="peace-cls-1" d="M217.9,311.1l1.8,1.3c18.5,13.2,17.8,12.5,18.8,12.6a3.12,3.12,0,0,0,2-5.7c-6.3-4.2-12.6-8.7-18.9-13.3a3.15,3.15,0,1,0-3.7,5.1Z" transform="translate(0 0.1)"/><path class="peace-cls-1" d="M199.7,342.5a2.67,2.67,0,0,0,1.8,3.3c3.6,1,7.6,5.2,11.4,6.3,5.6,1.3,13.9,10,15.8,4.7a2.63,2.63,0,0,0-1.6-3.4,26.87,26.87,0,0,1-5.3-2.8c-8.5-5.3-4.7-1.3-11.9-6.2C206.5,342.1,201,338.4,199.7,342.5Z" transform="translate(0 0.1)"/><path class="peace-cls-1" d="M352,197.5c1.8,3.7,7.5,1,5.6-2.8-4-8.3-8-16.2-12.1-24.5-1.8-3.7-7.5-1-5.6,2.8C344,181.1,348.1,189.3,352,197.5Z" transform="translate(0 0.1)"/><path class="peace-cls-1" d="M404.4,303.5a3.17,3.17,0,0,0,3.1-4.5c-16.4-34.3-27.3-57.3-39.3-82.4-1.8-3.7-7.5-1-5.7,2.7C405,308.5,401.8,303.3,404.4,303.5Z" transform="translate(0 0.1)"/><path class="peace-cls-1" d="M414.5,230.1c1.1,3.3,6.1,1.7,5-1.6-2.3-7.4-4.7-14.5-7-21.9-1.1-3.3-6.1-1.7-5,1.6C409.8,215.6,412.2,222.9,414.5,230.1Z" transform="translate(0 0.1)"/><path class="peace-cls-1" d="M401.9,188.8c.7,3.4,5.9,2.4,5.2-1.1a24,24,0,0,0-2.4-6.8,5.92,5.92,0,0,1-.9-2.2c.8-4.8-9-4.6-3.8,4.8A14,14,0,0,1,401.9,188.8Z" transform="translate(0 0.1)"/><path class="peace-cls-1" d="M442.6,321.3c1.7-.5,3.3-1.1,5-1.5-9.1-29.7-15.3-49.8-22-71.7-1-3.3-6.1-1.8-5,1.5C435.4,298.2,440.4,315.3,442.6,321.3Z" transform="translate(0 0.1)"/><path class="peace-cls-1" d="M330.9,234.1a2.63,2.63,0,0,0,2.8-4l-10.4-16.5c-1.9-3-6.3-.1-4.5,2.8C330.2,234.4,329.4,233.7,330.9,234.1Z" transform="translate(0 0.1)"/><path class="peace-cls-1" d="M330,150.9c1.4,3.9,7.3,1.8,5.9-2.1a22.06,22.06,0,0,0-3.5-6.8c-.8-1.1-2-2.4-2-3.2.2-5.6-11.5-4-3.6,6.3C327.8,146.2,328.7,147.4,330,150.9Z" transform="translate(0 0.1)"/><path class="peace-cls-1" d="M333.6,310.5l3.3,3.9c2.7,3.1,7.5-.9,4.8-4.1l-3.3-3.9C335.7,303.2,330.9,307.3,333.6,310.5Z" transform="translate(0 0.1)"/><path class="peace-cls-1" d="M427.3,125.3a3.28,3.28,0,0,0,2.8,2.6,3.08,3.08,0,0,0,3.3-3.7c-1.3-6.7-2.3-12.8-3.3-18.6-.7-4.1-6.9-3-6.2,1.1C424.9,112.4,426,118.5,427.3,125.3Z" transform="translate(0 0.1)"/><path class="peace-cls-1" d="M109.7,78.5a56.62,56.62,0,0,0-7.5,17.4c-1.1-.1-2.6.2-3.5-.5-1.1-.8-.7-2.4.1-3.7a5.09,5.09,0,0,0,.4-2.2c0-6.9,0-6.9,3.9-11.7l5.2-.3A4.4,4.4,0,0,0,109.7,78.5Z" transform="translate(0 0.1)"/><path class="peace-cls-1" d="M295.8,412.6c.1-.5,0-2.1.7-3s2.1-.7,3-1.4a39.47,39.47,0,0,0,3.6-3.5,21.54,21.54,0,0,1,1.9-2.2,1.73,1.73,0,0,1,1.8.3c.4.4.4,1.3.6,1.9a4.12,4.12,0,0,1-.3.8c-2,3.7-4,7.5-6.2,11a4.23,4.23,0,0,1-3,1.7C296.5,418.3,295.8,416.3,295.8,412.6Z" transform="translate(0 0.1)"/><path class="peace-cls-1" d="M206.8,462.4c2.5-2.4,4.7-4.5,6.5-6.2,2.1,1.3,3.5,2.3,5.2,3.3-.7.9-1.7,1.9-.7,3.6a3.1,3.1,0,0,1-1.2,2.4,7.3,7.3,0,0,1-3.8,1.1,6.27,6.27,0,0,1-3.2-1.5A13.49,13.49,0,0,1,206.8,462.4Z" transform="translate(0 0.1)"/><path class="peace-cls-1" d="M659.7,439.7c-.3-1.6-.3-3.3,1.4-4.2s2.8.5,3.9,1.5c1.6,1.4,3.1,2.9,4.6,4.4,1.4,1.3,1.9,3.6.9,4.8-1.3,1.4-2.8,1-4,0C664.3,444.2,662.2,442.1,659.7,439.7Z" transform="translate(0 0.1)"/><path class="peace-cls-1" d="M370.1,818.8c2.6-.1,4.6-.9,5.9-.1a26.75,26.75,0,0,1,5.9,5.3,2.75,2.75,0,0,1-.1,4c-1.2,1.2-2.3.9-3.5-.3-1.8-1.8-3.8-3.3-5.6-5.1C371.8,821.8,371.3,820.6,370.1,818.8Z" transform="translate(0 0.1)"/><path class="peace-cls-1" d="M754.8,468.5c-1.9-3.2-1.6-4.6,1.2-5.2,2.5-.6,4.8-1.3,6.8-3.2.9-.9,2.2-1.3,3.2,0a2.4,2.4,0,0,1-.5,3.5,28.15,28.15,0,0,1-5,3.5A39.63,39.63,0,0,1,754.8,468.5Z" transform="translate(0 0.1)"/><path class="peace-cls-1" d="M229.3,344.4c-1.6.2-3.3.8-4.6.4a7.76,7.76,0,0,0-5.8,0,4.17,4.17,0,0,1-2.7-.1c-1.1-.4-1.3-1.5-.5-2.6,2.7-3.7,10.7-3.5,13.3.4C229.1,342.8,229.1,343.3,229.3,344.4Z" transform="translate(0 0.1)"/><path class="peace-cls-1" d="M77.2,513.9c-2.4,3.2-5.1.2-7.5.8-1.6-2.4-.3-4.6.1-6.7.2-.7,1.6-1.8,2.1-1.6a7.53,7.53,0,0,1,3.5,2.6C76.4,510.3,76.7,512.2,77.2,513.9Z" transform="translate(0 0.1)"/><path class="peace-cls-1" d="M635,206.2c-2.2-1-4-1.9-6-2.8,1.6-1,2.4-2.6,2.3-5,0-1,1.5-2.1,2.3-3.2a10.13,10.13,0,0,1,2.2,2.9A8,8,0,0,1,635,206.2Z" transform="translate(0 0.1)"/><path class="peace-cls-1" d="M176.4,853.2c-1.1,1.1-2.2,2.1-3.2,3.3s-1.9,2.2-3,1.2a7,7,0,0,1-2.2-3.9,4.54,4.54,0,0,1,2-3.4C172.2,848.9,174.4,850,176.4,853.2Z" transform="translate(0 0.1)"/><path class="peace-cls-1" d="M118.5,165.6c.1,1.7.2,3.2.3,4.9a42.68,42.68,0,0,1-6.1,2.9c-.8.3-2.1-.4-2.7-1.1-.8-1,.3-3.9,1.7-4.6a35.8,35.8,0,0,1,3.5-1.1Z" transform="translate(0 0.1)"/><path class="peace-cls-1" d="M723.7,107.1a3.05,3.05,0,0,1,3.5,2.8c.2,2.2-2.5,5-4.8,5-1.3,0-2.9-1.7-3.1-3.1C719.1,109.7,721.4,107.2,723.7,107.1Z" transform="translate(0 0.1)"/><path class="peace-cls-1" d="M173.2,914c-2.4.1-5,1.2-6.1-2.1a4.91,4.91,0,0,1,.7-4.1c1.4-1.6,3.3-1,4.8.1C174.7,909.5,174.2,911.5,173.2,914Z" transform="translate(0 0.1)"/><path class="peace-cls-1" d="M426.5,553.5c.2-2.9,3.2-7.1,5.4-7.4a2.43,2.43,0,0,1,2.1.9,3.57,3.57,0,0,1,.1,2.5C433,552.8,430.2,554.2,426.5,553.5Z" transform="translate(0 0.1)"/><path class="peace-cls-1" d="M686.5,930.2c-2.6-.2-3.4-2-3.7-3.9-.2-.9.5-2.6,1.1-2.8a17.05,17.05,0,0,1,5.1-.9,2,2,0,0,1,1.4,1.3c.1.8-.3,2.2-.6,2.3C687.6,926.5,687,928.5,686.5,930.2Z" transform="translate(0 0.1)"/><path class="peace-cls-1" d="M576.2,42.2c2.6.5,4.3-4,7.3-1.1.6-1.3,1-2.1,1.7-3.6l3.8,3.8c-2.4.5-4,.3-5.6,1.3-1.4.9-3.6.2-4.9,2.3a36.5,36.5,0,0,1-3.6,4.4c-1.2-2-.2-2.4.6-3.2C576,45.6,575.9,44.1,576.2,42.2Z" transform="translate(0 0.1)"/><path class="peace-cls-1" d="M200.6,660c1.9-1.7,3.6-3.3,5.4-4.7.8-.6,2.2-1.2,2.8-.8,1.3.8.7,2.3.1,3.6-1,2.5-3.4,4.3-5.6,4.1C201.9,662.1,200.7,661.6,200.6,660Z" transform="translate(0 0.1)"/><path class="peace-cls-1" d="M954.1,463.8c-3.2,2.4-5-.6-7.1-2.2.5-3.6,1.2-4.6,2.9-4.5C952.6,457.2,953.7,459,954.1,463.8Z" transform="translate(0 0.1)"/><path class="peace-cls-1" d="M404.1,998.8c-1.8-4.1-1.8-4.4,1-6.7a37.59,37.59,0,0,1,4.4-3C410,994.4,408.4,997.1,404.1,998.8Z" transform="translate(0 0.1)"/><path class="peace-cls-1" d="M434.9,292.9c3.6,2.8,4.1,7.3,1.4,9.3-1.2,1-2.6.7-3-.6a15,15,0,0,1-.3-5.6C433.2,294.8,434.3,293.9,434.9,292.9Z" transform="translate(0 0.1)"/><path class="peace-cls-1" d="M212.5,774.7a20.33,20.33,0,0,1-2.8-3.6,4.69,4.69,0,0,1,0-3.3c.7-1.8,2.4-1.6,3.9-1.4s1.5,1.4,1.6,2.7C215.3,772.1,215,772.9,212.5,774.7Z" transform="translate(0 0.1)"/><path class="peace-cls-1" d="M263,957.1c.6-1.5,1.1-3.2,1.8-4.8s1.9-2.7,3.6-1.7,1.1,2.5.4,3.9a18.63,18.63,0,0,1-1.9,3.4C265.6,959.2,264.2,959.3,263,957.1Z" transform="translate(0 0.1)"/><path class="peace-cls-1" d="M978.8,947c-.7.7-1.9,2.5-2.5,2.3a22.78,22.78,0,0,1-5-3.3c-.2-.1.1-1.5.4-2,1.1-1.4,5.7-.7,6.6,1A18.21,18.21,0,0,1,978.8,947Z" transform="translate(0 0.1)"/><path class="peace-cls-1" d="M435.9,832.5c-.4,1.8-.6,3-.9,4.1-.5,1.5-1.3,2.7-3,2.2a3.81,3.81,0,0,1-2.6-4.1,5.06,5.06,0,0,1,1.7-2.2,2.73,2.73,0,0,1,1.6-.2A24.52,24.52,0,0,0,435.9,832.5Z" transform="translate(0 0.1)"/><path class="peace-cls-1" d="M478.1,268.9c-.7,2-.9,3.6-1.7,4.7a3,3,0,0,1-2.8.7c-.5-.1-.9-1.7-.8-2.5a13.12,13.12,0,0,1,.9-3.4c.4-1.5,1.4-2.5,2.7-1.9C477.1,266.8,477.6,268.2,478.1,268.9Z" transform="translate(0 0.1)"/><path class="peace-cls-1" d="M808.8,205.7c.9-3.2-.6-4.8-2.9-6.2,1.4-1.4,2.4-2.5,3.6-3.7,2.1,2,2.3,4.7,2.7,7.1C812.4,204.2,811.2,205.5,808.8,205.7Z" transform="translate(0 0.1)"/><path class="peace-cls-1" d="M754.1,19.7c-1.5-.8-2.9-1.5-4.1-2.3a2.2,2.2,0,0,1-.1-3.7,3.38,3.38,0,0,1,4.5-.2C755.9,15.1,755.8,16.7,754.1,19.7Z" transform="translate(0 0.1)"/><path class="peace-cls-1" d="M83.5,189.4c-2.3-5.6-1.7-7.2,3-8C87.9,186.1,87.2,188.1,83.5,189.4Z" transform="translate(0 0.1)"/><path class="peace-cls-1" d="M382.2,346.6c-.5,1.3-.9,2.5-1.3,3.8-1.9-1.2-3.8-2.3-5.5-3.5a2.21,2.21,0,0,1-.6-1.9c.2-.6,1.1-1.3,1.4-1.2C378.2,344.3,380.6,343.8,382.2,346.6Z" transform="translate(0 0.1)"/><path class="peace-cls-1" d="M232.7,167.4a3.78,3.78,0,0,1-3.6-3.6,3.07,3.07,0,0,1,3-3,3,3,0,0,1,2.5,3.5C234.5,166,233.9,167.3,232.7,167.4Z" transform="translate(0 0.1)"/><path class="peace-cls-1" d="M306.6,338.4c.5-4.9,3.1-7.3,6-6.2a2.43,2.43,0,0,1,1.3,1.5,2.14,2.14,0,0,1-.9,1.8C311.1,336.5,309.1,337.3,306.6,338.4Z" transform="translate(0 0.1)"/><path class="peace-cls-1" d="M133.7,102.4c-.4-.5-1.7-1.2-1.9-2.2-.4-1.7,2.3-4.5,4-4.2a2.72,2.72,0,0,1,1.7,1.9C137.7,100,135.8,102.5,133.7,102.4Z" transform="translate(0 0.1)"/><path class="peace-cls-1" d="M356.5,89.4c-1.4.2-2.6.3-3.9.5-.2.9-.4,1.9-.7,3.5-.9-.9-1.5-1.7-2.2-1.9s-1.3.5-2.5,1.1c1-4.2,4-4.9,6.3-6.2C354.4,85.9,356.1,86.9,356.5,89.4Z" transform="translate(0 0.1)"/><path class="peace-cls-1" d="M715.9,533.7c-2.5.5-3.4-1.6-5-3,1-1.4,1.8-2.7,2.7-3.9C716.6,528.6,716.6,528.6,715.9,533.7Z" transform="translate(0 0.1)"/><path class="peace-cls-1" d="M986.6,366.1c-2.2-.3-2.4-2-2.7-3.6-.4-1.8,0-3.3,1.5-4.2a1.92,1.92,0,0,1,1.7.6,6.49,6.49,0,0,1,.9,5.9C987.7,365.5,987,365.8,986.6,366.1Z" transform="translate(0 0.1)"/><path class="peace-cls-1" d="M767.4,838.9c-1.6.1-3.5,1-4.2-1.2a5.24,5.24,0,0,1,1.1-3.9c.4-.6,2.1-.6,2.9-.1C769.1,835.1,767.9,837,767.4,838.9Z" transform="translate(0 0.1)"/><path class="peace-cls-1" d="M327.3,818.9c2.4,3.2,2.8,4.8,1.4,5.8a2.78,2.78,0,0,1-4.2-.8C323.6,822.1,324.3,820.7,327.3,818.9Z" transform="translate(0 0.1)"/><path class="peace-cls-1" d="M394,146.8c-.7-2.3-.5-4.2,1.3-4.4,1-.2,2.3,1,3.2,2,.7.7.8,2.1,1.5,4.2C397.5,147.8,395.8,147.4,394,146.8Z" transform="translate(0 0.1)"/><path class="peace-cls-1" d="M435.4,792.9c-2.4,0-4.5-1.8-4.4-3.4a2.33,2.33,0,0,1,2.2-2.6c1.3-.1,3.5,2.3,3.3,3.8A5.67,5.67,0,0,1,435.4,792.9Z" transform="translate(0 0.1)"/><path class="peace-cls-1" d="M645.3,576.2c4.1-.2,4.7.5,4.3,5.1-1.2.2-2.4.5-3.6.7A4.6,4.6,0,0,1,645.3,576.2Z" transform="translate(0 0.1)"/><path class="peace-cls-1" d="M472.3,866.5c.2-.8.2-1.1.3-1.1,2.1,0,4.3,0,6.4.2.3,0,.8,1.1.7,1.4a6,6,0,0,1-1.7,2.8c-.6.4-1.8-.1-2.5-.6s-.8-1.5-1.4-2A11.32,11.32,0,0,0,472.3,866.5Z" transform="translate(0 0.1)"/><path class="peace-cls-1" d="M965.4,146.5c.6-1.8,1.2-3.6,1.8-5.5,1.9-.6,3.5-.3,3.6,2.1.1,1.1-.9,2.6-1.8,3.4s-2,.8-3,1.2A13.39,13.39,0,0,0,965.4,146.5Z" transform="translate(0 0.1)"/><path class="peace-cls-1" d="M988.9,4.2c-1.1.3-2.3.9-3.4.7a3.67,3.67,0,0,1-2.2-2.2,2.73,2.73,0,0,1,.4-2.4,3.3,3.3,0,0,1,2.9-.1A12.39,12.39,0,0,1,989.4,3C989.2,3.4,989.1,3.8,988.9,4.2Z" transform="translate(0 0.1)"/><path class="peace-cls-1" d="M753.6,93.5c-.1,1.5-1.6,2.4-3.4,2.3s-2.3-1.1-2.2-3,1.1-2.6,2.7-2.4A3.14,3.14,0,0,1,753.6,93.5Z" transform="translate(0 0.1)"/><path class="peace-cls-1" d="M983.4,984.2c-.1,1.8-1.4,2.2-2.8,2.3-1.2,0-2.5-.1-2.7-2a3.56,3.56,0,0,1,2.5-3.6C981.9,980.7,983.3,982.2,983.4,984.2Z" transform="translate(0 0.1)"/><path class="peace-cls-1" d="M156.5,507.8c-1.7.5-2.7,1.1-3.7,1s-2.6-.8-2.6-1.3a5.39,5.39,0,0,1,1.3-3.5c.5-.5,2.1-.2,2.9.3S155.5,506.2,156.5,507.8Z" transform="translate(0 0.1)"/><path class="peace-cls-1" d="M532.1,154.4c0-2.5,1.3-3.6,3.1-3.6,1.4,0,3.1,1.6,2.5,2.7a5.76,5.76,0,0,1-3.2,2.8C533.8,156.5,532.7,154.9,532.1,154.4Z" transform="translate(0 0.1)"/><path class="peace-cls-1" d="M684.4,663.8a7.71,7.71,0,0,1-1.2-2.4c-.1-2.1,1.4-4.3,2.6-3.8a5.17,5.17,0,0,1,2.3,2.7C688.5,661.5,686.4,663.8,684.4,663.8Z" transform="translate(0 0.1)"/><path class="peace-cls-1" d="M960.5,555.1c1.8,3.8,1.8,3.8-3.9,7a30.3,30.3,0,0,1-2.3-2.6c-.2-.3.1-1.1.4-1.5a.87.87,0,0,1,1-.1C959.1,559.5,959.1,559.6,960.5,555.1Z" transform="translate(0 0.1)"/><path class="peace-cls-1" d="M968.9,499.1c-.3,1.1-.3,2.2-.8,2.6a21.21,21.21,0,0,1-4.7,2.5c-.5.2-1.3-.6-2-.9.3-.6.4-1.6.8-1.9C964.2,500.3,966.1,498.7,968.9,499.1Z" transform="translate(0 0.1)"/><path class="peace-cls-1" d="M906.8,786.7a20.44,20.44,0,0,1,3.7,1.5,3,3,0,0,1,1.3,2.4c0,.6-1.1,1.4-1.8,1.7a8.16,8.16,0,0,1-2.8.1c-.5-1.8-1-3.5-1.4-5.2A3.13,3.13,0,0,1,906.8,786.7Z" transform="translate(0 0.1)"/><path class="peace-cls-1" d="M529.9,411.3c-1.2-2-2.3-3.7-3.2-5.4-.6-1.2.3-2.6,1.5-2.2a4.61,4.61,0,0,1,2.8,2.1C532,407.4,532.2,409.4,529.9,411.3Z" transform="translate(0 0.1)"/><path class="peace-cls-1" d="M879.9,504.2c2.1-2,4.3-1.5,6.6-.8.3,2.2-.6,3.3-2.3,3.7S880.7,507,879.9,504.2Z" transform="translate(0 0.1)"/><path class="peace-cls-1" d="M390.6,11.8c2.8,2.4,2.8,2.4,3.6,8.9-.7-.1-1.7,0-1.7-.2C391.9,17.7,388.5,15.8,390.6,11.8Z" transform="translate(0 0.1)"/><path class="peace-cls-1" d="M365.6,373.3c2.1-4.8,4.5-6.9,7.2-6.6-.9,2.9-2.9,4.6-4.7,6.5C367.7,373.7,366.7,373.3,365.6,373.3Z" transform="translate(0 0.1)"/><path class="peace-cls-1" d="M870.7,134.5c-.5-2.5-.5-4.4,1.3-5.6,1.4-1,2.5-.5,3.6,1.1C874.6,131.9,873.8,134.4,870.7,134.5Z" transform="translate(0 0.1)"/><path class="peace-cls-1" d="M899.9,174.5c-1.8,0-3.9-3.1-3.6-4.6,0-.1.1-.4.2-.4.7-.3,1.5-.8,2.1-.7,1.7.5,3,2.6,2.6,4A6.25,6.25,0,0,1,899.9,174.5Z" transform="translate(0 0.1)"/><path class="peace-cls-1" d="M229.4,455.9l-4.8,2.4c.4.6-1.5-.1-.6-2.3.5-1.1,1.7-2.3,2.6-2.3S228.5,455.2,229.4,455.9Z" transform="translate(0 0.1)"/><path class="peace-cls-1" d="M204.4,77.7c1.9,2.1,1.6,3.4-1.4,7.3-.9-.8-1.8-1.6-3.2-2.8a22.5,22.5,0,0,0,2.9-1.8A9.66,9.66,0,0,0,204.4,77.7Z" transform="translate(0 0.1)"/><path class="peace-cls-1" d="M634.1,325.5c-3-.3-4-1.3-3.7-3.7.2-1.7,1.2-2.4,2.6-2C634.6,320.2,635,322,634.1,325.5Z" transform="translate(0 0.1)"/><path class="peace-cls-1" d="M673,552.9a2.53,2.53,0,0,1-2.5-3.1c.2-1.5.9-2.6,2.4-2.3,1.3.2,2.5.4,2.2,2.4C674.9,551.4,674.5,552.9,673,552.9Z" transform="translate(0 0.1)"/><path class="peace-cls-1" d="M81.9,848.2c1.1.4,2.4.5,3.3,1.2a4,4,0,0,1,1,2.9c0,.4-1.5,1.1-2.2,1C81.2,853,80.8,851.9,81.9,848.2Z" transform="translate(0 0.1)"/><path class="peace-cls-1" d="M942.2,942.8c-1-.4-2.2-.6-2.8-1.4a5.21,5.21,0,0,1-.7-3.3,2.36,2.36,0,0,1,1.5-1.7,2.06,2.06,0,0,1,1.9,1.2,27.2,27.2,0,0,1,.9,4.3A6.47,6.47,0,0,1,942.2,942.8Z" transform="translate(0 0.1)"/><path class="peace-cls-1" d="M162.2,775c2.6.2,5.1,2.9,5.9,6.1C165.6,779.7,162.1,780,162.2,775Z" transform="translate(0 0.1)"/><path class="peace-cls-1" d="M199.4,101c1-.4,2.2-1.2,3-1s1.3,1.7,1.7,2.7c.2.5-.1,1.8-.5,1.9a2.82,2.82,0,0,1-2.2-.1,15.86,15.86,0,0,1-2.7-1.8A8.65,8.65,0,0,0,199.4,101Z" transform="translate(0 0.1)"/><path class="peace-cls-1" d="M113.3,996.2c2.8-1.4,4.8.5,6.8.5a4.13,4.13,0,0,1,.2,2.3c-.5.6-1.7,1.3-2.3,1C116.6,999.1,115.3,997.8,113.3,996.2Z" transform="translate(0 0.1)"/><path class="peace-cls-1" d="M256.9,323.6c-2.8-.5-4.8-.8-7-1.2.4-2.4,1.2-3.3,2.8-3.1C254.7,319.5,256,320.3,256.9,323.6Z" transform="translate(0 0.1)"/><path class="peace-cls-1" d="M684.4,145.3c.3-.3.8-1.2,1.4-1.4,1.2-.3,3.3,2.5,3,4.2a2.92,2.92,0,0,1-1.7,1.9C685.9,150.3,684.3,147.7,684.4,145.3Z" transform="translate(0 0.1)"/><path class="peace-cls-1" d="M347.2,989.3c1.6-2.7,3-5.1,4.3-7.4.2.1.4.1.6.2a15.52,15.52,0,0,1-.4,2.1,10.88,10.88,0,0,0-.7,2.4C351.2,990.7,351.2,990.7,347.2,989.3Z" transform="translate(0 0.1)"/><path class="peace-cls-1" d="M410,742.8a12.65,12.65,0,0,1-2-3.1,4.12,4.12,0,0,1,.6-2.8,1.54,1.54,0,0,1,1.7-.3,3.76,3.76,0,0,1,1,2.2,25.31,25.31,0,0,1-.3,3.8A3,3,0,0,1,410,742.8Z" transform="translate(0 0.1)"/><path class="peace-cls-1" d="M905.8,48.5c-.4-.4-1.7-1.1-1.9-2.1-.3-1.8,1.2-2.5,2.6-2.7s2.3.6,2.3,2.3C908.8,47.5,907.9,48.4,905.8,48.5Z" transform="translate(0 0.1)"/><path class="peace-cls-1" d="M700.3,907.8c-3.4-3.2-3.4-3.3-.7-6.3C702.7,904.4,702.8,904.8,700.3,907.8Z" transform="translate(0 0.1)"/><path class="peace-cls-1" d="M702.4,661.7c1.2-2.3,1.6-4.8,4-5.7,2.2,1.4.7,3.1.2,4.6C706,662.7,704.5,662.4,702.4,661.7Z" transform="translate(0 0.1)"/><path class="peace-cls-1" d="M863.5,88.8c-.9-2.5-4.8-3.8-2.1-7.5,2,1.4,2.1,3.8,2.8,5.7C864.3,87.4,863.7,88.2,863.5,88.8Z" transform="translate(0 0.1)"/><path class="peace-cls-1" d="M193.2,510.9c-1.1-1.8-2-2.7-2.2-3.8-.4-1.4,1.1-3.1,2-2.6a4.68,4.68,0,0,1,2,2.9C195.1,508.2,194.1,509.2,193.2,510.9Z" transform="translate(0 0.1)"/><path class="peace-cls-1" d="M390.9,961.7c1.2,1.9,1.6,3.3-.1,4.5s-2.9.7-4-1.2c.2-.2.3-.5.5-.7C388.4,963.4,389.5,962.7,390.9,961.7Z" transform="translate(0 0.1)"/><path class="peace-cls-1" d="M219.7,885.6a42.07,42.07,0,0,1-2.8-4.3c-.1-.1,1.3-1.7,1.9-1.6,1.2.2,2.9.4,2.8,2.5C221.5,883.1,220.7,884,219.7,885.6Z" transform="translate(0 0.1)"/><path class="peace-cls-1" d="M722.7,324.7c.5-.6,1.2-2.1,2-2.2,1.6-.2,1.7,1.6,1.7,3s.1,3-1.6,3.1C722.9,328.7,723,326.9,722.7,324.7Z" transform="translate(0 0.1)"/><path class="peace-cls-1" d="M869.5,493.5c.7,3.3.8,6.3-2,9.6C868.6,499.4,865.3,495.8,869.5,493.5Z" transform="translate(0 0.1)"/><path class="peace-cls-1" d="M431.2,234.2c-2-1.4-2.8-2.9-1.2-4.7a1.8,1.8,0,0,1,3.1.4C434.5,232.2,432.6,233,431.2,234.2Z" transform="translate(0 0.1)"/><path class="peace-cls-1" d="M615.5,323c-.9-1.9-1.7-3.1-1.9-4.3-.1-.5,1-1.8,1.6-1.8,1.5.1,2.3,1.4,2.2,3C617.2,320.8,616.4,321.5,615.5,323Z" transform="translate(0 0.1)"/><path class="peace-cls-1" d="M911.6,766.8a25.13,25.13,0,0,1-1.7,4.5c-.3.5-1.8.9-2,.6a3.17,3.17,0,0,1-.7-2.6C907.6,767.6,908.7,766.2,911.6,766.8Z" transform="translate(0 0.1)"/><path class="peace-cls-1" d="M844.7,189.4l-1.8,4.8c-2.3-.8-2.5-2.4-1.8-3.8.4-.9,1.6-1.4,2.4-2.1A6.28,6.28,0,0,1,844.7,189.4Z" transform="translate(0 0.1)"/><path class="peace-cls-1" d="M795.3,14.2c-1.7,2.3-3.2,2.1-4.6.5a3.63,3.63,0,0,1-.2-2.7,2,2,0,0,1,2.3-.5C793.8,12,794.5,13.2,795.3,14.2Z" transform="translate(0 0.1)"/><path class="peace-cls-1" d="M590.4,690.4c-.4,1.9-.6,3.2-.9,4.6-1.9-.2-3.9.1-3.6-2.6C586.1,689.9,588.1,690.6,590.4,690.4Z" transform="translate(0 0.1)"/><path class="peace-cls-1" d="M455.1,481.8c.8-3.2,2.2-4.6,3.6-3.8a3.81,3.81,0,0,1,1.4,2.8C459,483.5,457.2,481.2,455.1,481.8Z" transform="translate(0 0.1)"/><path class="peace-cls-1" d="M738.7,305.3c1-1.7,2.4-2.3,3.3-.8.6,1,.2,2.8.1,4.2,0,.1-1.7.5-1.9.1A13.7,13.7,0,0,1,738.7,305.3Z" transform="translate(0 0.1)"/><path class="peace-cls-1" d="M224.9,817.6c-1.3,3.4-3.5,1.5-5.4,2.1C220.5,815.4,220.7,815.3,224.9,817.6Z" transform="translate(0 0.1)"/><path class="peace-cls-1" d="M644.5,856a9.17,9.17,0,0,1-2.2,2.2c-.6.3-1.6-.1-2.3-.2.3-1,.3-2.6.9-3,.8-.6,2.1-.2,3.2-.3C644.2,855.2,644.4,855.6,644.5,856Z" transform="translate(0 0.1)"/><path class="peace-cls-1" d="M113.5,394.4a18.8,18.8,0,0,1,.9-4.3c.2-.4,1.7-.4,2.5-.1,1.4.6,1.5,2,.2,3a10.91,10.91,0,0,1-1.1.6C115.5,393.8,114.8,394,113.5,394.4Z" transform="translate(0 0.1)"/><path class="peace-cls-1" d="M875,364.2c-1.2,1.2-1.8,2.3-2.4,2.3a2.45,2.45,0,0,1-2.8-2.4c0-.7,1.1-2,1.5-1.9A20,20,0,0,1,875,364.2Z" transform="translate(0 0.1)"/><path class="peace-cls-1" d="M837.7,66c2.5-.6,4.1-.6,4.5,1.8a2.91,2.91,0,0,1-1.5,2.2C838.4,70.2,838.5,68,837.7,66Z" transform="translate(0 0.1)"/><path class="peace-cls-1" d="M893.7,461.1c-1.6-1.9-2-3.4-.8-4.6s2.4-.7,3.7,1.1C895.8,458.7,894.8,459.8,893.7,461.1Z" transform="translate(0 0.1)"/><path class="peace-cls-1" d="M986,679l-1.2,3c-2.4-.9-2.4-.9-3.4-3.3,1.4-.3,2.7-.5,4-.8A10.91,10.91,0,0,1,986,679Z" transform="translate(0 0.1)"/><path class="peace-cls-1" d="M475.5,238.2c.1,1.1.2,2.2.4,3.7-.8.2-1.6.6-2,.4-.8-.6-1.9-1.7-1.8-2.5C472.4,237.9,473.8,237.6,475.5,238.2Z" transform="translate(0 0.1)"/><path class="peace-cls-1" d="M915.8,558.4c1.1-.7,2.2-1.3,3.8-2.3.1,2.1.2,3.4.3,5.3-1.6-.6-2.7-1.1-3.9-1.6A6.75,6.75,0,0,0,915.8,558.4Z" transform="translate(0 0.1)"/><path class="peace-cls-1" d="M352.8,299.4c1.3-2.9,2.8-3.7,5.2-2.4C357.1,300.2,355.4,300.3,352.8,299.4Z" transform="translate(0 0.1)"/><path class="peace-cls-1" d="M991,652.8c-.4-1.7-.9-3.3-1.2-5-.1-.5.6-1.2.9-1.8.6.5,1.6.9,1.6,1.5a46.08,46.08,0,0,1-.2,5.2C991.7,652.7,991.3,652.8,991,652.8Z" transform="translate(0 0.1)"/><path class="peace-cls-1" d="M949.6,33.9c1.1-1,1.7-1.9,2.4-2,1.4-.3,2.3.9,2.1,2.4-.1.8-1.2,2.2-1.5,2.1A24.42,24.42,0,0,1,949.6,33.9Z" transform="translate(0 0.1)"/><path class="peace-cls-1" d="M898.9,86.1c1.3,1.6,2.3,2.6,3,3.7a1.94,1.94,0,0,1-.3,1.6,1.44,1.44,0,0,1-1.4.3C898.7,91.2,898.2,89.6,898.9,86.1Z" transform="translate(0 0.1)"/><path class="peace-cls-1" d="M717.5,180c1,1.2,2.8,1.9,1.4,4-.8,1.2-1.9.9-2.7-.2C714.7,181.7,716.1,181,717.5,180Z" transform="translate(0 0.1)"/><path class="peace-cls-1" d="M219.3,586.3c1.2-1,1.8-1.8,2.5-2,1.1-.4,2.4,0,2.3,1.5,0,.8-1.2,1.8-2,2.1C221.5,588,220.6,587.1,219.3,586.3Z" transform="translate(0 0.1)"/><path class="peace-cls-1" d="M77.7,775.5c-1.6,1.3-2.9,2.3-4.2,3.3-1.4-1.5-1.3-2.6-.3-3.4S75.6,773.3,77.7,775.5Z" transform="translate(0 0.1)"/><path class="peace-cls-1" d="M566.8,498.8c-.8-1.2-1.8-1.9-1.9-2.9-.1-.6,1-1.4,1.5-2.1a19.34,19.34,0,0,1,2.2,2.8C568.7,496.8,567.7,497.7,566.8,498.8Z" transform="translate(0 0.1)"/><path class="peace-cls-1" d="M988.3,593.1c-.5-1.7-1-3.4-1.5-5.4C990.6,588.5,991,589.5,988.3,593.1Z" transform="translate(0 0.1)"/><path class="peace-cls-1" d="M182,644.1c-1.2-.8-2-1-2-1.3-.1-1.9-.1-3.9-.1-6.5C183.3,638.5,181.7,641.1,182,644.1Z" transform="translate(0 0.1)"/><path class="peace-cls-1" d="M142.5,214.9c-4.2-.1-4.4-.5-2.6-3.7C140.8,212.5,141.6,213.7,142.5,214.9Z" transform="translate(0 0.1)"/><path class="peace-cls-1" d="M616.3,478.1c-.8-1.1-1.6-2.2-3.1-4.3,1.9-.1,3.4-.6,3.6-.2a15.09,15.09,0,0,1,.9,3.8A6.11,6.11,0,0,0,616.3,478.1Z" transform="translate(0 0.1)"/><path class="peace-cls-1" d="M878.9,257c-1.5-.9-2.7-1.8-1.5-3.8a2.08,2.08,0,0,1,2.1-.4C881,254.3,880.4,255.7,878.9,257Z" transform="translate(0 0.1)"/><path class="peace-cls-1" d="M990.5,662.6c.6,3.4-1.9,3.9-2.8,5.7C986,666.2,986,666.2,990.5,662.6Z" transform="translate(0 0.1)"/><path class="peace-cls-1" d="M875.8,89.2c1.8-.9,3.3-1.5,4.1.8a2.35,2.35,0,0,1-.8,2.1C877.2,93,876.2,91.8,875.8,89.2Z" transform="translate(0 0.1)"/><path class="peace-cls-1" d="M613.3,215.2c2.1.6,2.8,1.9,2.2,3.7-.1.4-1.5.8-2,.5C611.9,218.4,612.2,216.9,613.3,215.2Z" transform="translate(0 0.1)"/><path class="peace-cls-1" d="M861.3,333a37.81,37.81,0,0,1-2.4-3.2c-.1-.1,1.2-1.6,1.4-1.5a6,6,0,0,1,2.2,2C862.7,330.6,861.9,331.7,861.3,333Z" transform="translate(0 0.1)"/><path class="peace-cls-1" d="M252.2,1.8c.4,2.7-.8,3.2-2.1,3.2s-2-1.3-1.7-3.2Z" transform="translate(0 0.1)"/><path class="peace-cls-1" d="M620.8,822.9c-.3,2.6-1.5,3.2-3.1,2.7-.5-.1-1.1-1.6-.9-2C617.8,822.1,619.2,822.3,620.8,822.9Z" transform="translate(0 0.1)"/><path class="peace-cls-1" d="M620.9,640.7a12.72,12.72,0,0,1-1.7-2.5,12,12,0,0,1,2.6-2.4c.1-.1,1.2,1.1,1.1,1.4A18.87,18.87,0,0,1,620.9,640.7Z" transform="translate(0 0.1)"/><path class="peace-cls-1" d="M206.3,679.4c1-.7,1.6-1.4,2.1-1.4,1.2.1,2.6.5,2.5,2.2,0,.6-1.2,1.7-1.6,1.6A11.59,11.59,0,0,1,206.3,679.4Z" transform="translate(0 0.1)"/><path class="peace-cls-1" d="M989.5,769.7c-1.7-1.8-1.7-3.3-.4-4.6.3-.3,1.7,0,2,.5C992.3,767.6,990.8,768.4,989.5,769.7Z" transform="translate(0 0.1)"/><path class="peace-cls-1" d="M902.3,67.2a15.1,15.1,0,0,1-1.3-3.4c0-.4,1-1,1.5-1.4a14.65,14.65,0,0,1,1.4,2.8C904,65.5,903.2,66.1,902.3,67.2Z" transform="translate(0 0.1)"/><path class="peace-cls-1" d="M891.1,685.7c.3-2,.6-3.7,2.4-3.3a2.71,2.71,0,0,1,1.1,2.3C894.1,686.6,892.7,686.1,891.1,685.7Z" transform="translate(0 0.1)"/><path class="peace-cls-1" d="M389.9,119.1c-1,1.3-1.8,2.9-3.3,1.5a3,3,0,0,1,0-2.6C387.8,116.5,388.9,117.2,389.9,119.1Z" transform="translate(0 0.1)"/><path class="peace-cls-1" d="M721.9,132.6c.5,1.8.8,3.4-1.3,3.8a2.14,2.14,0,0,1-1.7-1.2C718.8,133,720.1,132.5,721.9,132.6Z" transform="translate(0 0.1)"/><path class="peace-cls-1" d="M573.3,483.9c1.4-.7,2.2-1.4,2.9-1.4.5,0,1,1,1.5,1.6-.6.6-1.1,1.8-1.7,1.8S574.6,485,573.3,483.9Z" transform="translate(0 0.1)"/><path class="peace-cls-1" d="M526.4,181.5c1.1-1,1.7-1.9,2.2-1.9.8.1,1.5.9,2.2,1.4-.6.7-1.1,1.8-1.7,1.9S527.7,182.2,526.4,181.5Z" transform="translate(0 0.1)"/><path class="peace-cls-1" d="M261.3,40.1c1.3-.8,2.4-1.4,3.5-2,1.1,1.6.8,2.8-.3,3.6S262.3,42.3,261.3,40.1Z" transform="translate(0 0.1)"/><path class="peace-cls-1" d="M76.9,777.4c1.1-.9,1.8-1.8,2.2-1.7a10.05,10.05,0,0,1,2.4,1.8c-.7.6-1.3,1.5-2,1.6S78,778.2,76.9,777.4Z" transform="translate(0 0.1)"/><path class="peace-cls-1" d="M998.4,499.4c-.8-1-1.7-1.8-1.6-2.2a2.78,2.78,0,0,1,1.7-1.8c.4-.1,1.6,1.1,1.5,1.4A11.43,11.43,0,0,1,998.4,499.4Z" transform="translate(0 0.1)"/><path class="peace-cls-1" d="M55.3,896.4c-1.2.2-2.4.4-3.7.6C52.2,893.2,52.5,893.1,55.3,896.4Z" transform="translate(0 0.1)"/><path class="peace-cls-1" d="M600.2,992.1c.7.9,1.4,1.9,2.1,2.8-1,1.9-2.1,1.8-3,.6S598.5,993,600.2,992.1Z" transform="translate(0 0.1)"/><path class="peace-cls-1" d="M979.5,617.7a12.18,12.18,0,0,1,0-2.7c.3-1.1,1.3-1.8,2.1-.8.4.4.2,1.5.1,2.3a7.22,7.22,0,0,1-.9,2A7.38,7.38,0,0,0,979.5,617.7Z" transform="translate(0 0.1)"/><path class="peace-cls-1" d="M849.1,207.9c-1.9,1.2-3.4,2.1-5.4,3.3C845.4,207,846.7,206.2,849.1,207.9Z" transform="translate(0 0.1)"/><path class="peace-cls-1" d="M623.2,981.6c-.9-2.9.3-3.6,2.2-4.1C626.1,979.8,625.5,981,623.2,981.6Z" transform="translate(0 0.1)"/><path class="peace-cls-1" d="M970.1,694.8c.6,1.1,1.4,1.8,1.4,2.4s-1,1.5-1.5,1.4a2.69,2.69,0,0,1-1.4-1.7C968.6,696.4,969.4,695.7,970.1,694.8Z" transform="translate(0 0.1)"/><path class="peace-cls-1" d="M467.5,277.3c-.9.9-1.6,2-1.9,1.9a3.72,3.72,0,0,1-1.7-1.8c-.1-.4.8-1.7,1.3-1.7S466.5,276.5,467.5,277.3Z" transform="translate(0 0.1)"/><path class="peace-cls-1" d="M966.5,966.4c-.6-2.3.3-3.1,1.7-3.5.3-.1,1,.6,1,1C969.3,965.8,968.2,966.3,966.5,966.4Z" transform="translate(0 0.1)"/><path class="peace-cls-1" d="M985.5,570.7c1.8-2.1,3-2,4.2.2C988.3,573.1,987.1,572.6,985.5,570.7Z" transform="translate(0 0.1)"/><path class="peace-cls-1" d="M751.8,649.1c-.7-1.1-1.5-1.8-1.4-2.3a5.85,5.85,0,0,1,1.5-2.1c.6.6,1.6,1.2,1.6,1.9S752.6,648,751.8,649.1Z" transform="translate(0 0.1)"/><path class="peace-cls-1" d="M540.9,273.9c.6,1.2,1.4,2.1,1.2,2.5a2.78,2.78,0,0,1-1.9,1.6c-.4.1-1.5-1.3-1.3-1.7A9.67,9.67,0,0,1,540.9,273.9Z" transform="translate(0 0.1)"/><path class="peace-cls-1" d="M451.3,303.7c.6-.2,1.3-.8,1.7-.7a10.18,10.18,0,0,1,2.3,1.8c-.4.5-.8,1.6-1.1,1.5a8.53,8.53,0,0,1-2.5-1.3A9.29,9.29,0,0,0,451.3,303.7Z" transform="translate(0 0.1)"/><path class="peace-cls-1" d="M778.1,901.2c.3-.7.4-1.1.6-1.2,1-.6,2-1.8,3.1-.2.2.3.2,1.4-.1,1.6C780.5,902.6,779.3,902.6,778.1,901.2Z" transform="translate(0 0.1)"/><path class="peace-cls-1" d="M941.6,770.6c-.9-1-1.1-1.1-1.1-1.2-.4-1.3-.8-2.7.7-3.3.3-.1,1.3.5,1.2.7A19.94,19.94,0,0,1,941.6,770.6Z" transform="translate(0 0.1)"/><path class="peace-cls-1" d="M522.3,270.5c2,1.2,2.3,2.3,1.2,3.8-.3.4-1.1.7-1.3.5C520.5,273.5,521.6,272.2,522.3,270.5Z" transform="translate(0 0.1)"/><path class="peace-cls-1" d="M983.2,861.4c1.4,1.7,1.1,2.9.1,3.8-.5.5-1.4.4-2.2.6-.2-.3-.4-.7-.6-1C981.4,863.7,982.2,862.6,983.2,861.4Z" transform="translate(0 0.1)"/><path class="peace-cls-1" d="M979.8,199.5a11.3,11.3,0,0,1-1.7-2.7c-.1-.4.7-1.1,1-1.6a8.2,8.2,0,0,1,1.7,2C981,197.4,980.4,198.2,979.8,199.5Z" transform="translate(0 0.1)"/><path class="peace-cls-1" d="M913.7,791.5c.9-.9,1.4-1.8,1.7-1.7a8.58,8.58,0,0,1,2,1.3c-.3.6-.7,1.6-1,1.6C915.7,792.7,914.9,792.1,913.7,791.5Z" transform="translate(0 0.1)"/><path class="peace-cls-1" d="M62.5,784.1c-1.1.7-2.3,1.4-3.6,2.3a2.83,2.83,0,0,1,1.3-3.6c.6-.3,1.5.2,2.3.3A3.33,3.33,0,0,1,62.5,784.1Z" transform="translate(0 0.1)"/><path class="peace-cls-1" d="M921.1,288.9c-.9.6-1.6,1.4-1.8,1.2a4.42,4.42,0,0,1-1.5-2c-.1-.2,1-1.4,1.2-1.3A13.79,13.79,0,0,1,921.1,288.9Z" transform="translate(0 0.1)"/><path class="peace-cls-1" d="M787.6,707.4c-.6-1-1.3-1.7-1.3-2.3s.9-1.5,1.2-1.4a2.94,2.94,0,0,1,1.6,1.5C789.3,705.7,788.4,706.4,787.6,707.4Z" transform="translate(0 0.1)"/><path class="peace-cls-1" d="M791.3,390c2.8.5,2.5,2.1,1.6,4.3C790.7,393.5,790.9,392,791.3,390Z" transform="translate(0 0.1)"/><path class="peace-cls-1" d="M86.3,935.4c.2-1.3.5-2.6.8-4.4,2,2,1.4,3.4.4,4.7Z" transform="translate(0 0.1)"/><path class="peace-cls-1" d="M400.8,746.7c.9-.8,1.8-1.8,2-1.7a3.45,3.45,0,0,1,1.4,2.1c.1.4-1,1.7-1.3,1.5C402.2,748.4,401.7,747.5,400.8,746.7Z" transform="translate(0 0.1)"/><path class="peace-cls-1" d="M643.6,224.8c-.2,1.9-.8,3-2.3,2.6-.4-.1-.8-1.3-.7-1.8C641.2,223.8,642.2,223.7,643.6,224.8Z" transform="translate(0 0.1)"/><path class="peace-cls-1" d="M980,244.3c-1.5.3-3.1.7-5.3,1.1,1.6-3.1,3.8-1.4,5.1-3A11.08,11.08,0,0,0,980,244.3Z" transform="translate(0 0.1)"/><path class="peace-cls-1" d="M752.5,305.7c1.2-1.5,2.2-2.3,3.5-.8a1.81,1.81,0,0,1,.1,1.6C754.8,308,753.7,307.4,752.5,305.7Z" transform="translate(0 0.1)"/><path class="peace-cls-1" d="M898.1,203.5a10.69,10.69,0,0,1-2.2,1.9c-.2.1-1.1-.8-1.2-1.4-.3-1.3.4-2,1.5-1.9C896.7,202.2,897.1,202.8,898.1,203.5Z" transform="translate(0 0.1)"/><path class="peace-cls-1" d="M497.8,4.6c-.7.7-1.4,1.6-1.5,1.5a4.41,4.41,0,0,1-1.5-1.8c-.1-.3.7-1,1-1.5C496.4,3.3,496.9,3.8,497.8,4.6Z" transform="translate(0 0.1)"/><path class="peace-cls-1" d="M916.5,376.9c-1.8.2-2.7-.4-2.4-2.2.1-.4.7-1.1,1.1-1C916.7,373.9,916.9,375.1,916.5,376.9Z" transform="translate(0 0.1)"/><path class="peace-cls-1" d="M613.4,475c-.9.6-1.8,1.3-2.7,2-.2-.2-.5-.3-.7-.5a6.62,6.62,0,0,1,.7-2.6C611.6,472.9,612.6,473.2,613.4,475Z" transform="translate(0 0.1)"/><path class="peace-cls-1" d="M588.8,683.7c-.8-2.7-.3-3.7,1.2-3.8.4,0,.9.8,1.4,1.2C590.6,681.8,589.9,682.6,588.8,683.7Z" transform="translate(0 0.1)"/><path class="peace-cls-1" d="M318.4,225.5a18.41,18.41,0,0,1-2.5-.9c-.1,0,0-1.3.4-1.5,1.4-1,2.1,0,2.7,1.2A13.39,13.39,0,0,0,318.4,225.5Z" transform="translate(0 0.1)"/><path class="peace-cls-1" d="M658.1,981.2c-.7-.9-1.5-1.5-1.5-2.1s.8-1.2,1.3-1.8c.5.5,1.4,1,1.5,1.6S658.7,980.2,658.1,981.2Z" transform="translate(0 0.1)"/><path class="peace-cls-1" d="M297.5,474.2c-.8.8-1.3,1.3-1.8,1.9a5.5,5.5,0,0,1-1.3-1.8,2.05,2.05,0,0,1,1-1.5C296,472.9,296.5,473.6,297.5,474.2Z" transform="translate(0 0.1)"/><path class="peace-cls-1" d="M205,22.2a25.65,25.65,0,0,1-1.6,2.2c-.5-.6-1.4-1.1-1.4-1.7a2.44,2.44,0,0,1,1.3-1.7C203.6,20.9,204.3,21.7,205,22.2Z" transform="translate(0 0.1)"/><path class="peace-cls-1" d="M145.2,424.4a13.5,13.5,0,0,1-1.6-2.7c-.1-.1.8-.8,1.3-1.2a13,13,0,0,1,1.5,2.3A10,10,0,0,1,145.2,424.4Z" transform="translate(0 0.1)"/><path class="peace-cls-1" d="M130.9,80c-1.6,3.5-3.1,1.5-4.7.2C127.6,80.2,129.1,80.1,130.9,80Z" transform="translate(0 0.1)"/><path class="peace-cls-1" d="M780.7,68.7c.4-2.9.4-2.9,3.2-2C783.5,68.9,782.1,68.7,780.7,68.7Z" transform="translate(0 0.1)"/><path class="peace-cls-1" d="M159,542.7a7.69,7.69,0,0,1-2.1,1.6c-.2.1-1.1-1.1-1-1.5a2.1,2.1,0,0,1,1.3-1.3C157.6,541.4,158.2,542.1,159,542.7Z" transform="translate(0 0.1)"/><path class="peace-cls-1" d="M600.9,905.8c.6,1,1.3,1.7,1.2,2.3a2,2,0,0,1-1.5,1.3c-.4,0-1.3-1.1-1.2-1.5C599.5,907.2,600.2,906.7,600.9,905.8Z" transform="translate(0 0.1)"/><path class="peace-cls-1" d="M218.7,492.4c-.6-1.2-1.4-2-1.2-2.4.2-.7,1.1-1,1.6-1.6.4.6,1,1.2,1,1.6C220,490.7,219.4,491.3,218.7,492.4Z" transform="translate(0 0.1)"/><path class="peace-cls-1" d="M930.1,953c-.7-1-1.6-1.7-1.5-2.1a2.4,2.4,0,0,1,1.6-1.5c.2-.1,1.2.9,1.1,1.3C931.4,951.3,930.8,951.9,930.1,953Z" transform="translate(0 0.1)"/><path class="peace-cls-1" d="M958.1,703.9c.6-1.6,1.6-1.9,2.7-1.2a1.63,1.63,0,0,1,.2,1.5C960.1,705.3,959.2,705.3,958.1,703.9Z" transform="translate(0 0.1)"/><path class="peace-cls-1" d="M471.4,634.5c1-.3,2-.6,3.4-1-.7,2.9-1.8,2.9-3,2.5C471.7,635.5,471.5,635,471.4,634.5Z" transform="translate(0 0.1)"/><path class="peace-cls-1" d="M454.8,109.8c-.8.6-1.3,1.4-1.7,1.3a2,2,0,0,1-1.3-1.4c-.1-.5.6-1.1.9-1.7A21.26,21.26,0,0,0,454.8,109.8Z" transform="translate(0 0.1)"/><path class="peace-cls-1" d="M812,791.8c-.8,1.6-1.9,2-3.2.8a2,2,0,0,1,.1-1.5C810.1,789.8,811.2,790,812,791.8Z" transform="translate(0 0.1)"/><path class="peace-cls-1" d="M880.3,127.2c-1.4,1.2-2.4,1.2-3.1-.4-.1-.3,0-1.1.2-1.2C878.7,124.8,879.6,125.3,880.3,127.2Z" transform="translate(0 0.1)"/><path class="peace-cls-1" d="M772.9,617.8c-1.4,0-2.3-.5-1.9-2.1a2,2,0,0,1,1.5-.9C773.9,615.5,773.4,616.7,772.9,617.8Z" transform="translate(0 0.1)"/><path class="peace-cls-1" d="M931.7,117.7c-.7.8-1.2,1.8-1.4,1.7a2.92,2.92,0,0,1-1.6-1.5c-.1-.2.6-1.5.9-1.5A7.47,7.47,0,0,1,931.7,117.7Z" transform="translate(0 0.1)"/><path class="peace-cls-1" d="M179.3,29c.2-2.2,1-3.1,2.5-2.5a1.56,1.56,0,0,1,.8,1.3C182,29.5,180.8,29.2,179.3,29Z" transform="translate(0 0.1)"/><path class="peace-cls-1" d="M962.2,567.4c.4-1.6.8-2.8,2.4-2a2,2,0,0,1,.6,1.5C964.5,568.5,963.5,568.3,962.2,567.4Z" transform="translate(0 0.1)"/><path class="peace-cls-1" d="M577.7,681.4c1.2.8,2.1,1.5,3.2,2.3C578.4,685.2,578.2,685,577.7,681.4Z" transform="translate(0 0.1)"/><path class="peace-cls-1" d="M706.1,336.9c1.6-1.2,2.5-.6,3.1.8a1.75,1.75,0,0,1-.7,1.4C706.9,339.7,706.4,338.6,706.1,336.9Z" transform="translate(0 0.1)"/><path class="peace-cls-1" d="M779.2,816.3c1.3.5,2.3,1.1,1.8,2.8a1.25,1.25,0,0,1-1.3.4C778.2,818.8,778.2,817.7,779.2,816.3Z" transform="translate(0 0.1)"/><path class="peace-cls-1" d="M862.6,358.7c-.6-1.1-1.4-1.8-1.3-2.3.2-.7,1-1.2,1.5-1.7.4.6,1.2,1.2,1.2,1.9C864.1,357.1,863.4,357.7,862.6,358.7Z" transform="translate(0 0.1)"/><path class="peace-cls-1" d="M796.3,710.9a8.35,8.35,0,0,1-1.5-2.4c-.1-.4.6-1.1,1-1.6.5.6,1.3,1.1,1.5,1.8C797.4,709.1,796.8,709.9,796.3,710.9Z" transform="translate(0 0.1)"/><path class="peace-cls-1" d="M400.7,837.5c-.2-1.3-.5-2.6-.8-4.6,2.5,1.5,2.8,2.8,2,4.5C401.5,837.4,401.1,837.5,400.7,837.5Z" transform="translate(0 0.1)"/><path class="peace-cls-1" d="M91.1,223.2c-.9,1.5-1.8,2.1-3,.9a2.29,2.29,0,0,1,.2-1.8C89.6,221,90.3,222,91.1,223.2Z" transform="translate(0 0.1)"/><path class="peace-cls-1" d="M850,368.1c-.5-.8-1.2-1.5-1.1-1.8a6.22,6.22,0,0,1,1.4-1.9c.5.6,1.4,1.2,1.3,1.7C851.5,366.8,850.7,367.3,850,368.1Z" transform="translate(0 0.1)"/><path class="peace-cls-1" d="M829.3,508.4a7.91,7.91,0,0,1-1.2-2.5c0-.3,1.1-1.2,1.3-1.1a2.79,2.79,0,0,1,1.2,1.8C830.7,507,829.9,507.6,829.3,508.4Z" transform="translate(0 0.1)"/><path class="peace-cls-1" d="M497.9,650.5c1.6,2.1,1.6,3.1.3,3.8-.3.2-.9-.2-1.4-.3C497.1,653,497.4,652.1,497.9,650.5Z" transform="translate(0 0.1)"/><path class="peace-cls-1" d="M693.8,377.4c-.5-1-1-1.6-.9-2.1s.7-.9,1.2-1.3c.4.5,1,1.1,1,1.6S694.5,376.6,693.8,377.4Z" transform="translate(0 0.1)"/><path class="peace-cls-1" d="M213.1,72.3c-.7.8-1.2,1.8-1.4,1.8-.6-.2-1.1-.9-1.7-1.4.4-.5.8-1.2,1.3-1.4S212.3,71.8,213.1,72.3Z" transform="translate(0 0.1)"/><path class="peace-cls-1" d="M716.1,107.5c.2,1.6.3,2.6.4,3.6-.6,0-1.4.3-1.7,0C713.8,110.1,714.1,109,716.1,107.5Z" transform="translate(0 0.1)"/><path class="peace-cls-1" d="M893.2,307.1h4.6C896.1,308.8,895.1,309.7,893.2,307.1Z" transform="translate(0 0.1)"/><path class="peace-cls-1" d="M53.4,43.9c-.6-.7-1.1-1.1-1.5-1.6.5-.4.9-1.1,1.4-1.1s1,.7,1.5,1C54.3,42.8,53.9,43.2,53.4,43.9Z" transform="translate(0 0.1)"/><path class="peace-cls-1" d="M201.3,168c-.8-.7-1.3-1.1-1.8-1.5a6.23,6.23,0,0,1,1.4-1.8c.2-.2,1.4.6,1.3,1C202.3,166.4,201.7,167,201.3,168Z" transform="translate(0 0.1)"/><path class="peace-cls-1" d="M353.3,981.3c-2.3-1.2-2.6-2.2-1.9-3.4.2-.3.9-.2,1.3-.3C352.8,978.5,353,979.5,353.3,981.3Z" transform="translate(0 0.1)"/><path class="peace-cls-1" d="M882.6,143.1c-.2-1.7-.3-2.7-.5-3.7.5-.1,1.1-.4,1.4-.2C884.5,140.2,884.5,141.2,882.6,143.1Z" transform="translate(0 0.1)"/><path class="peace-cls-1" d="M104.7,804.1c-.6-1-1.2-1.6-1.3-2.3-.1-.4.7-.9,1.1-1.4.5.6,1.2,1,1.4,1.7C105.9,802.5,105.3,803.2,104.7,804.1Z" transform="translate(0 0.1)"/><path class="peace-cls-1" d="M168.8,102.5c-1.8-.2-2.9-.2-4.2-.3.5-1.9,1.3-2.5,2.5-2.1C167.6,100.2,167.9,101.2,168.8,102.5Z" transform="translate(0 0.1)"/><path class="peace-cls-1" d="M718.4,761.7a9.34,9.34,0,0,1-1.3-2.2c0-.3,1-1.2,1.3-1.1a3,3,0,0,1,1.3,1.6C719.8,760.3,719,760.9,718.4,761.7Z" transform="translate(0 0.1)"/><path class="peace-cls-1" d="M15.4,885.9c-.6-.9-1.2-1.4-1.2-1.9s.6-1.1.9-1.6c.4.5,1.1.9,1.2,1.4S15.8,884.9,15.4,885.9Z" transform="translate(0 0.1)"/><path class="peace-cls-1" d="M816.3,98.4c-.2,2.3-.3,3.5-.5,5.3C813.8,101.7,813.9,100.3,816.3,98.4Z" transform="translate(0 0.1)"/><path class="peace-cls-1" d="M484.7,850.7c-1.5-.6-1.9-1.4-1.1-2.7.2-.3,1.1-.5,1.3-.3C485.9,848.7,485.4,849.7,484.7,850.7Z" transform="translate(0 0.1)"/><path class="peace-cls-1" d="M770.5,153.9c1.4-1.1,2.2-1.7,3.1-2.5a6.38,6.38,0,0,1,.6,1.5C773.8,155,772.8,155.2,770.5,153.9Z" transform="translate(0 0.1)"/><path class="peace-cls-1" d="M778.5,337.2a30.23,30.23,0,0,1-1.3-2.8c0-.1,1-.9,1.1-.8a6,6,0,0,1,1.4,2.1C779.8,335.8,779.1,336.4,778.5,337.2Z" transform="translate(0 0.1)"/><path class="peace-cls-1" d="M597.9,743.8c-.6-.7-1.1-1.1-1.5-1.6.4-.4.8-1.1,1-1.1a2.87,2.87,0,0,1,1.4,1.1C598.9,742.4,598.4,743.1,597.9,743.8Z" transform="translate(0 0.1)"/><path class="peace-cls-1" d="M903.7,117c-.1-2.2.8-2.6,2-2.5.2,0,.6.7.6,1C906,117.2,905,117,903.7,117Z" transform="translate(0 0.1)"/><path class="peace-cls-1" d="M895.9,114.5a7.56,7.56,0,0,1,1.5,2.1c.1.3-.8,1.4-1,1.3a3.64,3.64,0,0,1-1.6-1.4C894.6,116.2,895.3,115.4,895.9,114.5Z" transform="translate(0 0.1)"/><path class="peace-cls-1" d="M483,622.3c-.5-.8-.9-1.3-1.2-1.8.5-.4,1-1.1,1.4-1s.8.9,1,1.6C484.3,621.2,483.6,621.7,483,622.3Z" transform="translate(0 0.1)"/><path class="peace-cls-1" d="M547.5,584.8c-.7.6-1.1,1.3-1.6,1.3s-.9-.7-1.4-1.1a7.62,7.62,0,0,1,1.4-1.6C546.2,583.3,546.8,584.1,547.5,584.8Z" transform="translate(0 0.1)"/><path class="peace-cls-1" d="M955,519.5c-.7-.8-1.5-1.5-2.5-2.6C955,516,955.8,516.8,955,519.5Z" transform="translate(0 0.1)"/><path class="peace-cls-1" d="M271.6,611.3v3.5c-.5.1-.8.3-1,.1C269.1,613.6,269.4,612.6,271.6,611.3Z" transform="translate(0 0.1)"/><path class="peace-cls-1" d="M262.3,255.4c-.6-.7-1.2-1.2-1.2-1.5a9.93,9.93,0,0,1,1.1-2c.3.4,1,.8,1,1.2A11.82,11.82,0,0,1,262.3,255.4Z" transform="translate(0 0.1)"/><path class="peace-cls-1" d="M229,605.8a10.76,10.76,0,0,1-1.5-2.2c-.1-.1.8-1.1.9-1a4.31,4.31,0,0,1,1.5,1.5C230,604.2,229.4,604.9,229,605.8Z" transform="translate(0 0.1)"/><path class="peace-cls-1" d="M200.4,109.3c-.8.6-1.3,1.3-1.7,1.3s-.9-.8-1.3-1.3c.4-.5.8-1.3,1.4-1.4C199.1,107.8,199.7,108.6,200.4,109.3Z" transform="translate(0 0.1)"/><path class="peace-cls-1" d="M185.3,35.5c-.7-.7-1.5-1.4-2.2-2.1.2-.3.5-.7.7-1l2.4,1.8A14.63,14.63,0,0,0,185.3,35.5Z" transform="translate(0 0.1)"/><path class="peace-cls-1" d="M679.1,5.8c-.8-.9-1.5-1.4-1.5-1.9s.6-1.1,1.1-1.4c.1-.1.9.6,1,1C679.8,4.1,679.4,4.7,679.1,5.8Z" transform="translate(0 0.1)"/><path class="peace-cls-1" d="M794.2,901.5c-.7-.9-1.1-1.4-1.5-1.9.4-.4.8-1,1.4-1.2.3-.1,1.1.6,1,.9C795.1,900,794.7,900.5,794.2,901.5Z" transform="translate(0 0.1)"/><path class="peace-cls-1" d="M724.1,356.2c-.7.6-1.2,1.4-1.6,1.4s-1.1-.9-1.1-1.4.7-1.1,1.1-1.6Z" transform="translate(0 0.1)"/><path class="peace-cls-1" d="M516.8,911a11.44,11.44,0,0,1-1.3-2.3c-.1-.2.9-1,1-.9a5.79,5.79,0,0,1,1.4,1.7C517.9,909.6,517.3,910.2,516.8,911Z" transform="translate(0 0.1)"/><path class="peace-cls-1" d="M511.7,296c.6-.6.9-1.3,1.2-1.2a6,6,0,0,1,1.5.9c-.3.5-.6,1.4-.9,1.4S512.5,296.6,511.7,296Z" transform="translate(0 0.1)"/><path class="peace-cls-1" d="M925.1,774.1a7.84,7.84,0,0,1-.9-2.1c0-.2,1-.9,1.1-.8a4.74,4.74,0,0,1,1.2,1.9,3.81,3.81,0,0,1-.4,1.7A6.07,6.07,0,0,0,925.1,774.1Z" transform="translate(0 0.1)"/><path class="peace-cls-1" d="M995.2,659.7c-.8.9-1.6,1.6-3.7.3l3.4-1.5A10.38,10.38,0,0,0,995.2,659.7Z" transform="translate(0 0.1)"/><path class="peace-cls-1" d="M849.8,67.2c.8-.5,1.4-1.2,1.7-1a2.16,2.16,0,0,1,.9,1.6c0,.4-.9,1.3-1.1,1.2C850.8,68.7,850.5,68,849.8,67.2Z" transform="translate(0 0.1)"/><path class="peace-cls-1" d="M789,494.2a5.28,5.28,0,0,1,1.9-1.2c.2,0,.6.7.9,1.2-.4.4-.8,1-1.4,1.2C790.1,495.4,789.6,494.7,789,494.2Z" transform="translate(0 0.1)"/><path class="peace-cls-1" d="M849,414.3c.7-.4,1.4-.9,2.3-1.4C851.2,415,851.2,415,849,414.3Z" transform="translate(0 0.1)"/><path class="peace-cls-1" d="M24.7,661.5c-.5-.6-1.1-1.2-1.6-1.8a17.41,17.41,0,0,0,1.4-1.2c.3.8.7,1.6,1,2.3A2.7,2.7,0,0,1,24.7,661.5Z" transform="translate(0 0.1)"/><path class="peace-cls-1" d="M19.9,705.4c.2,1,.5,2,.8,3.2C18.6,707.8,18.6,707.8,19.9,705.4Z" transform="translate(0 0.1)"/><path class="peace-cls-1" d="M982.5,594.6a11.88,11.88,0,0,1-1.6-2.2c-.1-.2.6-.8.9-1.2a11.37,11.37,0,0,1,1.5,1.6C983.5,593,982.9,593.7,982.5,594.6Z" transform="translate(0 0.1)"/><path class="peace-cls-1" d="M287.5,37.5c-.7-.7-1.3-1.1-1.3-1.4,0-.6.5-1.1.8-1.6.4.4.9.7,1,1.1S287.8,36.6,287.5,37.5Z" transform="translate(0 0.1)"/><path class="peace-cls-1" d="M953.6,436.1c-.3-1.4-.5-2.4-.8-3.8C954.8,433.7,954.8,433.7,953.6,436.1Z" transform="translate(0 0.1)"/><path class="peace-cls-1" d="M691.2,516.7l-1.8,1.2a10.09,10.09,0,0,0-.7-1.5c.7-.4,1.3-.7,2-1.1C690.9,515.8,691,516.2,691.2,516.7Z" transform="translate(0 0.1)"/><path class="peace-cls-1" d="M115.9,592.3c-.9-.4-1.8-.8-3.4-1.6C114.9,590.4,114.9,590.4,115.9,592.3Z" transform="translate(0 0.1)"/><path class="peace-cls-1" d="M877.6,53.1a9.57,9.57,0,0,1-.8-2.1c0-.2.9-.8,1.1-.7a2.55,2.55,0,0,1,.9,1.5C878.8,52.1,878.2,52.5,877.6,53.1Z" transform="translate(0 0.1)"/><path class="peace-cls-1" d="M597.6,308.4c-.8.8-1.2,1.4-1.7,1.6-.2.1-1-.7-.9-1.1a1.78,1.78,0,0,1,.9-1.2C596.2,307.6,596.7,308,597.6,308.4Z" transform="translate(0 0.1)"/><path class="peace-cls-1" d="M894.3,960.3c-.4-.9-.9-1.4-.9-2,0-.3.8-1,.9-.9a3.6,3.6,0,0,1,1.1,1.4C895.5,959.1,894.8,959.6,894.3,960.3Z" transform="translate(0 0.1)"/><path class="peace-cls-1" d="M94.9,511.2c-.5-.8-.8-1.3-1.2-1.9.5-.3.9-.7,1.4-1,.3.5.8,1,.8,1.6C96,510.2,95.4,510.6,94.9,511.2Z" transform="translate(0 0.1)"/><path class="peace-cls-1" d="M959.3,260.2c.7-.6,1.1-1.2,1.4-1.1.5.1.9.7,1.3,1.1-.3.4-.7,1.2-1,1.1S960.1,260.7,959.3,260.2Z" transform="translate(0 0.1)"/><path class="peace-cls-1" d="M612,439.6c-.4-.8-1-1.4-.9-1.6a3.33,3.33,0,0,1,1.4-1.2c.1-.1.8.8.8,1.1A7.66,7.66,0,0,1,612,439.6Z" transform="translate(0 0.1)"/><path class="peace-cls-1" d="M206.1,805.6a8,8,0,0,1-1.4-1.7c-.1-.3.7-1.2.9-1.2a3.23,3.23,0,0,1,1.4,1.2C207.1,804.2,206.6,804.8,206.1,805.6Z" transform="translate(0 0.1)"/><path class="peace-cls-1" d="M397.3,558.7c.7-.5,1.3-1,1.5-.9a4.18,4.18,0,0,1,1.1,1.5c-.4.3-.8,1-1,.9A10.16,10.16,0,0,1,397.3,558.7Z" transform="translate(0 0.1)"/><path class="peace-cls-1" d="M203.5,16.1c-.2-.7-.5-1.4-.7-2.1,0-.1.9-.5.9-.5a20,20,0,0,1,1,2.1C204.2,15.8,203.9,15.9,203.5,16.1Z" transform="translate(0 0.1)"/><path class="peace-cls-1" d="M39.4,807.3a7,7,0,0,1,1.9-1c.3,0,.6.8,1,1.2-.5.4-1,1-1.5,1.1S40,808,39.4,807.3Z" transform="translate(0 0.1)"/><path class="peace-cls-1" d="M34.5,13.9c-.3,1-.6,2-1.1,3.9-1.3-2.4-1.2-3.5.1-4.3A10.37,10.37,0,0,0,34.5,13.9Z" transform="translate(0 0.1)"/><path class="peace-cls-1" d="M286.9,605.6a9.29,9.29,0,0,1-1-2.1c0-.3.7-.9,1-.9s1.1.6,1,.9C287.9,604.1,287.4,604.6,286.9,605.6Z" transform="translate(0 0.1)"/><path class="peace-cls-1" d="M266.8,603a16.6,16.6,0,0,1-2.2-.3,4.27,4.27,0,0,1,.1-1.5,18.46,18.46,0,0,1,2.3.4C266.9,602,266.9,602.5,266.8,603Z" transform="translate(0 0.1)"/><path class="peace-cls-1" d="M996.6,817.4c-3.1.8-2.8-.7-2.8-3.3C995,815.6,995.6,816.3,996.6,817.4Z" transform="translate(0 0.1)"/><path class="peace-cls-1" d="M309.7,706.8c.7-.7,1.2-1.3,1.4-1.3a3.66,3.66,0,0,1,1.3,1.2s-.4.9-.6.8A5.17,5.17,0,0,1,309.7,706.8Z" transform="translate(0 0.1)"/><path class="peace-cls-1" d="M946.6,383.2a18,18,0,0,1-.8,2.1s-.9-.3-.9-.4a16,16,0,0,1,.5-2.1A5.64,5.64,0,0,0,946.6,383.2Z" transform="translate(0 0.1)"/><path class="peace-cls-1" d="M285.3,5.5c-1.8,2-2.8,1.3-3.8-.6A32.62,32.62,0,0,1,285.3,5.5Z" transform="translate(0 0.1)"/><path class="peace-cls-1" d="M261,840c-.7-.4-1.4-.8-2-1.2a9.14,9.14,0,0,1,.7-1.4c.6.5,1.3,1,1.9,1.5C261.4,839.3,261.2,839.6,261,840Z" transform="translate(0 0.1)"/><path class="peace-cls-1" d="M540.7,324.7c1.2-.6,1.8-1.1,2.4-1.1.4,0,1.1.8,1,1.1a2.49,2.49,0,0,1-1.1,1.4C542.8,326.2,542.3,325.6,540.7,324.7Z" transform="translate(0 0.1)"/><path class="peace-cls-1" d="M136.2,723.4c.6-.6,1.1-1.3,1.3-1.2a2.78,2.78,0,0,1,1.2,1.2c.1.1-.6,1.1-.8,1C137.5,724.3,137,723.8,136.2,723.4Z" transform="translate(0 0.1)"/><path class="peace-cls-1" d="M912.5,481.2c.6-.5,1-1.1,1.3-1a1.55,1.55,0,0,1,1,1.2c0,.4-.6,1.1-.9,1.1S913.1,481.8,912.5,481.2Z" transform="translate(0 0.1)"/><path class="peace-cls-1" d="M635.5,402.5c-.7.4-1.3,1-1.5.9a2.68,2.68,0,0,1-1-1.5c0-.1.7-1,.9-.9A10.16,10.16,0,0,1,635.5,402.5Z" transform="translate(0 0.1)"/><path class="peace-cls-1" d="M629.7,113.7l2.1.6c-.1.4-.3,1.1-.4,1.1a14.62,14.62,0,0,1-2-.5A10.38,10.38,0,0,1,629.7,113.7Z" transform="translate(0 0.1)"/><path class="peace-cls-1" d="M233,13.4c-.9-1.4-1.4-1.8-1.4-2.2s.7-1.1.8-1c.5.3,1.1.7,1.2,1.2S233.3,12.4,233,13.4Z" transform="translate(0 0.1)"/><path class="peace-cls-1" d="M616,453.9c-.7.4-1.3,1-1.5.9a5,5,0,0,1-1-1.4c.4-.2.8-.6,1.2-.6S615.4,453.3,616,453.9Z" transform="translate(0 0.1)"/><path class="peace-cls-1" d="M109.4,605.2a3.49,3.49,0,0,1,1.3-.5c.2,0,.6.7.5,1s-.6,1-.9,1a3.51,3.51,0,0,1-1.4-.6A7.26,7.26,0,0,0,109.4,605.2Z" transform="translate(0 0.1)"/><path class="peace-cls-1" d="M942.3,956.7a9.24,9.24,0,0,1-1.6,1.2c-.1.1-.7-.7-.7-.8a5.37,5.37,0,0,1,1-1.6C941.3,955.8,941.7,956.1,942.3,956.7Z" transform="translate(0 0.1)"/><path class="peace-cls-1" d="M547.1,805.5a3.81,3.81,0,0,1-.4-1.7,6,6,0,0,1,.9-1.5c.3.4.9.7,1,1.2s-.3.9-.5,1.4C547.8,805.1,547.4,805.3,547.1,805.5Z" transform="translate(0 0.1)"/><path class="peace-cls-1" d="M469.3,708.2c-.7-.8-1.2-1.2-1.2-1.6s.6-.8.9-1.2c.3.3.7.5.8.8C469.7,706.7,469.5,707.2,469.3,708.2Z" transform="translate(0 0.1)"/><path class="peace-cls-1" d="M460.3,735.7c.2.9.5,1.8.9,3.2C459.1,738.3,458.9,737.3,460.3,735.7Z" transform="translate(0 0.1)"/><path class="peace-cls-1" d="M460.8,468.1c-.7.7-1.2,1.4-1.3,1.3a4.07,4.07,0,0,1-1.2-1.4c-.1-.1.5-.9.6-.9A8.87,8.87,0,0,1,460.8,468.1Z" transform="translate(0 0.1)"/><path class="peace-cls-1" d="M440.4,515.1c-.4-.8-.9-1.5-.8-1.7a5.53,5.53,0,0,1,1.4-1.2,4.71,4.71,0,0,1,.6,1.5C441.5,514.1,441,514.5,440.4,515.1Z" transform="translate(0 0.1)"/><path class="peace-cls-1" d="M956.5,180.8c-.5-.7-1.1-1.3-1-1.6.2-.6.7-.9,1.2-1.4.3.4.8.9.8,1.3S956.9,180,956.5,180.8Z" transform="translate(0 0.1)"/><path class="peace-cls-1" d="M209.3,813.9c.7.6,1.4,1.1,2,1.7-.2.3-.3.6-.5.9-.8-.4-1.5-.9-2.3-1.3A14.8,14.8,0,0,0,209.3,813.9Z" transform="translate(0 0.1)"/><path class="peace-cls-1" d="M959.6,849.8a20,20,0,0,1-1.6,1.4c-.2-.3-.6-1-.6-1a18.26,18.26,0,0,1,1.6-1.3Z" transform="translate(0 0.1)"/><path class="peace-cls-1" d="M208.9,829.7a5.7,5.7,0,0,1-.8-1.6,1.44,1.44,0,0,1,1.1-.9c.2,0,.8.8.7,1.1C210,828.7,209.5,829,208.9,829.7Z" transform="translate(0 0.1)"/><path class="peace-cls-1" d="M389.3,187.9c.8-.9,1.4-1.6,2.1-2.4.4.5.6.8.6,1C391.8,188,391.3,188.9,389.3,187.9Z" transform="translate(0 0.1)"/><path class="peace-cls-1" d="M50.2,744.6c.4-.2.9-.4,1.3-.6a4.19,4.19,0,0,1,.4,1.5c0,.2-.5.6-.8.6a4.42,4.42,0,0,1-1.5-.5A3.74,3.74,0,0,0,50.2,744.6Z" transform="translate(0 0.1)"/><path class="peace-cls-1" d="M45.8,59.8c.6-.5,1-1.1,1.3-1.1s.8.7.8,1.1a1.55,1.55,0,0,1-.8,1.1A8.29,8.29,0,0,1,45.8,59.8Z" transform="translate(0 0.1)"/><path class="peace-cls-1" d="M206.6,34.9c-.6.7-.9,1.4-1.2,1.4s-1-.6-1-1a1.83,1.83,0,0,1,.8-1.3C205.4,33.9,205.9,34.5,206.6,34.9Z" transform="translate(0 0.1)"/><path class="peace-cls-1" d="M387.6,540.9c-.6.5-.9,1.1-1.3,1.1s-.8-.6-1.1-.9c.4-.5.7-1,1.1-1.5Z" transform="translate(0 0.1)"/><path class="peace-cls-1" d="M980.2,67.3c.6-.3,1.2-.5,1.8-.8.1.4.3,1.1.3,1.1a14.17,14.17,0,0,1-1.8.8A2,2,0,0,1,980.2,67.3Z" transform="translate(0 0.1)"/><path class="peace-cls-1" d="M308.4,644.9c.5.6,1,1.1,1.5,1.7,0,0-.6.8-.7.8-.6-.5-1.1-1-1.7-1.6Z" transform="translate(0 0.1)"/><path class="peace-cls-1" d="M145.9,685c-.5-.6-1.1-1.1-1.1-1.4a2,2,0,0,1,1.1-1.3c.2-.1,1,.6,1,.8A18.18,18.18,0,0,1,145.9,685Z" transform="translate(0 0.1)"/><path class="peace-cls-1" d="M475,5.6c.4-.9.8-1.8,1.3-2.7.3.1.5.3.8.4-.4.9-.7,1.9-1.1,2.8A9.25,9.25,0,0,0,475,5.6Z" transform="translate(0 0.1)"/><path class="peace-cls-1" d="M957,618.8c-.7.3-1.3.8-1.5.6a1.71,1.71,0,0,1-.7-1.3c0-.3.7-.8,1.1-.8S956.4,618,957,618.8Z" transform="translate(0 0.1)"/><path class="peace-cls-1" d="M564.1,690.2c-.5-1-1.1-2-1.6-3C564,687.5,564.6,688.5,564.1,690.2Z" transform="translate(0 0.1)"/><path class="peace-cls-1" d="M155.8,122c-.1.8-.1,1.5-.2,2.3-.3-.1-.7-.1-.7-.2a15.48,15.48,0,0,1-.1-2.2A3.08,3.08,0,0,0,155.8,122Z" transform="translate(0 0.1)"/><path class="peace-cls-1" d="M583.7,510.6c-.5.4-.8.8-1.2.9-.1,0-.7-.7-.6-.8a4.81,4.81,0,0,1,.9-1.1A4.67,4.67,0,0,1,583.7,510.6Z" transform="translate(0 0.1)"/><path class="peace-cls-1" d="M587,384.1c-.5-.6-1.1-1-1-1.3a1.32,1.32,0,0,1,.9-1c.4,0,.8.5,1.1.8C587.7,383,587.5,383.4,587,384.1Z" transform="translate(0 0.1)"/><path class="peace-cls-1" d="M293.5,16.9c-.1-.5-.5-1.1-.4-1.5s.7-.6,1-.9a9.36,9.36,0,0,1,.4,1.6,6.11,6.11,0,0,1-.3,1.3A1.79,1.79,0,0,0,293.5,16.9Z" transform="translate(0 0.1)"/><path class="peace-cls-1" d="M603,264.5c-.2-1-.5-1.6-.3-2s.8-.4,1.2-.7c.2.5.5,1,.4,1.4S603.6,263.9,603,264.5Z" transform="translate(0 0.1)"/><path class="peace-cls-1" d="M132.1,29c-.3-.5-.8-.9-.7-1.1a3.53,3.53,0,0,1,.8-1.3c.3.3.9.7.9,1S132.5,28.4,132.1,29Z" transform="translate(0 0.1)"/><path class="peace-cls-1" d="M497.4,657.1c.5.8.9,1.2.9,1.7a4.42,4.42,0,0,1-.5,1.5,8,8,0,0,1-1.3-1.3C496.4,658.6,496.9,658,497.4,657.1Z" transform="translate(0 0.1)"/><path class="peace-cls-1" d="M276.4,976.9c-.5.4-.9.9-1,.8a3.13,3.13,0,0,1-.9-1.1c0-.1.6-.8.7-.7C275.7,976,276,976.5,276.4,976.9Z" transform="translate(0 0.1)"/><path class="peace-cls-1" d="M275.1,36.6h-2.2a2,2,0,0,0-.1-.8l2.2-.3A4.48,4.48,0,0,1,275.1,36.6Z" transform="translate(0 0.1)"/><path class="peace-cls-1" d="M275,642.1a18.38,18.38,0,0,1-1.8,1.2c-.2-.4-.7-.9-.6-1.3a1.3,1.3,0,0,1,1-.9C273.9,641,274.3,641.6,275,642.1Z" transform="translate(0 0.1)"/><path class="peace-cls-1" d="M514,306.2c-.5.4-.9.9-1,.9a3.78,3.78,0,0,1-.9-1.2c0-.1.6-.8.7-.7A9,9,0,0,1,514,306.2Z" transform="translate(0 0.1)"/><path class="peace-cls-1" d="M633.5,116.4a4.59,4.59,0,0,1,1.4-.7c.1,0,.6.9.5,1.1-.2.4-.7.6-1.1,1A7,7,0,0,0,633.5,116.4Z" transform="translate(0 0.1)"/><path class="peace-cls-1" d="M947.9,60.1c-.9.6-1.3,1-1.7,1s-.7-.6-1-.9c.4-.3.7-.9,1.1-1S947.1,59.7,947.9,60.1Z" transform="translate(0 0.1)"/><path class="peace-cls-1" d="M642.9,301.7a4.43,4.43,0,0,1-.9-1.6c0-.2.5-.8.8-.7a4.18,4.18,0,0,1,1.2.8A14.85,14.85,0,0,0,642.9,301.7Z" transform="translate(0 0.1)"/><path class="peace-cls-1" d="M896.6,334.1a4.58,4.58,0,0,1,1.6-.6c.2,0,.5.4.8.6l-.9,1.5A9.34,9.34,0,0,0,896.6,334.1Z" transform="translate(0 0.1)"/><path class="peace-cls-1" d="M676.9,381.4l-1,1a3.75,3.75,0,0,1-.7-1.2c0-.2.4-.6.6-.9Z" transform="translate(0 0.1)"/><path class="peace-cls-1" d="M966.4,599.6l1.2-1.2a4.18,4.18,0,0,1,.8,1.2c.1.2-.4.9-.6.8A7.5,7.5,0,0,1,966.4,599.6Z" transform="translate(0 0.1)"/><path class="peace-cls-1" d="M253.7,903c-.5-.5-1-.8-1-1a7.54,7.54,0,0,1,.6-1.3c.3.2.8.4.8.6A6.78,6.78,0,0,1,253.7,903Z" transform="translate(0 0.1)"/><path class="peace-cls-1" d="M408.9,114.1a13.09,13.09,0,0,1,.7-1.3c.4.3.9.5,1.1.9.1.2-.3,1-.4,1A2.85,2.85,0,0,1,408.9,114.1Z" transform="translate(0 0.1)"/><path class="peace-cls-1" d="M700.3,414.9a16.86,16.86,0,0,1-.8-2.7c0-.3.5-.5.8-.8a5.39,5.39,0,0,1,.7,1.3A14.77,14.77,0,0,1,700.3,414.9Z" transform="translate(0 0.1)"/><path class="peace-cls-1" d="M724.3,262.3c-.4-.8-.9-1.3-.9-1.7s.6-.8.9-1.2c.3.4.8.8.8,1.3C725.2,261,724.7,261.5,724.3,262.3Z" transform="translate(0 0.1)"/><path class="peace-cls-1" d="M231.9,576a6.52,6.52,0,0,1-.2-1.8c.1-.3.6-.4.9-.7a4.42,4.42,0,0,1,.5,1.5C233,575.3,232.5,575.6,231.9,576Z" transform="translate(0 0.1)"/><path class="peace-cls-1" d="M860.6,94.6c-.6-.6-1.1-.9-1.3-1.3-.1-.1.4-.9.6-.9a3.94,3.94,0,0,1,1.4.5C861.1,93.3,861,93.8,860.6,94.6Z" transform="translate(0 0.1)"/><path class="peace-cls-1" d="M226.3,895.5c1-.8,1.4-1.3,1.5-1.2.4.2.7.7,1.1,1-.3.3-.6.9-1,1S227,895.9,226.3,895.5Z" transform="translate(0 0.1)"/><path class="peace-cls-1" d="M45.6,893.3a8.37,8.37,0,0,1-1-1,2.44,2.44,0,0,1,.9-1.1c.1-.1.8.5.8.7A9,9,0,0,1,45.6,893.3Z" transform="translate(0 0.1)"/><path class="peace-cls-1" d="M395.8,443.2a4.42,4.42,0,0,1-1.5.5,1.83,1.83,0,0,1-1-1.1c-.1-.1.4-.8.6-.9.4-.1.8.2,1.2.4A4.13,4.13,0,0,1,395.8,443.2Z" transform="translate(0 0.1)"/><path class="peace-cls-1" d="M774.3,413.2c-.7.5-1.1.8-1.5,1.1a3.29,3.29,0,0,1-.7-1.3c0-.2.5-.8.7-.7C773.3,412.4,773.6,412.8,774.3,413.2Z" transform="translate(0 0.1)"/><path class="peace-cls-1" d="M473.4,49.8c-.6-.9-1-1.4-1-1.8s.6-.7.9-1.1c.2.3.6.6.6.9C474,48.3,473.7,48.8,473.4,49.8Z" transform="translate(0 0.1)"/><path class="peace-cls-1" d="M970.7,603c-.6-.5-1.1-.7-1.3-1.1s.5-1.2.7-1.1a5.48,5.48,0,0,1,1.5.8C971.3,602,971.1,602.5,970.7,603Z" transform="translate(0 0.1)"/><path class="peace-cls-1" d="M780.3,476.8c-.7.5-1,.9-1.4,1-.2,0-.7-.6-.7-.8a9.14,9.14,0,0,1,.7-1.4A6,6,0,0,0,780.3,476.8Z" transform="translate(0 0.1)"/><path class="peace-cls-1" d="M947.7,115.6c-.5-.9-.9-1.3-.9-1.8a2.35,2.35,0,0,1,.5-1c.4.3.9.5,1,.9S948.1,114.5,947.7,115.6Z" transform="translate(0 0.1)"/><path class="peace-cls-1" d="M786.5,134.9c-.5.4-.9.9-1,.9a2.84,2.84,0,0,1-.8-1.1c0-.1.5-.8.7-.7C785.8,134.1,786.1,134.5,786.5,134.9Z" transform="translate(0 0.1)"/><path class="peace-cls-1" d="M0,88.3c.5-.4.9-.8,1.3-1.1.2.4.5.8.4,1.1s-.4.8-.7.8S.5,88.7,0,88.3Z" transform="translate(0 0.1)"/><path class="peace-cls-1" d="M788.5,806.7c-.4-1.2-.7-1.7-.6-2.1s.7-.6,1.1-1a3.08,3.08,0,0,1,.5,1.2C789.5,805.3,789.1,805.7,788.5,806.7Z" transform="translate(0 0.1)"/><path class="peace-cls-1" d="M522.9,473.9c-.3-.7-.7-1.2-.6-1.4a2.93,2.93,0,0,1,.9-1c.1-.1.8.5.7.6A5.6,5.6,0,0,1,522.9,473.9Z" transform="translate(0 0.1)"/><path class="peace-cls-1" d="M367.7,231.2c.8-.4,1.2-.9,1.5-.8s.6.8,1,1.2c-.4.3-.7.9-1.1.8S368.4,231.8,367.7,231.2Z" transform="translate(0 0.1)"/><path class="peace-cls-1" d="M464.1,62.9a4.89,4.89,0,0,1-1-.9,11.91,11.91,0,0,1,.9-1.5c.3.3.7.6.7.8A4.58,4.58,0,0,1,464.1,62.9Z" transform="translate(0 0.1)"/><path class="peace-cls-1" d="M479.5,660c-.5-.9-1-1.3-1-1.8s.6-.8.9-1.2c.3.4.8.8.9,1.3S479.9,659.2,479.5,660Z" transform="translate(0 0.1)"/><path class="peace-cls-1" d="M340,967.2c.4.9.8,1.5.7,1.9s-.7.6-1.1.7c-.2,0-.6-.7-.6-1A8.91,8.91,0,0,1,340,967.2Z" transform="translate(0 0.1)"/><path class="peace-cls-1" d="M339.6,654.8a10.08,10.08,0,0,1-.9-1.8s.5-.4.8-.6c.3.7.5,1.3.8,2A1.61,1.61,0,0,0,339.6,654.8Z" transform="translate(0 0.1)"/><path class="peace-cls-1" d="M483.4,674.8a7.68,7.68,0,0,0-1.1,1.5c-.3-.4-.8-.7-.9-1.2-.1-.2.3-1,.5-1A8.48,8.48,0,0,1,483.4,674.8Z" transform="translate(0 0.1)"/><path class="peace-cls-1" d="M205.2,402.5c-2.8-.4-4.9-1.8-7.8-3.4-5.3-2.8-9.2-4.3-9.4-12.1-.3-8.9,3.6-18.9,7.1-27,10.6-24.4,23-43.6,40.5-61.1a186.17,186.17,0,0,1,38.5-29.4c17.1-10.1,39.3-19.8,62.7-14.8,3.9.8,7.4,2.7,11.1,3.7,8.2,2.1,15.9,3.4,22.3,7.8,5.7,3.9,11.5,12.8,11.8,20.9.3,7.6-2.8,15.1-5.1,21.9-7,20.7-18.2,35.9-29.4,50.9,3.4.2,5.4-3,7.4-5.1,12.6-13.2,32-27.6,55.3-30,12.1-1.3,29.3,2.9,34.1,10.5,3,4.8,2.2,13.8-.3,19.2-10,21-40.2,33.3-64.1,38.8-5.2,13.5-10.6,28.6-10.5,46.2,14-.6,23.1-9.2,32.7-16.9a175.58,175.58,0,0,0,13.2-12.1c3.6-3.6,10.4-8.7,12.1-12.8,1.4-3.3,1.7-8.1,3-12.1,6.4-18.5,17.3-35.1,32.4-45.9,6.4-4.6,18.5-12.1,29-10.1,2,.4,4.1,1.7,6.7,2.4,4.9,1.3,13.7,2.6,12.8,8.1-.2,1.4-2.4,3.1-4,3-2.1-.1-3-2.2-4.4-2-2.6.3-7,4.9-9.4,7.4-8.3,8.3-15.2,18.5-21.3,28.3-9.3,15.1-15.4,29.3-18.2,48.2,7.9-1.2,13.8-5.8,18.9-10.8,4.7-4.6,9.9-10.3,13.2-16.2,2.3-4.1,3.7-8.8,5.7-13.2a189.44,189.44,0,0,1,13.5-23.6c2.4-3.7,4.5-7.8,7.8-10.8.8.8,1.1,2.7,1.7.3,3.3,2.5,10.3,2.2,14.5,4.7,7.6,5.5.3,17.8-2.7,24.6-7.9,17.7-16.6,36.2-21.3,55.3,9.5-4.1,18.2-14.2,25.3-23.6,1.9-2.6,6.2-6.4,6.7-9.4.3-1.7-.5-3.9-.7-6.4-.8-12.7,3.3-25.6,8.1-35.8,9.1-19.5,23.6-34.7,39.8-47.6,6.9-5.5,18.6-13.8,30.7-12.8,3,.2,6.6,1.8,9.8,2.7,3,.8,6.8,1.5,6.7,4.7-.7,2.5-3.9,1.9-5.7,2.7-8.1,3.2-17.7,15.7-22.9,22.6a166.5,166.5,0,0,0-16.9,28.3c-4.8,10.2-9.8,20.7-13.5,31.7-3.9,11.4-8.2,23.7-7.1,37.4,14.3-6.3,22.4-19.8,32.7-31.7,2.7-3.1,8.9-8.4,9.8-11.8s-.2-9.2.3-13.5c3.2-25,14.2-43.8,33.7-55.3,10.6-6.2,26.6-10.5,41.5-6.1,9.4,2.8,22.9,5.2,21.3,19.2-1.2,10.1-11.5,16.8-19.2,21.3a75.69,75.69,0,0,1-30,10.1c-3.3,5.8-6.2,13.6-8.4,21.9-3.3,12.3-7.9,26.5-2,38.1,13.4-.2,21.6-8.9,28.7-17.2,6.8-8,13.5-18.2,15.9-29.7.7-3.5-.3-9.8,3-12.1,1.1.1.9,1.3,1,2.4.6-.4.3-1.8.7-2.4,3.3,3,7.7,1.6,12.1,4,8.1,6.8,4.1,21.3,0,28.3-8.1,14.1-27.7,31.7-46.9,35.1-10.5,1.9-17.2-1.2-24-4.7-11.7-6.2-22.4-11.1-25-26.3-8.5,8-17.4,22.1-27.7,31.7-5.3,5-11,9.3-19.9,6.1-11.3-4.1-20.5-10.5-23.3-22.6-4.3,5.3-7.9,11.1-13.5,17.2-5.1,5.5-13.2,15.2-23.3,12.1a60.1,60.1,0,0,1-12.5-6.1c-6-4-8.4-11.5-8.8-20.2a129.81,129.81,0,0,1-10.5,10.1c-5.3,4.3-10.8,9.2-19.6,6.4a59.66,59.66,0,0,1-8.1-4c-8.3-4.4-15.8-8.2-16.5-19.9-4.1,2.9-7.7,7-11.5,10.8s-7.3,7.5-11.5,11.1c-7.7,6.7-16.6,15.6-28.7,16.9-8,.8-11.6-2.4-17.2-5.4-4.4-2.3-8.2-3.4-11.5-6.1a54.07,54.07,0,0,1-11.1-14.2c-9-17.1-2.4-39.3,6.1-52.6-6.7.6-11,7.2-15.2,11.8-8.5,9.3-17.2,18.6-27.3,26.7-5.5,4.4-16.2,14.4-26.7,11.8-3.9-1-10.5-4.4-12.5-6.7-6.3-7.4,1.7-17.6,7.1-22.9,11.3-11.3,25.2-18.5,41.8-24,3.4-1.1,7.6-1.4,10.1-3,1.6-1,4.4-5.5,6.4-8.4a258,258,0,0,0,16.2-27.3c8.2-16.7,15.7-40.6,7.1-59.4-26.4,2.1-44.8,12.1-61.7,23.6-19.7,44.9-34,97.8-42.2,155.2-1.3,9.3-3.1,18.9-4.7,28.3-1.5,8.9-2.2,18.6-7.1,25.6-8.6-2.3-17.1-6.1-19.2-15.2-1.6-7-.5-16.4.3-23.6,2.5-22.5,7.1-43.7,12.1-63.8,7.7-30.6,15.8-53.9,26.3-75.6.1-.3.3-.3.3-.7a215.41,215.41,0,0,0-37.1,58.4C213.3,389,210.2,396.5,205.2,402.5Zm148.5-91c3.1-9.5,6.9-24.2,3-35.4C358.9,288.4,355.8,303.5,353.7,311.5Zm8.1-19.6c-.1-3.1.5-6.9-.3-8.4C361.6,285.5,361.1,292.8,361.8,291.9Zm8.1,4c.2-2.7.8-6.9,0-9.4C370.2,289.7,369.4,293.6,369.9,295.9Zm321.5,34.4c.9-2.9.9-10.7-2.7-9.8-15,3.7-20.7,21.2-28.3,32.7C671.5,349,687.8,341.6,691.4,330.3Zm-263.9,3.4c-24.9,5.5-35.4,30.2-44.5,51.3,20.8-6.4,45.4-17.3,50.6-38.8a17.7,17.7,0,0,0-1.7-12.8A14.41,14.41,0,0,0,427.5,333.7Zm8.8,7.1c-.3-2-.7,3.6-.3,5.1A34,34,0,0,0,436.3,340.8Zm181.2,25c1-5,3-9.6,3.4-13.8-3,8.4-6.2,18.4-6.4,28.3C616.6,376.1,616.4,370.7,617.5,365.8Zm-69.5,4c-2.8,6.6-6.5,16.8-5.7,27C543.8,387.4,545.2,377.9,548,369.8Zm-310.7,6.1c-4.8,16.4-8.9,32.6-12.1,49.3-3.7,19.2-9,39.4-7.8,61.4,0,.4.4.3.3-.3.8-43.3,11.8-79.2,21.6-114.7C239.2,369.5,237.5,375,237.3,375.9Zm-43.5,2.4c.3-1.5,2-6.8,1.3-5.7-2.8,4.5-3.6,12.4-2.7,19.6A48.39,48.39,0,0,1,193.8,378.3ZM630,401.9c-.4-7,2.2-14.6,2-19.2C631.2,388.6,628.5,395.9,630,401.9Zm-343.8-5.4c-5.8,4.6-12.3,10.1-14.2,18.2,14.1-5.9,24.9-19.8,33.7-31A176.83,176.83,0,0,0,286.2,396.5Zm57-10.5c-.2-.8,0-.6-.3,0-3.8,6.5-6.6,22-3,31A76.36,76.36,0,0,1,343.2,386Zm91.8,4.7c0-1.3,1.5-2.7.7-3.7C435.7,388.3,434.1,389.7,435,390.7Zm184.5,2.7c.3,4.1.4-2.6.3-4-.1-.3-.3-.4-.7-.3A19.06,19.06,0,0,0,619.5,393.4Zm-3,6.4c-.7-1.6-.2-4.5-1.3-5.7C615,396.3,615.8,399.5,616.5,399.8Zm9.7-2.3c-.1-.7.3-3.6-.3-2.7C626,395.5,625.6,398.4,626.2,397.5ZM344.5,416c-.6-6.7,1.5-14.2,1.3-18.2C345,403.1,342.8,410.2,344.5,416Zm210.6,1.4c.2-4.5,1.5-14.2,1.7-17.5A63,63,0,0,0,555.1,417.4Zm-119.5-4.1c.3-2.8,1.2-8.5.7-9.8C436,406.8,435.4,409.6,435.6,413.3Zm-3,1.1c-.6-3.1,0-7.2-.3-9.8C431,406.8,431.4,412.4,432.6,414.4ZM547,408.6c-.1-1,.3-4.4-.3-3.7C546.8,405.9,546.3,409.3,547,408.6Zm-286.5-1.7c.1,4.8.2,2.4.3,0,0,.4.9-1.6,0-.7C260.8,406.5,260.9,406.9,260.5,406.9Zm94.8,12.5c-.1,2.3-.2,5,.3,3.4,1.6-4.7.9-11.8,1.7-14.5C356.5,412,355.5,417.4,355.3,419.4ZM543.9,413a7.12,7.12,0,0,0-.7-3.4A5.75,5.75,0,0,0,543.9,413Zm-56.6,13.8c-1.2-5.4.8-11.9.7-16.2C486.5,414.7,485.3,422.5,487.3,426.8Zm-43.6-8.1c.3-1.9,1.3-6.5.7-7.1C444.2,414,443.5,415.9,443.7,418.7Zm46.6,6.1c-.1-1.1.3-4.6-.3-4C490.1,421.9,489.6,425.4,490.3,424.8ZM220.1,484.9c-.1-1,.3-4.4-.3-3.7C219.9,482.2,219.4,485.5,220.1,484.9Z" transform="translate(0 0.1)"/><path class="peace-cls-1" d="M367.5,507.5c-11.4,18.3-18.3,41-26.3,62.7,6.4,1.2,11.7,3.3,11.5,11.1,7.5-.7,16-7,24-7.1,2.6,0,6.7.8,8.4,3-2.2,2-5.3,2.6-8.1,3.7-8.1,3.1-16.8,6.2-24.6,9.8-4.9,29.4-11.3,55.5-23.3,79.3a92,92,0,0,1-6.4,10.8c-2.2,3.3-4.9,8.2-8.1,8.8-3.5.6-15.5-5.7-17.2-7.8-6.8-8.3-5.7-31.1-4.7-44.2,1.1-14.7,2.7-30.8,5.7-43.9-3.8-.6-7.7-1.1-10.8-2.4-9.4,16.1-15.9,34.6-29,48.2-5,5.2-11.7,12.2-21.3,9.4-2.6-.7-5.1-2.6-7.8-4-2.9-1.6-6.1-2.4-8.1-3.7-9.1-6.2-14.8-18.4-13.5-33.7,2.5-29.3,23.1-53.4,43.5-63.8,5-11.3,23.8-13.4,35.8-6.7,15,8.4,8,33.5,2.7,48.2,2.5,1.2,6.5.9,9.4,1.7,7.2-26.8,16.5-54,29.3-76.2-20.5,3-39.9,6.5-57,12.8-9,3.3-17.7,5.7-25.3,9.8-21.8,11.7-41.1,28.9-56.7,47.9-5.3,6.4-10.3,13-14.2,20.6-4.1,8-5.1,16.7-8.8,26-3.4.7-6.4-1.1-9.4-2.7-6.4-3.4-12.2-4.3-11.1-15.2.9-9,7.8-17.8,12.8-24.3a196.4,196.4,0,0,1,17.5-19.2c13-12.8,24.7-24.6,39.1-34.4,15.3-10.4,32-19.1,49.9-23.6,17.3-4.3,38-5.3,58.4-6.1,3.2-.1,6.9.7,9.1,0,2.7-.8,7.8-9.5,10.1-12.1a78.75,78.75,0,0,1,11.5-10.5c7.9-5.9,19.3-13.3,31.4-14.2,11.5-.8,28.4,3.4,31.7,12.5,5,13.7-11.3,20-20.2,22.9C387.4,504.5,378.4,506,367.5,507.5Zm42.2-23.3c3.4-8.1-3-13.5-11.1-12.5-5.4.7-10.5,4.8-14.2,8.1-6.3,5.8-10.8,13.7-13.8,20.9C382.6,498.1,405.3,494.5,409.7,484.2Zm2-2.4c.8-5.5-.7.3-.7,1.7S411.6,482.4,411.7,481.8Zm-131.2,58c-16.5,3.7-5.6,31.7.7,39.1C283.9,568.4,287.5,548.6,280.5,539.8Zm6,20c-.2-2.7.4-8.1-.3-9.1C286.4,553.4,285.8,558.7,286.5,559.8Zm27.7-1.7c0-.4-.4-.3-.3.3-3.1,9.1-6.9,19.4-8.1,29.3C308.5,577.8,311,567.6,314.2,558.1Zm-28.7,9.7c-.3-1.4,1-3,0-4C285.9,565.2,284.6,568,285.5,567.8Zm-52.3,64.1a27.93,27.93,0,0,0,2.7,9.1c11-4.6,18.6-13.6,25-22.9a168.23,168.23,0,0,0,16.9-31.4c-11.3-4-18.2-12.4-24.3-21.6C243.9,581.7,230.8,605.7,233.2,631.9Zm51.3-59.3c.3-1,.4-2.1.7-3,0-.5-.1-1.3-.3-.7C284.9,570,283.7,573.9,284.5,572.6ZM345.6,583c.7-.5.1-5.2.3-7.4-.5,0-.5-2-.7-.3C346,577.2,345.4,580.5,345.6,583Zm-1.1-7.7c-3.2.3-7.5,5.2-5.7,9.4a13.85,13.85,0,0,0,5.7-1Zm-9.1,13.1c-8,26.7-16,53.5-21.3,83,15.1-20,22.7-50.4,29.4-80A56,56,0,0,1,335.4,588.4Zm6.5,15.5a49.81,49.81,0,0,1-2.4,10.1v1c.3-.1.4-.3.3-.7,1.7-7,4.4-16.5,4.7-22.6C343.7,595.9,343.1,600.3,341.9,603.9ZM213,622.5c-1.6-11.2,1.3-22.5,2.7-30.7C213.3,600.3,209.9,612.6,213,622.5Zm84,49.3c-2.4-28.3,3.2-54.1,7.4-77.9-.1-.3-.3-.4-.7-.3C299.5,616.9,293.1,644.6,297,671.8Zm-81-58.4c-.1-.8.3-3.9-.3-3C215.8,611.2,215.4,614.2,216,613.4Zm7.1,9.1c-.3-4,1.4-9.4.7-11.5C223.7,614.8,222.2,618.9,223.1,622.5Zm-7.4-5.1c-.1-.8.3-3.9-.3-3C215.5,615.2,215.1,618.3,215.7,617.4Zm123.1,1.1c.1-.7,1.1-3.3.3-2.7C339.1,616.5,338,619,338.8,618.5Zm-35.7,5.7c.2-1,1.1-5.6.3-2.4C303.1,623,302.3,627.4,303.1,624.2Zm32.7,3c.4.2,2-4.6,1.3-4.4C336.8,624.4,336.1,625.6,335.8,627.2Zm-35.1,16.9c-.1-5.2,2-11.7,1.3-15.2C301.9,634,300,639.2,300.7,644.1Zm9.8-8.4c-.3-1.1,1-2.3,0-3C310.7,633.7,309.6,636.1,310.5,635.7Zm-10.8,18.2c-.1-.7.3-3.6-.3-2.7C299.4,651.9,299.1,654.8,299.7,653.9Zm-.4,6c-.2-1.3.4-5.1-.3-4.7C299.2,656.5,298.6,660.3,299.3,659.9Z" transform="translate(0 0.1)"/><path class="peace-cls-1" d="M816.2,678.8c12.7-4.7,17.5-25.5,20.9-41.5,1.5-7,2.5-14.6,3.7-21.6,1.1-6.6.9-14.5,6.7-17.5,1.2-.3.3,1.8,1.3.7-.1-1.4,1.7,0,1.7.7.4.4,1.3-.9,1.3,1,.5-1.3,1.7-1,2,.3,9.3-1.2,15.9,9.9,14.8,23.6-1,12.7-7.2,22.6-14.2,34.4a107.85,107.85,0,0,1-9.8,14.5c-3.6,4.4-7.8,9.8-11.8,12.1-1.4.8-7.6,3.9-8.8,4-5.6.9-9.3-2-13.2-4-2.4-1.3-5.1-1.9-6.4-3-7.9-7.1-6.4-24.2-5.1-37.8-7.4,10.5-16.2,26.5-28.7,32-7.8,3.5-15.5-1.6-22.3-5.1-8.1-4.2-13.5-6.6-15.5-16.9-8.9,14.7-13.5,32.3-22.6,48.2-2.3,4-6.9,11.6-11.1,12.5-3.6.7-7.3-1.3-10.5-3-2.5-1.4-7.2-2.8-8.4-4.7-1.5-2.4-1.3-9-1-13.5.7-9.5,3.4-19.7,6.1-29,7.9-27,18.3-51.8,29-75.6,15.1-33.6,34.2-61.7,43.9-95.8-12.8,7.1-21.5,21.1-29.7,34.7A405.58,405.58,0,0,0,706.2,571c-9.8,22.1-18.2,46.2-28,69.5-1.8,4.2-7.5,18.9-12.5,19.9-3,.6-5.8-1.6-8.4-3s-6-2.3-7.4-4c-5.2-6.4-1.3-18-1-25.6-6.7,9.1-13.6,24.9-22.3,35.8-3.7,4.7-7.1,10.1-14.8,8.1-3.3-.9-11.8-4.8-14.8-7.1-2.5-1.8-4.2-5-5.4-8.1-8.9,12.6-14.4,27.9-23.6,41.5-2.6,3.8-6.7,9.8-11.1,10.5-3.7.5-7.3-1.7-11.1-3.7-4.7-2.5-9.1-3.4-11.1-7.4-5.7-11.3-.5-33.3,2-44.5,9.5-41.5,25.1-80.7,32.7-120.8-9.5,6-16.2,16.6-21.9,27.7-2.8,5.5-5.9,11.3-7.4,17.9-6,26.4-12.1,53.9-22.3,78.3-1.9,4.4-6.2,14.3-9.8,15.2-5.8,1.4-11.7-6.2-16.2-6.7-3.6-15.4,1.6-30.1,4.7-44.2,9.3-42.3,18.3-84.2,27.7-126.8-14.6,20.4-26.9,46.4-37.4,72.9-3.5,8.8-8.5,17.6-10.8,26-1.9,7-2.3,14.3-4,21.3-3.4,13.6-6.2,25.7-12.5,38.1-2.2,4.5-6.8,13.2-11.1,13.8-3.3.5-12.3-4.3-14.2-6.4-5.7-6.2-2.8-16.2-.7-24.6,7-27.2,13.6-59.5,16.5-88.7-4,2.2-6,7.2-8.1,11.5a139.21,139.21,0,0,0-10.1,30c-1.2,5.2-1.6,10.9-5.1,14.8-6.7-2.3-16.5-5.4-17.2-13.5-.4-4.2,2.9-9.8,4.7-14.2a116.32,116.32,0,0,1,13.2-24.6c2.6-3.7,5.8-8.4,8.4-10.5,1-.8,3.1-1.1,4.4-2,3.1-2.2,4.9-5.3,7.4-5.7s4.4,1.2,7.4,2c4.2,1.2,8.1,1.3,11.1,3.4,5.1,3.4,6.4,9.7,9.4,14.2,9.1-22,19.6-45.2,33.1-64.8,3.5-5.1,9.7-15.7,15.9-16.5,2.7-.4,5.2,1.6,8.1,2.4,4.2,1.1,8.3,1.3,11.5,3.7,6,4.6,9.5,14.2,9.4,23.6,0,10.5-2.9,21.9-3.7,31.7,5.1-3,9.4-11.6,16.9-12.5,2.5-.3,4.7,1.1,7.8,2,3.9,1.1,7.9,1.3,10.8,3.4,5,3.6,8.5,12.6,9.1,19.9,1.1,14.2-2.7,29.1-5.7,41.8-8.5,35.9-28.7,70-35.7,105.7,4.3-2.8,7.4-7.2,10.5-11.8,7.4-11.1,14-23.6,21.6-35.8,1.5-2.5,3.9-4.9,4.4-7.1.9-3.9.7-8.1,1.3-11.8,3-17.4,10.7-32.7,16.5-47.6,2.4-6.1,3.8-12.6,7.4-18.2,1.3-.2,1.5,3.3,1.7.3,2.8,1.4,9.2,2,12.5,4,2.7,3.4,4.5,6.9,4,13.8-.8,13.8-6.7,26.5-11.1,39.8a220.35,220.35,0,0,0-9.8,41.2c5.3-3.5,9-9.1,12.8-14.5,7.6-10.8,14.3-21.7,21.6-33.7,3.5-5.8,8.3-11.5,10.5-17.2,1.4-3.8,2-8.4,3.4-12.8,1.3-4,2.6-8.3,3.7-12.5,2.2-8.5,5.6-17.6,5.7-26.3,0-2.5-1-5.1,0-7.4.9-1.2,1.3-.1,2,.7-.2-1.7,2.1-.2,3,0,2.8.7,6.2,1.4,8.1,2.7,11.8,8.1,10.4,31.6,5.7,46.6,12.1-27.7,27.6-58.5,46.6-82.7,5.7-7.3,13.8-17.7,23.3-19.6,2.6-.5,4.5,1,7.1,1.7,6.9,1.9,10.2,1.8,13.2,7.1,7.6,13.5-.2,31.7-5.1,43.9-22.5,56.1-59.1,102.9-75.6,162.9,8.9-12.6,18.2-31,26.7-46.9,2.2-4.1,3-7.8,7.4-7.8.9-10.3,5.8-19,10.8-27,9.7-15.4,19.9-29,34.7-40.8,9.9-7.8,24.1-17.5,40.5-10.8,4.1-12.7,8.3-26.5,13.2-40.8,4.7-13.9,10.4-28.5,8.8-44.9-.4-3.9-2.5-5.9-3.7-9.8,1.3-.9,7.5.6,10.5,2,8.7,4.3,13.6,17.1,14.5,29,1.3,17.4-3.5,33.9-8.1,48.2-4.6,14.1-10.1,26.9-15.2,41.2C827.7,618.3,815.8,646,816.2,678.8Zm27-199.3c0-.4-.4-.3-.3.3,2.2,17.5-3.9,31.4-6.4,44.2C840.1,510.8,845.3,497.4,843.2,479.5Zm-309.1,4.7c-.2,5.7-1.4,13.9-1.3,17.5C533.6,496.2,534.5,490.8,534.1,484.2ZM501.8,614.1c-3.5,14.2-7.9,28.5-8.1,43.9,3.6-30.7,12.2-58,18.9-86,3.4-14.2,6.4-28.4,9.8-42.8,3.3-14.1,7.7-28.5,8.1-43.9C522.3,530.2,512.3,571.7,501.8,614.1ZM760.9,501.7c.5-3.3,2.5-6.9,2-10.1C762.5,495,760.7,498.9,760.9,501.7Zm-218.7-9.1c.1-.6-.4-.8-.3,0,.4,7.7-1.7,16.5-1.7,21.6C541.2,507.4,542.5,500.8,542.2,492.6Zm230.1,10.5c-.2-1.8.4-6.2-.3-6.4C772.2,498.5,771.6,502.9,772.3,503.1Zm80.3-.7c-.2-1.3.4-5.1-.3-4.7C852.4,499,851.9,502.7,852.6,502.4ZM539.5,517.9c-.3-1.1,1-2.3,0-3C539.8,515.9,538.6,518.4,539.5,517.9Zm292.9,16.6c-.1.4-.8,2.8-.3,2a32.32,32.32,0,0,0,2.4-6.1c.5-1.4,1.9-6.5,1.3-5.4C834.8,528.2,833.2,531.7,832.4,534.5ZM563.5,577.3c-5.7,18.5-11.1,36.5-16.9,55-5.7,18.2-11.6,38-10.1,60.4,0,.4.4.3.3-.3-.9-30.8,9.1-55.5,16.5-80.3,3.6-12.2,7.6-24.8,11.5-37.4s8.1-26.2,9.1-39.8c.1-1.4.5-4.2-.7-5.4C572.2,547,568.1,562.3,563.5,577.3ZM577,538.5c-.1-1,.3-4.4-.3-3.7C576.8,535.8,576.3,539.1,577,538.5Zm87.4,45.2c3.2-13.8,10.3-27.2,8.4-43.9C673.4,557.6,666.8,570,664.4,583.7Zm-80.3-42.2c-.2,5.2-1.4,12.9-1.3,16.2C583.5,552.6,584.4,547.7,584.1,541.5ZM441,616.8c5.4-23,14.2-47.7,12.8-74.6C453.4,570.9,446.2,592.8,441,616.8ZM676.2,551c-.2-1.3.4-5.1-.3-4.7C676,547.6,675.5,551.3,676.2,551Zm-218.6,3.7c-.1-1.1.3-4.6-.3-4C457.4,551.7,456.9,555.2,457.6,554.7Zm361.3,22.9c0,.4.4.3.3-.3,2.6-8.3,6.2-19.2,7.8-26.3C824.1,559.7,821.7,568.9,818.9,577.6ZM463.6,566.2c0,3.9.6-1.9.3-.3.4-2.2,1.2-8.8.3-10.5C464.6,559.5,463.6,565.7,463.6,566.2Zm219-5.1c-.2-1.5.4-5.5-.3-5.4C682.4,557.2,681.9,561.2,682.6,561.1Zm133.2,8.8c-9.8,3.8-17.9,10.5-25,18.2-17,18.7-31.9,42.8-32,75.2,5.3-2.8,9.1-7.9,13.2-12.5s8.6-9.2,12.5-14.2c7.9-10.1,14.4-21.2,22.6-30.7,2.8-12.5,6.2-24.4,9.8-36.1,0-.2,0-.4-.3-.3A.81.81,0,0,1,815.8,569.9Zm-5,37.4c1.7-7.2,4.9-16.5,5.7-22.3C814.6,592.1,811.6,601.5,810.8,607.3ZM412.4,588.4c-.3-1,.9-3.5,0-3C412.5,586.3,411.5,588.9,412.4,588.4Zm427.1,57.7a210,210,0,0,0,8.1-44.5C845,616.3,842.7,633.2,839.5,646.1Zm11.1-38.4c-.1-.9.3-4.1-.3-3.4C850.4,605.2,849.9,608.4,850.6,607.7Zm-.7,4.3c-.2,2.2-1.4,8.8-.7,8.1.4-3.8,1.2-7.2,1-11.5C849.6,609.5,850,610.7,849.9,612ZM594.5,630.9c1.3-3.3,1.2-8,2.7-11.1a37.76,37.76,0,0,1,1.3-5.7c.4-1.5,1.6-4.6,1-4C597.6,616.4,594.7,623.7,594.5,630.9Zm262.8-4.7c.1-3.3,1.3-9,.3-11.1C858.1,619.1,856.6,623,857.3,626.2ZM650.9,647.5c.3,1.8.4-1.3.3-2v-4c.9-8.8,3.6-17.6,4.4-25.3C653.4,625.9,650.5,635.1,650.9,647.5ZM438.7,625.9c.4-.2,1.9-5.7,1.3-5.7C439.6,622.1,439,623.8,438.7,625.9Zm297.9,18.5c1.7-1.4,1.1-5,1.7-7.4.6-1.3,1.9-6.6,1.3-5.7A42.72,42.72,0,0,0,736.6,644.4ZM801.3,667c.4,2.1.6-4.5.3-.7.2-2.8-.2-4.1,0-7.1.5-7.5,2-15.8,2.4-22.3C803.6,644.5,799.5,658,801.3,667Zm-60.7-17.5c.1-1.5.4-5.7,0-5.7C739.9,647.7,740.4,653,740.6,649.5Zm-307.3.3c0-1.5,1-5.1.3-5.1C433.7,646.4,432.4,648.5,433.3,649.8ZM748,654.9c.3-2.2,1.2-7.3.7-8.1C748.4,649.4,747.8,651.7,748,654.9Zm-10.8-.7c-.2-2.8.4-6.3-.7-7.4A12.23,12.23,0,0,0,737.2,654.2Zm-133.6-2.7c-.1-.8.3-3.9-.3-3C603.4,649.3,603,652.3,603.6,651.5Zm78.6,52.6a126.26,126.26,0,0,1,4-27c.1-.6-.4-.8-.3,0C684.2,685.6,681.7,693.4,682.2,704.1Zm-143-16.5c-.1-1.1.3-4.6-.3-4C539,684.7,538.5,688.2,539.2,687.6Z" transform="translate(0 0.1)"/><path class="peace-cls-1" d="M630.6,503.8c4.1-.2,13.5,2.7,14.5,5.1.6,1.4.5,4,.3,6.1-.7,7-6.4,16.8-11.1,17.9s-7.4-1.7-11.1-3.7c-2-1.1-5.2-2-6.1-3-2.4-3-.5-9.7,1-13.2C620.6,507.5,623.7,504.2,630.6,503.8Zm-11.4,14.8c0-4.3-.7,2.6,0,4Z" transform="translate(0 0.1)"/></svg>