<svg id="new_logo" data-name="Layer 1" xmlns="http://www.w3.org/2000/svg" viewBox="0 0 397.3 68.5"><defs><style></style></defs><title>logo-01</title><g id="option_4" data-name="option 4"><path class="new_logo-cls-1" d="M13.7,26.8l-2.6,2.6v9.5H0V0H11.1V17.9l7.4-7.7H31.4l-9.9,9.6L32.2,39H20Z"/><path class="new_logo-cls-1" d="M45.9,39.8c-5,0-8.7-1.3-11.2-4s-3.8-6.4-3.8-11.1,1.3-8.6,4-11.3,6.4-4.1,11.3-4.1,8.7,1.3,11.2,4,3.8,6.4,3.8,11.1S59.9,33,57.3,35.7,50.8,39.8,45.9,39.8ZM42.5,24.5a21.93,21.93,0,0,0,.2,2.9,5.18,5.18,0,0,0,.7,1.8,2.59,2.59,0,0,0,1.1,1,3.42,3.42,0,0,0,2.8,0,2.59,2.59,0,0,0,1.1-1,4.84,4.84,0,0,0,.7-1.8,20.68,20.68,0,0,0,.2-2.9,21.93,21.93,0,0,0-.2-2.9,5.18,5.18,0,0,0-.7-1.8,2.59,2.59,0,0,0-1.1-1,3.19,3.19,0,0,0-1.4-.3,3.53,3.53,0,0,0-1.4.3,2.59,2.59,0,0,0-1.1,1,4.84,4.84,0,0,0-.7,1.8A21.93,21.93,0,0,0,42.5,24.5Z"/><path class="new_logo-cls-1" d="M69.8,38.9,60.1,10.1H72.3L76.2,27l3.9-16.9H91.9L82.2,38.9Z"/><path class="new_logo-cls-1" d="M108,38.9V36.2a12.51,12.51,0,0,1-3.7,2.6,11.11,11.11,0,0,1-4.6.9,13.45,13.45,0,0,1-3.5-.5,8.14,8.14,0,0,1-3.1-1.5A8.42,8.42,0,0,1,90.9,35a8.17,8.17,0,0,1-.8-4,9,9,0,0,1,1.2-4.8,8,8,0,0,1,3.3-3A17.61,17.61,0,0,1,99,21.7a27.28,27.28,0,0,1,5.3-.5l3.3-.1v-1a3,3,0,0,0-.7-2.3,2.44,2.44,0,0,0-2-.7,3.17,3.17,0,0,0-2,.6,2.61,2.61,0,0,0-.9,1.8l-10.4-.8a10.26,10.26,0,0,1,4.1-7c2.3-1.6,5.4-2.4,9.5-2.4a19.09,19.09,0,0,1,6.3.9,10.85,10.85,0,0,1,4.1,2.4,9.06,9.06,0,0,1,2.2,3.8,18.85,18.85,0,0,1,.7,5V38.9Zm-.4-11.7-3,.2a6,6,0,0,0-3,.8,2.17,2.17,0,0,0-1,1.9,1.86,1.86,0,0,0,.7,1.6,3.31,3.31,0,0,0,1.9.5,4.11,4.11,0,0,0,4.3-4.3v-.7Z"/><path class="new_logo-cls-1" d="M149.6,27.3a20.31,20.31,0,0,1-1.2,5,11.6,11.6,0,0,1-2.6,3.9,11.1,11.1,0,0,1-4.2,2.6,20.08,20.08,0,0,1-12.5-.2,11.69,11.69,0,0,1-4.6-3.1,12.51,12.51,0,0,1-2.7-4.8,19.81,19.81,0,0,1-.9-6q0-7.35,3.9-11.4c2.6-2.7,6.2-4.1,10.8-4.1a18,18,0,0,1,6,.9,11.85,11.85,0,0,1,4.1,2.5,14.14,14.14,0,0,1,2.4,3.6,13.08,13.08,0,0,1,1.1,4.2l-10.8.9a4,4,0,0,0-.8-2.1,2.27,2.27,0,0,0-1.9-.8,2.85,2.85,0,0,0-2.5,1.4,9.74,9.74,0,0,0-.8,4.5,9.93,9.93,0,0,0,.8,4.6,2.85,2.85,0,0,0,2.5,1.4,2.63,2.63,0,0,0,2-.8,4.44,4.44,0,0,0,.8-2.3h11.1Z"/><path class="new_logo-cls-1" d="M151.8,0h11.7V7.4H151.8Zm0,10.1h11.7V38.9H151.8Z"/><path class="new_logo-cls-1" d="M194.8,27.3a20.31,20.31,0,0,1-1.2,5,11.6,11.6,0,0,1-2.6,3.9,11.1,11.1,0,0,1-4.2,2.6,20.08,20.08,0,0,1-12.5-.2,11.69,11.69,0,0,1-4.6-3.1,12.51,12.51,0,0,1-2.7-4.8,19.81,19.81,0,0,1-.9-6q0-7.35,3.9-11.4c2.6-2.7,6.2-4.1,10.8-4.1a18,18,0,0,1,6,.9,11.85,11.85,0,0,1,4.1,2.5,14.14,14.14,0,0,1,2.4,3.6,13.08,13.08,0,0,1,1.1,4.2l-10.8.9a4,4,0,0,0-.8-2.1,2.27,2.27,0,0,0-1.9-.8,2.85,2.85,0,0,0-2.5,1.4,9.74,9.74,0,0,0-.8,4.5,9.93,9.93,0,0,0,.8,4.6,2.85,2.85,0,0,0,2.5,1.4,2.63,2.63,0,0,0,2-.8,4.44,4.44,0,0,0,.8-2.3h11.1Z"/><path class="new_logo-cls-1" d="M197,0h11.7V12.7a9,9,0,0,1,3.3-2.5,10,10,0,0,1,4.5-1,9.2,9.2,0,0,1,6.9,2.6c1.7,1.8,2.5,4.3,2.5,7.6V38.8H214.2V21.6a2.93,2.93,0,0,0-.6-2.1,2.06,2.06,0,0,0-1.7-.7,4.67,4.67,0,0,0-1.7.3,2.34,2.34,0,0,0-1.2,1,5.94,5.94,0,0,0-.4.8,4.51,4.51,0,0,0-.1,1.3V38.9H197Z"/><path class="new_logo-cls-2" d="M239.1,29.6a2.45,2.45,0,0,0,1.2,1.8,4.81,4.81,0,0,0,2.2.4,3.52,3.52,0,0,0,2-.4,1.43,1.43,0,0,0,.6-1.2,1.29,1.29,0,0,0-.5-1.1,3.92,3.92,0,0,0-1.9-.7l-2.9-.5c-3.9-.7-6.8-1.8-8.5-3.2a7.57,7.57,0,0,1-2.6-6.1,7.88,7.88,0,0,1,3.5-6.8q3.45-2.4,9.9-2.4a19.59,19.59,0,0,1,5.8.7A14.16,14.16,0,0,1,252,12a8.3,8.3,0,0,1,2.5,2.8,11.18,11.18,0,0,1,1.2,3.5l-10.9.9a3.15,3.15,0,0,0-4.6-2,1.43,1.43,0,0,0-.6,1.2,1.15,1.15,0,0,0,.6,1.1,5,5,0,0,0,2,.7l2.9.6a34.47,34.47,0,0,1,5.2,1.4,12.11,12.11,0,0,1,3.4,1.9,6.42,6.42,0,0,1,1.9,2.5,8.8,8.8,0,0,1,.6,3.5,8.26,8.26,0,0,1-3.3,7.1c-2.2,1.7-5.6,2.5-10.2,2.5a27.37,27.37,0,0,1-5-.4,14.89,14.89,0,0,1-4.5-1.5,8.68,8.68,0,0,1-3.4-3.2,9.83,9.83,0,0,1-1.5-5Z"/><path class="new_logo-cls-2" d="M258,10.1h11.3v3a10.58,10.58,0,0,1,3.5-2.8,9.88,9.88,0,0,1,4.7-1,9,9,0,0,1,6.9,2.7c1.7,1.8,2.5,4.3,2.5,7.6V39H275.2V21.6a3.4,3.4,0,0,0-.6-2.2,2.41,2.41,0,0,0-1.7-.7,4.67,4.67,0,0,0-1.7.3,2.34,2.34,0,0,0-1.2,1,5.94,5.94,0,0,0-.4.8,4.51,4.51,0,0,0-.1,1.3V38.8H258Z"/><path class="new_logo-cls-2" d="M290.4,0h11.7V7.4H290.4Zm0,10.1h11.7V38.9H290.4Z"/><path class="new_logo-cls-2" d="M317.1,10.1v2.8a9.22,9.22,0,0,1,7.8-3.7,10,10,0,0,1,8.2,3.7q3,3.75,3,11.1a23.82,23.82,0,0,1-.9,6.8,15.52,15.52,0,0,1-2.4,5,10.25,10.25,0,0,1-8.5,4,8.71,8.71,0,0,1-4.2-.9,8.42,8.42,0,0,1-2.7-2.2V49.6H305.7V10.1Zm.5,14.8a9.08,9.08,0,0,0,.8,4.3,2.72,2.72,0,0,0,2.6,1.3,3.07,3.07,0,0,0,2.7-1.4,8.84,8.84,0,0,0,.9-4.6,8.84,8.84,0,0,0-.9-4.6,3,3,0,0,0-2.7-1.3,2.76,2.76,0,0,0-2.5,1.3,4.84,4.84,0,0,0-.7,1.8,16.59,16.59,0,0,0-.2,2.4v.8Z"/><path class="new_logo-cls-2" d="M367.4,29.4a11.42,11.42,0,0,1-4.5,7.8c-2.4,1.7-5.5,2.5-9.4,2.5-5,0-8.8-1.3-11.3-3.9s-3.7-6.3-3.7-10.9a19.87,19.87,0,0,1,1-6.6,14.81,14.81,0,0,1,2.9-4.9,12.86,12.86,0,0,1,4.7-3.1,17.13,17.13,0,0,1,6.2-1.1,16.62,16.62,0,0,1,6.1,1,11.87,11.87,0,0,1,4.5,3,14.68,14.68,0,0,1,2.8,4.7,19.53,19.53,0,0,1,.9,6.1v3H349.4a6,6,0,0,0,1.1,3.7,3.71,3.71,0,0,0,2.8,1c1.9,0,3-.8,3.4-2.3Zm-14-12.2a3.71,3.71,0,0,0-2.8,1,4.65,4.65,0,0,0-1.2,3.1H357a5,5,0,0,0-1-3.2A3.57,3.57,0,0,0,353.4,17.2Z"/><path class="new_logo-cls-2" d="M380.2,29.6a2.45,2.45,0,0,0,1.2,1.8,4.81,4.81,0,0,0,2.2.4,3.52,3.52,0,0,0,2-.4,1.43,1.43,0,0,0,.6-1.2,1.29,1.29,0,0,0-.5-1.1,3.92,3.92,0,0,0-1.9-.7l-2.9-.5c-3.9-.7-6.8-1.8-8.5-3.2a7.57,7.57,0,0,1-2.6-6.1,7.88,7.88,0,0,1,3.5-6.8q3.45-2.4,9.9-2.4a19.59,19.59,0,0,1,5.8.7,14.16,14.16,0,0,1,4.1,1.9,8.3,8.3,0,0,1,2.5,2.8,11.18,11.18,0,0,1,1.2,3.5l-10.9.9a3.15,3.15,0,0,0-4.6-2,1.43,1.43,0,0,0-.6,1.2,1.15,1.15,0,0,0,.6,1.1,5,5,0,0,0,2,.7l2.9.6a34.47,34.47,0,0,1,5.2,1.4,12.11,12.11,0,0,1,3.4,1.9,6.42,6.42,0,0,1,1.9,2.5,8.8,8.8,0,0,1,.6,3.5,8.26,8.26,0,0,1-3.3,7.1c-2.2,1.7-5.6,2.5-10.2,2.5a27.37,27.37,0,0,1-5-.4,14.89,14.89,0,0,1-4.5-1.5,8.68,8.68,0,0,1-3.4-3.2,9.83,9.83,0,0,1-1.5-5Z"/><path class="new_logo-cls-1" d="M3.4,59.5H.1V57.6H8.8v1.9H5.6v8.8H3.4Z"/><path class="new_logo-cls-1" d="M19.2,57.6H23a6.65,6.65,0,0,1,2.1.3,4.11,4.11,0,0,1,1.3.8,2.66,2.66,0,0,1,.6,1,4.25,4.25,0,0,1,.2,1.1,2.86,2.86,0,0,1-.4,1.7,3,3,0,0,1-1.3,1.2l2.2,4.5H25.3l-1.8-4H21.4v4H19.2Zm4,4.8a2.48,2.48,0,0,0,.9-.1,2.19,2.19,0,0,0,.5-.3,2.19,2.19,0,0,0,.3-.5,1.27,1.27,0,0,0,.1-.6.75.75,0,0,0-.1-.5c-.1-.2-.2-.3-.3-.5a1.63,1.63,0,0,0-.6-.3,3.08,3.08,0,0,0-1-.1H21.5v3h1.7Z"/><path class="new_logo-cls-1" d="M38,57.6h2.2V68.3H38Z"/><path class="new_logo-cls-1" d="M54.5,57.6h2.1l4,10.7H58.2l-.9-2.5H53.5l-.9,2.5H50.3Zm2.3,6.3-1.3-3.8-1.3,3.8Z"/><path class="new_logo-cls-1" d="M70.9,57.6h2.2v8.8h5.1L78,68.3H70.9Z"/><path class="new_logo-cls-1" d="M101,57.6h2.2v8.8h5.1l-.2,1.9H101Z"/><path class="new_logo-cls-1" d="M122.2,57.6h2.1l4,10.7h-2.4l-.9-2.5h-3.8l-.9,2.5H118Zm2.3,6.3-1.3-3.8-1.3,3.8Z"/><path class="new_logo-cls-1" d="M136.6,57.6h2.5l1.7,7.4,1.8-7.4H145l1.8,7.4,1.6-7.4h2.4l-2.9,10.7h-2.2l-2-7.9-1.9,7.9h-2.1Z"/><path class="new_logo-cls-1" d="M164.4,63.9l-3.7-6.3h2.5l2.3,4.3,2.4-4.3h2.4l-3.6,6.3v4.4h-2.2V63.9Z"/><path class="new_logo-cls-1" d="M180.5,57.6h7.3v1.9h-5.1v2.3h4.8v1.9h-4.8v2.6h5.4l-.2,1.9h-7.4Z"/><path class="new_logo-cls-1" d="M198.7,57.6h3.8a6.65,6.65,0,0,1,2.1.3,4.11,4.11,0,0,1,1.3.8,2.66,2.66,0,0,1,.6,1,4.25,4.25,0,0,1,.2,1.1,2.86,2.86,0,0,1-.4,1.7,3,3,0,0,1-1.3,1.2l2.2,4.5h-2.4l-1.8-4h-2.1v4h-2.2V57.6Zm3.9,4.8a2.48,2.48,0,0,0,.9-.1,1.2,1.2,0,0,0,.8-.8,1.27,1.27,0,0,0,.1-.6.75.75,0,0,0-.1-.5c-.1-.2-.2-.3-.3-.5a1.63,1.63,0,0,0-.6-.3,3.08,3.08,0,0,0-1-.1h-1.5v3h1.7Z"/><path class="new_logo-cls-1" d="M219.1,64.8a1.84,1.84,0,0,0,.6,1.4,2.67,2.67,0,0,0,1.7.4,2.48,2.48,0,0,0,.9-.1l.6-.3c.1-.1.3-.3.3-.4s.1-.4.1-.6a1.33,1.33,0,0,0-.3-.8c-.2-.3-.6-.4-1.2-.5l-1.4-.3a8.33,8.33,0,0,1-1.5-.4,10.91,10.91,0,0,1-1.1-.6,5.5,5.5,0,0,1-.7-.9,5.07,5.07,0,0,1-.2-1.3,2.5,2.5,0,0,1,.3-1.3,4.06,4.06,0,0,1,.9-1,3.1,3.1,0,0,1,1.3-.6,8.81,8.81,0,0,1,1.7-.2,6,6,0,0,1,2,.3,5.39,5.39,0,0,1,1.3.7,2.29,2.29,0,0,1,.7,1,2.66,2.66,0,0,1,.3,1.2l-2.1.3a2.26,2.26,0,0,0-.6-1.3,2,2,0,0,0-1.4-.4,2.22,2.22,0,0,0-.9.1l-.6.3c-.2.1-.3.2-.3.4a.6.6,0,0,0-.1.4,1.22,1.22,0,0,0,.3.9,2.26,2.26,0,0,0,1.1.5l1.5.3a4.49,4.49,0,0,1,2.5,1.1,3.11,3.11,0,0,1,.8,2.2,2.77,2.77,0,0,1-.3,1.3,2.54,2.54,0,0,1-.8,1,4,4,0,0,1-1.3.7,5,5,0,0,1-1.8.2,5.51,5.51,0,0,1-3.4-.9,3.73,3.73,0,0,1-1.3-2.8Z"/></g></svg>