<svg id="result_one" data-name="Isolation Mode" xmlns="http://www.w3.org/2000/svg" viewBox="0 0 65 65"><defs><style>.result_one-cls-1{fill:#38454b;}.result_one-cls-2{fill:#a67d4c;}</style></defs><title>result-02</title><path class="result_one-cls-1" d="M34.75,67a32.5,32.5,0,1,1,32.5-32.5A32.56,32.56,0,0,1,34.75,67Zm0-62.3a29.8,29.8,0,1,0,29.8,29.8A29.81,29.81,0,0,0,34.75,4.7Z" transform="translate(-2.25 -2)"/><path class="result_one-cls-2" d="M34.85,42.1a7.7,7.7,0,1,1,7.7-7.7A7.77,7.77,0,0,1,34.85,42.1Zm0-12.7a5,5,0,1,0,5,5A5,5,0,0,0,34.85,29.4Z" transform="translate(-2.25 -2)"/><path class="result_one-cls-1" d="M29.55,25.3l-4.7-6.5-2.1,1.6,3.1,4.3a15.24,15.24,0,0,0-3.5,5.6l-11.3-1.5c0-7.3,5.5-12,7.9-13.6l2.2,3,2.2-1.6-3.6-5-1,.6c-.4.3-11,6.3-10.2,17.9l.1,1.1,16,2.1.2-1.3a13.05,13.05,0,0,1,3.2-5.6h0Z" transform="translate(-2.25 -2)"/><path class="result_one-cls-1" d="M45,32.9l7.7-2.2L52,28.1l-5.2,1.5a14.47,14.47,0,0,0-4.1-5.1l5.2-10.1c6.9,2.5,9.4,9.3,10.2,12l-3.5,1,.7,2.6,5.9-1.7L61,27.1c-.1-.5-2.2-12.5-13.4-15.7l-1.1-.3-7.4,14.3,1.1.6a12.15,12.15,0,0,1,4.1,4.9h0Z" transform="translate(-2.25 -2)"/><path class="result_one-cls-1" d="M39.45,44l-1.1.5a10.51,10.51,0,0,1-7,0h-.1l-1.4-.6-3.2,8.8,2.9,1.1,2.3-6.4a15.26,15.26,0,0,0,3,.3,13.17,13.17,0,0,0,3.4-.4l5,9.9c-6.1,4-13.1,2-15.7,1l.9-2.4-2.5-1-1.8,4.7,1.1.6A24,24,0,0,0,35,62.3a18.16,18.16,0,0,0,10.9-3.6l.9-.7Z" transform="translate(-2.25 -2)"/><path class="result_one-cls-2" d="M34.75,12a1.09,1.09,0,0,1-.9-.4,1.49,1.49,0,0,1-.4-.9,1.09,1.09,0,0,1,.4-.9,1.49,1.49,0,0,1,.9-.4,1.09,1.09,0,0,1,.9.4,1.49,1.49,0,0,1,.4.9,1.09,1.09,0,0,1-.4.9A1.8,1.8,0,0,1,34.75,12Z" transform="translate(-2.25 -2)"/><path class="result_one-cls-2" d="M13.75,47.8a1.09,1.09,0,0,1-.9-.4,1.49,1.49,0,0,1-.4-.9,1.09,1.09,0,0,1,.4-.9,1.49,1.49,0,0,1,.9-.4,1.09,1.09,0,0,1,.9.4,1.49,1.49,0,0,1,.4.9,1.09,1.09,0,0,1-.4.9A1.09,1.09,0,0,1,13.75,47.8Z" transform="translate(-2.25 -2)"/><path class="result_one-cls-2" d="M55.15,47.1a1.09,1.09,0,0,1-.9-.4,1.49,1.49,0,0,1-.4-.9,1.09,1.09,0,0,1,.4-.9,1.49,1.49,0,0,1,.9-.4,1.09,1.09,0,0,1,.9.4,1.49,1.49,0,0,1,.4.9,1.09,1.09,0,0,1-.4.9A1.27,1.27,0,0,1,55.15,47.1Z" transform="translate(-2.25 -2)"/></svg>