<svg id="mountain2" data-name="Layer 1" xmlns="http://www.w3.org/2000/svg" viewBox="0 0 666 136.61"><defs><style>.mountain2-cls-1{fill:#ebebeb;}</style></defs><title>Untitled-1</title><path class="mountain2-cls-1" d="M334.47,106.64v-.31c-.55-.61-1.65-1.22-1.65-1.53.82-.92-1.66-.92-2.21-1.23A84.21,84.21,0,0,1,319,100.82c-2.49-1.53-.56-3.07-3-5.82a98.74,98.74,0,0,1-7.44-8,13,13,0,0,0-5-5.51,67.93,67.93,0,0,0-6.06-4c-3.86-2.45-2.48-4.6-8.55-7.05-8-3.06-6.34-6.43-9.92-8.57a14.33,14.33,0,0,1-5.79-5.21c-2.75-3.37-6.61-4.6-9.64-6.74-6.62-4.29-7.17-5.82-15.44-4.6-11,1.84-5,4.6-10.2,5.52-3.58,1.22-.55,7-8.26,2.45a36.56,36.56,0,0,1-11.58-9.5c-1.93-2.75,2.2-1.22-4.14-4.29A61.36,61.36,0,0,1,203,31l-.55-.31c-2.48-1.22-2.21-.3-3.58-2.45-1.66-2.76-1.93,0-3.86-3.06-5.52-8.58-8-5.21-15.16-11.34-1.66-1.22-5,0-8.82-4.28-1.1-1.23-1.93-1.84-3-3.07a13.47,13.47,0,0,0-7.17-4h-1.38c-3.58.31-5.79,4.29-11.85,5.52-7.44,1.83-8.54,4.28-13.5,10.41a40.75,40.75,0,0,1-8.27,7.66c-3.86,3.67-3.86,5.2-6.34,9.8-1.1,1.53-5.51,8.58-7.17,7.66a31.36,31.36,0,0,1-8.82-7.66c-1.1-2.14-.27-2.14-2.75-2.76-1.11-.3-1.66-1.22-2.48-1.84-2.21-1.83-5-3.36-7.17-5.51-4.14-3.67-3.58-1.53-8.55-1.84s-2.75.31-6.89,3.37-8.82,3.37-12.95,8a44.57,44.57,0,0,1-7.44,7.35A38.94,38.94,0,0,0,47,51.19a54.66,54.66,0,0,1-3.31,7.05A66.76,66.76,0,0,1,29.08,72.33c-3,2.14-3,.92-5.23,4.9a9,9,0,0,1-4.69,4.6C13.93,84,15.3,83.36,12,88.56c-.55.62-3.59,2.76-4.14,3.37.83.62-3.58,7.66-2.75,8.27,2.2-1.83,12.4-11.33,13.78-12.86a33,33,0,0,1,6.34-6.43c2.2-1.84,3.3-3.68,5.51-5.52.27-.3,2.2-1.83,2.2-2.14s-.27-.31.55-.92a22.47,22.47,0,0,0,3.31-2.45c4.14-3.68,11.85-11.95,13.51-17.46.55-1.53.55-3.68,1.93-3.37s2.2-1.22,2.75-2.14,9.1-8.89,9.65-8c0,.61-1.1,3.07.55,3.37s1.38-2.14,2.21-2.14,9.37-11.64,15.71-12.25c3.58-.31,1.93,2.45,1.93,2.45-1.66,0-4.14,3.37-1.38,2.45s1.93.92.55,2.75c-1.1,1.23-8.55,8-7.72,9.19s.55.31-.83,2.15c-1.65,2.45-4.68-1.54-2.2,4,2.2,4.9-14.88,29.4-14.33,28.18-1.38.31-2.21-.61-2.76,1.84,0,.3,0,.3-.27.61a50.32,50.32,0,0,0-7.72,7c-1.66,1.84,3.31,1.54.83,3.07a69.55,69.55,0,0,0-3.86,8c0,1.23-.83,1.53-1.93,2.15s-.28,3.06-2.76,2.14c-1.38-.61-8,10.41-12.68,16.54,3,1.53.28,6.43,2.21,8.27,4.41-1.84,7.16-6.13,11-10.11,3.31,1.23-3.31,17.46-2.75,17.77,2.75,2.76,5.51-1.53,7.16,2.45.28-.31.28-.61.55-.92,1.11-2.45,6.07-11.64,7.44-14.4,4.41-9.49,3.86,2.15,11.58,1.23,5.51-.61,14.33-10.72,18.74-6.13,1.11,1.23,1.66,6.44,2.48,8a17.32,17.32,0,0,1,2.48,5.2H92.2a16.07,16.07,0,0,1,10.2,4.6l.55-.92a20.24,20.24,0,0,0,1.65-3.37l.83-1.84a17.81,17.81,0,0,1,7.44-11.94c3.59-2.45,4.14,4,8,3.67s11.57-11.33,14.33-8.88c2.75,1.53,3,10.72,5,13.48a34,34,0,0,1,2.2,3.06,6.59,6.59,0,0,0,1.11,1.84c2.2-.31,7.16-8.27,9.37-8s4.41,9.81,6.06,11c-.83-7.66,11.85-24.81,12.13-24.81,1.65-.61,2.2,7,3.31,8.88,4.68.92,12.12-21.13,21.77-27.87,1.65-.92-1.93,15.31-1.38,16.23,0,0,25.91-16.54,19.57-20.21-1.65-.92-11.85.61-4.69-4.9,2.49-1.84,11.58-7.36,11.58-7.36,2.21-2.45,3.58-4.28,5.79-6.73a44.71,44.71,0,0,1,6.89-5.52c2.48-1.84,1.1-.3,2.2-.92.56-.3,2.21-4.59,3-5.51,2.75-4,10.19-7.66,14-4.29.83.61,0,1.53,0,2.76-.55,4.9-.82,2.45-1.93,6.12-1.37,5.21.55,5.82-1.65,12.26-1.93,5.2.28,2.14.55,6.43,0,5.82-5.79,6.43-2.2,10.41,1.65,1.84-5.52,11.64-7.72,12.56s-2.48-.3-3.86.31c-.28.3,0,.61.28.92h-4.41c0-.92-.28-2.15-.28-2.76,0-4-.83-2.76-.83-4,0-2.15,2.48-2.15.83-8.27-.55-3.07,1.1-2.45,1.1-3.37-.27-2.15,0-1.53,2.48-5.21.83-.92,1.38-2.45,2.21-3.37s3.86-6.74,1.93-7.66c-2.76-1.22-7.17,7.66-9.37,9.5-3,2.76-3.86,2.76-1.38,7.66,4.68,9.8-8.82,11.33-6.89,23.28.82,0,.82,7,1.65,7.35,5,.61,10.47-2.15,12.4,3.37.56,1.22,3.31-11,3.59-9.5,1.1,0,0,13.79,1.38,14.4s1.92,5.51,2.75,5.51a.8.8,0,0,1,.55.31c1.93.61,6.34-14.4,7.72-13.48,2.48.92,2.21,13.17,3.86,15,4.13,4.29,1.65,2.45,4.41-3.06a21.4,21.4,0,0,1,1.65-3.68c.55-1.84-1.65-13.17.28-14.4,12.13,2.76,9.92,16.24,17.09,12.56h.27c2.48-.3,5.24-4.9,7.72-3.67.55.3,1.1-7.35,1.93-6.74a19.51,19.51,0,0,1,9.65,8.58,13.3,13.3,0,0,0,8.26.61c6.62-4.6,11.3-9.19,16.82-3.68,2.75,1.53,4.13,5.21,6.06,8,.55.61,1.1,1.83,1.93,2.75.28.62.83,1.53,1.1,2.15h.55l1.38-6.13c1.93,0,3.86,6.43,5.79,6.74a26.73,26.73,0,0,1,9.92,4v-.3a1.14,1.14,0,0,1,.28-.62c.55-2.45-1.11-9.49-.83-10.1l3.58,4c3.86-8.58,7.72-.31,8.82-2.45l-28.11-19.91ZM210.72,52.11c-18.19-1.53-15.44-7.65-1.11-3.06,2.21,1.23.28,1.23,1.66,2.45C211.82,52.11,211.54,52.11,210.72,52.11Zm-3.31,10.72a7.42,7.42,0,0,1-9.65,2.45c-.55-.3-.55-5.82.55-6.12C201.35,57.93,208.51,61.61,207.41,62.83ZM166.34,65q-.48,4.11-.55,8.27a63.31,63.31,0,0,1-1.65,11.33c-.55,3.37,11.85,5.21,2.75,4-4.41-.61-11.3,4.6-12.95.62-.83-2.15-1.65-3.37-2.48-5.21-3.31-7,9.92.61-1.38-9.8,11-3.07,1.66-1.84-.55-4-.83-.92,1.93-3.07,3.31-3.07s3.3-12.56,3.86-16.84.55-8.27,1.1-12.56V37.1a75.15,75.15,0,0,0,1.65-13.47c0-2.45,1.38-6.74,3.59-4.6a17.55,17.55,0,0,0,3.3,6.43c6.07,8.28,1.93,0,6.62.92,2.48.31,2.75,3.37,6.34,5.21,1.65.92,8.82,12.25-8.27,3.37C152.56,25.16,171,43.23,166.34,65Zm-4.41,30c-6.61-1.23-3-3.07-1.65-2.76a6,6,0,0,1,2.2,1.53C165,95.3,165,95.61,161.93,95ZM139.61,56.71c-.28,2.14,0,2.75-.28,4.9-.27,3.06-3.58,4.29-.27,7.66s3,5.2,2.2,6.43a76.26,76.26,0,0,1-8.54-8c-2.76-3.07-.83-1.23-.28-6.44l.28-1.22a31,31,0,0,0-1.11-7c-.82-8.57,1.66-7,1.93-9.19.28-2.75-.55-2.75.56-5.82,2.48-8.88,12.12-6.12,6.06-10.72-1.93-1.53-3-1.22-4.14,1.53-1.65,4.91-3,3.07-5.23,5.52-1.38,1.53-3.31,1.22-3,2.45a6.06,6.06,0,0,1,0,4.9c-.83,2.14-1.93.61-1.38,3.37.55,3.67-.28,1.84-.28,4s-.27,3.68,1.66,3.68c-.28.61-2.21.92-1.38,2.75,1.38,2.76-1.93,1.23-2.76.31-5.79-4.6-10.2-8-5.79-13.78a59.78,59.78,0,0,1,5.24-6.74c0,.3-.55,4,1.1,2.75,2.48-1.53-1.37-5.51,1.11-7.35l.82-.3.83-.31c1.1-.31,1.65-.31,2.2-1.53-2.48,0-2.48.3.28-1.84a58,58,0,0,0,7.17-7.35c2.48-3.06,2.48-1.84,3.58-2.45,2.2-1.53,1.1-4.29,4.68-4.29,1.93,0,2.49.31,4.14-.92,2.76-2.14,6.61-5.21,10.2-4.29-1.11,2.76-.83.31-1.38,4.29a21.73,21.73,0,0,0-1.1,4.6A8.88,8.88,0,0,1,155.32,20c-1.66,3.37,1.93,1.84-.55,3.06-1.11.62-6.07,6.74-5.79,8,1.38,2.14,2.48.3-.55,4.9-1.93,3.37-5.79,12.25-7.72,14.7S139.88,53.34,139.61,56.71ZM99.09,91.63c-.55.61.83,4-1.65,3.37.83.92,2.48,1.83.83,3.06-1.11.92,0,1.53-.83,3.06s-1.93-.61-3.31.31-3,1.53-3-.92,3.58-16.23,2.2-16.85-6.06,8.27-10.47,18.08c-1.38,3.06-7.44,11.33-13.23,11-.27,2.15,3.31-7,2.48-8.88-1.65-4-12.68,13.78-16.81,12.25-2.76-1.22,4.13-14.7,4.68-16.23,1.11-2.15,13.51-27.57,23.16-35.23.82-.92.82-1.22,1.65-1.22a8.56,8.56,0,0,1-.28-3.07c.28-.61-.27-1.83.56-2.45,3-2.14-1.11-3.37,3-5.51,1.38-.61,1.38,1.23.27-2.14-1.65-4.6.83-1.84-1.1-6.13-1.65-3.37.28-5.21,3.31-5.21,1.38,0,8.54,2.76,9.09,4a1.93,1.93,0,0,1-1.1,2.15c-4.41,1.22.28,2.45.55,6.12.28,2.46,1.38,5.52,2.48,5.52,8.82.3-8.27,9.8-5.23,17.76.27.62,4.13,3.68,3,4.91C95.78,84,102.68,88.26,99.09,91.63ZM18.89,106c3.3-4,9.37-17.15,11.85-17.46a35.85,35.85,0,0,0,2.75-4.28,47.59,47.59,0,0,0,.83-7c0-3.06-12.4,15.32-14,15.93-.56.31-.56,5.21-.83,5.51C20.82,99.59,17.51,103.88,18.89,106Z" transform="translate(-5 -2.49)"/><path class="mountain2-cls-1" d="M643.16,106.64v-.31c-.55-.61-1.65-1.22-1.65-1.53.83-.92-1.65-.92-2.21-1.23a84.56,84.56,0,0,1-11.57-2.75c-2.48-1.53-.55-3.07-3-5.82a97.09,97.09,0,0,1-7.45-8,13,13,0,0,0-5-5.51,67.93,67.93,0,0,0-6.06-4c-3.86-2.45-2.48-4.6-8.54-7.05-8-3.06-6.34-6.43-9.93-8.57A14.24,14.24,0,0,1,582,56.71c-2.76-3.37-6.62-4.6-9.65-6.74-6.62-4.29-7.17-5.82-15.44-4.6-11,1.84-5,4.6-10.19,5.52-3.59,1.22-.56,7-8.27,2.45a36.67,36.67,0,0,1-11.58-9.5c-1.93-2.75,2.21-1.22-4.13-4.29a61.07,61.07,0,0,1-11-8.57l-.55-.31c-2.48-1.22-2.2-.3-3.58-2.45-1.66-2.76-1.93,0-3.86-3.06-5.51-8.58-8-5.21-15.16-11.34-1.65-1.22-5,0-8.82-4.28-1.1-1.23-1.93-1.84-3-3.07a13.47,13.47,0,0,0-7.17-4h-1.38c-3.58.31-5.78,4.29-11.85,5.52-7.44,1.83-8.54,4.28-13.5,10.41a40.75,40.75,0,0,1-8.27,7.66c-4.13,3.67-4.13,5.51-6.62,10.11-1.1,1.53-5.51,8.57-7.16,7.65a31.16,31.16,0,0,1-8.82-7.65c-1.1-2.15-.28-2.15-2.76-2.76-1.1-.31-1.65-1.23-2.48-1.84-2.2-1.84-5-3.37-7.16-5.51-4.14-3.68-3.59-1.53-8.55-1.84s-2.75.31-6.89,3.37-8.82,3.37-12.95,8a44.19,44.19,0,0,1-7.44,7.35,39,39,0,0,0-8.27,8.58,55.29,55.29,0,0,1-3.31,7A67.22,67.22,0,0,1,337.5,72.64c-3,2.14-3,.92-5.23,4.9a9.08,9.08,0,0,1-4.69,4.59c-5.24,2.15-3.86,1.53-7.17,6.74-.55.61-3.58,2.76-4.13,3.37.83.61-3.58,7.66-2.76,8.27,2.21-1.84,12.41-11.33,13.78-12.86a33.37,33.37,0,0,1,6.34-6.44c2.21-1.83,3.31-3.67,5.52-5.51.27-.31,2.2-1.84,2.2-2.14s-.28-.31.55-.92a23,23,0,0,0,3.31-2.45c4.13-3.68,11.85-11.95,13.5-17.46.56-1.54.56-3.68,1.93-3.37s2.21-1.23,2.76-2.15,9.1-8.88,9.65-8c0,.61-1.11,3.06.55,3.37s1.38-2.15,2.2-2.15,9.37-11.64,15.71-12.25c3.59-.3,1.93,2.45,1.93,2.45-1.65,0-4.13,3.37-1.38,2.45s1.93.92.56,2.76c-1.11,1.22-8.55,8-7.72,9.19s.55.3-.83,2.14c-1.65,2.45-4.68-1.53-2.2,4,2.2,4.91-14.89,29.41-14.34,28.19-1.37.3-2.2-.62-2.75,1.83,0,.31,0,.31-.28.62a50.25,50.25,0,0,0-7.71,7c-1.66,1.84,3.3,1.53.82,3.06a72.31,72.31,0,0,0-3.86,8c0,1.22-.82,1.53-1.93,2.14s-.27,3.07-2.75,2.15c-1.38-.62-8,10.41-12.68,16.54,3,1.53.27,6.43,2.2,8.27,4.41-1.84,7.17-6.13,11-10.11,3.31,1.22-3.31,17.46-2.76,17.76,2.76,2.76,5.52-1.53,7.17,2.46.27-.31.27-.62.55-.92,1.1-2.45,6.06-11.64,7.44-14.4,4.41-9.5,3.86,2.14,11.58,1.23,5.51-.62,14.33-10.73,18.74-6.13,1.1,1.22,1.65,6.43,2.48,8a18,18,0,0,1,2.48,5.21h3.31a16.06,16.06,0,0,1,10.2,4.59l.55-.91a20.24,20.24,0,0,0,1.65-3.37l.83-1.84a17.76,17.76,0,0,1,7.44-12c3.58-2.45,4.13,4,8,3.68s11.58-11.34,14.33-8.88c2.76,1.53,3,10.72,5,13.47a35.59,35.59,0,0,1,2.2,3.07,6.37,6.37,0,0,0,1.1,1.83c2.21-.3,7.17-8.27,9.37-8s4.41,9.8,6.07,11c-.83-7.66,11.85-24.81,12.13-24.81,1.65-.62,2.2,7,3.3,8.88,4.69.92,12.13-21.14,21.78-27.88,1.65-.91-1.93,15.32-1.38,16.24,0,0,25.91-16.54,19.57-20.22-1.66-.92-11.85.62-4.69-4.9,2.48-1.84,11.58-7.35,11.58-7.35,2.2-2.45,3.58-4.29,5.79-6.74a44.64,44.64,0,0,1,6.89-5.51c2.48-1.84,1.1-.31,2.2-.92.55-.31,2.21-4.6,3-5.51,2.76-4,10.2-7.66,14.06-4.29.83.61,0,1.53,0,2.75-.55,4.9-.83,2.45-1.93,6.13-1.38,5.21.55,5.82-1.65,12.25-1.93,5.21.27,2.15.55,6.44,0,5.81-5.79,6.43-2.21,10.41,1.66,1.84-5.51,11.64-7.71,12.56s-2.49-.31-3.86.3c-.28.31,0,.62.27.92h-4.41c0-.92-.27-2.14-.27-2.75,0-4-.83-2.76-.83-4,0-2.14,2.48-2.14.83-8.27-.55-3.06,1.1-2.45,1.1-3.37-.28-2.14,0-1.53,2.48-5.2.83-.92,1.38-2.45,2.2-3.37S550,69.88,548.07,69c-2.75-1.22-7.16,7.66-9.37,9.5-3,2.75-3.86,2.75-1.37,7.65,4.68,9.81-8.82,11.34-6.9,23.28.83,0,.83,7,1.66,7.35,5,.62,10.47-2.14,12.4,3.37.55,1.23,3.31-11,3.58-9.49,1.11,0,0,13.78,1.38,14.4s1.93,5.51,2.76,5.51a.82.82,0,0,1,.55.3c1.93.62,6.34-14.39,7.72-13.47,2.48.92,2.2,13.17,3.86,15,4.13,4.28,1.65,2.45,4.41-3.07a20.89,20.89,0,0,1,1.65-3.67c.55-1.84-1.65-13.17.27-14.4,12.13,2.76,9.93,16.24,17.09,12.56H588c2.48-.31,5.24-4.9,7.72-3.68.55.31,1.1-7.35,1.93-6.73a19.48,19.48,0,0,1,9.64,8.57,13.33,13.33,0,0,0,8.27.61c6.62-4.59,11.3-9.18,16.81-3.67,2.76,1.53,4.14,5.21,6.07,8,.55.62,1.1,1.84,1.93,2.76.27.61.82,1.53,1.1,2.14h.55l1.38-6.12c1.93,0,3.86,6.43,5.79,6.74a26.46,26.46,0,0,1,9.92,4V136a1.1,1.1,0,0,1,.27-.61c.56-2.45-1.1-9.5-.82-10.11l3.58,4c3.86-8.57,7.72-.3,8.82-2.45ZM519.41,52.11c-18.19-1.53-15.43-7.65-1.1-3.06,2.2,1.23.27,1.23,1.65,2.45.55.61.28.61-.55.61ZM516.1,62.83a7.41,7.41,0,0,1-9.64,2.45c-.56-.3-.56-5.82.55-6.12C510,57.93,517.2,61.61,516.1,62.83ZM475,65a81.44,81.44,0,0,0-.56,8.27,63.31,63.31,0,0,1-1.65,11.33c-.55,3.37,11.85,5.21,2.76,4-4.41-.61-11.3,4.6-13,.62C461.81,87,461,85.81,460.15,84c-3.31-7,9.92.61-1.38-9.8,11-3.07,1.66-1.84-.55-4-.82-.92,1.93-3.07,3.31-3.07s3.31-12.56,3.86-16.84.55-8.27,1.1-12.56V37.1a74.25,74.25,0,0,0,1.65-13.47c0-2.45,1.38-6.74,3.59-4.6A17.57,17.57,0,0,0,475,25.46c6.06,8.28,1.92,0,6.61.92,2.48.31,2.76,3.37,6.34,5.21,1.65.92,8.82,12.25-8.27,3.37-18.47-9.8,0,8.27-4.68,30Zm-4.41,30c-6.62-1.23-3-3.07-1.66-2.76a6.07,6.07,0,0,1,2.21,1.53C473.66,95.3,473.66,95.61,470.63,95ZM448.3,56.71c-.28,2.14,0,2.75-.28,4.9-.27,3.06-3.58,4.29-.27,7.66s3,5.2,2.2,6.43a76.26,76.26,0,0,1-8.54-8c-2.76-3.07-.83-1.23-.28-6.44l.28-1.22a31.58,31.58,0,0,0-1.1-7c-.83-8.57,1.65-7,1.93-9.19.27-2.75-.55-2.75.55-5.82,2.48-8.88,12.13-6.12,6.06-10.72-1.93-1.53-3-1.22-4.13,1.53-1.66,4.91-3,3.07-5.24,5.52-1.38,1.53-3.31,1.22-3,2.45a6.06,6.06,0,0,1,0,4.9c-.83,2.14-1.93.61-1.38,3.37.55,3.67-.27,1.84-.27,4s-.28,3.68,1.65,3.68c-.28.61-2.21.92-1.38,2.75,1.38,2.76-1.93,1.23-2.76.31-5.78-4.6-10.19-8-5.78-13.78a58.56,58.56,0,0,1,5.23-6.74c0,.3-.55,4,1.11,2.75,2.48-1.53-1.38-5.51,1.1-7.35l.82-.3.83-.31c1.1-.31,1.66-.31,2.21-1.53-2.48,0-2.48.3.27-1.84a58,58,0,0,0,7.17-7.35c2.48-3.06,2.48-1.84,3.58-2.45,2.21-1.53,1.1-4.29,4.69-4.29,1.93,0,2.48.31,4.13-.92,2.76-2.14,6.62-5.21,10.2-4.29-1.1,2.76-.83.31-1.38,4.29-.27,1.53-.83,2.76-1.1,4.6A8.75,8.75,0,0,1,464,20c-1.65,3.37,1.93,1.84-.55,3.06-1.1.62-6.34,6.74-6.06,8,1.37,2.14,2.48.3-.56,4.9-1.92,3.37-5.78,12.25-7.71,14.7s-.55,2.76-.83,6.13ZM407.78,91.63c-.55.61.83,4-1.65,3.37.83.92,2.48,1.83.83,3.06-1.1.92,0,1.53-.83,3.06s-1.93-.61-3.31.31-3,1.53-3-.92,3.58-16.23,2.21-16.85-6.07,8.27-10.48,18.08c-1.38,3.06-7.44,11.33-13.23,11-.27,2.15,3.31-7,2.48-8.88-1.65-4-12.67,13.78-16.81,12.25-2.76-1.22,4.14-14.7,4.69-16.23,1.1-2.15,13.5-27.57,23.15-35.23.83-.92.83-1.22,1.65-1.22a8.56,8.56,0,0,1-.27-3.07c.27-.61-.28-1.83.55-2.45,3-2.14-1.1-3.37,3-5.51,1.38-.61,1.38,1.23.28-2.14-1.66-4.6.82-1.84-1.11-6.13-1.65-3.37.28-5.21,3.31-5.21,1.38,0,8.54,2.76,9.1,4a2,2,0,0,1-1.11,2.15c-4.41,1.22.28,2.45.55,6.12.28,2.46,1.38,5.52,2.49,5.52,8.81.3-8.27,9.8-5.24,17.76.27.62,4.13,3.68,3,4.91-3.58,4.59,3.31,8.88-.28,12.25ZM327.58,106c3.31-4,9.37-17.15,11.85-17.46a37.22,37.22,0,0,0,2.76-4.28,49,49,0,0,0,.82-7c0-3.06-12.4,15.32-14.05,15.93-.55.31-.55,5.21-.83,5.51C329.51,99.59,326.2,103.88,327.58,106Z" transform="translate(-5 -2.49)"/></svg>