<svg id="sp_three" data-name="Layer 1" xmlns="http://www.w3.org/2000/svg" viewBox="0 0 713.01 625.28"><defs><style>.sp_three-cls-1,.sp_three-cls-4{fill:#323c3f;}.sp_three-cls-1{stroke:#323c3f;stroke-miterlimit:10;stroke-width:10px;}.sp_three-cls-2{fill:#18272d;}.sp_three-cls-3{fill:#a57d4c;}</style></defs><title>sp-03</title><path class="sp_three-cls-1" d="M449.2,809.8H426c2.5-64.1,9-53,14.8-140.7-3.6-29.6-32.4-67-48.9-88.3-5.7-7.4-16.6-18.7-19.6-27.2-5.3-15.1,2.4-26.7,7.6-38.9,4.9-11.6,9.6-22.7,14.4-34.4,5-12,9.5-20.4,14.5-32,6-14.2,9.6-19.7,28.4-20-2.1-33.6,51.2-48,61.2-19.7,5.4-9,19.9-10.1,28.3-8.6,12.3,2.3,24.8,10.2,24.1,26.7,12.9-6.2,44.8,10.4,40.1,28.6,49.8,1,40.6,61.9,40.2,86.1-.2,23.4.4,50.9-7,72.4-3.6,10.4-8.7,18.2-12.6,27.7-7,17.2-12.5,23.3-16.1,41.4-1.4,7-1.1,16.9-.9,23.9l11.9,102.9H426" transform="translate(-143.5 -189.52)"/><path class="sp_three-cls-2" d="M497.9,657.5c23,2.2,29.7-6.8,38-20.2-3.8,14.4-10.6,27.2-25.6,31.8l-2.2,138c-9.5-65.4-16.9-71.7-20.6-140.3-13,1.3-26.4.6-27.1,9.2-7.6,95.3-11.8,38.7-11.1,134.5H426.1c-.1-46.7,9-53,14.8-140.7-3.6-29.6-32.4-67-48.9-88.3-5.7-7.4-16.6-18.7-19.6-27.2-5.3-15.1,2.4-26.7,7.6-38.9,4.9-11.6,9.6-22.7,14.4-34.4,5-12,9.5-20.4,14.5-32,6-14.2,9.6-19.7,28.4-20-2.1-33.6,51.2-48,61.2-19.7,5.4-9,19.9-10.1,28.3-8.6,12.3,2.3,24.8,10.2,24.1,26.7,12.9-6.2,44.8,10.4,40.1,28.6,49.8,1,40.6,61.9,40.2,86.1-.2,23.4.4,50.9-7,72.4-3.6,10.4-8.7,18.2-12.6,27.7-7,17.2-12.5,23.3-16.1,41.4-1.4,7-1.1,16.9-.9,23.9l11.9,102.9h-9.9c-1.6-82.8-7.3-19.3-15.7-102.1-2.4-24.8-11.8-32.6-27-43.1-4.3,15.2-4.6,21.2-8,26.8l.8-31.7h-.1c41.6-1.8,48.4-3.8,67.9-44.3,10.3-21.4,9.9-75,1.6-81.4-1.5,0-2.1.7-4.8,2.4-2.5,1.6-5.3,2.2-6.4,3.2.7,6.1,6.3,2.2,10.4,5.3-6.6,1.8-11.6.1-17.3,3.6a18.93,18.93,0,0,0-6.3,5.8c5.9,3.4,12.4,1.2,13.5,5.3-2.5-1.9-10.2-1.8-18.2-1.1-2.9,4.2-8.3-4.9-24.3-3-5.8.7-13.1,3.2-19.9,4.7,9.7,8.5,18.6,17.8,25.3,29.3-10.7-10-18.4-21.6-36.7-28.3a8.44,8.44,0,0,1-2.4-.6,7.22,7.22,0,0,1-2-.9h-.1c-9.7-4.8-15.8-16.4-20-9.6-6,9.8,25.3,18.8,27.3,64.5-13.6-44.4-37.9-56.6-65.7-79.6-10.5-8.6-10.8,4.6-30.3,4.8,7.5-2.4,10.8-10.8,11.5-16.4-8.4-3.3-17.8-2.9-27.6-1.4,7.1-4.1,23-9.3,23.1-18.5.1-4.4-.8-2.9.8-6.7,6.3-14.2-3.7-13.5-4.9-20.5,4.2.1,11.4,8,31.6.9,10-3.5,17.1-9.1,25.1-14.1,7.6-4.8,16.5-7.9,18-17.7,3.2-20.1-25.1-8.3-55.9-10.5-37-2.6-37.5-1.6-47,24-10.5,28.3-32,60.6-20.9,85.9,4.5,10.2,8.1,14.5,16.5,21.4,24.2,22.1,33.9,52.4,56.7,75.7,9.1,8.9,22.7,13.4,32.7,15Z" transform="translate(-143.5 -189.52)"/><path class="sp_three-cls-3" d="M510.8,668.6" transform="translate(-143.5 -189.52)"/><path class="sp_three-cls-3" d="M349.6,522.8c-3.3-.5-6.3-1.1-9.7-1.5-11.1-1.4-23.2-2.7-34.1-4.9-2.2-.4-2.9-.3-2.7-2.6a13.89,13.89,0,0,1,.6-1.9c8.3.3,17.6,1.8,25.9,2.9,3.4.4,21.1,2.6,23,4.1s1.7,4-1.5,4l-1.5-.1Z" transform="translate(-143.5 -189.52)"/><path class="sp_three-cls-3" d="M143.5,494.4c.2-4.6.7-3.4,5.5-2.9,27,3.1,54,7.3,81,10.8,5.7.7,43.6,5.5,45.6,6.6.4.3.7,4.6-.8,4.4-14.6-1.8-29.1-4-43.7-5.9-27.5-3.6-55-7-82.4-11.1l-4-.7c-1.2-.1-1.1.3-1.2-1.2Z" transform="translate(-143.5 -189.52)"/><path class="sp_three-cls-3" d="M697.7,739c-17.7-19.7-35.6-39.3-53.1-59.1-1.2-1.4-4.5-5-4-7,1.3-5.4,5.6,1.3,7.1,3,15,17.3,30.6,34.4,45.9,51.4,10,11.1,20.2,22.2,29.9,33.4,1.4,1.7,2.7,3.3,4,5.1-2.8,4.1-3.3,2.7-6-.1-8.2-8.6-15.9-17.8-23.8-26.7Z" transform="translate(-143.5 -189.52)"/><path class="sp_three-cls-3" d="M661.6,281.9c-.4,1.1-2.5,5.3-3.7,5.5-1,.1-2.8-1.1-3.6-1.6.2-1.9,2.8-5,4-6.5,1,.3,3.7,1.3,3.3,2.6Z" transform="translate(-143.5 -189.52)"/><path class="sp_three-cls-3" d="M681.9,772.2c-2.8,2.6-3.9,1.5-5.7-1.5-1-1.7-1.2-3.2.7-4.3,1.4-.8,1.7-.3,2.7.8.5.6,3,3.8,2.8,4.4l-.5.6Z" transform="translate(-143.5 -189.52)"/><path class="sp_three-cls-3" d="M773.7,728.3c2.7,2.1,2.5,1,.5,3.9-1,1.4-1,1.5-2.8.2-1.4-1-2.8-2.1-4.2-3.1,2.5-5.1,2.1-4.5,6.5-1Z" transform="translate(-143.5 -189.52)"/><path class="sp_three-cls-3" d="M690.8,753.5c-2.8,3-3.2,1.3-5.3-1.6s-4-5.2-6-8.1c.6-.9,2.6-3.8,3.8-2.6,1.5,1.4,7.8,9.6,8,11.3l-.5,1Z" transform="translate(-143.5 -189.52)"/><path class="sp_three-cls-3" d="M662.9,720.5c2.7-3.3,2.8-2.1,5.4,1.3,1.4,1.8,9.7,11.6,9.4,12.9-.3,1.1-2.1,2.9-3.6,2.1-1.8-1-9.6-12-11-14.3-.8-1.1-1-.8-.2-2Z" transform="translate(-143.5 -189.52)"/><path class="sp_three-cls-3" d="M660.1,712c-2.5,4.7-4.5,1.7-6.7-1.3-3.1-4.2-7-8.8-10.4-12.9-11-13.5-17-20.8-27.7-34.6-.4-.5-1.9-2.7-1.9-3.3,0-.3,2.1-3.5,3.7-2.2.9.7,5,6.4,6.5,8.2,13,16.1,21.1,25.9,33.8,42.2a39.48,39.48,0,0,1,2.6,3.5l.1.4Z" transform="translate(-143.5 -189.52)"/><path class="sp_three-cls-3" d="M648.2,728.5c-1.9-2.3-13.1-16.6-12.4-18.6s2.3-2.7,3.9-1c2.2,2.4,5.6,7.3,7.6,10,.7,1,5.7,8,5.6,8.8a2.37,2.37,0,0,1-3.9,1.5l-.8-.7Z" transform="translate(-143.5 -189.52)"/><path class="sp_three-cls-3" d="M630.4,704.1c-1.8-1.8-5.2-6.5-6.9-8.7s-13.7-17.5-12.9-19.7c1.9-4.8,5.6,1.5,7.1,3.4,5,6.4,10.9,13.9,15.1,20.8.8,1.4,2.9,4.2.2,5.1a2.55,2.55,0,0,1-2.6-.9Z" transform="translate(-143.5 -189.52)"/><path class="sp_three-cls-3" d="M661.8,774.9a1.66,1.66,0,0,1-.8,1.5c-3.1,2.6-4-.8-5.5-3.4-8-12.7-4-5.8-11.7-18.6s-15.7-25.4-23.4-38.2c-1.3-2.2-8.6-14-8.6-16.1s1.4-4.1,3.5-1.7c3,3.3,8.9,13.8,11.3,18,10.9,18.7,23.4,36.9,33.9,55.6.1.5,1.3,2.3,1.3,2.9Z" transform="translate(-143.5 -189.52)"/><path class="sp_three-cls-3" d="M646.6,789.9c-1.2,2.2-2.9,2-4.2,0-.9-1.4-2.1-3.9-3-5.5-1-1.9-5.8-9.9-4-11.7,3.5-3.5,5.6,3.6,6.8,5.9.8,1.7,5,9.8,4.4,11.3Z" transform="translate(-143.5 -189.52)"/><path class="sp_three-cls-3" d="M633.8,764.4c-1.1,2.6-3.2,1.5-4.4-.4-3.5-5.6-7.1-12.5-10.1-18.4-.7-1.4-4.5-8.7-4.1-10s2.3-2.6,3.8-1.2,15,28.1,14.8,29.6v.4Z" transform="translate(-143.5 -189.52)"/><path class="sp_three-cls-3" d="M733.9,697.6c4.6,3.2,4.5,2.2,1.8,6-.7,1-1.4.3-2.4-.4-2.2-1.6-4.5-3.3-6.5-5,3.3-5.1,1.8-4.5,7.1-.6Z" transform="translate(-143.5 -189.52)"/><path class="sp_three-cls-3" d="M737.9,755.8a35.7,35.7,0,0,1-5.5-6.1c2.4-5.2,3.2-3.2,6.8.5.9.9,5.1,4.9,4.8,6s-1.7,2.8-3.1,2.1a33.09,33.09,0,0,1-3-2.5Z" transform="translate(-143.5 -189.52)"/><path class="sp_three-cls-3" d="M715.7,734.8c-6.2-5.9-12.9-12-18.4-18.4.4-.6,2.1-3.7,2.9-3.1,1.8,1.2,8.4,7.8,10.2,9.6,4.4,4.3,8.8,8.6,13.1,13-4,4.7-2.8,3.7-7.8-1.1Z" transform="translate(-143.5 -189.52)"/><path class="sp_three-cls-3" d="M680.1,698.3c2.5-3.9,2.6-2.9,5.9.4,1.1,1,6.9,6.2,6.7,7.2s-1.7,3.4-3.2,2.5-7.1-6.3-8.7-8c-1.1-1.1-1.4-.7-.7-2.1Z" transform="translate(-143.5 -189.52)"/><path class="sp_three-cls-3" d="M762,636.9c-.9,4.9-1.7,3.9-5.5,2.6-4.8-1.7-15.5-5.1-19.4-7.6.5-5.8,1.6-4.1,6.8-2.2,1.9.7,17.8,6.3,18.1,6.9v.3Z" transform="translate(-143.5 -189.52)"/><path class="sp_three-cls-3" d="M637.6,594.4c.6-4.7,1.7-3.3,6-1.6,13.3,5.2,27,10,40.5,14.9,14.3,5.2,28.8,10.4,43,16a60.32,60.32,0,0,1,5.8,2.6c0,1.1-.3,3.7-1.8,3.6-3.1-.3-18.1-6-21.9-7.5-10.8-4.1-21.5-8.1-32.4-12.1-11.3-4.1-22.8-8.2-34-12.6-.8-.3-5-1.9-5.3-2.5l.1-.8Z" transform="translate(-143.5 -189.52)"/><path class="sp_three-cls-3" d="M813.2,684.6c-10.5-4.2-22.6-10.4-33-15.3-30.4-14.2-60.8-28.2-91.1-42.6a67.87,67.87,0,0,1-7.5-4.1c.9-6.1,3-3.7,7.4-1.4,4.8,2.5,10.5,5,15.4,7.4,34.6,16.4,69.5,32.2,104.2,48.6,2.7,1.3,5,2.5,7.6,4-.2.9-.8,3.4-1.8,3.6l-1.2-.2Z" transform="translate(-143.5 -189.52)"/><path class="sp_three-cls-3" d="M788.3,694.8a189.77,189.77,0,0,1-17-9.6c2-5.4,1.5-4.5,6.6-1.6,4.7,2.6,9.2,5.1,13.8,8-.3.8-1.3,3.5-2.3,3.6l-1.1-.4Z" transform="translate(-143.5 -189.52)"/><path class="sp_three-cls-3" d="M657.6,622.7c-.1-1.1.7-3.8,2.1-3.6.6.1,10.8,5.8,12.5,6.7,14,7.5,28.1,14.8,42,22.7a23.62,23.62,0,0,1,4.2,2.8c-1.5,5-2.3,3.6-6.6,1.4-13.1-6.6-25.8-14-38.8-20.9-1.7-.9-14.9-7.8-15.3-8.9l-.1-.2Z" transform="translate(-143.5 -189.52)"/><path class="sp_three-cls-3" d="M766.7,677.5c-.3.8-1.4,3.6-2.3,3.7-2.9-1-8.2-4.1-11-5.6-2.2-1.2-18.2-10-18.9-10.8-.8-1,1.2-4,1.4-4.1,1.3-.3,27.3,14.6,30.6,16.7l.2.1Z" transform="translate(-143.5 -189.52)"/><path class="sp_three-cls-3" d="M660.4,647.5c.2-1.1.9-3.5,2.4-2.9,2.5.9,16.5,12.2,18.7,14.6a4.55,4.55,0,0,1-2.2,3c-2.7-1.3-18.5-12.3-18.9-14.4v-.3Z" transform="translate(-143.5 -189.52)"/><path class="sp_three-cls-3" d="M685.2,666.7c.1-1,1.2-3.7,2.6-3.3.6.2,10.4,7.7,11.9,8.9,6.7,5,13.9,10.1,20.3,15.3,2.3,1.8,2.1,1,.9,3-1.8,3-2.1,2.1-4.8,0-5.9-4.6-12.3-9-18.3-13.6-1.2-.9-12.5-9.3-12.6-10.1v-.2Z" transform="translate(-143.5 -189.52)"/><path class="sp_three-cls-3" d="M625.4,632.2c1.1-4.6,4.4-.7,6.3,1.1,7.2,6.6,11,9.5,18.4,16,6.8,5.9,13.9,11.9,20.5,17.9,1.5,1.4,3,2.9,4.5,4.4-.5,1-1.8,3.5-3.1,2.7-3.1-1.9-8.4-6.7-11.3-9.2-8.5-7.4-16.7-14.9-25.3-22.2-2.5-2.1-8.3-6.7-9.5-8.7a2.14,2.14,0,0,1-.5-2Z" transform="translate(-143.5 -189.52)"/><path class="sp_three-cls-3" d="M695,691.4c1.9-4.2,3.1-2.2,6,.4,6,5.5,12.7,10.9,18.9,16.2,24,20.3,32.7,27.2,56.6,47.6a57.65,57.65,0,0,1,6.2,5.9c-2,4.2-2.8,3-5.8.8-8.7-6.6-1.7-1.3-10.2-8.4-22.2-18.7-44.5-37.2-66.5-56.1-.9-.8-5.4-4.6-5.5-5.5l.3-.9Z" transform="translate(-143.5 -189.52)"/><path class="sp_three-cls-3" d="M200.1,730.4c1.8-2.2,11.5-8.1,14.5-9.9,8.6-5.3,17-10.4,25.6-15.8,5.9-3.7,58.8-37.3,60.4-37,.7.1,3.5,2.7,1.9,3.9-3.5,2.5-8.2,5.1-11.9,7.4-14.7,8.9-29.4,18.4-43.9,27.5q-19,12-38.1,23.8c-1.2.8-5.6,3.6-6.9,3.4a2.36,2.36,0,0,1-1.6-3.3Z" transform="translate(-143.5 -189.52)"/><path class="sp_three-cls-3" d="M288.3,692.8c16.1-11.7,32.1-23.9,48.4-35.2a41.94,41.94,0,0,1,5-3.1c.8.5,3.4,2.4,2.5,3.5-1,1.3-19.8,14.7-22.7,16.9l-35.7,25.8c-4-5.3-3.8-3.3,2.5-7.9Z" transform="translate(-143.5 -189.52)"/><path class="sp_three-cls-3" d="M278.8,705.8c-1.1.8-7.1,5.5-8,5.1-.5-.2-3.4-2.8-1.9-3.9,3.4-2.6,7-5,10.5-7.5,3.5,4.6,3.6,3.3-.6,6.3Z" transform="translate(-143.5 -189.52)"/><path class="sp_three-cls-3" d="M258.5,715c1.3-.8,1.6-.2,2.7,1.2,1.8,2.2.2,2.5-1.8,3.8-1.8,1.1-3.5,2.5-4.9-.5-.9-2.1,2.6-3.6,4-4.5Z" transform="translate(-143.5 -189.52)"/><path class="sp_three-cls-3" d="M369.9,654.1c-.6.4-.8-.3-1.5-1.1-2.6-2.8-1-2.8,1.7-5.1,3.1-2.5,21.8-19.1,23.8-19.2.8,0,4,2,2.1,3.9-.9.9-3.7,2.9-4.9,3.9-7.1,5.8-13.9,11.9-21.2,17.6Z" transform="translate(-143.5 -189.52)"/><path class="sp_three-cls-3" d="M249,746.6c9.1-8.2,19.5-15.8,29-23.6,7.5-6.1,80.4-65.7,81.7-65.6.5,0,3.7,2.7,2.6,3.7-15.1,12.3-30.4,24.5-45.5,36.7-20.5,16.6-40.9,33.4-61.5,49.8a50.39,50.39,0,0,1-7.1,5c-3.8-2.5-2.1-3.3.8-6Z" transform="translate(-143.5 -189.52)"/><path class="sp_three-cls-3" d="M239.2,691.7a37.6,37.6,0,0,1-4.6,2c-.8-.8-2.7-2.8-1.4-3.9,2.5-2.1,12.1-7,15.4-8.8,9.2-4.8,18.3-9.6,27.5-14.5a52.38,52.38,0,0,1,4.8-2.3c3.4,4.9,2.8,3.7-2.9,6.8-13,6.8-25.6,14.1-38.8,20.7Z" transform="translate(-143.5 -189.52)"/><path class="sp_three-cls-3" d="M306.3,651.2c3.7,2.6.2,4.1-2.1,5.5-1.3.8-13.2,7.5-13.9,7.1-.5-.3-2.3-2.5-1.6-3.6.8-1.3,13.4-7.9,15.1-8.6.9-.5,1.6-.9,2.5-.4Z" transform="translate(-143.5 -189.52)"/><path class="sp_three-cls-3" d="M322.1,646.9a37.48,37.48,0,0,1-6.5,2.8c-3.4-3.3-1.1-3.9,2.3-6,9.8-6,20.5-11.2,30.6-16.8,2.5-1.4,40.4-23.5,41.8-23.3,1.2.1,2.9,2.8,2.5,3.4-1.1,1.2-65.5,37.2-70.7,39.9Z" transform="translate(-143.5 -189.52)"/><path class="sp_three-cls-3" d="M321.2,626c3.3,3.6,2.1,3.6-1.5,5.6-2.1,1.2-17.5,9.1-19,8.7-1.1-.3-2.3-2.4-.6-3.6,4.5-3.4,14.8-8.4,20.2-10.6.5-.3.5-.4.9-.1Z" transform="translate(-143.5 -189.52)"/><path class="sp_three-cls-3" d="M327.9,626.6c-1.1-.6-2.2-2.6-1.5-3.5,1.9-1.8,32.3-17.6,34-17.4.9.1,3.4,2.8,1.8,4-1,.8-7.7,4.1-9.3,4.9-2.8,1.4-5.6,2.8-8.3,4.3-2,1.1-14.9,7.8-16.4,7.8l-.3-.1Z" transform="translate(-143.5 -189.52)"/><path class="sp_three-cls-3" d="M236.1,649.1c-1,.4-5,2.3-5.8,2-1-.3-1.5-2.9-1.7-3.8a152.44,152.44,0,0,1,14.9-6.5c17.1-7,34.3-13.7,51.4-20.7,22.9-9.4,46.1-19,69.2-27.9,1-.4,8.2-3.4,8.9-3,1,.5,3.1,3.4.8,4.3-5.4,2.3-11.3,4.4-16.8,6.6-34.7,13.9-69.2,28.2-103.8,42.2-5.7,2.3-11.4,4.5-17.1,6.8Z" transform="translate(-143.5 -189.52)"/><path class="sp_three-cls-3" d="M253.3,621.8c-1.7.6-13.6,4.8-14.2,4.1-.8-.8-2-3.4-.7-4.2,2.3-1.2,9.8-3.5,12.6-4.3,2.2-.7,4.3-1.4,6.6-1.9,2.9,5.5,1.7,4.4-4.3,6.3Z" transform="translate(-143.5 -189.52)"/><path class="sp_three-cls-3" d="M323.2,593.4c3.2-1.1,25.7-9.1,27.2-8.6.8.2,2.8,3.4,1.2,4.3,0,0-9.9,3.2-10.3,3.4-7.4,2.6-14.7,5.1-22.3,7.1-2.6-5.2-1.2-4.2,4.2-6.2Z" transform="translate(-143.5 -189.52)"/><path class="sp_three-cls-3" d="M269.3,616.6a26.14,26.14,0,0,1-2.7.6c-2.6-5-1.4-4.1,4-6,8-2.8,16.6-5.9,24.7-8.2.7-.2,2.6-1,3.2-.4.8.9,2.2,3.3.7,4.1s-9.7,3.3-11.9,4c-6,2-11.9,4.1-18,5.9Z" transform="translate(-143.5 -189.52)"/><path class="sp_three-cls-3" d="M341.4,758.1c-.7-.2-3.8-1.9-3.7-2.6.1-.4,3.5-4.8,4-5.5,2.3-3.4,1.4-3.3,5-.6,1.3,1,.7,1-.5,2.6-.7.9-3.8,6-4.8,6.1Z" transform="translate(-143.5 -189.52)"/><path class="sp_three-cls-3" d="M310,724.3c.9-.9,5.3-5.4,6.3-5.3.8.1,3.4,2.5,2.9,3.2s-8.8,8.6-9.8,8.7c-.4.1-3.9-2.2-2.8-3.6a36,36,0,0,1,3.4-3Z" transform="translate(-143.5 -189.52)"/><path class="sp_three-cls-3" d="M333.2,707.3c-.5.4-1.1.8-1.6,1.2-4.3-2.9-2.7-3.2.8-6.8,2.4-2.5,17.3-17.5,19.4-17.9,1.1-.2,4.2,1.4,2.5,3.6-.6.8-3.4,3.1-4.3,4-5.6,5.3-10.8,11-16.8,15.9Z" transform="translate(-143.5 -189.52)"/><path class="sp_three-cls-3" d="M416.5,784.6c.9-.2,3.9.2,4,1.4.1.8-.8,3.2-1.4,5.2-2.2,7.4-6.5,4.4-5-.3.6-1.8,1.4-5.8,2.3-6.3Z" transform="translate(-143.5 -189.52)"/><path class="sp_three-cls-3" d="M410.2,756c.8,0,4.1.5,4.1,1.6,0,.4-3.7,11-4.3,12.6-1.2,3.6-2.5,7.6-3.9,11.1-6-1.5-4.6-.7-2.6-6.9.6-2,5.8-18.1,6.5-18.3l.2-.1Z" transform="translate(-143.5 -189.52)"/><path class="sp_three-cls-3" d="M421.7,719.8a92.93,92.93,0,0,1,3.5-8.7c.8-.1,4.1-.3,3.9,1-.4,2.8-2.7,9.4-3.6,12.3-3.8,11.7-2.9,8.6-6.9,20.3-.9,2.6-1.8,5.1-2.8,7.6-5.6-1.2-4.4-.9-2.7-6.5,4.3-13.8,4.1-12.5,8.6-26Z" transform="translate(-143.5 -189.52)"/><path class="sp_three-cls-3" d="M420.3,706.5c-5,10.5-9.7,21.7-14.4,32.5-6.7,15.3-13.6,30.6-20.2,45.9-1,2.3-1.9,3.1-4.1,1a2,2,0,0,1-.5-2c.5-4.5,11.8-27.4,14.5-33.7,6.5-15.1,13.1-30.6,20.1-45.4.9-2,2.6-5,5.4-3.8,2,1-.1,4.1-.8,5.5Z" transform="translate(-143.5 -189.52)"/><path class="sp_three-cls-3" d="M423.5,673.6c-11,21-18.6,37.8-29.7,58.7a63.17,63.17,0,0,1-3.3,5.6c-5.3-1.7-3.8-1.9-1.6-6.8,7.7-16.4,16.6-32.5,24.6-48.7,3.1-6.2,3.9-8.3,7.5-14.3,1-1.7,1.2-1.6,3.3-.8,2.6,1,1.5,2,.3,4.1a15.05,15.05,0,0,1-1.1,2.2Z" transform="translate(-143.5 -189.52)"/><path class="sp_three-cls-3" d="M371.1,765.9c1.5-2.8,5.6-11.7,6.3-11.8s4.1,1.1,4,2.1c0,.4-5.5,10.6-6.4,12.3-3.2,6.2,1.5-2.4-1.9,3.7-5.3-2.5-4.5-1.4-2-6.3Z" transform="translate(-143.5 -189.52)"/><path class="sp_three-cls-3" d="M381.6,692.8c1.3-2,9-13.5,10.7-13.6.7,0,3.4.8,3.2,1.7-.5,2.5-10.5,15.4-12.8,18-4.8-2.2-3.7-2.3-1.1-6.1Z" transform="translate(-143.5 -189.52)"/><path class="sp_three-cls-3" d="M352.6,734.3c6.9-9.7,13.6-19.9,21-29.3.5-.6.3-.5,1.5.1.4.2,2.9,1.5,2.5,2.1-3.8,6-8.6,12.4-12.7,18.2-3.9,5.4-7.8,11-11.7,16.3-.8,1.1-.3.7-2-.4-3.5-2.3-2.5-1.6.4-5.7l1-1.3Z" transform="translate(-143.5 -189.52)"/><path class="sp_three-cls-3" d="M410.5,643.2c-1.9,2.4-13.5,17.3-15.1,17.5-1.1.1-2.2-1.3-2.7-2.2,1.6-3,15.3-21.4,17.4-21.9.6-.2,3.9,1.4,3.4,2.8-.2.7-2.4,3.1-3,3.8Z" transform="translate(-143.5 -189.52)"/><path class="sp_three-cls-3" d="M309.6,766.1c-3.9-1.4-2.2-2.8.1-5.7,14.3-18.2,41.9-53,61.2-76.2,1.4-1.7,2.8-3.3,4.4-4.9.6.3,3.9,1.8,3.4,2.6-1.5,2.4-4.4,5.8-6.2,8.1-13.6,17.2-27.5,34.2-41.3,51.3-10.6,13.2-6,7.9-16.8,20.9-.6.7-3.4,4.2-4.1,4.2l-.7-.3Z" transform="translate(-143.5 -189.52)"/><path class="sp_three-cls-3" d="M630.7,788.5c-2.6,1.4-5.5-7.3-7.5-11.9-.6-1.3-4-9.3-3.3-10.4.5-.8,2.7-2.5,3.8-1.1.9,1.2,4.8,10.5,7.3,16.8,1.7,4.1,2.4,5.2.9,6l-1.2.6Z" transform="translate(-143.5 -189.52)"/><path class="sp_three-cls-3" d="M358.3,760.3a16.58,16.58,0,0,1-3.5,4.4c-.6.5-.6.4-1.7,0-3.1-1.1-.4-4.5.7-6.4,6.2-10.7,11.5-16.2,19.1-28.9,1.7-2.8,1.1-3.5,4.7-1.5,1.9,1.1.8,1.9-.4,3.7-15.1,22.8,2.2-4.4-18.9,28.7Z" transform="translate(-143.5 -189.52)"/><path class="sp_three-cls-3" d="M703.2,485.2c-1-.7-1.3-2.9-1.5-4.1,9.3-4.2,20.9-7,30.8-10.2,3.5-1.2,37.8-12.4,38.2-12.2.1,0,2.1,3.8.8,4.6-.7.5-32.3,10.7-36,11.9q-13.2,4.35-26.4,8.4c-.7.2-5.3,1.6-5.9,1.6Z" transform="translate(-143.5 -189.52)"/><path class="sp_three-cls-3" d="M779.3,455.7c3-.9,6.1-2,9.1-2.7.4.8,1.9,3.8.9,4.4-1.9,1.1-10.2,3.4-12.7,4.1-2.1-5.2-2.5-4.3,2.7-5.8Z" transform="translate(-143.5 -189.52)"/><path class="sp_three-cls-3" d="M793.6,454.9c-2.2-4.6-1-3.6,4.2-5.2,1.1-.4,7-2.4,7.7-1.8s2,3.3.5,4.2-8.8,2.8-10.9,3.5c-1,.2-.8.3-1.5-.7Z" transform="translate(-143.5 -189.52)"/><path class="sp_three-cls-3" d="M655.9,484.2c5.1-1.9,15.8-6.5,20.6-7.2,3,3.8.3,4.2-3.1,5.7-7.3,3.2-15.1,5.9-22.7,8.4-2.7-5.2-2.3-4.1,3.6-6.3.5-.2,1-.4,1.6-.6Z" transform="translate(-143.5 -189.52)"/><path class="sp_three-cls-3" d="M795.2,435.9c-31.9,12-63.6,24.3-95.4,36.3l-10.5,3.9c-2.5.9-3.2.5-3.9-2.1-.6-2.1,1-2,2.7-2.6,13-4.6,26.2-9.9,39.2-14.9,29.8-11.4,59.7-23.1,89.6-34.2.4-.1,5.8-2.1,5.9-2.1.4.2,2.2,3.7,1.4,4.2-2.6,1.7-11.5,4.9-14.7,6.1-4.8,1.9-9.6,3.6-14.3,5.4Z" transform="translate(-143.5 -189.52)"/><path class="sp_three-cls-3" d="M744,576.8c1,.1,5.2.3,5.5,1.4s.1,4-1.4,4.2c-.2,0-8.8-1.3-8.8-1.3-1.3-.6-.2-4.3.4-4.7s3.5.3,4.3.4Z" transform="translate(-143.5 -189.52)"/><path class="sp_three-cls-3" d="M784,622.5c-.6,4.8-1.2,4.1-5.4,3a52.73,52.73,0,0,1-8.8-2.7c.2-5.8,1-4.4,6.5-2.9.9.2,7.4,2,7.6,2.3l.1.3Z" transform="translate(-143.5 -189.52)"/><path class="sp_three-cls-3" d="M753.7,619.2c-2.8,0-20.2-4.8-23.9-5.9-2.5-.7-4.9-1.4-7.3-2.3.5-6.2,1.6-4.5,7.1-2.8,7.8,2.3,16.2,4,24,6.5,1.8.6,1.8.2,1.4,2.3-.1.6-.3,2.1-1.3,2.2Z" transform="translate(-143.5 -189.52)"/><path class="sp_three-cls-3" d="M698.4,602.7c.1-2.7,2.9-2.3,4.9-1.8s4,1.1,6.1,1.5c2.8.6,5.2,1.2,3.9,4.6-.7,1.8-2.9.8-4.5.4-2.5-.6-9.6-1.4-10.3-4.1l-.1-.6Z" transform="translate(-143.5 -189.52)"/><path class="sp_three-cls-3" d="M823.8,484c-20,3.6-39.9,7.3-59.9,10.9-1.2-5.7-2-4.5,3-5.4,27.6-5,55.3-10.3,82.9-15.1a36.77,36.77,0,0,1,5.8-.6c.6,1,1.6,3.4.2,4.1-3.2,1.5-26.7,5.2-32,6.1Z" transform="translate(-143.5 -189.52)"/><path class="sp_three-cls-3" d="M754.7,496.7c-6.2,1.2-12.6,2.6-18.8,3.4-1.7-5.8-1.9-4.3,5.8-5.8,4.5-.9,9-1.7,13.5-2.6.2.8,1.1,4.1.6,4.6l-1.1.4Z" transform="translate(-143.5 -189.52)"/><path class="sp_three-cls-3" d="M640.8,517.8c-3.9-4.1-.8-4.1,5.3-5.4,21.2-4.3,54.7-10.8,76-14.6a27.34,27.34,0,0,1,4.9-.6c1.6,5.6,1.1,4.3-5.9,5.7-6.3,1.3-79.1,15.5-80.1,15.1l-.2-.2Z" transform="translate(-143.5 -189.52)"/><path class="sp_three-cls-3" d="M737.9,515.4c-7.6,1.5-16.1,3-23.8,3.1-2.3-5.2-.5-4.3,5.5-5.2,6.4-.9,12.5-1.9,19-2.5.2.8,1.1,3.6.4,4.2l-1.1.4Z" transform="translate(-143.5 -189.52)"/><path class="sp_three-cls-3" d="M670.6,520.1c4.5-.6,35.3-5.4,37.1-4.4,1.1.6.7,2.7.6,3.7-5.7,1.9-24.7,4-31.5,4.8-1,.1-10.4,1.6-10.7.7-2.3-5.2.1-4.2,4.5-4.8Z" transform="translate(-143.5 -189.52)"/><path class="sp_three-cls-3" d="M638.8,537.8c-1.1-4,.8-3.2,5.1-3.4,51.1-2.9,105.9-8.2,157-11.3,2.5-.2,4.9-.3,7.4-.4.8,6.2.9,4.5-5.5,5-19.3,1.8-39.6,2.8-59.1,4.2-33.1,2.3-69.7,5.3-102.8,7.3-1.7.2-1.5.7-2.1-1.4Z" transform="translate(-143.5 -189.52)"/><path class="sp_three-cls-3" d="M770.7,547.4c0-4.8-1.1-3.8,3.8-3.8,5.9,0,11.8-.1,17.7,0,.2,6.2,1.1,4.7-4.7,4.7-3.1,0-14.3.4-16.6-.1l-.2-.8Z" transform="translate(-143.5 -189.52)"/><path class="sp_three-cls-3" d="M679.3,544.1c8.5-.1,19.9-.8,28,.6,1.5,4.3-1.1,4-4.6,4.1-8.6.2-18.2.8-26.7.2-2.4-.2-3.5.1-3.7-2.7s2.8-2.2,4.9-2.1a7.41,7.41,0,0,1,2.1-.1Z" transform="translate(-143.5 -189.52)"/><path class="sp_three-cls-3" d="M761.9,548.3c-9.4.1-23.3.9-32.2-.1-1.9-.2-1.4.2-1.8-2.4-.5-3.1,4-2.1,6.9-2.1,9.4,0,18.7-.1,28-.1,1.2,0,.5.9.6,2.9.1,1.8.6,1.5-1.5,1.8Z" transform="translate(-143.5 -189.52)"/><path class="sp_three-cls-3" d="M654.8,570.4c-.4-1-.4-4.1,1-4.3.5-.1,7.7,1.1,9.2,1.2,3.9.5,8.2.8,11.8,2.3,1,5-2.2,3.8-6,3.4-2.2-.3-15.2-1.5-16-2.6Z" transform="translate(-143.5 -189.52)"/><path class="sp_three-cls-3" d="M686.3,572.6c-.5-3,2.7-2.8,4.8-2.6,2.6.2,5.7.8,8.4,1.2,9.8,1.3,19.7,2.6,29.4,4,1.4.2,1.2-.2,1.1,1.5-.2,3.9-.9,3.3-4.4,3-6.8-.6-13.9-1.8-20.8-2.6-2.5-.3-17.5-1.8-18.3-3.9l-.2-.6Z" transform="translate(-143.5 -189.52)"/><path class="sp_three-cls-3" d="M637.9,579.2c-.3-.9-.4-3.8.9-4.1.7-.1,14.7,2.4,16.3,2.6,5.5.9,20.1,3.2,24.5,5.4.6.3.5.8.5,1.6-.3,3.4-5.6,1.6-7.8,1.2-3.4-.5-33.5-5.3-34.4-6.7Z" transform="translate(-143.5 -189.52)"/><path class="sp_three-cls-3" d="M840.2,613.1c.5,3.7-2.5,3.1-5.2,2.7-11.1-1.6-22.6-4.3-33.7-6.4-28.7-5.4-57.6-10.6-86.3-16.2-1.4-.3-6.4-1.3-7-2.5-.7-1.5,0-3.6,2.2-3.4a93.11,93.11,0,0,1,11.3,2.1c11.3,2.3,22.5,4.4,33.8,6.6,25.7,4.8,51.5,9.4,77.1,14.5,1.3.3,6.9,1.2,7.5,2.2l.3.4Z" transform="translate(-143.5 -189.52)"/><path class="sp_three-cls-3" d="M701.7,414.8c.4,1.4-1.4,2.4-2.6,3.2-1.6,1.2-3.2,2.3-4.9,3.4-4.5-4.3-3-3.6,2.2-7.3,2.9-2,3-2.9,5.3.7Z" transform="translate(-143.5 -189.52)"/><path class="sp_three-cls-3" d="M754.7,428.7c-2.4,1.1-4.8,2.3-7.3,3.3-3.2-5.8-2.4-3.9,4.4-7.2.8-.4,5.6-2.8,6.2-2.4.4.4,2.4,3.4,1.6,4.2-.4.2-4.2,1.8-4.9,2.1Z" transform="translate(-143.5 -189.52)"/><path class="sp_three-cls-3" d="M730.3,437.4c2.4,3.6,1,3.3-2.8,5.3-8.2,4.3-16.5,8.3-25,12-3.5-5.4-2.4-4,3.8-7,7.3-3.5,14.4-7.3,21.8-10.4,1.3-.6,1.1-1.1,2.2.1Z" transform="translate(-143.5 -189.52)"/><path class="sp_three-cls-3" d="M674.8,466.7c-3.2-3.3-.9-3.6,2.6-5.2,3.1-1.4,6-2.8,9.2-4,3.3,3.9,1.6,4.2-2,6.1-1.6.8-7.4,3.7-9.1,3.6l-.7-.5Z" transform="translate(-143.5 -189.52)"/><path class="sp_three-cls-3" d="M660.7,316.4c-.8,1.4-6.8,10.8-8.1,10.4-4.9-1.6-3.1-3-.7-6.1,2-2.7,3.9-5.2,6-7.9.8.4,3.3,1.4,3.3,2.5l-.5,1.1Z" transform="translate(-143.5 -189.52)"/><path class="sp_three-cls-3" d="M647.1,335.7c-1.2,2.4-8.6,13.2-10.5,14.4-.4.3-3.7-1-3.5-2.5.1-.7,3-4.4,3.7-5.4,1-1.4,6.9-10,8.2-10.1a2.3,2.3,0,0,1,2.3,3.2l-.2.4Z" transform="translate(-143.5 -189.52)"/><path class="sp_three-cls-3" d="M590.2,430.8c-.9-.1-3.7-1.4-3.5-2.6.1-.6,6.4-9.4,7.4-10.9,10.2-14.9,20.2-30,30.6-44.8a20,20,0,0,1,3.6-4.1c4.8,1.9,2.7,3.2.3,6.9C619.7,389,610,402.4,600.9,416c-3.2,4.7-6.3,9.4-9.8,13.9-.2.3-.5.8-.9.9Z" transform="translate(-143.5 -189.52)"/><path class="sp_three-cls-3" d="M660.1,340.6c.9-1.2,6.3-8.4,7.4-8.3,1.5.1,3.2,1.6,2.2,3.5s-3.6,5.3-4.9,7.1-7.7,10.9-9.5,11.1c-2.4.2-3.4-1.6-2.2-3.8,1.4-2.7,4.9-7,7-9.6Z" transform="translate(-143.5 -189.52)"/><path class="sp_three-cls-3" d="M650.9,360.8c-.9,1.8-4.4,6.4-5.6,8.1-1.7,2.4-11,15.8-12.9,16.4-1.3.4-3.5-1.4-3.2-2.8.2-1,2.9-4.1,3.7-5.3,2-2.8,13.8-20,16.2-20.1a2.27,2.27,0,0,1,2.1,2.9l-.3.8Z" transform="translate(-143.5 -189.52)"/><path class="sp_three-cls-3" d="M706.8,320.9c-1.3,2.5-12.9,15.1-15.2,17.7-14.2,15.8-28.5,31.3-42.6,47.2-12,13.5-32.1,35.4-44.4,48.7a25.72,25.72,0,0,1-3.9,3.5c-5-2.6-3.2-3,.3-6.8,11.7-12.3,31.1-33.8,42.5-46.6q28.5-32,57.1-63.7c.6-.7,2.6-3.1,3.6-2.8s2.9,1.7,2.6,2.8Z" transform="translate(-143.5 -189.52)"/><path class="sp_three-cls-3" d="M708.7,361.8a96.21,96.21,0,0,1-14,13.1c-5.4-3-2.7-3.7,1.1-7.2,3.6-3.4,7-6.7,10.9-9.9,1,.7,2.6,1.7,2.7,3l-.7,1Z" transform="translate(-143.5 -189.52)"/><path class="sp_three-cls-3" d="M646.9,416.6c2.3.7,2.5,2.4,1,4.1a171.91,171.91,0,0,1-17.8,18.4,10.13,10.13,0,0,1-2,1.4c-5.2-3.5-2.6-3.5,1.3-7.5,2.9-2.9,14.7-15.7,17.5-16.4Z" transform="translate(-143.5 -189.52)"/><path class="sp_three-cls-3" d="M663.3,404.1c-4.1-2.3-2-3.3,1-5.9,5.3-4.8,10.4-10.4,15.7-15.3,1.9-1.8,3.9-3.5,5.9-5.1,3.7,2.4,3,2.9.2,5.9-5.4,5.8-11.7,11.8-17.5,17.1-.7.6-3.9,3.6-4.5,3.6l-.8-.3Z" transform="translate(-143.5 -189.52)"/><path class="sp_three-cls-3" d="M643.9,446.1c-1.9,1.8-15.5,12.5-17.1,12.3s-3.3-3-.5-5.2c2.4-1.9,5.4-3.8,7.9-5.7a82.29,82.29,0,0,1,7.8-5.3c1,.8,3.2,2.6,1.9,3.9Z" transform="translate(-143.5 -189.52)"/><path class="sp_three-cls-3" d="M686,414.2c-2.1,2.4-12,9.5-14.9,11.7-1.6,1.2-18.1,13.4-19.1,13.2-.3-.1-3.3-2.1-2.2-3.7.5-.7,4.9-3.5,6.2-4.6,3.1-2.3,26.5-20.2,27.8-20,.8.2,3,2.4,2.2,3.4Z" transform="translate(-143.5 -189.52)"/><path class="sp_three-cls-3" d="M655.4,466.3c-1.3,1.1-12.5,8.8-13.4,8a9.45,9.45,0,0,1-2.1-3.1c0-1.2,3.5-2.8,4.7-3.6s8.4-5.7,9.5-5.4,2.7,2.7,1.3,4.1Z" transform="translate(-143.5 -189.52)"/><path class="sp_three-cls-3" d="M739,406.7c15.2-9.9,30.4-20.1,45.8-29.8,1-.7,2.8-2,4-1.2s2.1,2.5.8,3.7c-1.1,1.1-6.6,4.5-8.3,5.6-20.3,13.5-41.1,26.5-61.5,39.9-12.8,8.4-25.7,16.7-38.6,25.1-2.4,1.6-2.7.7-4.3-1.7-.5-1-.6-.7.7-1.6,6.6-4.8,14.1-9.5,21-13.9q20.25-13.05,40.4-26.1Z" transform="translate(-143.5 -189.52)"/><path class="sp_three-cls-3" d="M598.7,286c0,1.7-1.7,8.2-3.5,8.6-1.6.3-3.9-.4-3.3-2.6.4-1.4,2.3-6.8,3.5-7.4,1-.7,2.8.4,3.3,1.4Z" transform="translate(-143.5 -189.52)"/><path class="sp_three-cls-3" d="M642.7,274.8c-4.6-1.3-3.2-2-.9-6.1,1.4-2.5,2.7-5,4.2-7.4,4.9,1.5,4,2.1,2,6-1.3,2.5-2.3,4.4-3.7,6.8-.6,1-.3.9-1.6.7Z" transform="translate(-143.5 -189.52)"/><path class="sp_three-cls-3" d="M633.7,287.9c4,1.1,2.5,2.9,1.1,5.9-3.1,6.7-7,14.2-10.6,20.6a13.56,13.56,0,0,1-2.3,3.4c-1,.6-4-1.1-3.9-1.5.4-2.1,13.1-25.9,14.9-28.1l.4-.3Z" transform="translate(-143.5 -189.52)"/><path class="sp_three-cls-3" d="M612.9,325.1c1.3.2,3.9.8,3.5,2.6a51.76,51.76,0,0,1-6,11.7c-.5.7-4.2-.2-4.1-1.8.1-.8,3.8-7.5,4.6-8.9a25.35,25.35,0,0,1,2-3.6Z" transform="translate(-143.5 -189.52)"/><path class="sp_three-cls-3" d="M517.2,240.3c-.1,3.3-.1,6.8-.4,10-1.1.2-3.7.3-4.6-.2-.1-3.5.1-7.3.2-10.8a25.81,25.81,0,0,1,.4-4c5.6-.4,4.6-.7,4.4,5Z" transform="translate(-143.5 -189.52)"/><path class="sp_three-cls-3" d="M511.9,258.2c5.6-.1,4.8-.5,4.6,5.7a145.3,145.3,0,0,1-.6,14.8c-6.3.7-4.6.1-4.4-6.6.2-4.6.3-9.2.4-13.9Z" transform="translate(-143.5 -189.52)"/><path class="sp_three-cls-3" d="M515.6,291.8c0,21.6-1.1,43.3-1.4,64.9,0,2.4-.1,21.2-1.4,21.8-.8.3-3.1.7-3.7-.1-.9-1.2-.2-7.2-.1-9.2.5-14.1.6-28.4.9-42.5.3-12.3.4-25.1,1.1-37.4.2-2.8-.3-2.6,2.2-2.7,3.2-.1,2.4,1.5,2.4,4.5v.7Z" transform="translate(-143.5 -189.52)"/><path class="sp_three-cls-3" d="M530.6,292.9c-.2,3.4-.4,7-.7,10.4-.2,1.7-.3,1.3-1.9,1.5-3.8.2-3-.8-2.6-4.6.2-2.6.7-20.1,1.7-20.8.6-.4,4.1-.7,4.2.8.2,2.3-.5,9.9-.7,12.7Z" transform="translate(-143.5 -189.52)"/><path class="sp_three-cls-3" d="M524.3,316c.1-.9.3-5.9.6-6.3.5-.7,3.7-.2,4.5.3,0,7.1-.7,15.1-1.1,22.2-.3,4.8-2.7,39.8-3.3,40.2-.9.6-3.7.8-4.1-.5a67,67,0,0,1,.3-8.2c1-15.9,1.9-31.8,3.1-47.7Z" transform="translate(-143.5 -189.52)"/><path class="sp_three-cls-3" d="M557.6,219.7c-4.1,29.7-8.6,59.4-12.9,89.2-.8,5.6-7,49.7-7.9,51.3-.3.5-4.5,1-4.4-1,.1-3.1,1.3-8.8,1.8-12.2,4.5-29.7,8.6-59.6,12.9-89.4,1.8-12.7,3.7-25.3,5.7-37.9a25.3,25.3,0,0,1,1.2-5.3c5.1-.2,4.3.3,3.6,5.3Z" transform="translate(-143.5 -189.52)"/><path class="sp_three-cls-3" d="M572.1,235c4.5.3,3.1,2.2,2.2,6-.5,2.1-2.7,14.7-3.8,15.1-.7.3-4.3.1-4.1-1.6.2-1.9,3.7-17.8,4.5-19.1l.4-.4Z" transform="translate(-143.5 -189.52)"/><path class="sp_three-cls-3" d="M556.5,323.2c-2.5,14.5-5.9,28.9-8.8,43.3-.4,1.8-3.1,16.3-4,16.7-1.3.3-4.3.2-4.1-1.6.2-2.9,1.7-8.1,2.3-11.2,3.4-16.3,6.3-33,10.1-49.3a22.21,22.21,0,0,1,1.1-3.9c.6-1,4-.6,4.2.9.1.8-.7,4.1-.8,5.1Z" transform="translate(-143.5 -189.52)"/><path class="sp_three-cls-3" d="M557.1,296.5c.1-1.7,1.7-8.6,2.2-10.5s4.8-22.5,5.2-23.1,2.8.2,3.5.3c1.2.2.9,1.1.6,2.3-.7,3.6-6.1,31.3-7.3,32-.6.5-4,.3-4.2-1Z" transform="translate(-143.5 -189.52)"/><path class="sp_three-cls-3" d="M568.2,373.1c-3,7.8-6,16.2-9.3,23.8-.8,1.7-.6,2-2.6,1.6-3.4-.8-2-3-1.1-5.3,5.3-13.5,10.2-27.3,15.7-40.7,1-2.4,1.5-3.7,4.2-2.2,1.6.9.9,1.9.3,3.6-2,6.4-4.7,12.9-7.2,19.2Z" transform="translate(-143.5 -189.52)"/><path class="sp_three-cls-3" d="M591.3,308.5c-3.3,10.3-7.3,20.7-11.2,30.9a25.6,25.6,0,0,1-2.3,4.7c-6.2-.7-3.9-2.1-2-7.2,3.9-10.4,7.1-21,11.5-31.3a18.29,18.29,0,0,1,1.4-2.8c4.5.6,3.8,1.7,2.6,5.7Z" transform="translate(-143.5 -189.52)"/><path class="sp_three-cls-3" d="M569,413.5c-1.1-.1-4.4-.6-3.8-2.3,2.3-6.2,5.4-12.5,8-18.6,1.3-3.1,10.7-25.5,11.7-26.4,1.4-1.3,4.6.5,4,2-2.8,7.5-6.5,15.6-9.8,23-.9,2.2-9.4,22.4-10.1,22.3Z" transform="translate(-143.5 -189.52)"/><path class="sp_three-cls-3" d="M598.6,327.6c-4.7-1-3.2-1.8-1.3-6.1,5.2-11.6,10.1-23.3,15.2-34.9,10.6-24.5,21.3-49,31.8-73.5.7-1.6,2.9-7.9,4.2-8.5.8-.4,4.1.2,3.6,2.5-.3,1.4-3,7-3.8,8.8-15.1,35.1-30,70.2-45.5,105.2-.4.9-2.6,5.9-3,6.3l-.4.3-.8-.1Z" transform="translate(-143.5 -189.52)"/><path class="sp_three-cls-3" d="M345.6,303.6c-.9-1.5-1.8-3-2.6-4.6.7-.9,2.4-2.8,3.6-1.8,2.6,2.2,15.8,22.9,18.7,27.3,5.6,8.6,12.1,17.2,17.3,26,.6,1,3.1,5.4,2.8,6.4-.7,2-2.3,2.7-3.9.8-3.6-4.2-7.6-11.2-10.7-16-8.3-12.7-17.2-25.2-25.2-38.1Z" transform="translate(-143.5 -189.52)"/><path class="sp_three-cls-3" d="M342.5,293c-3.1,3.5-3.5,1.5-5.6-2a44.75,44.75,0,0,1-4.1-7.4c.6-1,2.5-2.9,3.6-1.8s6.9,9.2,6.5,10.5l-.4.7Z" transform="translate(-143.5 -189.52)"/><path class="sp_three-cls-3" d="M326.5,275.5c-.7-1.1-4.2-6.1-4-7.2.2-.8,2.6-2.8,3.7-1.9,1,.7,5.5,7.9,6,9.3.7,1.7.7,1.4-.4,2.7-2.4,2.6-3.2.5-4.7-1.8l-.6-1.1Z" transform="translate(-143.5 -189.52)"/><path class="sp_three-cls-3" d="M393.9,401.7c3.6,4.9,11.6,14.2,15.1,19.1a19.4,19.4,0,0,1,1.5,2.4c-.6,1-2.9,3.4-4.1,2.2a20.84,20.84,0,0,1-3.2-3.9c-1.5-2.1-17-21.8-16.7-23.6,0,0,.9-4.4,5.1.6.7,1,1.5,2.1,2.3,3.2Z" transform="translate(-143.5 -189.52)"/><path class="sp_three-cls-3" d="M379,369.4a35.77,35.77,0,0,1,3,4.9c.3,1.6-1.8,4.6-4.2,1.6-9.6-12.1-18.7-25.1-28-37.5-18.3-24.5-36.5-48.9-54.5-73.5-.8-1.1-4.1-4.8-3.6-6.1.4-1.1,2.5-2.6,3.9-1.4,1.7,1.5,7.7,9.9,9.5,12.3,13.5,18.2,26.9,36.5,40.5,54.6,4.8,6.5,9.7,13,14.6,19.4l.4.5c6.2,8.3,12.5,16.6,18.4,25.2Z" transform="translate(-143.5 -189.52)"/><path class="sp_three-cls-3" d="M482.5,318.3q-5-58.2-10.2-116.3c-.2-2.1-1.4-10.1-.5-11.5.6-.9,3.8-2,4.4.9.4,2.1.5,6.2.7,8.5,3.4,39.2,7,78.3,10.4,117.5.2,2.2.4,4.3.5,6.4-6.2.9-4.7,1.4-5.3-5.5Z" transform="translate(-143.5 -189.52)"/><path class="sp_three-cls-3" d="M489.1,364.7c2.5,0,2.1,1.3,2.3,3.6.3,3.9,1.7,9.3,1.2,10.4s-4.1,1.6-4.3.8c-1-3.8-3.2-12-1.8-14.4a20.24,20.24,0,0,1,2.6-.4Z" transform="translate(-143.5 -189.52)"/><path class="sp_three-cls-3" d="M470.5,306.9a115.53,115.53,0,0,1,2.1,12c.4,3,4.4,28.9,4,29.7s-4.1,1.5-4.4.5a101.86,101.86,0,0,1-2.1-12.5c-1.2-8.1-2.3-16.2-3.4-24.3a36.57,36.57,0,0,1-.5-5.7c1.2-.6,3.6-1.6,4.3.3Z" transform="translate(-143.5 -189.52)"/><path class="sp_three-cls-3" d="M472.9,356.9c2.5-.1,2.2,1.2,2.5,3.4.4,2.4,3.5,13.7,2.2,14.6s-3.8,1.7-4.2-.6c-.5-2.6-1-1.8-1.4-4.5-.6-3.8-1.2-7.7-1.6-11.5-.1-1.1.6-1.1,1.7-1.3l.8-.1Z" transform="translate(-143.5 -189.52)"/><path class="sp_three-cls-3" d="M431.1,283.3c3.1,9.3,6.6,21.4,8.9,31,.6,2.1.1,1.8-3.2,2.7-1.5.4-1.9-3.3-2.3-4.9-2.7-9.2-5.6-18.2-7.8-27.6-.4-1.9-.7-1.3,2.1-2.2,1.8-.5,1.5-.6,2.3,1Z" transform="translate(-143.5 -189.52)"/><path class="sp_three-cls-3" d="M455.3,366.8c.8,2.8,1.1,1.8-2.7,3.1-1.7.5-1.4,0-2-1.9-.9-3.2-9.2-31.3-9-31.9a18.45,18.45,0,0,1,4-1.2c.9.4,5.4,16.7,6,18.8,1.4,4.4,2.6,8.8,3.7,13.1Z" transform="translate(-143.5 -189.52)"/><path class="sp_three-cls-3" d="M423.3,255.4c2.1,6.2,3.8,12.5,5.3,18.9-5.2,2.3-4.2,2.2-5.8-3.6-1.5-5.2-2.9-10.2-4.1-15.5.8-.3,3.4-1.6,4.1-.9l.5,1.1Z" transform="translate(-143.5 -189.52)"/><path class="sp_three-cls-3" d="M398.2,244.2c.9,1.1,3.2,7.9,3.8,9.7,15.2,41.3,28.5,77.6,43.3,119,.7,1.9,1.8,4.8-.8,5.6s-2.8-1.2-3.9-4.3c-5.7-16.9-10.6-28.7-16.7-45.5-9-24.8-18-49.7-26.9-74.5-.5-1.4-3-7.6-2.7-8.7.3-.7,2.9-2,3.9-1.3Z" transform="translate(-143.5 -189.52)"/><path class="sp_three-cls-3" d="M414.6,356.8c1.5-1.2,3.3-1.6,4.4.2,2.4,3.7,5.3,10.7,7.2,14.9,1.3,2.8,12.8,27.3,12.5,28.6-.2.9-2.9,2.3-3.7,1.6-1.9-1.5-15.2-31.9-17.2-36.1-.6-1.2-3.9-8.1-3.4-9l.2-.2Z" transform="translate(-143.5 -189.52)"/><path class="sp_three-cls-3" d="M408.1,320c2,4.3,6.4,13,7.2,17.2-4.2,3.8-4.2,1.3-6.2-3.2-1-2.4-8.3-16.9-7.7-18a5.15,5.15,0,0,1,3.2-1.6c1.6.3,2.9,4.2,3.5,5.6Z" transform="translate(-143.5 -189.52)"/><path class="sp_three-cls-3" d="M412.1,361.9c.9,2.1.7,2.6-1.8,3.6-1.8.3-2.5-1.3-3.2-2.7-1.9-3.8-16.2-31.2-15.4-32.4.4-.7,2.4-1.9,3.4-1.4,1.4.6,2.9,4.7,3.7,6.1,4.6,8.9,9.3,17.6,13.3,26.8Z" transform="translate(-143.5 -189.52)"/><path class="sp_three-cls-3" d="M382.8,303.6c1.4,1.4,4.1,7.2,5.1,9.4a58.21,58.21,0,0,1,3.5,8.1c-4.9,3.7-4.5,1.3-6.7-3.6-.8-1.8-6.1-11.7-5.6-12.8.3-.6,2.6-1.6,3.4-1.3l.3.2Z" transform="translate(-143.5 -189.52)"/><path class="sp_three-cls-3" d="M372.1,292.3c-.5-1.1-3.4-7.1-3.3-7.9.1-.4,2.6-2.7,3.8-1.5,1.5,1.6,5.2,9.6,5.9,11.9.3,1,.2.6-1,1.6-2.9,2.4-3.4,0-4.7-2.8l-.7-1.3Z" transform="translate(-143.5 -189.52)"/><path class="sp_three-cls-3" d="M497.9,325.3c0-1.5-.6-10-.1-10.7.3-.4,3.7-1.3,4.3.2.4,1.1.8,11.9.6,13.3-.2,1.6-.1,1-1.8,1.4-3.5.6-2.9-.9-3-4.2Z" transform="translate(-143.5 -189.52)"/><path class="sp_three-cls-3" d="M497.2,274.2a26.2,26.2,0,0,1,.1-2.8c.8-.2,4.1-.8,4.4.3.5,2.3.5,10.8.5,13.4.1,5.4.3,11.6,0,17a2.77,2.77,0,0,1-.1.9c-.3,1.4-.2,1-1.7,1.4-3.9.8-3-1.5-3-4.7.2-8.5-.2-17-.2-25.5Z" transform="translate(-143.5 -189.52)"/><path class="sp_three-cls-3" d="M496.5,241.8c.8-.3,3.8-.8,4.4,0,.4.6.3,7.2.3,8.6a14,14,0,0,1-.4,5c-5.5,1.1-4.4.3-4.5-5.4-.1-1.3-.6-7.6.2-8.2Z" transform="translate(-143.5 -189.52)"/><path class="sp_three-cls-3" d="M463.2,290.4c-.5-3.5-1-3.5,2.6-4.1,1.7-.3,1.7,1,2,2.6.4,2,.9,4.5.5,6.5-.2.9-.2.7-1.3,1.2-3.7,1.6-3.2-1.2-3.6-4.2l-.2-2Z" transform="translate(-143.5 -189.52)"/><path class="sp_three-cls-3" d="M324.4,399.3c-1.4-.6-7.3-5.1-7-6.4.3-1.5,1.7-3.5,3.6-2.2,1,.7,6.4,4.7,6.2,5.6-.2,1.1-1.5,3.2-2.8,3Z" transform="translate(-143.5 -189.52)"/><path class="sp_three-cls-3" d="M322.9,328.6c-.1.6-2.4,3.3-3.8,2.4s-8.2-8.8-7.9-10.1c.1-.4,2.2-3.1,3.6-2.1.8.5,7.9,9.1,8,9.7l.1.1Z" transform="translate(-143.5 -189.52)"/><path class="sp_three-cls-3" d="M332.4,357.6a8.61,8.61,0,0,1,2.8-2.9c1-.5,2.3,1.8,2.9,2.5,4.7,5.7,10.2,11.1,15,16.8.4.5,4.1,4.7,4,5.1-.1.2-2.5,2.9-3.7,2.6-.9-.3-4.4-5-5.4-6.1-2.1-2.4-15.6-16.2-15.6-18Z" transform="translate(-143.5 -189.52)"/><path class="sp_three-cls-3" d="M364.4,393.4c.1-1.2,2.2-3.6,4-2s8.3,8.6,7.8,10.7c-.6,2.3-2.5,2.4-4.1.7-1.8-1.6-7.1-7.3-7.7-9.4Z" transform="translate(-143.5 -189.52)"/><path class="sp_three-cls-3" d="M245.7,454.9a10.14,10.14,0,0,1,1-2.4c3.9,1,8.9,3,12.9,4.4,1.7.6,1.3.3.7,2.2-.3.9-.6,1.8-1,2.7-.8-.1-13.7-4.5-14.1-4.9s.3-1.5.5-2Z" transform="translate(-143.5 -189.52)"/><path class="sp_three-cls-3" d="M266.9,464.1c.1-.6,1-4,1.7-3.9,1,.1,17.2,6.2,19.2,7-1.8,6-.8,4.8-7.5,2.3-1.4-.5-13.1-4.6-13.3-5l-.1-.4Z" transform="translate(-143.5 -189.52)"/><path class="sp_three-cls-3" d="M368.1,497.8c.7.8.8,4.1-2.2,3.6-1.4-.3-7.5-3.1-9.4-3.8-10.1-4-20.7-7.7-30.9-11.5-9.9-3.7-19.9-7.3-29.8-11.1l-2.1-.9c.2-.9.9-4.4,2.2-4.1,4.2,1,10.4,3.8,14.7,5.3,17.6,6.5,35.3,12.9,52.8,19.6a11.58,11.58,0,0,1,4.7,2.9Z" transform="translate(-143.5 -189.52)"/><path class="sp_three-cls-3" d="M301.4,455.8c5,1.9,10.3,3.8,15.2,6-2,6-1.1,4.7-7.8,2.1-1.9-.8-17.7-6.5-17.7-7.1s1.2-4.1,1.9-4.1,7.1,2.6,8.4,3.1Z" transform="translate(-143.5 -189.52)"/><path class="sp_three-cls-3" d="M321.9,463.9c1.6.4,5.4,1.9,7.2,2.6,7.7,2.7,16.5,5.7,23.8,9.1,1.8.8,4.6,1.9,3.9,4.5-.7,2.9-5.9.1-7.5-.6-3.5-1.5-29.6-11.3-29.7-11.5-.1-.4.8-4.2,2.3-4.1Z" transform="translate(-143.5 -189.52)"/><path class="sp_three-cls-3" d="M263.3,418.6c33.3,16.3,66.9,32.4,100,49.1,3,1.5,20.2,10.5,22.9,12.4-1,6-17.6-4.1-22-6.5-12.6-6.7-26-13-38.8-19.3-26.3-12.9-52.6-25.7-78.9-38.6-1.6-.8-8-3.3-8.5-4.8s1.2-3.7,3.5-3.1c.8.2,7.6,3.9,9.1,4.6,4.2,2.1,8.4,4.1,12.7,6.2Z" transform="translate(-143.5 -189.52)"/><path class="sp_three-cls-3" d="M268.9,399.5c1.5.9,14.1,7.8,14,8.6,0,.5-1.6,3.8-2.2,3.8-1.1-.4-15.4-8.7-17.1-10.1-1.4-1.1-1.1-.5-.2-2.5,1.4-3.1,1.9-2.1,4.7-.4l.8.6Z" transform="translate(-143.5 -189.52)"/><path class="sp_three-cls-3" d="M338.3,439.9c16.3,8.5,12.1,6.1,28.2,15,2.4,1.3,3.2,2.1,1.5,4.6-1.1,1.7-3,.4-4.4-.5-16.1-9.4-12-6.5-28.2-15.6l-.5-.3c.5-1.1,1.3-3.3,2.4-3.8l1,.6Z" transform="translate(-143.5 -189.52)"/><path class="sp_three-cls-3" d="M319.5,429.1c.8.5.5.4-.4,1.8-.5.9-1,1.7-1.5,2.6-9.3-5.1-18.5-11-27.8-16-3.8-2-2.9-1.3-.8-5.1.6-1,2.2.4,3,.8,9.2,5.3,18.4,10.5,27.5,15.9Z" transform="translate(-143.5 -189.52)"/><path class="sp_three-cls-3" d="M374.8,436.9c1.1-3.9,2.7-2.8,5.5-.9,1.9,1.3,8,5.4,7.7,7-.2,1.1-1.5,3.5-3.1,2.8-.9-.4-6.1-4.9-7.2-5.9s-1.9-1.9-2.9-3Z" transform="translate(-143.5 -189.52)"/><path class="sp_three-cls-3" d="M368.6,428.4c.2,1.7-1.3,3.6-3.5,2.4-4.3-2.4-10-7.7-14.2-10.9-1.7-1.4-18.4-14.2-18.4-14.6s2.1-4.5,3.8-3.2c3.5,2.7,6.8,5.5,10.4,8.2,6.3,4.7,13.8,10.1,19.5,15.2.6.7,2.1,2,2.4,2.9Z" transform="translate(-143.5 -189.52)"/><path class="sp_three-cls-3" d="M377.9,423.3c-.2-.7,1-4,3.7-2,2,1.5,18.7,16.4,19.9,18.4.5.9.3.6-.4,1.8-1.9,3.3-3.4,1-5.5-1-1.3-1.1-17.3-15.6-17.7-17.2Z" transform="translate(-143.5 -189.52)"/><path class="sp_three-cls-3" d="M333.6,372.1c-23.2-20.3-46.3-40.8-69.6-61-1.3-1.1-6.6-5.1-6.4-6.7.2-1.2,1.5-2.7,2.9-2.3,1.6.5,7.2,5.8,8.9,7.3,29.8,26,59.8,51.6,89,78.2,2.4,2.1,1.5,2.6-.9,4.4-1.2.9-13.5-10.2-14.9-11.5q-4.35-4.35-9-8.4Z" transform="translate(-143.5 -189.52)"/><path class="sp_three-cls-3" d="M237.5,525.6c-2.6-.3-3.5-1.3-2.7-3.9,1-1.7,2.5-1.4,4.3-1.2,2.6.4,3.2.5,2.6,3.3-.5,2.5-2,2-4.2,1.8Z" transform="translate(-143.5 -189.52)"/><path class="sp_three-cls-3" d="M212.1,485.1c-1.9-.1-11.5-1.9-12.5-3.4-.6-.9-.5-3.4,1.5-3.6,1.2-.1,10.5,2.1,12.1,2.6.1.8-.1,4.2-1.1,4.4Z" transform="translate(-143.5 -189.52)"/><path class="sp_three-cls-3" d="M259.8,489.7c1.4.2,1,.3.5,2.2-.9,3.8.2,2.9-5.1,1.8-2.6-.5-27.3-5.6-27.5-5.8s.7-4,.9-4.7c10.2,2.1,20.4,4.5,30.7,6.4l.5.1Z" transform="translate(-143.5 -189.52)"/><path class="sp_three-cls-3" d="M277.3,498.5c-2.7-.5-5.4-.9-8-1.6,0-.8.1-4.4,1.2-4.4,3.6.1,10.5,1.7,14.2,2.5-.5,6.5-.7,4.8-7.4,3.5Z" transform="translate(-143.5 -189.52)"/><path class="sp_three-cls-3" d="M210.1,616.5c-1.6-4.1-.2-3.6,3.9-4.7,1.6-.4,8.2-2.4,9.3-1.6.9.6,2.5,3.5.4,4.3-1.5.6-6.6,1.5-8.5,1.9-.4.1-4.1.9-4.2.9l-.5-.1-.4-.7Z" transform="translate(-143.5 -189.52)"/><path class="sp_three-cls-3" d="M231.8,609.2c-.2-2.2,1.7-2.3,3.5-2.8s15.3-4.2,15.8-3.7,1.9,3.5.8,4.3-18.7,4.8-19.4,4.4c-.1-.1-.6-1.9-.7-2.2Z" transform="translate(-143.5 -189.52)"/><path class="sp_three-cls-3" d="M259.9,604c-1.7-4.6-.4-3.6,4.5-4.8,3.7-.9,31.7-8.6,32.7-7.7.8.6,2.1,3.5.5,4.3s-11.8,3-14.5,3.7c-6.5,1.7-13.7,3.8-20.2,5-.2,0-2.3.4-2.3.4l-.3-.2-.4-.7Z" transform="translate(-143.5 -189.52)"/><path class="sp_three-cls-3" d="M273.3,586.8c-1.4.7-21.8,4.9-24.7,5.4-1.9-6-1.1-4.4,5.3-5.9,2-.5,17.6-4.2,18.3-3.7.6.2,1.5,3.2,1.1,4.2Z" transform="translate(-143.5 -189.52)"/><path class="sp_three-cls-3" d="M279.6,585.4c-1.8.4-1.1.6-1.7-1.7-1-3.8.2-2.9,4-3.6,22.3-4.5,45.3-9.7,67.9-15.1,1.2-.3,7.6-2.1,8.4-1.7.3.1,2.1,3.6.1,4.4-.9.4-6.9,1.9-8.4,2.3-27.3,5.9-42.8,9.9-70.3,15.4Z" transform="translate(-143.5 -189.52)"/><path class="sp_three-cls-3" d="M186.1,583c-2.4.3-4.8.5-7.2.7-1.5-5.6-.9-4.4,4.8-5.2,42.1-6.4,85.8-12,128.2-17.3,6.1-.8,10.6-1.2,11.6-1,1.3.3,2,2.9,1.6,3.7s-2.4.9-3.2,1c-11.4,1.6-23,3.4-34.4,4.9-33.8,4.4-67.6,9-101.4,13.2Z" transform="translate(-143.5 -189.52)"/><path class="sp_three-cls-3" d="M193.8,560.7c-.7-4.8,0-3.5,5.1-3.9,1.8-.1,15.1-1.2,15.7-.6.4.4,1.3,4.3-.1,4.5-2.3.4-6.7.4-9.1.6-1.3.1-10.6.4-11.2.5l-.2-.3-.2-.8Z" transform="translate(-143.5 -189.52)"/><path class="sp_three-cls-3" d="M344.2,547.9c1,1.5,1.8,4-.8,4.3-3.7.3-7.7.4-11.4.7-17.3,1.3-34.6,3.1-52,3.6-2.3.1-2.4.8-2.7-1.7-.5-3.5,1.2-2.8,4.4-3.1,8.9-.7,17.7-1.5,26.7-2.1,4.8-.3,33.4-2.7,35.5-2l.3.3Z" transform="translate(-143.5 -189.52)"/><path class="sp_three-cls-3" d="M222.5,559c-.9-4.8.2-3.6,5.2-3.8,3.4-.2,28.7-2.3,29.4-1.5.4.4,1.1,4.2,0,4.5s-8.5.5-10.5.6c-7,.5-14.2,1.1-21.2,1.3-.6,0-2.4.1-2.6-.4l-.3-.7Z" transform="translate(-143.5 -189.52)"/><path class="sp_three-cls-3" d="M324,526.6c11.4.9,23.5,1.7,34.8,3.5,1.4.2,4,.4,4.7,1.7,1.2,2,.2,3.5-2.2,3.4-3.3-.2-7-.8-10.3-1.1-12.8-1.2-26.1-2-38.8-3.7-1.7-.2-3.4-.6-5.1-.9a5,5,0,0,1,.3-3.8c5.3-.3,11.2.4,16.6.9Z" transform="translate(-143.5 -189.52)"/><path class="sp_three-cls-3" d="M254.3,523.8c.1-3.1.9-2.2,4.1-1.8,7.6,1,16.3,1.1,24,1.7,2.2.2,13,.9,14.4,1.8.9.5,2.1,4.2-.8,4.3-2.3.1-7.3-.6-9.9-.8-2.9-.2-31.7-2.2-31.9-2.4a24.39,24.39,0,0,1,.1-2.8Z" transform="translate(-143.5 -189.52)"/><path class="sp_three-cls-4" d="M591.3,467.6c17.8-6.4,31.2,14.3,27.6,32.1-3.9,19.1-23.7,53.1-48.6,36-6.5-5.8,3-17.5,11-45.6,2-7.4,4.6-20.4,10-22.5Z" transform="translate(-143.5 -189.52)"/><path class="sp_three-cls-4" d="M552.2,437.8c8.4-3.9,20.3,3.4,25,7.6,14.8,13.1-9.2,66-20.9,80.4-7.1,8.6-19.2,1.4-24.3-5.5-6.2-8.5-2.2-14.4,1-24,8.6-25.4,10.1-53.6,19.2-58.5Z" transform="translate(-143.5 -189.52)"/><path class="sp_three-cls-4" d="M495.9,431.2c1.2-6.9,3.3-14.3,8.1-17.6,11.6-8.1,32.7-3.8,36.9,11.1,5.1,18.1-8.6,46.5-11.1,56.3-2.1,8.5-5.9,29.3-9.6,34.7-3.3,4.8-10.6,5.4-17.5,3.7-20-5-17-28.1-7.5-39.7,10.2-12.4,17.9-9.9,23.5-24.2,7-20.3-9-25.1-22.8-24.3Z" transform="translate(-143.5 -189.52)"/><path class="sp_three-cls-4" d="M458,428.6c-5-15.5-2.4-27.8,16.6-26.3,14.1,1.1,20,14.3,15.9,26.8-10.4,1.1-22.3.6-32.5-.5Z" transform="translate(-143.5 -189.52)"/><path class="sp_three-cls-2" d="M443.2,618.9a6.42,6.42,0,0,0-3.2-3.5c-1.3,1.1-2.5,2.3-3.9,3.5,1.8,1.2,3.4,2.4,5.1,3.4a2.36,2.36,0,0,0,2,.1c.5-.3.7-1.3.7-1.9a3.9,3.9,0,0,0-.7-1.6,5.77,5.77,0,0,0,1.4.3,4.66,4.66,0,0,0,2-.6c.2-.1.2-1.2,0-1.4a4.69,4.69,0,0,0-2.2-.9C442.8,616.5,442.7,617.6,443.2,618.9Z" transform="translate(-143.5 -189.52)"/><path class="sp_three-cls-2" d="M453.9,518.4a1.42,1.42,0,0,0-.2.6,13.81,13.81,0,0,0-3.5-.1c-1.5.3-2-.5-2.2-1.6a27,27,0,0,1-.4-2.8,2.87,2.87,0,0,0-2.7-2.9c-1.5-.2-2.9-.5-4.5-.8-1.1,2.2-1.4,5.2-4.4,7.4-.4-1.7-.6-3-.9-4.2-3.3-.2-3.3-.2-7.7,3.6.7,1.1,1.3,2.1,2,3.3q.9.15,2.1.3c-.3,1.6-.5,3-.8,4.7-.6-.3-1-.6-1.3-.7a18.46,18.46,0,0,0-2.3-.4,8,8,0,0,0-.3,2.6c.1.7.9,1.3,1.5,2.2,1-1.2,1.7-2,2.4-2.9,4.2.6,5.6-2.4,6.8-5.5,1.7.8,3.6,1.2,4.7,2.4,2.2,2.3,4.2,2.5,6.6.7.5-.4,1.2-.5,1.7-.9,2.5-1.4,3.3-.9,3.4,2.3H451c-.3,1.9.7,3,1.7,4.1s1.9.5,2.9.1a2.28,2.28,0,0,1,1.5.4c1.2.8,2.8,2.3,3.9.9,1.4-1.9,3,.4,4.1-.9.1-.1,0-.2,0-.3a19.12,19.12,0,0,0-3.4-2.4c-1.3-.5-2.9-.4-4.9-.7a27.65,27.65,0,0,1,2.8-4.2c1.2-1.2,1.3-2,.1-3.2-.4-.3-.5-.9-.7-1.3.5-.7.9-1.3,1.7-2.4-2.5.7-3.8.1-4.6-1.8-.5-1.5-1.8-1.9-3.4-1.9C451.7,514.5,451.6,516.7,453.9,518.4Z" transform="translate(-143.5 -189.52)"/><path class="sp_three-cls-2" d="M425.5,594.9c-.2,1.5.2,2.8,1.4,3,.6.1,1.6-.7,2.2-1.3.9-1,1.7-1.4,3-.6,1.8,1.1,2.2,1.9,1.6,3.5-.3.8-.8,1.6.5,2.3,2-2.4,4-4.8,6.1-7.2,2.6,2.1-1.1,2.8-1,3.6,1.1,1.6,1.9,2.7,2.6,3.8s1.7,2.1,3.4,1.9c1.4-2.1,1.6-4.1.1-6,.3-1.3,2.5-1.6,1.4-3.3,0-.1.9-1.1,1.4-1.1a5.6,5.6,0,0,1,2,.8c.9.5,1.6.3,1.9-.3-.6-2.5-1.1-4.7-1.7-7.4-1.1,1.3-1.8,2.1-2.6,3-1.9-.5-2.9-1.5-2.8-3.4a4.26,4.26,0,0,0-.6-1.8c-.9-1.4-2.4-1.7-3.1-.4-.8,1.5-2.2,1.4-3.3,1.7-1,1.9.2,2.6,1.3,3.6,1.5,1.3,1.5,1.4-.1,3.1-1.2-.5-2.3-.9-3.4-1.4-.1,0-.1-.2-.3-.4a5.16,5.16,0,0,0-.2-1.1,7.08,7.08,0,0,1-.1-1.4c-4-1.5-5.4-.9-6.4,3C428.2,592.9,427.5,594.5,425.5,594.9Z" transform="translate(-143.5 -189.52)"/><path class="sp_three-cls-2" d="M431.3,605.3a9.19,9.19,0,0,0-2.9-1.8,13.52,13.52,0,0,0-4,.3,1.47,1.47,0,0,0-.9,1c0,.4.5.8.9,1.1.2.2.6.1.9.1,1.9-.2,3.1.3,3.2,2.5a3,3,0,0,0,.8,1.7,3,3,0,0,1,.4,3.5,18.88,18.88,0,0,0-.6,1.8,19.8,19.8,0,0,1,3.9-.4c2.4.2,4-1.2,5.5-2.6a1.85,1.85,0,0,0,.2-1.9,2.35,2.35,0,0,0-1.9-.7,2.57,2.57,0,0,0-1.6,1c-1.4,1.6-2.3.8-3.4-.6,1-.7,1.8-1.2,2.3-1.6.4-1.9.6-3.4.9-5C433.5,602.6,433.1,605.6,431.3,605.3Z" transform="translate(-143.5 -189.52)"/><path class="sp_three-cls-2" d="M431,564.8c-.4.8-1.3,1.8-1.2,2.6a14.31,14.31,0,0,0,1.6,4.8c.9,1.8,2,2.1,4,1.4,1.6-.6,3.2-1.5,4.8-2.2,1.1-.4,2.2-.9,1.6-2.2s-1.7-.9-2.7-.3c-.3.2-.5.6-.7.6a20.62,20.62,0,0,1-2.1-.2c1.1-1.5,2.7-2.4,1.4-3.9a2.91,2.91,0,0,0-2.5-.9c-2.2.4-1.3,2.5-1.7,4C430.9,568.1,433.3,565.4,431,564.8Z" transform="translate(-143.5 -189.52)"/><path class="sp_three-cls-2" d="M441.8,503.2a17.31,17.31,0,0,1,1.6,2.8c1.1,3.8,1.3,3.9,4.1,1.3.3-.3.5-.7.4-.6-.7-2.5-1.3-4.5-1.9-6.7C444,500.2,443.4,502.2,441.8,503.2Z" transform="translate(-143.5 -189.52)"/><path class="sp_three-cls-2" d="M440.6,580.6c.2-2-.5-3.3-2-3.8a12.92,12.92,0,0,0-4.4-.3c-1.1,0-1.4.9-1.1,1.8a4.31,4.31,0,0,0,1.3,1.7C436.2,581.9,438.3,580.9,440.6,580.6Z" transform="translate(-143.5 -189.52)"/><path class="sp_three-cls-2" d="M448,581.7c.5-1.2.8-1.9,1.1-2.6.4-.9.5-1.7-.5-2.2s-1.4.4-1.7,1.3c-.8,2.5-.7,4.8,1.1,6.8,2.6-.4,2.9-.7,3.4-3C450.4,581.9,449.4,581.8,448,581.7Z" transform="translate(-143.5 -189.52)"/><path class="sp_three-cls-2" d="M447.8,609.7c-2.5.8-3.9,1.8-3.9,2.9,0,1.9,1.9,2.1,3,2.8a1.13,1.13,0,0,0,1.8-1.2A18.89,18.89,0,0,0,447.8,609.7Z" transform="translate(-143.5 -189.52)"/><path class="sp_three-cls-2" d="M439.8,574c0,1.8,1.9,2.2,3,2.3.9.1,2.1-1.1,2.9-2,.4-.4.2-1.3.2-1.9a10.87,10.87,0,0,0-1.8-.1C442.8,572.8,441.4,573.4,439.8,574Z" transform="translate(-143.5 -189.52)"/><path class="sp_three-cls-2" d="M457,509.7c2.7,1,3.7.4,3.5-2.3-.1-1.5.4-3.4-2-4.1C458,505.4,457.5,507.4,457,509.7Z" transform="translate(-143.5 -189.52)"/><path class="sp_three-cls-2" d="M450.3,530.9c-1.6-3.1-3-3.5-5.7-1.7.8,1,1.6,2.1,2.4,3.2C448.1,531.9,449.1,531.5,450.3,530.9Z" transform="translate(-143.5 -189.52)"/><path class="sp_three-cls-2" d="M452.6,600.2c.3-1.8-.2-3-1.4-3.5a2.68,2.68,0,0,0-2.2.7,2.4,2.4,0,0,0-.1,3.5C450.1,600.7,451.3,600.4,452.6,600.2Z" transform="translate(-143.5 -189.52)"/><path class="sp_three-cls-2" d="M455.6,559c3.5,1.6,5.3.5,5.6-3.5C458.5,555.5,457.2,557.3,455.6,559Z" transform="translate(-143.5 -189.52)"/><path class="sp_three-cls-2" d="M422.1,565.2a18.11,18.11,0,0,0,1.3,3.5,2.21,2.21,0,0,0,1.8.6c.5-.2,1.3-1,1.2-1.5a5.18,5.18,0,0,0-1.3-2.4C424.6,564.6,423.6,564.1,422.1,565.2Z" transform="translate(-143.5 -189.52)"/><path class="sp_three-cls-2" d="M437.5,499.9a19.31,19.31,0,0,0,1.3,3.1c.3.5,1.1,1.2,1.5,1.1,1.4-.3,1.2-1.5.9-2.6s0-2.7-1.9-2.8a1.23,1.23,0,0,0-.8.4A5.47,5.47,0,0,0,437.5,499.9Z" transform="translate(-143.5 -189.52)"/><path class="sp_three-cls-2" d="M465.5,629c.1-2.1-.6-3.3-1.7-3a2.92,2.92,0,0,0-1.9,1.7c-.4.9,1.3,3,2.1,2.7A5.14,5.14,0,0,0,465.5,629Z" transform="translate(-143.5 -189.52)"/><path class="sp_three-cls-2" d="M448.1,609.6a21.13,21.13,0,0,1,2.6-1.8c.9-.3,1.9-.2,2.7-.5.5-.2.9-.9,1.4-1.5C451.7,604.4,449.6,605.5,448.1,609.6Z" transform="translate(-143.5 -189.52)"/><path class="sp_three-cls-2" d="M420.3,587.6c.3-1,.8-1.9.6-2.4a5.78,5.78,0,0,0-2.1-2,2.23,2.23,0,0,0-1.5.9c-.7,1,0,1.8.8,2.4C418.6,586.8,419.3,587.1,420.3,587.6Z" transform="translate(-143.5 -189.52)"/><path class="sp_three-cls-2" d="M433.5,582.4c0-1.9-.9-2.8-2.2-2.7-1,.1-1.6.6-1.5,1.6.2,1.2.8,2.4,2.1,2.4C432.5,583.7,433.1,582.7,433.5,582.4Z" transform="translate(-143.5 -189.52)"/><path class="sp_three-cls-2" d="M426.7,578.6c2.5.5,2.7.4,4.4-2.3-.9-.3-1.8-1.1-2.4-.9A3.45,3.45,0,0,0,426.7,578.6Z" transform="translate(-143.5 -189.52)"/><path class="sp_three-cls-2" d="M431.5,619.9c.7,2.1,1.8,2.7,3.1,2.9.5.1,1.2-.6,1.5-1.1a1.72,1.72,0,0,0-.8-1.4A19.25,19.25,0,0,0,431.5,619.9Z" transform="translate(-143.5 -189.52)"/><path class="sp_three-cls-2" d="M478.8,544.6a5.72,5.72,0,0,0-.7-.8,13.07,13.07,0,0,0-2.7,1.2c-.4.3-.4,1.2-.7,1.8.7.1,1.6.5,1.9.2A12.56,12.56,0,0,0,478.8,544.6Z" transform="translate(-143.5 -189.52)"/><path class="sp_three-cls-2" d="M424.5,598.9c-2.2-1.3-2.9-1.1-4.3,1.5C422.4,601.5,422.9,601.3,424.5,598.9Z" transform="translate(-143.5 -189.52)"/><path class="sp_three-cls-2" d="M449.5,536.4c-.8,1.2-1.5,1.8-1.7,2.6-.2,1,.5,1.6,1.5,1.6a1.53,1.53,0,0,0,1.5-1.9C450.7,538,450.2,537.5,449.5,536.4Z" transform="translate(-143.5 -189.52)"/><path class="sp_three-cls-2" d="M425.6,593.8c.6-1.7.1-2.7-1.5-2.9-.4,0-1.4.8-1.4,1.1C422.8,593.7,423.9,594,425.6,593.8Z" transform="translate(-143.5 -189.52)"/><path class="sp_three-cls-2" d="M471.3,543.4c0-.3.1-.5.1-.8-.6-.4-1.2-1.1-1.9-1.2s-1.9.4-2,.9c-.3,1.2.7,1.7,1.7,1.7C469.9,544.1,470.6,543.6,471.3,543.4Z" transform="translate(-143.5 -189.52)"/><path class="sp_three-cls-2" d="M468.6,537.3c1.4,1.1,2.5,1.4,3.4.1.2-.2-.1-1.1-.4-1.3C470.4,535.4,469.5,536.1,468.6,537.3Z" transform="translate(-143.5 -189.52)"/><path class="sp_three-cls-2" d="M439.6,560.7c-1.5-1-2.4-.7-3.2.2a1.47,1.47,0,0,0-.2,1.4,2,2,0,0,0,1.6.4A19,19,0,0,0,439.6,560.7Z" transform="translate(-143.5 -189.52)"/><path class="sp_three-cls-2" d="M425.8,536.6c1.1.9,2,.5,2.4-.4.3-.6-.2-1.5-.3-2.2-.6.3-1.4.4-1.7.8S425.9,536.1,425.8,536.6Z" transform="translate(-143.5 -189.52)"/><path class="sp_three-cls-2" d="M439.4,508.6c-.9-.7-1.3-1.3-1.9-1.4a1.23,1.23,0,0,0-1.4,1.6,1.89,1.89,0,0,0,1.4,1.2C438,510,438.5,509.3,439.4,508.6Z" transform="translate(-143.5 -189.52)"/><path class="sp_three-cls-2" d="M453.5,576.7c-1.5,1.2-.8,2.4-.2,3.8C455.2,578.7,455.2,578.7,453.5,576.7Z" transform="translate(-143.5 -189.52)"/><path class="sp_three-cls-2" d="M438.6,537.7a8.78,8.78,0,0,0-2.3-1.4c-.1,0-1,1-.9,1.3a2.74,2.74,0,0,0,1.3,1.3C437.1,539,437.7,538.4,438.6,537.7Z" transform="translate(-143.5 -189.52)"/><path class="sp_three-cls-2" d="M460,534.7c-.7-.6-1-1.1-1.6-1.2-.2-.1-.7.6-1,.9.4.4.8,1,1.2,1.2C458.9,535.6,459.4,535.1,460,534.7Z" transform="translate(-143.5 -189.52)"/><path class="sp_three-cls-2" d="M431,633.7l-3.3-2.6C428,633.6,429.1,634,431,633.7Z" transform="translate(-143.5 -189.52)"/><path class="sp_three-cls-2" d="M444.3,607.9c1.8,0,2.2-.8,2.2-2.3C445,605.7,444.3,606.2,444.3,607.9Z" transform="translate(-143.5 -189.52)"/><path class="sp_three-cls-2" d="M466.9,536.9a6.78,6.78,0,0,0-1.8-1c-.2,0-.8.7-.7,1.1s.7.8,1.1.8S466.2,537.3,466.9,536.9Z" transform="translate(-143.5 -189.52)"/><path class="sp_three-cls-2" d="M433.1,532.2c-2.1-.5-2.1-.5-2.2,1.7A14,14,0,0,0,433.1,532.2Z" transform="translate(-143.5 -189.52)"/><path class="sp_three-cls-2" d="M440.5,545c.1.9.2,1.9.3,2.8C441.9,546.8,441.9,545.9,440.5,545Z" transform="translate(-143.5 -189.52)"/><path class="sp_three-cls-2" d="M469,512.1c2.4.5,2.4.5,2.6-1.2C470.9,511.2,470.3,511.5,469,512.1Z" transform="translate(-143.5 -189.52)"/><path class="sp_three-cls-2" d="M425.8,515.5l.9-.6a7.1,7.1,0,0,0-1-1.4c0-.1-.5.2-.8.4C425.2,514.4,425.5,515,425.8,515.5Z" transform="translate(-143.5 -189.52)"/><path class="sp_three-cls-2" d="M441.7,566.4c.2-.8.6-1.6-.6-1.9-.3-.1-.9.3-.9.5C440.1,566,440.6,566.5,441.7,566.4Z" transform="translate(-143.5 -189.52)"/><path class="sp_three-cls-2" d="M459.8,571.2a12.3,12.3,0,0,0,2.2.6c.1-.3.3-.6.2-.8C461.6,570.2,461,570,459.8,571.2Z" transform="translate(-143.5 -189.52)"/><path class="sp_three-cls-2" d="M451,534.8c.3,0,.6.1.9.1v-2a1.27,1.27,0,0,1-.6-.1C451.2,533.5,451.1,534.2,451,534.8Z" transform="translate(-143.5 -189.52)"/><path class="sp_three-cls-2" d="M427.3,555.3c.5-.4.9-.7.9-.9s-.4-.8-.7-.8a1.15,1.15,0,0,0-.9.6C426.6,554.4,427,554.7,427.3,555.3Z" transform="translate(-143.5 -189.52)"/><path class="sp_three-cls-2" d="M441.3,518.8c.2-.9.3-1.7.5-2.5.1-.2.8-.3,1.1-.2s.7.7.6.9a15.45,15.45,0,0,1-1.2,2.2A4.18,4.18,0,0,0,441.3,518.8Z" transform="translate(-143.5 -189.52)"/><path class="sp_three-cls-2" d="M444.3,589.8c.5,1.5,0,2.4-1.4,2.6-.3,0-.9-.4-.9-.7C441.9,590.1,443,590,444.3,589.8Z" transform="translate(-143.5 -189.52)"/><path class="sp_three-cls-2" d="M531.5,778.9c1.8-.6,1.9-1.8.8-3.1-1-1.1-.8-2.1.3-3a8.12,8.12,0,0,0,1.1-1.3c-.8-.2-1.4-.6-1.7-.4a15.36,15.36,0,0,0-3.2,2.5,30.42,30.42,0,0,0-2.3,3.5c.3,1.2,1.3,2,2.9,1.2,1-.7,1.6-.2,2.1.6-1.4,1-2.9,2-4.8,3.1-1.2-.1-3-.3-4.8-.4,2.5,3.7,3.7,3.9,7.1,1.5C530.5,782.1,531,780.6,531.5,778.9Z" transform="translate(-143.5 -189.52)"/><path class="sp_three-cls-2" d="M510.9,793.6c-3.1-1.4-3.3-1.9-2.2-5.2a4.89,4.89,0,0,0-.1-2.1,24.75,24.75,0,0,0-3.5-.3c-.8,0-2,.2-2.2.7a4.7,4.7,0,0,0,.2,2.6c.1.4.7.6.8,1,.8,1.9,2.6,3.7.6,6a2,2,0,0,0,.1,2c1.7,1.6,3,3.9,6.1,3.6.2-.6.9-1.5.7-1.9-1.2-2.1-.1-4.1-.3-6.2,2.9.3,5.5,2.1,8.6,1,.1-1,.2-1.9.3-2.8,1.6-1.2,3.8-1.9,3.6-4.9a14.14,14.14,0,0,1-10.8,2C512.2,790.5,511.6,792,510.9,793.6Z" transform="translate(-143.5 -189.52)"/><path class="sp_three-cls-2" d="M537,709.1c-3.2-1-3.2-1-3.4-4.2-1.9-.3-4-.6-6.1-1-.1-.9-.1-1.8-.2-2.5-3-.6-5.8-1.2-8.9-1.9.5-.8.6-1.5,1-1.9,3.6-3.3,3.9-4.1,2-8.5a5.56,5.56,0,0,0,.8-.4c1.4,1.8,3.6,2.3,5.4,3.4,2,1.3,3.8,2.1,6.3,1.5a26,26,0,0,0,1.3,3.6,17.93,17.93,0,0,0,2.2,3.8c.4.5,1.6.9,1.9.7,1.6-1.3,3.4-.9,5.4-.5.1-1.7-.6-3.7,1.7-4a50.12,50.12,0,0,1,5.5,0c.4-.4,1.4-1.2,2.3-2.1,2.1-1.9,2.4-4,.8-6.3-.2-.4-1-.4-1.9-.7.3,1.6.4,2.7.6,3.5-1.8.9-3.3,1.7-4.5,2.3-1.4-.6-2.9-1.1-4.5-1.7a29.6,29.6,0,0,0-2.5-2.3c-3-2.2-3.3-2.1-4.3,1.5-.1.2-.2.3-.3.5-1.4.2-2.9.5-4.1.7a9.8,9.8,0,0,1-4-5.8c-.3-1.4.1-5.8.8-6.7.1.3.3.6.4.9.8,4,2,4.4,5.3,2.1.7-.5,1.2-1.6,2.4-.7-.4.9-.8,1.7-1.2,2.6a9.76,9.76,0,0,0,8.3,1.7c-1.8-.7-3.7.2-3.8-2.1,2-1.1,2.8-4.2,6-3.7.4.1.8-.6,1.3-.8a13.83,13.83,0,0,1,2.7-1.4c1.4-.4,1.9-.9,1.7-2.5a8.75,8.75,0,0,1,.5-3.6,1.26,1.26,0,0,1,2.1-.6c.7.5,1.3,1.5.5,2.2-2.6,2.2-.6,4,.4,5.8.2.4,1.2.4,2.3.8-.4-1.8-.6-3.1-.8-4.4,2.8-.9,2.6,3.1,4.9,2.7,1.6-2.1,1.6-2.2,1-4.6-.9-3.1-.9-3.1,1.8-5.1.2-.1.3-.3.5-.4,2.2-1.7,2.5-2.7,1.4-5.8-1.2.1-2.3.1-3.6.2.1-1.2.1-2.1.2-3.2-3.1.9-6.3,1.1-7.9,3.9-.1,1.4-.3,2.6-.4,3.9-2.6-.2-4.9-.4-7.2-.6-.5,2.2-.5,2.2,2.7,4.2-4.5-1.6-6.7,2.3-9.8,4.1-1.9-3.2-1.3-3.9,3.6-5,.4-1.6.7-3.2,1.1-4.7,1.7-.1,3.1-.1,4.5-.3a2.83,2.83,0,0,0,1.7-1.1,20.8,20.8,0,0,0,1.9-4.3,32.58,32.58,0,0,0,.9-4.5c.9-1.2,4.1,2.3,3.8-1.8-1.4-.7-2.8-1.4-3.8-2-1.7.9-3,1.5-4.6,2.3a4.59,4.59,0,0,0,.2,4.9c.8,1.3.4,3.2-.8,3.2-2.8-.1-3.9,1.6-5.2,3.5-.2.4-.9.4-1.4.6-.8-.9-1.4-1.6-2.1-2.4-2.9,1.2-4.5,3-3.9,6.2v.3c-.1,2.5-.7,3.1-3.3,3.7-.7.1-1.2.7-1.8,1-.4.3-.9.8-1.2.8-1.7-.3-2.8.7-4,1.6a18.44,18.44,0,0,1-2.8,1.5c-.3-2.6-.3-2.6,1.3-3.7a3.35,3.35,0,0,0,1.4-1.5c.4-1.7.6-3.4.9-5.3-.4-.1-1.1-.4-1.4-.2a16.17,16.17,0,0,1-6.3,3.1c-1.2.4-2.1,1.1-3.4.8a3,3,0,0,0-1.8.4c-1.1.6-2.1,1.3-3.3,2.1,0,2.9,1.8,5.3,3,8a4.32,4.32,0,0,1-2.7-1.9,2.39,2.39,0,0,0-2.7-1.6c-.5,0-1-.2-1.3-.2-.7-1.1-1.2-2-1.8-2.9a1.85,1.85,0,0,1-.7.2v5.7c-2.2-.8-4.1-1.5-6.1-2.2-1,3.3.3,4.4,5,4.6.2.4.4.8.6,1.3,1.1,2.6,1.1,2.6,3.9,1.9a10.62,10.62,0,0,1,1.9-.4c3.8-.7,6.9-2.4,8.8-5.8a4.18,4.18,0,0,1,1.1-1.5,7,7,0,0,1,2.5-.6c-.6,2.3-1,4-1.4,5.8-1.1.7-2.5,1-2.7,3-.1,1.4-1.2,2.8-1.9,4.1h-3.2c.1,1.2.2,2.2.4,3.9-1.7-1.6-3.2-2-4.5-.6a2.67,2.67,0,0,0-.3,2.3c.2.4,1.5.6,2.2.4a13.67,13.67,0,0,0,2.7-1.9c.3,1.8.6,3.2.7,4.6.1,2.3,1.5,3.5,3.7,2.8.4-.1.8-.6,1.1-.5a7.1,7.1,0,0,1,1.8.8c-.3.6-.5,1.4-1,1.7a13.06,13.06,0,0,1-2.7.7c.2,1.8.4,3.4.6,5,.1.9-.2,2.2,1.1,2.2.6,0,1.4-1.1,1.8-1.8.6-1,1-2.2,1.6-3.5,1,.4,1.7.8,2.3,1a7.49,7.49,0,0,0,2.1.2c.5,3.3.5,3.3,3.8,3.7.5,2.1,1.4,4,3.9,3.8.4,1,.8,1.8,1.1,2.7,2.3-1.5,3.3-4,2.4-5.7a39.48,39.48,0,0,0-2.3-5.1c.2.1.4.4.6.6,2.1,1.9,2.6,2,4.4.9,2.3-1.4,2.4-1.7,1.6-4.5-.1-.4,0-.9-.2-1.2a2.3,2.3,0,0,0-1.3-1.1c-.3-.1-.8.4-1.1.8s-.5.9-.7,1.2c-1.9.2-2.1-2.7-4.4-1.6C536.3,705.7,536.7,707.4,537,709.1Z" transform="translate(-143.5 -189.52)"/><path class="sp_three-cls-2" d="M483,739.8c1,2.1,1,2.1,3.4,3.6a5.8,5.8,0,0,1,1.2,1c.7.9,1.3,1.7,2.6,1.2,1-.4,1.2-1.2,1.3-2.3.2-1.9.7-2.1,2.5-1.5a10,10,0,0,1,1.8.9c-.2.8-.7,1.6-.5,2.1a3.53,3.53,0,0,0,1.5,1.7c.4.2,1.1-.2,1.6-.4a11.69,11.69,0,0,0-.6-2c-.6-1-1.3-2-2.1-3.3h-2.3c-1.1-1.4-.6-2.5.4-3.5.9-.8,1.8-1.6,2.9-2.7-1.6-.8-2.6-1.3-3.9-1.9,1.2-2.5,2.3-4.9,3.4-7.3-2.1-.9-2.1-.9-1-3.3H497a15.52,15.52,0,0,0,2.1-.4c-1.8-3.5-3.5-4.5-6.8-4.3a5,5,0,0,1-2.7-.5,1.57,1.57,0,0,1-.8-2.6c.7-1,1.6-.8,2.4.1a3.77,3.77,0,0,0,4.1,1.1,2.59,2.59,0,0,0,1.5-1.4c.1-.3-.4-1.2-.9-1.5-2-1.3-3.9-2.9-6.7-2.4-1.3.2-3-.1-3.3-1.9-.5-2.9-2.5-3.7-4.9-3.6-1-.7-.8-2.5-2.9-2.2a6.06,6.06,0,0,0,.8,1.8,1.89,1.89,0,0,1,.9,2.1c-.3,2.6-.2,2.6,2.4,2.8a12,12,0,0,1,2,.6,15,15,0,0,1-2.3,1.9c-.5.3-1.3.2-1.8.5a8.2,8.2,0,0,0-1.7,2c-.1.1.3.6.5.7,1.1.6,1.8-.1,2.5-.8s1.5-1.7,2.7-.8.3,1.7-.3,2.5a2.06,2.06,0,0,0,.2,2.9,6.76,6.76,0,0,1,.8,1.5c-1.1.5-2.1.8-3.2,1.3-.1-1-.3-1.8-.3-2.2-2.9-1.7-5.4-3.6-8.8-3.5l-.4.2c-2.5,1.4-3.2,1.1-3.7-1.7a11.36,11.36,0,0,0-.6-2.5c-.6-1.6-1.8-2.1-3.2-1.1-1.6,1.2-3,2.6-4.5,3.9-1.1.2-2.6.1-3.4.8-.6.6-.2,2.2-.3,3.5-.6-.3-1.4-.4-1.6-.8a5.13,5.13,0,0,1,3.6-7.1c1-.3,2-.6,2.9-.9.1-3.4-.1-3.5-3.1-3.3a8.8,8.8,0,0,1-2-.4c1.3-2.2,1.3-4.1,0-5.1a2.49,2.49,0,0,0-1.7-.3,1.64,1.64,0,0,0-.7,1.2,20.24,20.24,0,0,0,.4,2.6c-3.5,2.4-3.5,2.4-.9,5.2.1.1,0,.4,0,.2-1.2.2-2.4.3-3.1.4-1.6-1.3-2.8-2.9-4.3-3.3-2-.6-4.3-.4-6.6-.5-.8,2.8,3.9,3.7,2.1,6.8,2.7-2.5,2.7-2.5,6.9-.6-.4,2.4-.7,4.8,2.1,6.3,1-.6,1.7-2.8,3.1-.5a13.1,13.1,0,0,0-.6,2.7c0,1.6,1.2,2.8,2.3,2.4,1.6-.6,3.4-1.1,4.4-2.3a4.54,4.54,0,0,1,4.9-1.4c1.1,3.1,2.1,5.8,3.1,8.5,1,.3,2,.7,2.4.8.6,1.3.8,2.3,1.4,2.7,1.1.8,1.9-.1,2.7-1a3.13,3.13,0,0,0,.6-4c-2.7.6-3.2-1.6-4.4-3.3,3.1-1.9,3.1-1.9,6.1-.6.4,1.3.5,2.7,1.3,3.6,1.1,1.4,0,2.5-.3,3.7H481c0-1.3.1-2.4,0-3.5-.3-2.1.2-3.3,2.2-3.9a2.34,2.34,0,0,0,1.7-1.5c1.3-2.8,6.2-3.2,8.5-.7-4.1,1.9-3.9,5.3-3,8.9-2.5.4-2.6.4-2.6-1.4a35,35,0,0,1,.7-4.5c-2.3-.5-2.8-.5-2.9.2-.4,2.2-3.2,3.6-2.1,6.4.2.5-.5,1.5-1,2.1a9,9,0,0,1-2,1.4,7.66,7.66,0,0,1,.4,2.5,17.75,17.75,0,0,1-.6,2.8A7.87,7.87,0,0,0,483,739.8Z" transform="translate(-143.5 -189.52)"/><path class="sp_three-cls-2" d="M563.7,761a22.73,22.73,0,0,1-2.7-2.7c-.7-.8-1.8-1.9-1.7-2.7a12,12,0,0,1,2-4.8c1.7-2.7,1.8-3.1-.2-5.3-1.1-1.1-2.1-2.3-3.7-4a8.47,8.47,0,0,0,2.2.3,7.1,7.1,0,0,0,1.8-.8c-.3-.6-.4-1.4-.9-1.8a1.86,1.86,0,0,0-2.6,0,4.55,4.55,0,0,1-5,.1c4.4-3.5,5.1-5.1,3.5-7.7-1.2-2-2.3-2.2-5.8-.9-.4,1.6.6,2.5,1.7,3.4a2.21,2.21,0,0,1,.6,1.9,2.62,2.62,0,0,1-1.6,1.3c-.3.1-.9-.7-1.3-1.1s-.9-1.3-1.5-1.4c-1.4-.2-3.1-.5-4.2.1-1.4.7-2.4,2-4.2,1.9-.3,0-.8.9-1,1.4-.1.3.3,1,.5,1a3.29,3.29,0,0,0,1.7-.4c.6-.3,1.2-1.1,1.8-1.1a47.48,47.48,0,0,1,5.3.5c.5,1.8.9,3.4,1.5,5.4-1.1-.1-2-.3-2.8-.4-.4-1.5-.8-2.7-1.3-4.5-3.1,2.8-6.5,4.2-9.3,6.6,3.4,2.1,3.6,2.1,6.2,0,.7-.6,1.4-1.4,2.7-.5a20.61,20.61,0,0,0-.3,2.6c0,1.4,1.2,1.6,2.2,1.8,2.8.4,4.1-.5,5.3-3.6,2.3-.7,3.7.9,5.3,2.2a6.78,6.78,0,0,1-.9.6c-3.4,1.9-4,4.9-1.7,7.8,1.3,1.7,2.3,3.8,4.6,4.5.3.1.5.6.8,1.1a61.8,61.8,0,0,1-2.8,6.4c-1.5,2.7-2.2,2.7-3.9.2-.7-1-1.4-1.4-2.3-.8a1.7,1.7,0,0,0-.5,2.5c1.9,2.7,3.3,5.7,5.7,8.1.8.8,1.6.9,2.7-.1-.6-1-1.2-2.1-1.9-3.3,1-1.5,2.3-2.9,3.2-4.5,1.4-2.8,1.3-2.9,4.4-2.7,1.8.1,2.5-.5,2.7-2.3a9.74,9.74,0,0,0,.1-1.6c1.6-1.1,3-2,4.3-2.9-.6-1.5-1.6-2.4-2.5-1.6C567.9,761.1,565.3,759.9,563.7,761Z" transform="translate(-143.5 -189.52)"/><path class="sp_three-cls-2" d="M567.1,733.1c-.2-.3-.4-.9-.8-1.1-1.9-1.1-1.7-2.5-1-4.3.8-2.3,1.7-4.7,1.4-7-.4-3.2,1.1-5.8,1.7-8.7.3-1.2.3-2-.6-2.8-1-1-2-2.1-2.9-3.1,1.1-1.5,1.9-2.7,3-4.3-2.2-.6-3.8-1.1-5.9-1.7-.7-.6-.5-2.8-2.7-2.7-.7,2.7-.7,2.7-1.8,3.9a21,21,0,0,1-1.4-1.7c-1.2-1.4-2.6-.6-3.8-.1s-.9,1.5-.7,2.5.2,1.9.3,3.2c-2.1-.2-3.6-.3-5.5-.4a21.66,21.66,0,0,0,1.2,2.6,2.26,2.26,0,0,0,3.6.3c1.6-2,3.9-2.3,6.3-3.2,1.1,2.1,2.1,4.1,3,5.9-1.1,1.1-2.2,1.8-2.5,2.7s.5,1.8,1.8,1.7a5.38,5.38,0,0,0,.9-1.2,5.91,5.91,0,0,0,.6-1.4c2,3.3,1,5.9.2,8.7-.8-.5-1.5-1-2.6-1.8-.7.7-1.4,1.3-2.2,2,1.7,2.2,2.2,4,.9,6-.6,1,.2,1.8,1.1,2.3a12.27,12.27,0,0,1,2.6,1.2c.5.4,1.1,1.2,1,1.7s-.8,1.1-1.3,1.5a5.93,5.93,0,0,1-1.6.7c1.1,1.9,2.9,2.9,4.4,2.6a2.14,2.14,0,0,0,1.2-.8A35.29,35.29,0,0,0,567.1,733.1Z" transform="translate(-143.5 -189.52)"/><path class="sp_three-cls-2" d="M454.6,727.3c-.5-1-.6-1.8-1.1-2.3s-1.5-1.1-1.8-.9c-1.7,1.1-4,1.2-5.5,3.5,1,.7,1.9,1.4,2.5,1.9,0,1.5-.3,2.7.1,3.7,1.2,2.9,3,5.6,2.6,8.9a2.25,2.25,0,0,0,.6,1.4c.8,1,1.7,1.2,2.6,0-1.1-3.5-1.3-7,.3-9.8,1.6-.8,2.9-1.4,4-1.9,1.4,1.1,3,2.4,4.6,3.8-1.8,1.5-.6,2.9.3,4.3,1.2-.8,2.2-1.4,3.3-2.1a7.46,7.46,0,0,0,1.7-1.4c1.4-1.6,1.1-2.9-.9-3.6a20.74,20.74,0,0,0-3.3-1c-1.8-.3-2.8-1.1-2.9-3.1-.1-1.8-.6-2-2.5-1.8C457.7,727,456.2,727.1,454.6,727.3Z" transform="translate(-143.5 -189.52)"/><path class="sp_three-cls-2" d="M499.4,731.9c.7,2.3,1.5,4.6-1.2,6.2a1.72,1.72,0,0,0-.1,2.8,1.79,1.79,0,0,0,2.8-.3c1.2-2,2.9-3.8,2.7-6.5-.2-3-.1-3,2.6-4,.4-.2.9-.3,1.1-.6.4-.6,1.1-1.3,1-1.8-.2-.7-1-1.2-1.6-1.6a7.75,7.75,0,0,0-2.3-.7c1.9-2.5,2-2.7,1.6-4.6-.7-3.3-.5-3.8,2.6-5.4-.2-.7-.3-1.4-.5-2a14.72,14.72,0,0,0,2.8-1.6,3.38,3.38,0,0,0,.9-2.5c-.1-1.2-1.3-1.2-2.3-1.1a4.36,4.36,0,0,0-3.8,2.4c-3.9-.6-5.5.6-6.3,4.9a5.73,5.73,0,0,1,1.4.4c1.4.5,2.4,2.4,1.7,3.5-2,3-1.8,6-.7,9.2.2.6-.3,1.5-.7,2.2C500.6,731.2,500,731.5,499.4,731.9Z" transform="translate(-143.5 -189.52)"/><path class="sp_three-cls-2" d="M505.7,771.6c-1.5-.7-2.3-.1-2.7,1.2-.5,1.5-.7,3.2-1.6,4.4-1.6,2.3-1,4.1.3,6.2,2.5-.7,2.7-2.7,2.7-4.7,3-.2,3-.1,3.3,4,1.3-1.9,2.3-3.5,3.4-5.2a4.35,4.35,0,0,0,4.8,1,6.85,6.85,0,0,1,5.9.4c.4.3,1.1,0,1.9,0-.2-.6-.2-1.2-.5-1.4a6.72,6.72,0,0,1-2.9-3.1c-.5-1.4-3.9-1.7-4.8-.5-2.2,2.9-5.6,2.6-9,4.1C506.2,775.4,506,773.5,505.7,771.6Z" transform="translate(-143.5 -189.52)"/><path class="sp_three-cls-2" d="M491.7,786.5a7.42,7.42,0,0,1,.8,1.5c.2,1-.1,2.3,1.1,2.7a13.53,13.53,0,0,0,3.3.9c1.7.2,2.5-.5,2.5-1.7,0-1.4-.9-1.6-2.1-1.7-.8-.1-2.1-.8-2.2-1.3-.2-1.9-1.2-3.9.2-5.8a17,17,0,0,0,1.2-2.9c-2.6-1.2-3.1-3.4-2.3-5.9-2.5-.9-3.7,1.2-5.3,1.9-.4.2-.9,1-.8,1.2a1.66,1.66,0,0,0,1.3,1c1.2.1,2.1.3,2.5,1.6.9,2.8,2.1,5.6-1.1,7.8a7.1,7.1,0,0,0-2.2-1.3,1.36,1.36,0,0,0-1.6,2.1,2.28,2.28,0,0,0,3.3.8A15.14,15.14,0,0,0,491.7,786.5Z" transform="translate(-143.5 -189.52)"/><path class="sp_three-cls-2" d="M570,748.3c-3.3,0-4.3,3.4-6.9,4.4-.2.1-.2.6-.3.9-.6,3.2,1.2,4.9,4.5,4.7a39.8,39.8,0,0,1,6.9.2c1.3.2,2.4.3,2.9-1s-.6-2-1.6-2.4c-2.7-1-5.4-2.7-8.2-.2-.1.1-.4-.1-.5-.2-.2-2.6-.2-2.7,2.2-3.7C570.3,750.4,570.9,749.8,570,748.3Z" transform="translate(-143.5 -189.52)"/><path class="sp_three-cls-2" d="M488.1,796.4c-.6,1.6-3,2.1-1.6,4,.1.2-.4.9-.7,1.3-.5.6-1,1.3-1.8,2.3,3.4.6,2.6,3.7,3.8,5.5,2.5-.3,2.6-.4,2.7-2.3.1-2.3.2-4.7-1.5-6.5.3-.4.4-.7.6-.9,1.8-2.1,1.8-2.1.3-4.5a3.28,3.28,0,0,1-.3-2c.2-2,.2-2-2.2-1.9C487,793.2,486.5,794.9,488.1,796.4Z" transform="translate(-143.5 -189.52)"/><path class="sp_three-cls-2" d="M534.2,787c-4.2-.2-4.1,3.2-5.3,5.5h-3.8c1,2.3,1.1,2.6,2.3,2.4,1.9-.3,4.3,1,5.8-1.5.2-.3,1-.3,1.5-.4l6.4-1.2c.4-.1.6-.7.9-1-2-2.9-4.2.2-6.2-.4C535.2,789.2,534.6,787.9,534.2,787Z" transform="translate(-143.5 -189.52)"/><path class="sp_three-cls-2" d="M548,798.3c.6,3.2.6,3.2,1.7,4.3,2-.7,2.3-2.6,2.7-4.3.3-1.4.4-2.6,2.2-2.9,1.3-.3,1.5-1.4.7-2.5-1.1-1.6-3-1.5-4.2,0-1,1.2-2.1,2.3-3,3.3-5.1-2.2-5.1-2.2-7.8-.3.8,1.9,2.5,0,3.7.8C545,797.5,546.4,797.7,548,798.3Z" transform="translate(-143.5 -189.52)"/><path class="sp_three-cls-2" d="M479.5,734.2a1.75,1.75,0,0,0-2.7-.8,14.51,14.51,0,0,1-3.3.8c-.8,1-1.7,2.1-.7,3.8.5.8-.2,1.7-1.1,2.3-1.2.7-2.3,1.6-3.6,2.5,1.9,1.7,4.6,2.2,6,1.3.5-.3,1.1-1,1-1.4a3.09,3.09,0,0,1,1.9-3.3,2.55,2.55,0,0,0,.7-1C478.3,736.9,478.9,735.6,479.5,734.2Z" transform="translate(-143.5 -189.52)"/><path class="sp_three-cls-2" d="M548.8,755c.1-4.1-.9-4.9-3.9-3.4v4.1c-.1,2.3.6,3.3,2.9,3.7a40.45,40.45,0,0,0,4.9.4c1.1-2.1-.3-3.5-1.2-5.1Z" transform="translate(-143.5 -189.52)"/><path class="sp_three-cls-2" d="M557.1,784.7a16.26,16.26,0,0,0-2.6,2.7,3,3,0,0,0-.2,2.6,1.5,1.5,0,0,0,2.5.2,10.58,10.58,0,0,1,5.1-3.2c.1,0,.1-.4.1-.6-.2-.2-.3-.6-.6-.7a5.29,5.29,0,0,1-3.9-4.1,4.86,4.86,0,0,0-4-3.2C552,781.9,555.4,782.4,557.1,784.7Z" transform="translate(-143.5 -189.52)"/><path class="sp_three-cls-2" d="M525.6,768.8a4.25,4.25,0,0,1-3.6-2.7c-.5-1.1-1.6-1.8-3.5-1.7a25.88,25.88,0,0,0,2.1,4.4,3.47,3.47,0,0,1,.7,2.9c-.3,2.7,1,3.9,4.3,3.8Z" transform="translate(-143.5 -189.52)"/><path class="sp_three-cls-2" d="M534,758.9a32,32,0,0,1,2.6,2.4c.8,1,1.3,2.2,2.1,3.2.4.5,1.3,1.2,1.6,1.1a3,3,0,0,0,1.6-1.7c.8-2.3-.3-4.4-2.9-6.2C536.2,755.8,536.1,755.9,534,758.9Z" transform="translate(-143.5 -189.52)"/><path class="sp_three-cls-2" d="M546,709.6c-.2.1-.3.2-.5.3.4,1,.7,2,1.1,3,1.2,2.8,3.1,3.6,5.8,2.4a2.29,2.29,0,0,0,1.3-2.9c-.3-1.2-1.3-1.2-2.3-.8a3.32,3.32,0,0,1-4.2-1.2C546.9,710,546.4,709.9,546,709.6Z" transform="translate(-143.5 -189.52)"/><path class="sp_three-cls-2" d="M516.8,731.2c1.9,2.5,3.4,3.1,5.3,2.4,1.7-.7,1.9-1.1,1.6-4.2-.8-.5-1.8-1-2.8-1.5C519.5,729,518.1,730.1,516.8,731.2Z" transform="translate(-143.5 -189.52)"/><path class="sp_three-cls-2" d="M515.6,712.4c-1,.3-1.5.3-1.7.6-1.1,2.1-1.4,4.5-3.3,6.3-.8.7.6,2.7,1.8,2.8,1.5.1,1.7-.8,1.4-2.1a1.43,1.43,0,0,1,.3-1.1C516.8,717.3,515.2,714.9,515.6,712.4Z" transform="translate(-143.5 -189.52)"/><path class="sp_three-cls-2" d="M546.3,761c-1.4,1.4-2.5,2.4-3.6,3.4,1.1,2.2,3.4,3.5,2.9,6.2,0,.2.9.6,1.4.9.3-.5.8-1,.7-1.5C547.4,767.2,546.9,764.5,546.3,761Z" transform="translate(-143.5 -189.52)"/><path class="sp_three-cls-2" d="M550.7,780.7c-1.4.8-2.4,1.3-3.5,1.9a6,6,0,0,0-1.3.9c-.7.7-1.7,1.5-.7,2.7.6.8,2.3.6,3.2-.2.2-.2.5-.5.5-.8a2.37,2.37,0,0,1,2.4-1.6,11.9,11.9,0,0,0,2-1C552.1,781.7,551.2,781.1,550.7,780.7Z" transform="translate(-143.5 -189.52)"/><path class="sp_three-cls-2" d="M487.7,772.8h.9a2.72,2.72,0,0,0,2.4-3.1c-.4-1.8-1.7-1.1-2.8-.9-.6.1-1.3-.1-1.8.1s-1.4.7-1.5,1.1a2.3,2.3,0,0,0,.8,1.8A4.17,4.17,0,0,0,487.7,772.8Z" transform="translate(-143.5 -189.52)"/><path class="sp_three-cls-2" d="M576.1,714.9c-3.4-.9-5.6.3-5.7,3.1-.1,1.2.6,1.8,1.7,1.5C573.6,719.2,575.7,716.8,576.1,714.9Z" transform="translate(-143.5 -189.52)"/><path class="sp_three-cls-2" d="M543.6,733.7c.4-.2,1.5-.6,1.8-1.2.5-1.2-.4-2-1.4-2.4-1.2-.5-2.4-1-3.6,0a1.87,1.87,0,0,0-.5,1.4C540.5,732.8,541.6,733.5,543.6,733.7Z" transform="translate(-143.5 -189.52)"/><path class="sp_three-cls-2" d="M570,772.5c-2.8-1.3-4.5-1-6.1.9C566.5,775.5,568.4,775.3,570,772.5Z" transform="translate(-143.5 -189.52)"/><path class="sp_three-cls-2" d="M531.9,763.1c-.2.3-.8.7-.9,1.2-.2,1.2,1.5,3.4,2.4,3.2A2.63,2.63,0,0,0,535,766C535.3,764.9,533.3,763.1,531.9,763.1Z" transform="translate(-143.5 -189.52)"/><path class="sp_three-cls-2" d="M541.5,725.3c.5-.8.8-1.8,1.4-2.1,1.9-.9,1.5-2.2.8-4.1-.9.7-1.8,1-2.1,1.7C541.1,722.1,539.8,723.6,541.5,725.3Z" transform="translate(-143.5 -189.52)"/><path class="sp_three-cls-2" d="M461,741.7c-2.5-2.1-3.6-1.5-5.2,2.5.4.2.9.6,1,.5A47.71,47.71,0,0,0,461,741.7Z" transform="translate(-143.5 -189.52)"/><path class="sp_three-cls-2" d="M565.9,739.5c-2.4,1.3-2,3.5-2.6,5.3-.1.2,1.1,1.1,1.8,1.2a1.15,1.15,0,0,0,1.2-1.7C565.5,742.8,565.8,741.3,565.9,739.5Z" transform="translate(-143.5 -189.52)"/><path class="sp_three-cls-2" d="M470.7,751.3c.6,0,1.3.2,1.6,0a16.13,16.13,0,0,0,2.8-2.4,2.75,2.75,0,0,0,.5-2c0-.3-.8-.9-1.1-.9-.6.2-1.6.8-1.6,1.2C473.1,749,471.9,750,470.7,751.3Z" transform="translate(-143.5 -189.52)"/><path class="sp_three-cls-2" d="M578.5,724.7a1.25,1.25,0,0,0,1.3-1.9,7.71,7.71,0,0,0-2.3-2.1,1.27,1.27,0,0,0-1.9,1.3A3.79,3.79,0,0,0,578.5,724.7Z" transform="translate(-143.5 -189.52)"/><path class="sp_three-cls-2" d="M489.9,755.6c-.1,2-1.3,4.2.9,6.1C493,759.1,490.6,757.5,489.9,755.6Z" transform="translate(-143.5 -189.52)"/><path class="sp_three-cls-2" d="M459,733.9c-2.3.9-3.5,2-3.9,3.8a1.89,1.89,0,0,0,.6,1.5,1.56,1.56,0,0,0,1.6-.4C457.9,737.4,458.3,736,459,733.9Z" transform="translate(-143.5 -189.52)"/><path class="sp_three-cls-2" d="M513.6,785.1c1.1,1.1,2.2,2.1,3.8.9.4-.3.4-1.4.2-1.9-.6-1.2-2.2-1-3.8.2A2.91,2.91,0,0,0,513.6,785.1Z" transform="translate(-143.5 -189.52)"/><path class="sp_three-cls-2" d="M553.9,725.9a8.23,8.23,0,0,0-1.4-2.5c-.4-.4-1.4-.8-1.8-.6a2.26,2.26,0,0,0-1.1,1.7c0,.5.8,1.2,1.3,1.4A14.8,14.8,0,0,0,553.9,725.9Z" transform="translate(-143.5 -189.52)"/><path class="sp_three-cls-2" d="M550.3,778.1c2.2-2.4,1.8-4-1.5-4.8C548.4,775.2,549.4,776.6,550.3,778.1Z" transform="translate(-143.5 -189.52)"/><path class="sp_three-cls-2" d="M568.6,701.6c1.1,1.1,2.1,1.1,2.8.1,1.2-1.7-.2-3-1-4.5C569.7,698.7,569.2,700.1,568.6,701.6Z" transform="translate(-143.5 -189.52)"/><path class="sp_three-cls-2" d="M480.8,740.4c-.8,1.2-1.6,1.8-1.7,2.6-.1.3,1,1.1,1.7,1.3.9.2,1.9-.2,1.7-1.2C482.5,742.3,481.7,741.6,480.8,740.4Z" transform="translate(-143.5 -189.52)"/><path class="sp_three-cls-2" d="M565,781.5c-2,1.3-2.8,2.6-2,3.3a2.46,2.46,0,0,0,2.2.2C566.7,783.8,565.9,782.6,565,781.5Z" transform="translate(-143.5 -189.52)"/><path class="sp_three-cls-2" d="M528.4,697.9a2.2,2.2,0,0,0,.1.8,9,9,0,0,0,2.7.7c.8,0,1.8-.6,1.4-1.6a2.37,2.37,0,0,0-1.9-1.1C529.9,696.8,529.2,697.5,528.4,697.9Z" transform="translate(-143.5 -189.52)"/><path class="sp_three-cls-2" d="M465.6,748.8c1.5,2,1.5,2,3.4,2.2-.2-.7-.7-1.6-.5-2.2s1.1-1.1,1.7-1.6c-.1-.2-.3-.4-.4-.6C468.5,747.3,467.2,748,465.6,748.8Z" transform="translate(-143.5 -189.52)"/><path class="sp_three-cls-2" d="M498.3,774.3c.9-1.6,1.1-2.7-.1-3.5a2.06,2.06,0,0,0-1.7-.2,1.51,1.51,0,0,0-.2,1.6A18.29,18.29,0,0,0,498.3,774.3Z" transform="translate(-143.5 -189.52)"/><path class="sp_three-cls-2" d="M542,776c-.2-2.1-.3-3.7-.4-5.5C539,772.2,539.1,773.7,542,776Z" transform="translate(-143.5 -189.52)"/><path class="sp_three-cls-2" d="M545.9,718.9c0,.3.1.6.1.8,1.2,0,2.5.1,3.7,0,.5-.1.9-.6,1.4-.9-.5-.4-1.1-1.2-1.6-1.1A25.33,25.33,0,0,0,545.9,718.9Z" transform="translate(-143.5 -189.52)"/><path class="sp_three-cls-2" d="M465.3,758.3c1.8-.2,2.9-1.1,2.6-2.1a1.33,1.33,0,0,0-1.1-.8C465.4,755.4,465.1,756.1,465.3,758.3Z" transform="translate(-143.5 -189.52)"/><path class="sp_three-cls-2" d="M537,780c-1.1-.5-1.7-1.1-2.2-1s-.9.8-1.4,1.3c.5.4,1,1.1,1.5,1.1S536,780.7,537,780Z" transform="translate(-143.5 -189.52)"/><path class="sp_three-cls-2" d="M479.5,760.1a13.47,13.47,0,0,0-1.8-2,1.89,1.89,0,0,0-1.6.3,1.38,1.38,0,0,0-.3,1.4,1.49,1.49,0,0,0,1.3.6A9.22,9.22,0,0,0,479.5,760.1Z" transform="translate(-143.5 -189.52)"/><path class="sp_three-cls-2" d="M528.4,696.6c-1.1-.6-1.7-1.3-2-1.1a6.12,6.12,0,0,0-1.7,1.5c.4.3.9,1,1.3.9C526.6,697.7,527.2,697.2,528.4,696.6Z" transform="translate(-143.5 -189.52)"/><path class="sp_three-cls-2" d="M536.1,750.1c-.8-.7-1.3-1.4-1.9-1.6-.2-.1-1.2.8-1.1,1.2.1.6.7,1.1,1,1.7A13.19,13.19,0,0,0,536.1,750.1Z" transform="translate(-143.5 -189.52)"/><path class="sp_three-cls-2" d="M532.6,758.9c-1-1-1.9-1.5-2.8-.3a1.44,1.44,0,0,0,.2,1.4C531.2,760.9,531.8,759.9,532.6,758.9Z" transform="translate(-143.5 -189.52)"/><path class="sp_three-cls-2" d="M441.1,717.4c-.6-.5-1.2-1.2-1.5-1.1-.5.2-.9.8-1.4,1.3a7.89,7.89,0,0,0,1.5,1.2C440,718.8,440.5,717.9,441.1,717.4Z" transform="translate(-143.5 -189.52)"/><path class="sp_three-cls-2" d="M496.3,754.6l1-.7-1.2-2.1-1.4,1.1A12.88,12.88,0,0,1,496.3,754.6Z" transform="translate(-143.5 -189.52)"/><path class="sp_three-cls-2" d="M506.4,761.3c1.2-1,1-1.9-.1-2.6-.2-.2-.7.1-1.1.1.2.7.3,1.4.5,2.1C505.8,761.1,506.2,761.2,506.4,761.3Z" transform="translate(-143.5 -189.52)"/><path class="sp_three-cls-2" d="M489.4,748.8c.5,1.2,1.3,1.6,2.3,1.3a1.44,1.44,0,0,0,.3-1.3C491.3,747.9,490.4,748,489.4,748.8Z" transform="translate(-143.5 -189.52)"/><path class="sp_three-cls-2" d="M561.2,779.2c-.5.8-1,1.2-.9,1.5a6.08,6.08,0,0,0,1,1.4c.4-.3,1.1-.6,1-.8A10.81,10.81,0,0,0,561.2,779.2Z" transform="translate(-143.5 -189.52)"/><path class="sp_three-cls-2" d="M506.7,702.1c.3-.2.5-.3.8-.5.2-.4.7-1,.5-1.2-.3-.5-.8-.7-1.3-1.1-.3.4-.8.8-.7,1.1A6.69,6.69,0,0,0,506.7,702.1Z" transform="translate(-143.5 -189.52)"/><path class="sp_three-cls-2" d="M570.7,737.3c-.5-.5-.9-1-1.1-1-.4.1-.9.6-.9.9s.5.7.8,1.1A7.74,7.74,0,0,0,570.7,737.3Z" transform="translate(-143.5 -189.52)"/><path class="sp_three-cls-2" d="M543.3,755.5c-.4-.4-.8-.8-1-.8-.4.1-.7.5-1.1.8.3.4.6.7.9,1.1C542.4,756.3,542.8,756,543.3,755.5Z" transform="translate(-143.5 -189.52)"/><path class="sp_three-cls-2" d="M529.7,715.4c-.7.1-1.4.2-2.5.4C528.4,717.3,529.2,717.3,529.7,715.4Z" transform="translate(-143.5 -189.52)"/><path class="sp_three-cls-2" d="M531.4,727.4c-1.3-1.2-2.2-1-2.5.5,0,.1.2.3.4.6A21.16,21.16,0,0,0,531.4,727.4Z" transform="translate(-143.5 -189.52)"/><path class="sp_three-cls-2" d="M538.8,785.9a4.87,4.87,0,0,0,1.1-.4c-.3-.5-.5-1.1-.8-1.5-.1-.1-.5.1-.8.2A8.45,8.45,0,0,0,538.8,785.9Z" transform="translate(-143.5 -189.52)"/><path class="sp_three-cls-2" d="M501.8,785.2c-.7-.3-1.1-.6-1.3-.5a2.19,2.19,0,0,0-.9,1,2.34,2.34,0,0,0,.7.7A6.44,6.44,0,0,0,501.8,785.2Z" transform="translate(-143.5 -189.52)"/><path class="sp_three-cls-2" d="M507.6,740.4c-.4.5-.9.9-.8,1a2.84,2.84,0,0,0,.8,1.1c.3-.2.8-.5.8-.7C508.4,741.4,508,741,507.6,740.4Z" transform="translate(-143.5 -189.52)"/><path class="sp_three-cls-2" d="M575.4,751.8c.2,1,.6,1.6,1.7,1.2a.83.83,0,0,0,.3-.8C576.9,751.2,576.2,751.1,575.4,751.8Z" transform="translate(-143.5 -189.52)"/><path class="sp_three-cls-2" d="M452.1,745.8c-.2-.3-.3-.5-.5-.8s-.7-.5-1-.4-.5.5-.8.7c.4.3.7.7,1.1.8A10.34,10.34,0,0,0,452.1,745.8Z" transform="translate(-143.5 -189.52)"/><path class="sp_three-cls-2" d="M494.4,682.5l.7.7a17.88,17.88,0,0,1,1.3-1.4c-.2-.2-.4-.3-.5-.5Z" transform="translate(-143.5 -189.52)"/><path class="sp_three-cls-2" d="M492,751.4c-.2,0-.4.1-.6.1,0,.5.1,1,.1,1.6.3-.1.8-.2.8-.2Q492.15,752,492,751.4Z" transform="translate(-143.5 -189.52)"/><path class="sp_three-cls-2" d="M459.6,753a5.5,5.5,0,0,0-.9-.7,2.77,2.77,0,0,0-.5.9c.1.3.6.5.9.7A4.38,4.38,0,0,1,459.6,753Z" transform="translate(-143.5 -189.52)"/><path class="sp_three-cls-2" d="M460.1,693.4c-.4.7-.6,1.3-.9,1.8a1.69,1.69,0,0,0,.5.2C460.8,695.2,460.8,694.6,460.1,693.4Z" transform="translate(-143.5 -189.52)"/><path class="sp_three-cls-2" d="M547.7,677.5c-.7.5-1.2.9-1.8,1.3-.2-.4-.4-.6-.4-.8C545.9,677.1,546.5,676.8,547.7,677.5Z" transform="translate(-143.5 -189.52)"/><path class="sp_three-cls-2" d="M488.6,738.3c1-1.5,1-1.5,2.7-.1A2,2,0,0,1,488.6,738.3Z" transform="translate(-143.5 -189.52)"/><path class="sp_three-cls-2" d="M472.2,721.8c-1.2-.5-1.9-.8-3-1.3C471.1,719.8,471.1,719.8,472.2,721.8Z" transform="translate(-143.5 -189.52)"/><path class="sp_three-cls-2" d="M451.4,730.1c.8-1.6,1.6-1.8,2.5-1.2s1.3,1.5.5,2.8C453.4,731.2,452.5,730.7,451.4,730.1Z" transform="translate(-143.5 -189.52)"/><path class="sp_three-cls-2" d="M616.1,618.6c1.8-.2,2.3-1.2,1.9-2.5-1.5-1-2.6-1.7-3.7-2.5s-2.3-1.7-3.5-2.6c-1.4.3-1.7,1-1.4,2.5.4,2.2.5,4.6-1.9,6.1-.3.2-.2,1-.3,1.6a8.6,8.6,0,0,0,1.6-.1c.2-.1.4-.5.6-.7a3.34,3.34,0,0,1,2.8-1.6c.5,1.3.8,2.4,1.2,3.5a3.71,3.71,0,0,0,2.7-3.7Z" transform="translate(-143.5 -189.52)"/><path class="sp_three-cls-2" d="M530.7,561.3c-1-.6-2-1.1-3-1.7.1-1.8.6-3.1,2.4-3.8a12.05,12.05,0,0,0,2.6-2c-2.5-2.3-2.9-2.3-5-.6-.9.7-1.9,1.3-2.9,2a39.76,39.76,0,0,0-3.3,2.4,1.59,1.59,0,0,0,0,2.7,17.64,17.64,0,0,0,2.6,1.9,9.28,9.28,0,0,0-2.7.7c-.5.3-1.2,1-1,1.4.8,2.6-.4,5-.6,7.5-.1,1.3,0,2.5,1.9,3,.1-1.2.1-2.2.2-3.3a28,28,0,0,0,2.9,0c.8-.2,1.9-.4,2.2-1,1.5-2.9,3.8-5.6,3.8-9.2.5.2,1.2.3,1.4.7a19.45,19.45,0,0,1,.8,2.2,36.06,36.06,0,0,0,5-.6,5.74,5.74,0,0,0,2.3-1.5c1.2-1.3.7-2.6-1-3.1-.6-.2-1.3-.1-1.8-.4s-1.1-1-1-1.4c.1-.6.5-1.5,1.1-1.7a5,5,0,0,1,2.3-.3c1.8-2.1.4-3.4-1-4.8,1.9-.8,3.4-1.5,5-2.3a2.64,2.64,0,0,0-3.7-1.6,3.82,3.82,0,0,1-3.3.1,1.39,1.39,0,0,0-2.2,1c-.4,1.8-1.1,3.8-.7,5.5a5.21,5.21,0,0,1-2.2,5.7C530.8,559.2,530.9,560.4,530.7,561.3Z" transform="translate(-143.5 -189.52)"/><path class="sp_three-cls-2" d="M566.8,517.1c.2-1.5.3-3,.5-4.5a.9.9,0,0,1-.5-.1,19.11,19.11,0,0,0,1.4-2.1c-2.4-1.4-1.6,1.2-2.4,1.5h-3.6c.3,1.2.9,2.1.8,2.9s-.8,1.4-1.1,2h4.9a3.76,3.76,0,0,1-2.3,2.9c-2.5,1.3-3.1,1.1-4.2-1.7a11.34,11.34,0,0,0-1.6-2.6c-.9-1.2-2-1.6-3.3-.5a3.4,3.4,0,0,1-3.2.8,3.26,3.26,0,0,0-3.9,1.8c2.5,3.1,3.7,3.2,7.5.5.9,1.7,1.7,3.3,2.5,5-1,1.1-1.8,2.1-2.7,3.2,1.2,1.6,3.8,2.4,2.6,5-3.4.9-4.3,1.8-5.2,5.1,2.8,1.2,3.2-2.3,4.8-2.5a21.7,21.7,0,0,0,4,1.7c.4.1,1.4-.6,1.6-1.1.1-.3-.5-1.1-.9-1.6a8.47,8.47,0,0,0-1.7-1c1.6-2-.2-3.3-1.2-5.1,2.3-.9,4.4-1.6,6.5-2.4.3-.9.4-2.3,1-2.8s2.1-.4,3.1-.6C569.9,517.2,569.9,517.2,566.8,517.1Z" transform="translate(-143.5 -189.52)"/><path class="sp_three-cls-2" d="M494.8,513.1c-.3-1-.3-2.2-2-1.7.2,1.4,1,1.7,2.1,1.6-.4,1.1-.8,2.3-1.1,3.4,2,1.1,3.4.9,4.8-.4,1.3-1.1.8-2.2.2-3.4s-.1-2,1.1-2.7c1.8,2.4,3.8.9,6.1,0-.6,2.4-1,4.5-1.5,6.5-1.1.3-2.2.6-3.4.9.2.6.2,1.1.4,1.3,1.3,1.3,3,2.1,4.6,1.5a4.23,4.23,0,0,0,2.7-3.9c-.1-1.9.8-2.7,2.3-3.3.5-.2,1-.6,1.4-.8-.3-2.6-2.7-.9-3.6-2.3.1-.7.3-1.4.5-2.3-5.7.5-5.5-4.4-7.8-7.6,1.4-.1,2.3-.2,3.4-.2-3-3-3.3-3.1-6.4-1.6-1.8-.7-2.1-2.2-2.1-3.9a5.34,5.34,0,0,0-.5,2c-.6,3.2-.6,3.2,2.5,4,.4,1.1.9,2.3,1.3,3.4-1,.5-1.8.9-2.6,1.4.3.9.5,1.6.8,2.5-1.7.7-2.5,1.7-1.7,3.7C497,512.3,496.1,513,494.8,513.1Z" transform="translate(-143.5 -189.52)"/><path class="sp_three-cls-2" d="M461,452.1h3.3c.6,2,1.2,4,1.9,6.2,2-.6,3.7-1.1,5.3-1.7s3.3-1.4,4.9-2.1c.2-.1.5.3.9.4-.2.9-.4,1.8-.6,2.6a5.47,5.47,0,0,0,7.9-1.7,49.68,49.68,0,0,0-3.8-4.2,3.73,3.73,0,0,0-2.6-.5,5.91,5.91,0,0,0-1.9,1.2c-1.9-2.2-3.8-4.4-5.7-6.7.5-1,1.2-2.4,1.9-3.9.8-.3,1.8-.6,2.8-1-.8-1.6-1.5-2.9-2.1-4.2a1.7,1.7,0,0,0-2.5-1.1,1.66,1.66,0,0,0-1,2.5,21.4,21.4,0,0,1,1,2.2,3.7,3.7,0,0,1-3.6,1.3,26.6,26.6,0,0,0-2.8-.3h.1c2.1-2,1.4-4.5.7-6.7-.6-2-3.3-1.9-4.6-.2-.6.8-1.3,1.5-1.9,2.3-3.1-3.2-3.2-3.3-5.9-1.9,1.7,1.5,1.1,3.1.4,4.9a18,18,0,0,0-.3,4.1c0,.3.3.5.5.9h2.9c.4,3.4,3,2.6,5.2,2.8-.1,1.8-.3,3.3-.4,4.8-2,1.5-1.3,3.7-1.3,5.6,0,.3.7.9,1,.9a1.64,1.64,0,0,0,1.2-.8C462.7,455.8,462.8,453.8,461,452.1Z" transform="translate(-143.5 -189.52)"/><path class="sp_three-cls-2" d="M530.9,529c-1.7,0-1.8-1-1.7-2a2.63,2.63,0,0,0-2.2-3c-1.7-.5-3.3-1-5.4-1.7a23.08,23.08,0,0,1,1.8-4.2c1.4-2.1,1.2-2.6-1.5-3.5l-5.7,9.3c1.5,1.8,2.7,3.6,1.9,6-.1.3.8,1.2,1.3,1.4,2.1.9,2.4,1.3,2,3.4s-.7,4.1-1,6.5c-1,.2-2.3.5-4.1.9a40.81,40.81,0,0,0,1.6-5.1,5.11,5.11,0,0,0-.3-3c-1-2.2-2.2-4.3-3.3-6.5a22.69,22.69,0,0,0-1.8-2.5c-.1-.1-.1-.4-.1-.6.5-.8,1-1.5,1.5-2.3-2.7-2.1-2.9-2.1-4.9,0-.8.8-1.2,1.5-2.6.8-.9-.5-1,.6-.6,1.4a13.61,13.61,0,0,1,2.1.2c2.7,1.1,2.9,2.2,1.1,4.5-.4.5-1,1-1.1,1.5a3,3,0,0,0,.2,2.3c.2.4,1.2.3,2.1.6v-3.8c2.1-.5,2.8.8,3,2.1a6.48,6.48,0,0,1-.7,3.6c-.8,1.6-.7,2.8.8,3.9a10,10,0,0,1,1,1.1c-1.3,3.2-.3,4.9,2.9,5.2.5.1,1.1,0,1.5.3,2.1,1.5,3.7.7,5.3-.9a17.1,17.1,0,0,1,1.4-1.1c-.4-.9-.8-1.6-1.2-2.5.9-.3,1.5-.5,2.3-.7.7,1.1,1.3,2,1.9,3-1.3,1.7-3.9,2.3-2.9,5.4a16.58,16.58,0,0,0,7.9-5.3c-1.1-.8-2-1.4-2.8-1.9.2-2,.3-3.9.5-5.8.1-1.3-.3-1.8-1.6-1.6a12.44,12.44,0,0,0-1.6.4,20.92,20.92,0,0,0-1-2.1,19,19,0,0,0-2-1.8c.8-.5,1.4-.8,1.9-1.1,2,2.4,2.3,2.5,4.9,1.7,1.7-.5,2-1.8,2.1-3.2s-.7-1.9-2.2-1.8A18.24,18.24,0,0,0,530.9,529Z" transform="translate(-143.5 -189.52)"/><path class="sp_three-cls-2" d="M509,418.2c0,.4-.1.8-.1,1.2.1,2.1-.7,3.2-2.6,3-2.9-.3-4.3,1.5-5.5,3.5a5.71,5.71,0,0,1-3.2,2.9c-.5.1-.7,1-1.1,1.7a28.64,28.64,0,0,1,3.7.6c1.6.6,3.2,1.5,4.8,2.2a3.1,3.1,0,0,0,3.3-.6c1.7-1.4,3.3-2.8,5-4.2a13.7,13.7,0,0,0,1.4.8c1.2.5,2.4.7,2.9-.7s-.6-1.8-1.6-2.2-2.2-.5-3-2.3c1.9.4,3.3,1,4.7.9a15.26,15.26,0,0,0,3.9-1.4c.4,1.1.9,2.2,1.3,3.4.9-.5,1.6-.9,2.6-1.5.8.6,1.7,1.3,2.5,2,1.5,1.3,3.6,1.4,4.5.1s1.8-3,2.7-4.5c-2.5-1.9-4.6-2.1-7.5-.5a29.17,29.17,0,0,0-1.4-3.1,12.88,12.88,0,0,0-2.2-3c-.9-1-1.9-.7-3.1,0-1.7,1-.7,2.7-1.7,4.3-2.2-.2-4.6-.3-6.9-.5C511.5,417.6,511.5,417.6,509,418.2Z" transform="translate(-143.5 -189.52)"/><path class="sp_three-cls-2" d="M517.5,492.5a2.67,2.67,0,0,0-.4,1c0,1,.6,2.3-.8,2.7s-1.7-.9-2.1-1.8c-.4-.7-.6-1.7-1.8-1.3-.6,5.7-1.4,5.5-4.6,5.6.1,2.8.2,5.5,3,7.2a2.55,2.55,0,0,1,.7,1c1.3,2.2,1.7,2.3,3.8.8,1.2-.9,2.4-1.6,3.5-2.3a19.41,19.41,0,0,1,2.9,2.6c1.3,1.7,3.4,2.9,3.3,5.5,0,1.1.7,1.7,2.3,1.2.1-1.5.2-3.1.4-4.7,1.2.2,2.2.3,3.3.4.4-1.5.8-2.8-.7-4l-2.7,2.1c-1.1-3-1-3.1,1.6-3.7,1.7-.4,3.2-1,4-2.4-.6-1.4-1.1-2.5-1.5-3.7-.7-1.8-.9-2-3.4-1.1-.1.9-.2,1.8-.3,2.6-2.1,1.5-3.1-.4-4.6-1.1.3.8.6,1.7.9,2.6-1.8.7-3.5,1.4-5.5,2.2.5-1.9,2.9-2.8,1.4-4.8-2.4,0-1.5,2.4-2.3,3.5a12,12,0,0,0-2.2.5,23.61,23.61,0,0,0-2.6,1.4c-.2-.9-.6-1.6-.4-2.1a29,29,0,0,1,1.7-3.5c1.4-1.1,2.4-1.8,3.3-2.6C518.8,495.2,518.8,494,517.5,492.5Z" transform="translate(-143.5 -189.52)"/><path class="sp_three-cls-2" d="M472.8,458l-.9.6c.7,1.6,1.5,3.1,2.2,4.7-1.4,2.2-1.4,3.7.3,4.1,2.3.5,4.8,2,7.1-.2a2,2,0,0,1,2.9-.2c1.4,1.2,2.7.7,4.1-.1a7.67,7.67,0,0,1,2.8-1.2c2.6-.4,4.1-2.4,3.2-4.9a40.25,40.25,0,0,0-2.9-5.4c.3-.2.8-.3,1-.6,2-2.2,4.2-2,6.5-.5a3.69,3.69,0,0,0,1.4.7,1.56,1.56,0,0,0,2.1-1.3c.3-1.3-.2-1.9-1.4-2-3.1-.1-6.3,0-9.4,0-.4,1-.8,1.9-1.2,2.8a11.33,11.33,0,0,0-2.8-.9c-.6-.1-1.8.1-1.9.4a3.06,3.06,0,0,0,.1,2.3,23,23,0,0,0,2.7,2.7c2,1.8,1.9,3-.3,4.4a8.31,8.31,0,0,1-10-.9C476.7,460.9,474.7,459.5,472.8,458Z" transform="translate(-143.5 -189.52)"/><path class="sp_three-cls-2" d="M536.1,445.2c1.1.9,2.3,2,3.6,3.1.7-1.9,1.4-3.5,2-5.2a1.74,1.74,0,0,0-.3-1.4,4.22,4.22,0,0,0-6.6.8c-.2.3-.5.7-.7,1-3-1.4-3.4-2.4-2.1-5.2.7-1.4,1.2-2.7-.6-3.8-1,.5-1.9.9-2.8,1.3-1.4-2.8-3.7-3.8-7.8-3.4.2,3.7,4.1,3.1,5.8,5.3-2.6,2.5-.1,4,1.5,5.9-.8.9-1.5,1.6-2.2,2.4-1.4,1.5-1.4,3.2.1,4.4,1.3,1.1,2.6.6,3.9-1a10.44,10.44,0,0,1,2.6-2.1A38.25,38.25,0,0,1,536.1,445.2Z" transform="translate(-143.5 -189.52)"/><path class="sp_three-cls-2" d="M588.9,586c2.5-2.9,2.8-3,5.5-.5,1.8,1.6,3.4,1.2,5.1-1.4-1.2-.5-2.5-1-3.6-1.5,0-.4-.1-.6-.1-.8-.1-.7-.2-1.4-.3-2a5.31,5.31,0,0,0-1.9.6c-.7.4-1.3,1.1-2.4.1.6-1.5.8-3.7,2-4.6,2.2-1.7,2-3.4,1.2-5.8-1.4,1.3-2.8,2-3.2,3.9-.6,2.4-1.1,2.5-3.2,1.1a5.35,5.35,0,0,0-1.3-.6c-1.4,3.6-5.2,2.5-8,4,.5,1.2,1,2.4,1.5,3.5-.4.8-.8,1.5-1.3,2.4,1.1.2,1.9.4,2.8.6a16,16,0,0,1,2.1.5,4.88,4.88,0,0,0,.3-.7c-.9-.8-1.8-1.5-2.7-2.3,1-3.2,3-.5,4.4-.9q.45-1.5.9-2.7h.7c.4.9.9,1.8,1.3,2.6C586.1,583.5,586.1,584.2,588.9,586Z" transform="translate(-143.5 -189.52)"/><path class="sp_three-cls-2" d="M551.7,502.4a3.89,3.89,0,0,1,1.5-.2c.9.2,1.8.6,2.7.9,1.1.3,2.3.3,2.5-1.2.2-1.2-.9-1.5-1.9-1.6-1.4-.2-2.7-.3-4.1-.5a1.8,1.8,0,0,0-1.1.3c-1.3,1.8-3,1.3-4.6.7a2.23,2.23,0,0,0-2.9,1.1c-1.4,2.1-1.5,2.1.4,4,.1,1.4-.1,2.5.4,3.3a3.92,3.92,0,0,1,.1,4.4,3.59,3.59,0,0,0,1,4.9c3.2-1.8.8-3.9.3-6.2,2.3-.9,4.4-1.7,6.6-2.6a5.71,5.71,0,0,0,2.1-1.3c1.4-1.4,1.3-2.3-.5-3C552.5,505,551.7,504.2,551.7,502.4Z" transform="translate(-143.5 -189.52)"/><path class="sp_three-cls-2" d="M553.1,433.6v-.5c-1-3.4-3.7-6.5-1.8-10.4.2-.4-.3-1.8-.7-1.8-.9-.2-2.3-.3-2.9.3-1.4,1.2-3.2,2.4-2.7,4.4-1-.2-1.9-.4-3.5-.7,1.1,2.6,0,4-1.4,5.3-1.1.9-1.2,1.9.2,2.9a10.91,10.91,0,0,0,1.1-.6c2.7-2.4,2.8-2.4,5.3.2a3.88,3.88,0,0,0,1.5,1.1C549.8,433.7,551.5,433.6,553.1,433.6Z" transform="translate(-143.5 -189.52)"/><path class="sp_three-cls-2" d="M577.4,512.2a6.38,6.38,0,0,0-2.2-.9,2.75,2.75,0,0,0-2,.5,4.76,4.76,0,0,0-1,6.1c.6,1.1,1.5,1.8,2.6,1,1.6-1.1,3.1-.8,4.8-.5,2.2.4,2.8-.2,3.2-2.4a27.41,27.41,0,0,1,.5-2.8c1.5-4.5.9-5.3-3.8-4.9a2.6,2.6,0,0,0-1,.4C578.2,509.6,577.8,510.6,577.4,512.2Z" transform="translate(-143.5 -189.52)"/><path class="sp_three-cls-2" d="M514.9,486.8c3.1-1.5,5.1,1.3,8,1.7-.2-1.3-.3-2.3-.5-3.5,1.9.4,3.5.8,5.3,1.2v-4.6h-5.6c-1.3-1.1.1-3.5-1.3-3.8-1.9.7-3.2,1.3-4.5,1.7s-2.5,1.1-2.4,2.6S514.5,484.9,514.9,486.8Z" transform="translate(-143.5 -189.52)"/><path class="sp_three-cls-2" d="M602.4,540.1a3,3,0,0,0,.7.5c1.9-.6,3.1-2.1,4.2-3.7,1.3-1.8,2.7-3.5,3.9-5.3,3.3-4.6,4.4-8.3.5-13-1.3-1.6-3-3-4.5-4.5a3.81,3.81,0,0,0-3.8-.9c1.6,1.5,3.1,2.8,4.4,4.2q4.65,4.8,1.8,10.8a53.48,53.48,0,0,1-4.1,6.4C604.5,536.5,603.5,538.3,602.4,540.1Z" transform="translate(-143.5 -189.52)"/><path class="sp_three-cls-2" d="M586.1,526c.1-.3.1-.6.2-.9-2-1.4-4.1-2.7-6.7-2.8-1.1-.1-2.3.2-2.4,1.7.4.1.6.2.7.2.9-.1,2.1-.5,2.3.9.2,1.2-.8,1.6-1.8,1.8-.7.2-1.6.2-2,.7a5.93,5.93,0,0,1-4.6,2.3c-1.2,0-1.5,1-1,2.2.9.2,1.9.3,2.8.5.3,1.3.5,2.4.8,4,1.3-1,2.6-1.6,3.1-2.6.4-.8-.2-2.1-.4-3.5,1.7-.1,3.3-.2,5.1-.4.3-1.3.5-2.5.8-3.6A28.68,28.68,0,0,0,586.1,526Z" transform="translate(-143.5 -189.52)"/><path class="sp_three-cls-2" d="M533.6,507.2c1.7,1.6,3.4,2.9,2.3,5.3-.1.3.4,1,.7,1.2a1.37,1.37,0,0,0,1.4-.2,9.75,9.75,0,0,0,.8-2.2c.2-.8.1-1.8.5-2.3,1.2-1.4.8-2.7.1-4.1a13.09,13.09,0,0,1-1.5-3.7c-.1-1.1-.2-1.9-1.4-2a2.3,2.3,0,0,0-2.6,1.4c-1.1,1.8.4,3,1,4.3A21,21,0,0,0,533.6,507.2Z" transform="translate(-143.5 -189.52)"/><path class="sp_three-cls-2" d="M509.6,574.5c-.4.6-.8,1-.8,1.3-.2.9-.6,1.9-.3,2.6.5,1.2,1.7,1.4,3,1,.7-.2,1.5-.1,2.2-.3,3.5-.7,5.1-3.3,4.4-6.9-.1-.7.4-1.5.4-2.3a4.71,4.71,0,0,0-.6-1.5c-.5.3-1.2.5-1.4.9-.6,1.5-.9,3-1.4,4.5-.9,2.5-2,2.8-4.3,1.4A5.23,5.23,0,0,1,509.6,574.5Z" transform="translate(-143.5 -189.52)"/><path class="sp_three-cls-2" d="M568.4,546c.5,2.2-1.4,2.1-2.9,2.5.6,2.4.9,3,1.9,3,1.8.1,3.7,0,5.9,0-.9-1.7-1.5-2.8-2.2-4.2,3.4,1.1,3.4,1.1,5.1-1.8a5.3,5.3,0,0,0-.6-1c-1.7-2.1-2.7-2.2-4,0C570.9,545.9,569.7,545.3,568.4,546Z" transform="translate(-143.5 -189.52)"/><path class="sp_three-cls-2" d="M508.9,614.3c-.1.7-.4,1.2-.3,1.7a5.56,5.56,0,0,0,.9,1.7c.5-.4,1.5-.8,1.6-1.3.1-2.2,1.4-3.1,3.2-3.8,1.1-.4,1.8-1.3,1.2-2.5a1.94,1.94,0,0,0-2.7-1c-1,.3-1.9.8-2.9,1.2-.9-2.8-.9-2.8-3-2.2.5.9,1.1,1.7,1.7,2.8l-3.5,2.1C506.6,613.5,507.7,613.8,508.9,614.3Z" transform="translate(-143.5 -189.52)"/><path class="sp_three-cls-2" d="M581,617.1c-2-3.2-2.4-3.4-5.8-1.9-3.1-3.1-5.2-2.5-7,2.3.8.5,1.8,1.6,2.5,1.4a29.73,29.73,0,0,0,5-2.1C577.3,617.2,579,618.8,581,617.1Z" transform="translate(-143.5 -189.52)"/><path class="sp_three-cls-2" d="M535.8,522c-.2.2-.4.5-.6.7a16.18,16.18,0,0,0,1.9,1.8c.5.5,1.4.7,1.7,1.2,1.3,2.6,3.5,2.1,6.1,2.3-.6-2.4,1.1-3.4,3.1-4.5-2-.6-3.6-1-5.1-1.5-.6.8-1,1.4-1.6,2.2C539.4,523.5,537.6,522.8,535.8,522Z" transform="translate(-143.5 -189.52)"/><path class="sp_three-cls-2" d="M613.4,603.8a34,34,0,0,1-3.1-2c-1.1-.9-2.3-1-2.9.2a30.06,30.06,0,0,0-2.2,5.2c-.1.3.2,1.2.5,1.3a2,2,0,0,0,1.7,0,5.44,5.44,0,0,0,1.1-1.8,18.16,18.16,0,0,0,.9-2.4c.6,1.5.9,2.4,1.2,3.2C613.6,607.3,613.7,607.1,613.4,603.8Z" transform="translate(-143.5 -189.52)"/><path class="sp_three-cls-2" d="M538.2,453.6a45.71,45.71,0,0,0,5,.4,2,2,0,0,0,1.5-.9c2-2.6,1.9-4.9-.2-7.4-.5-.7-1.2-1.5-2-.7-.4.4-.3,1.5-.1,2.2a8,8,0,0,0,1.3,2.1C541.9,450.9,539.3,451.3,538.2,453.6Z" transform="translate(-143.5 -189.52)"/><path class="sp_three-cls-2" d="M571.6,582.2c0,.4-.1.8-.1,1.2-.1.9-.3,1.7.8,2.1a1.89,1.89,0,0,0,2.4-.8,5.72,5.72,0,0,1,1.5-1.6,2.87,2.87,0,0,0,.8-3.9c-2.6-.4-5.1-.5-7.5,1.5C570.2,581.2,570.9,581.6,571.6,582.2Z" transform="translate(-143.5 -189.52)"/><path class="sp_three-cls-2" d="M488.3,510.5a1.76,1.76,0,0,0,2.5-.4,15.91,15.91,0,0,1,2.4-2c1.4-1,1.4-2-.2-2.8a4,4,0,0,0-2.1-.4,13.5,13.5,0,0,1-6,0c-.1,0-.2.3-.6.8,1.1.6,2.2,1.2,3.5,2A20.16,20.16,0,0,1,488.3,510.5Z" transform="translate(-143.5 -189.52)"/><path class="sp_three-cls-2" d="M549.3,537.5c-1.7-.9-3-1.5-4.3-2.3s-2.3-.5-2.9,1.1c-.5,1.2-1,2.4-1.5,3.7.7,1,1.7,1.9,2.7.7,1.3-1.6,2.6-1.4,4.2-.9.3.1.6-.1,1.1-.1C548.9,538.9,549.1,538.2,549.3,537.5Z" transform="translate(-143.5 -189.52)"/><path class="sp_three-cls-2" d="M543.8,435.6a8.8,8.8,0,0,1,.4,2c0,.7-.2,1.4-.2,2.2a3.61,3.61,0,0,0,.3,1.8,3.77,3.77,0,0,0,1.6,1.2c.3.1,1-.8,1.1-1.3.1-1.4.8-2,2.2-2.1.3,0,.8-1.3.6-1.7C549.2,436.2,546.1,435.2,543.8,435.6Z" transform="translate(-143.5 -189.52)"/><path class="sp_three-cls-2" d="M548.2,597.3c-2.3-1.8-5.5-1.6-6.9.3a2.44,2.44,0,0,0,.2,3.2c1.4,1.4,3,1.5,5.1.4C545.6,598.9,545.6,598.9,548.2,597.3Z" transform="translate(-143.5 -189.52)"/><path class="sp_three-cls-2" d="M537.1,487.4c-1.3-.5-2.5-1.1-3.7-1.5a2.41,2.41,0,0,0-3.3,1.5,10.55,10.55,0,0,0-.6,2.4,1.69,1.69,0,0,0,.4,1.4,1.44,1.44,0,0,0,1.4-.2,2.68,2.68,0,0,1,2.8-.9C536.1,490.6,536.3,490.3,537.1,487.4Z" transform="translate(-143.5 -189.52)"/><path class="sp_three-cls-2" d="M502.2,610.6a18.2,18.2,0,0,0,1.4-1.9c.1-.2-.1-.6-.3-.8a.94.94,0,0,0-.9-.1c-1.7.7-3.8,4.9-3.5,6.6.1.4.4,1,.6,1a7.37,7.37,0,0,0,3-.2,1.94,1.94,0,0,0,.8-2.7A4.8,4.8,0,0,0,502.2,610.6Z" transform="translate(-143.5 -189.52)"/><path class="sp_three-cls-2" d="M513.2,516.6c.2.4.5,1.2,1.1,1.5.4.2,1.3-.4,1.7-.9a18.05,18.05,0,0,0,2.4-3.7c.3-.5.3-1.6-.1-1.9a2.29,2.29,0,0,0-2-.2C514.1,512.1,513.8,514.2,513.2,516.6Z" transform="translate(-143.5 -189.52)"/><path class="sp_three-cls-2" d="M538.3,533.2c1.7-.1,3.1-.1,4.4-.3a7.57,7.57,0,0,0,1.8-.9c-.4-.6-.7-1.7-1.3-1.8a30.61,30.61,0,0,0-4.7-.8C538.4,530.9,538.3,531.9,538.3,533.2Z" transform="translate(-143.5 -189.52)"/><path class="sp_three-cls-2" d="M557.7,563.2c-.9-2.6-1.9-3.3-4-2.7a8.11,8.11,0,0,0-2,1.4c.5.6.8,1.4,1.5,1.8C554.7,564.4,556.3,564.8,557.7,563.2Z" transform="translate(-143.5 -189.52)"/><path class="sp_three-cls-2" d="M538,596.7c-.7-.5-1-.9-1.1-.8a10.39,10.39,0,0,1-5.8.3c-.3-.1-1,.4-1.2.8s0,1.2.3,1.4a5.54,5.54,0,0,0,2.2,1C534.8,599.8,536,598,538,596.7Z" transform="translate(-143.5 -189.52)"/><path class="sp_three-cls-2" d="M531.7,457.1c.6-.6,1.1-1.2,1.6-1.7.7-.6,1.7-1.3,1-2.3a4.44,4.44,0,0,0-2.2-.9c-.3-.1-.6.1-.9.1-.2.9-.5,1.8-.6,2.3-1.1,1.2-2.7-.7-3.6,1.2C528.7,456.2,530,456.6,531.7,457.1Z" transform="translate(-143.5 -189.52)"/><path class="sp_three-cls-2" d="M603.6,573.3c.4-.6.8-1.1,1.1-1.6,1.5-2.5.9-4.1-1.9-4.9-.4-.1-1.3-.1-1.4.2a2,2,0,0,0-.1,1.7C601.9,570.2,602.7,571.5,603.6,573.3Z" transform="translate(-143.5 -189.52)"/><path class="sp_three-cls-2" d="M500.3,433a42.31,42.31,0,0,0-4.7-.3c-.5,0-1.3.8-1.4,1.4a2.59,2.59,0,0,0,1.2,3.1C496.9,436,498.4,434.7,500.3,433Z" transform="translate(-143.5 -189.52)"/><path class="sp_three-cls-2" d="M531,467.8a20.93,20.93,0,0,0-1.9,2.1,2.56,2.56,0,0,0-.1,3.2c.6.8,1.3.6,1.8-.1a20.74,20.74,0,0,0,1.9-3.2C533.3,468.8,532.6,467.9,531,467.8Z" transform="translate(-143.5 -189.52)"/><path class="sp_three-cls-2" d="M567.7,505.1c2.1,1.2,2.9,2.6,1.7,4.5-.2.3.2,1.3.4,1.3.5.1,1.6-.1,1.6-.3.2-1.4.7-2.9.2-4.1C571.3,505.3,569.9,504.4,567.7,505.1Z" transform="translate(-143.5 -189.52)"/><path class="sp_three-cls-2" d="M533.7,532.5c-1.5,2.9-1,4.1,2.1,6.7C536.6,537.6,535.6,534.3,533.7,532.5Z" transform="translate(-143.5 -189.52)"/><path class="sp_three-cls-2" d="M505.5,495.3c.8.5,1.3,1.1,1.8,1a4.07,4.07,0,0,0,2.4-.8c.3-.2-.2-1.4-.5-2.1a11.43,11.43,0,0,0-1.5-1.7C506.9,492.9,506.3,494,505.5,495.3Z" transform="translate(-143.5 -189.52)"/><path class="sp_three-cls-2" d="M516,552.4c2.2.3,3.1-.8,3.1-2.2.1-2.4-2.2-2.7-3.9-4.4C515.2,548.5,518,550,516,552.4Z" transform="translate(-143.5 -189.52)"/><path class="sp_three-cls-2" d="M486.9,482.7c3.3-1.2,3.4-2.7.4-5.4C485.7,478.9,485.6,480.7,486.9,482.7Z" transform="translate(-143.5 -189.52)"/><path class="sp_three-cls-2" d="M614.2,555.2c-.4-.3-.8-.9-1.4-1-1.1-.2-3,1.4-2.8,2.4a2.26,2.26,0,0,0,1.3,1.4C612.1,558.3,614,556.6,614.2,555.2Z" transform="translate(-143.5 -189.52)"/><path class="sp_three-cls-2" d="M544.2,458.7a17.48,17.48,0,0,0-1.9-2.7,1.88,1.88,0,0,0-1.9.2,4,4,0,0,0-.9,2.2c0,.2,1.1.7,1.7.8A9.32,9.32,0,0,0,544.2,458.7Z" transform="translate(-143.5 -189.52)"/><path class="sp_three-cls-2" d="M488.5,513c-.3.3-1.3.8-1.4,1.4-.2,1.2.6,1.9,1.9,2,1.1,0,2.3,0,2.4-1.4C491.5,513.3,490.1,513.3,488.5,513Z" transform="translate(-143.5 -189.52)"/><path class="sp_three-cls-2" d="M535.1,434.5c.5-2.6.5-2.6-1-4.3-1.2.4-2.2.9-2,2.3S533.5,434.4,535.1,434.5Z" transform="translate(-143.5 -189.52)"/><path class="sp_three-cls-2" d="M620.6,552.8a3.86,3.86,0,0,0-3.1,2.9,2.52,2.52,0,0,0,.9,2,1.3,1.3,0,0,0,1.9-1C620.5,555.5,620.5,554.3,620.6,552.8Z" transform="translate(-143.5 -189.52)"/><path class="sp_three-cls-2" d="M593.9,619.5c.6,2.7,2.4,4.4,4.6,4.2a1.17,1.17,0,0,0,1-.9,1.52,1.52,0,0,0-.7-1.2C597.2,620.9,595.6,620.3,593.9,619.5Z" transform="translate(-143.5 -189.52)"/><path class="sp_three-cls-2" d="M557,444.3a1.85,1.85,0,0,1-.2-.7c-1.8-.5-3.5.4-5.1,1-.3.1-.6,1.2-.5,1.6a1.83,1.83,0,0,0,1.5.6C554.2,446,555.6,445.1,557,444.3Z" transform="translate(-143.5 -189.52)"/><path class="sp_three-cls-2" d="M501,534.3c1.9,1.9,2.3,1.9,3.3.2a4,4,0,0,0,.7-1.8,5.23,5.23,0,0,0-.6-1.6,5.17,5.17,0,0,0-1.3.6C502.4,532.4,501.8,533.3,501,534.3Z" transform="translate(-143.5 -189.52)"/><path class="sp_three-cls-2" d="M601.1,616.5c.5,2.1,1.4,2.9,2.9,3a4.76,4.76,0,0,0,1.8-.8c-.4-.6-.7-1.6-1.3-1.8C603.7,616.5,602.6,616.6,601.1,616.5Z" transform="translate(-143.5 -189.52)"/><path class="sp_three-cls-2" d="M516.5,460.1c-1.4,1.4-1.9,2.9-1,4.7,1.3-.1,2.4-.4,2.8-1.7S518.1,460.9,516.5,460.1Z" transform="translate(-143.5 -189.52)"/><path class="sp_three-cls-2" d="M560.2,603.3c-1.7.3-3,.5-2.8,2.3.2,1.3,1.2,1.6,3.9,1.1C560.9,605.6,560.6,604.6,560.2,603.3Z" transform="translate(-143.5 -189.52)"/><path class="sp_three-cls-2" d="M507,435.5c.6,2.7,2.1,3.3,4.3,1.9C509.7,435.4,509.7,435.4,507,435.5Z" transform="translate(-143.5 -189.52)"/><path class="sp_three-cls-2" d="M550.1,542c-.3-.2-1-.9-1.1-.8a23.91,23.91,0,0,0-2.3,2.2c.5.4.9,1.2,1.5,1.2C549.1,544.8,550.2,543.4,550.1,542Z" transform="translate(-143.5 -189.52)"/><path class="sp_three-cls-2" d="M551.7,494.9c-1.1-.8-1.6-1.4-2.2-1.5a1.45,1.45,0,0,0-1.7,1.7c.1.6,1,1.5,1.5,1.5C550,496.6,550.6,495.7,551.7,494.9Z" transform="translate(-143.5 -189.52)"/><path class="sp_three-cls-2" d="M567.6,541.4c1.2,1.6,2.4,1.3,3.4.4.4-.3.2-1.2.3-1.9-.5-.1-1.2-.4-1.6-.2A11.18,11.18,0,0,0,567.6,541.4Z" transform="translate(-143.5 -189.52)"/><path class="sp_three-cls-2" d="M517.3,565.8c-1.1-1-1.6-1.8-2.3-2-.5-.1-1.5.7-1.7,1.3-.3,1.2.7,1.6,1.7,1.6A7,7,0,0,0,517.3,565.8Z" transform="translate(-143.5 -189.52)"/><path class="sp_three-cls-2" d="M553.3,512.9c-1-1.2-2.2-1.6-3.3-.4-.7.8-.1,1.7.7,2.1C552.4,515.5,552.9,514.2,553.3,512.9Z" transform="translate(-143.5 -189.52)"/><path class="sp_three-cls-2" d="M528.5,518.5c-1.3.4-1.6,1.1-1,2a30.13,30.13,0,0,0,2.2,2.8C531.1,522.1,531.1,522.1,528.5,518.5Z" transform="translate(-143.5 -189.52)"/><path class="sp_three-cls-2" d="M517.2,586.9c-1.6-.2-2.8-.9-3.2.7a2.21,2.21,0,0,0,.8,2C516.6,590,516.4,588.4,517.2,586.9Z" transform="translate(-143.5 -189.52)"/><path class="sp_three-cls-2" d="M480.2,461.3c1.4,1,2.5.8,3.4-.3.2-.2-.1-1.1-.4-1.3C481.8,458.9,480.9,459.7,480.2,461.3Z" transform="translate(-143.5 -189.52)"/><path class="sp_three-cls-2" d="M494.7,500.9c-.7-1.3-1.6-1.7-2.7-1-.3.2-.3,1.3,0,1.6C492.9,502.4,493.8,502.3,494.7,500.9Z" transform="translate(-143.5 -189.52)"/><path class="sp_three-cls-2" d="M529.8,467.6c.7-.8,1.4-1.3,1.4-1.8a1.76,1.76,0,0,0-1.2-1.3c-.5,0-1.4.7-1.4,1.1S529.2,466.7,529.8,467.6Z" transform="translate(-143.5 -189.52)"/><path class="sp_three-cls-2" d="M537.4,449.9c-1.2-.1-2.6-.7-3,1.4C535.9,451.9,536.9,451.6,537.4,449.9Z" transform="translate(-143.5 -189.52)"/><path class="sp_three-cls-2" d="M605.1,582.7a6.09,6.09,0,0,0-1.8-1.2c-.3,0-1.1.9-1,1.1a2.74,2.74,0,0,0,1.3,1.3C603.8,584,604.4,583.3,605.1,582.7Z" transform="translate(-143.5 -189.52)"/><path class="sp_three-cls-2" d="M502.6,439.3c1.2.7,2.1.6,2.6-.6a1.35,1.35,0,0,0-.5-1.2c-1.2-.4-1.7.5-2.1,1.3Z" transform="translate(-143.5 -189.52)"/><path class="sp_three-cls-2" d="M554.7,529.5a17.22,17.22,0,0,0-2.1-1.5c-.1,0-.9.9-.8,1a4,4,0,0,0,1.4,1.5C553.3,530.7,553.9,530.1,554.7,529.5Z" transform="translate(-143.5 -189.52)"/><path class="sp_three-cls-2" d="M526.3,492.2c.8-.8,1.4-1.3,1.9-1.8-.4-.4-.9-1-1.2-1a2.26,2.26,0,0,0-1.5,1C525.2,490.6,525.8,491.3,526.3,492.2Z" transform="translate(-143.5 -189.52)"/><path class="sp_three-cls-2" d="M535.8,435.3h-.9a7.06,7.06,0,0,0-.6,2.4c0,.4.9.7,1.5,1,.2-.1.4-.3.6-.4Z" transform="translate(-143.5 -189.52)"/><path class="sp_three-cls-2" d="M500.6,446.1c1.3-.7,2.1-1.3,1.6-2.7C499.7,443.8,499.7,443.8,500.6,446.1Z" transform="translate(-143.5 -189.52)"/><path class="sp_three-cls-2" d="M579.8,534.9c1.1,0,1.9.2,2.3-.1s.4-1.1.7-2.3c-1.1.5-1.6.7-2,.9C580.6,533.7,580.4,534.1,579.8,534.9Z" transform="translate(-143.5 -189.52)"/><path class="sp_three-cls-2" d="M502.1,596l3.9-.5c-.9-1.2-1.3-1.7-1.9-2.5Z" transform="translate(-143.5 -189.52)"/><path class="sp_three-cls-2" d="M552.9,527c-.3-2-.7-3.1-2.8-3.6A5.51,5.51,0,0,0,552.9,527Z" transform="translate(-143.5 -189.52)"/><path class="sp_three-cls-2" d="M585.5,519.8c.5-.7,1-1.1,1-1.6,0-.3-.6-.7-.9-1.1a8.78,8.78,0,0,0-1.2,1.5C584.3,518.8,585,519.3,585.5,519.8Z" transform="translate(-143.5 -189.52)"/><path class="sp_three-cls-2" d="M488.5,450c1.3.9,2.2,1.2,2.7-.3.1-.3-.2-.7-.5-1.4C489.9,449,489.3,449.4,488.5,450Z" transform="translate(-143.5 -189.52)"/><path class="sp_three-cls-2" d="M485,439.8c.5-.8,1-1.3,1-1.8s-.6-.9-.9-1.4c-.5.4-1.2.8-1.4,1.3C483.5,438.2,484.2,438.8,485,439.8Z" transform="translate(-143.5 -189.52)"/><path class="sp_three-cls-2" d="M591.8,544.4c-.9-1.7-1.6-1.8-2.3-1.1-.2.2-.1.7-.2,1.1Z" transform="translate(-143.5 -189.52)"/><path class="sp_three-cls-2" d="M607,575.7c-.8-.5-1.3-.9-1.6-.8a2.16,2.16,0,0,0-1.2,1.1c-.1.1.7,1,.8,1A10.83,10.83,0,0,0,607,575.7Z" transform="translate(-143.5 -189.52)"/><path class="sp_three-cls-2" d="M521.6,579.5c-.6.7-1.1,1.1-1.2,1.6-.1.2.5.9.9.9s1.1-.4,1.1-.7S522,580.4,521.6,579.5Z" transform="translate(-143.5 -189.52)"/><path class="sp_three-cls-2" d="M539.8,518.4a5.27,5.27,0,0,0-1,1.7c0,.3.6.7.9,1,.4-.4.9-.8,1-1.3C540.8,519.6,540.3,519.1,539.8,518.4Z" transform="translate(-143.5 -189.52)"/><path class="sp_three-cls-2" d="M516.4,442.5a4.88,4.88,0,0,0-.7-.3c-.4.4-1.1.9-1,1.1a9.81,9.81,0,0,0,1.6,1.9C516.4,443.8,516.4,443.1,516.4,442.5Z" transform="translate(-143.5 -189.52)"/><path class="sp_three-cls-2" d="M549.8,597.2a1.27,1.27,0,0,0,.1.6,4.53,4.53,0,0,0,1.6.3c.3,0,.7-.5.7-.7a1.14,1.14,0,0,0-.7-.8A11.5,11.5,0,0,0,549.8,597.2Z" transform="translate(-143.5 -189.52)"/><path class="sp_three-cls-2" d="M560.8,507.5a6.35,6.35,0,0,0-1.1-.8,4.12,4.12,0,0,0-1,1.3c-.1.1.4.5.7.8C559.8,508.4,560.2,508,560.8,507.5Z" transform="translate(-143.5 -189.52)"/><path class="sp_three-cls-2" d="M530,577.8c-.5-.4-.9-.9-1.6-1.5C527.9,578,528.3,578.5,530,577.8Z" transform="translate(-143.5 -189.52)"/><path class="sp_three-cls-2" d="M520.9,619.5a5.05,5.05,0,0,0-.8,1.3c0,.2.5.5.7.8.4-.4.7-.8,1.1-1.2A7.3,7.3,0,0,1,520.9,619.5Z" transform="translate(-143.5 -189.52)"/><path class="sp_three-cls-2" d="M583.9,605.3c-.6-.5-1-.8-1.4-1.1-.2.3-.7.6-.6.9a1.56,1.56,0,0,0,.8.8C582.9,606,583.3,605.6,583.9,605.3Z" transform="translate(-143.5 -189.52)"/><path class="sp_three-cls-2" d="M534.7,459.6c-.7-.4-1.1-.8-1.5-.7a1.59,1.59,0,0,0-.8,1c0,.3.6.8,1,.8S534.1,460.1,534.7,459.6Z" transform="translate(-143.5 -189.52)"/><path class="sp_three-cls-2" d="M616.2,609.5a5.77,5.77,0,0,1-.8-1,4.3,4.3,0,0,0-.9,1c-.1.1.4.7.7.7S615.8,609.8,616.2,609.5Z" transform="translate(-143.5 -189.52)"/><path class="sp_three-cls-2" d="M614.2,551.8c-.4-.4-.7-.9-.9-.9a1.36,1.36,0,0,0-1.1.6c-.1.3.4.8.6,1.1A10,10,0,0,0,614.2,551.8Z" transform="translate(-143.5 -189.52)"/><path class="sp_three-cls-2" d="M557.2,598.3c.4-.5.9-.9.8-1.1-.1-.4-.5-.7-.8-1.1-.3.2-.8.5-.8.7C556.5,597.2,556.9,597.6,557.2,598.3Z" transform="translate(-143.5 -189.52)"/><path class="sp_three-cls-2" d="M572.9,494.7c-.2-.1-.5-.3-.7-.4a3.94,3.94,0,0,0-.5,1.4c0,.3.5.7.8,1,.3-.3.8-.6.9-1A2.35,2.35,0,0,0,572.9,494.7Z" transform="translate(-143.5 -189.52)"/><path class="sp_three-cls-2" d="M619.1,593.5c0-1.8-.2-2.7-2.1-2.2C617.8,592.1,618.3,592.6,619.1,593.5Z" transform="translate(-143.5 -189.52)"/><path class="sp_three-cls-2" d="M514.9,583c1.1-.8,1.3-1.4.5-2.6-.3.5-.7.8-.7,1.2S514.8,582.3,514.9,583Z" transform="translate(-143.5 -189.52)"/><path class="sp_three-cls-2" d="M558.8,510.7a8,8,0,0,0-1.2-.8c-.2,0-.5.3-.8.4.2.3.4.8.6.9S558,511,558.8,510.7Z" transform="translate(-143.5 -189.52)"/><path class="sp_three-cls-2" d="M529.9,516c-.5-.2-.8-.5-1.1-.5-.1,0-.5.6-.4.7a1.46,1.46,0,0,0,.9.6Z" transform="translate(-143.5 -189.52)"/><path class="sp_three-cls-2" d="M592.9,588.5c0-.2-.1-.4-.1-.6-.5.2-1.1.3-1.6.5a1.34,1.34,0,0,0,.1.5A6.22,6.22,0,0,1,592.9,588.5Z" transform="translate(-143.5 -189.52)"/><path class="sp_three-cls-2" d="M524.4,476.8c-.3.4-.8.8-.7,1a1.12,1.12,0,0,0,.8.7,1.21,1.21,0,0,0,.7-.7C525.2,477.5,524.8,477.2,524.4,476.8Z" transform="translate(-143.5 -189.52)"/><path class="sp_three-cls-2" d="M500.9,468.9c-1.2-.7-1.5-1-1.6-1a1.46,1.46,0,0,0-.6.9,1,1,0,0,0,.6.5C499.6,469.3,500,469.1,500.9,468.9Z" transform="translate(-143.5 -189.52)"/><path class="sp_three-cls-2" d="M554.2,578.5c-.4.6-.7.9-.7,1.1a1.56,1.56,0,0,0,.8.8c.2.1.8-.5.8-.6C555,579.5,554.6,579.2,554.2,578.5Z" transform="translate(-143.5 -189.52)"/><path class="sp_three-cls-2" d="M503.6,435.2c-1.1-.8-1.8-1.6-2.4.1A22.75,22.75,0,0,0,503.6,435.2Z" transform="translate(-143.5 -189.52)"/><path class="sp_three-cls-2" d="M585.5,589.4c-1.3.6-1.6,1.2-.2,2.1A13.61,13.61,0,0,1,585.5,589.4Z" transform="translate(-143.5 -189.52)"/><path class="sp_three-cls-2" d="M576.5,622.4c.3.1.5.2.8.3l.6-1.8a6.37,6.37,0,0,0-.7-.2A12.2,12.2,0,0,0,576.5,622.4Z" transform="translate(-143.5 -189.52)"/><path class="sp_three-cls-2" d="M542.5,610a32,32,0,0,1,3.3,1.6c1.2.6,2.2,1.6,1.7,3s-1.8,1.5-3.2,1.3c-2-.2-3-1.8-4.4-3.2-1.9,2-4.4-.4-6.5.8-.2.1-.7-.2-.8-.4-.9-1.5-2.2-.8-3.6-.4-.3-1.8-2.3-2.8-1.3-5.2.4.6.8.9,1,1.3a3.82,3.82,0,0,0,5.6,2,4.94,4.94,0,0,1,3.6-.4C539.2,610.8,540.8,610.2,542.5,610Z" transform="translate(-143.5 -189.52)"/><path class="sp_three-cls-2" d="M567.4,565.3c0,.4.2.9.1,1.2-.7,2.2-1.5,4.4-2.3,6.9-.3-.1-1-.2-1.3-.6s-.5-1.2-.9-1.6a3.25,3.25,0,0,1-.5-4.3,3.31,3.31,0,0,1,4.1-1.5,2.72,2.72,0,0,0,.9,0Z" transform="translate(-143.5 -189.52)"/><path class="sp_three-cls-2" d="M524.9,538.6c1.6-.4,2.6-.6,3.7-.9.2,1.6-.9,2-1.9,2.2C526.3,539.9,525.7,539.2,524.9,538.6Z" transform="translate(-143.5 -189.52)"/><path class="sp_three-cls-2" d="M524.3,525.3c0,1.7,0,1.7-1.4,2.5C522.4,526.5,522.8,525.8,524.3,525.3Z" transform="translate(-143.5 -189.52)"/><path class="sp_three-cls-2" d="M476.5,495.9c.3-1.8-.8-3.5,1.4-4.6,1.9,3.1,3.3,6.3,2.5,10.5-2.6-1.9-5.1-3.6-7.5-5.3a1.42,1.42,0,0,0,.2-.6Z" transform="translate(-143.5 -189.52)"/><path class="sp_three-cls-2" d="M505.7,426.1c1.1,2.4-.6,2.7-1.8,3.6C503.3,427.9,504.2,427.1,505.7,426.1Z" transform="translate(-143.5 -189.52)"/><path class="sp_three-cls-2" d="M616.2,618.5l-3.1-.4c1.1-.7,1.7-1.1,2.6-1.7a7.14,7.14,0,0,0,.5,2.1Z" transform="translate(-143.5 -189.52)"/></svg>