<svg id="quote" data-name="Layer 1" xmlns="http://www.w3.org/2000/svg" viewBox="0 0 185.06 159.6"><defs><style>.quote-cls-1{fill:#18272d;}</style></defs><title>Untitled-1</title><path class="quote-cls-1" d="M23.26,155A39.39,39.39,0,0,1,9.91,142.3a49.25,49.25,0,0,1-6.83-17.39A98.83,98.83,0,0,1,1.21,106a111.76,111.76,0,0,1,5.9-37.26A108.21,108.21,0,0,1,23,38.9a106.71,106.71,0,0,1,23-22.35A169.8,169.8,0,0,1,73.87.4L77,7.85A138,138,0,0,0,54,20.9,113,113,0,0,0,36,36.42a76,76,0,0,0-11.8,16.46q-4.35,8.38-4.35,14.59,0,9.93,8.39,14.28A36.7,36.7,0,0,0,45.31,86.1q16.75,0,26.7,11.18a37.27,37.27,0,0,1,9.93,25.46q0,16.77-11.48,27T44.68,160Q31.65,160,23.26,155Zm104.33,0a39.39,39.39,0,0,1-13.35-12.73,49.06,49.06,0,0,1-6.83-17.39A98.83,98.83,0,0,1,105.54,106a111.76,111.76,0,0,1,5.9-37.26A108,108,0,0,1,127.28,38.9a106.71,106.71,0,0,1,23-22.35A169.39,169.39,0,0,1,178.2.4l3.11,7.45a138,138,0,0,0-23,13.05,113,113,0,0,0-18,15.52,76,76,0,0,0-11.8,16.46q-4.35,8.38-4.35,14.59,0,9.93,8.39,14.28a36.69,36.69,0,0,0,17.07,4.35q16.77,0,26.71,11.18a37.27,37.27,0,0,1,9.93,25.46q0,16.77-11.48,27T149,160Q136,160,127.59,155Z" transform="translate(-1.21 -0.4)"/></svg>