<?xml version="1.0" encoding="utf-8"?>
<!-- Generator: Adobe Illustrator 22.0.1, SVG Export Plug-In . SVG Version: 6.00 Build 0)  -->
<svg version="1.1" id="Isolation_Mode" xmlns="http://www.w3.org/2000/svg" xmlns:xlink="http://www.w3.org/1999/xlink" x="0px"
	 y="0px" width="100px" height="100px" viewBox="0 0 100 100" style="enable-background:new 0 0 100 100;" xml:space="preserve">
<style type="text/css">
	.st0{fill:#39454B;}
	.st1{fill:#A57D4C;}
	.st2{fill:#A67D4C;}
	.st3{fill:#38454B;}
</style>
<g>
	<g>
		<g>
			<g>
				<path class="st3" d="M50,82.5c-17.9,0-32.5-14.6-32.5-32.5S32.1,17.5,50,17.5S82.5,32.1,82.5,50S67.9,82.5,50,82.5z M50,20.2
					c-16.4,0-29.8,13.3-29.8,29.8S33.6,79.8,50,79.8S79.8,66.4,79.8,50S66.4,20.2,50,20.2z"/>
			</g>
		</g>
	</g>
	<g>
		<g>
			<g>
				<path class="st2" d="M50.1,57.6c-4.2,0-7.7-3.5-7.7-7.7c0-4.2,3.5-7.7,7.7-7.7c4.2,0,7.7,3.5,7.7,7.7
					C57.8,54.2,54.3,57.6,50.1,57.6z M50.1,44.9c-2.8,0-5,2.2-5,5s2.2,5,5,5c2.8,0,5-2.2,5-5S52.9,44.9,50.1,44.9z"/>
			</g>
		</g>
	</g>
	<path class="st3" d="M44.8,40.8l-4.7-6.5L38,35.9l3.1,4.3c-1.5,1.4-2.7,3.5-3.5,5.6l-11.3-1.5c0-7.3,5.5-12,7.9-13.6l2.2,3l2.2-1.6
		l-3.6-5l-1,0.6c-0.4,0.3-11,6.3-10.2,17.9l0.1,1.1l16,2.1l0.2-1.3c0.5-2,1.8-4.2,3.2-5.6c0,0,0,0,0,0L44.8,40.8z"/>
	<path class="st3" d="M60.2,48.4l7.7-2.2l-0.7-2.6L62,45.1c-0.9-1.9-2.4-3.8-4.1-5.1l5.2-10.1c6.9,2.5,9.4,9.3,10.2,12l-3.5,1
		l0.7,2.6l5.9-1.7l-0.2-1.2c-0.1-0.5-2.2-12.5-13.4-15.7l-1.1-0.3l-7.4,14.3l1.1,0.6c1.7,1.1,3.3,3.1,4.1,4.9c0,0,0,0,0,0L60.2,48.4
		z"/>
	<path class="st3" d="M54.7,59.5L53.6,60c-1.1,0.4-2.3,0.6-3.5,0.6c-1.2,0-2.4-0.2-3.5-0.6c0,0-0.1,0-0.1,0l-1.4-0.6l-3.2,8.8
		l2.9,1.1l2.3-6.4c1,0.2,2,0.3,3,0.3c1.1,0,2.3-0.1,3.4-0.4l5,9.9c-6.1,4-13.1,2-15.7,1l0.9-2.4l-2.5-1l-1.8,4.7l1.1,0.6
		c0.3,0.1,4.4,2.2,9.7,2.2c3.4,0,7.2-0.9,10.9-3.6l0.9-0.7L54.7,59.5z"/>
	<g>
		<g>
			<g>
				<path class="st2" d="M50,27.5c-0.3,0-0.7-0.1-0.9-0.4c-0.2-0.2-0.4-0.6-0.4-0.9c0-0.3,0.1-0.7,0.4-0.9c0.2-0.2,0.6-0.4,0.9-0.4
					c0.3,0,0.7,0.1,0.9,0.4c0.2,0.2,0.4,0.6,0.4,0.9c0,0.3-0.1,0.7-0.4,0.9C50.6,27.3,50.3,27.5,50,27.5z"/>
			</g>
		</g>
	</g>
	<g>
		<g>
			<g>
				<path class="st2" d="M29,63.3c-0.3,0-0.7-0.1-0.9-0.4c-0.2-0.2-0.4-0.6-0.4-0.9c0-0.3,0.1-0.7,0.4-0.9c0.2-0.2,0.6-0.4,0.9-0.4
					c0.3,0,0.7,0.1,0.9,0.4c0.2,0.2,0.4,0.6,0.4,0.9c0,0.3-0.1,0.7-0.4,0.9C29.7,63.2,29.3,63.3,29,63.3z"/>
			</g>
		</g>
	</g>
	<g>
		<g>
			<g>
				<path class="st2" d="M70.4,62.6c-0.3,0-0.7-0.1-0.9-0.4c-0.2-0.2-0.4-0.6-0.4-0.9c0-0.3,0.1-0.7,0.4-0.9
					c0.2-0.2,0.6-0.4,0.9-0.4c0.3,0,0.7,0.1,0.9,0.4c0.2,0.2,0.4,0.6,0.4,0.9c0,0.3-0.1,0.7-0.4,0.9C71.1,62.4,70.8,62.6,70.4,62.6z
					"/>
			</g>
		</g>
	</g>
</g>
</svg>
