<?xml version="1.0" encoding="utf-8"?>
<!-- Generator: Adobe Illustrator 22.0.1, SVG Export Plug-In . SVG Version: 6.00 Build 0)  -->
<svg version="1.1" id="Isolation_Mode" xmlns="http://www.w3.org/2000/svg" xmlns:xlink="http://www.w3.org/1999/xlink" x="0px"
	 y="0px" width="100px" height="100px" viewBox="0 0 100 100" style="enable-background:new 0 0 100 100;" xml:space="preserve">
<style type="text/css">
	.st0{fill:#39454B;}
	.st1{fill:#A57D4C;}
	.st2{fill:#A67D4C;}
	.st3{fill:#38454B;}
</style>
<g>
	<path class="st0" d="M46.4,80.7c-8.8,0-16-7.2-16-16c0-7.1,4.4-13.2,8.3-18.5c3.3-4.5,6.5-8.8,6.5-13h2.5c0,4.2,3.1,8.5,6.5,13
		c3.9,5.3,8.3,11.4,8.3,18.5C62.5,73.5,55.3,80.7,46.4,80.7z M46.4,38.6c-1.3,3-3.5,6-5.7,9c-3.9,5.3-7.9,10.7-7.9,17.1
		c0,7.5,6.1,13.6,13.6,13.6S60,72.2,60,64.7c0-6.3-4-11.8-7.9-17.1C49.9,44.5,47.7,41.6,46.4,38.6z"/>
	<path class="st1" d="M29.6,46.2c-3.4,0-6.2-2.8-6.2-6.2c0-2.7,1.6-4.6,3-6.4c1.1-1.3,2-2.4,2-3.5h2.5c0,1.1,0.9,2.2,2,3.5
		c1.4,1.7,3,3.7,3,6.4C35.8,43.4,33,46.2,29.6,46.2z M29.6,33.5c-0.4,0.6-0.8,1.1-1.3,1.7c-1.2,1.5-2.4,3-2.4,4.8
		c0,2,1.7,3.7,3.7,3.7s3.7-1.7,3.7-3.7c0-1.8-1.2-3.3-2.4-4.8C30.5,34.7,30,34.1,29.6,33.5z"/>
	<path class="st1" d="M67.4,44.2c-5,0-9.1-4.1-9.1-9.1c0-4,2.4-7,4.6-9.7c1.7-2.1,3.3-4.1,3.3-6.1h2.5c0,2,1.6,4,3.3,6.1
		c2.2,2.7,4.6,5.7,4.6,9.7C76.5,40.1,72.4,44.2,67.4,44.2z M67.4,23.4c-0.7,1.2-1.7,2.4-2.6,3.6c-2,2.4-4,5-4,8.1
		c0,3.7,3,6.7,6.7,6.7c3.7,0,6.7-3,6.7-6.7c0-3.2-2.1-5.7-4-8.1C69.1,25.8,68.1,24.6,67.4,23.4z"/>
</g>
</svg>
