<?xml version="1.0" encoding="utf-8"?>
<!-- Generator: Adobe Illustrator 22.0.1, SVG Export Plug-In . SVG Version: 6.00 Build 0)  -->
<svg version="1.1" id="Layer_1" xmlns="http://www.w3.org/2000/svg" xmlns:xlink="http://www.w3.org/1999/xlink" x="0px" y="0px"
	 viewBox="0 0 1000 1000" style="enable-background:new 0 0 1000 1000;" xml:space="preserve">
<style type="text/css">
	.st0{fill:#A57D4C;}
	.st1{fill-rule:evenodd;clip-rule:evenodd;fill:#A57D4C;}
</style>
<g>
	<path class="st0" d="M223.4,589.5c9.9-2.8,19.8-5.9,29.4-8.9c13.3-4.2,22.8-6.6,33.4-10.2c5.3-1.8,10.7-3.5,15.9-5.2l2.4-0.8
		c1.4-0.4,2.1-1.9,1.7-3.3c-0.4-1.4-1.9-2.1-3.3-1.7l-2.4,0.8c-5.2,1.7-10.7,3.4-16,5.3c-10.3,3.5-21,6.3-31.4,9.6
		c-10,3.2-20.6,6.5-31,9.5C218.6,585.3,220.1,590.4,223.4,589.5z"/>
	<path class="st0" d="M289.6,637l53.1-33.4c-1-1.5-1.9-3-2.8-4.5l-53.1,33.4c-1.2,0.8-1.6,2.4-0.8,3.6
		C286.7,637.4,288.3,637.8,289.6,637z"/>
	<path class="st0" d="M239.7,549.8c0.3,1.7,1.9,2.8,3.6,2.5c24.5-4.4,48.7-8.8,72.8-13.3c-0.4-2-0.8-4.1-1.1-6.2
		c-24.1,4.5-48.3,9-72.8,13.3C240.5,546.4,239.4,548.1,239.7,549.8z"/>
	<path class="st0" d="M676.6,659.6c-11.3-10.2-23.1-20.9-35.5-32.3c-1.2,1.3-2.4,2.6-3.6,3.9c12.5,11.4,24.2,22.1,35.6,32.3
		C675.6,665.8,679.2,661.9,676.6,659.6z"/>
	<path class="st0" d="M258.2,507.5c-16.5,0.5-33.4,1.2-51,2c-3.5,0.2-3.3,5.4,0.2,5.3c17.7-0.8,34.5-1.6,50.9-2
		c1.5,0,2.6-1.3,2.6-2.7C260.9,508.6,259.7,507.4,258.2,507.5z"/>
	<path class="st0" d="M380.1,677.8c0.5,0.3,1,0.5,1.5,0.5c1.1,0.1,2.2-0.4,2.8-1.4c4.2-6.2,8.4-12.5,12.6-18.6
		c-1.7-1.2-3.5-2.3-5.2-3.5c-4.2,6.1-8.4,12.4-12.6,18.6C378.3,674.9,378.7,676.9,380.1,677.8z"/>
	<path class="st0" d="M641.8,668.4c2.8,0.2,4.5-3,2.6-5.2L626.2,642c-1.6,1.4-3.2,2.8-4.8,4.1C642.9,671.3,640.7,668.4,641.8,668.4z
		"/>
	<path class="st0" d="M381.3,727.2c0.2,0.1,0.5,0.2,0.7,0.3c1.1,0.3,2.3-0.2,2.9-1.3c10.7-18.8,21-37.7,31.3-56.7
		c-1.6-0.8-3.1-1.6-4.7-2.4c-10.2,19-20.5,37.8-31.2,56.6C379.6,724.8,380,726.5,381.3,727.2z"/>
	<path class="st0" d="M322.1,438.3c0.6-1.6-0.3-3.4-1.9-4c-17.8-6.4-35.5-12.6-56.4-20c-3.9-1.4-6,4.5-2.1,5.9
		c21,7.4,38.6,13.6,56.4,20C319.7,440.7,321.5,439.9,322.1,438.3z"/>
	<path class="st0" d="M617.2,331.4c-1.4-1-3.4-0.6-4.4,0.8c-2.6,3.7-5.1,7.5-7.7,11.2c1.7,1.2,3.5,2.3,5.2,3.5
		c2.6-3.7,5.1-7.5,7.7-11.2C619,334.3,618.6,332.4,617.2,331.4z"/>
	<path class="st0" d="M569,306.5c-1.6-0.6-3.4,0.3-4,2c-1.5,4.4-3,8.8-4.5,13.2c2,0.7,4,1.4,5.9,2.1c1.5-4.4,3-8.9,4.5-13.3
		C571.6,308.8,570.7,307.1,569,306.5z"/>
	<path class="st0" d="M306.8,593.3c0.5,1.1,1.5,1.7,2.6,1.8c0.5,0,1,0,1.5-0.3c7.1-3.2,14.1-6.5,21.1-9.7c-0.9-1.9-1.8-3.8-2.7-5.7
		c-7,3.2-14,6.4-21,9.7C306.8,589.8,306.1,591.7,306.8,593.3z"/>
	<path class="st0" d="M655,364.6l-12.8,11c1.4,1.6,2.8,3.1,4.1,4.8l12.8-11c1.3-1.1,1.5-3.1,0.3-4.4
		C658.3,363.7,656.3,363.5,655,364.6z"/>
	<path class="st0" d="M218,439.2l98.4,22.4c0.4-1.7,0.8-3.4,1.2-5.1L219.2,434C215.8,433.3,214.6,438.4,218,439.2z"/>
	<path class="st0" d="M373.2,292.9c-1.9-3-6.3-0.1-4.5,2.8c6.5,10.4,6.3,10.5,7.7,10.8c2.3,0.5,4.1-2,2.8-4L373.2,292.9z"/>
	<path class="st0" d="M670.1,416.1c-0.1,0.1-0.2,0.1-0.3,0.2c0.9,1.9,1.8,3.8,2.7,5.7c0.1-0.1,0.2-0.1,0.4-0.2
		c1.6-0.8,2.2-2.6,1.4-4.2C673.5,415.9,671.6,415.3,670.1,416.1z"/>
	<path class="st0" d="M311.9,404.3c7.4,3.9,14.3,7.5,20.8,11c0.8-1.6,1.6-3.1,2.5-4.7c-6.6-3.5-13.5-7.1-20.8-11
		C311.3,398,308.8,402.6,311.9,404.3z"/>
	<path class="st0" d="M656.7,329c-9.4,10.2-18.9,20.4-28.4,30.6c-0.4,0.4-0.6,0.8-0.7,1.3c1.1,1,2.2,2,3.3,3
		c0.5-0.1,0.9-0.4,1.3-0.7c9.5-10.2,18.9-20.4,28.4-30.7c1-1.1,0.9-2.7-0.1-3.7C659.4,327.9,657.7,328,656.7,329z"/>
	<path class="st0" d="M715.3,193.1c2.4-4.6,6.7-8.3,8.9-13.4c1.7-2.9,4.3-5.8,6.2-8.6c2.3-3.5-2.9-6.9-5.2-3.5
		c-1.8,2.6-4.5,5.7-6.5,9c-3.2,6.4-6.2,8.2-9,13.6C707.9,193.9,713.4,196.8,715.3,193.1z"/>
	<path class="st0" d="M728.5,251.3c-1.8,1.9-5.3,5.1-6.7,7c-2,3.3-6,5.9-9,9.9c-2.1,2.8,2.3,5.9,4.3,3.1c1.1-1.6,2.6-3,4.1-4.4
		c6.3-6,2.3-3.3,8.5-9.3c1-0.9,1.9-1.8,2.7-2.7C734.8,252.3,730.9,248.7,728.5,251.3z"/>
	<path class="st0" d="M822.9,398.5c-5.3,1.6-10.9,3.3-17.1,5.2c-1.4,0.4-2.2,1.9-1.7,3.3c0.4,1.4,1.9,2.2,3.3,1.7
		c6.2-1.9,11.7-3.6,17-5.2C827.7,402.6,826.2,397.5,822.9,398.5z"/>
	<path class="st0" d="M767.6,376.5c1,0.1-2,1.8,55.2-26.4c3.7-1.8,1-7.5-2.8-5.6c-19.3,9.5-36.5,18-53.6,26.1
		C763.6,371.9,764.4,376.3,767.6,376.5z"/>
	<path class="st0" d="M767.3,276.6l40.6-34.9c3.1-2.7-0.9-7.5-4.1-4.8l-40.6,34.9c-1.3,1.1-1.5,3.1-0.3,4.4
		C764,277.6,766,277.7,767.3,276.6z"/>
	<path class="st0" d="M670.3,256.5c2.4,0.2,0.5,2.2,31.4-43.3c2.3-3.4-2.9-7-5.2-3.5c-9.5,14-19,27.9-28.5,41.9
		C666.5,253.6,667.9,256.3,670.3,256.5z"/>
	<path class="st0" d="M663.9,400.4c0.7,0.1,1.4,0,2-0.3L682,390c1.2-0.8,1.6-2.4,0.8-3.6c-0.8-1.2-2.4-1.6-3.6-0.8l-16.1,10.1
		c-1.2,0.8-1.6,2.4-0.8,3.6C662.7,399.9,663.3,400.3,663.9,400.4z"/>
	<path class="st0" d="M710.9,323.8c1.8,0.1-0.5,1.7,37.4-30.8c3.1-2.7-0.9-7.5-4.1-4.8L709,318.3
		C706.9,320.1,708.1,323.6,710.9,323.8z"/>
	<path class="st0" d="M699.4,282.8c-9.6,10.5-19.2,20.9-28.9,31.3c-1,1.1-0.9,2.7,0.1,3.7c0.4,0.3,0.8,0.5,1.2,0.6
		c0.9,0.2,1.9-0.1,2.5-0.8c9.6-10.4,19.3-20.9,28.9-31.3C705.6,283.8,701.8,280.2,699.4,282.8z"/>
	<path class="st0" d="M816.7,608.3c-5.5-2-11.3-4-17.6-6.3c-3.9-1.4-6,4.5-2.1,5.9c6.3,2.2,12.1,4.3,17.6,6.3
		C818.5,615.6,820.6,609.7,816.7,608.3z"/>
	<path class="st0" d="M776,593.9c-11.6-4-21.5-7.5-31.5-11c-3.9-1.4-6,4.5-2.1,5.9c0.7,0.2,31.6,11.1,32.4,11.2
		C778.4,600.3,779.5,595.1,776,593.9z"/>
	<path class="st0" d="M772.2,647c0.7,0.4,26.1,13.8,26.9,13.9c3,0.7,4.5-3.5,1.8-4.9c-9-4.7-17.7-9.2-26.2-13.7
		C771.6,640.7,769.1,645.4,772.2,647z"/>
	<path class="st0" d="M785.9,562.9l-100.3-22.8c-0.4,1.7-0.8,3.4-1.2,5.1L784.7,568C788.1,568.8,789.3,563.7,785.9,562.9z"/>
	<path class="st0" d="M735.2,657c-23.2-15.4-47.8-31.9-75.1-50.5c-0.6-0.4-1.3-0.9-1.9-1.3c-1.2,1.7-2.3,3.5-3.6,5.2
		c25.3,17.2,50.9,34.5,77.1,51.9C735.2,664.5,738.7,659.3,735.2,657z"/>
	<path class="st0" d="M847,524.2l-157.6-12.1c-0.1,2.1-0.3,4.2-0.5,6.3l157.6,12.1C850.6,530.8,851.1,524.5,847,524.2z"/>
	<path class="st0" d="M838.6,490.6c3.5-0.2,3.2-5.4-0.3-5.3c-4.5,0.2-9,0.4-13.6,0.6c-1.5,0.1-2.6,1.3-2.5,2.8
		c0.1,1.4,1.3,2.6,2.8,2.5C829.5,491,834.1,490.8,838.6,490.6z"/>
	<path class="st0" d="M853.1,431.9c-26.2,4-52,10.1-77.4,14.4c-1.7,0.3-2.9,1.9-2.6,3.6c0.2,1.5,1.4,2.5,2.9,2.6c0.2,0,0.5,0,0.8,0
		c25.5-4.3,51.3-10.5,77.3-14.4C858.1,437.5,857.2,431.3,853.1,431.9z"/>
	<path class="st0" d="M832.9,576.3c0.3-1.4-0.6-2.8-2-3.2l-22.7-5.2c-3.4-0.8-4.6,4.4-1.2,5.1l22.7,5.2
		C831.1,578.6,832.5,577.7,832.9,576.3z"/>
	<path class="st0" d="M750.3,629.1c-4.3-2.3-8.9-4.7-13.9-7.4c-3.1-1.6-5.5,3-2.5,4.7c5,2.6,9.5,5,13.8,7.4
		C750.9,635.4,753.4,630.7,750.3,629.1z"/>
	<path class="st0" d="M241.7,367c19.3,10.4,38.9,20.7,58.5,31.1c3.1,1.6,5.5-3,2.5-4.7c-19.4-10.2-39.1-20.6-58.5-31.1
		C241.1,360.7,238.6,365.4,241.7,367z"/>
	<path class="st0" d="M172.3,423.4c-3.4-0.8-4.6,4.4-1.2,5.1l24.9,5.7c3.4,0.8,4.6-4.4,1.2-5.1L172.3,423.4z"/>
	<path class="st0" d="M249,409c-24.5-8.6-49.6-17.4-74.2-26.3c-3.9-1.4-6,4.5-2.1,5.9c19.3,7,74.1,26.5,75.1,26.5
		C251.3,415.4,252.4,410.2,249,409z"/>
	<path class="st0" d="M342.5,320.8l25.8,30.1c2.7,3.1,7.5-0.9,4.8-4.1l-25.8-30.1C344.5,313.6,339.8,317.6,342.5,320.8z"/>
	<path class="st0" d="M345.8,353.3c-2.6-2.4-6.1,1.5-3.6,3.9c6.9,6.3,13,11.9,18.6,17.2c1.2-1.3,2.4-2.6,3.6-3.9
		C358.8,365.3,352.7,359.6,345.8,353.3z"/>
	<path class="st0" d="M271.7,347.3c3.2,0.2,4.7-3.9,2-5.7c-6.9-4.6-13-8.7-18.9-12.7c-3.4-2.3-6.9,2.9-3.5,5.2
		C271.9,347.9,270.6,347.2,271.7,347.3z"/>
	<path class="st0" d="M185.5,515.7c3.5-0.1,3.3-5.4-0.2-5.3c-8,0.3-15.2,0.5-21.9,0.7c-3.1,0.1-3.5,4.5-0.5,5.2
		C163.8,516.5,184.7,515.7,185.5,515.7z"/>
	<path class="st0" d="M331.6,340.4c-5.1-4.7-9.7-8.8-14.2-12.9c-2.6-2.3-6.1,1.5-3.6,3.9c15.2,13.9,14.4,13.3,15.4,13.5
		C331.9,345.5,333.6,342.2,331.6,340.4z"/>
	<path class="st0" d="M289.2,359.5c17.3,11.7,31.1,21.2,43.5,30c3.4,2.4,7-2.7,3.6-5.1c-12.5-8.9-26.4-18.4-43.7-30.1
		C289.3,352,285.8,357.2,289.2,359.5z"/>
	<path class="st0" d="M277.6,509.3c0,1.2,0.9,2.2,2.1,2.5c0.2,0,0.4,0.1,0.7,0.1c10.8-0.3,21.5-0.7,32.2-1c-0.1-1.8-0.2-3.5-0.2-5.3
		c-10.7,0.4-21.4,0.7-32.1,1C278.7,506.7,277.6,507.9,277.6,509.3z"/>
	<path class="st0" d="M845.4,339.1c6.9-3.3,13.2-6.3,19.1-9c3.8-1.7,1.1-7.4-2.6-5.7c-6,2.8-12.2,5.7-19.2,9.1
		c-1.6,0.8-2.2,2.6-1.5,4.2C842,339.2,843.8,339.8,845.4,339.1z"/>
	<path class="st0" d="M562.8,690.5c-0.5-1.4-2-2.1-3.4-1.6c-1.4,0.5-2.1,2-1.6,3.4c1.5,4.1,2.6,8.1,3.6,11.9
		c0.7,2.8,1.5,5.6,2.4,8.5c0.3,0.9,1,1.6,1.9,1.8c0.4,0.1,0.9,0.1,1.4-0.1c1.4-0.4,2.2-1.9,1.7-3.3c-0.9-2.8-1.6-5.6-2.4-8.3
		C565.4,698.9,564.3,694.8,562.8,690.5z"/>
	<path class="st0" d="M595,703.3c0.5,1,1.5,1.7,2.6,1.8c0.5,0,1.1-0.1,1.6-0.3c1.6-0.8,2.2-2.6,1.5-4.2c-5-10.3-10-20.6-15-31
		c-1.9,0.9-3.8,1.8-5.7,2.7C584.9,682.6,590,693,595,703.3z"/>
	<path class="st0" d="M880.5,433c5.3-1,10.6-2.1,15.9-3.1c4.1-0.8,2.9-7-1.2-6.2c-5.3,1-10.6,2.1-15.9,3.1c-1.7,0.3-2.8,2-2.5,3.7
		C877.2,432.2,878.8,433.4,880.5,433z"/>
	<path class="st0" d="M276,697.9l83.8-71.9c-1.4-1.6-2.8-3.1-4.1-4.8l-83.8,71.9C268.7,695.9,272.8,700.6,276,697.9z"/>
	<path class="st0" d="M272.7,644.5c-0.8-1.2-2.4-1.6-3.6-0.8l-55.3,34.8c-2,1.3-1.5,4.3,0.8,4.8c1.5,0.4-2.3,2.4,57.3-35.2
		C273.1,647.4,273.5,645.7,272.7,644.5z"/>
	<path class="st0" d="M154.4,565.9c0.3,1.7,2,2.8,3.7,2.5c20.7-4,40.3-7.8,59.6-11.3c4.1-0.7,3-6.9-1.1-6.2
		c-19.4,3.4-39.1,7.3-59.7,11.3C155.1,562.5,154,564.2,154.4,565.9z"/>
	<path class="st0" d="M556.1,682.6c0.4,0.1,0.9,0.1,1.4-0.1c1-0.3,1.7-1.2,1.8-2.2c-1.5,0.5-3,1-4.6,1.4
		C555.1,682.2,555.6,682.5,556.1,682.6z"/>
	<path class="st0" d="M670.2,593c3,0.7,4.5-3.5,1.8-4.9c-0.9-0.5-1.9-0.9-2.8-1.4c-0.8,1.6-1.6,3.1-2.5,4.7
		C668.8,592.4,670,592.9,670.2,593z"/>
	<path class="st0" d="M691.6,444.3c0.4,0.1,0.9,0.1,1.3,0c8.9-2.7,17.8-5.4,26.7-8.1c1.4-0.4,2.2-1.9,1.8-3.3
		c-0.4-1.4-1.9-2.2-3.3-1.8c-8.9,2.7-17.8,5.4-26.7,8.1c-1.4,0.4-2.2,1.9-1.8,3.3C689.9,443.4,690.7,444,691.6,444.3z"/>
	<path class="st0" d="M733.6,492c0,1.2,0.9,2.3,2.1,2.5c0.2,0,0.4,0.1,0.6,0.1c21.8-0.4,44-2.4,66.1-2.5c1.5,0,2.6-1.2,2.6-2.6
		c0-1.5-1.2-2.6-2.6-2.6c-12.5,0-25.2,0.7-37.4,1.3c-9.5,0.5-19.3,1-28.8,1.2C734.7,489.4,733.5,490.6,733.6,492z"/>
	<path class="st0" d="M687,469c11.7-2,23.3-4.2,34.7-6.3c10-1.9,20.4-3.8,30.7-5.6c1.7-0.3,2.8-1.9,2.5-3.6
		c-0.3-1.7-1.9-2.8-3.6-2.5c-10.3,1.8-20.7,3.7-30.7,5.6c-11.4,2.1-23,4.3-34.7,6.3C686.3,464.9,686.7,466.9,687,469z"/>
	<path class="st0" d="M690.6,334.1l-17.1,14.7c-1.3,1.1-1.5,3.1-0.3,4.4c0.6,0.7,1.3,1,2.1,1.1c0.8,0.1,1.6-0.2,2.3-0.7l17.1-14.7
		c1.3-1.1,1.5-3.1,0.3-4.4C693.9,333.1,691.9,333,690.6,334.1z"/>
	<path class="st0" d="M718.1,492.7c0-1.5-1.2-2.6-2.7-2.6c-8.6,0.2-17.4,0.6-25.9,0.9c0.1,1.8,0.2,3.5,0.2,5.3
		c8.5-0.3,17.2-0.6,25.8-0.9C716.9,495.4,718.1,494.2,718.1,492.7z"/>
	<path class="st0" d="M719.3,577.6c0.5-1.6-0.3-3.4-2-4l-4.3-1.4c-10.9-3.6-22-7.3-33.1-11.1c-0.7,2-1.4,4-2.1,5.9
		c12.5,4.3,25.1,8.4,37.6,12.5C717,580.2,718.8,579.3,719.3,577.6z"/>
	<path class="st0" d="M690.9,603.8c0.5,0.3,24.9,13.2,25.5,13.3c3,0.7,4.5-3.5,1.8-4.9c-9.1-4.8-16.9-8.9-24.9-13
		C690.3,597.5,687.8,602.1,690.9,603.8z"/>
	<path class="st0" d="M729.4,353.9l-32.9,20.7c-1.2,0.8-1.6,2.4-0.8,3.6c0.4,0.6,1,1,1.6,1.2c0.7,0.1,1.4,0,2-0.3l32.9-20.7
		c1.2-0.8,1.6-2.4,0.8-3.6C732.3,353.5,730.7,353.1,729.4,353.9z"/>
	<path class="st0" d="M744.3,380.9c-10,4.7-20,9.4-30,14.1c-1.6,0.7-2.2,2.6-1.5,4.2c0.5,1.1,1.5,1.7,2.6,1.8c0.5,0,1.1-0.1,1.6-0.3
		c10-4.7,20-9.4,30-14.1c1.6-0.7,2.2-2.6,1.5-4.2C747.7,380.9,745.9,380.2,744.3,380.9z"/>
	<path class="st0" d="M412.1,308.7c-1.8-3.7-7.5-1-5.7,2.7c3.3,6.9,6.6,13.8,10,20.7c1.9-0.9,3.8-1.8,5.7-2.7
		C418.7,322.5,415.4,315.5,412.1,308.7z"/>
	<path class="st0" d="M395.8,328.8c-1.9-3-6.3-0.1-4.5,2.8l6.9,11c1.5-1,3-1.9,4.5-2.8L395.8,328.8z"/>
	<path class="st0" d="M592.2,333.8c7.1-12.3,13.4-25.3,19.5-37.8l2.4-5c2.3-4.6,4.3-8.3,6.5-11.6c0.8-1.2,0.5-2.9-0.8-3.7
		c-1.2-0.8-2.9-0.5-3.7,0.8c-2.3,3.5-4.5,7.4-6.8,12.2l-2.5,5c-6.1,12.4-12.4,25.3-19.4,37.5c-0.3,0.6-0.4,1.2-0.3,1.8
		c1.2,0.6,2.5,1.3,3.7,1.9C591.5,334.7,592,334.3,592.2,333.8z"/>
	<path class="st0" d="M392,322.7l-2.3-3.6c-1.9-3-6.3-0.1-4.5,2.8l2.3,3.6C389.4,328.5,393.8,325.7,392,322.7z"/>
	<path class="st0" d="M736.1,428.4c0.3,0.9,1,1.6,1.9,1.8c0.4,0.1,0.9,0.1,1.3,0c13.3-4,26.8-8.3,39.8-12.5l8.1-2.6
		c1.4-0.4,2.2-1.9,1.7-3.3c-0.4-1.4-1.9-2.2-3.3-1.7l-8.1,2.6c-13,4.2-26.4,8.5-39.7,12.5C736.5,425.6,735.7,427.1,736.1,428.4z"/>
	<path class="st0" d="M628.6,317.5c1.1,0.1,2.2-0.4,2.8-1.4c9.3-13.7,18.7-27.3,28-41c2.3-3.4-2.8-7-5.2-3.5
		c-9.3,13.7-18.7,27.3-28,41c-1,1.4-0.6,3.4,0.8,4.4C627.6,317.2,628.1,317.4,628.6,317.5z"/>
	<path class="st0" d="M788.2,323.1c3-1.9,0.1-6.3-2.8-4.5l-38.1,24c-2,1.3-1.5,4.3,0.8,4.8C749.6,347.8,747,349.1,788.2,323.1z"/>
	<path class="st0" d="M360,280.3c2.3,0.5,4.1-2,2.8-4l-16.2-25.8c-1.9-3-6.3-0.1-4.5,2.8C359.7,281.4,358.5,280,360,280.3z"/>
	<path class="st0" d="M424.8,824l-1.3,5.6c-0.8,3.4,4.4,4.6,5.1,1.2l1.3-5.6C430.7,821.7,425.6,820.6,424.8,824z"/>
	<path class="st0" d="M374.5,740.1c-1.3-0.6-2.9-0.1-3.5,1.3c-9.2,19.6-21,37.3-29.9,57.1c-1.4,3.2,3.4,5.3,4.8,2.2
		c8.8-19.5,20.6-37.2,29.9-57C376.4,742.3,375.8,740.7,374.5,740.1z"/>
	<path class="st0" d="M389.9,806.4c-7.4,24.7-18.2,47.6-25.3,72.4c-1.1,4,4.9,5.7,6,1.7c7-24.5,17.7-47.4,25.2-72.3
		C397.1,804.3,391.1,802.5,389.9,806.4z"/>
	<path class="st0" d="M436.6,678.3c-12.5,35.8-25.2,70.7-38.8,105.6c-1.5,3.9,4.3,6.2,5.9,2.3c13.6-35.1,26.3-70,38.9-105.9
		C440.6,679.7,438.6,679,436.6,678.3z"/>
	<path class="st0" d="M371.1,696.5c1-1.4,0.6-3.4-0.8-4.4c-1.4-1-3.4-0.6-4.4,0.8c-27.9,41-45.9,66.5-68.5,99.4
		c-2.3,3.4,2.8,7,5.2,3.5c9.6-14,19.4-28.2,28.9-41.8c8.1-11.7,16.5-23.8,24.7-35.7C361.1,711,366.1,703.8,371.1,696.5z"/>
	<path class="st0" d="M448.6,731.2c-1.4-0.3-2.8,0.6-3.2,2l-16.3,71.8c-0.8,3.4,4.4,4.6,5.1,1.2l16.3-71.8
		C450.9,732.9,450,731.5,448.6,731.2z"/>
	<path class="st0" d="M479.5,780.9c-1.7-0.1-3.2,1.2-3.4,2.9l-6.7,87.3c-0.3,4.1,5.9,4.6,6.3,0.5l6.7-87.3
		C482.5,782.6,481.2,781.1,479.5,780.9z"/>
	<path class="st0" d="M467.7,894.3l-0.5,6.8c-0.3,4.1,5.9,4.6,6.3,0.5l0.5-6.8C474.2,890.6,468,890.1,467.7,894.3z"/>
	<path class="st0" d="M456.6,684.3l-6.8,29.9c-0.3,1.4,0.6,2.8,2,3.2c1.4,0.3,2.8-0.6,3.2-2l6.8-29.9
		C460,685.1,458.3,684.7,456.6,684.3z"/>
	<path class="st0" d="M328.8,690.5c8.2-8.7,16.6-17.7,24.9-26.7c5-5.4,10.1-10.9,15.1-16.3c1-1.1,0.9-2.7-0.2-3.7
		c-1.1-1-2.7-0.9-3.7,0.2c-5,5.4-10.1,10.9-15.1,16.3c-17.9,19.3-36.2,38.6-54.1,57.9c-1.4,1.5-0.6,3.9,1.3,4.4
		C299.2,723,297.2,724.2,328.8,690.5z"/>
	<path class="st0" d="M202.3,593.2c-0.4-1.4-1.9-2.2-3.3-1.7l-21.5,6.6c-2.6,0.8-2.4,4.5,0.2,5.1c1,0.2-0.5,0.5,22.8-6.7
		C202,596.1,202.8,594.6,202.3,593.2z"/>
	<path class="st0" d="M483.4,688.7l-5.5,72c-0.1,1.7,1.2,3.2,2.9,3.4c1.7,0.1,3.2-1.2,3.4-2.9l5.5-72
		C487.6,689.1,485.5,688.9,483.4,688.7z"/>
	<path class="st0" d="M283.5,812.8c-4.1,6.1-8.1,12.1-11.9,17.8c-1.3,2,0,4.7,2.4,4.9c2.5,0.2,2-0.2,14.8-19.1
		C291,812.9,285.8,809.4,283.5,812.8z"/>
	<path class="st0" d="M161.5,660.1l-24.1,11.6c-2.9,1.4-2.1,5.7,1.1,6c1.2,0.1-0.6,0.7,25.7-11.9c1.6-0.7,2.2-2.6,1.5-4.2
		C165,660,163.1,659.3,161.5,660.1z"/>
	<path class="st0" d="M131.3,567.1c-9.4,1.8-17.8,3.3-25.6,4.6c-3.6,0.6-3.4,5.9,0.3,6.2c1,0.1,25.5-4.5,26.5-4.7
		c1.7-0.3,2.8-2,2.5-3.7C134.6,567.9,133,566.8,131.3,567.1z"/>
	<path class="st0" d="M152.3,381.3c1.6,0.1,3-0.9,3.3-2.5c0.3-1.7-0.7-3.4-2.4-3.7c-2.3-0.5-4.5-1.4-6.8-2.4c-11-4.7-5.8-0.7-15-5.2
		c-2.8-1.3-5.6-2.7-8.8-3.2c-4.1-0.6-4.9,5.7-0.9,6.2c4.2,0.6,8.8,4.1,14,5.4c2.3,0.4,2.7,0.1,8.3,2.5
		C144.9,378.9,150,381.2,152.3,381.3z"/>
	<path class="st0" d="M273.4,750.3c3.9-4.3,7.9-8.7,12.1-13.3c2.4-2.6-1.5-6.1-3.9-3.6c-4.2,4.6-8.2,9-12.1,13.3
		C267.2,749.4,271.1,752.9,273.4,750.3z"/>
	<path class="st0" d="M278.1,611.1l2.7-1.3c1.6-0.8,2.2-2.7,1.4-4.2c-0.8-1.6-2.7-2.2-4.2-1.4l-2.7,1.3c-19.7,9.7-74,36-88,42.3
		c-3,1.3-2.2,5.8,1,6c1.9,0.1,30.6-14,34.5-15.9C243.7,627.6,223.9,637.9,278.1,611.1z"/>
	<path class="st0" d="M253.1,709.3l-59,50.6c-2.1,1.8-1,5.3,1.8,5.5c1.9,0.1-2.3,3.2,61.3-51.4c1.3-1.1,1.5-3.1,0.3-4.4
		C256.4,708.3,254.4,708.2,253.1,709.3z"/>
	<path class="st0" d="M561,803.2c-0.8-4.1-6.9-2.9-6.2,1.2l17.1,91.8c0.8,4.1,6.9,2.9,6.2-1.1L561,803.2z"/>
	<path class="st0" d="M750.4,728.3c-4.6-3.9-9.1-8.2-13.3-12.4c-14-13.7-13.3-11.9-20.7-19.4c-11.3-11.3-11.2-10.8-24.6-22.9
		c-2.6-2.3-6.1,1.6-3.5,3.9c37.5,34,2.5,2.5,36.9,34.3c7.3,6.7,14.1,14.1,21.9,20.6C749.7,734.6,753.1,730.5,750.4,728.3z"/>
	<path class="st0" d="M660.6,682.1c-1.1-1.3-3.1-1.5-4.4-0.3c-1.3,1.1-1.5,3.1-0.3,4.4c68.6,80,63.8,75,65.6,75.1
		c2.8,0.2,4.4-3,2.6-5.2L660.6,682.1z"/>
	<path class="st0" d="M659.7,825.3c-0.8-1.6-2.6-2.2-4.2-1.5c-1.6,0.8-2.2,2.6-1.5,4.2c6.5,13.4,12.3,25.3,17.8,36.3
		c1.8,3.7,7.5,0.9,5.6-2.8C671.9,850.6,666.1,838.7,659.7,825.3z"/>
	<path class="st0" d="M740.2,775c-2.7-3.1-7.5,0.9-4.8,4.1l24.6,28.7c2.7,3.1,7.5-0.9,4.8-4.1L740.2,775z"/>
	<path class="st0" d="M666.2,758.3c-1.9-3-6.3-0.1-4.5,2.8c18.3,29.1,17.1,27.7,18.6,28.1c2.3,0.5,4.1-2,2.8-4L666.2,758.3z"/>
	<path class="st0" d="M901.7,528.4l-27.6-2.1c-4.1-0.3-4.6,5.9-0.5,6.3l27.6,2.1c1.7,0.1,3.2-1.2,3.4-2.9
		C904.7,530.1,903.4,528.5,901.7,528.4z"/>
	<path class="st0" d="M880.9,631.2c-11.4-3.9-22.5-7.7-33.2-11.5c-3.9-1.4-6,4.5-2.1,5.9c0.9,0.3,33.1,11.6,34.1,11.7
		C883.3,637.6,884.4,632.4,880.9,631.2z"/>
	<path class="st0" d="M834.1,725c-11.6-7.1-20.1-14.5-34.9-24.1c-15.6-10.1-8.9-7.1-35.7-24.8c-2.7-1.8-5.3-3.5-8-5.3
		c-3.4-2.3-6.9,2.9-3.5,5.2c44.3,29.7,9.6,6.8,49.4,33.9c9.7,6.6,19.1,14.1,29.3,20.4c1.5,0.9,3.4,0.4,4.3-1
		C836,727.8,835.6,725.9,834.1,725z"/>
	<path class="st0" d="M509.6,742.5c0.2,0,0.4,0.1,0.7,0.1c1.5,0,2.6-1.3,2.5-2.7c-0.5-16.2-1.1-32.9-1.8-50.6
		c-1.8,0.1-3.5,0.2-5.3,0.2c0.6,17.6,1.2,34.3,1.8,50.5C507.6,741.2,508.5,742.2,509.6,742.5z"/>
	<path class="st0" d="M556.6,780c-5.4-29.4-11.1-60.3-17.5-94.3c-2,0.4-4.1,0.8-6.2,1.1c6.4,34,12.1,64.8,17.5,94.2
		c0.3,1.4,1.5,2.5,2.8,2.6c0.3,0,0.5,0,0.8,0C555.8,783.3,556.9,781.7,556.6,780z"/>
	<path class="st0" d="M580.1,748.6c-1.7-5.6-3.5-11.3-5.2-16.9c-0.4-1.4-1.9-2.2-3.3-1.7c-1.4,0.4-2.2,1.9-1.7,3.3
		c1.7,5.6,3.5,11.3,5.2,16.9c2,6.4,3.9,12.8,5.9,19.2c1,3.3,6.1,1.8,5-1.6C584,761.4,582,755,580.1,748.6z"/>
	<path class="st0" d="M655.1,740.7l-43.7-69.4c-0.8-1.2-2.4-1.6-3.6-0.8c-1.2,0.8-1.6,2.4-0.8,3.6c47.2,75,43.8,70.2,45.3,70.6
		C654.5,745.2,656.3,742.7,655.1,740.7z"/>
	<path class="st0" d="M510.9,757.2c-1.5,0.1-2.6,1.3-2.5,2.7l2.9,78.5c0.1,3.5,5.4,3.3,5.3-0.2l-2.9-78.5
		C513.6,758.3,512.3,757.1,510.9,757.2z"/>
	<path class="st0" d="M131,469.3l-30.3-2.3c-4.1-0.3-4.6,5.9-0.5,6.3l30.3,2.3C134.7,475.9,135.2,469.6,131,469.3z"/>
	<path class="st0" d="M593,790.3c-1-3.3-6.1-1.8-5,1.6c11,35,10.4,33.7,12.3,34.2c2,0.4,3.7-1.4,3.1-3.4
		C600.1,812.8,596.7,802.2,593,790.3z"/>
	<path class="st0" d="M628.1,759.5c-0.7-1.6-2.6-2.2-4.2-1.5c-1.6,0.7-2.2,2.6-1.5,4.2c3,6.3,6,12.6,9.1,19
		c11.1,23.2,10.5,23.1,12.9,23.3c0.5,0,1.1-0.1,1.6-0.3c1.6-0.7,2.2-2.6,1.5-4.2C640.8,786.1,634.7,773.3,628.1,759.5z"/>
	<path class="st0" d="M613.3,727.2c-1.9-4.5-4-9.1-6.5-13.9c-0.8-1.5-2.7-2.1-4.3-1.3c-1.5,0.8-2.1,2.7-1.3,4.3
		c2.5,4.5,4.4,9.1,6.3,13.4c1.4,3.1,2.8,6.3,4.3,9.6c1.8,3.7,7.5,1,5.6-2.8C616,733.4,614.6,730.2,613.3,727.2z"/>
	<path class="st0" d="M518.5,312.9l1.3-16.8c0.1-1.7-1.2-3.2-2.9-3.4c-1.7-0.1-3.2,1.2-3.4,2.9l-1.3,16.8
		C514.4,312.6,516.5,312.7,518.5,312.9z"/>
	<path class="st0" d="M487,204.2c0.6,12.2,1.1,24.8,1.5,37.1c0.1,3.5,5.4,3.3,5.3-0.2c-0.4-12.4-1-24.9-1.5-37.2
		C492.1,200.4,486.8,200.7,487,204.2z"/>
	<path class="st0" d="M526.8,205.8l1.6-20.3c0.3-4.1-5.9-4.6-6.3-0.5l-1.6,20.3C520.2,209.4,526.4,209.9,526.8,205.8z"/>
	<path class="st0" d="M432.8,154.2c2.8,14.3,5.7,28.9,8.3,43.4c0.7,4.1,6.9,3,6.2-1.1c-2.6-14.5-5.5-29.1-8.3-43.5
		C438.2,149,432,150.2,432.8,154.2z"/>
	<path class="st0" d="M518.2,276.4c1.7,0.1,3.2-1.2,3.4-2.9l3.4-44.6c0.3-4.1-5.9-4.6-6.3-0.5l-3.4,44.6
		C515.2,274.8,516.5,276.3,518.2,276.4z"/>
	<path class="st0" d="M489.2,261.4c0.5,15,1,30.8,1.6,46.8c0,1.2,0.9,2.2,2.1,2.5c0.2,0,0.4,0.1,0.7,0.1c1.5-0.1,2.6-1.3,2.5-2.7
		c-0.6-16-1.1-31.8-1.6-46.8C494.3,257.7,489.1,257.9,489.2,261.4z"/>
	<path class="st0" d="M445.4,221.1c3.2,17.6,6.5,36,10,54.8c0.3,1.4,1.5,2.5,2.8,2.6c2.1,0.2,3.7-1.7,3.3-3.7
		c-3.5-18.8-6.8-37.2-10-54.8C450.8,216,444.6,217.1,445.4,221.1z"/>
	<path class="st0" d="M491.2,179.2c-0.2-5.8-0.4-10.9-0.5-15.9c-0.1-3.5-5.4-3.4-5.3,0.1c0.1,5,0.3,10.2,0.5,16
		C486.1,182.9,491.3,182.7,491.2,179.2z"/>
	<path class="st0" d="M459.5,298.7c1.1,5.8,2.1,11.5,3.2,17.3c2-0.4,4.1-0.8,6.2-1.2c-1.1-5.8-2.1-11.5-3.2-17.3
		C465,293.4,458.8,294.6,459.5,298.7z"/>
	<path class="st0" d="M630.8,260.4c4.9-9,9.2-18.4,14.6-26.9c3.5-5.7,4.6-10.9,8.4-16c0.6-1,4.5-8.2,7.2-14.4
		c1.4-3.2-3.4-5.3-4.8-2.1c-1.8,4.1-4.2,8.8-6.7,13.5c-4.1,5.6-5.4,11-8.6,16.2c-5.5,8.7-9.8,18.3-14.7,27.1
		C624.5,261,629.1,263.5,630.8,260.4z"/>
	<path class="st0" d="M575.2,290.2c0.3,0.1,0.6,0.2,0.9,0.2c1.3,0.1,2.6-0.7,3.2-2c12-30.5,17.6-55,24.1-69c1.7-3.8-4-6.4-5.7-2.6
		c-3.5,7.6-5.5,14.2-7.9,21.9c-5,15.7-10.2,31.9-16.3,47.5C572.8,287.8,573.6,289.6,575.2,290.2z"/>
	<path class="st0" d="M576,182.8l2.4-10.7c0.8-3.4-4.4-4.6-5.1-1.2l-2.4,10.7C570.1,185,575.2,186.2,576,182.8z"/>
	<path class="st0" d="M564.4,233.8l7.3-32c0.8-3.4-4.4-4.6-5.1-1.2l-7.3,32C558.5,236.1,563.6,237.2,564.4,233.8z"/>
	<path class="st0" d="M529.1,175.7l3-38.9c0.3-4.1-5.9-4.6-6.3-0.5l-3,38.9C522.5,179.3,528.8,179.8,529.1,175.7z"/>
	<path class="st0" d="M611.8,195.4c1.6-4.2,3-8.5,4.4-12.7c8.7-25.7,7.4-17.7,11-30.6c3.4-11.9,4.9-10.5,10.1-29.3
		c1.1-4-5-5.7-6.1-1.7c-1.4,5.1-3.4,11.1-5.5,17c-3.9,7.3-4.5,13.9-7.3,20.6c-5,11.1-8.4,23.2-12.6,34.5
		C604.5,197.1,610.4,199.3,611.8,195.4z"/>
	<path class="st0" d="M533.8,113.6l1-13c0.3-4.1-5.9-4.6-6.3-0.5l-1,13C527.3,117.2,533.5,117.7,533.8,113.6z"/>
	<path class="st0" d="M542.9,316.3c1.4,0.3,2.8-0.6,3.2-2l8.3-36.7c0.3-1.4-0.6-2.8-2-3.2c-1.4-0.3-2.8,0.6-3.2,2l-8.3,36.7
		C540.6,314.6,541.5,316,542.9,316.3z"/>
	<path class="st0" d="M157.3,477.6l155.3,11.9c0.1-2.1,0.3-4.2,0.5-6.3l-155.3-11.9C153.7,471,153.2,477.3,157.3,477.6z"/>
	<path class="st0" d="M555.6,260.6c1.4,0.3,2.8-0.6,3.2-2l3.8-16.7c0.8-3.4-4.4-4.6-5.1-1.2l-3.8,16.7
		C553.3,258.9,554.2,260.3,555.6,260.6z"/>
	<path class="st0" d="M251,270c-0.7,1.3-0.3,2.9,1,3.6c2,1.1,3.6,3,5.3,4.9c6,6.9,8.1,6.4,17.2,15.6c2.4,2.5,6.2-1.2,3.8-3.7
		c-3.6-3.7-7.8-7.3-13-11.3C261.5,276.3,254,264.8,251,270z"/>
	<path class="st0" d="M320.6,293.9c2.8,0.2,4.4-3,2.6-5.2l-8.9-10.3c-2.7-3.1-7.5,0.9-4.8,4.1C319.2,293.7,318.9,293.8,320.6,293.9z
		"/>
	<path class="st0" d="M296.7,266c2.8,0.2,4.4-3,2.6-5.2l-23.6-27.5c-2.7-3.1-7.5,0.9-4.8,4.1C296.5,267.2,294.9,265.8,296.7,266z"/>
	<path class="st0" d="M288.9,304.4c-1,1.1-1,2.7,0.1,3.7l1.3,1.3c13.2,12.7,13.1,12.6,14.1,12.8c2.6,0.6,4.4-2.7,2.4-4.5
		c-4.7-4.3-9.4-8.8-14.1-13.4C291.6,303.3,289.9,303.4,288.9,304.4z"/>
	<path class="st0" d="M254.3,216.6c2.8,0.2,4.4-3,2.6-5.2l-15.1-17.6c-2.7-3.1-7.5,0.9-4.8,4.1C253.5,217.1,252.6,216.5,254.3,216.6
		z"/>
	<path class="st0" d="M168.4,276.9c2.5,1,4.7,2.9,7.1,4.9c8.3,7,10.7,6.1,22.9,15.4c1.4,1,3.4,0.8,4.4-0.6c1-1.4,0.8-3.4-0.6-4.4
		c-4.9-3.7-10.4-7.2-17.2-11c-4.6-2.6-8.3-7.6-14.3-10c-1.6-0.6-3.4,0.2-4.1,1.8S166.8,276.3,168.4,276.9z"/>
	<path class="st0" d="M217.9,311.1l1.8,1.3c18.5,13.2,17.8,12.5,18.8,12.6c3.2,0.2,4.7-3.9,2-5.7c-6.3-4.2-12.6-8.7-18.9-13.3
		c-1.4-1-3.4-0.7-4.4,0.7C216.2,308.1,216.5,310.1,217.9,311.1z"/>
	<path class="st0" d="M199.7,342.5c-0.4,1.4,0.4,2.9,1.8,3.3c3.6,1,7.6,5.2,11.4,6.3c5.6,1.3,13.9,10,15.8,4.7
		c0.5-1.4-0.2-2.9-1.6-3.4c-1.9-0.7-3.6-1.7-5.3-2.8c-8.5-5.3-4.7-1.3-11.9-6.2C206.5,342.1,201,338.4,199.7,342.5z"/>
	<path class="st0" d="M352,197.5c1.8,3.7,7.5,1,5.6-2.8c-4-8.3-8-16.2-12.1-24.5c-1.8-3.7-7.5-1-5.6,2.8
		C344,181.1,348.1,189.3,352,197.5z"/>
	<path class="st0" d="M404.4,303.5c2.4,0.2,4.1-2.3,3.1-4.5c-16.4-34.3-27.3-57.3-39.3-82.4c-1.8-3.7-7.5-1-5.7,2.7
		C405,308.5,401.8,303.3,404.4,303.5z"/>
	<path class="st0" d="M414.5,230.1c1.1,3.3,6.1,1.7,5-1.6c-2.3-7.4-4.7-14.5-7-21.9c-1.1-3.3-6.1-1.7-5,1.6
		C409.8,215.6,412.2,222.9,414.5,230.1z"/>
	<path class="st0" d="M401.9,188.8c0.7,3.4,5.9,2.4,5.2-1.1c-0.7-3.2-1.4-4.9-2.4-6.8c-0.5-0.9-0.9-1.7-0.9-2.2
		c0.8-4.8-9-4.6-3.8,4.8C400.6,184.5,401.3,185.7,401.9,188.8z"/>
	<path class="st0" d="M442.6,321.3c1.7-0.5,3.3-1.1,5-1.5c-9.1-29.7-15.3-49.8-22-71.7c-1-3.3-6.1-1.8-5,1.5
		C435.4,298.2,440.4,315.3,442.6,321.3z"/>
	<path class="st0" d="M330.9,234.1c2.3,0.5,4.1-2,2.8-4l-10.4-16.5c-1.9-3-6.3-0.1-4.5,2.8C330.2,234.4,329.4,233.7,330.9,234.1z"/>
	<path class="st0" d="M330,150.9c1.4,3.9,7.3,1.8,5.9-2.1c-0.7-2.1-1.7-4.5-3.5-6.8c-0.8-1.1-2-2.4-2-3.2c0.2-5.6-11.5-4-3.6,6.3
		C327.8,146.2,328.7,147.4,330,150.9z"/>
	<path class="st0" d="M333.6,310.5l3.3,3.9c2.7,3.1,7.5-0.9,4.8-4.1l-3.3-3.9C335.7,303.2,330.9,307.3,333.6,310.5z"/>
	<path class="st0" d="M427.3,125.3c0.3,1.4,1.5,2.5,2.8,2.6c2.1,0.2,3.7-1.7,3.3-3.7c-1.3-6.7-2.3-12.8-3.3-18.6
		c-0.7-4.1-6.9-3-6.2,1.1C424.9,112.4,426,118.5,427.3,125.3z"/>
</g>
<g>
	<path class="st0" d="M109.7,78.5c-3.5,5.3-5.8,10.9-7.5,17.4c-1.1-0.1-2.6,0.2-3.5-0.5c-1.1-0.8-0.7-2.4,0.1-3.7
		c0.3-0.6,0.4-1.4,0.4-2.2c0-6.9,0-6.9,3.9-11.7c1.7-0.1,3.4-0.2,5.2-0.3C108.4,77.6,108.6,77.9,109.7,78.5z"/>
	<path class="st0" d="M295.8,412.6c0.1-0.5,0-2.1,0.7-3c0.6-0.8,2.1-0.7,3-1.4c1.3-1,2.4-2.3,3.6-3.5c0.7-0.7,1.2-1.7,1.9-2.2
		c0.4-0.3,1.4-0.1,1.8,0.3c0.4,0.4,0.4,1.3,0.6,1.9c0,0.2-0.2,0.5-0.3,0.8c-2,3.7-4,7.5-6.2,11c-0.6,0.9-2,1.7-3,1.7
		C296.5,418.3,295.8,416.3,295.8,412.6z"/>
	<path class="st0" d="M206.8,462.4c2.5-2.4,4.7-4.5,6.5-6.2c2.1,1.3,3.5,2.3,5.2,3.3c-0.7,0.9-1.7,1.9-0.7,3.6
		c0.2,0.4-0.5,2-1.2,2.4c-1.1,0.7-2.5,1.1-3.8,1.1c-1.1,0-2.2-0.8-3.2-1.5C208.7,464.6,208,463.7,206.8,462.4z"/>
	<path class="st0" d="M659.7,439.7c-0.3-1.6-0.3-3.3,1.4-4.2c1.7-0.9,2.8,0.5,3.9,1.5c1.6,1.4,3.1,2.9,4.6,4.4
		c1.4,1.3,1.9,3.6,0.9,4.8c-1.3,1.4-2.8,1-4,0C664.3,444.2,662.2,442.1,659.7,439.7z"/>
	<path class="st0" d="M370.1,818.8c2.6-0.1,4.6-0.9,5.9-0.1c2.2,1.3,4.1,3.3,5.9,5.3c1,1.1,1.2,2.8-0.1,4c-1.2,1.2-2.3,0.9-3.5-0.3
		c-1.8-1.8-3.8-3.3-5.6-5.1C371.8,821.8,371.3,820.6,370.1,818.8z"/>
	<path class="st0" d="M754.8,468.5c-1.9-3.2-1.6-4.6,1.2-5.2c2.5-0.6,4.8-1.3,6.8-3.2c0.9-0.9,2.2-1.3,3.2,0
		c1.1,1.4,0.4,2.7-0.5,3.5c-1.6,1.3-3.2,2.6-5,3.5C758.8,467.8,756.9,468,754.8,468.5z"/>
	<path class="st0" d="M229.3,344.4c-1.6,0.2-3.3,0.8-4.6,0.4c-2-0.7-3.9-0.8-5.8,0c-0.8,0.3-1.9,0.2-2.7-0.1
		c-1.1-0.4-1.3-1.5-0.5-2.6c2.7-3.7,10.7-3.5,13.3,0.4C229.1,342.8,229.1,343.3,229.3,344.4z"/>
	<path class="st0" d="M77.2,513.9c-2.4,3.2-5.1,0.2-7.5,0.8c-1.6-2.4-0.3-4.6,0.1-6.7c0.2-0.7,1.6-1.8,2.1-1.6
		c1.3,0.5,2.7,1.4,3.5,2.6C76.4,510.3,76.7,512.2,77.2,513.9z"/>
	<path class="st0" d="M635,206.2c-2.2-1-4-1.9-6-2.8c1.6-1,2.4-2.6,2.3-5c0-1,1.5-2.1,2.3-3.2c0.8,0.9,1.8,1.8,2.2,2.9
		C637,201,636.7,203.9,635,206.2z"/>
	<path class="st0" d="M176.4,853.2c-1.1,1.1-2.2,2.1-3.2,3.3c-0.9,1.1-1.9,2.2-3,1.2c-1-1-2.1-2.5-2.2-3.9c-0.1-1.1,1-2.8,2-3.4
		C172.2,848.9,174.4,850,176.4,853.2z"/>
	<path class="st0" d="M118.5,165.6c0.1,1.7,0.2,3.2,0.3,4.9c-2,1-3.9,2.2-6.1,2.9c-0.8,0.3-2.1-0.4-2.7-1.1c-0.8-1,0.3-3.9,1.7-4.6
		c1.1-0.5,2.3-0.7,3.5-1.1C116.2,166.3,117.2,166,118.5,165.6z"/>
	<path class="st0" d="M723.7,107.1c2-0.1,3.3,1,3.5,2.8c0.2,2.2-2.5,5-4.8,5c-1.3,0-2.9-1.7-3.1-3.1
		C719.1,109.7,721.4,107.2,723.7,107.1z"/>
	<path class="st0" d="M173.2,914c-2.4,0.1-5,1.2-6.1-2.1c-0.4-1.2-0.1-3.2,0.7-4.1c1.4-1.6,3.3-1,4.8,0.1
		C174.7,909.5,174.2,911.5,173.2,914z"/>
	<path class="st0" d="M426.5,553.5c0.2-2.9,3.2-7.1,5.4-7.4c0.7-0.1,1.7,0.3,2.1,0.9c0.4,0.6,0.3,1.8,0.1,2.5
		C433,552.8,430.2,554.2,426.5,553.5z"/>
	<path class="st0" d="M686.5,930.2c-2.6-0.2-3.4-2-3.7-3.9c-0.2-0.9,0.5-2.6,1.1-2.8c1.6-0.6,3.3-0.8,5.1-0.9c0.5,0,1.3,0.8,1.4,1.3
		c0.1,0.8-0.3,2.2-0.6,2.3C687.6,926.5,687,928.5,686.5,930.2z"/>
	<path class="st0" d="M576.2,42.2c2.6,0.5,4.3-4,7.3-1.1c0.6-1.3,1-2.1,1.7-3.6c1.3,1.3,2.2,2.2,3.8,3.8c-2.4,0.5-4,0.3-5.6,1.3
		c-1.4,0.9-3.6,0.2-4.9,2.3c-1,1.6-2.3,2.9-3.6,4.4c-1.2-2-0.2-2.4,0.6-3.2C576,45.6,575.9,44.1,576.2,42.2z"/>
	<path class="st0" d="M200.6,660c1.9-1.7,3.6-3.3,5.4-4.7c0.8-0.6,2.2-1.2,2.8-0.8c1.3,0.8,0.7,2.3,0.1,3.6c-1,2.5-3.4,4.3-5.6,4.1
		C201.9,662.1,200.7,661.6,200.6,660z"/>
	<path class="st0" d="M954.1,463.8c-3.2,2.4-5-0.6-7.1-2.2c0.5-3.6,1.2-4.6,2.9-4.5C952.6,457.2,953.7,459,954.1,463.8z"/>
	<path class="st0" d="M404.1,998.8c-1.8-4.1-1.8-4.4,1-6.7c1.3-1.1,2.8-2,4.4-3C410,994.4,408.4,997.1,404.1,998.8z"/>
	<path class="st0" d="M434.9,292.9c3.6,2.8,4.1,7.3,1.4,9.3c-1.2,1-2.6,0.7-3-0.6c-0.5-1.7-0.5-3.8-0.3-5.6
		C433.2,294.8,434.3,293.9,434.9,292.9z"/>
	<path class="st0" d="M212.5,774.7c-0.9-1.1-2.1-2.2-2.8-3.6c-0.4-0.9-0.4-2.4,0-3.3c0.7-1.8,2.4-1.6,3.9-1.4
		c1.4,0.2,1.5,1.4,1.6,2.7C215.3,772.1,215,772.9,212.5,774.7z"/>
	<path class="st0" d="M263,957.1c0.6-1.5,1.1-3.2,1.8-4.8c0.7-1.7,1.9-2.7,3.6-1.7c1.8,1,1.1,2.5,0.4,3.9c-0.6,1.2-1.1,2.4-1.9,3.4
		C265.6,959.2,264.2,959.3,263,957.1z"/>
	<path class="st0" d="M978.8,947c-0.7,0.7-1.9,2.5-2.5,2.3c-1.8-0.7-3.4-2.1-5-3.3c-0.2-0.1,0.1-1.5,0.4-2c1.1-1.4,5.7-0.7,6.6,1
		C978.5,945.4,978.5,945.9,978.8,947z"/>
	<path class="st0" d="M435.9,832.5c-0.4,1.8-0.6,3-0.9,4.1c-0.5,1.5-1.3,2.7-3,2.2c-1.7-0.6-2.9-2.3-2.6-4.1c0.2-0.8,1-1.6,1.7-2.2
		c0.4-0.3,1-0.2,1.6-0.2C433.5,832.4,434.5,832.5,435.9,832.5z"/>
	<path class="st0" d="M478.1,268.9c-0.7,2-0.9,3.6-1.7,4.7c-0.5,0.7-1.9,0.9-2.8,0.7c-0.5-0.1-0.9-1.7-0.8-2.5
		c0-1.2,0.6-2.3,0.9-3.4c0.4-1.5,1.4-2.5,2.7-1.9C477.1,266.8,477.6,268.2,478.1,268.9z"/>
	<path class="st0" d="M808.8,205.7c0.9-3.2-0.6-4.8-2.9-6.2c1.4-1.4,2.4-2.5,3.6-3.7c2.1,2,2.3,4.7,2.7,7.1
		C812.4,204.2,811.2,205.5,808.8,205.7z"/>
	<path class="st0" d="M754.1,19.7c-1.5-0.8-2.9-1.5-4.1-2.3c-1.4-1-1.4-2.6-0.1-3.7c1.4-1.2,3.4-1.3,4.5-0.2
		C755.9,15.1,755.8,16.7,754.1,19.7z"/>
	<path class="st0" d="M83.5,189.4c-2.3-5.6-1.7-7.2,3-8C87.9,186.1,87.2,188.1,83.5,189.4z"/>
	<path class="st0" d="M382.2,346.6c-0.5,1.3-0.9,2.5-1.3,3.8c-1.9-1.2-3.8-2.3-5.5-3.5c-0.4-0.3-0.8-1.4-0.6-1.9
		c0.2-0.6,1.1-1.3,1.4-1.2C378.2,344.3,380.6,343.8,382.2,346.6z"/>
	<path class="st0" d="M232.7,167.4c-2.1-0.2-3.7-1.9-3.6-3.6c0.1-1.7,1.5-3.1,3-3c1.5,0.1,2.7,1.6,2.5,3.5
		C234.5,166,233.9,167.3,232.7,167.4z"/>
	<path class="st0" d="M306.6,338.4c0.5-4.9,3.1-7.3,6-6.2c0.5,0.2,1.2,0.9,1.3,1.5c0.1,0.6-0.4,1.5-0.9,1.8
		C311.1,336.5,309.1,337.3,306.6,338.4z"/>
	<path class="st0" d="M133.7,102.4c-0.4-0.5-1.7-1.2-1.9-2.2c-0.4-1.7,2.3-4.5,4-4.2c0.7,0.1,1.6,1.2,1.7,1.9
		C137.7,100,135.8,102.5,133.7,102.4z"/>
	<path class="st0" d="M356.5,89.4c-1.4,0.2-2.6,0.3-3.9,0.5c-0.2,0.9-0.4,1.9-0.7,3.5c-0.9-0.9-1.5-1.7-2.2-1.9
		c-0.6-0.2-1.3,0.5-2.5,1.1c1-4.2,4-4.9,6.3-6.2C354.4,85.9,356.1,86.9,356.5,89.4z"/>
	<path class="st0" d="M715.9,533.7c-2.5,0.5-3.4-1.6-5-3c1-1.4,1.8-2.7,2.7-3.9C716.6,528.6,716.6,528.6,715.9,533.7z"/>
	<path class="st0" d="M986.6,366.1c-2.2-0.3-2.4-2-2.7-3.6c-0.4-1.8,0-3.3,1.5-4.2c0.4-0.2,1.4,0.2,1.7,0.6c1.2,1.7,1.6,3.8,0.9,5.9
		C987.7,365.5,987,365.8,986.6,366.1z"/>
	<path class="st0" d="M767.4,838.9c-1.6,0.1-3.5,1-4.2-1.2c-0.3-1.1,0.3-2.9,1.1-3.9c0.4-0.6,2.1-0.6,2.9-0.1
		C769.1,835.1,767.9,837,767.4,838.9z"/>
	<path class="st0" d="M327.3,818.9c2.4,3.2,2.8,4.8,1.4,5.8c-1.3,1.1-3.5,0.7-4.2-0.8C323.6,822.1,324.3,820.7,327.3,818.9z"/>
	<path class="st0" d="M394,146.8c-0.7-2.3-0.5-4.2,1.3-4.4c1-0.2,2.3,1,3.2,2c0.7,0.7,0.8,2.1,1.5,4.2
		C397.5,147.8,395.8,147.4,394,146.8z"/>
	<path class="st0" d="M435.4,792.9c-2.4,0-4.5-1.8-4.4-3.4c0-1.6,0.9-2.5,2.2-2.6c1.3-0.1,3.5,2.3,3.3,3.8
		C436.4,791.6,435.7,792.4,435.4,792.9z"/>
	<path class="st0" d="M645.3,576.2c4.1-0.2,4.7,0.5,4.3,5.1c-1.2,0.2-2.4,0.5-3.6,0.7C644.3,580.1,644.2,578.2,645.3,576.2z"/>
	<path class="st0" d="M472.3,866.5c0.2-0.8,0.2-1.1,0.3-1.1c2.1,0,4.3,0,6.4,0.2c0.3,0,0.8,1.1,0.7,1.4c-0.4,1-0.9,2.3-1.7,2.8
		c-0.6,0.4-1.8-0.1-2.5-0.6c-0.6-0.4-0.8-1.5-1.4-2C473.7,866.9,473,866.8,472.3,866.5z"/>
	<path class="st0" d="M965.4,146.5c0.6-1.8,1.2-3.6,1.8-5.5c1.9-0.6,3.5-0.3,3.6,2.1c0.1,1.1-0.9,2.6-1.8,3.4c-0.8,0.7-2,0.8-3,1.2
		C965.8,147.2,965.6,146.9,965.4,146.5z"/>
	<path class="st0" d="M988.9,4.2c-1.1,0.3-2.3,0.9-3.4,0.7c-0.9-0.2-1.8-1.2-2.2-2.2c-0.3-0.6,0-2.2,0.4-2.4
		c0.9-0.4,2.1-0.6,2.9-0.1c1.1,0.6,1.9,1.8,2.8,2.8C989.2,3.4,989.1,3.8,988.9,4.2z"/>
	<path class="st0" d="M753.6,93.5c-0.1,1.5-1.6,2.4-3.4,2.3c-1.7-0.2-2.3-1.1-2.2-3c0.2-1.9,1.1-2.6,2.7-2.4
		C752.3,90.5,753.7,92,753.6,93.5z"/>
	<path class="st0" d="M983.4,984.2c-0.1,1.8-1.4,2.2-2.8,2.3c-1.2,0-2.5-0.1-2.7-2c-0.1-1.7,1.2-3.4,2.5-3.6
		C981.9,980.7,983.3,982.2,983.4,984.2z"/>
	<path class="st0" d="M156.5,507.8c-1.7,0.5-2.7,1.1-3.7,1c-0.9-0.1-2.6-0.8-2.6-1.3c0-1.2,0.5-2.7,1.3-3.5c0.5-0.5,2.1-0.2,2.9,0.3
		C155.1,504.9,155.5,506.2,156.5,507.8z"/>
	<path class="st0" d="M532.1,154.4c0-2.5,1.3-3.6,3.1-3.6c1.4,0,3.1,1.6,2.5,2.7c-0.7,1.3-2,2.5-3.2,2.8
		C533.8,156.5,532.7,154.9,532.1,154.4z"/>
	<path class="st0" d="M684.4,663.8c-0.3-0.6-1.1-1.5-1.2-2.4c-0.1-2.1,1.4-4.3,2.6-3.8c0.9,0.4,1.9,1.6,2.3,2.7
		C688.5,661.5,686.4,663.8,684.4,663.8z"/>
	<path class="st0" d="M960.5,555.1c1.8,3.8,1.8,3.8-3.9,7c-0.7-0.8-1.6-1.6-2.3-2.6c-0.2-0.3,0.1-1.1,0.4-1.5c0.1-0.2,0.7-0.3,1-0.1
		C959.1,559.5,959.1,559.6,960.5,555.1z"/>
	<path class="st0" d="M968.9,499.1c-0.3,1.1-0.3,2.2-0.8,2.6c-1.5,1-3,1.9-4.7,2.5c-0.5,0.2-1.3-0.6-2-0.9c0.3-0.6,0.4-1.6,0.8-1.9
		C964.2,500.3,966.1,498.7,968.9,499.1z"/>
	<path class="st0" d="M906.8,786.7c1.3,0.5,2.6,0.8,3.7,1.5c0.7,0.4,1.4,1.6,1.3,2.4c0,0.6-1.1,1.4-1.8,1.7
		c-0.7,0.3-1.6,0.1-2.8,0.1c-0.5-1.8-1-3.5-1.4-5.2C906.1,787,906.4,786.8,906.8,786.7z"/>
	<path class="st0" d="M529.9,411.3c-1.2-2-2.3-3.7-3.2-5.4c-0.6-1.2,0.3-2.6,1.5-2.2c1.1,0.3,2.3,1.1,2.8,2.1
		C532,407.4,532.2,409.4,529.9,411.3z"/>
	<path class="st0" d="M879.9,504.2c2.1-2,4.3-1.5,6.6-0.8c0.3,2.2-0.6,3.3-2.3,3.7C882.4,507.4,880.7,507,879.9,504.2z"/>
	<path class="st0" d="M390.6,11.8c2.8,2.4,2.8,2.4,3.6,8.9c-0.7-0.1-1.7,0-1.7-0.2C391.9,17.7,388.5,15.8,390.6,11.8z"/>
	<path class="st0" d="M365.6,373.3c2.1-4.8,4.5-6.9,7.2-6.6c-0.9,2.9-2.9,4.6-4.7,6.5C367.7,373.7,366.7,373.3,365.6,373.3z"/>
	<path class="st0" d="M870.7,134.5c-0.5-2.5-0.5-4.4,1.3-5.6c1.4-1,2.5-0.5,3.6,1.1C874.6,131.9,873.8,134.4,870.7,134.5z"/>
	<path class="st0" d="M899.9,174.5c-1.8,0-3.9-3.1-3.6-4.6c0-0.1,0.1-0.4,0.2-0.4c0.7-0.3,1.5-0.8,2.1-0.7c1.7,0.5,3,2.6,2.6,4
		C900.9,173.6,900.2,174.1,899.9,174.5z"/>
	<path class="st0" d="M229.4,455.9c-2,1-3.4,1.7-4.8,2.4c0.4,0.6-1.5-0.1-0.6-2.3c0.5-1.1,1.7-2.3,2.6-2.3
		C227.6,453.8,228.5,455.2,229.4,455.9z"/>
	<path class="st0" d="M204.4,77.7c1.9,2.1,1.6,3.4-1.4,7.3c-0.9-0.8-1.8-1.6-3.2-2.8c1.4-0.9,2.3-1.2,2.9-1.8
		C203.4,79.8,203.8,78.8,204.4,77.7z"/>
	<path class="st0" d="M634.1,325.5c-3-0.3-4-1.3-3.7-3.7c0.2-1.7,1.2-2.4,2.6-2C634.6,320.2,635,322,634.1,325.5z"/>
	<path class="st0" d="M673,552.9c-1.8-0.1-2.8-1.5-2.5-3.1c0.2-1.5,0.9-2.6,2.4-2.3c1.3,0.2,2.5,0.4,2.2,2.4
		C674.9,551.4,674.5,552.9,673,552.9z"/>
	<path class="st0" d="M81.9,848.2c1.1,0.4,2.4,0.5,3.3,1.2c0.7,0.5,1,1.9,1,2.9c0,0.4-1.5,1.1-2.2,1C81.2,853,80.8,851.9,81.9,848.2
		z"/>
	<path class="st0" d="M942.2,942.8c-1-0.4-2.2-0.6-2.8-1.4c-0.6-0.8-0.8-2.2-0.7-3.3c0.1-0.7,0.9-1.6,1.5-1.7
		c0.6-0.1,1.7,0.5,1.9,1.2c0.5,1.3,0.6,2.8,0.9,4.3C942.8,942.2,942.5,942.5,942.2,942.8z"/>
	<path class="st0" d="M162.2,775c2.6,0.2,5.1,2.9,5.9,6.1C165.6,779.7,162.1,780,162.2,775z"/>
	<path class="st0" d="M199.4,101c1-0.4,2.2-1.2,3-1c0.7,0.2,1.3,1.7,1.7,2.7c0.2,0.5-0.1,1.8-0.5,1.9c-0.6,0.3-1.5,0.2-2.2-0.1
		c-1-0.4-1.8-1.2-2.7-1.8C199,102.2,199.2,101.6,199.4,101z"/>
	<path class="st0" d="M113.3,996.2c2.8-1.4,4.8,0.5,6.8,0.5c0.1,0,0.5,1.9,0.2,2.3c-0.5,0.6-1.7,1.3-2.3,1
		C116.6,999.1,115.3,997.8,113.3,996.2z"/>
	<path class="st0" d="M256.9,323.6c-2.8-0.5-4.8-0.8-7-1.2c0.4-2.4,1.2-3.3,2.8-3.1C254.7,319.5,256,320.3,256.9,323.6z"/>
	<path class="st0" d="M684.4,145.3c0.3-0.3,0.8-1.2,1.4-1.4c1.2-0.3,3.3,2.5,3,4.2c-0.1,0.7-1,1.7-1.7,1.9
		C685.9,150.3,684.3,147.7,684.4,145.3z"/>
	<path class="st0" d="M347.2,989.3c1.6-2.7,3-5.1,4.3-7.4c0.2,0.1,0.4,0.1,0.6,0.2c-0.1,0.7-0.2,1.4-0.4,2.1
		c-0.2,0.8-0.7,1.6-0.7,2.4C351.2,990.7,351.2,990.7,347.2,989.3z"/>
	<path class="st0" d="M410,742.8c-0.7-1-1.6-1.9-2-3.1c-0.2-0.8,0.1-2,0.6-2.8c0.2-0.4,1.4-0.6,1.7-0.3c0.5,0.4,0.9,1.4,1,2.2
		c0.1,1.2-0.2,2.5-0.3,3.8C410.7,742.7,410.4,742.8,410,742.8z"/>
	<path class="st0" d="M905.8,48.5c-0.4-0.4-1.7-1.1-1.9-2.1c-0.3-1.8,1.2-2.5,2.6-2.7c1.5-0.2,2.3,0.6,2.3,2.3
		C908.8,47.5,907.9,48.4,905.8,48.5z"/>
	<path class="st0" d="M700.3,907.8c-3.4-3.2-3.4-3.3-0.7-6.3C702.7,904.4,702.8,904.8,700.3,907.8z"/>
	<path class="st0" d="M702.4,661.7c1.2-2.3,1.6-4.8,4-5.7c2.2,1.4,0.7,3.1,0.2,4.6C706,662.7,704.5,662.4,702.4,661.7z"/>
	<path class="st0" d="M863.5,88.8c-0.9-2.5-4.8-3.8-2.1-7.5c2,1.4,2.1,3.8,2.8,5.7C864.3,87.4,863.7,88.2,863.5,88.8z"/>
	<path class="st0" d="M193.2,510.9c-1.1-1.8-2-2.7-2.2-3.8c-0.4-1.4,1.1-3.1,2-2.6c0.9,0.5,1.8,1.8,2,2.9
		C195.1,508.2,194.1,509.2,193.2,510.9z"/>
	<path class="st0" d="M390.9,961.7c1.2,1.9,1.6,3.3-0.1,4.5c-1.6,1.1-2.9,0.7-4-1.2c0.2-0.2,0.3-0.5,0.5-0.7
		C388.4,963.4,389.5,962.7,390.9,961.7z"/>
	<path class="st0" d="M219.7,885.6c-1.3-1.9-2.2-3.1-2.8-4.3c-0.1-0.1,1.3-1.7,1.9-1.6c1.2,0.2,2.9,0.4,2.8,2.5
		C221.5,883.1,220.7,884,219.7,885.6z"/>
	<path class="st0" d="M722.7,324.7c0.5-0.6,1.2-2.1,2-2.2c1.6-0.2,1.7,1.6,1.7,3c0,1.3,0.1,3-1.6,3.1
		C722.9,328.7,723,326.9,722.7,324.7z"/>
	<path class="st0" d="M869.5,493.5c0.7,3.3,0.8,6.3-2,9.6C868.6,499.4,865.3,495.8,869.5,493.5z"/>
	<path class="st0" d="M431.2,234.2c-2-1.4-2.8-2.9-1.2-4.7c1-1.2,2.4-0.8,3.1,0.4C434.5,232.2,432.6,233,431.2,234.2z"/>
	<path class="st0" d="M615.5,323c-0.9-1.9-1.7-3.1-1.9-4.3c-0.1-0.5,1-1.8,1.6-1.8c1.5,0.1,2.3,1.4,2.2,3
		C617.2,320.8,616.4,321.5,615.5,323z"/>
	<path class="st0" d="M911.6,766.8c-0.6,1.8-1,3.3-1.7,4.5c-0.3,0.5-1.8,0.9-2,0.6c-0.5-0.6-1-1.9-0.7-2.6
		C907.6,767.6,908.7,766.2,911.6,766.8z"/>
	<path class="st0" d="M844.7,189.4c-0.6,1.6-1.2,3.2-1.8,4.8c-2.3-0.8-2.5-2.4-1.8-3.8c0.4-0.9,1.6-1.4,2.4-2.1
		C844,188.6,844.3,189,844.7,189.4z"/>
	<path class="st0" d="M795.3,14.2c-1.7,2.3-3.2,2.1-4.6,0.5c-0.4-0.6-0.5-2.1-0.2-2.7c0.4-0.6,1.8-0.9,2.3-0.5
		C793.8,12,794.5,13.2,795.3,14.2z"/>
	<path class="st0" d="M590.4,690.4c-0.4,1.9-0.6,3.2-0.9,4.6c-1.9-0.2-3.9,0.1-3.6-2.6C586.1,689.9,588.1,690.6,590.4,690.4z"/>
	<path class="st0" d="M455.1,481.8c0.8-3.2,2.2-4.6,3.6-3.8c0.7,0.4,1.6,2.2,1.4,2.8C459,483.5,457.2,481.2,455.1,481.8z"/>
	<path class="st0" d="M738.7,305.3c1-1.7,2.4-2.3,3.3-0.8c0.6,1,0.2,2.8,0.1,4.2c0,0.1-1.7,0.5-1.9,0.1
		C739.5,307.8,739.1,306.5,738.7,305.3z"/>
	<path class="st0" d="M224.9,817.6c-1.3,3.4-3.5,1.5-5.4,2.1C220.5,815.4,220.7,815.3,224.9,817.6z"/>
	<path class="st0" d="M644.5,856c-0.7,0.8-1.4,1.8-2.2,2.2c-0.6,0.3-1.6-0.1-2.3-0.2c0.3-1,0.3-2.6,0.9-3c0.8-0.6,2.1-0.2,3.2-0.3
		C644.2,855.2,644.4,855.6,644.5,856z"/>
	<path class="st0" d="M113.5,394.4c0.3-1.8,0.4-3.2,0.9-4.3c0.2-0.4,1.7-0.4,2.5-0.1c1.4,0.6,1.5,2,0.2,3c-0.3,0.2-0.7,0.4-1.1,0.6
		C115.5,393.8,114.8,394,113.5,394.4z"/>
	<path class="st0" d="M875,364.2c-1.2,1.2-1.8,2.3-2.4,2.3c-1.3,0.1-2.7-0.6-2.8-2.4c0-0.7,1.1-2,1.5-1.9
		C872.4,362.5,873.4,363.3,875,364.2z"/>
	<path class="st0" d="M837.7,66c2.5-0.6,4.1-0.6,4.5,1.8c0.1,0.6-0.9,2.1-1.5,2.2C838.4,70.2,838.5,68,837.7,66z"/>
	<path class="st0" d="M893.7,461.1c-1.6-1.9-2-3.4-0.8-4.6c1.2-1.3,2.4-0.7,3.7,1.1C895.8,458.7,894.8,459.8,893.7,461.1z"/>
	<path class="st0" d="M986,679c-0.4,1-0.8,2-1.2,3c-2.4-0.9-2.4-0.9-3.4-3.3c1.4-0.3,2.7-0.5,4-0.8C985.6,678.2,985.8,678.6,986,679
		z"/>
	<path class="st0" d="M475.5,238.2c0.1,1.1,0.2,2.2,0.4,3.7c-0.8,0.2-1.6,0.6-2,0.4c-0.8-0.6-1.9-1.7-1.8-2.5
		C472.4,237.9,473.8,237.6,475.5,238.2z"/>
	<path class="st0" d="M915.8,558.4c1.1-0.7,2.2-1.3,3.8-2.3c0.1,2.1,0.2,3.4,0.3,5.3c-1.6-0.6-2.7-1.1-3.9-1.6
		C916,559.3,915.9,558.9,915.8,558.4z"/>
	<path class="st0" d="M352.8,299.4c1.3-2.9,2.8-3.7,5.2-2.4C357.1,300.2,355.4,300.3,352.8,299.4z"/>
	<path class="st0" d="M991,652.8c-0.4-1.7-0.9-3.3-1.2-5c-0.1-0.5,0.6-1.2,0.9-1.8c0.6,0.5,1.6,0.9,1.6,1.5c0.1,1.7-0.1,3.4-0.2,5.2
		C991.7,652.7,991.3,652.8,991,652.8z"/>
	<path class="st0" d="M949.6,33.9c1.1-1,1.7-1.9,2.4-2c1.4-0.3,2.3,0.9,2.1,2.4c-0.1,0.8-1.2,2.2-1.5,2.1
		C951.7,35.9,950.9,35,949.6,33.9z"/>
	<path class="st0" d="M898.9,86.1c1.3,1.6,2.3,2.6,3,3.7c0.2,0.3,0,1.2-0.3,1.6c-0.3,0.3-1,0.5-1.4,0.3
		C898.7,91.2,898.2,89.6,898.9,86.1z"/>
	<path class="st0" d="M717.5,180c1,1.2,2.8,1.9,1.4,4c-0.8,1.2-1.9,0.9-2.7-0.2C714.7,181.7,716.1,181,717.5,180z"/>
	<path class="st0" d="M219.3,586.3c1.2-1,1.8-1.8,2.5-2c1.1-0.4,2.4,0,2.3,1.5c0,0.8-1.2,1.8-2,2.1
		C221.5,588,220.6,587.1,219.3,586.3z"/>
	<path class="st0" d="M77.7,775.5c-1.6,1.3-2.9,2.3-4.2,3.3c-1.4-1.5-1.3-2.6-0.3-3.4C74.3,774.5,75.6,773.3,77.7,775.5z"/>
	<path class="st0" d="M566.8,498.8c-0.8-1.2-1.8-1.9-1.9-2.9c-0.1-0.6,1-1.4,1.5-2.1c0.8,0.9,1.6,1.8,2.2,2.8
		C568.7,496.8,567.7,497.7,566.8,498.8z"/>
	<path class="st0" d="M988.3,593.1c-0.5-1.7-1-3.4-1.5-5.4C990.6,588.5,991,589.5,988.3,593.1z"/>
	<path class="st0" d="M182,644.1c-1.2-0.8-2-1-2-1.3c-0.1-1.9-0.1-3.9-0.1-6.5C183.3,638.5,181.7,641.1,182,644.1z"/>
	<path class="st0" d="M142.5,214.9c-4.2-0.1-4.4-0.5-2.6-3.7C140.8,212.5,141.6,213.7,142.5,214.9z"/>
	<path class="st0" d="M616.3,478.1c-0.8-1.1-1.6-2.2-3.1-4.3c1.9-0.1,3.4-0.6,3.6-0.2c0.6,1.1,0.6,2.5,0.9,3.8
		C617.2,477.6,616.7,477.8,616.3,478.1z"/>
	<path class="st0" d="M878.9,257c-1.5-0.9-2.7-1.8-1.5-3.8c0.3-0.5,1.8-0.7,2.1-0.4C881,254.3,880.4,255.7,878.9,257z"/>
	<path class="st0" d="M990.5,662.6c0.6,3.4-1.9,3.9-2.8,5.7C986,666.2,986,666.2,990.5,662.6z"/>
	<path class="st0" d="M875.8,89.2c1.8-0.9,3.3-1.5,4.1,0.8c0.2,0.5-0.3,1.9-0.8,2.1C877.2,93,876.2,91.8,875.8,89.2z"/>
	<path class="st0" d="M613.3,215.2c2.1,0.6,2.8,1.9,2.2,3.7c-0.1,0.4-1.5,0.8-2,0.5C611.9,218.4,612.2,216.9,613.3,215.2z"/>
	<path class="st0" d="M861.3,333c-1-1.3-1.8-2.2-2.4-3.2c-0.1-0.1,1.2-1.6,1.4-1.5c0.8,0.4,1.7,1.2,2.2,2
		C862.7,330.6,861.9,331.7,861.3,333z"/>
	<path class="st0" d="M252.2,1.8c0.4,2.7-0.8,3.2-2.1,3.2c-1.4-0.1-2-1.3-1.7-3.2C249.6,1.8,250.9,1.8,252.2,1.8z"/>
	<path class="st0" d="M620.8,822.9c-0.3,2.6-1.5,3.2-3.1,2.7c-0.5-0.1-1.1-1.6-0.9-2C617.8,822.1,619.2,822.3,620.8,822.9z"/>
	<path class="st0" d="M620.9,640.7c-0.9-1.2-1.8-2.4-1.7-2.5c0.7-0.9,1.6-1.7,2.6-2.4c0.1-0.1,1.2,1.1,1.1,1.4
		C622.5,638.3,621.8,639.3,620.9,640.7z"/>
	<path class="st0" d="M206.3,679.4c1-0.7,1.6-1.4,2.1-1.4c1.2,0.1,2.6,0.5,2.5,2.2c0,0.6-1.2,1.7-1.6,1.6
		C208.3,681.4,207.5,680.5,206.3,679.4z"/>
	<path class="st0" d="M989.5,769.7c-1.7-1.8-1.7-3.3-0.4-4.6c0.3-0.3,1.7,0,2,0.5C992.3,767.6,990.8,768.4,989.5,769.7z"/>
	<path class="st0" d="M902.3,67.2c-0.6-1.5-1.2-2.4-1.3-3.4c0-0.4,1-1,1.5-1.4c0.5,0.9,1.1,1.8,1.4,2.8
		C904,65.5,903.2,66.1,902.3,67.2z"/>
	<path class="st0" d="M891.1,685.7c0.3-2,0.6-3.7,2.4-3.3c0.5,0.1,1.3,1.7,1.1,2.3C894.1,686.6,892.7,686.1,891.1,685.7z"/>
	<path class="st0" d="M389.9,119.1c-1,1.3-1.8,2.9-3.3,1.5c-0.4-0.4-0.4-2.2,0-2.6C387.8,116.5,388.9,117.2,389.9,119.1z"/>
	<path class="st0" d="M721.9,132.6c0.5,1.8,0.8,3.4-1.3,3.8c-0.5,0.1-1.6-0.7-1.7-1.2C718.8,133,720.1,132.5,721.9,132.6z"/>
	<path class="st0" d="M573.3,483.9c1.4-0.7,2.2-1.4,2.9-1.4c0.5,0,1,1,1.5,1.6c-0.6,0.6-1.1,1.8-1.7,1.8
		C575.3,486,574.6,485,573.3,483.9z"/>
	<path class="st0" d="M526.4,181.5c1.1-1,1.7-1.9,2.2-1.9c0.8,0.1,1.5,0.9,2.2,1.4c-0.6,0.7-1.1,1.8-1.7,1.9
		C528.5,183.1,527.7,182.2,526.4,181.5z"/>
	<path class="st0" d="M261.3,40.1c1.3-0.8,2.4-1.4,3.5-2c1.1,1.6,0.8,2.8-0.3,3.6C263.4,42.6,262.3,42.3,261.3,40.1z"/>
	<path class="st0" d="M76.9,777.4c1.1-0.9,1.8-1.8,2.2-1.7c0.9,0.3,1.6,1.2,2.4,1.8c-0.7,0.6-1.3,1.5-2,1.6
		C78.8,779.1,78,778.2,76.9,777.4z"/>
	<path class="st0" d="M998.4,499.4c-0.8-1-1.7-1.8-1.6-2.2c0.2-0.8,1-1.6,1.7-1.8c0.4-0.1,1.6,1.1,1.5,1.4
		C999.8,497.6,999.1,498.3,998.4,499.4z"/>
	<path class="st0" d="M55.3,896.4c-1.2,0.2-2.4,0.4-3.7,0.6C52.2,893.2,52.5,893.1,55.3,896.4z"/>
	<path class="st0" d="M600.2,992.1c0.7,0.9,1.4,1.9,2.1,2.8c-1,1.9-2.1,1.8-3,0.6C598.4,994.3,598.5,993,600.2,992.1z"/>
	<path class="st0" d="M979.5,617.7c0-0.9-0.2-1.9,0-2.7c0.3-1.1,1.3-1.8,2.1-0.8c0.4,0.4,0.2,1.5,0.1,2.3c-0.1,0.7-0.6,1.4-0.9,2
		C980.5,618.2,980,618,979.5,617.7z"/>
	<path class="st0" d="M849.1,207.9c-1.9,1.2-3.4,2.1-5.4,3.3C845.4,207,846.7,206.2,849.1,207.9z"/>
	<path class="st0" d="M623.2,981.6c-0.9-2.9,0.3-3.6,2.2-4.1C626.1,979.8,625.5,981,623.2,981.6z"/>
	<path class="st0" d="M970.1,694.8c0.6,1.1,1.4,1.8,1.4,2.4c0,0.6-1,1.5-1.5,1.4c-0.5-0.1-1.3-1.1-1.4-1.7
		C968.6,696.4,969.4,695.7,970.1,694.8z"/>
	<path class="st0" d="M467.5,277.3c-0.9,0.9-1.6,2-1.9,1.9c-0.7-0.3-1.4-1.1-1.7-1.8c-0.1-0.4,0.8-1.7,1.3-1.7
		C465.8,275.7,466.5,276.5,467.5,277.3z"/>
	<path class="st0" d="M966.5,966.4c-0.6-2.3,0.3-3.1,1.7-3.5c0.3-0.1,1,0.6,1,1C969.3,965.8,968.2,966.3,966.5,966.4z"/>
	<path class="st0" d="M985.5,570.7c1.8-2.1,3-2,4.2,0.2C988.3,573.1,987.1,572.6,985.5,570.7z"/>
	<path class="st0" d="M751.8,649.1c-0.7-1.1-1.5-1.8-1.4-2.3c0.2-0.8,0.9-1.4,1.5-2.1c0.6,0.6,1.6,1.2,1.6,1.9
		C753.5,647.3,752.6,648,751.8,649.1z"/>
	<path class="st0" d="M540.9,273.9c0.6,1.2,1.4,2.1,1.2,2.5c-0.3,0.7-1.1,1.5-1.9,1.6c-0.4,0.1-1.5-1.3-1.3-1.7
		C539.2,275.5,540,274.9,540.9,273.9z"/>
	<path class="st0" d="M451.3,303.7c0.6-0.2,1.3-0.8,1.7-0.7c0.9,0.4,1.6,1.2,2.3,1.8c-0.4,0.5-0.8,1.6-1.1,1.5
		c-0.9-0.2-1.7-0.8-2.5-1.3C451.6,304.6,451.5,304.2,451.3,303.7z"/>
	<path class="st0" d="M778.1,901.2c0.3-0.7,0.4-1.1,0.6-1.2c1-0.6,2-1.8,3.1-0.2c0.2,0.3,0.2,1.4-0.1,1.6
		C780.5,902.6,779.3,902.6,778.1,901.2z"/>
	<path class="st0" d="M941.6,770.6c-0.9-1-1.1-1.1-1.1-1.2c-0.4-1.3-0.8-2.7,0.7-3.3c0.3-0.1,1.3,0.5,1.2,0.7
		C942.4,767.8,942,768.9,941.6,770.6z"/>
	<path class="st0" d="M522.3,270.5c2,1.2,2.3,2.3,1.2,3.8c-0.3,0.4-1.1,0.7-1.3,0.5C520.5,273.5,521.6,272.2,522.3,270.5z"/>
	<path class="st0" d="M983.2,861.4c1.4,1.7,1.1,2.9,0.1,3.8c-0.5,0.5-1.4,0.4-2.2,0.6c-0.2-0.3-0.4-0.7-0.6-1
		C981.4,863.7,982.2,862.6,983.2,861.4z"/>
	<path class="st0" d="M979.8,199.5c-0.8-1.2-1.5-1.9-1.7-2.7c-0.1-0.4,0.7-1.1,1-1.6c0.6,0.6,1.3,1.2,1.7,2
		C981,197.4,980.4,198.2,979.8,199.5z"/>
	<path class="st0" d="M913.7,791.5c0.9-0.9,1.4-1.8,1.7-1.7c0.7,0.2,1.4,0.9,2,1.3c-0.3,0.6-0.7,1.6-1,1.6
		C915.7,792.7,914.9,792.1,913.7,791.5z"/>
	<path class="st0" d="M62.5,784.1c-1.1,0.7-2.3,1.4-3.6,2.3c-0.7-1.8,0.3-2.9,1.3-3.6c0.6-0.3,1.5,0.2,2.3,0.3
		C62.6,783.5,62.5,783.8,62.5,784.1z"/>
	<path class="st0" d="M921.1,288.9c-0.9,0.6-1.6,1.4-1.8,1.2c-0.6-0.4-1.2-1.2-1.5-2c-0.1-0.2,1-1.4,1.2-1.3
		C919.7,287.3,920.3,288,921.1,288.9z"/>
	<path class="st0" d="M787.6,707.4c-0.6-1-1.3-1.7-1.3-2.3c0-0.5,0.9-1.5,1.2-1.4c0.6,0.2,1.4,0.9,1.6,1.5
		C789.3,705.7,788.4,706.4,787.6,707.4z"/>
	<path class="st0" d="M791.3,390c2.8,0.5,2.5,2.1,1.6,4.3C790.7,393.5,790.9,392,791.3,390z"/>
	<path class="st0" d="M86.3,935.4c0.2-1.3,0.5-2.6,0.8-4.4c2,2,1.4,3.4,0.4,4.7C87.1,935.6,86.7,935.5,86.3,935.4z"/>
	<path class="st0" d="M400.8,746.7c0.9-0.8,1.8-1.8,2-1.7c0.6,0.4,1.3,1.3,1.4,2.1c0.1,0.4-1,1.7-1.3,1.5
		C402.2,748.4,401.7,747.5,400.8,746.7z"/>
	<path class="st0" d="M643.6,224.8c-0.2,1.9-0.8,3-2.3,2.6c-0.4-0.1-0.8-1.3-0.7-1.8C641.2,223.8,642.2,223.7,643.6,224.8z"/>
	<path class="st0" d="M980,244.3c-1.5,0.3-3.1,0.7-5.3,1.1c1.6-3.1,3.8-1.4,5.1-3C979.8,243.1,979.9,243.7,980,244.3z"/>
	<path class="st0" d="M752.5,305.7c1.2-1.5,2.2-2.3,3.5-0.8c0.3,0.3,0.3,1.3,0.1,1.6C754.8,308,753.7,307.4,752.5,305.7z"/>
	<path class="st0" d="M898.1,203.5c-1,0.9-1.5,1.6-2.2,1.9c-0.2,0.1-1.1-0.8-1.2-1.4c-0.3-1.3,0.4-2,1.5-1.9
		C896.7,202.2,897.1,202.8,898.1,203.5z"/>
	<path class="st0" d="M497.8,4.6c-0.7,0.7-1.4,1.6-1.5,1.5c-0.6-0.4-1.2-1.1-1.5-1.8c-0.1-0.3,0.7-1,1-1.5
		C496.4,3.3,496.9,3.8,497.8,4.6z"/>
	<path class="st0" d="M916.5,376.9c-1.8,0.2-2.7-0.4-2.4-2.2c0.1-0.4,0.7-1.1,1.1-1C916.7,373.9,916.9,375.1,916.5,376.9z"/>
	<path class="st0" d="M613.4,475c-0.9,0.6-1.8,1.3-2.7,2c-0.2-0.2-0.5-0.3-0.7-0.5c0.2-0.9,0.2-2,0.7-2.6
		C611.6,472.9,612.6,473.2,613.4,475z"/>
	<path class="st0" d="M588.8,683.7c-0.8-2.7-0.3-3.7,1.2-3.8c0.4,0,0.9,0.8,1.4,1.2C590.6,681.8,589.9,682.6,588.8,683.7z"/>
	<path class="st0" d="M318.4,225.5c-0.9-0.3-1.7-0.5-2.5-0.9c-0.1,0,0-1.3,0.4-1.5c1.4-1,2.1,0,2.7,1.2
		C318.8,224.6,318.6,225.1,318.4,225.5z"/>
	<path class="st0" d="M658.1,981.2c-0.7-0.9-1.5-1.5-1.5-2.1c0-0.6,0.8-1.2,1.3-1.8c0.5,0.5,1.4,1,1.5,1.6
		C659.4,979.4,658.7,980.2,658.1,981.2z"/>
	<path class="st0" d="M297.5,474.2c-0.8,0.8-1.3,1.3-1.8,1.9c-0.5-0.6-1.1-1.1-1.3-1.8c-0.1-0.4,0.7-1.5,1-1.5
		C296,472.9,296.5,473.6,297.5,474.2z"/>
	<path class="st0" d="M205,22.2c-0.6,0.9-1.1,1.6-1.6,2.2c-0.5-0.6-1.4-1.1-1.4-1.7c0-0.6,0.7-1.4,1.3-1.7
		C203.6,20.9,204.3,21.7,205,22.2z"/>
	<path class="st0" d="M145.2,424.4c-0.7-1.1-1.3-1.8-1.6-2.7c-0.1-0.1,0.8-0.8,1.3-1.2c0.5,0.7,1.1,1.4,1.5,2.3
		C146.4,423,145.8,423.6,145.2,424.4z"/>
	<path class="st0" d="M130.9,80c-1.6,3.5-3.1,1.5-4.7,0.2C127.6,80.2,129.1,80.1,130.9,80z"/>
	<path class="st0" d="M780.7,68.7c0.4-2.9,0.4-2.9,3.2-2C783.5,68.9,782.1,68.7,780.7,68.7z"/>
	<path class="st0" d="M159,542.7c-0.9,0.8-1.5,1.4-2.1,1.6c-0.2,0.1-1.1-1.1-1-1.5c0.1-0.5,0.8-1.2,1.3-1.3
		C157.6,541.4,158.2,542.1,159,542.7z"/>
	<path class="st0" d="M600.9,905.8c0.6,1,1.3,1.7,1.2,2.3c-0.1,0.6-1,1.3-1.5,1.3c-0.4,0-1.3-1.1-1.2-1.5
		C599.5,907.2,600.2,906.7,600.9,905.8z"/>
	<path class="st0" d="M218.7,492.4c-0.6-1.2-1.4-2-1.2-2.4c0.2-0.7,1.1-1,1.6-1.6c0.4,0.6,1,1.2,1,1.6
		C220,490.7,219.4,491.3,218.7,492.4z"/>
	<path class="st0" d="M930.1,953c-0.7-1-1.6-1.7-1.5-2.1c0.2-0.7,0.9-1.3,1.6-1.5c0.2-0.1,1.2,0.9,1.1,1.3
		C931.4,951.3,930.8,951.9,930.1,953z"/>
	<path class="st0" d="M958.1,703.9c0.6-1.6,1.6-1.9,2.7-1.2c0.3,0.2,0.4,1.3,0.2,1.5C960.1,705.3,959.2,705.3,958.1,703.9z"/>
	<path class="st0" d="M471.4,634.5c1-0.3,2-0.6,3.4-1c-0.7,2.9-1.8,2.9-3,2.5C471.7,635.5,471.5,635,471.4,634.5z"/>
	<path class="st0" d="M454.8,109.8c-0.8,0.6-1.3,1.4-1.7,1.3c-0.5-0.1-1.2-0.8-1.3-1.4c-0.1-0.5,0.6-1.1,0.9-1.7
		C453.3,108.6,453.9,109.1,454.8,109.8z"/>
	<path class="st0" d="M812,791.8c-0.8,1.6-1.9,2-3.2,0.8c-0.2-0.2-0.1-1.3,0.1-1.5C810.1,789.8,811.2,790,812,791.8z"/>
	<path class="st0" d="M880.3,127.2c-1.4,1.2-2.4,1.2-3.1-0.4c-0.1-0.3,0-1.1,0.2-1.2C878.7,124.8,879.6,125.3,880.3,127.2z"/>
	<path class="st0" d="M772.9,617.8c-1.4,0-2.3-0.5-1.9-2.1c0.1-0.4,1.2-1,1.5-0.9C773.9,615.5,773.4,616.7,772.9,617.8z"/>
	<path class="st0" d="M931.7,117.7c-0.7,0.8-1.2,1.8-1.4,1.7c-0.6-0.2-1.3-0.8-1.6-1.5c-0.1-0.2,0.6-1.5,0.9-1.5
		C930.2,116.5,930.8,117.1,931.7,117.7z"/>
	<path class="st0" d="M179.3,29c0.2-2.2,1-3.1,2.5-2.5c0.4,0.1,0.9,1,0.8,1.3C182,29.5,180.8,29.2,179.3,29z"/>
	<path class="st0" d="M962.2,567.4c0.4-1.6,0.8-2.8,2.4-2c0.3,0.2,0.7,1.1,0.6,1.5C964.5,568.5,963.5,568.3,962.2,567.4z"/>
	<path class="st0" d="M577.7,681.4c1.2,0.8,2.1,1.5,3.2,2.3C578.4,685.2,578.2,685,577.7,681.4z"/>
	<path class="st0" d="M706.1,336.9c1.6-1.2,2.5-0.6,3.1,0.8c0.1,0.3-0.3,1.2-0.7,1.4C706.9,339.7,706.4,338.6,706.1,336.9z"/>
	<path class="st0" d="M779.2,816.3c1.3,0.5,2.3,1.1,1.8,2.8c-0.1,0.3-1,0.6-1.3,0.4C778.2,818.8,778.2,817.7,779.2,816.3z"/>
	<path class="st0" d="M862.6,358.7c-0.6-1.1-1.4-1.8-1.3-2.3c0.2-0.7,1-1.2,1.5-1.7c0.4,0.6,1.2,1.2,1.2,1.9
		C864.1,357.1,863.4,357.7,862.6,358.7z"/>
	<path class="st0" d="M796.3,710.9c-0.7-1-1.3-1.6-1.5-2.4c-0.1-0.4,0.6-1.1,1-1.6c0.5,0.6,1.3,1.1,1.5,1.8
		C797.4,709.1,796.8,709.9,796.3,710.9z"/>
	<path class="st0" d="M400.7,837.5c-0.2-1.3-0.5-2.6-0.8-4.6c2.5,1.5,2.8,2.8,2,4.5C401.5,837.4,401.1,837.5,400.7,837.5z"/>
	<path class="st0" d="M91.1,223.2c-0.9,1.5-1.8,2.1-3,0.9c-0.2-0.3-0.1-1.5,0.2-1.8C89.6,221,90.3,222,91.1,223.2z"/>
	<path class="st0" d="M850,368.1c-0.5-0.8-1.2-1.5-1.1-1.8c0.2-0.7,0.9-1.3,1.4-1.9c0.5,0.6,1.4,1.2,1.3,1.7
		C851.5,366.8,850.7,367.3,850,368.1z"/>
	<path class="st0" d="M829.3,508.4c-0.6-1.1-1.1-1.7-1.2-2.5c0-0.3,1.1-1.2,1.3-1.1c0.6,0.4,1.1,1.1,1.2,1.8
		C830.7,507,829.9,507.6,829.3,508.4z"/>
	<path class="st0" d="M497.9,650.5c1.6,2.1,1.6,3.1,0.3,3.8c-0.3,0.2-0.9-0.2-1.4-0.3C497.1,653,497.4,652.1,497.9,650.5z"/>
	<path class="st0" d="M693.8,377.4c-0.5-1-1-1.6-0.9-2.1c0.1-0.5,0.7-0.9,1.2-1.3c0.4,0.5,1,1.1,1,1.6
		C695.1,376,694.5,376.6,693.8,377.4z"/>
	<path class="st0" d="M213.1,72.3c-0.7,0.8-1.2,1.8-1.4,1.8c-0.6-0.2-1.1-0.9-1.7-1.4c0.4-0.5,0.8-1.2,1.3-1.4
		C211.7,71.2,212.3,71.8,213.1,72.3z"/>
	<path class="st0" d="M716.1,107.5c0.2,1.6,0.3,2.6,0.4,3.6c-0.6,0-1.4,0.3-1.7,0C713.8,110.1,714.1,109,716.1,107.5z"/>
	<path class="st0" d="M893.2,307.1c1.9,0,2.9,0,4.6,0C896.1,308.8,895.1,309.7,893.2,307.1z"/>
	<path class="st0" d="M53.4,43.9c-0.6-0.7-1.1-1.1-1.5-1.6c0.5-0.4,0.9-1.1,1.4-1.1c0.5,0,1,0.7,1.5,1
		C54.3,42.8,53.9,43.2,53.4,43.9z"/>
	<path class="st0" d="M201.3,168c-0.8-0.7-1.3-1.1-1.8-1.5c0.4-0.6,0.8-1.4,1.4-1.8c0.2-0.2,1.4,0.6,1.3,1
		C202.3,166.4,201.7,167,201.3,168z"/>
	<path class="st0" d="M353.3,981.3c-2.3-1.2-2.6-2.2-1.9-3.4c0.2-0.3,0.9-0.2,1.3-0.3C352.8,978.5,353,979.5,353.3,981.3z"/>
	<path class="st0" d="M882.6,143.1c-0.2-1.7-0.3-2.7-0.5-3.7c0.5-0.1,1.1-0.4,1.4-0.2C884.5,140.2,884.5,141.2,882.6,143.1z"/>
	<path class="st0" d="M104.7,804.1c-0.6-1-1.2-1.6-1.3-2.3c-0.1-0.4,0.7-0.9,1.1-1.4c0.5,0.6,1.2,1,1.4,1.7
		C105.9,802.5,105.3,803.2,104.7,804.1z"/>
	<path class="st0" d="M168.8,102.5c-1.8-0.2-2.9-0.2-4.2-0.3c0.5-1.9,1.3-2.5,2.5-2.1C167.6,100.2,167.9,101.2,168.8,102.5z"/>
	<path class="st0" d="M718.4,761.7c-0.6-1-1.2-1.6-1.3-2.2c0-0.3,1-1.2,1.3-1.1c0.5,0.2,1.1,1,1.3,1.6
		C719.8,760.3,719,760.9,718.4,761.7z"/>
	<path class="st0" d="M15.4,885.9c-0.6-0.9-1.2-1.4-1.2-1.9c0-0.5,0.6-1.1,0.9-1.6c0.4,0.5,1.1,0.9,1.2,1.4
		C16.4,884.3,15.8,884.9,15.4,885.9z"/>
	<path class="st0" d="M816.3,98.4c-0.2,2.3-0.3,3.5-0.5,5.3C813.8,101.7,813.9,100.3,816.3,98.4z"/>
	<path class="st0" d="M484.7,850.7c-1.5-0.6-1.9-1.4-1.1-2.7c0.2-0.3,1.1-0.5,1.3-0.3C485.9,848.7,485.4,849.7,484.7,850.7z"/>
	<path class="st0" d="M770.5,153.9c1.4-1.1,2.2-1.7,3.1-2.5c0.3,0.7,0.6,1.2,0.6,1.5C773.8,155,772.8,155.2,770.5,153.9z"/>
	<path class="st0" d="M778.5,337.2c-0.6-1.2-1-2-1.3-2.8c0-0.1,1-0.9,1.1-0.8c0.6,0.6,1.1,1.3,1.4,2.1
		C779.8,335.8,779.1,336.4,778.5,337.2z"/>
	<path class="st0" d="M597.9,743.8c-0.6-0.7-1.1-1.1-1.5-1.6c0.4-0.4,0.8-1.1,1-1.1c0.5,0.1,1,0.6,1.4,1.1
		C598.9,742.4,598.4,743.1,597.9,743.8z"/>
	<path class="st0" d="M903.7,117c-0.1-2.2,0.8-2.6,2-2.5c0.2,0,0.6,0.7,0.6,1C906,117.2,905,117,903.7,117z"/>
	<path class="st0" d="M895.9,114.5c0.7,0.9,1.3,1.4,1.5,2.1c0.1,0.3-0.8,1.4-1,1.3c-0.6-0.3-1.3-0.8-1.6-1.4
		C894.6,116.2,895.3,115.4,895.9,114.5z"/>
	<path class="st0" d="M483,622.3c-0.5-0.8-0.9-1.3-1.2-1.8c0.5-0.4,1-1.1,1.4-1c0.4,0.1,0.8,0.9,1,1.6
		C484.3,621.2,483.6,621.7,483,622.3z"/>
	<path class="st0" d="M547.5,584.8c-0.7,0.6-1.1,1.3-1.6,1.3c-0.5,0-0.9-0.7-1.4-1.1c0.5-0.6,0.9-1.3,1.4-1.6
		C546.2,583.3,546.8,584.1,547.5,584.8z"/>
	<path class="st0" d="M955,519.5c-0.7-0.8-1.5-1.5-2.5-2.6C955,516,955.8,516.8,955,519.5z"/>
	<path class="st0" d="M271.6,611.3c0,1.6,0,2.6,0,3.5c-0.5,0.1-0.8,0.3-1,0.1C269.1,613.6,269.4,612.6,271.6,611.3z"/>
	<path class="st0" d="M262.3,255.4c-0.6-0.7-1.2-1.2-1.2-1.5c0.2-0.7,0.7-1.3,1.1-2c0.3,0.4,1,0.8,1,1.2
		C263.1,253.8,262.7,254.4,262.3,255.4z"/>
	<path class="st0" d="M229,605.8c-0.7-0.9-1.2-1.5-1.5-2.2c-0.1-0.1,0.8-1.1,0.9-1c0.6,0.4,1.2,0.9,1.5,1.5
		C230,604.2,229.4,604.9,229,605.8z"/>
	<path class="st0" d="M200.4,109.3c-0.8,0.6-1.3,1.3-1.7,1.3c-0.5,0-0.9-0.8-1.3-1.3c0.4-0.5,0.8-1.3,1.4-1.4
		C199.1,107.8,199.7,108.6,200.4,109.3z"/>
	<path class="st0" d="M185.3,35.5c-0.7-0.7-1.5-1.4-2.2-2.1c0.2-0.3,0.5-0.7,0.7-1c0.8,0.6,1.6,1.2,2.4,1.8
		C185.9,34.6,185.6,35,185.3,35.5z"/>
	<path class="st0" d="M679.1,5.8c-0.8-0.9-1.5-1.4-1.5-1.9c0-0.5,0.6-1.1,1.1-1.4c0.1-0.1,0.9,0.6,1,1
		C679.8,4.1,679.4,4.7,679.1,5.8z"/>
	<path class="st0" d="M794.2,901.5c-0.7-0.9-1.1-1.4-1.5-1.9c0.4-0.4,0.8-1,1.4-1.2c0.3-0.1,1.1,0.6,1,0.9
		C795.1,900,794.7,900.5,794.2,901.5z"/>
	<path class="st0" d="M724.1,356.2c-0.7,0.6-1.2,1.4-1.6,1.4c-0.4,0-1.1-0.9-1.1-1.4c0.1-0.6,0.7-1.1,1.1-1.6
		C723,355.1,723.4,355.5,724.1,356.2z"/>
	<path class="st0" d="M516.8,911c-0.6-1-1.1-1.6-1.3-2.3c-0.1-0.2,0.9-1,1-0.9c0.5,0.5,1.1,1,1.4,1.7
		C517.9,909.6,517.3,910.2,516.8,911z"/>
	<path class="st0" d="M511.7,296c0.6-0.6,0.9-1.3,1.2-1.2c0.5,0.1,1,0.6,1.5,0.9c-0.3,0.5-0.6,1.4-0.9,1.4
		C513.1,297.2,512.5,296.6,511.7,296z"/>
	<path class="st0" d="M925.1,774.1c-0.3-0.7-0.8-1.3-0.9-2.1c0-0.2,1-0.9,1.1-0.8c0.5,0.5,1,1.2,1.2,1.9c0.1,0.5-0.2,1.1-0.4,1.7
		C925.8,774.5,925.4,774.3,925.1,774.1z"/>
	<path class="st0" d="M995.2,659.7c-0.8,0.9-1.6,1.6-3.7,0.3c1.6-0.7,2.5-1.1,3.4-1.5C995,659,995.1,659.4,995.2,659.7z"/>
	<path class="st0" d="M849.8,67.2c0.8-0.5,1.4-1.2,1.7-1c0.4,0.2,0.9,1,0.9,1.6c0,0.4-0.9,1.3-1.1,1.2
		C850.8,68.7,850.5,68,849.8,67.2z"/>
	<path class="st0" d="M789,494.2c0.8-0.6,1.3-1.1,1.9-1.2c0.2,0,0.6,0.7,0.9,1.2c-0.4,0.4-0.8,1-1.4,1.2
		C790.1,495.4,789.6,494.7,789,494.2z"/>
	<path class="st0" d="M849,414.3c0.7-0.4,1.4-0.9,2.3-1.4C851.2,415,851.2,415,849,414.3z"/>
	<path class="st0" d="M24.7,661.5c-0.5-0.6-1.1-1.2-1.6-1.8c0.5-0.4,1-0.8,1.4-1.2c0.3,0.8,0.7,1.6,1,2.3
		C25.3,661.1,25,661.3,24.7,661.5z"/>
	<path class="st0" d="M19.9,705.4c0.2,1,0.5,2,0.8,3.2C18.6,707.8,18.6,707.8,19.9,705.4z"/>
	<path class="st0" d="M982.5,594.6c-0.7-0.9-1.3-1.5-1.6-2.2c-0.1-0.2,0.6-0.8,0.9-1.2c0.5,0.5,1.1,1,1.5,1.6
		C983.5,593,982.9,593.7,982.5,594.6z"/>
	<path class="st0" d="M287.5,37.5c-0.7-0.7-1.3-1.1-1.3-1.4c0-0.6,0.5-1.1,0.8-1.6c0.4,0.4,0.9,0.7,1,1.1
		C288.1,36.1,287.8,36.6,287.5,37.5z"/>
	<path class="st0" d="M953.6,436.1c-0.3-1.4-0.5-2.4-0.8-3.8C954.8,433.7,954.8,433.7,953.6,436.1z"/>
	<path class="st0" d="M691.2,516.7c-0.6,0.4-1.2,0.8-1.8,1.2c-0.2-0.5-0.4-1-0.7-1.5c0.7-0.4,1.3-0.7,2-1.1
		C690.9,515.8,691,516.2,691.2,516.7z"/>
	<path class="st0" d="M115.9,592.3c-0.9-0.4-1.8-0.8-3.4-1.6C114.9,590.4,114.9,590.4,115.9,592.3z"/>
	<path class="st0" d="M877.6,53.1c-0.4-0.9-0.7-1.5-0.8-2.1c0-0.2,0.9-0.8,1.1-0.7c0.4,0.3,0.8,0.9,0.9,1.5
		C878.8,52.1,878.2,52.5,877.6,53.1z"/>
	<path class="st0" d="M597.6,308.4c-0.8,0.8-1.2,1.4-1.7,1.6c-0.2,0.1-1-0.7-0.9-1.1c0-0.4,0.5-1,0.9-1.2
		C596.2,307.6,596.7,308,597.6,308.4z"/>
	<path class="st0" d="M894.3,960.3c-0.4-0.9-0.9-1.4-0.9-2c0-0.3,0.8-1,0.9-0.9c0.5,0.4,0.9,0.9,1.1,1.4
		C895.5,959.1,894.8,959.6,894.3,960.3z"/>
	<path class="st0" d="M94.9,511.2c-0.5-0.8-0.8-1.3-1.2-1.9c0.5-0.3,0.9-0.7,1.4-1c0.3,0.5,0.8,1,0.8,1.6
		C96,510.2,95.4,510.6,94.9,511.2z"/>
	<path class="st0" d="M959.3,260.2c0.7-0.6,1.1-1.2,1.4-1.1c0.5,0.1,0.9,0.7,1.3,1.1c-0.3,0.4-0.7,1.2-1,1.1
		C960.6,261.3,960.1,260.7,959.3,260.2z"/>
	<path class="st0" d="M612,439.6c-0.4-0.8-1-1.4-0.9-1.6c0.3-0.5,0.8-0.9,1.4-1.2c0.1-0.1,0.8,0.8,0.8,1.1
		C613.1,438.4,612.6,438.9,612,439.6z"/>
	<path class="st0" d="M206.1,805.6c-0.7-0.8-1.2-1.2-1.4-1.7c-0.1-0.3,0.7-1.2,0.9-1.2c0.5,0.2,1.1,0.7,1.4,1.2
		C207.1,804.2,206.6,804.8,206.1,805.6z"/>
	<path class="st0" d="M397.3,558.7c0.7-0.5,1.3-1,1.5-0.9c0.5,0.3,0.8,1,1.1,1.5c-0.4,0.3-0.8,1-1,0.9
		C398.4,559.9,398,559.4,397.3,558.7z"/>
	<path class="st0" d="M203.5,16.1c-0.2-0.7-0.5-1.4-0.7-2.1c0-0.1,0.9-0.5,0.9-0.5c0.4,0.7,0.7,1.4,1,2.1
		C204.2,15.8,203.9,15.9,203.5,16.1z"/>
	<path class="st0" d="M39.4,807.3c0.8-0.5,1.4-0.9,1.9-1c0.3,0,0.6,0.8,1,1.2c-0.5,0.4-1,1-1.5,1.1C40.4,808.7,40,808,39.4,807.3z"
		/>
	<path class="st0" d="M34.5,13.9c-0.3,1-0.6,2-1.1,3.9c-1.3-2.4-1.2-3.5,0.1-4.3C33.8,13.6,34.1,13.8,34.5,13.9z"/>
	<path class="st0" d="M286.9,605.6c-0.5-1-0.9-1.5-1-2.1c0-0.3,0.7-0.9,1-0.9c0.4,0,1.1,0.6,1,0.9
		C287.9,604.1,287.4,604.6,286.9,605.6z"/>
	<path class="st0" d="M266.8,603c-0.7-0.1-1.5-0.1-2.2-0.3c-0.1,0,0-1,0.1-1.5c0.8,0.1,1.5,0.2,2.3,0.4
		C266.9,602,266.9,602.5,266.8,603z"/>
	<path class="st0" d="M996.6,817.4c-3.1,0.8-2.8-0.7-2.8-3.3C995,815.6,995.6,816.3,996.6,817.4z"/>
	<path class="st0" d="M309.7,706.8c0.7-0.7,1.2-1.3,1.4-1.3c0.5,0.2,0.9,0.7,1.3,1.2c0,0-0.4,0.9-0.6,0.8
		C311.1,707.5,310.6,707.2,309.7,706.8z"/>
	<path class="st0" d="M946.6,383.2c-0.2,0.7-0.5,1.4-0.8,2.1c0,0-0.9-0.3-0.9-0.4c0.1-0.7,0.3-1.4,0.5-2.1
		C945.8,383,946.2,383.1,946.6,383.2z"/>
	<path class="st0" d="M285.3,5.5c-1.8,2-2.8,1.3-3.8-0.6C282.7,5,283.8,5.2,285.3,5.5z"/>
	<path class="st0" d="M261,840c-0.7-0.4-1.4-0.8-2-1.2c0.2-0.5,0.4-0.9,0.7-1.4c0.6,0.5,1.3,1,1.9,1.5
		C261.4,839.3,261.2,839.6,261,840z"/>
	<path class="st0" d="M540.7,324.7c1.2-0.6,1.8-1.1,2.4-1.1c0.4,0,1.1,0.8,1,1.1c-0.1,0.5-0.6,1.1-1.1,1.4
		C542.8,326.2,542.3,325.6,540.7,324.7z"/>
	<path class="st0" d="M136.2,723.4c0.6-0.6,1.1-1.3,1.3-1.2c0.5,0.2,0.9,0.7,1.2,1.2c0.1,0.1-0.6,1.1-0.8,1
		C137.5,724.3,137,723.8,136.2,723.4z"/>
	<path class="st0" d="M912.5,481.2c0.6-0.5,1-1.1,1.3-1c0.4,0.1,1,0.7,1,1.2c0,0.4-0.6,1.1-0.9,1.1
		C913.5,482.4,913.1,481.8,912.5,481.2z"/>
	<path class="st0" d="M635.5,402.5c-0.7,0.4-1.3,1-1.5,0.9c-0.5-0.3-0.8-0.9-1-1.5c0-0.1,0.7-1,0.9-0.9
		C634.4,401.3,634.8,401.8,635.5,402.5z"/>
	<path class="st0" d="M629.7,113.7c0.7,0.2,1.4,0.4,2.1,0.6c-0.1,0.4-0.3,1.1-0.4,1.1c-0.7-0.1-1.3-0.3-2-0.5
		C629.5,114.4,629.6,114,629.7,113.7z"/>
	<path class="st0" d="M233,13.4c-0.9-1.4-1.4-1.8-1.4-2.2c0-0.4,0.7-1.1,0.8-1c0.5,0.3,1.1,0.7,1.2,1.2
		C233.7,11.8,233.3,12.4,233,13.4z"/>
	<path class="st0" d="M616,453.9c-0.7,0.4-1.3,1-1.5,0.9c-0.4-0.3-0.7-0.9-1-1.4c0.4-0.2,0.8-0.6,1.2-0.6
		C615.1,452.7,615.4,453.3,616,453.9z"/>
	<path class="st0" d="M109.4,605.2c0.4-0.2,0.9-0.5,1.3-0.5c0.2,0,0.6,0.7,0.5,1c-0.1,0.4-0.6,1-0.9,1c-0.5,0-1-0.4-1.4-0.6
		C109.1,605.9,109.2,605.5,109.4,605.2z"/>
	<path class="st0" d="M942.3,956.7c-0.7,0.6-1.2,1-1.6,1.2c-0.1,0.1-0.7-0.7-0.7-0.8c0.2-0.6,0.6-1.1,1-1.6
		C941.3,955.8,941.7,956.1,942.3,956.7z"/>
	<path class="st0" d="M547.1,805.5c-0.2-0.6-0.5-1.2-0.4-1.7c0.1-0.5,0.6-1,0.9-1.5c0.3,0.4,0.9,0.7,1,1.2c0.1,0.4-0.3,0.9-0.5,1.4
		C547.8,805.1,547.4,805.3,547.1,805.5z"/>
	<path class="st0" d="M469.3,708.2c-0.7-0.8-1.2-1.2-1.2-1.6c0-0.4,0.6-0.8,0.9-1.2c0.3,0.3,0.7,0.5,0.8,0.8
		C469.7,706.7,469.5,707.2,469.3,708.2z"/>
	<path class="st0" d="M460.3,735.7c0.2,0.9,0.5,1.8,0.9,3.2C459.1,738.3,458.9,737.3,460.3,735.7z"/>
	<path class="st0" d="M460.8,468.1c-0.7,0.7-1.2,1.4-1.3,1.3c-0.5-0.3-0.9-0.9-1.2-1.4c-0.1-0.1,0.5-0.9,0.6-0.9
		C459.4,467.2,459.9,467.6,460.8,468.1z"/>
	<path class="st0" d="M440.4,515.1c-0.4-0.8-0.9-1.5-0.8-1.7c0.3-0.5,0.9-0.8,1.4-1.2c0.2,0.5,0.6,1,0.6,1.5
		C441.5,514.1,441,514.5,440.4,515.1z"/>
	<path class="st0" d="M956.5,180.8c-0.5-0.7-1.1-1.3-1-1.6c0.2-0.6,0.7-0.9,1.2-1.4c0.3,0.4,0.8,0.9,0.8,1.3
		C957.4,179.6,956.9,180,956.5,180.8z"/>
	<path class="st0" d="M209.3,813.9c0.7,0.6,1.4,1.1,2,1.7c-0.2,0.3-0.3,0.6-0.5,0.9c-0.8-0.4-1.5-0.9-2.3-1.3
		C208.8,814.8,209,814.4,209.3,813.9z"/>
	<path class="st0" d="M959.6,849.8c-0.5,0.5-1.1,1-1.6,1.4c-0.2-0.3-0.6-1-0.6-1c0.5-0.5,1.1-0.9,1.6-1.3
		C959.2,849.2,959.4,849.5,959.6,849.8z"/>
	<path class="st0" d="M208.9,829.7c-0.4-0.7-0.8-1.3-0.8-1.6c0.1-0.4,0.7-0.9,1.1-0.9c0.2,0,0.8,0.8,0.7,1.1
		C210,828.7,209.5,829,208.9,829.7z"/>
	<path class="st0" d="M389.3,187.9c0.8-0.9,1.4-1.6,2.1-2.4c0.4,0.5,0.6,0.8,0.6,1C391.8,188,391.3,188.9,389.3,187.9z"/>
	<path class="st0" d="M50.2,744.6c0.4-0.2,0.9-0.4,1.3-0.6c0.2,0.5,0.4,1,0.4,1.5c0,0.2-0.5,0.6-0.8,0.6c-0.5,0-1-0.3-1.5-0.5
		C49.9,745.2,50.1,744.9,50.2,744.6z"/>
	<path class="st0" d="M45.8,59.8c0.6-0.5,1-1.1,1.3-1.1c0.3,0,0.8,0.7,0.8,1.1c0,0.4-0.5,1-0.8,1.1C46.8,60.8,46.4,60.3,45.8,59.8z"
		/>
	<path class="st0" d="M206.6,34.9c-0.6,0.7-0.9,1.4-1.2,1.4c-0.3,0-1-0.6-1-1c0-0.4,0.4-1.1,0.8-1.3
		C205.4,33.9,205.9,34.5,206.6,34.9z"/>
	<path class="st0" d="M387.6,540.9c-0.6,0.5-0.9,1.1-1.3,1.1c-0.4,0-0.8-0.6-1.1-0.9c0.4-0.5,0.7-1,1.1-1.5
		C386.7,540,387.1,540.4,387.6,540.9z"/>
	<path class="st0" d="M980.2,67.3c0.6-0.3,1.2-0.5,1.8-0.8c0.1,0.4,0.3,1.1,0.3,1.1c-0.6,0.3-1.2,0.6-1.8,0.8
		C980.3,68.1,980.2,67.7,980.2,67.3z"/>
	<path class="st0" d="M308.4,644.9c0.5,0.6,1,1.1,1.5,1.7c0,0-0.6,0.8-0.7,0.8c-0.6-0.5-1.1-1-1.7-1.6
		C307.8,645.5,308.1,645.2,308.4,644.9z"/>
	<path class="st0" d="M145.9,685c-0.5-0.6-1.1-1.1-1.1-1.4c0.1-0.5,0.6-1.1,1.1-1.3c0.2-0.1,1,0.6,1,0.8
		C146.7,683.7,146.3,684.2,145.9,685z"/>
	<path class="st0" d="M475,5.6c0.4-0.9,0.8-1.8,1.3-2.7c0.3,0.1,0.5,0.3,0.8,0.4c-0.4,0.9-0.7,1.9-1.1,2.8
		C475.6,5.9,475.3,5.7,475,5.6z"/>
	<path class="st0" d="M957,618.8c-0.7,0.3-1.3,0.8-1.5,0.6c-0.4-0.2-0.7-0.9-0.7-1.3c0-0.3,0.7-0.8,1.1-0.8
		C956.2,617.4,956.4,618,957,618.8z"/>
	<path class="st0" d="M564.1,690.2c-0.5-1-1.1-2-1.6-3C564,687.5,564.6,688.5,564.1,690.2z"/>
	<path class="st0" d="M155.8,122c-0.1,0.8-0.1,1.5-0.2,2.3c-0.3-0.1-0.7-0.1-0.7-0.2c-0.1-0.7-0.1-1.4-0.1-2.2
		C155.1,122,155.4,122,155.8,122z"/>
	<path class="st0" d="M583.7,510.6c-0.5,0.4-0.8,0.8-1.2,0.9c-0.1,0-0.7-0.7-0.6-0.8c0.2-0.4,0.6-0.8,0.9-1.1
		C583.1,509.8,583.3,510.1,583.7,510.6z"/>
	<path class="st0" d="M587,384.1c-0.5-0.6-1.1-1-1-1.3c0-0.4,0.6-1,0.9-1c0.4,0,0.8,0.5,1.1,0.8C587.7,383,587.5,383.4,587,384.1z"
		/>
	<path class="st0" d="M293.5,16.9c-0.1-0.5-0.5-1.1-0.4-1.5c0.1-0.4,0.7-0.6,1-0.9c0.1,0.5,0.4,1.1,0.4,1.6c0,0.4-0.2,0.9-0.3,1.3
		C294,17.2,293.8,17,293.5,16.9z"/>
	<path class="st0" d="M603,264.5c-0.2-1-0.5-1.6-0.3-2c0.1-0.3,0.8-0.4,1.2-0.7c0.2,0.5,0.5,1,0.4,1.4
		C604.2,263.7,603.6,263.9,603,264.5z"/>
	<path class="st0" d="M132.1,29c-0.3-0.5-0.8-0.9-0.7-1.1c0.1-0.5,0.5-0.9,0.8-1.3c0.3,0.3,0.9,0.7,0.9,1
		C133,28,132.5,28.4,132.1,29z"/>
	<path class="st0" d="M497.4,657.1c0.5,0.8,0.9,1.2,0.9,1.7c0,0.5-0.3,1-0.5,1.5c-0.4-0.4-1-0.8-1.3-1.3
		C496.4,658.6,496.9,658,497.4,657.1z"/>
	<path class="st0" d="M276.4,976.9c-0.5,0.4-0.9,0.9-1,0.8c-0.4-0.3-0.7-0.7-0.9-1.1c0-0.1,0.6-0.8,0.7-0.7
		C275.7,976,276,976.5,276.4,976.9z"/>
	<path class="st0" d="M275.1,36.6c-0.7,0-1.5,0-2.2,0c0-0.3,0-0.6-0.1-0.8c0.7-0.1,1.5-0.2,2.2-0.3
		C275.1,35.9,275.1,36.3,275.1,36.6z"/>
	<path class="st0" d="M275,642.1c-0.8,0.6-1.3,0.9-1.8,1.2c-0.2-0.4-0.7-0.9-0.6-1.3c0.1-0.4,0.6-0.9,1-0.9
		C273.9,641,274.3,641.6,275,642.1z"/>
	<path class="st0" d="M514,306.2c-0.5,0.4-0.9,0.9-1,0.9c-0.3-0.3-0.7-0.7-0.9-1.2c0-0.1,0.6-0.8,0.7-0.7
		C513.2,305.4,513.5,305.8,514,306.2z"/>
	<path class="st0" d="M633.5,116.4c0.5-0.3,0.9-0.6,1.4-0.7c0.1,0,0.6,0.9,0.5,1.1c-0.2,0.4-0.7,0.6-1.1,1
		C634.1,117.3,633.9,117,633.5,116.4z"/>
	<path class="st0" d="M947.9,60.1c-0.9,0.6-1.3,1-1.7,1c-0.4,0-0.7-0.6-1-0.9c0.4-0.3,0.7-0.9,1.1-1
		C946.7,59.2,947.1,59.7,947.9,60.1z"/>
	<path class="st0" d="M642.9,301.7c-0.5-0.7-0.8-1.1-0.9-1.6c0-0.2,0.5-0.8,0.8-0.7c0.4,0.1,0.8,0.5,1.2,0.8
		C643.7,300.5,643.4,301,642.9,301.7z"/>
	<path class="st0" d="M896.6,334.1c0.7-0.3,1.1-0.6,1.6-0.6c0.2,0,0.5,0.4,0.8,0.6c-0.3,0.5-0.6,1-0.9,1.5
		C897.9,335.3,897.6,335,896.6,334.1z"/>
	<path class="st0" d="M676.9,381.4c-0.5,0.5-0.7,0.7-1,1c-0.3-0.4-0.6-0.8-0.7-1.2c0-0.2,0.4-0.6,0.6-0.9
		C676.1,380.6,676.4,380.9,676.9,381.4z"/>
	<path class="st0" d="M966.4,599.6c0.6-0.6,0.9-0.9,1.2-1.2c0.3,0.4,0.7,0.8,0.8,1.2c0.1,0.2-0.4,0.9-0.6,0.8
		C967.4,600.3,967.1,600,966.4,599.6z"/>
	<path class="st0" d="M253.7,903c-0.5-0.5-1-0.8-1-1c0.1-0.4,0.4-0.9,0.6-1.3c0.3,0.2,0.8,0.4,0.8,0.6
		C254.1,901.8,253.9,902.3,253.7,903z"/>
	<path class="st0" d="M408.9,114.1c0.3-0.6,0.5-1,0.7-1.3c0.4,0.3,0.9,0.5,1.1,0.9c0.1,0.2-0.3,1-0.4,1
		C409.8,114.7,409.4,114.4,408.9,114.1z"/>
	<path class="st0" d="M700.3,414.9c-0.5-1.7-0.8-2.2-0.8-2.7c0-0.3,0.5-0.5,0.8-0.8c0.2,0.4,0.6,0.8,0.7,1.3
		C701,413.1,700.7,413.6,700.3,414.9z"/>
	<path class="st0" d="M724.3,262.3c-0.4-0.8-0.9-1.3-0.9-1.7c0.1-0.4,0.6-0.8,0.9-1.2c0.3,0.4,0.8,0.8,0.8,1.3
		C725.2,261,724.7,261.5,724.3,262.3z"/>
	<path class="st0" d="M231.9,576c-0.1-0.8-0.3-1.3-0.2-1.8c0.1-0.3,0.6-0.4,0.9-0.7c0.2,0.5,0.5,1,0.5,1.5
		C233,575.3,232.5,575.6,231.9,576z"/>
	<path class="st0" d="M860.6,94.6c-0.6-0.6-1.1-0.9-1.3-1.3c-0.1-0.1,0.4-0.9,0.6-0.9c0.5,0,0.9,0.3,1.4,0.5
		C861.1,93.3,861,93.8,860.6,94.6z"/>
	<path class="st0" d="M226.3,895.5c1-0.8,1.4-1.3,1.5-1.2c0.4,0.2,0.7,0.7,1.1,1c-0.3,0.3-0.6,0.9-1,1
		C227.5,896.3,227,895.9,226.3,895.5z"/>
	<path class="st0" d="M45.6,893.3c-0.5-0.5-1-0.9-1-1c0.2-0.4,0.5-0.9,0.9-1.1c0.1-0.1,0.8,0.5,0.8,0.7
		C46.2,892.3,45.9,892.7,45.6,893.3z"/>
	<path class="st0" d="M395.8,443.2c-0.5,0.2-1,0.5-1.5,0.5c-0.4-0.1-0.8-0.6-1-1.1c-0.1-0.1,0.4-0.8,0.6-0.9
		c0.4-0.1,0.8,0.2,1.2,0.4C395.4,442.4,395.6,442.8,395.8,443.2z"/>
	<path class="st0" d="M774.3,413.2c-0.7,0.5-1.1,0.8-1.5,1.1c-0.3-0.4-0.6-0.8-0.7-1.3c0-0.2,0.5-0.8,0.7-0.7
		C773.3,412.4,773.6,412.8,774.3,413.2z"/>
	<path class="st0" d="M473.4,49.8c-0.6-0.9-1-1.4-1-1.8c0-0.4,0.6-0.7,0.9-1.1c0.2,0.3,0.6,0.6,0.6,0.9
		C474,48.3,473.7,48.8,473.4,49.8z"/>
	<path class="st0" d="M970.7,603c-0.6-0.5-1.1-0.7-1.3-1.1c-0.1-0.3,0.5-1.2,0.7-1.1c0.5,0.1,1,0.5,1.5,0.8
		C971.3,602,971.1,602.5,970.7,603z"/>
	<path class="st0" d="M780.3,476.8c-0.7,0.5-1,0.9-1.4,1c-0.2,0-0.7-0.6-0.7-0.8c0.1-0.5,0.5-0.9,0.7-1.4
		C779.2,476,779.6,476.3,780.3,476.8z"/>
	<path class="st0" d="M947.7,115.6c-0.5-0.9-0.9-1.3-0.9-1.8c0-0.3,0.3-0.7,0.5-1c0.4,0.3,0.9,0.5,1,0.9
		C948.5,114,948.1,114.5,947.7,115.6z"/>
	<path class="st0" d="M786.5,134.9c-0.5,0.4-0.9,0.9-1,0.9c-0.3-0.3-0.7-0.7-0.8-1.1c0-0.1,0.5-0.8,0.7-0.7
		C785.8,134.1,786.1,134.5,786.5,134.9z"/>
	<path class="st0" d="M0,88.3c0.5-0.4,0.9-0.8,1.3-1.1c0.2,0.4,0.5,0.8,0.4,1.1c0,0.3-0.4,0.8-0.7,0.8C0.8,89.2,0.5,88.7,0,88.3z"/>
	<path class="st0" d="M788.5,806.7c-0.4-1.2-0.7-1.7-0.6-2.1c0.1-0.4,0.7-0.6,1.1-1c0.2,0.4,0.5,0.8,0.5,1.2
		C789.5,805.3,789.1,805.7,788.5,806.7z"/>
	<path class="st0" d="M522.9,473.9c-0.3-0.7-0.7-1.2-0.6-1.4c0.2-0.4,0.6-0.8,0.9-1c0.1-0.1,0.8,0.5,0.7,0.6
		C523.8,472.6,523.5,473,522.9,473.9z"/>
	<path class="st0" d="M367.7,231.2c0.8-0.4,1.2-0.9,1.5-0.8c0.4,0.2,0.6,0.8,1,1.2c-0.4,0.3-0.7,0.9-1.1,0.8
		C368.7,232.4,368.4,231.8,367.7,231.2z"/>
	<path class="st0" d="M464.1,62.9c-0.5-0.4-1-0.8-1-0.9c0.2-0.5,0.6-1,0.9-1.5c0.3,0.3,0.7,0.6,0.7,0.8
		C464.7,61.8,464.4,62.2,464.1,62.9z"/>
	<path class="st0" d="M479.5,660c-0.5-0.9-1-1.3-1-1.8c0-0.4,0.6-0.8,0.9-1.2c0.3,0.4,0.8,0.8,0.9,1.3
		C480.4,658.7,479.9,659.2,479.5,660z"/>
	<path class="st0" d="M340,967.2c0.4,0.9,0.8,1.5,0.7,1.9c-0.1,0.3-0.7,0.6-1.1,0.7c-0.2,0-0.6-0.7-0.6-1
		C339.1,968.4,339.5,968,340,967.2z"/>
	<path class="st0" d="M339.6,654.8c-0.3-0.6-0.7-1.1-0.9-1.8c0,0,0.5-0.4,0.8-0.6c0.3,0.7,0.5,1.3,0.8,2
		C340,654.5,339.8,654.6,339.6,654.8z"/>
	<path class="st0" d="M483.4,674.8c-0.6,0.7-0.9,1.1-1.1,1.5c-0.3-0.4-0.8-0.7-0.9-1.2c-0.1-0.2,0.3-1,0.5-1
		C482.2,674.1,482.7,674.5,483.4,674.8z"/>
</g>
<g>
	<path class="st1" d="M205.2,402.5c-2.8-0.4-4.9-1.8-7.8-3.4c-5.3-2.8-9.2-4.3-9.4-12.1c-0.3-8.9,3.6-18.9,7.1-27
		c10.6-24.4,23-43.6,40.5-61.1c11.8-11.8,24.2-21,38.5-29.4c17.1-10.1,39.3-19.8,62.7-14.8c3.9,0.8,7.4,2.7,11.1,3.7
		c8.2,2.1,15.9,3.4,22.3,7.8c5.7,3.9,11.5,12.8,11.8,20.9c0.3,7.6-2.8,15.1-5.1,21.9c-7,20.7-18.2,35.9-29.4,50.9
		c3.4,0.2,5.4-3,7.4-5.1c12.6-13.2,32-27.6,55.3-30c12.1-1.3,29.3,2.9,34.1,10.5c3,4.8,2.2,13.8-0.3,19.2
		c-10,21-40.2,33.3-64.1,38.8c-5.2,13.5-10.6,28.6-10.5,46.2c14-0.6,23.1-9.2,32.7-16.9c4.4-3.5,8.5-7.5,13.2-12.1
		c3.6-3.6,10.4-8.7,12.1-12.8c1.4-3.3,1.7-8.1,3-12.1c6.4-18.5,17.3-35.1,32.4-45.9c6.4-4.6,18.5-12.1,29-10.1
		c2,0.4,4.1,1.7,6.7,2.4c4.9,1.3,13.7,2.6,12.8,8.1c-0.2,1.4-2.4,3.1-4,3c-2.1-0.1-3-2.2-4.4-2c-2.6,0.3-7,4.9-9.4,7.4
		c-8.3,8.3-15.2,18.5-21.3,28.3c-9.3,15.1-15.4,29.3-18.2,48.2c7.9-1.2,13.8-5.8,18.9-10.8c4.7-4.6,9.9-10.3,13.2-16.2
		c2.3-4.1,3.7-8.8,5.7-13.2c3.9-8.2,8.5-16.1,13.5-23.6c2.4-3.7,4.5-7.8,7.8-10.8c0.8,0.8,1.1,2.7,1.7,0.3
		c3.3,2.5,10.3,2.2,14.5,4.7c7.6,5.5,0.3,17.8-2.7,24.6c-7.9,17.7-16.6,36.2-21.3,55.3c9.5-4.1,18.2-14.2,25.3-23.6
		c1.9-2.6,6.2-6.4,6.7-9.4c0.3-1.7-0.5-3.9-0.7-6.4c-0.8-12.7,3.3-25.6,8.1-35.8c9.1-19.5,23.6-34.7,39.8-47.6
		c6.9-5.5,18.6-13.8,30.7-12.8c3,0.2,6.6,1.8,9.8,2.7c3,0.8,6.8,1.5,6.7,4.7c-0.7,2.5-3.9,1.9-5.7,2.7c-8.1,3.2-17.7,15.7-22.9,22.6
		c-6.9,9.2-12.3,18.7-16.9,28.3c-4.8,10.2-9.8,20.7-13.5,31.7c-3.9,11.4-8.2,23.7-7.1,37.4c14.3-6.3,22.4-19.8,32.7-31.7
		c2.7-3.1,8.9-8.4,9.8-11.8c0.9-3.5-0.2-9.2,0.3-13.5c3.2-25,14.2-43.8,33.7-55.3c10.6-6.2,26.6-10.5,41.5-6.1
		c9.4,2.8,22.9,5.2,21.3,19.2c-1.2,10.1-11.5,16.8-19.2,21.3c-9.5,5.4-18.4,8.7-30,10.1c-3.3,5.8-6.2,13.6-8.4,21.9
		c-3.3,12.3-7.9,26.5-2,38.1c13.4-0.2,21.6-8.9,28.7-17.2c6.8-8,13.5-18.2,15.9-29.7c0.7-3.5-0.3-9.8,3-12.1c1.1,0.1,0.9,1.3,1,2.4
		c0.6-0.4,0.3-1.8,0.7-2.4c3.3,3,7.7,1.6,12.1,4c8.1,6.8,4.1,21.3,0,28.3c-8.1,14.1-27.7,31.7-46.9,35.1c-10.5,1.9-17.2-1.2-24-4.7
		c-11.7-6.2-22.4-11.1-25-26.3c-8.5,8-17.4,22.1-27.7,31.7c-5.3,5-11,9.3-19.9,6.1c-11.3-4.1-20.5-10.5-23.3-22.6
		c-4.3,5.3-7.9,11.1-13.5,17.2c-5.1,5.5-13.2,15.2-23.3,12.1c-3.3-1-9.4-4-12.5-6.1c-6-4-8.4-11.5-8.8-20.2
		c-2.9,2.9-6.4,6.8-10.5,10.1c-5.3,4.3-10.8,9.2-19.6,6.4c-2.2-0.7-5.1-2.4-8.1-4c-8.3-4.4-15.8-8.2-16.5-19.9
		c-4.1,2.9-7.7,7-11.5,10.8c-3.7,3.7-7.3,7.5-11.5,11.1c-7.7,6.7-16.6,15.6-28.7,16.9c-8,0.8-11.6-2.4-17.2-5.4
		c-4.4-2.3-8.2-3.4-11.5-6.1c-4-3.4-8.8-9.7-11.1-14.2c-9-17.1-2.4-39.3,6.1-52.6c-6.7,0.6-11,7.2-15.2,11.8
		c-8.5,9.3-17.2,18.6-27.3,26.7c-5.5,4.4-16.2,14.4-26.7,11.8c-3.9-1-10.5-4.4-12.5-6.7c-6.3-7.4,1.7-17.6,7.1-22.9
		c11.3-11.3,25.2-18.5,41.8-24c3.4-1.1,7.6-1.4,10.1-3c1.6-1,4.4-5.5,6.4-8.4c5.5-8.2,11.8-18.4,16.2-27.3
		c8.2-16.7,15.7-40.6,7.1-59.4c-26.4,2.1-44.8,12.1-61.7,23.6c-19.7,44.9-34,97.8-42.2,155.2c-1.3,9.3-3.1,18.9-4.7,28.3
		c-1.5,8.9-2.2,18.6-7.1,25.6c-8.6-2.3-17.1-6.1-19.2-15.2c-1.6-7-0.5-16.4,0.3-23.6c2.5-22.5,7.1-43.7,12.1-63.8
		c7.7-30.6,15.8-53.9,26.3-75.6c0.1-0.3,0.3-0.3,0.3-0.7c-14.9,16.5-27.6,36.5-37.1,58.4C213.3,389,210.2,396.5,205.2,402.5z
		 M353.7,311.5c3.1-9.5,6.9-24.2,3-35.4C358.9,288.4,355.8,303.5,353.7,311.5z M361.8,291.9c-0.1-3.1,0.5-6.9-0.3-8.4
		C361.6,285.5,361.1,292.8,361.8,291.9z M369.9,295.9c0.2-2.7,0.8-6.9,0-9.4C370.2,289.7,369.4,293.6,369.9,295.9z M691.4,330.3
		c0.9-2.9,0.9-10.7-2.7-9.8c-15,3.7-20.7,21.2-28.3,32.7C671.5,349,687.8,341.6,691.4,330.3z M427.5,333.7
		c-24.9,5.5-35.4,30.2-44.5,51.3c20.8-6.4,45.4-17.3,50.6-38.8c1.1-4.5,0.3-9.6-1.7-12.8C430.3,333.2,428.4,333.5,427.5,333.7z
		 M436.3,340.8c-0.3-2-0.7,3.6-0.3,5.1C436.2,344.1,436.4,341.8,436.3,340.8z M617.5,365.8c1-5,3-9.6,3.4-13.8
		c-3,8.4-6.2,18.4-6.4,28.3C616.6,376.1,616.4,370.7,617.5,365.8z M548,369.8c-2.8,6.6-6.5,16.8-5.7,27
		C543.8,387.4,545.2,377.9,548,369.8z M237.3,375.9c-4.8,16.4-8.9,32.6-12.1,49.3c-3.7,19.2-9,39.4-7.8,61.4c0,0.4,0.4,0.3,0.3-0.3
		c0.8-43.3,11.8-79.2,21.6-114.7C239.2,369.5,237.5,375,237.3,375.9z M193.8,378.3c0.3-1.5,2-6.8,1.3-5.7
		c-2.8,4.5-3.6,12.4-2.7,19.6C192.2,386.4,192.8,382.6,193.8,378.3z M630,401.9c-0.4-7,2.2-14.6,2-19.2
		C631.2,388.6,628.5,395.9,630,401.9z M286.2,396.5c-5.8,4.6-12.3,10.1-14.2,18.2c14.1-5.9,24.9-19.8,33.7-31
		C299.1,387.6,292.3,391.7,286.2,396.5z M343.2,386c-0.2-0.8,0-0.6-0.3,0c-3.8,6.5-6.6,22-3,31C338.6,405.6,340.5,394.6,343.2,386z
		 M435,390.7c0-1.3,1.5-2.7,0.7-3.7C435.7,388.3,434.1,389.7,435,390.7z M619.5,393.4c0.3,4.1,0.4-2.6,0.3-4
		c-0.1-0.3-0.3-0.4-0.7-0.3C619.1,390.7,619.2,392.1,619.5,393.4z M616.5,399.8c-0.7-1.6-0.2-4.5-1.3-5.7
		C615,396.3,615.8,399.5,616.5,399.8z M626.2,397.5c-0.1-0.7,0.3-3.6-0.3-2.7C626,395.5,625.6,398.4,626.2,397.5z M344.5,416
		c-0.6-6.7,1.5-14.2,1.3-18.2C345,403.1,342.8,410.2,344.5,416z M555.1,417.4c0.2-4.5,1.5-14.2,1.7-17.5
		C555.7,405.2,554.7,410.6,555.1,417.4z M435.6,413.3c0.3-2.8,1.2-8.5,0.7-9.8C436,406.8,435.4,409.6,435.6,413.3z M432.6,414.4
		c-0.6-3.1,0-7.2-0.3-9.8C431,406.8,431.4,412.4,432.6,414.4z M547,408.6c-0.1-1,0.3-4.4-0.3-3.7C546.8,405.9,546.3,409.3,547,408.6
		z M260.5,406.9c0.1,4.8,0.2,2.4,0.3,0c0,0.4,0.9-1.6,0-0.7C260.8,406.5,260.9,406.9,260.5,406.9z M355.3,419.4
		c-0.1,2.3-0.2,5,0.3,3.4c1.6-4.7,0.9-11.8,1.7-14.5C356.5,412,355.5,417.4,355.3,419.4z M543.9,413c0-1.3-0.2-2.5-0.7-3.4
		C543.2,411,543.3,412.2,543.9,413z M487.3,426.8c-1.2-5.4,0.8-11.9,0.7-16.2C486.5,414.7,485.3,422.5,487.3,426.8z M443.7,418.7
		c0.3-1.9,1.3-6.5,0.7-7.1C444.2,414,443.5,415.9,443.7,418.7z M490.3,424.8c-0.1-1.1,0.3-4.6-0.3-4
		C490.1,421.9,489.6,425.4,490.3,424.8z M220.1,484.9c-0.1-1,0.3-4.4-0.3-3.7C219.9,482.2,219.4,485.5,220.1,484.9z"/>
	<path class="st1" d="M367.5,507.5c-11.4,18.3-18.3,41-26.3,62.7c6.4,1.2,11.7,3.3,11.5,11.1c7.5-0.7,16-7,24-7.1
		c2.6,0,6.7,0.8,8.4,3c-2.2,2-5.3,2.6-8.1,3.7c-8.1,3.1-16.8,6.2-24.6,9.8c-4.9,29.4-11.3,55.5-23.3,79.3c-1.6,3.3-3.9,7.1-6.4,10.8
		c-2.2,3.3-4.9,8.2-8.1,8.8c-3.5,0.6-15.5-5.7-17.2-7.8c-6.8-8.3-5.7-31.1-4.7-44.2c1.1-14.7,2.7-30.8,5.7-43.9
		c-3.8-0.6-7.7-1.1-10.8-2.4c-9.4,16.1-15.9,34.6-29,48.2c-5,5.2-11.7,12.2-21.3,9.4c-2.6-0.7-5.1-2.6-7.8-4
		c-2.9-1.6-6.1-2.4-8.1-3.7c-9.1-6.2-14.8-18.4-13.5-33.7c2.5-29.3,23.1-53.4,43.5-63.8c5-11.3,23.8-13.4,35.8-6.7
		c15,8.4,8,33.5,2.7,48.2c2.5,1.2,6.5,0.9,9.4,1.7c7.2-26.8,16.5-54,29.3-76.2c-20.5,3-39.9,6.5-57,12.8c-9,3.3-17.7,5.7-25.3,9.8
		c-21.8,11.7-41.1,28.9-56.7,47.9c-5.3,6.4-10.3,13-14.2,20.6c-4.1,8-5.1,16.7-8.8,26c-3.4,0.7-6.4-1.1-9.4-2.7
		c-6.4-3.4-12.2-4.3-11.1-15.2c0.9-9,7.8-17.8,12.8-24.3c6-7.6,11.5-13.3,17.5-19.2c13-12.8,24.7-24.6,39.1-34.4
		c15.3-10.4,32-19.1,49.9-23.6c17.3-4.3,38-5.3,58.4-6.1c3.2-0.1,6.9,0.7,9.1,0c2.7-0.8,7.8-9.5,10.1-12.1
		c3.7-4.2,7.7-7.6,11.5-10.5c7.9-5.9,19.3-13.3,31.4-14.2c11.5-0.8,28.4,3.4,31.7,12.5c5,13.7-11.3,20-20.2,22.9
		C387.4,504.5,378.4,506,367.5,507.5z M409.7,484.2c3.4-8.1-3-13.5-11.1-12.5c-5.4,0.7-10.5,4.8-14.2,8.1
		c-6.3,5.8-10.8,13.7-13.8,20.9C382.6,498.1,405.3,494.5,409.7,484.2z M411.7,481.8c0.8-5.5-0.7,0.3-0.7,1.7
		C411.1,484.9,411.6,482.4,411.7,481.8z M280.5,539.8c-16.5,3.7-5.6,31.7,0.7,39.1C283.9,568.4,287.5,548.6,280.5,539.8z
		 M286.5,559.8c-0.2-2.7,0.4-8.1-0.3-9.1C286.4,553.4,285.8,558.7,286.5,559.8z M314.2,558.1c0-0.4-0.4-0.3-0.3,0.3
		c-3.1,9.1-6.9,19.4-8.1,29.3C308.5,577.8,311,567.6,314.2,558.1z M285.5,567.8c-0.3-1.4,1-3,0-4C285.9,565.2,284.6,568,285.5,567.8
		z M233.2,631.9c0.3,3.3,1.3,5.9,2.7,9.1c11-4.6,18.6-13.6,25-22.9c6.5-9.4,12.3-20.2,16.9-31.4c-11.3-4-18.2-12.4-24.3-21.6
		C243.9,581.7,230.8,605.7,233.2,631.9z M284.5,572.6c0.3-1,0.4-2.1,0.7-3c0-0.5-0.1-1.3-0.3-0.7C284.9,570,283.7,573.9,284.5,572.6
		z M345.6,583c0.7-0.5,0.1-5.2,0.3-7.4c-0.5,0-0.5-2-0.7-0.3C346,577.2,345.4,580.5,345.6,583z M344.5,575.3
		c-3.2,0.3-7.5,5.2-5.7,9.4c2.4,0.2,4-0.5,5.7-1C344.5,580.9,344.5,578.1,344.5,575.3z M335.4,588.4c-8,26.7-16,53.5-21.3,83
		c15.1-20,22.7-50.4,29.4-80C340.7,590.6,338,589.6,335.4,588.4z M341.9,603.9c-0.5,3.7-1.3,7-2.4,10.1c0,0.3,0,0.7,0,1
		c0.3-0.1,0.4-0.3,0.3-0.7c1.7-7,4.4-16.5,4.7-22.6C343.7,595.9,343.1,600.3,341.9,603.9z M213,622.5c-1.6-11.2,1.3-22.5,2.7-30.7
		C213.3,600.3,209.9,612.6,213,622.5z M297,671.8c-2.4-28.3,3.2-54.1,7.4-77.9c-0.1-0.3-0.3-0.4-0.7-0.3
		C299.5,616.9,293.1,644.6,297,671.8z M216,613.4c-0.1-0.8,0.3-3.9-0.3-3C215.8,611.2,215.4,614.2,216,613.4z M223.1,622.5
		c-0.3-4,1.4-9.4,0.7-11.5C223.7,614.8,222.2,618.9,223.1,622.5z M215.7,617.4c-0.1-0.8,0.3-3.9-0.3-3
		C215.5,615.2,215.1,618.3,215.7,617.4z M338.8,618.5c0.1-0.7,1.1-3.3,0.3-2.7C339.1,616.5,338,619,338.8,618.5z M303.1,624.2
		c0.2-1,1.1-5.6,0.3-2.4C303.1,623,302.3,627.4,303.1,624.2z M335.8,627.2c0.4,0.2,2-4.6,1.3-4.4
		C336.8,624.4,336.1,625.6,335.8,627.2z M300.7,644.1c-0.1-5.2,2-11.7,1.3-15.2C301.9,634,300,639.2,300.7,644.1z M310.5,635.7
		c-0.3-1.1,1-2.3,0-3C310.7,633.7,309.6,636.1,310.5,635.7z M299.7,653.9c-0.1-0.7,0.3-3.6-0.3-2.7
		C299.4,651.9,299.1,654.8,299.7,653.9z M299.3,659.9c-0.2-1.3,0.4-5.1-0.3-4.7C299.2,656.5,298.6,660.3,299.3,659.9z"/>
	<path class="st1" d="M816.2,678.8c12.7-4.7,17.5-25.5,20.9-41.5c1.5-7,2.5-14.6,3.7-21.6c1.1-6.6,0.9-14.5,6.7-17.5
		c1.2-0.3,0.3,1.8,1.3,0.7c-0.1-1.4,1.7,0,1.7,0.7c0.4,0.4,1.3-0.9,1.3,1c0.5-1.3,1.7-1,2,0.3c9.3-1.2,15.9,9.9,14.8,23.6
		c-1,12.7-7.2,22.6-14.2,34.4c-3.1,5.3-6.3,10.3-9.8,14.5c-3.6,4.4-7.8,9.8-11.8,12.1c-1.4,0.8-7.6,3.9-8.8,4c-5.6,0.9-9.3-2-13.2-4
		c-2.4-1.3-5.1-1.9-6.4-3c-7.9-7.1-6.4-24.2-5.1-37.8c-7.4,10.5-16.2,26.5-28.7,32c-7.8,3.5-15.5-1.6-22.3-5.1
		c-8.1-4.2-13.5-6.6-15.5-16.9c-8.9,14.7-13.5,32.3-22.6,48.2c-2.3,4-6.9,11.6-11.1,12.5c-3.6,0.7-7.3-1.3-10.5-3
		c-2.5-1.4-7.2-2.8-8.4-4.7c-1.5-2.4-1.3-9-1-13.5c0.7-9.5,3.4-19.7,6.1-29c7.9-27,18.3-51.8,29-75.6c15.1-33.6,34.2-61.7,43.9-95.8
		c-12.8,7.1-21.5,21.1-29.7,34.7c-8,13.3-15.6,27.6-22.3,42.5c-9.8,22.1-18.2,46.2-28,69.5c-1.8,4.2-7.5,18.9-12.5,19.9
		c-3,0.6-5.8-1.6-8.4-3c-2.5-1.4-6-2.3-7.4-4c-5.2-6.4-1.3-18-1-25.6c-6.7,9.1-13.6,24.9-22.3,35.8c-3.7,4.7-7.1,10.1-14.8,8.1
		c-3.3-0.9-11.8-4.8-14.8-7.1c-2.5-1.8-4.2-5-5.4-8.1c-8.9,12.6-14.4,27.9-23.6,41.5c-2.6,3.8-6.7,9.8-11.1,10.5
		c-3.7,0.5-7.3-1.7-11.1-3.7c-4.7-2.5-9.1-3.4-11.1-7.4c-5.7-11.3-0.5-33.3,2-44.5c9.5-41.5,25.1-80.7,32.7-120.8
		c-9.5,6-16.2,16.6-21.9,27.7c-2.8,5.5-5.9,11.3-7.4,17.9c-6,26.4-12.1,53.9-22.3,78.3c-1.9,4.4-6.2,14.3-9.8,15.2
		c-5.8,1.4-11.7-6.2-16.2-6.7c-3.6-15.4,1.6-30.1,4.7-44.2c9.3-42.3,18.3-84.2,27.7-126.8c-14.6,20.4-26.9,46.4-37.4,72.9
		c-3.5,8.8-8.5,17.6-10.8,26c-1.9,7-2.3,14.3-4,21.3c-3.4,13.6-6.2,25.7-12.5,38.1c-2.2,4.5-6.8,13.2-11.1,13.8
		c-3.3,0.5-12.3-4.3-14.2-6.4c-5.7-6.2-2.8-16.2-0.7-24.6c7-27.2,13.6-59.5,16.5-88.7c-4,2.2-6,7.2-8.1,11.5
		c-4.3,8.8-7.8,19.6-10.1,30c-1.2,5.2-1.6,10.9-5.1,14.8c-6.7-2.3-16.5-5.4-17.2-13.5c-0.4-4.2,2.9-9.8,4.7-14.2
		c3.6-8.9,7.7-16.9,13.2-24.6c2.6-3.7,5.8-8.4,8.4-10.5c1-0.8,3.1-1.1,4.4-2c3.1-2.2,4.9-5.3,7.4-5.7c2.4-0.4,4.4,1.2,7.4,2
		c4.2,1.2,8.1,1.3,11.1,3.4c5.1,3.4,6.4,9.7,9.4,14.2c9.1-22,19.6-45.2,33.1-64.8c3.5-5.1,9.7-15.7,15.9-16.5
		c2.7-0.4,5.2,1.6,8.1,2.4c4.2,1.1,8.3,1.3,11.5,3.7c6,4.6,9.5,14.2,9.4,23.6c0,10.5-2.9,21.9-3.7,31.7c5.1-3,9.4-11.6,16.9-12.5
		c2.5-0.3,4.7,1.1,7.8,2c3.9,1.1,7.9,1.3,10.8,3.4c5,3.6,8.5,12.6,9.1,19.9c1.1,14.2-2.7,29.1-5.7,41.8
		C580.2,621.9,560,656,553,691.7c4.3-2.8,7.4-7.2,10.5-11.8c7.4-11.1,14-23.6,21.6-35.8c1.5-2.5,3.9-4.9,4.4-7.1
		c0.9-3.9,0.7-8.1,1.3-11.8c3-17.4,10.7-32.7,16.5-47.6c2.4-6.1,3.8-12.6,7.4-18.2c1.3-0.2,1.5,3.3,1.7,0.3c2.8,1.4,9.2,2,12.5,4
		c2.7,3.4,4.5,6.9,4,13.8c-0.8,13.8-6.7,26.5-11.1,39.8c-4.5,13.6-8,27.2-9.8,41.2c5.3-3.5,9-9.1,12.8-14.5
		c7.6-10.8,14.3-21.7,21.6-33.7c3.5-5.8,8.3-11.5,10.5-17.2c1.4-3.8,2-8.4,3.4-12.8c1.3-4,2.6-8.3,3.7-12.5
		c2.2-8.5,5.6-17.6,5.7-26.3c0-2.5-1-5.1,0-7.4c0.9-1.2,1.3-0.1,2,0.7c-0.2-1.7,2.1-0.2,3,0c2.8,0.7,6.2,1.4,8.1,2.7
		c11.8,8.1,10.4,31.6,5.7,46.6c12.1-27.7,27.6-58.5,46.6-82.7c5.7-7.3,13.8-17.7,23.3-19.6c2.6-0.5,4.5,1,7.1,1.7
		c6.9,1.9,10.2,1.8,13.2,7.1c7.6,13.5-0.2,31.7-5.1,43.9c-22.5,56.1-59.1,102.9-75.6,162.9c8.9-12.6,18.2-31,26.7-46.9
		c2.2-4.1,3-7.8,7.4-7.8c0.9-10.3,5.8-19,10.8-27c9.7-15.4,19.9-29,34.7-40.8c9.9-7.8,24.1-17.5,40.5-10.8
		c4.1-12.7,8.3-26.5,13.2-40.8c4.7-13.9,10.4-28.5,8.8-44.9c-0.4-3.9-2.5-5.9-3.7-9.8c1.3-0.9,7.5,0.6,10.5,2
		c8.7,4.3,13.6,17.1,14.5,29c1.3,17.4-3.5,33.9-8.1,48.2c-4.6,14.1-10.1,26.9-15.2,41.2C827.7,618.3,815.8,646,816.2,678.8z
		 M843.2,479.5c0-0.4-0.4-0.3-0.3,0.3c2.2,17.5-3.9,31.4-6.4,44.2C840.1,510.8,845.3,497.4,843.2,479.5z M534.1,484.2
		c-0.2,5.7-1.4,13.9-1.3,17.5C533.6,496.2,534.5,490.8,534.1,484.2z M501.8,614.1c-3.5,14.2-7.9,28.5-8.1,43.9
		c3.6-30.7,12.2-58,18.9-86c3.4-14.2,6.4-28.4,9.8-42.8c3.3-14.1,7.7-28.5,8.1-43.9C522.3,530.2,512.3,571.7,501.8,614.1z
		 M760.9,501.7c0.5-3.3,2.5-6.9,2-10.1C762.5,495,760.7,498.9,760.9,501.7z M542.2,492.6c0.1-0.6-0.4-0.8-0.3,0
		c0.4,7.7-1.7,16.5-1.7,21.6C541.2,507.4,542.5,500.8,542.2,492.6z M772.3,503.1c-0.2-1.8,0.4-6.2-0.3-6.4
		C772.2,498.5,771.6,502.9,772.3,503.1z M852.6,502.4c-0.2-1.3,0.4-5.1-0.3-4.7C852.4,499,851.9,502.7,852.6,502.4z M539.5,517.9
		c-0.3-1.1,1-2.3,0-3C539.8,515.9,538.6,518.4,539.5,517.9z M832.4,534.5c-0.1,0.4-0.8,2.8-0.3,2c0.9-1.5,1.7-3.9,2.4-6.1
		c0.5-1.4,1.9-6.5,1.3-5.4C834.8,528.2,833.2,531.7,832.4,534.5z M563.5,577.3c-5.7,18.5-11.1,36.5-16.9,55
		c-5.7,18.2-11.6,38-10.1,60.4c0,0.4,0.4,0.3,0.3-0.3c-0.9-30.8,9.1-55.5,16.5-80.3c3.6-12.2,7.6-24.8,11.5-37.4
		c3.8-12.5,8.1-26.2,9.1-39.8c0.1-1.4,0.5-4.2-0.7-5.4C572.2,547,568.1,562.3,563.5,577.3z M577,538.5c-0.1-1,0.3-4.4-0.3-3.7
		C576.8,535.8,576.3,539.1,577,538.5z M664.4,583.7c3.2-13.8,10.3-27.2,8.4-43.9C673.4,557.6,666.8,570,664.4,583.7z M584.1,541.5
		c-0.2,5.2-1.4,12.9-1.3,16.2C583.5,552.6,584.4,547.7,584.1,541.5z M441,616.8c5.4-23,14.2-47.7,12.8-74.6
		C453.4,570.9,446.2,592.8,441,616.8z M676.2,551c-0.2-1.3,0.4-5.1-0.3-4.7C676,547.6,675.5,551.3,676.2,551z M457.6,554.7
		c-0.1-1.1,0.3-4.6-0.3-4C457.4,551.7,456.9,555.2,457.6,554.7z M818.9,577.6c0,0.4,0.4,0.3,0.3-0.3c2.6-8.3,6.2-19.2,7.8-26.3
		C824.1,559.7,821.7,568.9,818.9,577.6z M463.6,566.2c0,3.9,0.6-1.9,0.3-0.3c0.4-2.2,1.2-8.8,0.3-10.5
		C464.6,559.5,463.6,565.7,463.6,566.2z M682.6,561.1c-0.2-1.5,0.4-5.5-0.3-5.4C682.4,557.2,681.9,561.2,682.6,561.1z M815.8,569.9
		c-9.8,3.8-17.9,10.5-25,18.2c-17,18.7-31.9,42.8-32,75.2c5.3-2.8,9.1-7.9,13.2-12.5c4.2-4.7,8.6-9.2,12.5-14.2
		c7.9-10.1,14.4-21.2,22.6-30.7c2.8-12.5,6.2-24.4,9.8-36.1c0-0.2,0-0.4-0.3-0.3C816.4,569.8,816.2,569.9,815.8,569.9z M810.8,607.3
		c1.7-7.2,4.9-16.5,5.7-22.3C814.6,592.1,811.6,601.5,810.8,607.3z M412.4,588.4c-0.3-1,0.9-3.5,0-3
		C412.5,586.3,411.5,588.9,412.4,588.4z M839.5,646.1c4-13.4,7.1-29.4,8.1-44.5C845,616.3,842.7,633.2,839.5,646.1z M850.6,607.7
		c-0.1-0.9,0.3-4.1-0.3-3.4C850.4,605.2,849.9,608.4,850.6,607.7z M849.9,612c-0.2,2.2-1.4,8.8-0.7,8.1c0.4-3.8,1.2-7.2,1-11.5
		C849.6,609.5,850,610.7,849.9,612z M594.5,630.9c1.3-3.3,1.2-8,2.7-11.1c0.1-1.6,0.8-3.7,1.3-5.7c0.4-1.5,1.6-4.6,1-4
		C597.6,616.4,594.7,623.7,594.5,630.9z M857.3,626.2c0.1-3.3,1.3-9,0.3-11.1C858.1,619.1,856.6,623,857.3,626.2z M650.9,647.5
		c0.3,1.8,0.4-1.3,0.3-2c0-1.3,0-2.7,0-4c0.9-8.8,3.6-17.6,4.4-25.3C653.4,625.9,650.5,635.1,650.9,647.5z M438.7,625.9
		c0.4-0.2,1.9-5.7,1.3-5.7C439.6,622.1,439,623.8,438.7,625.9z M736.6,644.4c1.7-1.4,1.1-5,1.7-7.4c0.6-1.3,1.9-6.6,1.3-5.7
		C738.1,635.2,736.9,639.4,736.6,644.4z M801.3,667c0.4,2.1,0.6-4.5,0.3-0.7c0.2-2.8-0.2-4.1,0-7.1c0.5-7.5,2-15.8,2.4-22.3
		C803.6,644.5,799.5,658,801.3,667z M740.6,649.5c0.1-1.5,0.4-5.7,0-5.7C739.9,647.7,740.4,653,740.6,649.5z M433.3,649.8
		c0-1.5,1-5.1,0.3-5.1C433.7,646.4,432.4,648.5,433.3,649.8z M748,654.9c0.3-2.2,1.2-7.3,0.7-8.1C748.4,649.4,747.8,651.7,748,654.9
		z M737.2,654.2c-0.2-2.8,0.4-6.3-0.7-7.4C735.8,649.1,736.4,652.4,737.2,654.2z M603.6,651.5c-0.1-0.8,0.3-3.9-0.3-3
		C603.4,649.3,603,652.3,603.6,651.5z M682.2,704.1c0.2-9.2,2-19.1,4-27c0.1-0.6-0.4-0.8-0.3,0C684.2,685.6,681.7,693.4,682.2,704.1
		z M539.2,687.6c-0.1-1.1,0.3-4.6-0.3-4C539,684.7,538.5,688.2,539.2,687.6z"/>
	<path class="st1" d="M630.6,503.8c4.1-0.2,13.5,2.7,14.5,5.1c0.6,1.4,0.5,4,0.3,6.1c-0.7,7-6.4,16.8-11.1,17.9
		c-4.6,1-7.4-1.7-11.1-3.7c-2-1.1-5.2-2-6.1-3c-2.4-3-0.5-9.7,1-13.2C620.6,507.5,623.7,504.2,630.6,503.8z M619.2,518.6
		c0-4.3-0.7,2.6,0,4C619.2,521,619.2,519.6,619.2,518.6z"/>
</g>
</svg>
