<?xml version="1.0" encoding="utf-8"?>
<!-- Generator: Adobe Illustrator 22.0.1, SVG Export Plug-In . SVG Version: 6.00 Build 0)  -->
<svg version="1.1" id="Layer_1" xmlns="http://www.w3.org/2000/svg" xmlns:xlink="http://www.w3.org/1999/xlink" x="0px" y="0px"
	 width="1000px" height="1000px" viewBox="0 0 1000 1000" style="enable-background:new 0 0 1000 1000;" xml:space="preserve">
<style type="text/css">
	.st0{fill-rule:evenodd;clip-rule:evenodd;fill:#323C3F;stroke:#323C3F;stroke-width:10;stroke-miterlimit:10;}
	.st1{fill-rule:evenodd;clip-rule:evenodd;fill:#18272D;}
	.st2{fill-rule:evenodd;clip-rule:evenodd;fill:#A57D4C;}
	.st3{fill:#A57D4C;}
	.st4{fill-rule:evenodd;clip-rule:evenodd;fill:#323C3F;}
	.st5{fill:#18272D;}
</style>
<g>
	<path class="st0" d="M449.2,809.8H426c2.5-64.1,9-53,14.8-140.7c-3.6-29.6-32.4-67-48.9-88.3c-5.7-7.4-16.6-18.7-19.6-27.2
		c-5.3-15.1,2.4-26.7,7.6-38.9c4.9-11.6,9.6-22.7,14.4-34.4c5-12,9.5-20.4,14.5-32c6-14.2,9.6-19.7,28.4-20
		c-2.1-33.6,51.2-48,61.2-19.7c5.4-9,19.9-10.1,28.3-8.6c12.3,2.3,24.8,10.2,24.1,26.7c12.9-6.2,44.8,10.4,40.1,28.6
		c49.8,1,40.6,61.9,40.2,86.1c-0.2,23.4,0.4,50.9-7,72.4c-3.6,10.4-8.7,18.2-12.6,27.7c-7,17.2-12.5,23.3-16.1,41.4
		c-1.4,7-1.1,16.9-0.9,23.9l11.9,102.9H426"/>
	<path class="st1" d="M497.9,657.5c23,2.2,29.7-6.8,38-20.2c-3.8,14.4-10.6,27.2-25.6,31.8l-2.2,138c-9.5-65.4-16.9-71.7-20.6-140.3
		c-13,1.3-26.4,0.6-27.1,9.2c-7.6,95.3-11.8,38.7-11.1,134.5h-23.2c-0.1-46.7,9-53,14.8-140.7c-3.6-29.6-32.4-67-48.9-88.3
		c-5.7-7.4-16.6-18.7-19.6-27.2c-5.3-15.1,2.4-26.7,7.6-38.9c4.9-11.6,9.6-22.7,14.4-34.4c5-12,9.5-20.4,14.5-32
		c6-14.2,9.6-19.7,28.4-20c-2.1-33.6,51.2-48,61.2-19.7c5.4-9,19.9-10.1,28.3-8.6c12.3,2.3,24.8,10.2,24.1,26.7
		c12.9-6.2,44.8,10.4,40.1,28.6c49.8,1,40.6,61.9,40.2,86.1c-0.2,23.4,0.4,50.9-7,72.4c-3.6,10.4-8.7,18.2-12.6,27.7
		c-7,17.2-12.5,23.3-16.1,41.4c-1.4,7-1.1,16.9-0.9,23.9l11.9,102.9h-9.9c-1.6-82.8-7.3-19.3-15.7-102.1
		c-2.4-24.8-11.8-32.6-27-43.1c-4.3,15.2-4.6,21.2-8,26.8l0.8-31.7l-0.1,0c41.6-1.8,48.4-3.8,67.9-44.3c10.3-21.4,9.9-75,1.6-81.4
		c-1.5,0-2.1,0.7-4.8,2.4c-2.5,1.6-5.3,2.2-6.4,3.2c0.7,6.1,6.3,2.2,10.4,5.3c-6.6,1.8-11.6,0.1-17.3,3.6c-3.1,1.9-5,3.8-6.3,5.8
		c5.9,3.4,12.4,1.2,13.5,5.3c-2.5-1.9-10.2-1.8-18.2-1.1c-2.9,4.2-8.3-4.9-24.3-3c-5.8,0.7-13.1,3.2-19.9,4.7
		c9.7,8.5,18.6,17.8,25.3,29.3c-10.7-10-18.4-21.6-36.7-28.3c-0.9-0.1-1.7-0.3-2.4-0.6c-0.7-0.2-1.4-0.5-2-0.9l-0.1,0l0,0
		c-9.7-4.8-15.8-16.4-20-9.6c-6,9.8,25.3,18.8,27.3,64.5c-13.6-44.4-37.9-56.6-65.7-79.6c-10.5-8.6-10.8,4.6-30.3,4.8
		c7.5-2.4,10.8-10.8,11.5-16.4c-8.4-3.3-17.8-2.9-27.6-1.4c7.1-4.1,23-9.3,23.1-18.5c0.1-4.4-0.8-2.9,0.8-6.7
		c6.3-14.2-3.7-13.5-4.9-20.5c4.2,0.1,11.4,8,31.6,0.9c10-3.5,17.1-9.1,25.1-14.1c7.6-4.8,16.5-7.9,18-17.7
		c3.2-20.1-25.1-8.3-55.9-10.5c-37-2.6-37.5-1.6-47,24c-10.5,28.3-32,60.6-20.9,85.9c4.5,10.2,8.1,14.5,16.5,21.4
		c24.2,22.1,33.9,52.4,56.7,75.7C474.3,651.4,487.9,655.9,497.9,657.5L497.9,657.5z"/>
	<path class="st2" d="M510.8,668.6"/>
	<path class="st3" d="M349.6,522.8c-3.3-0.5-6.3-1.1-9.7-1.5c-11.1-1.4-23.2-2.7-34.1-4.9c-2.2-0.4-2.9-0.3-2.7-2.6
		c0.1-0.6,0.4-1.3,0.6-1.9c8.3,0.3,17.6,1.8,25.9,2.9c3.4,0.4,21.1,2.6,23,4.1c1.8,1.5,1.7,4-1.5,4L349.6,522.8L349.6,522.8z"/>
	<path class="st3" d="M143.5,494.4c0.2-4.6,0.7-3.4,5.5-2.9c27,3.1,54,7.3,81,10.8c5.7,0.7,43.6,5.5,45.6,6.6
		c0.4,0.3,0.7,4.6-0.8,4.4c-14.6-1.8-29.1-4-43.7-5.9c-27.5-3.6-55-7-82.4-11.1c-1.2-0.2-2.9-0.5-4-0.7
		C143.5,495.5,143.6,495.9,143.5,494.4L143.5,494.4z"/>
	<path class="st3" d="M697.7,739c-17.7-19.7-35.6-39.3-53.1-59.1c-1.2-1.4-4.5-5-4-7c1.3-5.4,5.6,1.3,7.1,3
		c15,17.3,30.6,34.4,45.9,51.4c10,11.1,20.2,22.2,29.9,33.4c1.4,1.7,2.7,3.3,4,5.1c-2.8,4.1-3.3,2.7-6-0.1
		C713.3,757.1,705.6,747.9,697.7,739L697.7,739z"/>
	<path class="st3" d="M661.6,281.9c-0.4,1.1-2.5,5.3-3.7,5.5c-1,0.1-2.8-1.1-3.6-1.6c0.2-1.9,2.8-5,4-6.5
		C659.3,279.6,662,280.6,661.6,281.9L661.6,281.9z"/>
	<path class="st3" d="M681.9,772.2c-2.8,2.6-3.9,1.5-5.7-1.5c-1-1.7-1.2-3.2,0.7-4.3c1.4-0.8,1.7-0.3,2.7,0.8c0.5,0.6,3,3.8,2.8,4.4
		L681.9,772.2L681.9,772.2z"/>
	<path class="st3" d="M773.7,728.3c2.7,2.1,2.5,1,0.5,3.9c-1,1.4-1,1.5-2.8,0.2c-1.4-1-2.8-2.1-4.2-3.1
		C769.7,724.2,769.3,724.8,773.7,728.3L773.7,728.3z"/>
	<path class="st3" d="M690.8,753.5c-2.8,3-3.2,1.3-5.3-1.6c-2-2.8-4-5.2-6-8.1c0.6-0.9,2.6-3.8,3.8-2.6c1.5,1.4,7.8,9.6,8,11.3
		L690.8,753.5L690.8,753.5z"/>
	<path class="st3" d="M662.9,720.5c2.7-3.3,2.8-2.1,5.4,1.3c1.4,1.8,9.7,11.6,9.4,12.9c-0.3,1.1-2.1,2.9-3.6,2.1
		c-1.8-1-9.6-12-11-14.3C662.3,721.4,662.1,721.7,662.9,720.5L662.9,720.5z"/>
	<path class="st3" d="M660.1,712c-2.5,4.7-4.5,1.7-6.7-1.3c-3.1-4.2-7-8.8-10.4-12.9c-11-13.5-17-20.8-27.7-34.6
		c-0.4-0.5-1.9-2.7-1.9-3.3c0-0.3,2.1-3.5,3.7-2.2c0.9,0.7,5,6.4,6.5,8.2c13,16.1,21.1,25.9,33.8,42.2c0.5,0.6,2.3,2.9,2.6,3.5
		L660.1,712L660.1,712z"/>
	<path class="st3" d="M648.2,728.5c-1.9-2.3-13.1-16.6-12.4-18.6c0.7-1.9,2.3-2.7,3.9-1c2.2,2.4,5.6,7.3,7.6,10c0.7,1,5.7,8,5.6,8.8
		c0,1.4-2,2.9-3.9,1.5L648.2,728.5L648.2,728.5z"/>
	<path class="st3" d="M630.4,704.1c-1.8-1.8-5.2-6.5-6.9-8.7c-1.8-2.3-13.7-17.5-12.9-19.7c1.9-4.8,5.6,1.5,7.1,3.4
		c5,6.4,10.9,13.9,15.1,20.8c0.8,1.4,2.9,4.2,0.2,5.1C631.9,705.3,631.1,704.8,630.4,704.1L630.4,704.1z"/>
	<path class="st3" d="M661.8,774.9c0,0.7-0.2,1-0.8,1.5c-3.1,2.6-4-0.8-5.5-3.4c-8-12.7-4-5.8-11.7-18.6
		c-7.7-12.9-15.7-25.4-23.4-38.2c-1.3-2.2-8.6-14-8.6-16.1c0-2,1.4-4.1,3.5-1.7c3,3.3,8.9,13.8,11.3,18
		c10.9,18.7,23.4,36.9,33.9,55.6C660.6,772.5,661.8,774.3,661.8,774.9L661.8,774.9z"/>
	<path class="st3" d="M646.6,789.9c-1.2,2.2-2.9,2-4.2,0c-0.9-1.4-2.1-3.9-3-5.5c-1-1.9-5.8-9.9-4-11.7c3.5-3.5,5.6,3.6,6.8,5.9
		C643,780.3,647.2,788.4,646.6,789.9L646.6,789.9z"/>
	<path class="st3" d="M633.8,764.4c-1.1,2.6-3.2,1.5-4.4-0.4c-3.5-5.6-7.1-12.5-10.1-18.4c-0.7-1.4-4.5-8.7-4.1-10
		c0.3-1.2,2.3-2.6,3.8-1.2c1.6,1.5,15,28.1,14.8,29.6L633.8,764.4L633.8,764.4z"/>
	<path class="st3" d="M733.9,697.6c4.6,3.2,4.5,2.2,1.8,6c-0.7,1-1.4,0.3-2.4-0.4c-2.2-1.6-4.5-3.3-6.5-5
		C730.1,693.1,728.6,693.7,733.9,697.6L733.9,697.6z"/>
	<path class="st3" d="M737.9,755.8c-2.2-2-3.7-3.6-5.5-6.1c2.4-5.2,3.2-3.2,6.8,0.5c0.9,0.9,5.1,4.9,4.8,6c-0.3,1.2-1.7,2.8-3.1,2.1
		C740.2,757.9,738.6,756.4,737.9,755.8L737.9,755.8z"/>
	<path class="st3" d="M715.7,734.8c-6.2-5.9-12.9-12-18.4-18.4c0.4-0.6,2.1-3.7,2.9-3.1c1.8,1.2,8.4,7.8,10.2,9.6
		c4.4,4.3,8.8,8.6,13.1,13C719.5,740.6,720.7,739.6,715.7,734.8L715.7,734.8z"/>
	<path class="st3" d="M680.1,698.3c2.5-3.9,2.6-2.9,5.9,0.4c1.1,1,6.9,6.2,6.7,7.2c-0.1,1-1.7,3.4-3.2,2.5c-1.6-0.9-7.1-6.3-8.7-8
		C679.7,699.3,679.4,699.7,680.1,698.3L680.1,698.3z"/>
	<path class="st3" d="M762,636.9c-0.9,4.9-1.7,3.9-5.5,2.6c-4.8-1.7-15.5-5.1-19.4-7.6c0.5-5.8,1.6-4.1,6.8-2.2
		c1.9,0.7,17.8,6.3,18.1,6.9L762,636.9L762,636.9z"/>
	<path class="st3" d="M637.6,594.4c0.6-4.7,1.7-3.3,6-1.6c13.3,5.2,27,10,40.5,14.9c14.3,5.2,28.8,10.4,43,16c2,0.8,3.9,1.6,5.8,2.6
		c0,1.1-0.3,3.7-1.8,3.6c-3.1-0.3-18.1-6-21.9-7.5c-10.8-4.1-21.5-8.1-32.4-12.1c-11.3-4.1-22.8-8.2-34-12.6c-0.8-0.3-5-1.9-5.3-2.5
		L637.6,594.4L637.6,594.4z"/>
	<path class="st3" d="M813.2,684.6c-10.5-4.2-22.6-10.4-33-15.3c-30.4-14.2-60.8-28.2-91.1-42.6c-2.7-1.3-5-2.5-7.5-4.1
		c0.9-6.1,3-3.7,7.4-1.4c4.8,2.5,10.5,5,15.4,7.4c34.6,16.4,69.5,32.2,104.2,48.6c2.7,1.3,5,2.5,7.6,4c-0.2,0.9-0.8,3.4-1.8,3.6
		L813.2,684.6L813.2,684.6z"/>
	<path class="st3" d="M788.3,694.8c-5.9-2.9-11.4-6.1-17-9.6c2-5.4,1.5-4.5,6.6-1.6c4.7,2.6,9.2,5.1,13.8,8
		c-0.3,0.8-1.3,3.5-2.3,3.6L788.3,694.8L788.3,694.8z"/>
	<path class="st3" d="M657.6,622.7c-0.1-1.1,0.7-3.8,2.1-3.6c0.6,0.1,10.8,5.8,12.5,6.7c14,7.5,28.1,14.8,42,22.7
		c1.6,0.9,2.8,1.6,4.2,2.8c-1.5,5-2.3,3.6-6.6,1.4c-13.1-6.6-25.8-14-38.8-20.9c-1.7-0.9-14.9-7.8-15.3-8.9L657.6,622.7L657.6,622.7
		z"/>
	<path class="st3" d="M766.7,677.5c-0.3,0.8-1.4,3.6-2.3,3.7c-2.9-1-8.2-4.1-11-5.6c-2.2-1.2-18.2-10-18.9-10.8
		c-0.8-1,1.2-4,1.4-4.1c1.3-0.3,27.3,14.6,30.6,16.7L766.7,677.5L766.7,677.5z"/>
	<path class="st3" d="M660.4,647.5c0.2-1.1,0.9-3.5,2.4-2.9c2.5,0.9,16.5,12.2,18.7,14.6c-0.6,1.7-0.8,2-2.2,3
		c-2.7-1.3-18.5-12.3-18.9-14.4L660.4,647.5L660.4,647.5z"/>
	<path class="st3" d="M685.2,666.7c0.1-1,1.2-3.7,2.6-3.3c0.6,0.2,10.4,7.7,11.9,8.9c6.7,5,13.9,10.1,20.3,15.3c2.3,1.8,2.1,1,0.9,3
		c-1.8,3-2.1,2.1-4.8,0c-5.9-4.6-12.3-9-18.3-13.6c-1.2-0.9-12.5-9.3-12.6-10.1L685.2,666.7L685.2,666.7z"/>
	<path class="st3" d="M625.4,632.2c1.1-4.6,4.4-0.7,6.3,1.1c7.2,6.6,11,9.5,18.4,16c6.8,5.9,13.9,11.9,20.5,17.9
		c1.5,1.4,3,2.9,4.5,4.4c-0.5,1-1.8,3.5-3.1,2.7c-3.1-1.9-8.4-6.7-11.3-9.2c-8.5-7.4-16.7-14.9-25.3-22.2c-2.5-2.1-8.3-6.7-9.5-8.7
		C625.4,633.4,625.2,633.1,625.4,632.2L625.4,632.2z"/>
	<path class="st3" d="M695,691.4c1.9-4.2,3.1-2.2,6,0.4c6,5.5,12.7,10.9,18.9,16.2c24,20.3,32.7,27.2,56.6,47.6
		c2.3,1.9,4.2,3.7,6.2,5.9c-2,4.2-2.8,3-5.8,0.8c-8.7-6.6-1.7-1.3-10.2-8.4c-22.2-18.7-44.5-37.2-66.5-56.1
		c-0.9-0.8-5.4-4.6-5.5-5.5L695,691.4L695,691.4z"/>
	<path class="st3" d="M200.1,730.4c1.8-2.2,11.5-8.1,14.5-9.9c8.6-5.3,17-10.4,25.6-15.8c5.9-3.7,58.8-37.3,60.4-37
		c0.7,0.1,3.5,2.7,1.9,3.9c-3.5,2.5-8.2,5.1-11.9,7.4c-14.7,8.9-29.4,18.4-43.9,27.5c-12.7,8-25.4,15.9-38.1,23.8
		c-1.2,0.8-5.6,3.6-6.9,3.4C200.5,733.5,199.3,731.8,200.1,730.4L200.1,730.4z"/>
	<path class="st3" d="M288.3,692.8c16.1-11.7,32.1-23.9,48.4-35.2c1.6-1.1,3.2-2.2,5-3.1c0.8,0.5,3.4,2.4,2.5,3.5
		c-1,1.3-19.8,14.7-22.7,16.9c-11.9,8.6-23.8,17.2-35.7,25.8C281.8,695.4,282,697.4,288.3,692.8L288.3,692.8z"/>
	<path class="st3" d="M278.8,705.8c-1.1,0.8-7.1,5.5-8,5.1c-0.5-0.2-3.4-2.8-1.9-3.9c3.4-2.6,7-5,10.5-7.5
		C282.9,704.1,283,702.8,278.8,705.8L278.8,705.8z"/>
	<path class="st3" d="M258.5,715c1.3-0.8,1.6-0.2,2.7,1.2c1.8,2.2,0.2,2.5-1.8,3.8c-1.8,1.1-3.5,2.5-4.9-0.5
		C253.6,717.4,257.1,715.9,258.5,715L258.5,715z"/>
	<path class="st3" d="M369.9,654.1c-0.6,0.4-0.8-0.3-1.5-1.1c-2.6-2.8-1-2.8,1.7-5.1c3.1-2.5,21.8-19.1,23.8-19.2c0.8,0,4,2,2.1,3.9
		c-0.9,0.9-3.7,2.9-4.9,3.9C384,642.3,377.2,648.4,369.9,654.1L369.9,654.1z"/>
	<path class="st3" d="M249,746.6c9.1-8.2,19.5-15.8,29-23.6c7.5-6.1,80.4-65.7,81.7-65.6c0.5,0,3.7,2.7,2.6,3.7
		c-15.1,12.3-30.4,24.5-45.5,36.7c-20.5,16.6-40.9,33.4-61.5,49.8c-2.3,1.9-4.5,3.5-7.1,5C244.4,750.1,246.1,749.3,249,746.6
		L249,746.6z"/>
	<path class="st3" d="M239.2,691.7c-1.5,0.8-3,1.4-4.6,2c-0.8-0.8-2.7-2.8-1.4-3.9c2.5-2.1,12.1-7,15.4-8.8
		c9.2-4.8,18.3-9.6,27.5-14.5c1.7-0.9,3.1-1.6,4.8-2.3c3.4,4.9,2.8,3.7-2.9,6.8C265,677.8,252.4,685.1,239.2,691.7L239.2,691.7z"/>
	<path class="st3" d="M306.3,651.2c3.7,2.6,0.2,4.1-2.1,5.5c-1.3,0.8-13.2,7.5-13.9,7.1c-0.5-0.3-2.3-2.5-1.6-3.6
		c0.8-1.3,13.4-7.9,15.1-8.6C304.7,651.1,305.4,650.7,306.3,651.2L306.3,651.2z"/>
	<path class="st3" d="M322.1,646.9c-2.3,1.2-4,2-6.5,2.8c-3.4-3.3-1.1-3.9,2.3-6c9.8-6,20.5-11.2,30.6-16.8
		c2.5-1.4,40.4-23.5,41.8-23.3c1.2,0.1,2.9,2.8,2.5,3.4C391.7,608.2,327.3,644.2,322.1,646.9L322.1,646.9z"/>
	<path class="st3" d="M321.2,626c3.3,3.6,2.1,3.6-1.5,5.6c-2.1,1.2-17.5,9.1-19,8.7c-1.1-0.3-2.3-2.4-0.6-3.6
		c4.5-3.4,14.8-8.4,20.2-10.6C320.8,625.8,320.8,625.7,321.2,626L321.2,626z"/>
	<path class="st3" d="M327.9,626.6c-1.1-0.6-2.2-2.6-1.5-3.5c1.9-1.8,32.3-17.6,34-17.4c0.9,0.1,3.4,2.8,1.8,4
		c-1,0.8-7.7,4.1-9.3,4.9c-2.8,1.4-5.6,2.8-8.3,4.3c-2,1.1-14.9,7.8-16.4,7.8L327.9,626.6L327.9,626.6z"/>
	<path class="st3" d="M236.1,649.1c-1,0.4-5,2.3-5.8,2c-1-0.3-1.5-2.9-1.7-3.8c4.2-2.3,10.4-4.7,14.9-6.5
		c17.1-7,34.3-13.7,51.4-20.7c22.9-9.4,46.1-19,69.2-27.9c1-0.4,8.2-3.4,8.9-3c1,0.5,3.1,3.4,0.8,4.3c-5.4,2.3-11.3,4.4-16.8,6.6
		c-34.7,13.9-69.2,28.2-103.8,42.2C247.5,644.6,241.8,646.8,236.1,649.1L236.1,649.1z"/>
	<path class="st3" d="M253.3,621.8c-1.7,0.6-13.6,4.8-14.2,4.1c-0.8-0.8-2-3.4-0.7-4.2c2.3-1.2,9.8-3.5,12.6-4.3
		c2.2-0.7,4.3-1.4,6.6-1.9C260.5,621,259.3,619.9,253.3,621.8L253.3,621.8z"/>
	<path class="st3" d="M323.2,593.4c3.2-1.1,25.7-9.1,27.2-8.6c0.8,0.2,2.8,3.4,1.2,4.3c0,0-9.9,3.2-10.3,3.4
		c-7.4,2.6-14.7,5.1-22.3,7.1C316.4,594.4,317.8,595.4,323.2,593.4L323.2,593.4z"/>
	<path class="st3" d="M269.3,616.6c-1,0.3-1.7,0.4-2.7,0.6c-2.6-5-1.4-4.1,4-6c8-2.8,16.6-5.9,24.7-8.2c0.7-0.2,2.6-1,3.2-0.4
		c0.8,0.9,2.2,3.3,0.7,4.1c-1.5,0.8-9.7,3.3-11.9,4C281.3,612.7,275.4,614.8,269.3,616.6L269.3,616.6z"/>
	<path class="st3" d="M341.4,758.1c-0.7-0.2-3.8-1.9-3.7-2.6c0.1-0.4,3.5-4.8,4-5.5c2.3-3.4,1.4-3.3,5-0.6c1.3,1,0.7,1-0.5,2.6
		C345.5,752.9,342.4,758,341.4,758.1L341.4,758.1z"/>
	<path class="st3" d="M310,724.3c0.9-0.9,5.3-5.4,6.3-5.3c0.8,0.1,3.4,2.5,2.9,3.2c-0.5,0.7-8.8,8.6-9.8,8.7
		c-0.4,0.1-3.9-2.2-2.8-3.6C307,726.7,309.2,725,310,724.3L310,724.3z"/>
	<path class="st3" d="M333.2,707.3c-0.5,0.4-1.1,0.8-1.6,1.2c-4.3-2.9-2.7-3.2,0.8-6.8c2.4-2.5,17.3-17.5,19.4-17.9
		c1.1-0.2,4.2,1.4,2.5,3.6c-0.6,0.8-3.4,3.1-4.3,4C344.4,696.7,339.2,702.4,333.2,707.3L333.2,707.3z"/>
	<path class="st3" d="M416.5,784.6c0.9-0.2,3.9,0.2,4,1.4c0.1,0.8-0.8,3.2-1.4,5.2c-2.2,7.4-6.5,4.4-5-0.3c0.6-1.8,1.4-5.8,2.3-6.3
		L416.5,784.6L416.5,784.6z"/>
	<path class="st3" d="M410.2,756c0.8,0,4.1,0.5,4.1,1.6c0,0.4-3.7,11-4.3,12.6c-1.2,3.6-2.5,7.6-3.9,11.1c-6-1.5-4.6-0.7-2.6-6.9
		c0.6-2,5.8-18.1,6.5-18.3L410.2,756L410.2,756z"/>
	<path class="st3" d="M421.7,719.8c1.1-3.1,2.1-5.7,3.5-8.7c0.8-0.1,4.1-0.3,3.9,1c-0.4,2.8-2.7,9.4-3.6,12.3
		c-3.8,11.7-2.9,8.6-6.9,20.3c-0.9,2.6-1.8,5.1-2.8,7.6c-5.6-1.2-4.4-0.9-2.7-6.5C417.4,732,417.2,733.3,421.7,719.8L421.7,719.8z"
		/>
	<path class="st3" d="M420.3,706.5c-5,10.5-9.7,21.7-14.4,32.5c-6.7,15.3-13.6,30.6-20.2,45.9c-1,2.3-1.9,3.1-4.1,1
		c-0.6-0.6-0.6-1.1-0.5-2c0.5-4.5,11.8-27.4,14.5-33.7c6.5-15.1,13.1-30.6,20.1-45.4c0.9-2,2.6-5,5.4-3.8
		C423.1,702,421,705.1,420.3,706.5L420.3,706.5z"/>
	<path class="st3" d="M423.5,673.6c-11,21-18.6,37.8-29.7,58.7c-1,1.9-2.1,3.8-3.3,5.6c-5.3-1.7-3.8-1.9-1.6-6.8
		c7.7-16.4,16.6-32.5,24.6-48.7c3.1-6.2,3.9-8.3,7.5-14.3c1-1.7,1.2-1.6,3.3-0.8c2.6,1,1.5,2,0.3,4.1
		C424.3,672.2,423.9,672.9,423.5,673.6L423.5,673.6z"/>
	<path class="st3" d="M371.1,765.9c1.5-2.8,5.6-11.7,6.3-11.8c0.6-0.1,4.1,1.1,4,2.1c0,0.4-5.5,10.6-6.4,12.3
		c-3.2,6.2,1.5-2.4-1.9,3.7C367.8,769.7,368.6,770.8,371.1,765.9L371.1,765.9z"/>
	<path class="st3" d="M381.6,692.8c1.3-2,9-13.5,10.7-13.6c0.7,0,3.4,0.8,3.2,1.7c-0.5,2.5-10.5,15.4-12.8,18
		C377.9,696.7,379,696.6,381.6,692.8L381.6,692.8z"/>
	<path class="st3" d="M352.6,734.3c6.9-9.7,13.6-19.9,21-29.3c0.5-0.6,0.3-0.5,1.5,0.1c0.4,0.2,2.9,1.5,2.5,2.1
		c-3.8,6-8.6,12.4-12.7,18.2c-3.9,5.4-7.8,11-11.7,16.3c-0.8,1.1-0.3,0.7-2-0.4c-3.5-2.3-2.5-1.6,0.4-5.7L352.6,734.3L352.6,734.3z"
		/>
	<path class="st3" d="M410.5,643.2c-1.9,2.4-13.5,17.3-15.1,17.5c-1.1,0.1-2.2-1.3-2.7-2.2c1.6-3,15.3-21.4,17.4-21.9
		c0.6-0.2,3.9,1.4,3.4,2.8C413.3,640.1,411.1,642.5,410.5,643.2L410.5,643.2z"/>
	<path class="st3" d="M309.6,766.1c-3.9-1.4-2.2-2.8,0.1-5.7c14.3-18.2,41.9-53,61.2-76.2c1.4-1.7,2.8-3.3,4.4-4.9
		c0.6,0.3,3.9,1.8,3.4,2.6c-1.5,2.4-4.4,5.8-6.2,8.1c-13.6,17.2-27.5,34.2-41.3,51.3c-10.6,13.2-6,7.9-16.8,20.9
		c-0.6,0.7-3.4,4.2-4.1,4.2L309.6,766.1L309.6,766.1z"/>
	<path class="st3" d="M630.7,788.5c-2.6,1.4-5.5-7.3-7.5-11.9c-0.6-1.3-4-9.3-3.3-10.4c0.5-0.8,2.7-2.5,3.8-1.1
		c0.9,1.2,4.8,10.5,7.3,16.8c1.7,4.1,2.4,5.2,0.9,6L630.7,788.5L630.7,788.5z"/>
	<path class="st3" d="M358.3,760.3c-1,1.6-2,3.2-3.5,4.4c-0.6,0.5-0.6,0.4-1.7,0c-3.1-1.1-0.4-4.5,0.7-6.4
		c6.2-10.7,11.5-16.2,19.1-28.9c1.7-2.8,1.1-3.5,4.7-1.5c1.9,1.1,0.8,1.9-0.4,3.7C362.1,754.4,379.4,727.2,358.3,760.3L358.3,760.3z
		"/>
	<path class="st3" d="M703.2,485.2c-1-0.7-1.3-2.9-1.5-4.1c9.3-4.2,20.9-7,30.8-10.2c3.5-1.2,37.8-12.4,38.2-12.2
		c0.1,0,2.1,3.8,0.8,4.6c-0.7,0.5-32.3,10.7-36,11.9c-8.8,2.9-17.6,5.7-26.4,8.4C708.4,483.8,703.8,485.2,703.2,485.2L703.2,485.2z"
		/>
	<path class="st3" d="M779.3,455.7c3-0.9,6.1-2,9.1-2.7c0.4,0.8,1.9,3.8,0.9,4.4c-1.9,1.1-10.2,3.4-12.7,4.1
		C774.5,456.3,774.1,457.2,779.3,455.7L779.3,455.7z"/>
	<path class="st3" d="M793.6,454.9c-2.2-4.6-1-3.6,4.2-5.2c1.1-0.4,7-2.4,7.7-1.8c0.7,0.5,2,3.3,0.5,4.2c-1.4,0.9-8.8,2.8-10.9,3.5
		C794.1,455.8,794.3,455.9,793.6,454.9L793.6,454.9z"/>
	<path class="st3" d="M655.9,484.2c5.1-1.9,15.8-6.5,20.6-7.2c3,3.8,0.3,4.2-3.1,5.7c-7.3,3.2-15.1,5.9-22.7,8.4
		c-2.7-5.2-2.3-4.1,3.6-6.3C654.8,484.6,655.3,484.4,655.9,484.2L655.9,484.2z"/>
	<path class="st3" d="M795.2,435.9c-31.9,12-63.6,24.3-95.4,36.3c-3.5,1.3-7,2.6-10.5,3.9c-2.5,0.9-3.2,0.5-3.9-2.1
		c-0.6-2.1,1-2,2.7-2.6c13-4.6,26.2-9.9,39.2-14.9c29.8-11.4,59.7-23.1,89.6-34.2c0.4-0.1,5.8-2.1,5.9-2.1c0.4,0.2,2.2,3.7,1.4,4.2
		c-2.6,1.7-11.5,4.9-14.7,6.1C804.7,432.4,799.9,434.1,795.2,435.9L795.2,435.9z"/>
	<path class="st3" d="M744,576.8c1,0.1,5.2,0.3,5.5,1.4c0.2,1,0.1,4-1.4,4.2c-0.2,0-8.8-1.3-8.8-1.3c-1.3-0.6-0.2-4.3,0.4-4.7
		C740.4,576,743.2,576.7,744,576.8L744,576.8z"/>
	<path class="st3" d="M784,622.5c-0.6,4.8-1.2,4.1-5.4,3c-3.1-0.8-5.9-1.4-8.8-2.7c0.2-5.8,1-4.4,6.5-2.9c0.9,0.2,7.4,2,7.6,2.3
		L784,622.5L784,622.5z"/>
	<path class="st3" d="M753.7,619.2c-2.8,0-20.2-4.8-23.9-5.9c-2.5-0.7-4.9-1.4-7.3-2.3c0.5-6.2,1.6-4.5,7.1-2.8
		c7.8,2.3,16.2,4,24,6.5c1.8,0.6,1.8,0.2,1.4,2.3C754.9,617.6,754.7,619.1,753.7,619.2L753.7,619.2z"/>
	<path class="st3" d="M698.4,602.7c0.1-2.7,2.9-2.3,4.9-1.8c2,0.4,4,1.1,6.1,1.5c2.8,0.6,5.2,1.2,3.9,4.6c-0.7,1.8-2.9,0.8-4.5,0.4
		c-2.5-0.6-9.6-1.4-10.3-4.1L698.4,602.7L698.4,602.7z"/>
	<path class="st3" d="M823.8,484c-20,3.6-39.9,7.3-59.9,10.9c-1.2-5.7-2-4.5,3-5.4c27.6-5,55.3-10.3,82.9-15.1
		c2.1-0.4,3.6-0.5,5.8-0.6c0.6,1,1.6,3.4,0.2,4.1C852.6,479.4,829.1,483.1,823.8,484L823.8,484z"/>
	<path class="st3" d="M754.7,496.7c-6.2,1.2-12.6,2.6-18.8,3.4c-1.7-5.8-1.9-4.3,5.8-5.8c4.5-0.9,9-1.7,13.5-2.6
		c0.2,0.8,1.1,4.1,0.6,4.6L754.7,496.7L754.7,496.7z"/>
	<path class="st3" d="M640.8,517.8c-3.9-4.1-0.8-4.1,5.3-5.4c21.2-4.3,54.7-10.8,76-14.6c1.7-0.3,3.2-0.6,4.9-0.6
		c1.6,5.6,1.1,4.3-5.9,5.7c-6.3,1.3-79.1,15.5-80.1,15.1L640.8,517.8L640.8,517.8z"/>
	<path class="st3" d="M737.9,515.4c-7.6,1.5-16.1,3-23.8,3.1c-2.3-5.2-0.5-4.3,5.5-5.2c6.4-0.9,12.5-1.9,19-2.5
		c0.2,0.8,1.1,3.6,0.4,4.2L737.9,515.4L737.9,515.4z"/>
	<path class="st3" d="M670.6,520.1c4.5-0.6,35.3-5.4,37.1-4.4c1.1,0.6,0.7,2.7,0.6,3.7c-5.7,1.9-24.7,4-31.5,4.8
		c-1,0.1-10.4,1.6-10.7,0.7C663.8,519.7,666.2,520.7,670.6,520.1L670.6,520.1z"/>
	<path class="st3" d="M638.8,537.8c-1.1-4,0.8-3.2,5.1-3.4c51.1-2.9,105.9-8.2,157-11.3c2.5-0.2,4.9-0.3,7.4-0.4
		c0.8,6.2,0.9,4.5-5.5,5c-19.3,1.8-39.6,2.8-59.1,4.2c-33.1,2.3-69.7,5.3-102.8,7.3C639.2,539.4,639.4,539.9,638.8,537.8
		L638.8,537.8z"/>
	<path class="st3" d="M770.7,547.4c0-4.8-1.1-3.8,3.8-3.8c5.9,0,11.8-0.1,17.7,0c0.2,6.2,1.1,4.7-4.7,4.7c-3.1,0-14.3,0.4-16.6-0.1
		L770.7,547.4L770.7,547.4z"/>
	<path class="st3" d="M679.3,544.1c8.5-0.1,19.9-0.8,28,0.6c1.5,4.3-1.1,4-4.6,4.1c-8.6,0.2-18.2,0.8-26.7,0.2
		c-2.4-0.2-3.5,0.1-3.7-2.7c-0.2-2.8,2.8-2.2,4.9-2.1C677.9,544,678.6,544.1,679.3,544.1L679.3,544.1z"/>
	<path class="st3" d="M761.9,548.3c-9.4,0.1-23.3,0.9-32.2-0.1c-1.9-0.2-1.4,0.2-1.8-2.4c-0.5-3.1,4-2.1,6.9-2.1
		c9.4,0,18.7-0.1,28-0.1c1.2,0,0.5,0.9,0.6,2.9C763.5,548.3,764,548,761.9,548.3L761.9,548.3z"/>
	<path class="st3" d="M654.8,570.4c-0.4-1-0.4-4.1,1-4.3c0.5-0.1,7.7,1.1,9.2,1.2c3.9,0.5,8.2,0.8,11.8,2.3c1,5-2.2,3.8-6,3.4
		C668.6,572.7,655.6,571.5,654.8,570.4L654.8,570.4z"/>
	<path class="st3" d="M686.3,572.6c-0.5-3,2.7-2.8,4.8-2.6c2.6,0.2,5.7,0.8,8.4,1.2c9.8,1.3,19.7,2.6,29.4,4
		c1.4,0.2,1.2-0.2,1.1,1.5c-0.2,3.9-0.9,3.3-4.4,3c-6.8-0.6-13.9-1.8-20.8-2.6c-2.5-0.3-17.5-1.8-18.3-3.9L686.3,572.6L686.3,572.6z
		"/>
	<path class="st3" d="M637.9,579.2c-0.3-0.9-0.4-3.8,0.9-4.1c0.7-0.1,14.7,2.4,16.3,2.6c5.5,0.9,20.1,3.2,24.5,5.4
		c0.6,0.3,0.5,0.8,0.5,1.6c-0.3,3.4-5.6,1.6-7.8,1.2C668.9,585.4,638.8,580.6,637.9,579.2L637.9,579.2z"/>
	<path class="st3" d="M840.2,613.1c0.5,3.7-2.5,3.1-5.2,2.7c-11.1-1.6-22.6-4.3-33.7-6.4c-28.7-5.4-57.6-10.6-86.3-16.2
		c-1.4-0.3-6.4-1.3-7-2.5c-0.7-1.5,0-3.6,2.2-3.4c3,0.2,8.2,1.4,11.3,2.1c11.3,2.3,22.5,4.4,33.8,6.6c25.7,4.8,51.5,9.4,77.1,14.5
		c1.3,0.3,6.9,1.2,7.5,2.2L840.2,613.1L840.2,613.1z"/>
	<path class="st3" d="M701.7,414.8c0.4,1.4-1.4,2.4-2.6,3.2c-1.6,1.2-3.2,2.3-4.9,3.4c-4.5-4.3-3-3.6,2.2-7.3
		C699.3,412.1,699.4,411.2,701.7,414.8L701.7,414.8z"/>
	<path class="st3" d="M754.7,428.7c-2.4,1.1-4.8,2.3-7.3,3.3c-3.2-5.8-2.4-3.9,4.4-7.2c0.8-0.4,5.6-2.8,6.2-2.4
		c0.4,0.4,2.4,3.4,1.6,4.2C759.2,426.8,755.4,428.4,754.7,428.7L754.7,428.7z"/>
	<path class="st3" d="M730.3,437.4c2.4,3.6,1,3.3-2.8,5.3c-8.2,4.3-16.5,8.3-25,12c-3.5-5.4-2.4-4,3.8-7c7.3-3.5,14.4-7.3,21.8-10.4
		C729.4,436.7,729.2,436.2,730.3,437.4L730.3,437.4z"/>
	<path class="st3" d="M674.8,466.7c-3.2-3.3-0.9-3.6,2.6-5.2c3.1-1.4,6-2.8,9.2-4c3.3,3.9,1.6,4.2-2,6.1c-1.6,0.8-7.4,3.7-9.1,3.6
		L674.8,466.7L674.8,466.7z"/>
	<path class="st3" d="M660.7,316.4c-0.8,1.4-6.8,10.8-8.1,10.4c-4.9-1.6-3.1-3-0.7-6.1c2-2.7,3.9-5.2,6-7.9c0.8,0.4,3.3,1.4,3.3,2.5
		L660.7,316.4L660.7,316.4z"/>
	<path class="st3" d="M647.1,335.7c-1.2,2.4-8.6,13.2-10.5,14.4c-0.4,0.3-3.7-1-3.5-2.5c0.1-0.7,3-4.4,3.7-5.4
		c1-1.4,6.9-10,8.2-10.1c1.6-0.1,3,1.4,2.3,3.2L647.1,335.7L647.1,335.7z"/>
	<path class="st3" d="M590.2,430.8c-0.9-0.1-3.7-1.4-3.5-2.6c0.1-0.6,6.4-9.4,7.4-10.9c10.2-14.9,20.2-30,30.6-44.8
		c1.2-1.7,2-2.7,3.6-4.1c4.8,1.9,2.7,3.2,0.3,6.9c-8.9,13.7-18.6,27.1-27.7,40.7c-3.2,4.7-6.3,9.4-9.8,13.9
		C590.9,430.2,590.6,430.7,590.2,430.8L590.2,430.8z"/>
	<path class="st3" d="M660.1,340.6c0.9-1.2,6.3-8.4,7.4-8.3c1.5,0.1,3.2,1.6,2.2,3.5c-1.1,1.9-3.6,5.3-4.9,7.1
		c-1.2,1.7-7.7,10.9-9.5,11.1c-2.4,0.2-3.4-1.6-2.2-3.8C654.5,347.5,658,343.2,660.1,340.6L660.1,340.6z"/>
	<path class="st3" d="M650.9,360.8c-0.9,1.8-4.4,6.4-5.6,8.1c-1.7,2.4-11,15.8-12.9,16.4c-1.3,0.4-3.5-1.4-3.2-2.8
		c0.2-1,2.9-4.1,3.7-5.3c2-2.8,13.8-20,16.2-20.1c1.4,0,2.5,1.4,2.1,2.9L650.9,360.8L650.9,360.8z"/>
	<path class="st3" d="M706.8,320.9c-1.3,2.5-12.9,15.1-15.2,17.7c-14.2,15.8-28.5,31.3-42.6,47.2c-12,13.5-32.1,35.4-44.4,48.7
		c-1.4,1.5-2.3,2.3-3.9,3.5c-5-2.6-3.2-3,0.3-6.8c11.7-12.3,31.1-33.8,42.5-46.6c19-21.3,38-42.5,57.1-63.7c0.6-0.7,2.6-3.1,3.6-2.8
		C705.1,318.4,707.1,319.8,706.8,320.9L706.8,320.9z"/>
	<path class="st3" d="M708.7,361.8c-4.2,4.6-9,9.5-14,13.1c-5.4-3-2.7-3.7,1.1-7.2c3.6-3.4,7-6.7,10.9-9.9c1,0.7,2.6,1.7,2.7,3
		L708.7,361.8L708.7,361.8z"/>
	<path class="st3" d="M646.9,416.6c2.3,0.7,2.5,2.4,1,4.1c-5.4,6.6-11.5,12.7-17.8,18.4c-0.7,0.6-1.1,0.9-2,1.4
		c-5.2-3.5-2.6-3.5,1.3-7.5C632.3,430.1,644.1,417.3,646.9,416.6L646.9,416.6z"/>
	<path class="st3" d="M663.3,404.1c-4.1-2.3-2-3.3,1-5.9c5.3-4.8,10.4-10.4,15.7-15.3c1.9-1.8,3.9-3.5,5.9-5.1
		c3.7,2.4,3,2.9,0.2,5.9c-5.4,5.8-11.7,11.8-17.5,17.1c-0.7,0.6-3.9,3.6-4.5,3.6L663.3,404.1L663.3,404.1z"/>
	<path class="st3" d="M643.9,446.1c-1.9,1.8-15.5,12.5-17.1,12.3c-1.6-0.1-3.3-3-0.5-5.2c2.4-1.9,5.4-3.8,7.9-5.7
		c2.6-1.9,5-3.7,7.8-5.3C643,443,645.2,444.8,643.9,446.1L643.9,446.1z"/>
	<path class="st3" d="M686,414.2c-2.1,2.4-12,9.5-14.9,11.7c-1.6,1.2-18.1,13.4-19.1,13.2c-0.3-0.1-3.3-2.1-2.2-3.7
		c0.5-0.7,4.9-3.5,6.2-4.6c3.1-2.3,26.5-20.2,27.8-20C684.6,411,686.8,413.2,686,414.2L686,414.2z"/>
	<path class="st3" d="M655.4,466.3c-1.3,1.1-12.5,8.8-13.4,8c-0.5-0.4-2-2.4-2.1-3.1c0-1.2,3.5-2.8,4.7-3.6c1.3-0.9,8.4-5.7,9.5-5.4
		C655.3,462.6,656.8,464.9,655.4,466.3L655.4,466.3z"/>
	<path class="st3" d="M739,406.7c15.2-9.9,30.4-20.1,45.8-29.8c1-0.7,2.8-2,4-1.2c1.2,0.8,2.1,2.5,0.8,3.7c-1.1,1.1-6.6,4.5-8.3,5.6
		c-20.3,13.5-41.1,26.5-61.5,39.9c-12.8,8.4-25.7,16.7-38.6,25.1c-2.4,1.6-2.7,0.7-4.3-1.7c-0.5-1-0.6-0.7,0.7-1.6
		c6.6-4.8,14.1-9.5,21-13.9C712.1,424.1,725.6,415.4,739,406.7L739,406.7z"/>
	<path class="st3" d="M598.7,286c0,1.7-1.7,8.2-3.5,8.6c-1.6,0.3-3.9-0.4-3.3-2.6c0.4-1.4,2.3-6.8,3.5-7.4
		C596.4,283.9,598.2,285,598.7,286L598.7,286z"/>
	<path class="st3" d="M642.7,274.8c-4.6-1.3-3.2-2-0.9-6.1c1.4-2.5,2.7-5,4.2-7.4c4.9,1.5,4,2.1,2,6c-1.3,2.5-2.3,4.4-3.7,6.8
		C643.7,275.1,644,275,642.7,274.8L642.7,274.8z"/>
	<path class="st3" d="M633.7,287.9c4,1.1,2.5,2.9,1.1,5.9c-3.1,6.7-7,14.2-10.6,20.6c-0.4,0.8-1.6,2.9-2.3,3.4c-1,0.6-4-1.1-3.9-1.5
		c0.4-2.1,13.1-25.9,14.9-28.1l0.4-0.3L633.7,287.9L633.7,287.9z"/>
	<path class="st3" d="M612.9,325.1c1.3,0.2,3.9,0.8,3.5,2.6c-0.9,3.1-4.1,9.1-6,11.7c-0.5,0.7-4.2-0.2-4.1-1.8
		c0.1-0.8,3.8-7.5,4.6-8.9C611.5,327.4,612.1,326.3,612.9,325.1L612.9,325.1z"/>
	<path class="st3" d="M517.2,240.3c-0.1,3.3-0.1,6.8-0.4,10c-1.1,0.2-3.7,0.3-4.6-0.2c-0.1-3.5,0.1-7.3,0.2-10.8
		c0-1.5,0.2-2.6,0.4-4C518.4,234.9,517.4,234.6,517.2,240.3L517.2,240.3z"/>
	<path class="st3" d="M511.9,258.2c5.6-0.1,4.8-0.5,4.6,5.7c-0.1,4.8,0,10.1-0.6,14.8c-6.3,0.7-4.6,0.1-4.4-6.6
		C511.7,267.5,511.8,262.9,511.9,258.2L511.9,258.2z"/>
	<path class="st3" d="M515.6,291.8c0,21.6-1.1,43.3-1.4,64.9c0,2.4-0.1,21.2-1.4,21.8c-0.8,0.3-3.1,0.7-3.7-0.1
		c-0.9-1.2-0.2-7.2-0.1-9.2c0.5-14.1,0.6-28.4,0.9-42.5c0.3-12.3,0.4-25.1,1.1-37.4c0.2-2.8-0.3-2.6,2.2-2.7
		c3.2-0.1,2.4,1.5,2.4,4.5L515.6,291.8L515.6,291.8z"/>
	<path class="st3" d="M530.6,292.9c-0.2,3.4-0.4,7-0.7,10.4c-0.2,1.7-0.3,1.3-1.9,1.5c-3.8,0.2-3-0.8-2.6-4.6
		c0.2-2.6,0.7-20.1,1.7-20.8c0.6-0.4,4.1-0.7,4.2,0.8C531.5,282.5,530.8,290.1,530.6,292.9L530.6,292.9z"/>
	<path class="st3" d="M524.3,316c0.1-0.9,0.3-5.9,0.6-6.3c0.5-0.7,3.7-0.2,4.5,0.3c0,7.1-0.7,15.1-1.1,22.2
		c-0.3,4.8-2.7,39.8-3.3,40.2c-0.9,0.6-3.7,0.8-4.1-0.5c-0.2-0.9,0.1-5.2,0.3-8.2C522.2,347.8,523.1,331.9,524.3,316L524.3,316z"/>
	<path class="st3" d="M557.6,219.7c-4.1,29.7-8.6,59.4-12.9,89.2c-0.8,5.6-7,49.7-7.9,51.3c-0.3,0.5-4.5,1-4.4-1
		c0.1-3.1,1.3-8.8,1.8-12.2c4.5-29.7,8.6-59.6,12.9-89.4c1.8-12.7,3.7-25.3,5.7-37.9c0.3-1.9,0.5-3.4,1.2-5.3
		C559.1,214.2,558.3,214.7,557.6,219.7L557.6,219.7z"/>
	<path class="st3" d="M572.1,235c4.5,0.3,3.1,2.2,2.2,6c-0.5,2.1-2.7,14.7-3.8,15.1c-0.7,0.3-4.3,0.1-4.1-1.6
		c0.2-1.9,3.7-17.8,4.5-19.1l0.4-0.4L572.1,235L572.1,235z"/>
	<path class="st3" d="M556.5,323.2c-2.5,14.5-5.9,28.9-8.8,43.3c-0.4,1.8-3.1,16.3-4,16.7c-1.3,0.3-4.3,0.2-4.1-1.6
		c0.2-2.9,1.7-8.1,2.3-11.2c3.4-16.3,6.3-33,10.1-49.3c0.2-0.8,0.7-3.3,1.1-3.9c0.6-1,4-0.6,4.2,0.9
		C557.4,318.9,556.6,322.2,556.5,323.2L556.5,323.2z"/>
	<path class="st3" d="M557.1,296.5c0.1-1.7,1.7-8.6,2.2-10.5c0.4-2,4.8-22.5,5.2-23.1c0.4-0.5,2.8,0.2,3.5,0.3
		c1.2,0.2,0.9,1.1,0.6,2.3c-0.7,3.6-6.1,31.3-7.3,32C560.7,298,557.3,297.8,557.1,296.5L557.1,296.5z"/>
	<path class="st3" d="M568.2,373.1c-3,7.8-6,16.2-9.3,23.8c-0.8,1.7-0.6,2-2.6,1.6c-3.4-0.8-2-3-1.1-5.3
		c5.3-13.5,10.2-27.3,15.7-40.7c1-2.4,1.5-3.7,4.2-2.2c1.6,0.9,0.9,1.9,0.3,3.6C573.4,360.3,570.7,366.8,568.2,373.1L568.2,373.1z"
		/>
	<path class="st3" d="M591.3,308.5c-3.3,10.3-7.3,20.7-11.2,30.9c-0.7,1.8-1.3,3.1-2.3,4.7c-6.2-0.7-3.9-2.1-2-7.2
		c3.9-10.4,7.1-21,11.5-31.3c0.4-1,0.8-1.8,1.4-2.8C593.2,303.4,592.5,304.5,591.3,308.5L591.3,308.5z"/>
	<path class="st3" d="M569,413.5c-1.1-0.1-4.4-0.6-3.8-2.3c2.3-6.2,5.4-12.5,8-18.6c1.3-3.1,10.7-25.5,11.7-26.4
		c1.4-1.3,4.6,0.5,4,2c-2.8,7.5-6.5,15.6-9.8,23C578.2,393.4,569.7,413.6,569,413.5C569,413.5,569,413.5,569,413.5L569,413.5z"/>
	<path class="st3" d="M598.6,327.6c-4.7-1-3.2-1.8-1.3-6.1c5.2-11.6,10.1-23.3,15.2-34.9c10.6-24.5,21.3-49,31.8-73.5
		c0.7-1.6,2.9-7.9,4.2-8.5c0.8-0.4,4.1,0.2,3.6,2.5c-0.3,1.4-3,7-3.8,8.8c-15.1,35.1-30,70.2-45.5,105.2c-0.4,0.9-2.6,5.9-3,6.3
		l-0.4,0.3L598.6,327.6L598.6,327.6z"/>
	<path class="st3" d="M345.6,303.6c-0.9-1.5-1.8-3-2.6-4.6c0.7-0.9,2.4-2.8,3.6-1.8c2.6,2.2,15.8,22.9,18.7,27.3
		c5.6,8.6,12.1,17.2,17.3,26c0.6,1,3.1,5.4,2.8,6.4c-0.7,2-2.3,2.7-3.9,0.8c-3.6-4.2-7.6-11.2-10.7-16
		C362.5,329,353.6,316.5,345.6,303.6L345.6,303.6z"/>
	<path class="st3" d="M342.5,293c-3.1,3.5-3.5,1.5-5.6-2c-1.5-2.4-3.1-4.8-4.1-7.4c0.6-1,2.5-2.9,3.6-1.8c1.2,1.1,6.9,9.2,6.5,10.5
		L342.5,293L342.5,293z"/>
	<path class="st3" d="M326.5,275.5c-0.7-1.1-4.2-6.1-4-7.2c0.2-0.8,2.6-2.8,3.7-1.9c1,0.7,5.5,7.9,6,9.3c0.7,1.7,0.7,1.4-0.4,2.7
		c-2.4,2.6-3.2,0.5-4.7-1.8L326.5,275.5L326.5,275.5z"/>
	<path class="st3" d="M393.9,401.7c3.6,4.9,11.6,14.2,15.1,19.1c0.6,0.8,1,1.5,1.5,2.4c-0.6,1-2.9,3.4-4.1,2.2
		c-1.6-1.6-1.8-1.9-3.2-3.9c-1.5-2.1-17-21.8-16.7-23.6c0,0,0.9-4.4,5.1,0.6C392.3,399.5,393.1,400.6,393.9,401.7L393.9,401.7z"/>
	<path class="st3" d="M379,369.4c0.6,0.9,2.7,3.9,3,4.9c0.3,1.6-1.8,4.6-4.2,1.6c-9.6-12.1-18.7-25.1-28-37.5
		c-18.3-24.5-36.5-48.9-54.5-73.5c-0.8-1.1-4.1-4.8-3.6-6.1c0.4-1.1,2.5-2.6,3.9-1.4c1.7,1.5,7.7,9.9,9.5,12.3
		c13.5,18.2,26.9,36.5,40.5,54.6c4.8,6.5,9.7,13,14.6,19.4l0.4,0.5C366.8,352.5,373.1,360.8,379,369.4L379,369.4z"/>
	<path class="st3" d="M482.5,318.3c-3.3-38.8-6.7-77.5-10.2-116.3c-0.2-2.1-1.4-10.1-0.5-11.5c0.6-0.9,3.8-2,4.4,0.9
		c0.4,2.1,0.5,6.2,0.7,8.5c3.4,39.2,7,78.3,10.4,117.5c0.2,2.2,0.4,4.3,0.5,6.4C481.6,324.7,483.1,325.2,482.5,318.3L482.5,318.3z"
		/>
	<path class="st3" d="M489.1,364.7c2.5,0,2.1,1.3,2.3,3.6c0.3,3.9,1.7,9.3,1.2,10.4c-0.4,1-4.1,1.6-4.3,0.8c-1-3.8-3.2-12-1.8-14.4
		C486.7,364.9,488.8,364.8,489.1,364.7L489.1,364.7z"/>
	<path class="st3" d="M470.5,306.9c0.9,3.1,1.6,8.7,2.1,12c0.4,3,4.4,28.9,4,29.7c-0.4,0.8-4.1,1.5-4.4,0.5c-0.9-3-1.7-9.3-2.1-12.5
		c-1.2-8.1-2.3-16.2-3.4-24.3c-0.3-1.9-0.5-3.8-0.5-5.7C467.4,306,469.8,305,470.5,306.9L470.5,306.9z"/>
	<path class="st3" d="M472.9,356.9c2.5-0.1,2.2,1.2,2.5,3.4c0.4,2.4,3.5,13.7,2.2,14.6c-1.3,0.9-3.8,1.7-4.2-0.6
		c-0.5-2.6-1-1.8-1.4-4.5c-0.6-3.8-1.2-7.7-1.6-11.5c-0.1-1.1,0.6-1.1,1.7-1.3L472.9,356.9L472.9,356.9z"/>
	<path class="st3" d="M431.1,283.3c3.1,9.3,6.6,21.4,8.9,31c0.6,2.1,0.1,1.8-3.2,2.7c-1.5,0.4-1.9-3.3-2.3-4.9
		c-2.7-9.2-5.6-18.2-7.8-27.6c-0.4-1.9-0.7-1.3,2.1-2.2C430.6,281.8,430.3,281.7,431.1,283.3L431.1,283.3z"/>
	<path class="st3" d="M455.3,366.8c0.8,2.8,1.1,1.8-2.7,3.1c-1.7,0.5-1.4,0-2-1.9c-0.9-3.2-9.2-31.3-9-31.9c0.1-0.2,3.8-1.3,4-1.2
		c0.9,0.4,5.4,16.7,6,18.8C453,358.1,454.2,362.5,455.3,366.8L455.3,366.8z"/>
	<path class="st3" d="M423.3,255.4c2.1,6.2,3.8,12.5,5.3,18.9c-5.2,2.3-4.2,2.2-5.8-3.6c-1.5-5.2-2.9-10.2-4.1-15.5
		c0.8-0.3,3.4-1.6,4.1-0.9L423.3,255.4L423.3,255.4z"/>
	<path class="st3" d="M398.2,244.2c0.9,1.1,3.2,7.9,3.8,9.7c15.2,41.3,28.5,77.6,43.3,119c0.7,1.9,1.8,4.8-0.8,5.6
		c-2.6,0.8-2.8-1.2-3.9-4.3c-5.7-16.9-10.6-28.7-16.7-45.5c-9-24.8-18-49.7-26.9-74.5c-0.5-1.4-3-7.6-2.7-8.7
		C394.6,244.8,397.2,243.5,398.2,244.2L398.2,244.2z"/>
	<path class="st3" d="M414.6,356.8c1.5-1.2,3.3-1.6,4.4,0.2c2.4,3.7,5.3,10.7,7.2,14.9c1.3,2.8,12.8,27.3,12.5,28.6
		c-0.2,0.9-2.9,2.3-3.7,1.6c-1.9-1.5-15.2-31.9-17.2-36.1c-0.6-1.2-3.9-8.1-3.4-9L414.6,356.8L414.6,356.8z"/>
	<path class="st3" d="M408.1,320c2,4.3,6.4,13,7.2,17.2c-4.2,3.8-4.2,1.3-6.2-3.2c-1-2.4-8.3-16.9-7.7-18c0.3-0.5,2.2-1.7,3.2-1.6
		C406.2,314.7,407.5,318.6,408.1,320L408.1,320z"/>
	<path class="st3" d="M412.1,361.9c0.9,2.1,0.7,2.6-1.8,3.6c-1.8,0.3-2.5-1.3-3.2-2.7c-1.9-3.8-16.2-31.2-15.4-32.4
		c0.4-0.7,2.4-1.9,3.4-1.4c1.4,0.6,2.9,4.7,3.7,6.1C403.4,344,408.1,352.7,412.1,361.9L412.1,361.9z"/>
	<path class="st3" d="M382.8,303.6c1.4,1.4,4.1,7.2,5.1,9.4c1.3,2.7,2.6,5.2,3.5,8.1c-4.9,3.7-4.5,1.3-6.7-3.6
		c-0.8-1.8-6.1-11.7-5.6-12.8c0.3-0.6,2.6-1.6,3.4-1.3L382.8,303.6L382.8,303.6z"/>
	<path class="st3" d="M372.1,292.3c-0.5-1.1-3.4-7.1-3.3-7.9c0.1-0.4,2.6-2.7,3.8-1.5c1.5,1.6,5.2,9.6,5.9,11.9c0.3,1,0.2,0.6-1,1.6
		c-2.9,2.4-3.4,0-4.7-2.8L372.1,292.3L372.1,292.3z"/>
	<path class="st3" d="M497.9,325.3c0-1.5-0.6-10-0.1-10.7c0.3-0.4,3.7-1.3,4.3,0.2c0.4,1.1,0.8,11.9,0.6,13.3
		c-0.2,1.6-0.1,1-1.8,1.4C497.4,330.1,498,328.6,497.9,325.3L497.9,325.3z"/>
	<path class="st3" d="M497.2,274.2c0-1,0-1.8,0.1-2.8c0.8-0.2,4.1-0.8,4.4,0.3c0.5,2.3,0.5,10.8,0.5,13.4c0.1,5.4,0.3,11.6,0,17
		c0,0.3,0,0.6-0.1,0.9c-0.3,1.4-0.2,1-1.7,1.4c-3.9,0.8-3-1.5-3-4.7C497.6,291.2,497.2,282.7,497.2,274.2L497.2,274.2z"/>
	<path class="st3" d="M496.5,241.8c0.8-0.3,3.8-0.8,4.4,0c0.4,0.6,0.3,7.2,0.3,8.6c0.1,1.9,0.1,3.2-0.4,5c-5.5,1.1-4.4,0.3-4.5-5.4
		C496.2,248.7,495.7,242.4,496.5,241.8L496.5,241.8z"/>
	<path class="st3" d="M463.2,290.4c-0.5-3.5-1-3.5,2.6-4.1c1.7-0.3,1.7,1,2,2.6c0.4,2,0.9,4.5,0.5,6.5c-0.2,0.9-0.2,0.7-1.3,1.2
		c-3.7,1.6-3.2-1.2-3.6-4.2L463.2,290.4L463.2,290.4z"/>
	<path class="st3" d="M324.4,399.3c-1.4-0.6-7.3-5.1-7-6.4c0.3-1.5,1.7-3.5,3.6-2.2c1,0.7,6.4,4.7,6.2,5.6
		C327,397.4,325.7,399.5,324.4,399.3L324.4,399.3z"/>
	<path class="st3" d="M322.9,328.6c-0.1,0.6-2.4,3.3-3.8,2.4c-1.3-0.9-8.2-8.8-7.9-10.1c0.1-0.4,2.2-3.1,3.6-2.1
		c0.8,0.5,7.9,9.1,8,9.7L322.9,328.6L322.9,328.6z"/>
	<path class="st3" d="M332.4,357.6c0.3-0.8,2-2.5,2.8-2.9c1-0.5,2.3,1.8,2.9,2.5c4.7,5.7,10.2,11.1,15,16.8c0.4,0.5,4.1,4.7,4,5.1
		c-0.1,0.2-2.5,2.9-3.7,2.6c-0.9-0.3-4.4-5-5.4-6.1C345.9,373.2,332.4,359.4,332.4,357.6L332.4,357.6z"/>
	<path class="st3" d="M364.4,393.4c0.1-1.2,2.2-3.6,4-2c1.7,1.5,8.3,8.6,7.8,10.7c-0.6,2.3-2.5,2.4-4.1,0.7
		C370.3,401.2,365,395.5,364.4,393.4L364.4,393.4z"/>
	<path class="st3" d="M245.7,454.9c0.3-0.9,0.5-1.6,1-2.4c3.9,1,8.9,3,12.9,4.4c1.7,0.6,1.3,0.3,0.7,2.2c-0.3,0.9-0.6,1.8-1,2.7
		c-0.8-0.1-13.7-4.5-14.1-4.9C244.9,456.6,245.5,455.4,245.7,454.9L245.7,454.9z"/>
	<path class="st3" d="M266.9,464.1c0.1-0.6,1-4,1.7-3.9c1,0.1,17.2,6.2,19.2,7c-1.8,6-0.8,4.8-7.5,2.3c-1.4-0.5-13.1-4.6-13.3-5
		L266.9,464.1L266.9,464.1z"/>
	<path class="st3" d="M368.1,497.8c0.7,0.8,0.8,4.1-2.2,3.6c-1.4-0.3-7.5-3.1-9.4-3.8c-10.1-4-20.7-7.7-30.9-11.5
		c-9.9-3.7-19.9-7.3-29.8-11.1c-0.7-0.3-1.4-0.6-2.1-0.9c0.2-0.9,0.9-4.4,2.2-4.1c4.2,1,10.4,3.8,14.7,5.3
		c17.6,6.5,35.3,12.9,52.8,19.6C365.3,495.7,366.6,496.2,368.1,497.8L368.1,497.8z"/>
	<path class="st3" d="M301.4,455.8c5,1.9,10.3,3.8,15.2,6c-2,6-1.1,4.7-7.8,2.1c-1.9-0.8-17.7-6.5-17.7-7.1c0-0.7,1.2-4.1,1.9-4.1
		C293.8,452.7,300.1,455.3,301.4,455.8L301.4,455.8z"/>
	<path class="st3" d="M321.9,463.9c1.6,0.4,5.4,1.9,7.2,2.6c7.7,2.7,16.5,5.7,23.8,9.1c1.8,0.8,4.6,1.9,3.9,4.5
		c-0.7,2.9-5.9,0.1-7.5-0.6c-3.5-1.5-29.6-11.3-29.7-11.5C319.5,467.6,320.4,463.8,321.9,463.9L321.9,463.9z"/>
	<path class="st3" d="M263.3,418.6c33.3,16.3,66.9,32.4,100,49.1c3,1.5,20.2,10.5,22.9,12.4c-1,6-17.6-4.1-22-6.5
		c-12.6-6.7-26-13-38.8-19.3c-26.3-12.9-52.6-25.7-78.9-38.6c-1.6-0.8-8-3.3-8.5-4.8c-0.5-1.5,1.2-3.7,3.5-3.1
		c0.8,0.2,7.6,3.9,9.1,4.6C254.8,414.5,259,416.5,263.3,418.6L263.3,418.6z"/>
	<path class="st3" d="M268.9,399.5c1.5,0.9,14.1,7.8,14,8.6c0,0.5-1.6,3.8-2.2,3.8c-1.1-0.4-15.4-8.7-17.1-10.1
		c-1.4-1.1-1.1-0.5-0.2-2.5c1.4-3.1,1.9-2.1,4.7-0.4L268.9,399.5L268.9,399.5z"/>
	<path class="st3" d="M338.3,439.9c16.3,8.5,12.1,6.1,28.2,15c2.4,1.3,3.2,2.1,1.5,4.6c-1.1,1.7-3,0.4-4.4-0.5
		c-16.1-9.4-12-6.5-28.2-15.6l-0.5-0.3c0.5-1.1,1.3-3.3,2.4-3.8L338.3,439.9L338.3,439.9z"/>
	<path class="st3" d="M319.5,429.1c0.8,0.5,0.5,0.4-0.4,1.8c-0.5,0.9-1,1.7-1.5,2.6c-9.3-5.1-18.5-11-27.8-16
		c-3.8-2-2.9-1.3-0.8-5.1c0.6-1,2.2,0.4,3,0.8C301.2,418.5,310.4,423.7,319.5,429.1L319.5,429.1z"/>
	<path class="st3" d="M374.8,436.9c1.1-3.9,2.7-2.8,5.5-0.9c1.9,1.3,8,5.4,7.7,7c-0.2,1.1-1.5,3.5-3.1,2.8c-0.9-0.4-6.1-4.9-7.2-5.9
		C376.7,438.9,375.8,438,374.8,436.9L374.8,436.9z"/>
	<path class="st3" d="M368.6,428.4c0.2,1.7-1.3,3.6-3.5,2.4c-4.3-2.4-10-7.7-14.2-10.9c-1.7-1.4-18.4-14.2-18.4-14.6
		c0-0.5,2.1-4.5,3.8-3.2c3.5,2.7,6.8,5.5,10.4,8.2c6.3,4.7,13.8,10.1,19.5,15.2C366.8,426.2,368.3,427.5,368.6,428.4L368.6,428.4z"
		/>
	<path class="st3" d="M377.9,423.3c-0.2-0.7,1-4,3.7-2c2,1.5,18.7,16.4,19.9,18.4c0.5,0.9,0.3,0.6-0.4,1.8c-1.9,3.3-3.4,1-5.5-1
		C394.3,439.4,378.3,424.9,377.9,423.3L377.9,423.3z"/>
	<path class="st3" d="M333.6,372.1c-23.2-20.3-46.3-40.8-69.6-61c-1.3-1.1-6.6-5.1-6.4-6.7c0.2-1.2,1.5-2.7,2.9-2.3
		c1.6,0.5,7.2,5.8,8.9,7.3c29.8,26,59.8,51.6,89,78.2c2.4,2.1,1.5,2.6-0.9,4.4c-1.2,0.9-13.5-10.2-14.9-11.5
		C339.7,377.6,336.7,374.8,333.6,372.1L333.6,372.1z"/>
	<path class="st3" d="M237.5,525.6c-2.6-0.3-3.5-1.3-2.7-3.9c1-1.7,2.5-1.4,4.3-1.2c2.6,0.4,3.2,0.5,2.6,3.3
		C241.2,526.3,239.7,525.8,237.5,525.6L237.5,525.6z"/>
	<path class="st3" d="M212.1,485.1c-1.9-0.1-11.5-1.9-12.5-3.4c-0.6-0.9-0.5-3.4,1.5-3.6c1.2-0.1,10.5,2.1,12.1,2.6
		C213.3,481.5,213.1,484.9,212.1,485.1L212.1,485.1z"/>
	<path class="st3" d="M259.8,489.7c1.4,0.2,1,0.3,0.5,2.2c-0.9,3.8,0.2,2.9-5.1,1.8c-2.6-0.5-27.3-5.6-27.5-5.8
		c-0.2-0.2,0.7-4,0.9-4.7c10.2,2.1,20.4,4.5,30.7,6.4L259.8,489.7L259.8,489.7z"/>
	<path class="st3" d="M277.3,498.5c-2.7-0.5-5.4-0.9-8-1.6c0-0.8,0.1-4.4,1.2-4.4c3.6,0.1,10.5,1.7,14.2,2.5
		C284.2,501.5,284,499.8,277.3,498.5L277.3,498.5z"/>
	<path class="st3" d="M210.1,616.5c-1.6-4.1-0.2-3.6,3.9-4.7c1.6-0.4,8.2-2.4,9.3-1.6c0.9,0.6,2.5,3.5,0.4,4.3
		c-1.5,0.6-6.6,1.5-8.5,1.9c-0.4,0.1-4.1,0.9-4.2,0.9l-0.5-0.1L210.1,616.5L210.1,616.5z"/>
	<path class="st3" d="M231.8,609.2c-0.2-2.2,1.7-2.3,3.5-2.8c1.9-0.5,15.3-4.2,15.8-3.7c0.4,0.4,1.9,3.5,0.8,4.3
		c-1,0.8-18.7,4.8-19.4,4.4C232.4,611.3,231.9,609.5,231.8,609.2L231.8,609.2z"/>
	<path class="st3" d="M259.9,604c-1.7-4.6-0.4-3.6,4.5-4.8c3.7-0.9,31.7-8.6,32.7-7.7c0.8,0.6,2.1,3.5,0.5,4.3
		c-1.5,0.8-11.8,3-14.5,3.7c-6.5,1.7-13.7,3.8-20.2,5c-0.2,0-2.3,0.4-2.3,0.4l-0.3-0.2L259.9,604L259.9,604z"/>
	<path class="st3" d="M273.3,586.8c-1.4,0.7-21.8,4.9-24.7,5.4c-1.9-6-1.1-4.4,5.3-5.9c2-0.5,17.6-4.2,18.3-3.7
		C272.8,582.8,273.7,585.8,273.3,586.8L273.3,586.8z"/>
	<path class="st3" d="M279.6,585.4c-1.8,0.4-1.1,0.6-1.7-1.7c-1-3.8,0.2-2.9,4-3.6c22.3-4.5,45.3-9.7,67.9-15.1
		c1.2-0.3,7.6-2.1,8.4-1.7c0.3,0.1,2.1,3.6,0.1,4.4c-0.9,0.4-6.9,1.9-8.4,2.3C322.6,575.9,307.1,579.9,279.6,585.4L279.6,585.4z"/>
	<path class="st3" d="M186.1,583c-2.4,0.3-4.8,0.5-7.2,0.7c-1.5-5.6-0.9-4.4,4.8-5.2c42.1-6.4,85.8-12,128.2-17.3
		c6.1-0.8,10.6-1.2,11.6-1c1.3,0.3,2,2.9,1.6,3.7c-0.4,0.9-2.4,0.9-3.2,1c-11.4,1.6-23,3.4-34.4,4.9
		C253.7,574.2,219.9,578.8,186.1,583L186.1,583z"/>
	<path class="st3" d="M193.8,560.7c-0.7-4.8,0-3.5,5.1-3.9c1.8-0.1,15.1-1.2,15.7-0.6c0.4,0.4,1.3,4.3-0.1,4.5
		c-2.3,0.4-6.7,0.4-9.1,0.6c-1.3,0.1-10.6,0.4-11.2,0.5l-0.2-0.3L193.8,560.7L193.8,560.7z"/>
	<path class="st3" d="M344.2,547.9c1,1.5,1.8,4-0.8,4.3c-3.7,0.3-7.7,0.4-11.4,0.7c-17.3,1.3-34.6,3.1-52,3.6
		c-2.3,0.1-2.4,0.8-2.7-1.7c-0.5-3.5,1.2-2.8,4.4-3.1c8.9-0.7,17.7-1.5,26.7-2.1c4.8-0.3,33.4-2.7,35.5-2L344.2,547.9L344.2,547.9z"
		/>
	<path class="st3" d="M222.5,559c-0.9-4.8,0.2-3.6,5.2-3.8c3.4-0.2,28.7-2.3,29.4-1.5c0.4,0.4,1.1,4.2,0,4.5
		c-1.1,0.3-8.5,0.5-10.5,0.6c-7,0.5-14.2,1.1-21.2,1.3c-0.6,0-2.4,0.1-2.6-0.4L222.5,559L222.5,559z"/>
	<path class="st3" d="M324,526.6c11.4,0.9,23.5,1.7,34.8,3.5c1.4,0.2,4,0.4,4.7,1.7c1.2,2,0.2,3.5-2.2,3.4c-3.3-0.2-7-0.8-10.3-1.1
		c-12.8-1.2-26.1-2-38.8-3.7c-1.7-0.2-3.4-0.6-5.1-0.9c-0.4-1.9-0.3-2.1,0.3-3.8C312.7,525.4,318.6,526.1,324,526.6L324,526.6z"/>
	<path class="st3" d="M254.3,523.8c0.1-3.1,0.9-2.2,4.1-1.8c7.6,1,16.3,1.1,24,1.7c2.2,0.2,13,0.9,14.4,1.8c0.9,0.5,2.1,4.2-0.8,4.3
		c-2.3,0.1-7.3-0.6-9.9-0.8c-2.9-0.2-31.7-2.2-31.9-2.4C254.1,526.3,254.3,523.9,254.3,523.8L254.3,523.8z"/>
	<path class="st4" d="M591.3,467.6c17.8-6.4,31.2,14.3,27.6,32.1c-3.9,19.1-23.7,53.1-48.6,36c-6.5-5.8,3-17.5,11-45.6
		C583.3,482.7,585.9,469.7,591.3,467.6L591.3,467.6z"/>
	<path class="st4" d="M552.2,437.8c8.4-3.9,20.3,3.4,25,7.6c14.8,13.1-9.2,66-20.9,80.4c-7.1,8.6-19.2,1.4-24.3-5.5
		c-6.2-8.5-2.2-14.4,1-24C541.6,470.9,543.1,442.7,552.2,437.8L552.2,437.8z"/>
	<path class="st4" d="M495.9,431.2c1.2-6.9,3.3-14.3,8.1-17.6c11.6-8.1,32.7-3.8,36.9,11.1c5.1,18.1-8.6,46.5-11.1,56.3
		c-2.1,8.5-5.9,29.3-9.6,34.7c-3.3,4.8-10.6,5.4-17.5,3.7c-20-5-17-28.1-7.5-39.7c10.2-12.4,17.9-9.9,23.5-24.2
		C525.7,435.2,509.7,430.4,495.9,431.2L495.9,431.2z"/>
	<path class="st4" d="M458,428.6c-5-15.5-2.4-27.8,16.6-26.3c14.1,1.1,20,14.3,15.9,26.8C480.1,430.2,468.2,429.7,458,428.6
		L458,428.6z"/>
	<g>
		<path class="st5" d="M443.2,618.9c-0.7-1.4-1.5-2.8-3.2-3.5c-1.3,1.1-2.5,2.3-3.9,3.5c1.8,1.2,3.4,2.4,5.1,3.4
			c0.5,0.3,1.6,0.4,2,0.1c0.5-0.3,0.7-1.3,0.7-1.9C443.9,619.9,443.4,619.3,443.2,618.9c0.4,0.1,0.9,0.3,1.4,0.3
			c0.7-0.1,1.4-0.2,2-0.6c0.2-0.1,0.2-1.2,0-1.4c-0.6-0.4-1.5-0.9-2.2-0.9C442.8,616.5,442.7,617.6,443.2,618.9z"/>
		<path class="st5" d="M453.9,518.4c-0.1,0.2-0.2,0.4-0.2,0.6c-1.2-0.1-2.4-0.3-3.5-0.1c-1.5,0.3-2-0.5-2.2-1.6
			c-0.2-0.9-0.3-1.9-0.4-2.8c-0.2-1.8-1-2.6-2.7-2.9c-1.5-0.2-2.9-0.5-4.5-0.8c-1.1,2.2-1.4,5.2-4.4,7.4c-0.4-1.7-0.6-3-0.9-4.2
			c-3.3-0.2-3.3-0.2-7.7,3.6c0.7,1.1,1.3,2.1,2,3.3c0.6,0.1,1.3,0.2,2.1,0.3c-0.3,1.6-0.5,3-0.8,4.7c-0.6-0.3-1-0.6-1.3-0.7
			c-0.8-0.2-1.5-0.3-2.3-0.4c-0.1,0.9-0.5,1.8-0.3,2.6c0.1,0.7,0.9,1.3,1.5,2.2c1-1.2,1.7-2,2.4-2.9c4.2,0.6,5.6-2.4,6.8-5.5
			c1.7,0.8,3.6,1.2,4.7,2.4c2.2,2.3,4.2,2.5,6.6,0.7c0.5-0.4,1.2-0.5,1.7-0.9c2.5-1.4,3.3-0.9,3.4,2.3c-1,0-2,0-2.9,0
			c-0.3,1.9,0.7,3,1.7,4.1c0.9,1,1.9,0.5,2.9,0.1c0.4-0.1,1,0.1,1.5,0.4c1.2,0.8,2.8,2.3,3.9,0.9c1.4-1.9,3,0.4,4.1-0.9
			c0.1-0.1,0-0.2,0-0.3c-1.1-0.8-2.2-1.9-3.4-2.4c-1.3-0.5-2.9-0.4-4.9-0.7c1.1-1.8,1.8-3.1,2.8-4.2c1.2-1.2,1.3-2,0.1-3.2
			c-0.4-0.3-0.5-0.9-0.7-1.3c0.5-0.7,0.9-1.3,1.7-2.4c-2.5,0.7-3.8,0.1-4.6-1.8c-0.5-1.5-1.8-1.9-3.4-1.9
			C451.7,514.5,451.6,516.7,453.9,518.4z"/>
		<path class="st5" d="M425.5,594.9c-0.2,1.5,0.2,2.8,1.4,3c0.6,0.1,1.6-0.7,2.2-1.3c0.9-1,1.7-1.4,3-0.6c1.8,1.1,2.2,1.9,1.6,3.5
			c-0.3,0.8-0.8,1.6,0.5,2.3c2-2.4,4-4.8,6.1-7.2c2.6,2.1-1.1,2.8-1,3.6c1.1,1.6,1.9,2.7,2.6,3.8c0.8,1.2,1.7,2.1,3.4,1.9
			c1.4-2.1,1.6-4.1,0.1-6c0.3-1.3,2.5-1.6,1.4-3.3c0-0.1,0.9-1.1,1.4-1.1c0.7,0,1.3,0.5,2,0.8c0.9,0.5,1.6,0.3,1.9-0.3
			c-0.6-2.5-1.1-4.7-1.7-7.4c-1.1,1.3-1.8,2.1-2.6,3c-1.9-0.5-2.9-1.5-2.8-3.4c0-0.6-0.3-1.2-0.6-1.8c-0.9-1.4-2.4-1.7-3.1-0.4
			c-0.8,1.5-2.2,1.4-3.3,1.7c-1,1.9,0.2,2.6,1.3,3.6c1.5,1.3,1.5,1.4-0.1,3.1c-1.2-0.5-2.3-0.9-3.4-1.4c-0.1,0-0.1-0.2-0.3-0.4
			c0-0.3-0.1-0.7-0.2-1.1c-0.1-0.5-0.1-1-0.1-1.4c-4-1.5-5.4-0.9-6.4,3C428.2,592.9,427.5,594.5,425.5,594.9z"/>
		<path class="st5" d="M431.3,605.3c-1-0.7-1.9-1.6-2.9-1.8c-1.3-0.2-2.7,0.1-4,0.3c-0.4,0.1-0.9,0.7-0.9,1c0,0.4,0.5,0.8,0.9,1.1
			c0.2,0.2,0.6,0.1,0.9,0.1c1.9-0.2,3.1,0.3,3.2,2.5c0,0.6,0.4,1.2,0.8,1.7c1,1.1,0.9,2.3,0.4,3.5c-0.2,0.5-0.4,1.1-0.6,1.8
			c1.5-0.2,2.8-0.5,3.9-0.4c2.4,0.2,4-1.2,5.5-2.6c0.4-0.3,0.5-1.5,0.2-1.9c-0.3-0.5-1.2-0.7-1.9-0.7c-0.5,0-1.2,0.5-1.6,1
			c-1.4,1.6-2.3,0.8-3.4-0.6c1-0.7,1.8-1.2,2.3-1.6c0.4-1.9,0.6-3.4,0.9-5C433.5,602.6,433.1,605.6,431.3,605.3z"/>
		<path class="st5" d="M431,564.8c-0.4,0.8-1.3,1.8-1.2,2.6c0.2,1.6,0.8,3.3,1.6,4.8c0.9,1.8,2,2.1,4,1.4c1.6-0.6,3.2-1.5,4.8-2.2
			c1.1-0.4,2.2-0.9,1.6-2.2c-0.6-1.3-1.7-0.9-2.7-0.3c-0.3,0.2-0.5,0.6-0.7,0.6c-0.6,0-1.2-0.1-2.1-0.2c1.1-1.5,2.7-2.4,1.4-3.9
			c-0.5-0.6-1.7-1.1-2.5-0.9c-2.2,0.4-1.3,2.5-1.7,4C430.9,568.1,433.3,565.4,431,564.8z"/>
		<path class="st5" d="M441.8,503.2c0.7,1.2,1.3,1.9,1.6,2.8c1.1,3.8,1.3,3.9,4.1,1.3c0.3-0.3,0.5-0.7,0.4-0.6
			c-0.7-2.5-1.3-4.5-1.9-6.7C444,500.2,443.4,502.2,441.8,503.2z"/>
		<path class="st5" d="M440.6,580.6c0.2-2-0.5-3.3-2-3.8c-1.4-0.4-2.9-0.4-4.4-0.3c-1.1,0-1.4,0.9-1.1,1.8c0.2,0.7,0.8,1.2,1.3,1.7
			C436.2,581.9,438.3,580.9,440.6,580.6z"/>
		<path class="st5" d="M448,581.7c0.5-1.2,0.8-1.9,1.1-2.6c0.4-0.9,0.5-1.7-0.5-2.2c-1.1-0.4-1.4,0.4-1.7,1.3
			c-0.8,2.5-0.7,4.8,1.1,6.8c2.6-0.4,2.9-0.7,3.4-3C450.4,581.9,449.4,581.8,448,581.7z"/>
		<path class="st5" d="M447.8,609.7c-2.5,0.8-3.9,1.8-3.9,2.9c0,1.9,1.9,2.1,3,2.8c1,0.6,2,0,1.8-1.2
			C448.7,612.7,448.2,611.3,447.8,609.7z"/>
		<path class="st5" d="M439.8,574c0,1.8,1.9,2.2,3,2.3c0.9,0.1,2.1-1.1,2.9-2c0.4-0.4,0.2-1.3,0.2-1.9c-0.6,0-1.2-0.2-1.8-0.1
			C442.8,572.8,441.4,573.4,439.8,574z"/>
		<path class="st5" d="M457,509.7c2.7,1,3.7,0.4,3.5-2.3c-0.1-1.5,0.4-3.4-2-4.1C458,505.4,457.5,507.4,457,509.7z"/>
		<path class="st5" d="M450.3,530.9c-1.6-3.1-3-3.5-5.7-1.7c0.8,1,1.6,2.1,2.4,3.2C448.1,531.9,449.1,531.5,450.3,530.9z"/>
		<path class="st5" d="M452.6,600.2c0.3-1.8-0.2-3-1.4-3.5c-0.6-0.2-1.7,0.2-2.2,0.7c-1,0.9-1.1,2.2-0.1,3.5
			C450.1,600.7,451.3,600.4,452.6,600.2z"/>
		<path class="st5" d="M455.6,559c3.5,1.6,5.3,0.5,5.6-3.5C458.5,555.5,457.2,557.3,455.6,559z"/>
		<path class="st5" d="M422.1,565.2c0.4,1.2,0.7,2.5,1.3,3.5c0.2,0.4,1.3,0.7,1.8,0.6c0.5-0.2,1.3-1,1.2-1.5
			c-0.1-0.8-0.7-1.7-1.3-2.4C424.6,564.6,423.6,564.1,422.1,565.2z"/>
		<path class="st5" d="M437.5,499.9c0.5,1.3,0.8,2.3,1.3,3.1c0.3,0.5,1.1,1.2,1.5,1.1c1.4-0.3,1.2-1.5,0.9-2.6
			c-0.4-1.1,0-2.7-1.9-2.8c-0.3,0-0.6,0.2-0.8,0.4C438,499.4,437.6,499.8,437.5,499.9z"/>
		<path class="st5" d="M465.5,629c0.1-2.1-0.6-3.3-1.7-3c-0.8,0.2-1.6,0.9-1.9,1.7c-0.4,0.9,1.3,3,2.1,2.7
			C464.7,630.1,465.2,629.3,465.5,629z"/>
		<path class="st5" d="M448.1,609.6c1.3-0.9,1.9-1.5,2.6-1.8c0.9-0.3,1.9-0.2,2.7-0.5c0.5-0.2,0.9-0.9,1.4-1.5
			C451.7,604.4,449.6,605.5,448.1,609.6z"/>
		<path class="st5" d="M420.3,587.6c0.3-1,0.8-1.9,0.6-2.4c-0.4-0.8-1.3-1.5-2.1-2c-0.2-0.1-1.2,0.4-1.5,0.9c-0.7,1,0,1.8,0.8,2.4
			C418.6,586.8,419.3,587.1,420.3,587.6z"/>
		<path class="st5" d="M433.5,582.4c0-1.9-0.9-2.8-2.2-2.7c-1,0.1-1.6,0.6-1.5,1.6c0.2,1.2,0.8,2.4,2.1,2.4
			C432.5,583.7,433.1,582.7,433.5,582.4z"/>
		<path class="st5" d="M426.7,578.6c2.5,0.5,2.7,0.4,4.4-2.3c-0.9-0.3-1.8-1.1-2.4-0.9C427.5,576,426.7,577.1,426.7,578.6z"/>
		<path class="st5" d="M431.5,619.9c0.7,2.1,1.8,2.7,3.1,2.9c0.5,0.1,1.2-0.6,1.5-1.1c0.1-0.3-0.4-1.3-0.8-1.4
			C434.2,620,433.1,620,431.5,619.9z"/>
		<path class="st5" d="M478.8,544.6c-0.2-0.3-0.5-0.6-0.7-0.8c-0.9,0.4-1.9,0.6-2.7,1.2c-0.4,0.3-0.4,1.2-0.7,1.8
			c0.7,0.1,1.6,0.5,1.9,0.2C477.5,546.4,478.1,545.4,478.8,544.6z"/>
		<path class="st5" d="M424.5,598.9c-2.2-1.3-2.9-1.1-4.3,1.5C422.4,601.5,422.9,601.3,424.5,598.9z"/>
		<path class="st5" d="M449.5,536.4c-0.8,1.2-1.5,1.8-1.7,2.6c-0.2,1,0.5,1.6,1.5,1.6c1.1-0.1,1.7-0.9,1.5-1.9
			C450.7,538,450.2,537.5,449.5,536.4z"/>
		<path class="st5" d="M425.6,593.8c0.6-1.7,0.1-2.7-1.5-2.9c-0.4,0-1.4,0.8-1.4,1.1C422.8,593.7,423.9,594,425.6,593.8z"/>
		<path class="st5" d="M471.3,543.4c0-0.3,0.1-0.5,0.1-0.8c-0.6-0.4-1.2-1.1-1.9-1.2c-0.7,0-1.9,0.4-2,0.9c-0.3,1.2,0.7,1.7,1.7,1.7
			C469.9,544.1,470.6,543.6,471.3,543.4z"/>
		<path class="st5" d="M468.6,537.3c1.4,1.1,2.5,1.4,3.4,0.1c0.2-0.2-0.1-1.1-0.4-1.3C470.4,535.4,469.5,536.1,468.6,537.3z"/>
		<path class="st5" d="M439.6,560.7c-1.5-1-2.4-0.7-3.2,0.2c-0.3,0.3-0.4,1.2-0.2,1.4c0.4,0.3,1.2,0.6,1.6,0.4
			C438.4,562.2,438.9,561.5,439.6,560.7z"/>
		<path class="st5" d="M425.8,536.6c1.1,0.9,2,0.5,2.4-0.4c0.3-0.6-0.2-1.5-0.3-2.2c-0.6,0.3-1.4,0.4-1.7,0.8
			C425.8,535.3,425.9,536.1,425.8,536.6z"/>
		<path class="st5" d="M439.4,508.6c-0.9-0.7-1.3-1.3-1.9-1.4c-1-0.1-1.6,0.6-1.4,1.6c0.1,0.5,0.9,1.2,1.4,1.2
			C438,510,438.5,509.3,439.4,508.6z"/>
		<path class="st5" d="M453.5,576.7c-1.5,1.2-0.8,2.4-0.2,3.8C455.2,578.7,455.2,578.7,453.5,576.7z"/>
		<path class="st5" d="M438.6,537.7c-1-0.7-1.6-1.2-2.3-1.4c-0.1,0-1,1-0.9,1.3c0.2,0.5,0.8,1.1,1.3,1.3
			C437.1,539,437.7,538.4,438.6,537.7z"/>
		<path class="st5" d="M460,534.7c-0.7-0.6-1-1.1-1.6-1.2c-0.2-0.1-0.7,0.6-1,0.9c0.4,0.4,0.8,1,1.2,1.2
			C458.9,535.6,459.4,535.1,460,534.7z"/>
		<path class="st5" d="M431,633.7c-0.9-0.7-1.9-1.5-3.3-2.6C428,633.6,429.1,634,431,633.7z"/>
		<path class="st5" d="M444.3,607.9c1.8,0,2.2-0.8,2.2-2.3C445,605.7,444.3,606.2,444.3,607.9z"/>
		<path class="st5" d="M466.9,536.9c-0.8-0.5-1.3-0.9-1.8-1c-0.2,0-0.8,0.7-0.7,1.1c0,0.3,0.7,0.8,1.1,0.8
			C465.8,537.8,466.2,537.3,466.9,536.9z"/>
		<path class="st5" d="M433.1,532.2c-2.1-0.5-2.1-0.5-2.2,1.7C431.8,533.3,432.5,532.8,433.1,532.2z"/>
		<path class="st5" d="M440.5,545c0.1,0.9,0.2,1.9,0.3,2.8C441.9,546.8,441.9,545.9,440.5,545z"/>
		<path class="st5" d="M469,512.1c2.4,0.5,2.4,0.5,2.6-1.2C470.9,511.2,470.3,511.5,469,512.1z"/>
		<path class="st5" d="M425.8,515.5c0.3-0.2,0.6-0.4,0.9-0.6c-0.3-0.5-0.6-1-1-1.4c0-0.1-0.5,0.2-0.8,0.4
			C425.2,514.4,425.5,515,425.8,515.5z"/>
		<path class="st5" d="M441.7,566.4c0.2-0.8,0.6-1.6-0.6-1.9c-0.3-0.1-0.9,0.3-0.9,0.5C440.1,566,440.6,566.5,441.7,566.4z"/>
		<path class="st5" d="M459.8,571.2c0.9,0.3,1.5,0.5,2.2,0.6c0.1-0.3,0.3-0.6,0.2-0.8C461.6,570.2,461,570,459.8,571.2z"/>
		<path class="st5" d="M451,534.8c0.3,0,0.6,0.1,0.9,0.1c0-0.7,0-1.3,0-2c-0.2,0-0.4,0-0.6-0.1C451.2,533.5,451.1,534.2,451,534.8z"
			/>
		<path class="st5" d="M427.3,555.3c0.5-0.4,0.9-0.7,0.9-0.9c0-0.3-0.4-0.8-0.7-0.8c-0.3,0-0.8,0.3-0.9,0.6
			C426.6,554.4,427,554.7,427.3,555.3z"/>
		<path class="st5" d="M441.3,518.8c0.2-0.9,0.3-1.7,0.5-2.5c0.1-0.2,0.8-0.3,1.1-0.2c0.3,0.1,0.7,0.7,0.6,0.9
			c-0.3,0.8-0.8,1.5-1.2,2.2C442,519,441.6,518.9,441.3,518.8z"/>
		<path class="st5" d="M444.3,589.8c0.5,1.5,0,2.4-1.4,2.6c-0.3,0-0.9-0.4-0.9-0.7C441.9,590.1,443,590,444.3,589.8z"/>
	</g>
	<g>
		<path class="st5" d="M531.5,778.9c1.8-0.6,1.9-1.8,0.8-3.1c-1-1.1-0.8-2.1,0.3-3c0.4-0.3,0.6-0.7,1.1-1.3
			c-0.8-0.2-1.4-0.6-1.7-0.4c-1.1,0.7-2.3,1.5-3.2,2.5c-0.8,0.9-1.4,2.1-2.3,3.5c0.3,1.2,1.3,2,2.9,1.2
			C530.4,777.6,531,778.1,531.5,778.9c-1.4,1-2.9,2-4.8,3.1c-1.2-0.1-3-0.3-4.8-0.4c2.5,3.7,3.7,3.9,7.1,1.5
			C530.5,782.1,531,780.6,531.5,778.9z"/>
		<path class="st5" d="M510.9,793.6c-3.1-1.4-3.3-1.9-2.2-5.2c0.2-0.7,0-1.5-0.1-2.1c-1.4-0.1-2.5-0.4-3.5-0.3c-0.8,0-2,0.2-2.2,0.7
			c-0.3,0.7,0,1.8,0.2,2.6c0.1,0.4,0.7,0.6,0.8,1c0.8,1.9,2.6,3.7,0.6,6c-0.3,0.4-0.3,1.6,0.1,2c1.7,1.6,3,3.9,6.1,3.6
			c0.2-0.6,0.9-1.5,0.7-1.9c-1.2-2.1-0.1-4.1-0.3-6.2c2.9,0.3,5.5,2.1,8.6,1c0.1-1,0.2-1.9,0.3-2.8c1.6-1.2,3.8-1.9,3.6-4.9
			c-3.4,2-6.8,2.9-10.8,2C512.2,790.5,511.6,792,510.9,793.6z"/>
		<path class="st5" d="M537,709.1c-3.2-1-3.2-1-3.4-4.2c-1.9-0.3-4-0.6-6.1-1c-0.1-0.9-0.1-1.8-0.2-2.5c-3-0.6-5.8-1.2-8.9-1.9
			c0.5-0.8,0.6-1.5,1-1.9c3.6-3.3,3.9-4.1,2-8.5c0.3-0.1,0.8-0.4,0.8-0.4c1.4,1.8,3.6,2.3,5.4,3.4c2,1.3,3.8,2.1,6.3,1.5
			c0.4,1.2,0.7,2.4,1.3,3.6c0.6,1.3,1.3,2.7,2.2,3.8c0.4,0.5,1.6,0.9,1.9,0.7c1.6-1.3,3.4-0.9,5.4-0.5c0.1-1.7-0.6-3.7,1.7-4
			c1.6-0.2,3.3,0,5.5,0c0.4-0.4,1.4-1.2,2.3-2.1c2.1-1.9,2.4-4,0.8-6.3c-0.2-0.4-1-0.4-1.9-0.7c0.3,1.6,0.4,2.7,0.6,3.5
			c-1.8,0.9-3.3,1.7-4.5,2.3c-1.4-0.6-2.9-1.1-4.5-1.7c-0.7-0.6-1.5-1.6-2.5-2.3c-3-2.2-3.3-2.1-4.3,1.5c-0.1,0.2-0.2,0.3-0.3,0.5
			c-1.4,0.2-2.9,0.5-4.1,0.7c-2.1-1.5-3.4-3.4-4-5.8c-0.3-1.4,0.1-5.8,0.8-6.7c0.1,0.3,0.3,0.6,0.4,0.9c0.8,4,2,4.4,5.3,2.1
			c0.7-0.5,1.2-1.6,2.4-0.7c-0.4,0.9-0.8,1.7-1.2,2.6c2.4,1.6,4.8,2.5,8.3,1.7c-1.8-0.7-3.7,0.2-3.8-2.1c2-1.1,2.8-4.2,6-3.7
			c0.4,0.1,0.8-0.6,1.3-0.8c0.9-0.5,1.7-1.1,2.7-1.4c1.4-0.4,1.9-0.9,1.7-2.5c-0.1-1.2,0.1-2.5,0.5-3.6c0.3-1,1.3-1.2,2.1-0.6
			c0.7,0.5,1.3,1.5,0.5,2.2c-2.6,2.2-0.6,4,0.4,5.8c0.2,0.4,1.2,0.4,2.3,0.8c-0.4-1.8-0.6-3.1-0.8-4.4c2.8-0.9,2.6,3.1,4.9,2.7
			c1.6-2.1,1.6-2.2,1-4.6c-0.9-3.1-0.9-3.1,1.8-5.1c0.2-0.1,0.3-0.3,0.5-0.4c2.2-1.7,2.5-2.7,1.4-5.8c-1.2,0.1-2.3,0.1-3.6,0.2
			c0.1-1.2,0.1-2.1,0.2-3.2c-3.1,0.9-6.3,1.1-7.9,3.9c-0.1,1.4-0.3,2.6-0.4,3.9c-2.6-0.2-4.9-0.4-7.2-0.6c-0.5,2.2-0.5,2.2,2.7,4.2
			c-4.5-1.6-6.7,2.3-9.8,4.1c-1.9-3.2-1.3-3.9,3.6-5c0.4-1.6,0.7-3.2,1.1-4.7c1.7-0.1,3.1-0.1,4.5-0.3c0.6-0.1,1.4-0.6,1.7-1.1
			c0.8-1.3,1.4-2.8,1.9-4.3c0.5-1.4,0.6-3,0.9-4.5c0.9-1.2,4.1,2.3,3.8-1.8c-1.4-0.7-2.8-1.4-3.8-2c-1.7,0.9-3,1.5-4.6,2.3
			c-0.9,1.5-0.8,3.2,0.2,4.9c0.8,1.3,0.4,3.2-0.8,3.2c-2.8-0.1-3.9,1.6-5.2,3.5c-0.2,0.4-0.9,0.4-1.4,0.6c-0.8-0.9-1.4-1.6-2.1-2.4
			c-2.9,1.2-4.5,3-3.9,6.2c0,0.1,0,0.2,0,0.3c-0.1,2.5-0.7,3.1-3.3,3.7c-0.7,0.1-1.2,0.7-1.8,1c-0.4,0.3-0.9,0.8-1.2,0.8
			c-1.7-0.3-2.8,0.7-4,1.6c-0.8,0.6-1.8,1-2.8,1.5c-0.3-2.6-0.3-2.6,1.3-3.7c0.6-0.4,1.2-0.9,1.4-1.5c0.4-1.7,0.6-3.4,0.9-5.3
			c-0.4-0.1-1.1-0.4-1.4-0.2c-1.8,1.6-4,2.4-6.3,3.1c-1.2,0.4-2.1,1.1-3.4,0.8c-0.5-0.1-1.3,0.1-1.8,0.4c-1.1,0.6-2.1,1.3-3.3,2.1
			c0,2.9,1.8,5.3,3,8c-1.2-0.4-2.3-1-2.7-1.9c-0.6-1.3-1.4-1.7-2.7-1.6c-0.5,0-1-0.2-1.3-0.2c-0.7-1.1-1.2-2-1.8-2.9
			c-0.2,0.1-0.5,0.2-0.7,0.2c0,1.8,0,3.6,0,5.7c-2.2-0.8-4.1-1.5-6.1-2.2c-1,3.3,0.3,4.4,5,4.6c0.2,0.4,0.4,0.8,0.6,1.3
			c1.1,2.6,1.1,2.6,3.9,1.9c0.6-0.2,1.2-0.3,1.9-0.4c3.8-0.7,6.9-2.4,8.8-5.8c0.3-0.5,0.6-1.2,1.1-1.5c0.6-0.4,1.4-0.4,2.5-0.6
			c-0.6,2.3-1,4-1.4,5.8c-1.1,0.7-2.5,1-2.7,3c-0.1,1.4-1.2,2.8-1.9,4.1c-1.1,0-2.1,0-3.2,0c0.1,1.2,0.2,2.2,0.4,3.9
			c-1.7-1.6-3.2-2-4.5-0.6c-0.4,0.5-0.6,1.7-0.3,2.3c0.2,0.4,1.5,0.6,2.2,0.4c0.8-0.3,1.5-1,2.7-1.9c0.3,1.8,0.6,3.2,0.7,4.6
			c0.1,2.3,1.5,3.5,3.7,2.8c0.4-0.1,0.8-0.6,1.1-0.5c0.6,0.1,1.2,0.5,1.8,0.8c-0.3,0.6-0.5,1.4-1,1.7c-0.7,0.4-1.6,0.4-2.7,0.7
			c0.2,1.8,0.4,3.4,0.6,5c0.1,0.9-0.2,2.2,1.1,2.2c0.6,0,1.4-1.1,1.8-1.8c0.6-1,1-2.2,1.6-3.5c1,0.4,1.7,0.8,2.3,1
			c0.7,0.2,1.4,0.2,2.1,0.2c0.5,3.3,0.5,3.3,3.8,3.7c0.5,2.1,1.4,4,3.9,3.8c0.4,1,0.8,1.8,1.1,2.7c2.3-1.5,3.3-4,2.4-5.7
			C538.7,712.4,537.8,710.7,537,709.1c0.2,0.1,0.4,0.4,0.6,0.6c2.1,1.9,2.6,2,4.4,0.9c2.3-1.4,2.4-1.7,1.6-4.5
			c-0.1-0.4,0-0.9-0.2-1.2c-0.3-0.5-0.8-1-1.3-1.1c-0.3-0.1-0.8,0.4-1.1,0.8c-0.3,0.4-0.5,0.9-0.7,1.2c-1.9,0.2-2.1-2.7-4.4-1.6
			C536.3,705.7,536.7,707.4,537,709.1z"/>
		<path class="st5" d="M483,739.8c1,2.1,1,2.1,3.4,3.6c0.4,0.3,0.9,0.6,1.2,1c0.7,0.9,1.3,1.7,2.6,1.2c1-0.4,1.2-1.2,1.3-2.3
			c0.2-1.9,0.7-2.1,2.5-1.5c0.6,0.2,1.1,0.5,1.8,0.9c-0.2,0.8-0.7,1.6-0.5,2.1c0.2,0.7,0.9,1.3,1.5,1.7c0.4,0.2,1.1-0.2,1.6-0.4
			c-0.2-0.7-0.3-1.4-0.6-2c-0.6-1-1.3-2-2.1-3.3c-0.5,0-1.4,0-2.3,0c-1.1-1.4-0.6-2.5,0.4-3.5c0.9-0.8,1.8-1.6,2.9-2.7
			c-1.6-0.8-2.6-1.3-3.9-1.9c1.2-2.5,2.3-4.9,3.4-7.3c-2.1-0.9-2.1-0.9-1-3.3c0.6,0,1.2,0,1.8,0c0.7-0.1,1.4-0.2,2.1-0.4
			c-1.8-3.5-3.5-4.5-6.8-4.3c-0.9,0.1-1.9-0.1-2.7-0.5c-1.2-0.5-1.6-1.5-0.8-2.6c0.7-1,1.6-0.8,2.4,0.1c1.1,1.3,2.6,1.5,4.1,1.1
			c0.6-0.2,1.3-0.8,1.5-1.4c0.1-0.3-0.4-1.2-0.9-1.5c-2-1.3-3.9-2.9-6.7-2.4c-1.3,0.2-3-0.1-3.3-1.9c-0.5-2.9-2.5-3.7-4.9-3.6
			c-1-0.7-0.8-2.5-2.9-2.2c0.3,0.7,0.4,1.4,0.8,1.8c0.7,0.6,1.1,1,0.9,2.1c-0.3,2.6-0.2,2.6,2.4,2.8c0.5,0,0.9,0.3,2,0.6
			c-1,0.9-1.6,1.5-2.3,1.9c-0.5,0.3-1.3,0.2-1.8,0.5c-0.7,0.5-1.2,1.3-1.7,2c-0.1,0.1,0.3,0.6,0.5,0.7c1.1,0.6,1.8-0.1,2.5-0.8
			c0.8-0.8,1.5-1.7,2.7-0.8c1.1,0.9,0.3,1.7-0.3,2.5c-0.7,1-0.7,1.9,0.2,2.9c0.3,0.3,0.5,0.9,0.8,1.5c-1.1,0.5-2.1,0.8-3.2,1.3
			c-0.1-1-0.3-1.8-0.3-2.2c-2.9-1.7-5.4-3.6-8.8-3.5c0,0-0.2,0.1-0.4,0.2c-2.5,1.4-3.2,1.1-3.7-1.7c-0.1-0.8-0.3-1.7-0.6-2.5
			c-0.6-1.6-1.8-2.1-3.2-1.1c-1.6,1.2-3,2.6-4.5,3.9c-1.1,0.2-2.6,0.1-3.4,0.8c-0.6,0.6-0.2,2.2-0.3,3.5c-0.6-0.3-1.4-0.4-1.6-0.8
			c-1.3-3,0.3-6.2,3.6-7.1c1-0.3,2-0.6,2.9-0.9c0.1-3.4-0.1-3.5-3.1-3.3c-0.6,0-1.2-0.2-2-0.4c1.3-2.2,1.3-4.1,0-5.1
			c-0.4-0.3-1.2-0.4-1.7-0.3c-0.3,0.1-0.7,0.8-0.7,1.2c0,0.9,0.3,1.8,0.4,2.6c-3.5,2.4-3.5,2.4-0.9,5.2c0.1,0.1,0,0.4,0,0.2
			c-1.2,0.2-2.4,0.3-3.1,0.4c-1.6-1.3-2.8-2.9-4.3-3.3c-2-0.6-4.3-0.4-6.6-0.5c-0.8,2.8,3.9,3.7,2.1,6.8c2.7-2.5,2.7-2.5,6.9-0.6
			c-0.4,2.4-0.7,4.8,2.1,6.3c1-0.6,1.7-2.8,3.1-0.5c-0.2,0.9-0.6,1.8-0.6,2.7c0,1.6,1.2,2.8,2.3,2.4c1.6-0.6,3.4-1.1,4.4-2.3
			c1.7-1.8,3.4-1.8,4.9-1.4c1.1,3.1,2.1,5.8,3.1,8.5c1,0.3,2,0.7,2.4,0.8c0.6,1.3,0.8,2.3,1.4,2.7c1.1,0.8,1.9-0.1,2.7-1
			c1-1.1,1.5-2.3,0.6-4c-2.7,0.6-3.2-1.6-4.4-3.3c3.1-1.9,3.1-1.9,6.1-0.6c0.4,1.3,0.5,2.7,1.3,3.6c1.1,1.4,0,2.5-0.3,3.7
			c1.3,0,2.3,0,3.6,0c0-1.3,0.1-2.4,0-3.5c-0.3-2.1,0.2-3.3,2.2-3.9c0.9-0.3,1.3-0.6,1.7-1.5c1.3-2.8,6.2-3.2,8.5-0.7
			c-4.1,1.9-3.9,5.3-3,8.9c-2.5,0.4-2.6,0.4-2.6-1.4c0-1.5,0.5-3,0.7-4.5c-2.3-0.5-2.8-0.5-2.9,0.2c-0.4,2.2-3.2,3.6-2.1,6.4
			c0.2,0.5-0.5,1.5-1,2.1c-0.5,0.6-1.4,1-2,1.4c0.2,0.9,0.5,1.7,0.4,2.5c0,0.9-0.4,1.7-0.6,2.8C481.6,739.8,482.3,739.8,483,739.8z"
			/>
		<path class="st5" d="M563.7,761c-1.2-1.1-2-1.8-2.7-2.7c-0.7-0.8-1.8-1.9-1.7-2.7c0.3-1.7,1-3.4,2-4.8c1.7-2.7,1.8-3.1-0.2-5.3
			c-1.1-1.1-2.1-2.3-3.7-4c1.3,0.2,1.8,0.4,2.2,0.3c0.6-0.1,1.2-0.5,1.8-0.8c-0.3-0.6-0.4-1.4-0.9-1.8c-0.7-0.7-1.6-0.7-2.6,0
			c-1.6,1.1-3.6,1-5,0.1c4.4-3.5,5.1-5.1,3.5-7.7c-1.2-2-2.3-2.2-5.8-0.9c-0.4,1.6,0.6,2.5,1.7,3.4c0.4,0.4,0.8,1.3,0.6,1.9
			c-0.2,0.6-1,1.1-1.6,1.3c-0.3,0.1-0.9-0.7-1.3-1.1c-0.5-0.5-0.9-1.3-1.5-1.4c-1.4-0.2-3.1-0.5-4.2,0.1c-1.4,0.7-2.4,2-4.2,1.9
			c-0.3,0-0.8,0.9-1,1.4c-0.1,0.3,0.3,1,0.5,1c0.6,0,1.2-0.1,1.7-0.4c0.6-0.3,1.2-1.1,1.8-1.1c1.8,0,3.5,0.3,5.3,0.5
			c0.5,1.8,0.9,3.4,1.5,5.4c-1.1-0.1-2-0.3-2.8-0.4c-0.4-1.5-0.8-2.7-1.3-4.5c-3.1,2.8-6.5,4.2-9.3,6.6c3.4,2.1,3.6,2.1,6.2,0
			c0.7-0.6,1.4-1.4,2.7-0.5c-0.1,0.8-0.3,1.7-0.3,2.6c0,1.4,1.2,1.6,2.2,1.8c2.8,0.4,4.1-0.5,5.3-3.6c2.3-0.7,3.7,0.9,5.3,2.2
			c-0.4,0.3-0.7,0.5-0.9,0.6c-3.4,1.9-4,4.9-1.7,7.8c1.3,1.7,2.3,3.8,4.6,4.5c0.3,0.1,0.5,0.6,0.8,1.1c-0.9,2.2-1.7,4.4-2.8,6.4
			c-1.5,2.7-2.2,2.7-3.9,0.2c-0.7-1-1.4-1.4-2.3-0.8c-0.9,0.6-1.1,1.6-0.5,2.5c1.9,2.7,3.3,5.7,5.7,8.1c0.8,0.8,1.6,0.9,2.7-0.1
			c-0.6-1-1.2-2.1-1.9-3.3c1-1.5,2.3-2.9,3.2-4.5c1.4-2.8,1.3-2.9,4.4-2.7c1.8,0.1,2.5-0.5,2.7-2.3c0.1-0.6,0.1-1.2,0.1-1.6
			c1.6-1.1,3-2,4.3-2.9c-0.6-1.5-1.6-2.4-2.5-1.6C567.9,761.1,565.3,759.9,563.7,761z"/>
		<path class="st5" d="M567.1,733.1c-0.2-0.3-0.4-0.9-0.8-1.1c-1.9-1.1-1.7-2.5-1-4.3c0.8-2.3,1.7-4.7,1.4-7
			c-0.4-3.2,1.1-5.8,1.7-8.7c0.3-1.2,0.3-2-0.6-2.8c-1-1-2-2.1-2.9-3.1c1.1-1.5,1.9-2.7,3-4.3c-2.2-0.6-3.8-1.1-5.9-1.7
			c-0.7-0.6-0.5-2.8-2.7-2.7c-0.7,2.7-0.7,2.7-1.8,3.9c-0.5-0.6-1-1.1-1.4-1.7c-1.2-1.4-2.6-0.6-3.8-0.1c-1.1,0.4-0.9,1.5-0.7,2.5
			c0.1,1,0.2,1.9,0.3,3.2c-2.1-0.2-3.6-0.3-5.5-0.4c0.5,1,0.7,1.9,1.2,2.6c0.9,1.2,2.6,1.5,3.6,0.3c1.6-2,3.9-2.3,6.3-3.2
			c1.1,2.1,2.1,4.1,3,5.9c-1.1,1.1-2.2,1.8-2.5,2.7c-0.3,0.9,0.5,1.8,1.8,1.7c0.3-0.4,0.7-0.7,0.9-1.2c0.3-0.4,0.4-0.9,0.6-1.4
			c2,3.3,1,5.9,0.2,8.7c-0.8-0.5-1.5-1-2.6-1.8c-0.7,0.7-1.4,1.3-2.2,2c1.7,2.2,2.2,4,0.9,6c-0.6,1,0.2,1.8,1.1,2.3
			c0.9,0.4,1.8,0.6,2.6,1.2c0.5,0.4,1.1,1.2,1,1.7c0,0.5-0.8,1.1-1.3,1.5c-0.4,0.3-1,0.5-1.6,0.7c1.1,1.9,2.9,2.9,4.4,2.6
			c0.5-0.1,1-0.5,1.2-0.8C565.8,735.3,566.4,734.2,567.1,733.1z"/>
		<path class="st5" d="M454.6,727.3c-0.5-1-0.6-1.8-1.1-2.3c-0.5-0.5-1.5-1.1-1.8-0.9c-1.7,1.1-4,1.2-5.5,3.5c1,0.7,1.9,1.4,2.5,1.9
			c0,1.5-0.3,2.7,0.1,3.7c1.2,2.9,3,5.6,2.6,8.9c0,0.5,0.3,1.1,0.6,1.4c0.8,1,1.7,1.2,2.6,0c-1.1-3.5-1.3-7,0.3-9.8
			c1.6-0.8,2.9-1.4,4-1.9c1.4,1.1,3,2.4,4.6,3.8c-1.8,1.5-0.6,2.9,0.3,4.3c1.2-0.8,2.2-1.4,3.3-2.1c0.6-0.4,1.2-0.8,1.7-1.4
			c1.4-1.6,1.1-2.9-0.9-3.6c-1.1-0.4-2.2-0.8-3.3-1c-1.8-0.3-2.8-1.1-2.9-3.1c-0.1-1.8-0.6-2-2.5-1.8
			C457.7,727,456.2,727.1,454.6,727.3z"/>
		<path class="st5" d="M499.4,731.9c0.7,2.3,1.5,4.6-1.2,6.2c-0.9,0.5-1.1,1.9-0.1,2.8c0.9,0.8,2.2,0.7,2.8-0.3
			c1.2-2,2.9-3.8,2.7-6.5c-0.2-3-0.1-3,2.6-4c0.4-0.2,0.9-0.3,1.1-0.6c0.4-0.6,1.1-1.3,1-1.8c-0.2-0.7-1-1.2-1.6-1.6
			c-0.6-0.4-1.5-0.5-2.3-0.7c1.9-2.5,2-2.7,1.6-4.6c-0.7-3.3-0.5-3.8,2.6-5.4c-0.2-0.7-0.3-1.4-0.5-2c1-0.6,2.1-0.9,2.8-1.6
			c0.6-0.6,1-1.7,0.9-2.5c-0.1-1.2-1.3-1.2-2.3-1.1c-1.6,0.2-3.1,0.8-3.8,2.4c-3.9-0.6-5.5,0.6-6.3,4.9c0.5,0.1,1,0.2,1.4,0.4
			c1.4,0.5,2.4,2.4,1.7,3.5c-2,3-1.8,6-0.7,9.2c0.2,0.6-0.3,1.5-0.7,2.2C500.6,731.2,500,731.5,499.4,731.9z"/>
		<path class="st5" d="M505.7,771.6c-1.5-0.7-2.3-0.1-2.7,1.2c-0.5,1.5-0.7,3.2-1.6,4.4c-1.6,2.3-1,4.1,0.3,6.2
			c2.5-0.7,2.7-2.7,2.7-4.7c3-0.2,3-0.1,3.3,4c1.3-1.9,2.3-3.5,3.4-5.2c1.5,1.4,3,1.6,4.8,1c1.9-0.6,3.9-0.8,5.9,0.4
			c0.4,0.3,1.1,0,1.9,0c-0.2-0.6-0.2-1.2-0.5-1.4c-1.2-0.8-2.3-1.6-2.9-3.1c-0.5-1.4-3.9-1.7-4.8-0.5c-2.2,2.9-5.6,2.6-9,4.1
			C506.2,775.4,506,773.5,505.7,771.6z"/>
		<path class="st5" d="M491.7,786.5c0.3,0.6,0.7,1,0.8,1.5c0.2,1-0.1,2.3,1.1,2.7c1.1,0.4,2.2,0.8,3.3,0.9c1.7,0.2,2.5-0.5,2.5-1.7
			c0-1.4-0.9-1.6-2.1-1.7c-0.8-0.1-2.1-0.8-2.2-1.3c-0.2-1.9-1.2-3.9,0.2-5.8c0.5-0.7,0.7-1.7,1.2-2.9c-2.6-1.2-3.1-3.4-2.3-5.9
			c-2.5-0.9-3.7,1.2-5.3,1.9c-0.4,0.2-0.9,1-0.8,1.2c0.2,0.5,0.8,1,1.3,1c1.2,0.1,2.1,0.3,2.5,1.6c0.9,2.8,2.1,5.6-1.1,7.8
			c-0.7-0.5-1.4-1.1-2.2-1.3c-0.5-0.2-1.4,0.1-1.6,0.4c-0.3,0.4-0.3,1.2,0,1.7c0.6,1.2,2,1.5,3.3,0.8
			C490.7,787.2,491.1,786.9,491.7,786.5z"/>
		<path class="st5" d="M570,748.3c-3.3,0-4.3,3.4-6.9,4.4c-0.2,0.1-0.2,0.6-0.3,0.9c-0.6,3.2,1.2,4.9,4.5,4.7
			c2.3-0.1,4.6-0.1,6.9,0.2c1.3,0.2,2.4,0.3,2.9-1c0.4-1.3-0.6-2-1.6-2.4c-2.7-1-5.4-2.7-8.2-0.2c-0.1,0.1-0.4-0.1-0.5-0.2
			c-0.2-2.6-0.2-2.7,2.2-3.7C570.3,750.4,570.9,749.8,570,748.3z"/>
		<path class="st5" d="M488.1,796.4c-0.6,1.6-3,2.1-1.6,4c0.1,0.2-0.4,0.9-0.7,1.3c-0.5,0.6-1,1.3-1.8,2.3c3.4,0.6,2.6,3.7,3.8,5.5
			c2.5-0.3,2.6-0.4,2.7-2.3c0.1-2.3,0.2-4.7-1.5-6.5c0.3-0.4,0.4-0.7,0.6-0.9c1.8-2.1,1.8-2.1,0.3-4.5c-0.3-0.5-0.4-1.3-0.3-2
			c0.2-2,0.2-2-2.2-1.9C487,793.2,486.5,794.9,488.1,796.4z"/>
		<path class="st5" d="M534.2,787c-4.2-0.2-4.1,3.2-5.3,5.5c-1.3,0-2.5,0-3.8,0c1,2.3,1.1,2.6,2.3,2.4c1.9-0.3,4.3,1,5.8-1.5
			c0.2-0.3,1-0.3,1.5-0.4c2.1-0.4,4.3-0.8,6.4-1.2c0.4-0.1,0.6-0.7,0.9-1c-2-2.9-4.2,0.2-6.2-0.4C535.2,789.2,534.6,787.9,534.2,787
			z"/>
		<path class="st5" d="M548,798.3c0.6,3.2,0.6,3.2,1.7,4.3c2-0.7,2.3-2.6,2.7-4.3c0.3-1.4,0.4-2.6,2.2-2.9c1.3-0.3,1.5-1.4,0.7-2.5
			c-1.1-1.6-3-1.5-4.2,0c-1,1.2-2.1,2.3-3,3.3c-5.1-2.2-5.1-2.2-7.8-0.3c0.8,1.9,2.5,0,3.7,0.8C545,797.5,546.4,797.7,548,798.3z"/>
		<path class="st5" d="M479.5,734.2c-0.5-1-1.3-1.5-2.7-0.8c-0.9,0.5-2.1,0.5-3.3,0.8c-0.8,1-1.7,2.1-0.7,3.8
			c0.5,0.8-0.2,1.7-1.1,2.3c-1.2,0.7-2.3,1.6-3.6,2.5c1.9,1.7,4.6,2.2,6,1.3c0.5-0.3,1.1-1,1-1.4c-0.2-1.6,0.6-2.6,1.9-3.3
			c0.3-0.2,0.5-0.6,0.7-1C478.3,736.9,478.9,735.6,479.5,734.2z"/>
		<path class="st5" d="M548.8,755c0.1-4.1-0.9-4.9-3.9-3.4c0,1.4,0,2.7,0,4.1c-0.1,2.3,0.6,3.3,2.9,3.7c1.6,0.3,3.3,0.3,4.9,0.4
			c1.1-2.1-0.3-3.5-1.2-5.1C550.6,754.8,549.7,754.9,548.8,755z"/>
		<path class="st5" d="M557.1,784.7c-1,1-2,1.7-2.6,2.7c-0.4,0.7-0.6,1.9-0.2,2.6c0.5,1.1,1.8,0.9,2.5,0.2c1.4-1.6,3.1-2.6,5.1-3.2
			c0.1,0,0.1-0.4,0.1-0.6c-0.2-0.2-0.3-0.6-0.6-0.7c-2-0.7-3.3-1.7-3.9-4.1c-0.4-1.6-2-2.8-4-3.2C552,781.9,555.4,782.4,557.1,784.7
			z"/>
		<path class="st5" d="M525.6,768.8c-1.7-0.3-2.9-1-3.6-2.7c-0.5-1.1-1.6-1.8-3.5-1.7c0.8,1.7,1.2,3.2,2.1,4.4
			c0.7,1,0.9,1.8,0.7,2.9c-0.3,2.7,1,3.9,4.3,3.8C525.6,773.4,525.6,771.3,525.6,768.8z"/>
		<path class="st5" d="M534,758.9c1,0.9,1.9,1.6,2.6,2.4c0.8,1,1.3,2.2,2.1,3.2c0.4,0.5,1.3,1.2,1.6,1.1c0.7-0.2,1.3-1,1.6-1.7
			c0.8-2.3-0.3-4.4-2.9-6.2C536.2,755.8,536.1,755.9,534,758.9z"/>
		<path class="st5" d="M546,709.6c-0.2,0.1-0.3,0.2-0.5,0.3c0.4,1,0.7,2,1.1,3c1.2,2.8,3.1,3.6,5.8,2.4c1.3-0.6,1.6-1.7,1.3-2.9
			c-0.3-1.2-1.3-1.2-2.3-0.8c-1.7,0.6-3.1,0.3-4.2-1.2C546.9,710,546.4,709.9,546,709.6z"/>
		<path class="st5" d="M516.8,731.2c1.9,2.5,3.4,3.1,5.3,2.4c1.7-0.7,1.9-1.1,1.6-4.2c-0.8-0.5-1.8-1-2.8-1.5
			C519.5,729,518.1,730.1,516.8,731.2z"/>
		<path class="st5" d="M515.6,712.4c-1,0.3-1.5,0.3-1.7,0.6c-1.1,2.1-1.4,4.5-3.3,6.3c-0.8,0.7,0.6,2.7,1.8,2.8
			c1.5,0.1,1.7-0.8,1.4-2.1c-0.1-0.3,0.1-0.9,0.3-1.1C516.8,717.3,515.2,714.9,515.6,712.4z"/>
		<path class="st5" d="M546.3,761c-1.4,1.4-2.5,2.4-3.6,3.4c1.1,2.2,3.4,3.5,2.9,6.2c0,0.2,0.9,0.6,1.4,0.9c0.3-0.5,0.8-1,0.7-1.5
			C547.4,767.2,546.9,764.5,546.3,761z"/>
		<path class="st5" d="M550.7,780.7c-1.4,0.8-2.4,1.3-3.5,1.9c-0.5,0.3-0.9,0.5-1.3,0.9c-0.7,0.7-1.7,1.5-0.7,2.7
			c0.6,0.8,2.3,0.6,3.2-0.2c0.2-0.2,0.5-0.5,0.5-0.8c0.4-1.2,1.3-1.5,2.4-1.6c0.5-0.1,1-0.5,2-1
			C552.1,781.7,551.2,781.1,550.7,780.7z"/>
		<path class="st5" d="M487.7,772.8c0.5,0,0.7,0,0.9,0c1.5-0.2,2.7-1.6,2.4-3.1c-0.4-1.8-1.7-1.1-2.8-0.9c-0.6,0.1-1.3-0.1-1.8,0.1
			c-0.6,0.2-1.4,0.7-1.5,1.1c-0.1,0.5,0.3,1.4,0.8,1.8C486.3,772.5,487.2,772.6,487.7,772.8z"/>
		<path class="st5" d="M576.1,714.9c-3.4-0.9-5.6,0.3-5.7,3.1c-0.1,1.2,0.6,1.8,1.7,1.5C573.6,719.2,575.7,716.8,576.1,714.9z"/>
		<path class="st5" d="M543.6,733.7c0.4-0.2,1.5-0.6,1.8-1.2c0.5-1.2-0.4-2-1.4-2.4c-1.2-0.5-2.4-1-3.6,0c-0.3,0.3-0.6,1-0.5,1.4
			C540.5,732.8,541.6,733.5,543.6,733.7z"/>
		<path class="st5" d="M570,772.5c-2.8-1.3-4.5-1-6.1,0.9C566.5,775.5,568.4,775.3,570,772.5z"/>
		<path class="st5" d="M531.9,763.1c-0.2,0.3-0.8,0.7-0.9,1.2c-0.2,1.2,1.5,3.4,2.4,3.2c0.6-0.1,1.4-0.9,1.6-1.5
			C535.3,764.9,533.3,763.1,531.9,763.1z"/>
		<path class="st5" d="M541.5,725.3c0.5-0.8,0.8-1.8,1.4-2.1c1.9-0.9,1.5-2.2,0.8-4.1c-0.9,0.7-1.8,1-2.1,1.7
			C541.1,722.1,539.8,723.6,541.5,725.3z"/>
		<path class="st5" d="M461,741.7c-2.5-2.1-3.6-1.5-5.2,2.5c0.4,0.2,0.9,0.6,1,0.5C458.2,743.8,459.5,742.9,461,741.7z"/>
		<path class="st5" d="M565.9,739.5c-2.4,1.3-2,3.5-2.6,5.3c-0.1,0.2,1.1,1.1,1.8,1.2c1,0.1,1.7-0.9,1.2-1.7
			C565.5,742.8,565.8,741.3,565.9,739.5z"/>
		<path class="st5" d="M470.7,751.3c0.6,0,1.3,0.2,1.6,0c1-0.7,2-1.5,2.8-2.4c0.4-0.5,0.6-1.3,0.5-2c0-0.3-0.8-0.9-1.1-0.9
			c-0.6,0.2-1.6,0.8-1.6,1.2C473.1,749,471.9,750,470.7,751.3z"/>
		<path class="st5" d="M578.5,724.7c1.1,0.1,1.9-0.9,1.3-1.9c-0.6-0.8-1.4-1.6-2.3-2.1c-1-0.6-2,0.3-1.9,1.3
			C575.8,723.2,577.4,724.7,578.5,724.7z"/>
		<path class="st5" d="M489.9,755.6c-0.1,2-1.3,4.2,0.9,6.1C493,759.1,490.6,757.5,489.9,755.6z"/>
		<path class="st5" d="M459,733.9c-2.3,0.9-3.5,2-3.9,3.8c-0.1,0.5,0.3,1.3,0.6,1.5c0.4,0.2,1.4,0,1.6-0.4
			C457.9,737.4,458.3,736,459,733.9z"/>
		<path class="st5" d="M513.6,785.1c1.1,1.1,2.2,2.1,3.8,0.9c0.4-0.3,0.4-1.4,0.2-1.9c-0.6-1.2-2.2-1-3.8,0.2
			C513.7,784.5,513.7,784.6,513.6,785.1z"/>
		<path class="st5" d="M553.9,725.9c-0.5-1.1-0.8-1.9-1.4-2.5c-0.4-0.4-1.4-0.8-1.8-0.6c-0.5,0.2-1.1,1.1-1.1,1.7
			c0,0.5,0.8,1.2,1.3,1.4C551.7,726.1,552.6,725.9,553.9,725.9z"/>
		<path class="st5" d="M550.3,778.1c2.2-2.4,1.8-4-1.5-4.8C548.4,775.2,549.4,776.6,550.3,778.1z"/>
		<path class="st5" d="M568.6,701.6c1.1,1.1,2.1,1.1,2.8,0.1c1.2-1.7-0.2-3-1-4.5C569.7,698.7,569.2,700.1,568.6,701.6z"/>
		<path class="st5" d="M480.8,740.4c-0.8,1.2-1.6,1.8-1.7,2.6c-0.1,0.3,1,1.1,1.7,1.3c0.9,0.2,1.9-0.2,1.7-1.2
			C482.5,742.3,481.7,741.6,480.8,740.4z"/>
		<path class="st5" d="M565,781.5c-2,1.3-2.8,2.6-2,3.3c0.5,0.4,1.7,0.5,2.2,0.2C566.7,783.8,565.9,782.6,565,781.5z"/>
		<path class="st5" d="M528.4,697.9c0,0.3,0,0.5,0.1,0.8c0.9,0.3,1.8,0.7,2.7,0.7c0.8,0,1.8-0.6,1.4-1.6c-0.2-0.6-1.3-1.1-1.9-1.1
			C529.9,696.8,529.2,697.5,528.4,697.9z"/>
		<path class="st5" d="M465.6,748.8c1.5,2,1.5,2,3.4,2.2c-0.2-0.7-0.7-1.6-0.5-2.2c0.2-0.6,1.1-1.1,1.7-1.6
			c-0.1-0.2-0.3-0.4-0.4-0.6C468.5,747.3,467.2,748,465.6,748.8z"/>
		<path class="st5" d="M498.3,774.3c0.9-1.6,1.1-2.7-0.1-3.5c-0.4-0.3-1.3-0.4-1.7-0.2c-0.3,0.2-0.5,1.2-0.2,1.6
			C496.7,772.9,497.5,773.4,498.3,774.3z"/>
		<path class="st5" d="M542,776c-0.2-2.1-0.3-3.7-0.4-5.5C539,772.2,539.1,773.7,542,776z"/>
		<path class="st5" d="M545.9,718.9c0,0.3,0.1,0.6,0.1,0.8c1.2,0,2.5,0.1,3.7,0c0.5-0.1,0.9-0.6,1.4-0.9c-0.5-0.4-1.1-1.2-1.6-1.1
			C548.3,717.9,547.1,718.5,545.9,718.9z"/>
		<path class="st5" d="M465.3,758.3c1.8-0.2,2.9-1.1,2.6-2.1c-0.1-0.4-0.7-0.8-1.1-0.8C465.4,755.4,465.1,756.1,465.3,758.3z"/>
		<path class="st5" d="M537,780c-1.1-0.5-1.7-1.1-2.2-1c-0.5,0.1-0.9,0.8-1.4,1.3c0.5,0.4,1,1.1,1.5,1.1
			C535.5,781.4,536,780.7,537,780z"/>
		<path class="st5" d="M479.5,760.1c-0.9-1-1.3-1.7-1.8-2c-0.4-0.2-1.2,0-1.6,0.3c-0.3,0.2-0.5,1-0.3,1.4c0.2,0.4,0.8,0.6,1.3,0.6
			C477.6,760.5,478.2,760.3,479.5,760.1z"/>
		<path class="st5" d="M528.4,696.6c-1.1-0.6-1.7-1.3-2-1.1c-0.7,0.3-1.2,1-1.7,1.5c0.4,0.3,0.9,1,1.3,0.9
			C526.6,697.7,527.2,697.2,528.4,696.6z"/>
		<path class="st5" d="M536.1,750.1c-0.8-0.7-1.3-1.4-1.9-1.6c-0.2-0.1-1.2,0.8-1.1,1.2c0.1,0.6,0.7,1.1,1,1.7
			C534.7,751.1,535.3,750.7,536.1,750.1z"/>
		<path class="st5" d="M532.6,758.9c-1-1-1.9-1.5-2.8-0.3c-0.2,0.3-0.1,1.1,0.2,1.4C531.2,760.9,531.8,759.9,532.6,758.9z"/>
		<path class="st5" d="M441.1,717.4c-0.6-0.5-1.2-1.2-1.5-1.1c-0.5,0.2-0.9,0.8-1.4,1.3c0.5,0.4,1,1,1.5,1.2
			C440,718.8,440.5,717.9,441.1,717.4z"/>
		<path class="st5" d="M496.3,754.6c0.3-0.2,0.7-0.5,1-0.7c-0.4-0.7-0.8-1.4-1.2-2.1c-0.5,0.4-0.9,0.7-1.4,1.1
			C495.3,753.4,495.8,754,496.3,754.6z"/>
		<path class="st5" d="M506.4,761.3c1.2-1,1-1.9-0.1-2.6c-0.2-0.2-0.7,0.1-1.1,0.1c0.2,0.7,0.3,1.4,0.5,2.1
			C505.8,761.1,506.2,761.2,506.4,761.3z"/>
		<path class="st5" d="M489.4,748.8c0.5,1.2,1.3,1.6,2.3,1.3c0.2-0.1,0.5-1,0.3-1.3C491.3,747.9,490.4,748,489.4,748.8z"/>
		<path class="st5" d="M561.2,779.2c-0.5,0.8-1,1.2-0.9,1.5c0.2,0.5,0.6,0.9,1,1.4c0.4-0.3,1.1-0.6,1-0.8
			C562.2,780.7,561.7,780.2,561.2,779.2z"/>
		<path class="st5" d="M506.7,702.1c0.3-0.2,0.5-0.3,0.8-0.5c0.2-0.4,0.7-1,0.5-1.2c-0.3-0.5-0.8-0.7-1.3-1.1
			c-0.3,0.4-0.8,0.8-0.7,1.1C506.1,701.1,506.5,701.6,506.7,702.1z"/>
		<path class="st5" d="M570.7,737.3c-0.5-0.5-0.9-1-1.1-1c-0.4,0.1-0.9,0.6-0.9,0.9c0,0.3,0.5,0.7,0.8,1.1
			C569.8,738.1,570.2,737.8,570.7,737.3z"/>
		<path class="st5" d="M543.3,755.5c-0.4-0.4-0.8-0.8-1-0.8c-0.4,0.1-0.7,0.5-1.1,0.8c0.3,0.4,0.6,0.7,0.9,1.1
			C542.4,756.3,542.8,756,543.3,755.5z"/>
		<path class="st5" d="M529.7,715.4c-0.7,0.1-1.4,0.2-2.5,0.4C528.4,717.3,529.2,717.3,529.7,715.4z"/>
		<path class="st5" d="M531.4,727.4c-1.3-1.2-2.2-1-2.5,0.5c0,0.1,0.2,0.3,0.4,0.6C530,728.2,530.7,727.8,531.4,727.4z"/>
		<path class="st5" d="M538.8,785.9c0.4-0.1,0.7-0.2,1.1-0.4c-0.3-0.5-0.5-1.1-0.8-1.5c-0.1-0.1-0.5,0.1-0.8,0.2
			C538.4,784.8,538.6,785.4,538.8,785.9z"/>
		<path class="st5" d="M501.8,785.2c-0.7-0.3-1.1-0.6-1.3-0.5c-0.4,0.2-0.7,0.6-0.9,1c0,0.1,0.6,0.7,0.7,0.7
			C500.8,786.2,501.1,785.8,501.8,785.2z"/>
		<path class="st5" d="M507.6,740.4c-0.4,0.5-0.9,0.9-0.8,1c0.1,0.4,0.5,0.8,0.8,1.1c0.3-0.2,0.8-0.5,0.8-0.7
			C508.4,741.4,508,741,507.6,740.4z"/>
		<path class="st5" d="M575.4,751.8c0.2,1,0.6,1.6,1.7,1.2c0.2-0.1,0.4-0.6,0.3-0.8C576.9,751.2,576.2,751.1,575.4,751.8z"/>
		<path class="st5" d="M452.1,745.8c-0.2-0.3-0.3-0.5-0.5-0.8c-0.3-0.2-0.7-0.5-1-0.4c-0.3,0-0.5,0.5-0.8,0.7
			c0.4,0.3,0.7,0.7,1.1,0.8C451.2,746.1,451.6,745.9,452.1,745.8z"/>
		<path class="st5" d="M494.4,682.5c0.2,0.2,0.5,0.5,0.7,0.7c0.4-0.5,0.9-1,1.3-1.4c-0.2-0.2-0.4-0.3-0.5-0.5
			C495.4,681.7,494.9,682.1,494.4,682.5z"/>
		<path class="st5" d="M492,751.4c-0.2,0-0.4,0.1-0.6,0.1c0,0.5,0.1,1,0.1,1.6c0.3-0.1,0.8-0.2,0.8-0.2
			C492.2,752.3,492.1,751.8,492,751.4z"/>
		<path class="st5" d="M459.6,753c-0.3-0.3-0.6-0.5-0.9-0.7c-0.2,0.3-0.5,0.7-0.5,0.9c0.1,0.3,0.6,0.5,0.9,0.7
			C459.2,753.7,459.3,753.4,459.6,753z"/>
		<path class="st5" d="M460.1,693.4c-0.4,0.7-0.6,1.3-0.9,1.8c0.2,0.1,0.4,0.2,0.5,0.2C460.8,695.2,460.8,694.6,460.1,693.4z"/>
		<path class="st5" d="M547.7,677.5c-0.7,0.5-1.2,0.9-1.8,1.3c-0.2-0.4-0.4-0.6-0.4-0.8C545.9,677.1,546.5,676.8,547.7,677.5z"/>
		<path class="st5" d="M488.6,738.3c1-1.5,1-1.5,2.7-0.1C490.4,739,489.5,738.9,488.6,738.3z"/>
		<path class="st5" d="M472.2,721.8c-1.2-0.5-1.9-0.8-3-1.3C471.1,719.8,471.1,719.8,472.2,721.8z"/>
		<path class="st5" d="M451.4,730.1c0.8-1.6,1.6-1.8,2.5-1.2c1,0.6,1.3,1.5,0.5,2.8C453.4,731.2,452.5,730.7,451.4,730.1z"/>
	</g>
	<g>
		<path class="st5" d="M616.1,618.6c1.8-0.2,2.3-1.2,1.9-2.5c-1.5-1-2.6-1.7-3.7-2.5c-1.2-0.8-2.3-1.7-3.5-2.6
			c-1.4,0.3-1.7,1-1.4,2.5c0.4,2.2,0.5,4.6-1.9,6.1c-0.3,0.2-0.2,1-0.3,1.6c0.5,0,1.1,0,1.6-0.1c0.2-0.1,0.4-0.5,0.6-0.7
			c0.7-1.2,1.8-1.5,2.8-1.6c0.5,1.3,0.8,2.4,1.2,3.5C615.7,621.4,616,620,616.1,618.6L616.1,618.6z"/>
		<path class="st5" d="M530.7,561.3c-1-0.6-2-1.1-3-1.7c0.1-1.8,0.6-3.1,2.4-3.8c1-0.4,1.7-1.3,2.6-2c-2.5-2.3-2.9-2.3-5-0.6
			c-0.9,0.7-1.9,1.3-2.9,2c-1.1,0.8-2.3,1.5-3.3,2.4c-1.1,0.9-0.9,1.9,0,2.7c0.6,0.6,1.4,1.1,2.6,1.9c-1.3,0.3-2.1,0.3-2.7,0.7
			c-0.5,0.3-1.2,1-1,1.4c0.8,2.6-0.4,5-0.6,7.5c-0.1,1.3,0,2.5,1.9,3c0.1-1.2,0.1-2.2,0.2-3.3c1.1,0,2,0.1,2.9,0
			c0.8-0.2,1.9-0.4,2.2-1c1.5-2.9,3.8-5.6,3.8-9.2c0.5,0.2,1.2,0.3,1.4,0.7c0.4,0.7,0.5,1.5,0.8,2.2c1.9-0.2,3.4-0.2,5-0.6
			c0.8-0.2,1.7-0.9,2.3-1.5c1.2-1.3,0.7-2.6-1-3.1c-0.6-0.2-1.3-0.1-1.8-0.4c-0.5-0.3-1.1-1-1-1.4c0.1-0.6,0.5-1.5,1.1-1.7
			c0.8-0.4,1.8-0.3,2.3-0.3c1.8-2.1,0.4-3.4-1-4.8c1.9-0.8,3.4-1.5,5-2.3c-0.8-1.9-2.2-2.1-3.7-1.6c-1.2,0.5-2.1,0.6-3.3,0.1
			c-1-0.5-2-0.2-2.2,1c-0.4,1.8-1.1,3.8-0.7,5.5c0.5,2.6-0.3,4.2-2.2,5.7C530.8,559.2,530.9,560.4,530.7,561.3z"/>
		<path class="st5" d="M566.8,517.1c0.2-1.5,0.3-3,0.5-4.5c-0.2,0-0.3,0-0.5-0.1c0.5-0.6,0.9-1.3,1.4-2.1c-2.4-1.4-1.6,1.2-2.4,1.5
			c-1.2,0-2.2,0-3.6,0c0.3,1.2,0.9,2.1,0.8,2.9c-0.1,0.7-0.8,1.4-1.1,2c1.7,0,3.3,0,4.9,0c-0.2,1.4-1,2.2-2.3,2.9
			c-2.5,1.3-3.1,1.1-4.2-1.7c-0.4-1-1-1.8-1.6-2.6c-0.9-1.2-2-1.6-3.3-0.5c-1,0.9-1.9,1-3.2,0.8c-1.6-0.3-3.1,0.1-3.9,1.8
			c2.5,3.1,3.7,3.2,7.5,0.5c0.9,1.7,1.7,3.3,2.5,5c-1,1.1-1.8,2.1-2.7,3.2c1.2,1.6,3.8,2.4,2.6,5c-3.4,0.9-4.3,1.8-5.2,5.1
			c2.8,1.2,3.2-2.3,4.8-2.5c1.5,0.7,2.7,1.4,4,1.7c0.4,0.1,1.4-0.6,1.6-1.1c0.1-0.3-0.5-1.1-0.9-1.6c-0.4-0.4-1-0.6-1.7-1
			c1.6-2-0.2-3.3-1.2-5.1c2.3-0.9,4.4-1.6,6.5-2.4c0.3-0.9,0.4-2.3,1-2.8c0.7-0.6,2.1-0.4,3.1-0.6
			C569.9,517.2,569.9,517.2,566.8,517.1z"/>
		<path class="st5" d="M494.8,513.1c-0.3-1-0.3-2.2-2-1.7c0.2,1.4,1,1.7,2.1,1.6c-0.4,1.1-0.8,2.3-1.1,3.4c2,1.1,3.4,0.9,4.8-0.4
			c1.3-1.1,0.8-2.2,0.2-3.4c-0.6-1.1-0.1-2,1.1-2.7c1.8,2.4,3.8,0.9,6.1,0c-0.6,2.4-1,4.5-1.5,6.5c-1.1,0.3-2.2,0.6-3.4,0.9
			c0.2,0.6,0.2,1.1,0.4,1.3c1.3,1.3,3,2.1,4.6,1.5c1.5-0.6,2.8-2.2,2.7-3.9c-0.1-1.9,0.8-2.7,2.3-3.3c0.5-0.2,1-0.6,1.4-0.8
			c-0.3-2.6-2.7-0.9-3.6-2.3c0.1-0.7,0.3-1.4,0.5-2.3c-5.7,0.5-5.5-4.4-7.8-7.6c1.4-0.1,2.3-0.2,3.4-0.2c-3-3-3.3-3.1-6.4-1.6
			c-1.8-0.7-2.1-2.2-2.1-3.9c-0.4,0.7-0.4,1.4-0.5,2c-0.6,3.2-0.6,3.2,2.5,4c0.4,1.1,0.9,2.3,1.3,3.4c-1,0.5-1.8,0.9-2.6,1.4
			c0.3,0.9,0.5,1.6,0.8,2.5c-1.7,0.7-2.5,1.7-1.7,3.7C497,512.3,496.1,513,494.8,513.1z"/>
		<path class="st5" d="M461,452.1c1.1,0,2.2,0,3.3,0c0.6,2,1.2,4,1.9,6.2c2-0.6,3.7-1.1,5.3-1.7c1.7-0.6,3.3-1.4,4.9-2.1
			c0.2-0.1,0.5,0.3,0.9,0.4c-0.2,0.9-0.4,1.8-0.6,2.6c2.9,1.8,6.2,1.1,7.9-1.7c-1.2-1.4-2.4-2.9-3.8-4.2c-0.6-0.5-1.7-0.6-2.6-0.5
			c-0.6,0.1-1.2,0.7-1.9,1.2c-1.9-2.2-3.8-4.4-5.7-6.7c0.5-1,1.2-2.4,1.9-3.9c0.8-0.3,1.8-0.6,2.8-1c-0.8-1.6-1.5-2.9-2.1-4.2
			c-0.5-1.2-1.3-1.6-2.5-1.1c-1.1,0.5-1.6,1.3-1,2.5c0.4,0.7,0.7,1.5,1,2.2c-1.1,1.1-2.2,1.6-3.6,1.3c-0.9-0.2-1.9-0.2-2.8-0.3
			l0.1,0c2.1-2,1.4-4.5,0.7-6.7c-0.6-2-3.3-1.9-4.6-0.2c-0.6,0.8-1.3,1.5-1.9,2.3c-3.1-3.2-3.2-3.3-5.9-1.9c1.7,1.5,1.1,3.1,0.4,4.9
			c-0.4,1.2-0.2,2.7-0.3,4.1c0,0.3,0.3,0.5,0.5,0.9c0.9,0,1.8,0,2.9,0c0.4,3.4,3,2.6,5.2,2.8C461.3,449.1,461.1,450.6,461,452.1
			c-2,1.5-1.3,3.7-1.3,5.6c0,0.3,0.7,0.9,1,0.9c0.4,0,1-0.4,1.2-0.8C462.7,455.8,462.8,453.8,461,452.1z"/>
		<path class="st5" d="M530.9,529c-1.7,0-1.8-1-1.7-2c0.1-1.7-0.7-2.6-2.2-3c-1.7-0.5-3.3-1-5.4-1.7c0.6-1.5,1-3,1.8-4.2
			c1.4-2.1,1.2-2.6-1.5-3.5c-1.9,3.1-3.8,6.2-5.7,9.3c1.5,1.8,2.7,3.6,1.9,6c-0.1,0.3,0.8,1.2,1.3,1.4c2.1,0.9,2.4,1.3,2,3.4
			c-0.3,2-0.7,4.1-1,6.5c-1,0.2-2.3,0.5-4.1,0.9c0.7-2.1,1.3-3.5,1.6-5.1c0.2-1,0.1-2.1-0.3-3c-1-2.2-2.2-4.3-3.3-6.5
			c-0.5-0.9-1.2-1.7-1.8-2.5c-0.1-0.1-0.1-0.4-0.1-0.6c0.5-0.8,1-1.5,1.5-2.3c-2.7-2.1-2.9-2.1-4.9,0c-0.8,0.8-1.2,1.5-2.6,0.8
			c-0.9-0.5-1,0.6-0.6,1.4c0.7,0.1,1.5,0,2.1,0.2c2.7,1.1,2.9,2.2,1.1,4.5c-0.4,0.5-1,1-1.1,1.5c-0.2,0.7-0.2,1.7,0.2,2.3
			c0.2,0.4,1.2,0.3,2.1,0.6c0-1.5,0-2.6,0-3.8c2.1-0.5,2.8,0.8,3,2.1c0.1,1.2-0.1,2.5-0.7,3.6c-0.8,1.6-0.7,2.8,0.8,3.9
			c0.4,0.3,0.7,0.8,1,1.1c-1.3,3.2-0.3,4.9,2.9,5.2c0.5,0.1,1.1,0,1.5,0.3c2.1,1.5,3.7,0.7,5.3-0.9c0.4-0.4,0.9-0.7,1.4-1.1
			c-0.4-0.9-0.8-1.6-1.2-2.5c0.9-0.3,1.5-0.5,2.3-0.7c0.7,1.1,1.3,2,1.9,3c-1.3,1.7-3.9,2.3-2.9,5.4c3.2-1.1,5.8-2.7,7.9-5.3
			c-1.1-0.8-2-1.4-2.8-1.9c0.2-2,0.3-3.9,0.5-5.8c0.1-1.3-0.3-1.8-1.6-1.6c-0.5,0.1-1,0.2-1.6,0.4c-0.4-0.8-0.6-1.5-1-2.1
			c-0.5-0.6-1.2-1.1-2-1.8c0.8-0.5,1.4-0.8,1.9-1.1c2,2.4,2.3,2.5,4.9,1.7c1.7-0.5,2-1.8,2.1-3.2c0.1-1.3-0.7-1.9-2.2-1.8
			C531.3,527.3,531.1,528.1,530.9,529z"/>
		<path class="st5" d="M509,418.2c0,0.4-0.1,0.8-0.1,1.2c0.1,2.1-0.7,3.2-2.6,3c-2.9-0.3-4.3,1.5-5.5,3.5c-0.8,1.3-1.6,2.4-3.2,2.9
			c-0.5,0.1-0.7,1-1.1,1.7c1.5,0.2,2.6,0.3,3.7,0.6c1.6,0.6,3.2,1.5,4.8,2.2c1.2,0.5,2.3,0.2,3.3-0.6c1.7-1.4,3.3-2.8,5-4.2
			c0.3,0.2,0.8,0.5,1.4,0.8c1.2,0.5,2.4,0.7,2.9-0.7c0.6-1.4-0.6-1.8-1.6-2.2c-1-0.4-2.2-0.5-3-2.3c1.9,0.4,3.3,1,4.7,0.9
			c1.3-0.1,2.6-0.9,3.9-1.4c0.4,1.1,0.9,2.2,1.3,3.4c0.9-0.5,1.6-0.9,2.6-1.5c0.8,0.6,1.7,1.3,2.5,2c1.5,1.3,3.6,1.4,4.5,0.1
			c1-1.4,1.8-3,2.7-4.5c-2.5-1.9-4.6-2.1-7.5-0.5c-0.5-1.1-0.8-2.1-1.4-3.1c-0.6-1.1-1.3-2.1-2.2-3c-0.9-1-1.9-0.7-3.1,0
			c-1.7,1-0.7,2.7-1.7,4.3c-2.2-0.2-4.6-0.3-6.9-0.5C511.5,417.6,511.5,417.6,509,418.2z"/>
		<path class="st5" d="M517.5,492.5c-0.3,0.6-0.4,0.8-0.4,1c0,1,0.6,2.3-0.8,2.7c-1.5,0.5-1.7-0.9-2.1-1.8c-0.4-0.7-0.6-1.7-1.8-1.3
			c-0.6,5.7-1.4,5.5-4.6,5.6c0.1,2.8,0.2,5.5,3,7.2c0.3,0.2,0.5,0.6,0.7,1c1.3,2.2,1.7,2.3,3.8,0.8c1.2-0.9,2.4-1.6,3.5-2.3
			c1.2,1,2.2,1.7,2.9,2.6c1.3,1.7,3.4,2.9,3.3,5.5c0,1.1,0.7,1.7,2.3,1.2c0.1-1.5,0.2-3.1,0.4-4.7c1.2,0.2,2.2,0.3,3.3,0.4
			c0.4-1.5,0.8-2.8-0.7-4c-0.9,0.7-1.8,1.4-2.7,2.1c-1.1-3-1-3.1,1.6-3.7c1.7-0.4,3.2-1,4-2.4c-0.6-1.4-1.1-2.5-1.5-3.7
			c-0.7-1.8-0.9-2-3.4-1.1c-0.1,0.9-0.2,1.8-0.3,2.6c-2.1,1.5-3.1-0.4-4.6-1.1c0.3,0.8,0.6,1.7,0.9,2.6c-1.8,0.7-3.5,1.4-5.5,2.2
			c0.5-1.9,2.9-2.8,1.4-4.8c-2.4,0-1.5,2.4-2.3,3.5c-0.8,0.2-1.6,0.2-2.2,0.5c-0.8,0.3-1.5,0.8-2.6,1.4c-0.2-0.9-0.6-1.6-0.4-2.1
			c0.5-1.4,1.3-2.7,1.7-3.5c1.4-1.1,2.4-1.8,3.3-2.6C518.8,495.2,518.8,494,517.5,492.5z"/>
		<path class="st5" d="M472.8,458c-0.3,0.2-0.6,0.4-0.9,0.6c0.7,1.6,1.5,3.1,2.2,4.7c-1.4,2.2-1.4,3.7,0.3,4.1
			c2.3,0.5,4.8,2,7.1-0.2c0.8-0.7,1.8-1.1,2.9-0.2c1.4,1.2,2.7,0.7,4.1-0.1c0.9-0.5,1.8-1.1,2.8-1.2c2.6-0.4,4.1-2.4,3.2-4.9
			c-0.7-1.9-1.9-3.6-2.9-5.4c0.3-0.2,0.8-0.3,1-0.6c2-2.2,4.2-2,6.5-0.5c0.4,0.3,0.9,0.6,1.4,0.7c1.1,0.3,1.8-0.2,2.1-1.3
			c0.3-1.3-0.2-1.9-1.4-2c-3.1-0.1-6.3,0-9.4,0c-0.4,1-0.8,1.9-1.2,2.8c-1-0.4-1.9-0.8-2.8-0.9c-0.6-0.1-1.8,0.1-1.9,0.4
			c-0.3,0.6-0.2,1.7,0.1,2.3c0.7,1,1.8,1.8,2.7,2.7c2,1.8,1.9,3-0.3,4.4c-3,2-7.2,1.6-10-0.9C476.7,460.9,474.7,459.5,472.8,458z"/>
		<path class="st5" d="M536.1,445.2c1.1,0.9,2.3,2,3.6,3.1c0.7-1.9,1.4-3.5,2-5.2c0.1-0.4,0-1.1-0.3-1.4c-1.9-2-5.2-1.5-6.6,0.8
			c-0.2,0.3-0.5,0.7-0.7,1c-3-1.4-3.4-2.4-2.1-5.2c0.7-1.4,1.2-2.7-0.6-3.8c-1,0.5-1.9,0.9-2.8,1.3c-1.4-2.8-3.7-3.8-7.8-3.4
			c0.2,3.7,4.1,3.1,5.8,5.3c-2.6,2.5-0.1,4,1.5,5.9c-0.8,0.9-1.5,1.6-2.2,2.4c-1.4,1.5-1.4,3.2,0.1,4.4c1.3,1.1,2.6,0.6,3.9-1
			c0.7-0.9,1.7-1.5,2.6-2.1C533.6,446.5,534.7,446,536.1,445.2z"/>
		<path class="st5" d="M588.9,586c2.5-2.9,2.8-3,5.5-0.5c1.8,1.6,3.4,1.2,5.1-1.4c-1.2-0.5-2.5-1-3.6-1.5c0-0.4-0.1-0.6-0.1-0.8
			c-0.1-0.7-0.2-1.4-0.3-2c-0.7,0.2-1.4,0.2-1.9,0.6c-0.7,0.4-1.3,1.1-2.4,0.1c0.6-1.5,0.8-3.7,2-4.6c2.2-1.7,2-3.4,1.2-5.8
			c-1.4,1.3-2.8,2-3.2,3.9c-0.6,2.4-1.1,2.5-3.2,1.1c-0.3-0.2-0.7-0.4-1.3-0.6c-1.4,3.6-5.2,2.5-8,4c0.5,1.2,1,2.4,1.5,3.5
			c-0.4,0.8-0.8,1.5-1.3,2.4c1.1,0.2,1.9,0.4,2.8,0.6c0.7,0.1,1.4,0.3,2.1,0.5c0.1-0.2,0.2-0.4,0.3-0.7c-0.9-0.8-1.8-1.5-2.7-2.3
			c1-3.2,3-0.5,4.4-0.9c0.3-1,0.6-1.9,0.9-2.7c0.2,0,0.4,0,0.7,0c0.4,0.9,0.9,1.8,1.3,2.6C586.1,583.5,586.1,584.2,588.9,586z"/>
		<path class="st5" d="M551.7,502.4c0.5-0.1,1-0.3,1.5-0.2c0.9,0.2,1.8,0.6,2.7,0.9c1.1,0.3,2.3,0.3,2.5-1.2
			c0.2-1.2-0.9-1.5-1.9-1.6c-1.4-0.2-2.7-0.3-4.1-0.5c-0.4,0-0.9,0.1-1.1,0.3c-1.3,1.8-3,1.3-4.6,0.7c-1.3-0.4-2.1-0.1-2.9,1.1
			c-1.4,2.1-1.5,2.1,0.4,4c0.1,1.4-0.1,2.5,0.4,3.3c0.9,1.5,1,2.8,0.1,4.4c-0.9,1.7-0.8,3.5,1,4.9c3.2-1.8,0.8-3.9,0.3-6.2
			c2.3-0.9,4.4-1.7,6.6-2.6c0.8-0.3,1.5-0.7,2.1-1.3c1.4-1.4,1.3-2.3-0.5-3C552.5,505,551.7,504.2,551.7,502.4z"/>
		<path class="st5" d="M553.1,433.6c0-0.1,0-0.4,0-0.5c-1-3.4-3.7-6.5-1.8-10.4c0.2-0.4-0.3-1.8-0.7-1.8c-0.9-0.2-2.3-0.3-2.9,0.3
			c-1.4,1.2-3.2,2.4-2.7,4.4c-1-0.2-1.9-0.4-3.5-0.7c1.1,2.6,0,4-1.4,5.3c-1.1,0.9-1.2,1.9,0.2,2.9c0.4-0.2,0.8-0.4,1.1-0.6
			c2.7-2.4,2.8-2.4,5.3,0.2c0.4,0.4,1,1,1.5,1.1C549.8,433.7,551.5,433.6,553.1,433.6z"/>
		<path class="st5" d="M577.4,512.2c-0.9-0.4-1.5-0.9-2.2-0.9c-0.7-0.1-1.5,0.1-2,0.5c-1.8,1.5-2.2,4.1-1,6.1c0.6,1.1,1.5,1.8,2.6,1
			c1.6-1.1,3.1-0.8,4.8-0.5c2.2,0.4,2.8-0.2,3.2-2.4c0.2-0.9,0.2-1.9,0.5-2.8c1.5-4.5,0.9-5.3-3.8-4.9c-0.3,0-0.6,0.2-1,0.4
			C578.2,509.6,577.8,510.6,577.4,512.2z"/>
		<path class="st5" d="M514.9,486.8c3.1-1.5,5.1,1.3,8,1.7c-0.2-1.3-0.3-2.3-0.5-3.5c1.9,0.4,3.5,0.8,5.3,1.2c0-1.7,0-3,0-4.6
			c-1.9,0-3.8,0-5.6,0c-1.3-1.1,0.1-3.5-1.3-3.8c-1.9,0.7-3.2,1.3-4.5,1.7c-1.3,0.4-2.5,1.1-2.4,2.6
			C514.1,483.5,514.5,484.9,514.9,486.8z"/>
		<path class="st5" d="M602.4,540.1c0.2,0.2,0.5,0.4,0.7,0.5c1.9-0.6,3.1-2.1,4.2-3.7c1.3-1.8,2.7-3.5,3.9-5.3
			c3.3-4.6,4.4-8.3,0.5-13c-1.3-1.6-3-3-4.5-4.5c-1-0.9-2.1-1.3-3.8-0.9c1.6,1.5,3.1,2.8,4.4,4.2c3.1,3.2,3.7,6.8,1.8,10.8
			c-1.1,2.3-2.7,4.3-4.1,6.4C604.5,536.5,603.5,538.3,602.4,540.1z"/>
		<path class="st5" d="M586.1,526c0.1-0.3,0.1-0.6,0.2-0.9c-2-1.4-4.1-2.7-6.7-2.8c-1.1-0.1-2.3,0.2-2.4,1.7
			c0.4,0.1,0.6,0.2,0.7,0.2c0.9-0.1,2.1-0.5,2.3,0.9c0.2,1.2-0.8,1.6-1.8,1.8c-0.7,0.2-1.6,0.2-2,0.7c-1.3,1.4-2.6,2.3-4.6,2.3
			c-1.2,0-1.5,1-1,2.2c0.9,0.2,1.9,0.3,2.8,0.5c0.3,1.3,0.5,2.4,0.8,4c1.3-1,2.6-1.6,3.1-2.6c0.4-0.8-0.2-2.1-0.4-3.5
			c1.7-0.1,3.3-0.2,5.1-0.4c0.3-1.3,0.5-2.5,0.8-3.6C584.1,526.4,585.1,526.2,586.1,526z"/>
		<path class="st5" d="M533.6,507.2c1.7,1.6,3.4,2.9,2.3,5.3c-0.1,0.3,0.4,1,0.7,1.2c0.4,0.2,1.2,0.1,1.4-0.2
			c0.4-0.7,0.6-1.5,0.8-2.2c0.2-0.8,0.1-1.8,0.5-2.3c1.2-1.4,0.8-2.7,0.1-4.1c-0.6-1.2-1.3-2.4-1.5-3.7c-0.1-1.1-0.2-1.9-1.4-2
			c-1.2-0.2-2,0.3-2.6,1.4c-1.1,1.8,0.4,3,1,4.3C534.5,505.5,534.1,506.2,533.6,507.2z"/>
		<path class="st5" d="M509.6,574.5c-0.4,0.6-0.8,1-0.8,1.3c-0.2,0.9-0.6,1.9-0.3,2.6c0.5,1.2,1.7,1.4,3,1c0.7-0.2,1.5-0.1,2.2-0.3
			c3.5-0.7,5.1-3.3,4.4-6.9c-0.1-0.7,0.4-1.5,0.4-2.3c0-0.5-0.4-1-0.6-1.5c-0.5,0.3-1.2,0.5-1.4,0.9c-0.6,1.5-0.9,3-1.4,4.5
			c-0.9,2.5-2,2.8-4.3,1.4C510.4,575.1,510.1,574.8,509.6,574.5z"/>
		<path class="st5" d="M568.4,546c0.5,2.2-1.4,2.1-2.9,2.5c0.6,2.4,0.9,3,1.9,3c1.8,0.1,3.7,0,5.9,0c-0.9-1.7-1.5-2.8-2.2-4.2
			c3.4,1.1,3.4,1.1,5.1-1.8c-0.2-0.3-0.3-0.7-0.6-1c-1.7-2.1-2.7-2.2-4,0C570.9,545.9,569.7,545.3,568.4,546z"/>
		<path class="st5" d="M508.9,614.3c-0.1,0.7-0.4,1.2-0.3,1.7c0.1,0.6,0.6,1.2,0.9,1.7c0.5-0.4,1.5-0.8,1.6-1.3
			c0.1-2.2,1.4-3.1,3.2-3.8c1.1-0.4,1.8-1.3,1.2-2.5c-0.5-1.2-1.6-1.4-2.7-1c-1,0.3-1.9,0.8-2.9,1.2c-0.9-2.8-0.9-2.8-3-2.2
			c0.5,0.9,1.1,1.7,1.7,2.8c-1,0.6-2,1.2-3.5,2.1C506.6,613.5,507.7,613.8,508.9,614.3z"/>
		<path class="st5" d="M581,617.1c-2-3.2-2.4-3.4-5.8-1.9c-3.1-3.1-5.2-2.5-7,2.3c0.8,0.5,1.8,1.6,2.5,1.4c1.7-0.4,3.2-1.3,5-2.1
			C577.3,617.2,579,618.8,581,617.1z"/>
		<path class="st5" d="M535.8,522c-0.2,0.2-0.4,0.5-0.6,0.7c0.6,0.6,1.2,1.3,1.9,1.8c0.5,0.5,1.4,0.7,1.7,1.2
			c1.3,2.6,3.5,2.1,6.1,2.3c-0.6-2.4,1.1-3.4,3.1-4.5c-2-0.6-3.6-1-5.1-1.5c-0.6,0.8-1,1.4-1.6,2.2
			C539.4,523.5,537.6,522.8,535.8,522z"/>
		<path class="st5" d="M613.4,603.8c-1.3-0.8-2.2-1.3-3.1-2c-1.1-0.9-2.3-1-2.9,0.2c-0.9,1.6-1.6,3.4-2.2,5.2
			c-0.1,0.3,0.2,1.2,0.5,1.3c0.5,0.2,1.3,0.3,1.7,0c0.5-0.4,0.8-1.2,1.1-1.8c0.3-0.6,0.5-1.2,0.9-2.4c0.6,1.5,0.9,2.4,1.2,3.2
			C613.6,607.3,613.7,607.1,613.4,603.8z"/>
		<path class="st5" d="M538.2,453.6c1.8,0.2,3.4,0.4,5,0.4c0.5,0,1.2-0.4,1.5-0.9c2-2.6,1.9-4.9-0.2-7.4c-0.5-0.7-1.2-1.5-2-0.7
			c-0.4,0.4-0.3,1.5-0.1,2.2c0.2,0.7,0.8,1.4,1.3,2.1C541.9,450.9,539.3,451.3,538.2,453.6z"/>
		<path class="st5" d="M571.6,582.2c0,0.4-0.1,0.8-0.1,1.2c-0.1,0.9-0.3,1.7,0.8,2.1c1.1,0.4,1.8,0,2.4-0.8c0.4-0.6,0.9-1.2,1.5-1.6
			c1.4-1.1,1.5-2.4,0.8-3.9c-2.6-0.4-5.1-0.5-7.5,1.5C570.2,581.2,570.9,581.6,571.6,582.2z"/>
		<path class="st5" d="M488.3,510.5c1,0.7,1.8,0.3,2.5-0.4c0.7-0.7,1.5-1.4,2.4-2c1.4-1,1.4-2-0.2-2.8c-0.6-0.3-1.5-0.5-2.1-0.4
			c-2,0.4-4,0.5-6,0c-0.1,0-0.2,0.3-0.6,0.8c1.1,0.6,2.2,1.2,3.5,2C488,508.5,488.2,509.5,488.3,510.5z"/>
		<path class="st5" d="M549.3,537.5c-1.7-0.9-3-1.5-4.3-2.3c-1.4-0.8-2.3-0.5-2.9,1.1c-0.5,1.2-1,2.4-1.5,3.7c0.7,1,1.7,1.9,2.7,0.7
			c1.3-1.6,2.6-1.4,4.2-0.9c0.3,0.1,0.6-0.1,1.1-0.1C548.9,538.9,549.1,538.2,549.3,537.5z"/>
		<path class="st5" d="M543.8,435.6c0.2,0.8,0.4,1.4,0.4,2c0,0.7-0.2,1.4-0.2,2.2c0,0.6,0,1.3,0.3,1.8c0.4,0.5,1,1,1.6,1.2
			c0.3,0.1,1-0.8,1.1-1.3c0.1-1.4,0.8-2,2.2-2.1c0.3,0,0.8-1.3,0.6-1.7C549.2,436.2,546.1,435.2,543.8,435.6z"/>
		<path class="st5" d="M548.2,597.3c-2.3-1.8-5.5-1.6-6.9,0.3c-0.7,1-0.7,2.2,0.2,3.2c1.4,1.4,3,1.5,5.1,0.4
			C545.6,598.9,545.6,598.9,548.2,597.3z"/>
		<path class="st5" d="M537.1,487.4c-1.3-0.5-2.5-1.1-3.7-1.5c-1.5-0.5-2.7,0-3.3,1.5c-0.3,0.8-0.5,1.6-0.6,2.4
			c-0.1,0.5,0.1,1.1,0.4,1.4c0.3,0.2,1.1,0.1,1.4-0.2c0.8-0.9,1.6-1.1,2.8-0.9C536.1,490.6,536.3,490.3,537.1,487.4z"/>
		<path class="st5" d="M502.2,610.6c0.6-0.7,1-1.3,1.4-1.9c0.1-0.2-0.1-0.6-0.3-0.8c-0.2-0.2-0.6-0.2-0.9-0.1
			c-1.7,0.7-3.8,4.9-3.5,6.6c0.1,0.4,0.4,1,0.6,1c1,0,2.2,0.2,3-0.2c1-0.5,1.3-1.6,0.8-2.7C503.2,611.9,502.8,611.4,502.2,610.6z"/>
		<path class="st5" d="M513.2,516.6c0.2,0.4,0.5,1.2,1.1,1.5c0.4,0.2,1.3-0.4,1.7-0.9c0.9-1.1,1.8-2.4,2.4-3.7
			c0.3-0.5,0.3-1.6-0.1-1.9c-0.4-0.4-1.4-0.4-2-0.2C514.1,512.1,513.8,514.2,513.2,516.6z"/>
		<path class="st5" d="M538.3,533.2c1.7-0.1,3.1-0.1,4.4-0.3c0.6-0.1,1.2-0.6,1.8-0.9c-0.4-0.6-0.7-1.7-1.3-1.8
			c-1.4-0.5-3-0.5-4.7-0.8C538.4,530.9,538.3,531.9,538.3,533.2z"/>
		<path class="st5" d="M557.7,563.2c-0.9-2.6-1.9-3.3-4-2.7c-0.7,0.2-1.3,0.9-2,1.4c0.5,0.6,0.8,1.4,1.5,1.8
			C554.7,564.4,556.3,564.8,557.7,563.2z"/>
		<path class="st5" d="M538,596.7c-0.7-0.5-1-0.9-1.1-0.8c-1.9,0.6-3.8,0.8-5.8,0.3c-0.3-0.1-1,0.4-1.2,0.8c-0.1,0.4,0,1.2,0.3,1.4
			c0.6,0.5,1.4,0.8,2.2,1C534.8,599.8,536,598,538,596.7z"/>
		<path class="st5" d="M531.7,457.1c0.6-0.6,1.1-1.2,1.6-1.7c0.7-0.6,1.7-1.3,1-2.3c-0.4-0.5-1.4-0.7-2.2-0.9
			c-0.3-0.1-0.6,0.1-0.9,0.1c-0.2,0.9-0.5,1.8-0.6,2.3c-1.1,1.2-2.7-0.7-3.6,1.2C528.7,456.2,530,456.6,531.7,457.1z"/>
		<path class="st5" d="M603.6,573.3c0.4-0.6,0.8-1.1,1.1-1.6c1.5-2.5,0.9-4.1-1.9-4.9c-0.4-0.1-1.3-0.1-1.4,0.2
			c-0.3,0.4-0.3,1.2-0.1,1.7C601.9,570.2,602.7,571.5,603.6,573.3z"/>
		<path class="st5" d="M500.3,433c-1.8-0.1-3.3-0.4-4.7-0.3c-0.5,0-1.3,0.8-1.4,1.4c-0.2,1.1-0.2,2.3,1.2,3.1
			C496.9,436,498.4,434.7,500.3,433z"/>
		<path class="st5" d="M531,467.8c-0.5,0.5-1.3,1.3-1.9,2.1c-0.7,1-0.9,2.2-0.1,3.2c0.6,0.8,1.3,0.6,1.8-0.1c0.7-1,1.4-2.1,1.9-3.2
			C533.3,468.8,532.6,467.9,531,467.8z"/>
		<path class="st5" d="M567.7,505.1c2.1,1.2,2.9,2.6,1.7,4.5c-0.2,0.3,0.2,1.3,0.4,1.3c0.5,0.1,1.6-0.1,1.6-0.3
			c0.2-1.4,0.7-2.9,0.2-4.1C571.3,505.3,569.9,504.4,567.7,505.1z"/>
		<path class="st5" d="M533.7,532.5c-1.5,2.9-1,4.1,2.1,6.7C536.6,537.6,535.6,534.3,533.7,532.5z"/>
		<path class="st5" d="M505.5,495.3c0.8,0.5,1.3,1.1,1.8,1c0.8,0,1.8-0.3,2.4-0.8c0.3-0.2-0.2-1.4-0.5-2.1c-0.3-0.6-1-1.1-1.5-1.7
			C506.9,492.9,506.3,494,505.5,495.3z"/>
		<path class="st5" d="M516,552.4c2.2,0.3,3.1-0.8,3.1-2.2c0.1-2.4-2.2-2.7-3.9-4.4C515.2,548.5,518,550,516,552.4z"/>
		<path class="st5" d="M486.9,482.7c3.3-1.2,3.4-2.7,0.4-5.4C485.7,478.9,485.6,480.7,486.9,482.7z"/>
		<path class="st5" d="M614.2,555.2c-0.4-0.3-0.8-0.9-1.4-1c-1.1-0.2-3,1.4-2.8,2.4c0.1,0.6,0.8,1.2,1.3,1.4
			C612.1,558.3,614,556.6,614.2,555.2z"/>
		<path class="st5" d="M544.2,458.7c-0.8-1.1-1.2-2.1-1.9-2.7c-0.4-0.3-1.5-0.2-1.9,0.2c-0.5,0.5-0.8,1.4-0.9,2.2
			c0,0.2,1.1,0.7,1.7,0.8C542.1,459.3,542.9,459,544.2,458.7z"/>
		<path class="st5" d="M488.5,513c-0.3,0.3-1.3,0.8-1.4,1.4c-0.2,1.2,0.6,1.9,1.9,2c1.1,0,2.3,0,2.4-1.4
			C491.5,513.3,490.1,513.3,488.5,513z"/>
		<path class="st5" d="M535.1,434.5c0.5-2.6,0.5-2.6-1-4.3c-1.2,0.4-2.2,0.9-2,2.3C532.2,434,533.5,434.4,535.1,434.5z"/>
		<path class="st5" d="M620.6,552.8c-1.9,0.5-2.8,1.6-3.1,2.9c-0.1,0.6,0.4,1.7,0.9,2c0.8,0.5,1.7-0.1,1.9-1
			C620.5,555.5,620.5,554.3,620.6,552.8z"/>
		<path class="st5" d="M593.9,619.5c0.6,2.7,2.4,4.4,4.6,4.2c0.4,0,1-0.5,1-0.9c0-0.4-0.3-1-0.7-1.2
			C597.2,620.9,595.6,620.3,593.9,619.5z"/>
		<path class="st5" d="M557,444.3c-0.1-0.2-0.2-0.5-0.2-0.7c-1.8-0.5-3.5,0.4-5.1,1c-0.3,0.1-0.6,1.2-0.5,1.6
			c0.2,0.4,1.2,0.7,1.5,0.6C554.2,446,555.6,445.1,557,444.3z"/>
		<path class="st5" d="M501,534.3c1.9,1.9,2.3,1.9,3.3,0.2c0.3-0.5,0.7-1.2,0.7-1.8c0-0.5-0.4-1.1-0.6-1.6c-0.4,0.2-1,0.3-1.3,0.6
			C502.4,532.4,501.8,533.3,501,534.3z"/>
		<path class="st5" d="M601.1,616.5c0.5,2.1,1.4,2.9,2.9,3c0.6,0,1.2-0.5,1.8-0.8c-0.4-0.6-0.7-1.6-1.3-1.8
			C603.7,616.5,602.6,616.6,601.1,616.5z"/>
		<path class="st5" d="M516.5,460.1c-1.4,1.4-1.9,2.9-1,4.7c1.3-0.1,2.4-0.4,2.8-1.7C518.6,461.8,518.1,460.9,516.5,460.1z"/>
		<path class="st5" d="M560.2,603.3c-1.7,0.3-3,0.5-2.8,2.3c0.2,1.3,1.2,1.6,3.9,1.1C560.9,605.6,560.6,604.6,560.2,603.3z"/>
		<path class="st5" d="M507,435.5c0.6,2.7,2.1,3.3,4.3,1.9C509.7,435.4,509.7,435.4,507,435.5z"/>
		<path class="st5" d="M550.1,542c-0.3-0.2-1-0.9-1.1-0.8c-0.8,0.6-1.6,1.5-2.3,2.2c0.5,0.4,0.9,1.2,1.5,1.2
			C549.1,544.8,550.2,543.4,550.1,542z"/>
		<path class="st5" d="M551.7,494.9c-1.1-0.8-1.6-1.4-2.2-1.5c-1-0.1-1.9,0.6-1.7,1.7c0.1,0.6,1,1.5,1.5,1.5
			C550,496.6,550.6,495.7,551.7,494.9z"/>
		<path class="st5" d="M567.6,541.4c1.2,1.6,2.4,1.3,3.4,0.4c0.4-0.3,0.2-1.2,0.3-1.9c-0.5-0.1-1.2-0.4-1.6-0.2
			C568.9,540.1,568.3,540.8,567.6,541.4z"/>
		<path class="st5" d="M517.3,565.8c-1.1-1-1.6-1.8-2.3-2c-0.5-0.1-1.5,0.7-1.7,1.3c-0.3,1.2,0.7,1.6,1.7,1.6
			C515.6,566.7,516.2,566.3,517.3,565.8z"/>
		<path class="st5" d="M553.3,512.9c-1-1.2-2.2-1.6-3.3-0.4c-0.7,0.8-0.1,1.7,0.7,2.1C552.4,515.5,552.9,514.2,553.3,512.9z"/>
		<path class="st5" d="M528.5,518.5c-1.3,0.4-1.6,1.1-1,2c0.6,1,1.5,1.9,2.2,2.8C531.1,522.1,531.1,522.1,528.5,518.5z"/>
		<path class="st5" d="M517.2,586.9c-1.6-0.2-2.8-0.9-3.2,0.7c-0.2,0.6,0.4,1.9,0.8,2C516.6,590,516.4,588.4,517.2,586.9z"/>
		<path class="st5" d="M480.2,461.3c1.4,1,2.5,0.8,3.4-0.3c0.2-0.2-0.1-1.1-0.4-1.3C481.8,458.9,480.9,459.7,480.2,461.3z"/>
		<path class="st5" d="M494.7,500.9c-0.7-1.3-1.6-1.7-2.7-1c-0.3,0.2-0.3,1.3,0,1.6C492.9,502.4,493.8,502.3,494.7,500.9z"/>
		<path class="st5" d="M529.8,467.6c0.7-0.8,1.4-1.3,1.4-1.8c0-0.5-0.8-1.3-1.2-1.3c-0.5,0-1.4,0.7-1.4,1.1
			C528.5,466.1,529.2,466.7,529.8,467.6z"/>
		<path class="st5" d="M537.4,449.9c-1.2-0.1-2.6-0.7-3,1.4C535.9,451.9,536.9,451.6,537.4,449.9z"/>
		<path class="st5" d="M605.1,582.7c-0.8-0.6-1.3-1.1-1.8-1.2c-0.3,0-1.1,0.9-1,1.1c0.2,0.5,0.8,1.1,1.3,1.3
			C603.8,584,604.4,583.3,605.1,582.7z"/>
		<path class="st5" d="M502.6,439.3c1.2,0.7,2.1,0.6,2.6-0.6c0.1-0.3-0.2-1.1-0.5-1.2c-1.2-0.4-1.7,0.5-2.1,1.3
			C502.6,438.8,502.6,438.9,502.6,439.3z"/>
		<path class="st5" d="M554.7,529.5c-0.9-0.7-1.4-1.1-2.1-1.5c-0.1,0-0.9,0.9-0.8,1c0.3,0.6,0.8,1.1,1.4,1.5
			C553.3,530.7,553.9,530.1,554.7,529.5z"/>
		<path class="st5" d="M526.3,492.2c0.8-0.8,1.4-1.3,1.9-1.8c-0.4-0.4-0.9-1-1.2-1c-0.6,0.1-1.2,0.5-1.5,1
			C525.2,490.6,525.8,491.3,526.3,492.2z"/>
		<path class="st5" d="M535.8,435.3c-0.3,0-0.6,0-0.9,0c-0.2,0.8-0.7,1.6-0.6,2.4c0,0.4,0.9,0.7,1.5,1c0.2-0.1,0.4-0.3,0.6-0.4
			C536.2,437.3,536,436.3,535.8,435.3z"/>
		<path class="st5" d="M500.6,446.1c1.3-0.7,2.1-1.3,1.6-2.7C499.7,443.8,499.7,443.8,500.6,446.1z"/>
		<path class="st5" d="M579.8,534.9c1.1,0,1.9,0.2,2.3-0.1c0.4-0.3,0.4-1.1,0.7-2.3c-1.1,0.5-1.6,0.7-2,0.9
			C580.6,533.7,580.4,534.1,579.8,534.9z"/>
		<path class="st5" d="M502.1,596c1.5-0.2,2.4-0.3,3.9-0.5c-0.9-1.2-1.3-1.7-1.9-2.5C503.3,594.2,502.9,594.8,502.1,596z"/>
		<path class="st5" d="M552.9,527c-0.3-2-0.7-3.1-2.8-3.6C550.6,525,551.2,526,552.9,527z"/>
		<path class="st5" d="M585.5,519.8c0.5-0.7,1-1.1,1-1.6c0-0.3-0.6-0.7-0.9-1.1c-0.4,0.5-0.9,0.9-1.2,1.5
			C584.3,518.8,585,519.3,585.5,519.8z"/>
		<path class="st5" d="M488.5,450c1.3,0.9,2.2,1.2,2.7-0.3c0.1-0.3-0.2-0.7-0.5-1.4C489.9,449,489.3,449.4,488.5,450z"/>
		<path class="st5" d="M485,439.8c0.5-0.8,1-1.3,1-1.8c0-0.5-0.6-0.9-0.9-1.4c-0.5,0.4-1.2,0.8-1.4,1.3
			C483.5,438.2,484.2,438.8,485,439.8z"/>
		<path class="st5" d="M591.8,544.4c-0.9-1.7-1.6-1.8-2.3-1.1c-0.2,0.2-0.1,0.7-0.2,1.1C590,544.4,590.7,544.4,591.8,544.4z"/>
		<path class="st5" d="M607,575.7c-0.8-0.5-1.3-0.9-1.6-0.8c-0.5,0.2-1,0.6-1.2,1.1c-0.1,0.1,0.7,1,0.8,1
			C605.6,576.8,606.1,576.3,607,575.7z"/>
		<path class="st5" d="M521.6,579.5c-0.6,0.7-1.1,1.1-1.2,1.6c-0.1,0.2,0.5,0.9,0.9,0.9c0.4,0,1.1-0.4,1.1-0.7
			C522.4,580.9,522,580.4,521.6,579.5z"/>
		<path class="st5" d="M539.8,518.4c-0.5,0.7-0.9,1.2-1,1.7c0,0.3,0.6,0.7,0.9,1c0.4-0.4,0.9-0.8,1-1.3
			C540.8,519.6,540.3,519.1,539.8,518.4z"/>
		<path class="st5" d="M516.4,442.5c-0.2-0.1-0.4-0.2-0.7-0.3c-0.4,0.4-1.1,0.9-1,1.1c0.2,0.5,0.8,1,1.6,1.9
			C516.4,443.8,516.4,443.1,516.4,442.5z"/>
		<path class="st5" d="M549.8,597.2c0,0.2,0,0.4,0.1,0.6c0.5,0.1,1.1,0.4,1.6,0.3c0.3,0,0.7-0.5,0.7-0.7c0-0.3-0.5-0.8-0.7-0.8
			C550.9,596.7,550.4,597,549.8,597.2z"/>
		<path class="st5" d="M560.8,507.5c-0.5-0.4-1-0.8-1.1-0.8c-0.4,0.4-0.8,0.8-1,1.3c-0.1,0.1,0.4,0.5,0.7,0.8
			C559.8,508.4,560.2,508,560.8,507.5z"/>
		<path class="st5" d="M530,577.8c-0.5-0.4-0.9-0.9-1.6-1.5C527.9,578,528.3,578.5,530,577.8z"/>
		<path class="st5" d="M520.9,619.5c-0.4,0.6-0.7,0.9-0.8,1.3c0,0.2,0.5,0.5,0.7,0.8c0.4-0.4,0.7-0.8,1.1-1.2
			C521.6,620.2,521.3,619.9,520.9,619.5z"/>
		<path class="st5" d="M583.9,605.3c-0.6-0.5-1-0.8-1.4-1.1c-0.2,0.3-0.7,0.6-0.6,0.9c0.1,0.3,0.5,0.7,0.8,0.8
			C582.9,606,583.3,605.6,583.9,605.3z"/>
		<path class="st5" d="M534.7,459.6c-0.7-0.4-1.1-0.8-1.5-0.7c-0.3,0.1-0.8,0.7-0.8,1c0,0.3,0.6,0.8,1,0.8
			C533.8,460.7,534.1,460.1,534.7,459.6z"/>
		<path class="st5" d="M616.2,609.5c-0.4-0.4-0.6-0.7-0.8-1c-0.3,0.3-0.7,0.6-0.9,1c-0.1,0.1,0.4,0.7,0.7,0.7
			C615.4,610.2,615.8,609.8,616.2,609.5z"/>
		<path class="st5" d="M614.2,551.8c-0.4-0.4-0.7-0.9-0.9-0.9c-0.4,0-1,0.3-1.1,0.6c-0.1,0.3,0.4,0.8,0.6,1.1
			C613.3,552.4,613.7,552.1,614.2,551.8z"/>
		<path class="st5" d="M557.2,598.3c0.4-0.5,0.9-0.9,0.8-1.1c-0.1-0.4-0.5-0.7-0.8-1.1c-0.3,0.2-0.8,0.5-0.8,0.7
			C556.5,597.2,556.9,597.6,557.2,598.3z"/>
		<path class="st5" d="M572.9,494.7c-0.2-0.1-0.5-0.3-0.7-0.4c-0.2,0.5-0.5,0.9-0.5,1.4c0,0.3,0.5,0.7,0.8,1c0.3-0.3,0.8-0.6,0.9-1
			C573.4,495.4,573.1,495,572.9,494.7z"/>
		<path class="st5" d="M619.1,593.5c0-1.8-0.2-2.7-2.1-2.2C617.8,592.1,618.3,592.6,619.1,593.5z"/>
		<path class="st5" d="M514.9,583c1.1-0.8,1.3-1.4,0.5-2.6c-0.3,0.5-0.7,0.8-0.7,1.2C514.6,581.9,514.8,582.3,514.9,583z"/>
		<path class="st5" d="M558.8,510.7c-0.6-0.4-0.9-0.7-1.2-0.8c-0.2,0-0.5,0.3-0.8,0.4c0.2,0.3,0.4,0.8,0.6,0.9
			C557.6,511.3,558,511,558.8,510.7z"/>
		<path class="st5" d="M529.9,516c-0.5-0.2-0.8-0.5-1.1-0.5c-0.1,0-0.5,0.6-0.4,0.7c0.2,0.3,0.5,0.5,0.9,0.6
			C529.3,516.8,529.6,516.4,529.9,516z"/>
		<path class="st5" d="M592.9,588.5c0-0.2-0.1-0.4-0.1-0.6c-0.5,0.2-1.1,0.3-1.6,0.5c0,0,0,0.3,0.1,0.5
			C591.7,588.7,592.3,588.6,592.9,588.5z"/>
		<path class="st5" d="M524.4,476.8c-0.3,0.4-0.8,0.8-0.7,1c0.1,0.3,0.5,0.7,0.8,0.7c0.2,0,0.7-0.5,0.7-0.7
			C525.2,477.5,524.8,477.2,524.4,476.8z"/>
		<path class="st5" d="M500.9,468.9c-1.2-0.7-1.5-1-1.6-1c-0.3,0.2-0.5,0.5-0.6,0.9c0,0.1,0.4,0.5,0.6,0.5
			C499.6,469.3,500,469.1,500.9,468.9z"/>
		<path class="st5" d="M554.2,578.5c-0.4,0.6-0.7,0.9-0.7,1.1c0.1,0.3,0.5,0.7,0.8,0.8c0.2,0.1,0.8-0.5,0.8-0.6
			C555,579.5,554.6,579.2,554.2,578.5z"/>
		<path class="st5" d="M503.6,435.2c-1.1-0.8-1.8-1.6-2.4,0.1C501.9,435.3,502.5,435.3,503.6,435.2z"/>
		<path class="st5" d="M585.5,589.4c-1.3,0.6-1.6,1.2-0.2,2.1C585.3,590.7,585.4,590.1,585.5,589.4z"/>
		<path class="st5" d="M576.5,622.4c0.3,0.1,0.5,0.2,0.8,0.3c0.2-0.6,0.4-1.2,0.6-1.8c-0.2-0.1-0.4-0.1-0.7-0.2
			C576.9,621.3,576.7,621.8,576.5,622.4z"/>
		<path class="st5" d="M542.5,610c0.9,0.4,2.1,0.9,3.3,1.6c1.2,0.6,2.2,1.6,1.7,3c-0.5,1.4-1.8,1.5-3.2,1.3c-2-0.2-3-1.8-4.4-3.2
			c-1.9,2-4.4-0.4-6.5,0.8c-0.2,0.1-0.7-0.2-0.8-0.4c-0.9-1.5-2.2-0.8-3.6-0.4c-0.3-1.8-2.3-2.8-1.3-5.2c0.4,0.6,0.8,0.9,1,1.3
			c1.1,2.4,3.3,3.2,5.6,2c1.2-0.6,2.2-0.7,3.6-0.4C539.2,610.8,540.8,610.2,542.5,610z"/>
		<path class="st5" d="M567.4,565.3c0,0.4,0.2,0.9,0.1,1.2c-0.7,2.2-1.5,4.4-2.3,6.9c-0.3-0.1-1-0.2-1.3-0.6
			c-0.4-0.4-0.5-1.2-0.9-1.6c-1.4-1.3-1.3-2.9-0.5-4.3c0.9-1.4,2.3-2.1,4.1-1.5c0.3,0.1,0.6,0,0.9,0
			C567.5,565.4,567.4,565.3,567.4,565.3z"/>
		<path class="st5" d="M524.9,538.6c1.6-0.4,2.6-0.6,3.7-0.9c0.2,1.6-0.9,2-1.9,2.2C526.3,539.9,525.7,539.2,524.9,538.6z"/>
		<path class="st5" d="M524.3,525.3c0,1.7,0,1.7-1.4,2.5C522.4,526.5,522.8,525.8,524.3,525.3z"/>
		<path class="st5" d="M476.5,495.9c0.3-1.8-0.8-3.5,1.4-4.6c1.9,3.1,3.3,6.3,2.5,10.5c-2.6-1.9-5.1-3.6-7.5-5.3
			c0.1-0.2,0.2-0.4,0.2-0.6C474.3,495.9,475.4,495.9,476.5,495.9z"/>
		<path class="st5" d="M505.7,426.1c1.1,2.4-0.6,2.7-1.8,3.6C503.3,427.9,504.2,427.1,505.7,426.1z"/>
		<path class="st5" d="M616.2,618.5c-0.8-0.1-1.6-0.2-3.1-0.4c1.1-0.7,1.7-1.1,2.6-1.7C615.8,617.4,616,618,616.2,618.5
			C616.1,618.6,616.2,618.5,616.2,618.5z"/>
	</g>
</g>
</svg>
